<svg width="246" height="94" viewBox="0 0 246 94" fill="none" xmlns="http://www.w3.org/2000/svg">
<g filter="url(#filter0_d_688_2195)">
<rect width="242" height="88" rx="10" fill="white"/>
<rect x="0.5" y="0.5" width="241" height="87" rx="9.5" stroke="#BDBDBD"/>
<path d="M55.5897 45.0817C55.5708 41.9669 57.0296 39.6194 59.9755 37.8884C58.3279 35.6049 55.8352 34.3489 52.5494 34.1069C49.4382 33.8694 46.0343 35.8606 44.788 35.8606C43.4708 35.8606 40.4588 34.1891 38.0888 34.1891C33.1979 34.2621 28 37.9615 28 45.4881C28 47.7123 28.4202 50.0096 29.2605 52.3754C30.3841 55.4902 34.4348 63.1218 38.6601 62.9985C40.8695 62.9483 42.4322 61.4822 45.3073 61.4822C48.0974 61.4822 49.5421 62.9985 52.0064 62.9985C56.2695 62.9391 59.933 56.0017 61 52.8778C55.2828 50.2699 55.5897 45.2415 55.5897 45.0817ZM50.6279 31.1519C53.0215 28.4025 52.8043 25.8997 52.7335 25C50.6185 25.1187 48.173 26.393 46.7803 27.9595C45.2459 29.6402 44.3442 31.7182 44.5378 34.0612C46.8227 34.2302 48.9094 33.093 50.6279 31.1519Z" fill="#252B42"/>
<path d="M90.662 24.214C92.4073 24.214 93.7467 24.6433 94.68 25.502C95.6133 26.3513 96.08 27.5367 96.08 29.058C96.08 30.5793 95.6227 31.7833 94.708 32.67C93.8027 33.5567 92.4167 34 90.55 34H87.204V24.214H90.662ZM90.774 32.068C91.7727 32.068 92.538 31.816 93.07 31.312C93.6113 30.808 93.882 30.0753 93.882 29.114C93.882 28.1527 93.6113 27.4153 93.07 26.902C92.538 26.3793 91.7167 26.118 90.606 26.118H89.388V32.068H90.774ZM99.6338 30.234C99.6338 30.85 99.8064 31.354 100.152 31.746C100.506 32.1287 100.954 32.32 101.496 32.32C102.046 32.32 102.494 32.1287 102.84 31.746C103.194 31.354 103.372 30.85 103.372 30.234C103.372 29.618 103.194 29.114 102.84 28.722C102.494 28.33 102.046 28.134 101.496 28.134C100.954 28.134 100.506 28.33 100.152 28.722C99.8064 29.114 99.6338 29.618 99.6338 30.234ZM105.486 30.234C105.486 31.326 105.108 32.2453 104.352 32.992C103.596 33.7387 102.644 34.112 101.496 34.112C100.357 34.112 99.4098 33.7387 98.6538 32.992C97.8978 32.2453 97.5198 31.326 97.5198 30.234C97.5198 29.142 97.8978 28.2227 98.6538 27.476C99.4098 26.72 100.357 26.342 101.496 26.342C102.644 26.342 103.596 26.72 104.352 27.476C105.108 28.2227 105.486 29.142 105.486 30.234ZM111.029 34H108.859L106.297 26.468H108.467L109.937 31.018L111.407 26.468H113.437L114.907 31.018L116.377 26.468H118.561L115.999 34H113.815L112.429 29.898L111.029 34ZM122.042 29.8V34H119.942V26.468H122.042V27.308C122.676 26.664 123.39 26.342 124.184 26.342C124.977 26.342 125.64 26.622 126.172 27.182C126.713 27.742 126.984 28.4887 126.984 29.422V34H124.884V29.744C124.884 28.5867 124.459 28.008 123.61 28.008C123.19 28.008 122.821 28.162 122.504 28.47C122.196 28.7687 122.042 29.212 122.042 29.8ZM131.183 34H129.083V23.612H131.183V34ZM135.051 30.234C135.051 30.85 135.224 31.354 135.569 31.746C135.924 32.1287 136.372 32.32 136.913 32.32C137.464 32.32 137.912 32.1287 138.257 31.746C138.612 31.354 138.789 30.85 138.789 30.234C138.789 29.618 138.612 29.114 138.257 28.722C137.912 28.33 137.464 28.134 136.913 28.134C136.372 28.134 135.924 28.33 135.569 28.722C135.224 29.114 135.051 29.618 135.051 30.234ZM140.903 30.234C140.903 31.326 140.525 32.2453 139.769 32.992C139.013 33.7387 138.061 34.112 136.913 34.112C135.774 34.112 134.827 33.7387 134.071 32.992C133.315 32.2453 132.937 31.326 132.937 30.234C132.937 29.142 133.315 28.2227 134.071 27.476C134.827 26.72 135.774 26.342 136.913 26.342C138.061 26.342 139.013 26.72 139.769 27.476C140.525 28.2227 140.903 29.142 140.903 30.234ZM149.061 34H147.087V33.09C146.545 33.7713 145.873 34.112 145.071 34.112C144.277 34.112 143.61 33.8833 143.069 33.426C142.527 32.9593 142.257 32.3433 142.257 31.578C142.257 30.8033 142.537 30.2247 143.097 29.842C143.657 29.4593 144.422 29.268 145.393 29.268H146.961V29.226C146.961 28.4233 146.536 28.022 145.687 28.022C145.323 28.022 144.935 28.0967 144.525 28.246C144.123 28.386 143.783 28.5633 143.503 28.778L142.565 27.42C143.554 26.7013 144.683 26.342 145.953 26.342C146.867 26.342 147.614 26.5707 148.193 27.028C148.771 27.4853 149.061 28.2087 149.061 29.198V34ZM146.947 31.13V30.766H145.631C144.791 30.766 144.371 31.0273 144.371 31.55C144.371 31.8207 144.469 32.0307 144.665 32.18C144.87 32.32 145.159 32.39 145.533 32.39C145.906 32.39 146.233 32.278 146.513 32.054C146.802 31.8207 146.947 31.5127 146.947 31.13ZM154.185 34.112C153.299 34.112 152.505 33.734 151.805 32.978C151.105 32.222 150.755 31.284 150.755 30.164C150.755 29.044 151.096 28.1293 151.777 27.42C152.459 26.7013 153.257 26.342 154.171 26.342C155.086 26.342 155.833 26.664 156.411 27.308V23.612H158.511V34H156.411V33.006C155.823 33.7433 155.081 34.112 154.185 34.112ZM152.869 30.248C152.869 30.8547 153.051 31.354 153.415 31.746C153.779 32.1287 154.204 32.32 154.689 32.32C155.175 32.32 155.585 32.1287 155.921 31.746C156.267 31.354 156.439 30.8547 156.439 30.248C156.439 29.632 156.267 29.1233 155.921 28.722C155.585 28.3113 155.17 28.106 154.675 28.106C154.181 28.106 153.756 28.3113 153.401 28.722C153.047 29.1327 152.869 29.6413 152.869 30.248ZM166.271 30.234C166.271 30.85 166.444 31.354 166.789 31.746C167.144 32.1287 167.592 32.32 168.133 32.32C168.684 32.32 169.132 32.1287 169.477 31.746C169.832 31.354 170.009 30.85 170.009 30.234C170.009 29.618 169.832 29.114 169.477 28.722C169.132 28.33 168.684 28.134 168.133 28.134C167.592 28.134 167.144 28.33 166.789 28.722C166.444 29.114 166.271 29.618 166.271 30.234ZM172.123 30.234C172.123 31.326 171.745 32.2453 170.989 32.992C170.233 33.7387 169.281 34.112 168.133 34.112C166.994 34.112 166.047 33.7387 165.291 32.992C164.535 32.2453 164.157 31.326 164.157 30.234C164.157 29.142 164.535 28.2227 165.291 27.476C166.047 26.72 166.994 26.342 168.133 26.342C169.281 26.342 170.233 26.72 170.989 27.476C171.745 28.2227 172.123 29.142 172.123 30.234ZM175.983 29.8V34H173.883V26.468H175.983V27.308C176.617 26.664 177.331 26.342 178.125 26.342C178.918 26.342 179.581 26.622 180.113 27.182C180.654 27.742 180.925 28.4887 180.925 29.422V34H178.825V29.744C178.825 28.5867 178.4 28.008 177.551 28.008C177.131 28.008 176.762 28.162 176.445 28.47C176.137 28.7687 175.983 29.212 175.983 29.8ZM189.421 27.98V31.354C189.421 31.6433 189.496 31.872 189.645 32.04C189.795 32.1987 189.972 32.278 190.177 32.278C190.569 32.278 190.901 32.1007 191.171 31.746L191.955 33.216C191.302 33.8133 190.611 34.112 189.883 34.112C189.165 34.112 188.553 33.874 188.049 33.398C187.555 32.922 187.307 32.2733 187.307 31.452V27.98H186.425V26.468H187.307V24.214H189.421V26.468H191.241V27.98H189.421ZM195.381 29.94V34H193.281V23.612H195.381V27.308C196.016 26.664 196.725 26.342 197.509 26.342C198.303 26.342 198.97 26.622 199.511 27.182C200.053 27.742 200.323 28.4887 200.323 29.422V34H198.223V29.884C198.223 28.7267 197.799 28.148 196.949 28.148C196.529 28.148 196.161 28.302 195.843 28.61C195.535 28.9087 195.381 29.352 195.381 29.94ZM208.947 32.908C208.098 33.7107 207.099 34.112 205.951 34.112C204.812 34.112 203.87 33.762 203.123 33.062C202.376 32.3527 202.003 31.4053 202.003 30.22C202.003 29.0347 202.381 28.092 203.137 27.392C203.902 26.692 204.803 26.342 205.839 26.342C206.875 26.342 207.752 26.6547 208.471 27.28C209.199 27.9053 209.563 28.764 209.563 29.856V30.976H204.075C204.14 31.3867 204.355 31.7227 204.719 31.984C205.083 32.2453 205.494 32.376 205.951 32.376C206.688 32.376 207.295 32.1287 207.771 31.634L208.947 32.908ZM207.435 29.478C207.388 29.03 207.22 28.6847 206.931 28.442C206.642 28.1993 206.287 28.078 205.867 28.078C205.456 28.078 205.078 28.204 204.733 28.456C204.388 28.708 204.187 29.0487 204.131 29.478H207.435Z" fill="#252B42"/>
<path d="M98.56 62H100.66L94.3 48H92.32L85.98 62H88.04L89.58 58.5H97.02L98.56 62ZM90.28 56.9L93.3 50.04L96.32 56.9H90.28ZM108.288 51.3C106.728 51.3 105.368 51.9 104.508 53.08V51.4H102.668V65.88H104.588V60.4C105.468 61.54 106.788 62.12 108.288 62.12C111.388 62.12 113.648 59.96 113.648 56.7C113.648 53.46 111.388 51.3 108.288 51.3ZM108.128 60.44C106.108 60.44 104.568 58.96 104.568 56.7C104.568 54.46 106.108 52.98 108.128 52.98C110.168 52.98 111.708 54.46 111.708 56.7C111.708 58.96 110.168 60.44 108.128 60.44ZM122.121 51.3C120.561 51.3 119.201 51.9 118.341 53.08V51.4H116.501V65.88H118.421V60.4C119.301 61.54 120.621 62.12 122.121 62.12C125.221 62.12 127.481 59.96 127.481 56.7C127.481 53.46 125.221 51.3 122.121 51.3ZM121.961 60.44C119.941 60.44 118.401 58.96 118.401 56.7C118.401 54.46 119.941 52.98 121.961 52.98C124.001 52.98 125.541 54.46 125.541 56.7C125.541 58.96 124.001 60.44 121.961 60.44ZM140.265 62.16C143.965 62.16 145.685 60.32 145.685 58.18C145.685 53.04 137.205 55.18 137.205 51.76C137.205 50.54 138.225 49.54 140.605 49.54C141.845 49.54 143.225 49.9 144.445 50.68L145.105 49.08C143.945 48.28 142.245 47.84 140.605 47.84C136.925 47.84 135.245 49.68 135.245 51.84C135.245 57.04 143.725 54.88 143.725 58.3C143.725 59.52 142.685 60.46 140.265 60.46C138.465 60.46 136.685 59.78 135.645 58.84L134.905 60.4C136.025 61.44 138.125 62.16 140.265 62.16ZM153.887 60C153.487 60.32 152.947 60.5 152.387 60.5C151.327 60.5 150.727 59.86 150.727 58.72V52.98H153.767V51.4H150.727V49.08H148.807V51.4H147.007V52.98H148.807V58.8C148.807 60.94 150.027 62.12 152.167 62.12C153.027 62.12 153.907 61.88 154.487 61.38L153.887 60ZM161.197 62.12C164.377 62.12 166.697 59.86 166.697 56.7C166.697 53.54 164.377 51.3 161.197 51.3C158.017 51.3 155.677 53.54 155.677 56.7C155.677 59.86 158.017 62.12 161.197 62.12ZM161.197 60.44C159.157 60.44 157.617 58.96 157.617 56.7C157.617 54.44 159.157 52.98 161.197 52.98C163.237 52.98 164.757 54.44 164.757 56.7C164.757 58.96 163.237 60.44 161.197 60.44ZM171.392 53.18V51.4H169.552V62H171.472V56.72C171.472 54.4 172.752 53.14 174.812 53.14C174.952 53.14 175.092 53.14 175.252 53.16V51.3C173.392 51.3 172.072 51.94 171.392 53.18ZM187.301 56.76C187.301 53.5 185.121 51.3 182.061 51.3C179.001 51.3 176.741 53.56 176.741 56.7C176.741 59.86 179.021 62.12 182.441 62.12C184.201 62.12 185.661 61.52 186.621 60.4L185.561 59.16C184.781 60.02 183.741 60.44 182.501 60.44C180.401 60.44 178.901 59.2 178.661 57.34H187.261C187.281 57.16 187.301 56.92 187.301 56.76ZM182.061 52.92C183.921 52.92 185.261 54.18 185.461 55.96H178.661C178.861 54.16 180.221 52.92 182.061 52.92Z" fill="#252B42"/>
</g>
<defs>
<filter id="filter0_d_688_2195" x="-4" y="-2" width="250" height="96" filterUnits="userSpaceOnUse" color-interpolation-filters="sRGB">
<feFlood flood-opacity="0" result="BackgroundImageFix"/>
<feColorMatrix in="SourceAlpha" type="matrix" values="0 0 0 0 0 0 0 0 0 0 0 0 0 0 0 0 0 0 127 0" result="hardAlpha"/>
<feOffset dy="2"/>
<feGaussianBlur stdDeviation="2"/>
<feColorMatrix type="matrix" values="0 0 0 0 0 0 0 0 0 0 0 0 0 0 0 0 0 0 0.1 0"/>
<feBlend mode="normal" in2="BackgroundImageFix" result="effect1_dropShadow_688_2195"/>
<feBlend mode="normal" in="SourceGraphic" in2="effect1_dropShadow_688_2195" result="shape"/>
</filter>
</defs>
</svg>
