<svg width="281" height="94" viewBox="0 0 281 94" fill="none" xmlns="http://www.w3.org/2000/svg">
<g filter="url(#filter0_d_688_2212)">
<rect x="4" width="273" height="88" rx="10" fill="white"/>
<rect x="4.5" y="0.5" width="272" height="87" rx="9.5" stroke="#BDBDBD"/>
<g clip-path="url(#clip0_688_2212)">
<path d="M43.2778 45.6471C43.2778 45.153 42.9556 44.8236 42.4722 44.8236H32.8056C32.3222 44.8236 32 45.153 32 45.6471V53.8824C32 54.3765 32.3222 54.7059 32.8056 54.8706L42.4722 56.0236C42.9556 56.0236 43.2778 55.6942 43.2778 55.3648V45.6471ZM45.6944 44.8236C45.2111 44.8236 44.8889 45.153 44.8889 45.6471V55.3648C44.8889 55.8589 45.2111 56.1883 45.6944 56.353L60.1944 58.0001C60.6778 58.0001 61 57.6706 61 57.3412V45.8118C61 45.3177 60.6778 44.9883 60.1944 44.9883L45.6944 44.8236ZM43.2778 32.8001C43.2778 32.3059 42.9556 31.9765 42.4722 32.1412L32.8056 33.2942C32.3222 33.2942 32 33.6236 32 34.1177V42.353C32 42.8471 32.3222 43.1765 32.8056 43.1765H42.4722C42.9556 43.1765 43.2778 42.8471 43.2778 42.353V32.8001ZM45.6944 31.8118C45.2111 31.8118 44.8889 32.3059 44.8889 32.8001V42.5177C44.8889 43.0118 45.2111 43.3412 45.6944 43.3412H60.1944C60.6778 43.3412 61 43.0118 61 42.5177V30.9883C61 30.4942 60.6778 30.1648 60.1944 30.3295L45.6944 31.8118Z" fill="#252B42"/>
</g>
<path d="M90.662 24.214C92.4073 24.214 93.7467 24.6433 94.68 25.502C95.6133 26.3513 96.08 27.5367 96.08 29.058C96.08 30.5793 95.6227 31.7833 94.708 32.67C93.8027 33.5567 92.4167 34 90.55 34H87.204V24.214H90.662ZM90.774 32.068C91.7727 32.068 92.538 31.816 93.07 31.312C93.6113 30.808 93.882 30.0753 93.882 29.114C93.882 28.1527 93.6113 27.4153 93.07 26.902C92.538 26.3793 91.7167 26.118 90.606 26.118H89.388V32.068H90.774ZM99.6338 30.234C99.6338 30.85 99.8064 31.354 100.152 31.746C100.506 32.1287 100.954 32.32 101.496 32.32C102.046 32.32 102.494 32.1287 102.84 31.746C103.194 31.354 103.372 30.85 103.372 30.234C103.372 29.618 103.194 29.114 102.84 28.722C102.494 28.33 102.046 28.134 101.496 28.134C100.954 28.134 100.506 28.33 100.152 28.722C99.8064 29.114 99.6338 29.618 99.6338 30.234ZM105.486 30.234C105.486 31.326 105.108 32.2453 104.352 32.992C103.596 33.7387 102.644 34.112 101.496 34.112C100.357 34.112 99.4098 33.7387 98.6538 32.992C97.8978 32.2453 97.5198 31.326 97.5198 30.234C97.5198 29.142 97.8978 28.2227 98.6538 27.476C99.4098 26.72 100.357 26.342 101.496 26.342C102.644 26.342 103.596 26.72 104.352 27.476C105.108 28.2227 105.486 29.142 105.486 30.234ZM111.029 34H108.859L106.297 26.468H108.467L109.937 31.018L111.407 26.468H113.437L114.907 31.018L116.377 26.468H118.561L115.999 34H113.815L112.429 29.898L111.029 34ZM122.042 29.8V34H119.942V26.468H122.042V27.308C122.676 26.664 123.39 26.342 124.184 26.342C124.977 26.342 125.64 26.622 126.172 27.182C126.713 27.742 126.984 28.4887 126.984 29.422V34H124.884V29.744C124.884 28.5867 124.459 28.008 123.61 28.008C123.19 28.008 122.821 28.162 122.504 28.47C122.196 28.7687 122.042 29.212 122.042 29.8ZM131.183 34H129.083V23.612H131.183V34ZM135.051 30.234C135.051 30.85 135.224 31.354 135.569 31.746C135.924 32.1287 136.372 32.32 136.913 32.32C137.464 32.32 137.912 32.1287 138.257 31.746C138.612 31.354 138.789 30.85 138.789 30.234C138.789 29.618 138.612 29.114 138.257 28.722C137.912 28.33 137.464 28.134 136.913 28.134C136.372 28.134 135.924 28.33 135.569 28.722C135.224 29.114 135.051 29.618 135.051 30.234ZM140.903 30.234C140.903 31.326 140.525 32.2453 139.769 32.992C139.013 33.7387 138.061 34.112 136.913 34.112C135.774 34.112 134.827 33.7387 134.071 32.992C133.315 32.2453 132.937 31.326 132.937 30.234C132.937 29.142 133.315 28.2227 134.071 27.476C134.827 26.72 135.774 26.342 136.913 26.342C138.061 26.342 139.013 26.72 139.769 27.476C140.525 28.2227 140.903 29.142 140.903 30.234ZM149.061 34H147.087V33.09C146.545 33.7713 145.873 34.112 145.071 34.112C144.277 34.112 143.61 33.8833 143.069 33.426C142.527 32.9593 142.257 32.3433 142.257 31.578C142.257 30.8033 142.537 30.2247 143.097 29.842C143.657 29.4593 144.422 29.268 145.393 29.268H146.961V29.226C146.961 28.4233 146.536 28.022 145.687 28.022C145.323 28.022 144.935 28.0967 144.525 28.246C144.123 28.386 143.783 28.5633 143.503 28.778L142.565 27.42C143.554 26.7013 144.683 26.342 145.953 26.342C146.867 26.342 147.614 26.5707 148.193 27.028C148.771 27.4853 149.061 28.2087 149.061 29.198V34ZM146.947 31.13V30.766H145.631C144.791 30.766 144.371 31.0273 144.371 31.55C144.371 31.8207 144.469 32.0307 144.665 32.18C144.87 32.32 145.159 32.39 145.533 32.39C145.906 32.39 146.233 32.278 146.513 32.054C146.802 31.8207 146.947 31.5127 146.947 31.13ZM154.185 34.112C153.299 34.112 152.505 33.734 151.805 32.978C151.105 32.222 150.755 31.284 150.755 30.164C150.755 29.044 151.096 28.1293 151.777 27.42C152.459 26.7013 153.257 26.342 154.171 26.342C155.086 26.342 155.833 26.664 156.411 27.308V23.612H158.511V34H156.411V33.006C155.823 33.7433 155.081 34.112 154.185 34.112ZM152.869 30.248C152.869 30.8547 153.051 31.354 153.415 31.746C153.779 32.1287 154.204 32.32 154.689 32.32C155.175 32.32 155.585 32.1287 155.921 31.746C156.267 31.354 156.439 30.8547 156.439 30.248C156.439 29.632 156.267 29.1233 155.921 28.722C155.585 28.3113 155.17 28.106 154.675 28.106C154.181 28.106 153.756 28.3113 153.401 28.722C153.047 29.1327 152.869 29.6413 152.869 30.248ZM166.271 30.234C166.271 30.85 166.444 31.354 166.789 31.746C167.144 32.1287 167.592 32.32 168.133 32.32C168.684 32.32 169.132 32.1287 169.477 31.746C169.832 31.354 170.009 30.85 170.009 30.234C170.009 29.618 169.832 29.114 169.477 28.722C169.132 28.33 168.684 28.134 168.133 28.134C167.592 28.134 167.144 28.33 166.789 28.722C166.444 29.114 166.271 29.618 166.271 30.234ZM172.123 30.234C172.123 31.326 171.745 32.2453 170.989 32.992C170.233 33.7387 169.281 34.112 168.133 34.112C166.994 34.112 166.047 33.7387 165.291 32.992C164.535 32.2453 164.157 31.326 164.157 30.234C164.157 29.142 164.535 28.2227 165.291 27.476C166.047 26.72 166.994 26.342 168.133 26.342C169.281 26.342 170.233 26.72 170.989 27.476C171.745 28.2227 172.123 29.142 172.123 30.234ZM175.983 29.8V34H173.883V26.468H175.983V27.308C176.617 26.664 177.331 26.342 178.125 26.342C178.918 26.342 179.581 26.622 180.113 27.182C180.654 27.742 180.925 28.4887 180.925 29.422V34H178.825V29.744C178.825 28.5867 178.4 28.008 177.551 28.008C177.131 28.008 176.762 28.162 176.445 28.47C176.137 28.7687 175.983 29.212 175.983 29.8ZM189.421 27.98V31.354C189.421 31.6433 189.496 31.872 189.645 32.04C189.795 32.1987 189.972 32.278 190.177 32.278C190.569 32.278 190.901 32.1007 191.171 31.746L191.955 33.216C191.302 33.8133 190.611 34.112 189.883 34.112C189.165 34.112 188.553 33.874 188.049 33.398C187.555 32.922 187.307 32.2733 187.307 31.452V27.98H186.425V26.468H187.307V24.214H189.421V26.468H191.241V27.98H189.421ZM195.381 29.94V34H193.281V23.612H195.381V27.308C196.016 26.664 196.725 26.342 197.509 26.342C198.303 26.342 198.97 26.622 199.511 27.182C200.053 27.742 200.323 28.4887 200.323 29.422V34H198.223V29.884C198.223 28.7267 197.799 28.148 196.949 28.148C196.529 28.148 196.161 28.302 195.843 28.61C195.535 28.9087 195.381 29.352 195.381 29.94ZM208.947 32.908C208.098 33.7107 207.099 34.112 205.951 34.112C204.812 34.112 203.87 33.762 203.123 33.062C202.376 32.3527 202.003 31.4053 202.003 30.22C202.003 29.0347 202.381 28.092 203.137 27.392C203.902 26.692 204.803 26.342 205.839 26.342C206.875 26.342 207.752 26.6547 208.471 27.28C209.199 27.9053 209.563 28.764 209.563 29.856V30.976H204.075C204.14 31.3867 204.355 31.7227 204.719 31.984C205.083 32.2453 205.494 32.376 205.951 32.376C206.688 32.376 207.295 32.1287 207.771 31.634L208.947 32.908ZM207.435 29.478C207.388 29.03 207.22 28.6847 206.931 28.442C206.642 28.1993 206.287 28.078 205.867 28.078C205.456 28.078 205.078 28.204 204.733 28.456C204.388 28.708 204.187 29.0487 204.131 29.478H207.435Z" fill="#252B42"/>
<path d="M105.98 48L102.12 59.44L98.26 48H96.42L92.48 59.38L88.7 48H86.64L91.32 62H93.46L97.28 50.82L101.1 62H103.2L107.88 48H105.98ZM111.226 49.36C111.986 49.36 112.526 48.8 112.526 48.08C112.526 47.4 111.966 46.86 111.226 46.86C110.486 46.86 109.926 47.42 109.926 48.12C109.926 48.82 110.486 49.36 111.226 49.36ZM110.266 62H112.186V51.4H110.266V62ZM121.712 51.3C120.032 51.3 118.672 51.92 117.892 53V51.4H116.052V62H117.972V56.54C117.972 54.24 119.292 53.02 121.332 53.02C123.152 53.02 124.192 54.04 124.192 56.12V62H126.112V55.9C126.112 52.78 124.292 51.3 121.712 51.3ZM138.004 47.16V53C137.124 51.86 135.804 51.3 134.304 51.3C131.204 51.3 128.944 53.46 128.944 56.7C128.944 59.94 131.204 62.12 134.304 62.12C135.864 62.12 137.224 61.52 138.084 60.32V62H139.924V47.16H138.004ZM134.464 60.44C132.424 60.44 130.884 58.96 130.884 56.7C130.884 54.44 132.424 52.98 134.464 52.98C136.484 52.98 138.024 54.44 138.024 56.7C138.024 58.96 136.484 60.44 134.464 60.44ZM148.297 62.12C151.477 62.12 153.797 59.86 153.797 56.7C153.797 53.54 151.477 51.3 148.297 51.3C145.117 51.3 142.777 53.54 142.777 56.7C142.777 59.86 145.117 62.12 148.297 62.12ZM148.297 60.44C146.257 60.44 144.717 58.96 144.717 56.7C144.717 54.44 146.257 52.98 148.297 52.98C150.337 52.98 151.857 54.44 151.857 56.7C151.857 58.96 150.337 60.44 148.297 60.44ZM170.679 51.4L167.519 59.88L164.379 51.4H162.759L159.559 59.84L156.479 51.4H154.659L158.599 62H160.439L163.539 53.96L166.599 62H168.439L172.399 51.4H170.679ZM177.451 62.12C180.271 62.12 182.031 60.9 182.031 58.98C182.031 54.86 175.311 56.9 175.311 54.4C175.311 53.56 176.131 52.94 177.811 52.94C178.851 52.94 179.911 53.16 180.871 53.78L181.691 52.26C180.771 51.66 179.211 51.3 177.831 51.3C175.111 51.3 173.411 52.58 173.411 54.48C173.411 58.7 180.111 56.64 180.111 59.02C180.111 59.92 179.371 60.46 177.591 60.46C176.211 60.46 174.771 60 173.871 59.36L173.071 60.88C173.951 61.58 175.691 62.12 177.451 62.12ZM194.561 62.16C198.261 62.16 199.981 60.32 199.981 58.18C199.981 53.04 191.501 55.18 191.501 51.76C191.501 50.54 192.521 49.54 194.901 49.54C196.141 49.54 197.521 49.9 198.741 50.68L199.401 49.08C198.241 48.28 196.541 47.84 194.901 47.84C191.221 47.84 189.541 49.68 189.541 51.84C189.541 57.04 198.021 54.88 198.021 58.3C198.021 59.52 196.981 60.46 194.561 60.46C192.761 60.46 190.981 59.78 189.941 58.84L189.201 60.4C190.321 61.44 192.421 62.16 194.561 62.16ZM208.183 60C207.783 60.32 207.243 60.5 206.683 60.5C205.623 60.5 205.023 59.86 205.023 58.72V52.98H208.063V51.4H205.023V49.08H203.103V51.4H201.303V52.98H203.103V58.8C203.103 60.94 204.323 62.12 206.463 62.12C207.323 62.12 208.203 61.88 208.783 61.38L208.183 60ZM215.493 62.12C218.673 62.12 220.993 59.86 220.993 56.7C220.993 53.54 218.673 51.3 215.493 51.3C212.313 51.3 209.973 53.54 209.973 56.7C209.973 59.86 212.313 62.12 215.493 62.12ZM215.493 60.44C213.453 60.44 211.913 58.96 211.913 56.7C211.913 54.44 213.453 52.98 215.493 52.98C217.533 52.98 219.053 54.44 219.053 56.7C219.053 58.96 217.533 60.44 215.493 60.44ZM225.688 53.18V51.4H223.848V62H225.768V56.72C225.768 54.4 227.048 53.14 229.108 53.14C229.248 53.14 229.388 53.14 229.548 53.16V51.3C227.688 51.3 226.368 51.94 225.688 53.18ZM241.597 56.76C241.597 53.5 239.417 51.3 236.357 51.3C233.297 51.3 231.037 53.56 231.037 56.7C231.037 59.86 233.317 62.12 236.737 62.12C238.497 62.12 239.957 61.52 240.917 60.4L239.857 59.16C239.077 60.02 238.037 60.44 236.797 60.44C234.697 60.44 233.197 59.2 232.957 57.34H241.557C241.577 57.16 241.597 56.92 241.597 56.76ZM236.357 52.92C238.217 52.92 239.557 54.18 239.757 55.96H232.957C233.157 54.16 234.517 52.92 236.357 52.92Z" fill="#252B42"/>
</g>
<defs>
<filter id="filter0_d_688_2212" x="0" y="-2" width="281" height="96" filterUnits="userSpaceOnUse" color-interpolation-filters="sRGB">
<feFlood flood-opacity="0" result="BackgroundImageFix"/>
<feColorMatrix in="SourceAlpha" type="matrix" values="0 0 0 0 0 0 0 0 0 0 0 0 0 0 0 0 0 0 127 0" result="hardAlpha"/>
<feOffset dy="2"/>
<feGaussianBlur stdDeviation="2"/>
<feColorMatrix type="matrix" values="0 0 0 0 0 0 0 0 0 0 0 0 0 0 0 0 0 0 0.1 0"/>
<feBlend mode="normal" in2="BackgroundImageFix" result="effect1_dropShadow_688_2212"/>
<feBlend mode="normal" in="SourceGraphic" in2="effect1_dropShadow_688_2212" result="shape"/>
</filter>
<clipPath id="clip0_688_2212">
<rect width="29" height="28.0001" fill="white" transform="translate(32 30)"/>
</clipPath>
</defs>
</svg>
