<svg width="271" height="94" viewBox="0 0 271 94" fill="none" xmlns="http://www.w3.org/2000/svg">
<g filter="url(#filter0_d_688_2206)">
<rect x="4" width="263" height="88" rx="10" fill="white"/>
<rect x="4.5" y="0.5" width="262" height="87" rx="9.5" stroke="#BDBDBD"/>
<g clip-path="url(#clip0_688_2206)">
<path d="M32.9613 53.5438C33.0777 53.3576 33.2591 53.3443 33.513 53.5058C39.3071 56.8498 45.6128 58.5313 52.4244 58.5313C56.97 58.5313 61.4544 57.682 65.8854 56.0005L66.3856 55.7782C66.6052 55.6813 66.7579 55.6186 66.8514 55.5711C67.2123 55.4305 67.4738 55.5008 67.6876 55.7782C67.8824 56.0499 67.8327 56.3083 67.4967 56.5382C67.0901 56.8384 66.5422 57.188 65.8931 57.5737C63.9134 58.7498 61.6874 59.6599 59.2265 60.3116C56.8791 60.9398 54.4601 61.2642 52.0293 61.2768C48.423 61.2768 45.0038 60.6498 41.7794 59.3958C38.5983 58.1566 35.668 56.3563 33.1293 54.0815C32.9689 53.9656 32.8906 53.8478 32.8906 53.7319C32.8906 53.6578 32.9212 53.5913 32.9689 53.5248L32.9613 53.5438ZM43.4212 43.6847C43.4212 42.0887 43.8164 40.7302 44.6029 39.5959C45.3933 38.4711 46.4681 37.618 47.8541 37.0385C49.1255 36.5046 50.6509 36.1265 52.4932 35.8947C53.1155 35.8244 54.1369 35.7313 55.5477 35.6192V35.0302C55.5477 33.5615 55.3874 32.5621 55.0743 32.0586C54.5932 31.3765 53.8334 31.0307 52.7776 31.0307H52.4913C51.7276 31.1048 51.0671 31.3385 50.5077 31.7584C49.9463 32.1873 49.5631 32.8068 49.431 33.4988C49.3374 33.9738 49.1026 34.2341 48.7418 34.3082L44.7232 33.8066C44.3242 33.7097 44.1294 33.5216 44.1294 33.1872C44.1294 33.1169 44.1409 33.0466 44.1638 32.9535C44.5628 30.9053 45.5288 29.3796 47.0656 28.3859C48.6196 27.4093 50.4104 26.8393 52.4645 26.7234H53.3255C55.9582 26.7234 58.0391 27.4093 59.5186 28.7678C59.7382 29.0015 59.952 29.2428 60.1677 29.524C60.3586 29.7881 60.5266 30.0256 60.6144 30.2403C60.7347 30.4512 60.8569 30.7628 60.9275 31.1428C61.0249 31.5475 61.0955 31.8116 61.1433 31.9522C61.1872 32.1156 61.2406 32.4272 61.2654 32.9288C61.2769 33.4266 61.296 33.7078 61.296 33.8047V42.1761C61.296 42.7727 61.3895 43.3199 61.5575 43.8196C61.7255 44.3136 61.8897 44.6765 62.0577 44.8893L62.8748 45.9552C62.9971 46.1241 63.0704 46.3233 63.0867 46.5309C63.0867 46.7247 62.9932 46.8881 62.8042 47.0249C60.8913 48.6912 59.8394 49.5937 59.6752 49.7381C59.4136 49.9528 59.0776 49.9756 58.6729 49.8122C58.379 49.5658 58.0992 49.3031 57.8348 49.0256L57.3423 48.4727C57.2449 48.353 57.0731 48.1421 56.8344 47.8039L56.3572 47.1142C55.0666 48.5202 53.8028 49.4037 52.5352 49.7609C51.7448 49.9984 50.7903 50.1181 49.6162 50.1181C47.8484 50.1181 46.3688 49.5766 45.2195 48.4784C44.0779 47.384 43.5014 45.8393 43.5014 43.8177L43.4193 43.698L43.4212 43.6847ZM49.3985 42.9874C49.3985 43.8899 49.6219 44.6062 50.0763 45.1515C50.5268 45.693 51.1511 45.9647 51.9185 45.9647C51.9854 45.9647 52.0865 45.9495 52.224 45.9305C52.3729 45.9077 52.4359 45.8925 52.4932 45.8925C53.4706 45.6398 54.2152 45.0166 54.7631 44.0267C55.0277 43.5792 55.2203 43.0932 55.3339 42.5865C55.479 42.0773 55.5248 41.6479 55.5458 41.3211C55.5764 41.0057 55.5764 40.4604 55.5764 39.7251V38.8682C54.2343 38.8682 53.2091 38.9613 52.5142 39.1494C50.4848 39.7251 49.452 41.0057 49.452 43.0045L49.3966 42.9741V42.9874H49.3985ZM63.9954 54.1309C64.0432 54.034 64.1157 53.9561 64.2035 53.8592C64.7782 53.4773 65.3414 53.2094 65.8778 53.0688C66.7176 52.8539 67.5774 52.7259 68.4436 52.6869C68.667 52.6679 68.8904 52.6869 69.1042 52.7344C70.1332 52.8313 70.7708 53.0023 70.9694 53.2531C71.0705 53.4013 71.1106 53.616 71.1106 53.8763V54.1138C71.1106 54.9232 70.8873 55.8732 70.4463 56.9676C70.0053 58.062 69.3905 58.9455 68.6078 59.6314C68.4914 59.7245 68.3883 59.772 68.2947 59.772C68.247 59.772 68.1974 59.772 68.1534 59.753C68.0084 59.6827 67.9816 59.563 68.0484 59.3711C68.9094 57.3742 69.3314 55.9758 69.3314 55.1892C69.3314 54.9479 69.2836 54.7579 69.1901 54.6401C68.9629 54.3798 68.3176 54.2278 67.2428 54.2278C66.7794 54.2347 66.3164 54.2594 65.8549 54.3019C65.2764 54.3798 64.7438 54.4501 64.2627 54.5204C64.1214 54.5204 64.0279 54.4938 63.9764 54.4501C63.9286 54.4026 63.9172 54.376 63.942 54.3285C63.942 54.3019 63.9534 54.281 63.9764 54.2278V54.1347L63.9954 54.1309Z" fill="#252B42"/>
</g>
<path d="M101.662 24.214C103.407 24.214 104.747 24.6433 105.68 25.502C106.613 26.3513 107.08 27.5367 107.08 29.058C107.08 30.5793 106.623 31.7833 105.708 32.67C104.803 33.5567 103.417 34 101.55 34H98.204V24.214H101.662ZM101.774 32.068C102.773 32.068 103.538 31.816 104.07 31.312C104.611 30.808 104.882 30.0753 104.882 29.114C104.882 28.1527 104.611 27.4153 104.07 26.902C103.538 26.3793 102.717 26.118 101.606 26.118H100.388V32.068H101.774ZM110.634 30.234C110.634 30.85 110.806 31.354 111.152 31.746C111.506 32.1287 111.954 32.32 112.496 32.32C113.046 32.32 113.494 32.1287 113.84 31.746C114.194 31.354 114.372 30.85 114.372 30.234C114.372 29.618 114.194 29.114 113.84 28.722C113.494 28.33 113.046 28.134 112.496 28.134C111.954 28.134 111.506 28.33 111.152 28.722C110.806 29.114 110.634 29.618 110.634 30.234ZM116.486 30.234C116.486 31.326 116.108 32.2453 115.352 32.992C114.596 33.7387 113.644 34.112 112.496 34.112C111.357 34.112 110.41 33.7387 109.654 32.992C108.898 32.2453 108.52 31.326 108.52 30.234C108.52 29.142 108.898 28.2227 109.654 27.476C110.41 26.72 111.357 26.342 112.496 26.342C113.644 26.342 114.596 26.72 115.352 27.476C116.108 28.2227 116.486 29.142 116.486 30.234ZM122.029 34H119.859L117.297 26.468H119.467L120.937 31.018L122.407 26.468H124.437L125.907 31.018L127.377 26.468H129.561L126.999 34H124.815L123.429 29.898L122.029 34ZM133.042 29.8V34H130.942V26.468H133.042V27.308C133.676 26.664 134.39 26.342 135.184 26.342C135.977 26.342 136.64 26.622 137.172 27.182C137.713 27.742 137.984 28.4887 137.984 29.422V34H135.884V29.744C135.884 28.5867 135.459 28.008 134.61 28.008C134.19 28.008 133.821 28.162 133.504 28.47C133.196 28.7687 133.042 29.212 133.042 29.8ZM142.183 34H140.083V23.612H142.183V34ZM146.051 30.234C146.051 30.85 146.224 31.354 146.569 31.746C146.924 32.1287 147.372 32.32 147.913 32.32C148.464 32.32 148.912 32.1287 149.257 31.746C149.612 31.354 149.789 30.85 149.789 30.234C149.789 29.618 149.612 29.114 149.257 28.722C148.912 28.33 148.464 28.134 147.913 28.134C147.372 28.134 146.924 28.33 146.569 28.722C146.224 29.114 146.051 29.618 146.051 30.234ZM151.903 30.234C151.903 31.326 151.525 32.2453 150.769 32.992C150.013 33.7387 149.061 34.112 147.913 34.112C146.774 34.112 145.827 33.7387 145.071 32.992C144.315 32.2453 143.937 31.326 143.937 30.234C143.937 29.142 144.315 28.2227 145.071 27.476C145.827 26.72 146.774 26.342 147.913 26.342C149.061 26.342 150.013 26.72 150.769 27.476C151.525 28.2227 151.903 29.142 151.903 30.234ZM160.061 34H158.087V33.09C157.545 33.7713 156.873 34.112 156.071 34.112C155.277 34.112 154.61 33.8833 154.069 33.426C153.527 32.9593 153.257 32.3433 153.257 31.578C153.257 30.8033 153.537 30.2247 154.097 29.842C154.657 29.4593 155.422 29.268 156.393 29.268H157.961V29.226C157.961 28.4233 157.536 28.022 156.687 28.022C156.323 28.022 155.935 28.0967 155.525 28.246C155.123 28.386 154.783 28.5633 154.503 28.778L153.565 27.42C154.554 26.7013 155.683 26.342 156.953 26.342C157.867 26.342 158.614 26.5707 159.193 27.028C159.771 27.4853 160.061 28.2087 160.061 29.198V34ZM157.947 31.13V30.766H156.631C155.791 30.766 155.371 31.0273 155.371 31.55C155.371 31.8207 155.469 32.0307 155.665 32.18C155.87 32.32 156.159 32.39 156.533 32.39C156.906 32.39 157.233 32.278 157.513 32.054C157.802 31.8207 157.947 31.5127 157.947 31.13ZM165.185 34.112C164.299 34.112 163.505 33.734 162.805 32.978C162.105 32.222 161.755 31.284 161.755 30.164C161.755 29.044 162.096 28.1293 162.777 27.42C163.459 26.7013 164.257 26.342 165.171 26.342C166.086 26.342 166.833 26.664 167.411 27.308V23.612H169.511V34H167.411V33.006C166.823 33.7433 166.081 34.112 165.185 34.112ZM163.869 30.248C163.869 30.8547 164.051 31.354 164.415 31.746C164.779 32.1287 165.204 32.32 165.689 32.32C166.175 32.32 166.585 32.1287 166.921 31.746C167.267 31.354 167.439 30.8547 167.439 30.248C167.439 29.632 167.267 29.1233 166.921 28.722C166.585 28.3113 166.17 28.106 165.675 28.106C165.181 28.106 164.756 28.3113 164.401 28.722C164.047 29.1327 163.869 29.6413 163.869 30.248ZM177.271 30.234C177.271 30.85 177.444 31.354 177.789 31.746C178.144 32.1287 178.592 32.32 179.133 32.32C179.684 32.32 180.132 32.1287 180.477 31.746C180.832 31.354 181.009 30.85 181.009 30.234C181.009 29.618 180.832 29.114 180.477 28.722C180.132 28.33 179.684 28.134 179.133 28.134C178.592 28.134 178.144 28.33 177.789 28.722C177.444 29.114 177.271 29.618 177.271 30.234ZM183.123 30.234C183.123 31.326 182.745 32.2453 181.989 32.992C181.233 33.7387 180.281 34.112 179.133 34.112C177.994 34.112 177.047 33.7387 176.291 32.992C175.535 32.2453 175.157 31.326 175.157 30.234C175.157 29.142 175.535 28.2227 176.291 27.476C177.047 26.72 177.994 26.342 179.133 26.342C180.281 26.342 181.233 26.72 181.989 27.476C182.745 28.2227 183.123 29.142 183.123 30.234ZM186.983 29.8V34H184.883V26.468H186.983V27.308C187.617 26.664 188.331 26.342 189.125 26.342C189.918 26.342 190.581 26.622 191.113 27.182C191.654 27.742 191.925 28.4887 191.925 29.422V34H189.825V29.744C189.825 28.5867 189.4 28.008 188.551 28.008C188.131 28.008 187.762 28.162 187.445 28.47C187.137 28.7687 186.983 29.212 186.983 29.8ZM200.421 27.98V31.354C200.421 31.6433 200.496 31.872 200.645 32.04C200.795 32.1987 200.972 32.278 201.177 32.278C201.569 32.278 201.901 32.1007 202.171 31.746L202.955 33.216C202.302 33.8133 201.611 34.112 200.883 34.112C200.165 34.112 199.553 33.874 199.049 33.398C198.555 32.922 198.307 32.2733 198.307 31.452V27.98H197.425V26.468H198.307V24.214H200.421V26.468H202.241V27.98H200.421ZM206.381 29.94V34H204.281V23.612H206.381V27.308C207.016 26.664 207.725 26.342 208.509 26.342C209.303 26.342 209.97 26.622 210.511 27.182C211.053 27.742 211.323 28.4887 211.323 29.422V34H209.223V29.884C209.223 28.7267 208.799 28.148 207.949 28.148C207.529 28.148 207.161 28.302 206.843 28.61C206.535 28.9087 206.381 29.352 206.381 29.94ZM219.947 32.908C219.098 33.7107 218.099 34.112 216.951 34.112C215.812 34.112 214.87 33.762 214.123 33.062C213.376 32.3527 213.003 31.4053 213.003 30.22C213.003 29.0347 213.381 28.092 214.137 27.392C214.902 26.692 215.803 26.342 216.839 26.342C217.875 26.342 218.752 26.6547 219.471 27.28C220.199 27.9053 220.563 28.764 220.563 29.856V30.976H215.075C215.14 31.3867 215.355 31.7227 215.719 31.984C216.083 32.2453 216.494 32.376 216.951 32.376C217.688 32.376 218.295 32.1287 218.771 31.634L219.947 32.908ZM218.435 29.478C218.388 29.03 218.22 28.6847 217.931 28.442C217.642 28.1993 217.287 28.078 216.867 28.078C216.456 28.078 216.078 28.204 215.733 28.456C215.388 28.708 215.187 29.0487 215.131 29.478H218.435Z" fill="#252B42"/>
<path d="M109.56 62H111.66L105.3 48H103.32L96.98 62H99.04L100.58 58.5H108.02L109.56 62ZM101.28 56.9L104.3 50.04L107.32 56.9H101.28ZM126.928 51.3C125.128 51.3 123.648 52.06 122.848 53.26C122.148 51.94 120.788 51.3 119.168 51.3C117.568 51.3 116.268 51.9 115.508 52.98V51.4H113.668V62H115.588V56.54C115.588 54.24 116.848 53.02 118.768 53.02C120.508 53.02 121.508 54.04 121.508 56.12V62H123.428V56.54C123.428 54.24 124.688 53.02 126.608 53.02C128.348 53.02 129.348 54.04 129.348 56.12V62H131.268V55.9C131.268 52.78 129.508 51.3 126.928 51.3ZM138.861 51.3C137.161 51.3 135.581 51.78 134.481 52.66L135.281 54.1C136.101 53.4 137.381 52.96 138.641 52.96C140.541 52.96 141.481 53.9 141.481 55.52V55.9H138.441C135.281 55.9 134.181 57.3 134.181 59C134.181 60.84 135.701 62.12 138.101 62.12C139.761 62.12 140.941 61.56 141.581 60.6V62H143.401V55.6C143.401 52.7 141.761 51.3 138.861 51.3ZM138.421 60.64C136.961 60.64 136.081 59.98 136.081 58.92C136.081 58.02 136.621 57.28 138.521 57.28H141.481V58.76C141.001 59.98 139.861 60.64 138.421 60.64ZM148.594 60.42L154.854 52.66V51.4H146.254V52.98H152.394L146.134 60.76V62H155.014V60.42H148.594ZM162.168 62.12C165.348 62.12 167.668 59.86 167.668 56.7C167.668 53.54 165.348 51.3 162.168 51.3C158.988 51.3 156.648 53.54 156.648 56.7C156.648 59.86 158.988 62.12 162.168 62.12ZM162.168 60.44C160.128 60.44 158.588 58.96 158.588 56.7C158.588 54.44 160.128 52.98 162.168 52.98C164.208 52.98 165.728 54.44 165.728 56.7C165.728 58.96 164.208 60.44 162.168 60.44ZM176.183 51.3C174.503 51.3 173.143 51.92 172.363 53V51.4H170.523V62H172.443V56.54C172.443 54.24 173.763 53.02 175.803 53.02C177.623 53.02 178.663 54.04 178.663 56.12V62H180.583V55.9C180.583 52.78 178.763 51.3 176.183 51.3ZM184.796 62.12C185.516 62.12 186.116 61.54 186.116 60.74C186.116 59.94 185.516 59.38 184.796 59.38C184.056 59.38 183.436 59.94 183.436 60.74C183.436 61.54 184.056 62.12 184.796 62.12ZM193.453 62.12C195.353 62.12 196.933 61.32 197.773 59.84L196.313 58.92C195.633 59.96 194.593 60.44 193.433 60.44C191.353 60.44 189.793 59 189.793 56.7C189.793 54.44 191.353 52.98 193.433 52.98C194.593 52.98 195.633 53.46 196.313 54.5L197.773 53.56C196.933 52.08 195.353 51.3 193.453 51.3C190.193 51.3 187.853 53.54 187.853 56.7C187.853 59.86 190.193 62.12 193.453 62.12ZM204.843 62.12C208.023 62.12 210.343 59.86 210.343 56.7C210.343 53.54 208.023 51.3 204.843 51.3C201.663 51.3 199.323 53.54 199.323 56.7C199.323 59.86 201.663 62.12 204.843 62.12ZM204.843 60.44C202.803 60.44 201.263 58.96 201.263 56.7C201.263 54.44 202.803 52.98 204.843 52.98C206.883 52.98 208.403 54.44 208.403 56.7C208.403 58.96 206.883 60.44 204.843 60.44ZM226.458 51.3C224.658 51.3 223.178 52.06 222.378 53.26C221.678 51.94 220.318 51.3 218.698 51.3C217.098 51.3 215.798 51.9 215.038 52.98V51.4H213.198V62H215.118V56.54C215.118 54.24 216.378 53.02 218.298 53.02C220.038 53.02 221.038 54.04 221.038 56.12V62H222.958V56.54C222.958 54.24 224.218 53.02 226.138 53.02C227.878 53.02 228.878 54.04 228.878 56.12V62H230.798V55.9C230.798 52.78 229.038 51.3 226.458 51.3Z" fill="#252B42"/>
</g>
<defs>
<filter id="filter0_d_688_2206" x="0" y="-2" width="271" height="96" filterUnits="userSpaceOnUse" color-interpolation-filters="sRGB">
<feFlood flood-opacity="0" result="BackgroundImageFix"/>
<feColorMatrix in="SourceAlpha" type="matrix" values="0 0 0 0 0 0 0 0 0 0 0 0 0 0 0 0 0 0 127 0" result="hardAlpha"/>
<feOffset dy="2"/>
<feGaussianBlur stdDeviation="2"/>
<feColorMatrix type="matrix" values="0 0 0 0 0 0 0 0 0 0 0 0 0 0 0 0 0 0 0.1 0"/>
<feBlend mode="normal" in2="BackgroundImageFix" result="effect1_dropShadow_688_2206"/>
<feBlend mode="normal" in="SourceGraphic" in2="effect1_dropShadow_688_2206" result="shape"/>
</filter>
<clipPath id="clip0_688_2206">
<rect width="40" height="36" fill="white" transform="translate(32 26)"/>
</clipPath>
</defs>
</svg>
