<svg width="461" height="345" viewBox="0 0 461 345" fill="none" xmlns="http://www.w3.org/2000/svg">
<g clip-path="url(#clip0_688_2674)">
<rect width="461" height="345" fill="white"/>
<rect x="0.5" y="0.5" width="460" height="68" stroke="#EBEBEB"/>
<path d="M41.912 37L39.256 33.24C40.824 32.68 41.72 31.432 41.72 29.704C41.72 27.272 39.96 25.8 37.048 25.8H32.68V37H34.28V33.592H37.048C37.288 33.592 37.528 33.576 37.752 33.56L40.168 37H41.912ZM37 32.232H34.28V27.192H37C39.048 27.192 40.12 28.104 40.12 29.704C40.12 31.304 39.048 32.232 37 32.232ZM47.2909 28.44C45.9309 28.44 44.6669 28.824 43.7869 29.528L44.4269 30.68C45.0829 30.12 46.1069 29.768 47.1149 29.768C48.6349 29.768 49.3869 30.52 49.3869 31.816V32.12H46.9549C44.4269 32.12 43.5469 33.24 43.5469 34.6C43.5469 36.072 44.7629 37.096 46.6829 37.096C48.0109 37.096 48.9549 36.648 49.4669 35.88V37H50.9229V31.88C50.9229 29.56 49.6109 28.44 47.2909 28.44ZM46.9389 35.912C45.7709 35.912 45.0669 35.384 45.0669 34.536C45.0669 33.816 45.4989 33.224 47.0189 33.224H49.3869V34.408C49.0029 35.384 48.0909 35.912 46.9389 35.912ZM65.2651 28.52L62.7371 35.304L60.2251 28.52H58.9291L56.3691 35.272L53.9051 28.52H52.4491L55.6011 37H57.0731L59.5531 30.568L62.0011 37H63.4731L66.6411 28.52H65.2651ZM79.3606 25.128V29.8C78.6566 28.888 77.6006 28.44 76.4006 28.44C73.9206 28.44 72.1126 30.168 72.1126 32.76C72.1126 35.352 73.9206 37.096 76.4006 37.096C77.6486 37.096 78.7366 36.616 79.4246 35.656V37H80.8966V25.128H79.3606ZM76.5286 35.752C74.8966 35.752 73.6646 34.568 73.6646 32.76C73.6646 30.952 74.8966 29.784 76.5286 29.784C78.1446 29.784 79.3766 30.952 79.3766 32.76C79.3766 34.568 78.1446 35.752 76.5286 35.752ZM91.6669 32.808C91.6669 30.2 89.9229 28.44 87.4749 28.44C85.0269 28.44 83.2189 30.248 83.2189 32.76C83.2189 35.288 85.0429 37.096 87.7789 37.096C89.1869 37.096 90.3549 36.616 91.1229 35.72L90.2749 34.728C89.6509 35.416 88.8189 35.752 87.8269 35.752C86.1469 35.752 84.9469 34.76 84.7549 33.272H91.6349C91.6509 33.128 91.6669 32.936 91.6669 32.808ZM87.4749 29.736C88.9629 29.736 90.0349 30.744 90.1949 32.168H84.7549C84.9149 30.728 86.0029 29.736 87.4749 29.736ZM98.5278 28.44C97.1838 28.44 96.0958 28.936 95.4718 29.8V28.52H93.9998V37H95.5358V32.632C95.5358 30.792 96.5918 29.816 98.2238 29.816C99.6798 29.816 100.512 30.632 100.512 32.296V37H102.048V32.12C102.048 29.624 100.592 28.44 98.5278 28.44ZM105.858 26.888C106.466 26.888 106.898 26.44 106.898 25.864C106.898 25.32 106.45 24.888 105.858 24.888C105.266 24.888 104.818 25.336 104.818 25.896C104.818 26.456 105.266 26.888 105.858 26.888ZM105.09 37H106.626V28.52H105.09V37ZM120.367 28.44C118.927 28.44 117.743 29.048 117.103 30.008C116.543 28.952 115.455 28.44 114.159 28.44C112.879 28.44 111.839 28.92 111.231 29.784V28.52H109.759V37H111.295V32.632C111.295 30.792 112.303 29.816 113.839 29.816C115.231 29.816 116.031 30.632 116.031 32.296V37H117.567V32.632C117.567 30.792 118.575 29.816 120.111 29.816C121.503 29.816 122.303 30.632 122.303 32.296V37H123.839V32.12C123.839 29.624 122.431 28.44 120.367 28.44ZM137.362 28.52L134.434 35.304L131.474 28.52H129.874L133.618 36.984L133.346 37.576C132.93 38.552 132.466 38.888 131.73 38.888C131.154 38.888 130.626 38.664 130.21 38.264L129.554 39.416C130.082 39.928 130.914 40.2 131.73 40.2C133.026 40.2 134.002 39.64 134.754 37.848L138.866 28.52H137.362ZM143.897 37.096C146.441 37.096 148.297 35.288 148.297 32.76C148.297 30.232 146.441 28.44 143.897 28.44C141.353 28.44 139.481 30.232 139.481 32.76C139.481 35.288 141.353 37.096 143.897 37.096ZM143.897 35.752C142.265 35.752 141.033 34.568 141.033 32.76C141.033 30.952 142.265 29.784 143.897 29.784C145.529 29.784 146.745 30.952 146.745 32.76C146.745 34.568 145.529 35.752 143.897 35.752ZM156.99 28.52V32.904C156.99 34.728 155.966 35.72 154.366 35.72C152.91 35.72 152.078 34.888 152.078 33.224V28.52H150.542V33.4C150.542 35.896 151.998 37.096 154.19 37.096C155.39 37.096 156.446 36.6 157.07 35.72V37H158.526V28.52H156.99ZM170.643 28.44C169.395 28.44 168.307 28.92 167.619 29.864V28.52H166.147V40.104H167.683V35.72C168.387 36.632 169.443 37.096 170.643 37.096C173.123 37.096 174.931 35.368 174.931 32.76C174.931 30.168 173.123 28.44 170.643 28.44ZM170.515 35.752C168.899 35.752 167.667 34.568 167.667 32.76C167.667 30.968 168.899 29.784 170.515 29.784C172.147 29.784 173.379 30.968 173.379 32.76C173.379 34.568 172.147 35.752 170.515 35.752ZM178.725 29.944V28.52H177.253V37H178.789V32.776C178.789 30.92 179.813 29.912 181.461 29.912C181.573 29.912 181.685 29.912 181.813 29.928V28.44C180.325 28.44 179.269 28.952 178.725 29.944ZM187.46 37.096C190.004 37.096 191.86 35.288 191.86 32.76C191.86 30.232 190.004 28.44 187.46 28.44C184.916 28.44 183.044 30.232 183.044 32.76C183.044 35.288 184.916 37.096 187.46 37.096ZM187.46 35.752C185.828 35.752 184.596 34.568 184.596 32.76C184.596 30.952 185.828 29.784 187.46 29.784C189.092 29.784 190.308 30.952 190.308 32.76C190.308 34.568 189.092 35.752 187.46 35.752ZM198.68 28.44C197.48 28.44 196.424 28.888 195.72 29.8V25.128H194.184V37H195.656V35.656C196.344 36.616 197.432 37.096 198.68 37.096C201.16 37.096 202.968 35.352 202.968 32.76C202.968 30.168 201.16 28.44 198.68 28.44ZM198.552 35.752C196.936 35.752 195.704 34.568 195.704 32.76C195.704 30.952 196.936 29.784 198.552 29.784C200.184 29.784 201.416 30.952 201.416 32.76C201.416 34.568 200.184 35.752 198.552 35.752ZM208.3 28.44C206.94 28.44 205.676 28.824 204.796 29.528L205.436 30.68C206.092 30.12 207.116 29.768 208.124 29.768C209.644 29.768 210.396 30.52 210.396 31.816V32.12H207.964C205.436 32.12 204.556 33.24 204.556 34.6C204.556 36.072 205.772 37.096 207.692 37.096C209.02 37.096 209.964 36.648 210.476 35.88V37H211.932V31.88C211.932 29.56 210.62 28.44 208.3 28.44ZM207.948 35.912C206.78 35.912 206.076 35.384 206.076 34.536C206.076 33.816 206.508 33.224 208.028 33.224H210.396V34.408C210.012 35.384 209.1 35.912 207.948 35.912ZM219.471 28.44C218.271 28.44 217.215 28.888 216.511 29.8V25.128H214.975V37H216.447V35.656C217.135 36.616 218.223 37.096 219.471 37.096C221.951 37.096 223.759 35.352 223.759 32.76C223.759 30.168 221.951 28.44 219.471 28.44ZM219.343 35.752C217.727 35.752 216.495 34.568 216.495 32.76C216.495 30.952 217.727 29.784 219.343 29.784C220.975 29.784 222.207 30.952 222.207 32.76C222.207 34.568 220.975 35.752 219.343 35.752ZM226.081 37H227.617V25.128H226.081V37ZM236.75 28.52L233.822 35.304L230.862 28.52H229.262L233.006 36.984L232.734 37.576C232.318 38.552 231.854 38.888 231.118 38.888C230.542 38.888 230.014 38.664 229.598 38.264L228.942 39.416C229.47 39.928 230.302 40.2 231.118 40.2C232.414 40.2 233.39 39.64 234.142 37.848L238.254 28.52H236.75ZM248.912 28.44C247.616 28.44 246.56 28.904 245.92 29.72V25.128H244.384V37H245.92V32.632C245.92 30.792 246.976 29.816 248.608 29.816C250.064 29.816 250.896 30.632 250.896 32.296V37H252.432V32.12C252.432 29.624 250.976 28.44 248.912 28.44ZM258.563 28.44C257.203 28.44 255.939 28.824 255.059 29.528L255.699 30.68C256.355 30.12 257.379 29.768 258.387 29.768C259.907 29.768 260.659 30.52 260.659 31.816V32.12H258.227C255.699 32.12 254.819 33.24 254.819 34.6C254.819 36.072 256.035 37.096 257.955 37.096C259.283 37.096 260.227 36.648 260.739 35.88V37H262.195V31.88C262.195 29.56 260.883 28.44 258.563 28.44ZM258.211 35.912C257.043 35.912 256.339 35.384 256.339 34.536C256.339 33.816 256.771 33.224 258.291 33.224H260.659V34.408C260.275 35.384 259.363 35.912 258.211 35.912ZM271.081 28.52L268.105 35.32L265.193 28.52H263.593L267.305 37H268.873L272.585 28.52H271.081ZM281.648 32.808C281.648 30.2 279.904 28.44 277.456 28.44C275.008 28.44 273.2 30.248 273.2 32.76C273.2 35.288 275.024 37.096 277.76 37.096C279.168 37.096 280.336 36.616 281.104 35.72L280.256 34.728C279.632 35.416 278.8 35.752 277.808 35.752C276.128 35.752 274.928 34.76 274.736 33.272H281.616C281.632 33.128 281.648 32.936 281.648 32.808ZM277.456 29.736C278.944 29.736 280.016 30.744 280.176 32.168H274.736C274.896 30.728 275.984 29.736 277.456 29.736ZM288.509 28.44C287.165 28.44 286.077 28.936 285.453 29.8V28.52H283.981V37H285.517V32.632C285.517 30.792 286.573 29.816 288.205 29.816C289.661 29.816 290.493 30.632 290.493 32.296V37H292.029V32.12C292.029 29.624 290.573 28.44 288.509 28.44ZM294.72 30.12H295.856L295.968 25.8H294.624L294.72 30.12ZM302.919 35.4C302.599 35.656 302.167 35.8 301.719 35.8C300.871 35.8 300.391 35.288 300.391 34.376V29.784H302.823V28.52H300.391V26.664H298.855V28.52H297.415V29.784H298.855V34.44C298.855 36.152 299.831 37.096 301.543 37.096C302.231 37.096 302.935 36.904 303.399 36.504L302.919 35.4ZM314.481 28.44C313.185 28.44 312.129 28.904 311.489 29.72V25.128H309.953V37H311.489V32.632C311.489 30.792 312.545 29.816 314.177 29.816C315.633 29.816 316.465 30.632 316.465 32.296V37H318.001V32.12C318.001 29.624 316.545 28.44 314.481 28.44ZM328.754 32.808C328.754 30.2 327.01 28.44 324.562 28.44C322.114 28.44 320.306 30.248 320.306 32.76C320.306 35.288 322.13 37.096 324.866 37.096C326.274 37.096 327.442 36.616 328.21 35.72L327.362 34.728C326.738 35.416 325.906 35.752 324.914 35.752C323.234 35.752 322.034 34.76 321.842 33.272H328.722C328.738 33.128 328.754 32.936 328.754 32.808ZM324.562 29.736C326.05 29.736 327.122 30.744 327.282 32.168H321.842C322.002 30.728 323.09 29.736 324.562 29.736ZM333.941 28.44C332.581 28.44 331.317 28.824 330.437 29.528L331.077 30.68C331.733 30.12 332.757 29.768 333.765 29.768C335.285 29.768 336.037 30.52 336.037 31.816V32.12H333.605C331.077 32.12 330.197 33.24 330.197 34.6C330.197 36.072 331.413 37.096 333.333 37.096C334.661 37.096 335.605 36.648 336.117 35.88V37H337.573V31.88C337.573 29.56 336.261 28.44 333.941 28.44ZM333.589 35.912C332.421 35.912 331.717 35.384 331.717 34.536C331.717 33.816 332.149 33.224 333.669 33.224H336.037V34.408C335.653 35.384 334.741 35.912 333.589 35.912ZM342.087 29.944V28.52H340.615V37H342.151V32.776C342.151 30.92 343.175 29.912 344.823 29.912C344.935 29.912 345.047 29.912 345.175 29.928V28.44C343.687 28.44 342.631 28.952 342.087 29.944ZM353.654 25.128V29.8C352.95 28.888 351.894 28.44 350.694 28.44C348.214 28.44 346.406 30.168 346.406 32.76C346.406 35.352 348.214 37.096 350.694 37.096C351.942 37.096 353.03 36.616 353.718 35.656V37H355.19V25.128H353.654ZM350.822 35.752C349.19 35.752 347.958 34.568 347.958 32.76C347.958 30.952 349.19 29.784 350.822 29.784C352.438 29.784 353.67 30.952 353.67 32.76C353.67 34.568 352.438 35.752 350.822 35.752Z" fill="#252B42"/>
<rect x="401.5" y="18.5" width="35" height="33" rx="5.5" fill="#E8E8E8"/>
<rect x="401.5" y="18.5" width="35" height="33" rx="5.5" stroke="#BDBDBD"/>
<path d="M411.806 38H418.085V36.96H413.821V36.83L416.304 34.503C417.565 33.307 418.241 32.449 418.241 31.37C418.241 29.706 416.915 28.51 415.108 28.51C413.21 28.51 411.819 29.927 411.819 31.877H412.963C413.028 30.538 413.925 29.55 415.121 29.55C416.213 29.55 417.058 30.356 417.058 31.448C417.058 32.358 416.395 32.943 415.641 33.684L411.806 37.363V38ZM422.86 38.325C424.797 38.325 426.188 37.064 426.188 35.348C426.188 33.723 424.927 32.527 423.289 32.384L425.837 29.628V28.835H419.948V29.875H424.03V30.005L421.586 32.631L421.937 33.502C422.145 33.411 422.509 33.333 422.808 33.333C424.069 33.333 425.005 34.178 425.005 35.335C425.005 36.466 424.095 37.285 422.847 37.285C421.586 37.285 420.624 36.284 420.624 34.932H419.428C419.506 36.895 420.949 38.325 422.86 38.325Z" fill="#252B42"/>
<rect x="0.5" y="69.5" width="460" height="68" stroke="#EBEBEB"/>
<path d="M45.4809 94.8L42.3929 103.952L39.3049 94.8H37.8329L34.6809 103.904L31.6569 94.8H30.0089L33.7529 106H35.4649L38.5209 97.056L41.5769 106H43.2569L47.0009 94.8H45.4809ZM49.7177 95.888C50.3257 95.888 50.7577 95.44 50.7577 94.864C50.7577 94.32 50.3097 93.888 49.7177 93.888C49.1257 93.888 48.6777 94.336 48.6777 94.896C48.6777 95.456 49.1257 95.888 49.7177 95.888ZM48.9497 106H50.4857V97.52H48.9497V106ZM53.6185 106H55.1545V94.128H53.6185V106ZM58.2872 106H59.8232V94.128H58.2872V106ZM63.724 95.888C64.332 95.888 64.764 95.44 64.764 94.864C64.764 94.32 64.316 93.888 63.724 93.888C63.132 93.888 62.684 94.336 62.684 94.896C62.684 95.456 63.132 95.888 63.724 95.888ZM62.956 106H64.492V97.52H62.956V106ZM70.7128 97.44C69.3528 97.44 68.0888 97.824 67.2088 98.528L67.8488 99.68C68.5048 99.12 69.5288 98.768 70.5368 98.768C72.0568 98.768 72.8088 99.52 72.8088 100.816V101.12H70.3768C67.8488 101.12 66.9688 102.24 66.9688 103.6C66.9688 105.072 68.1848 106.096 70.1048 106.096C71.4328 106.096 72.3768 105.648 72.8888 104.88V106H74.3448V100.88C74.3448 98.56 73.0328 97.44 70.7128 97.44ZM70.3608 104.912C69.1928 104.912 68.4888 104.384 68.4888 103.536C68.4888 102.816 68.9208 102.224 70.4408 102.224H72.8088V103.408C72.4248 104.384 71.5128 104.912 70.3608 104.912ZM87.9953 97.44C86.5553 97.44 85.3713 98.048 84.7313 99.008C84.1713 97.952 83.0833 97.44 81.7873 97.44C80.5073 97.44 79.4673 97.92 78.8593 98.784V97.52H77.3873V106H78.9233V101.632C78.9233 99.792 79.9313 98.816 81.4673 98.816C82.8593 98.816 83.6593 99.632 83.6593 101.296V106H85.1953V101.632C85.1953 99.792 86.2033 98.816 87.7393 98.816C89.1313 98.816 89.9313 99.632 89.9313 101.296V106H91.4673V101.12C91.4673 98.624 90.0593 97.44 87.9953 97.44ZM96.9255 106.096C99.1815 106.096 100.589 105.12 100.589 103.584C100.589 100.288 95.2135 101.92 95.2135 99.92C95.2135 99.248 95.8695 98.752 97.2135 98.752C98.0455 98.752 98.8935 98.928 99.6615 99.424L100.317 98.208C99.5815 97.728 98.3335 97.44 97.2295 97.44C95.0535 97.44 93.6935 98.464 93.6935 99.984C93.6935 103.36 99.0535 101.712 99.0535 103.616C99.0535 104.336 98.4615 104.768 97.0375 104.768C95.9335 104.768 94.7815 104.4 94.0615 103.888L93.4215 105.104C94.1255 105.664 95.5175 106.096 96.9255 106.096ZM107.205 97.44C106.005 97.44 104.949 97.888 104.245 98.8V94.128H102.709V106H104.181V104.656C104.869 105.616 105.957 106.096 107.205 106.096C109.685 106.096 111.493 104.352 111.493 101.76C111.493 99.168 109.685 97.44 107.205 97.44ZM107.077 104.752C105.461 104.752 104.229 103.568 104.229 101.76C104.229 99.952 105.461 98.784 107.077 98.784C108.709 98.784 109.941 99.952 109.941 101.76C109.941 103.568 108.709 104.752 107.077 104.752ZM120.183 97.52V101.904C120.183 103.728 119.159 104.72 117.559 104.72C116.103 104.72 115.271 103.888 115.271 102.224V97.52H113.735V102.4C113.735 104.896 115.191 106.096 117.383 106.096C118.583 106.096 119.639 105.6 120.263 104.72V106H121.719V97.52H120.183ZM126.315 98.944V97.52H124.843V106H126.379V101.776C126.379 99.92 127.403 98.912 129.051 98.912C129.163 98.912 129.275 98.912 129.403 98.928V97.44C127.915 97.44 126.859 97.952 126.315 98.944ZM138.075 97.52V98.832C137.355 97.904 136.203 97.44 134.939 97.44C132.491 97.44 130.635 99.088 130.635 101.536C130.635 103.984 132.491 105.648 134.939 105.648C136.155 105.648 137.259 105.216 137.995 104.336V105.008C137.995 106.928 137.083 107.856 135.083 107.856C133.835 107.856 132.603 107.424 131.819 106.752L131.083 107.936C132.011 108.768 133.579 109.2 135.131 109.2C138.011 109.2 139.531 107.84 139.531 104.848V97.52H138.075ZM135.115 104.304C133.403 104.304 132.187 103.168 132.187 101.536C132.187 99.888 133.403 98.784 135.115 98.784C136.811 98.784 138.027 99.888 138.027 101.536C138.027 103.168 136.811 104.304 135.115 104.304ZM150.858 106.096C152.378 106.096 153.642 105.456 154.314 104.272L153.146 103.536C152.602 104.368 151.77 104.752 150.842 104.752C149.178 104.752 147.93 103.6 147.93 101.76C147.93 99.952 149.178 98.784 150.842 98.784C151.77 98.784 152.602 99.168 153.146 100L154.314 99.248C153.642 98.064 152.378 97.44 150.858 97.44C148.25 97.44 146.378 99.232 146.378 101.76C146.378 104.288 148.25 106.096 150.858 106.096ZM159.591 97.44C158.231 97.44 156.967 97.824 156.087 98.528L156.727 99.68C157.383 99.12 158.407 98.768 159.415 98.768C160.935 98.768 161.687 99.52 161.687 100.816V101.12H159.255C156.727 101.12 155.847 102.24 155.847 103.6C155.847 105.072 157.063 106.096 158.983 106.096C160.311 106.096 161.255 105.648 161.767 104.88V106H163.223V100.88C163.223 98.56 161.911 97.44 159.591 97.44ZM159.239 104.912C158.071 104.912 157.367 104.384 157.367 103.536C157.367 102.816 157.799 102.224 159.319 102.224H161.687V103.408C161.303 104.384 160.391 104.912 159.239 104.912ZM167.737 98.944V97.52H166.265V106H167.801V101.776C167.801 99.92 168.825 98.912 170.473 98.912C170.585 98.912 170.697 98.912 170.825 98.928V97.44C169.337 97.44 168.281 97.952 167.737 98.944ZM172.918 106H174.454V94.128H172.918V106ZM185.251 101.808C185.251 99.2 183.507 97.44 181.059 97.44C178.611 97.44 176.803 99.248 176.803 101.76C176.803 104.288 178.627 106.096 181.363 106.096C182.771 106.096 183.939 105.616 184.707 104.72L183.859 103.728C183.235 104.416 182.403 104.752 181.411 104.752C179.731 104.752 178.531 103.76 178.339 102.272H185.219C185.235 102.128 185.251 101.936 185.251 101.808ZM181.059 98.736C182.547 98.736 183.619 99.744 183.779 101.168H178.339C178.499 99.728 179.587 98.736 181.059 98.736ZM190.016 106.096C192.272 106.096 193.68 105.12 193.68 103.584C193.68 100.288 188.304 101.92 188.304 99.92C188.304 99.248 188.96 98.752 190.304 98.752C191.136 98.752 191.984 98.928 192.752 99.424L193.408 98.208C192.672 97.728 191.424 97.44 190.32 97.44C188.144 97.44 186.784 98.464 186.784 99.984C186.784 103.36 192.144 101.712 192.144 103.616C192.144 104.336 191.552 104.768 190.128 104.768C189.024 104.768 187.872 104.4 187.152 103.888L186.512 105.104C187.216 105.664 188.608 106.096 190.016 106.096ZM206.297 97.52L203.321 104.32L200.409 97.52H198.809L202.521 106H204.089L207.801 97.52H206.297ZM216.864 101.808C216.864 99.2 215.12 97.44 212.672 97.44C210.224 97.44 208.416 99.248 208.416 101.76C208.416 104.288 210.24 106.096 212.976 106.096C214.384 106.096 215.552 105.616 216.32 104.72L215.472 103.728C214.848 104.416 214.016 104.752 213.024 104.752C211.344 104.752 210.144 103.76 209.952 102.272H216.832C216.848 102.128 216.864 101.936 216.864 101.808ZM212.672 98.736C214.16 98.736 215.232 99.744 215.392 101.168H209.952C210.112 99.728 211.2 98.736 212.672 98.736ZM225.853 97.52V98.832C225.133 97.904 223.981 97.44 222.717 97.44C220.269 97.44 218.413 99.088 218.413 101.536C218.413 103.984 220.269 105.648 222.717 105.648C223.933 105.648 225.037 105.216 225.773 104.336V105.008C225.773 106.928 224.861 107.856 222.861 107.856C221.613 107.856 220.381 107.424 219.597 106.752L218.861 107.936C219.789 108.768 221.357 109.2 222.909 109.2C225.789 109.2 227.309 107.84 227.309 104.848V97.52H225.853ZM222.893 104.304C221.181 104.304 219.965 103.168 219.965 101.536C219.965 99.888 221.181 98.784 222.893 98.784C224.589 98.784 225.805 99.888 225.805 101.536C225.805 103.168 224.589 104.304 222.893 104.304ZM233.532 97.44C232.172 97.44 230.908 97.824 230.028 98.528L230.668 99.68C231.324 99.12 232.348 98.768 233.356 98.768C234.876 98.768 235.628 99.52 235.628 100.816V101.12H233.196C230.668 101.12 229.788 102.24 229.788 103.6C229.788 105.072 231.004 106.096 232.924 106.096C234.252 106.096 235.196 105.648 235.708 104.88V106H237.164V100.88C237.164 98.56 235.852 97.44 233.532 97.44ZM233.18 104.912C232.012 104.912 231.308 104.384 231.308 103.536C231.308 102.816 231.74 102.224 233.26 102.224H235.628V103.408C235.244 104.384 234.332 104.912 233.18 104.912ZM244.734 97.44C243.39 97.44 242.302 97.936 241.678 98.8V97.52H240.206V106H241.742V101.632C241.742 99.792 242.798 98.816 244.43 98.816C245.886 98.816 246.718 99.632 246.718 101.296V106H248.254V101.12C248.254 98.624 246.798 97.44 244.734 97.44ZM260.321 97.44C259.025 97.44 257.969 97.904 257.329 98.72V94.128H255.793V106H257.329V101.632C257.329 99.792 258.385 98.816 260.017 98.816C261.473 98.816 262.305 99.632 262.305 101.296V106H263.841V101.12C263.841 98.624 262.385 97.44 260.321 97.44ZM274.595 101.808C274.595 99.2 272.851 97.44 270.403 97.44C267.955 97.44 266.147 99.248 266.147 101.76C266.147 104.288 267.971 106.096 270.707 106.096C272.115 106.096 273.283 105.616 274.051 104.72L273.203 103.728C272.579 104.416 271.747 104.752 270.755 104.752C269.075 104.752 267.875 103.76 267.683 102.272H274.563C274.579 102.128 274.595 101.936 274.595 101.808ZM270.403 98.736C271.891 98.736 272.963 99.744 273.123 101.168H267.683C267.843 99.728 268.931 98.736 270.403 98.736ZM276.928 106H278.464V94.128H276.928V106ZM287.597 97.52L284.621 104.32L281.709 97.52H280.109L283.821 106H285.389L289.101 97.52H287.597ZM298.164 101.808C298.164 99.2 296.42 97.44 293.972 97.44C291.524 97.44 289.716 99.248 289.716 101.76C289.716 104.288 291.54 106.096 294.276 106.096C295.684 106.096 296.852 105.616 297.62 104.72L296.772 103.728C296.148 104.416 295.316 104.752 294.324 104.752C292.644 104.752 291.444 103.76 291.252 102.272H298.132C298.148 102.128 298.164 101.936 298.164 101.808ZM293.972 98.736C295.46 98.736 296.532 99.744 296.692 101.168H291.252C291.412 99.728 292.5 98.736 293.972 98.736ZM304.785 104.4C304.465 104.656 304.033 104.8 303.585 104.8C302.737 104.8 302.257 104.288 302.257 103.376V98.784H304.689V97.52H302.257V95.664H300.721V97.52H299.281V98.784H300.721V103.44C300.721 105.152 301.697 106.096 303.409 106.096C304.097 106.096 304.801 105.904 305.265 105.504L304.785 104.4ZM308.09 95.888C308.698 95.888 309.13 95.44 309.13 94.864C309.13 94.32 308.682 93.888 308.09 93.888C307.498 93.888 307.05 94.336 307.05 94.896C307.05 95.456 307.498 95.888 308.09 95.888ZM307.322 106H308.858V97.52H307.322V106ZM315.686 106.096C317.206 106.096 318.47 105.456 319.142 104.272L317.974 103.536C317.43 104.368 316.598 104.752 315.67 104.752C314.006 104.752 312.758 103.6 312.758 101.76C312.758 99.952 314.006 98.784 315.67 98.784C316.598 98.784 317.43 99.168 317.974 100L319.142 99.248C318.47 98.064 317.206 97.44 315.686 97.44C313.078 97.44 311.206 99.232 311.206 101.76C311.206 104.288 313.078 106.096 315.686 106.096ZM324.419 97.44C323.059 97.44 321.795 97.824 320.915 98.528L321.555 99.68C322.211 99.12 323.235 98.768 324.243 98.768C325.763 98.768 326.515 99.52 326.515 100.816V101.12H324.083C321.555 101.12 320.675 102.24 320.675 103.6C320.675 105.072 321.891 106.096 323.811 106.096C325.139 106.096 326.083 105.648 326.595 104.88V106H328.051V100.88C328.051 98.56 326.739 97.44 324.419 97.44ZM324.067 104.912C322.899 104.912 322.195 104.384 322.195 103.536C322.195 102.816 322.627 102.224 324.147 102.224H326.515V103.408C326.131 104.384 325.219 104.912 324.067 104.912ZM331.462 106.096C332.038 106.096 332.518 105.632 332.518 104.992C332.518 104.352 332.038 103.904 331.462 103.904C330.87 103.904 330.374 104.352 330.374 104.992C330.374 105.632 330.87 106.096 331.462 106.096Z" fill="#252B42"/>
<rect x="408.5" y="87.5" width="28" height="33" rx="5.5" fill="#E8E8E8"/>
<rect x="408.5" y="87.5" width="28" height="33" rx="5.5" stroke="#BDBDBD"/>
<path d="M422.147 107.325C424.045 107.325 425.449 106.051 425.449 104.283C425.449 102.489 424.11 101.189 422.004 101.189H420.678L420.925 98.875H424.708V97.835H419.963L419.482 102.229H421.887C423.395 102.229 424.292 103.113 424.292 104.309C424.292 105.453 423.382 106.285 422.134 106.285C420.873 106.285 419.911 105.284 419.898 103.932H418.715C418.793 105.895 420.236 107.325 422.147 107.325Z" fill="#252B42"/>
<g clip-path="url(#clip1_688_2674)">
<line x1="1.5" y1="138" x2="1.5" y2="207" stroke="#23A6F0" stroke-width="3"/>
<path d="M39.912 175L37.256 171.24C38.824 170.68 39.72 169.432 39.72 167.704C39.72 165.272 37.96 163.8 35.048 163.8H30.68V175H32.28V171.592H35.048C35.288 171.592 35.528 171.576 35.752 171.56L38.168 175H39.912ZM35 170.232H32.28V165.192H35C37.048 165.192 38.12 166.104 38.12 167.704C38.12 169.304 37.048 170.232 35 170.232ZM45.2909 166.44C43.9309 166.44 42.6669 166.824 41.7869 167.528L42.4269 168.68C43.0829 168.12 44.1069 167.768 45.1149 167.768C46.6349 167.768 47.3869 168.52 47.3869 169.816V170.12H44.9549C42.4269 170.12 41.5469 171.24 41.5469 172.6C41.5469 174.072 42.7629 175.096 44.6829 175.096C46.0109 175.096 46.9549 174.648 47.4669 173.88V175H48.9229V169.88C48.9229 167.56 47.6109 166.44 45.2909 166.44ZM44.9389 173.912C43.7709 173.912 43.0669 173.384 43.0669 172.536C43.0669 171.816 43.4989 171.224 45.0189 171.224H47.3869V172.408C47.0029 173.384 46.0909 173.912 44.9389 173.912ZM63.2651 166.52L60.7371 173.304L58.2251 166.52H56.9291L54.3691 173.272L51.9051 166.52H50.4491L53.6011 175H55.0731L57.5531 168.568L60.0011 175H61.4731L64.6411 166.52H63.2651ZM77.3606 163.128V167.8C76.6566 166.888 75.6006 166.44 74.4006 166.44C71.9206 166.44 70.1126 168.168 70.1126 170.76C70.1126 173.352 71.9206 175.096 74.4006 175.096C75.6486 175.096 76.7366 174.616 77.4246 173.656V175H78.8966V163.128H77.3606ZM74.5286 173.752C72.8966 173.752 71.6646 172.568 71.6646 170.76C71.6646 168.952 72.8966 167.784 74.5286 167.784C76.1446 167.784 77.3766 168.952 77.3766 170.76C77.3766 172.568 76.1446 173.752 74.5286 173.752ZM89.6669 170.808C89.6669 168.2 87.9229 166.44 85.4749 166.44C83.0269 166.44 81.2189 168.248 81.2189 170.76C81.2189 173.288 83.0429 175.096 85.7789 175.096C87.1869 175.096 88.3549 174.616 89.1229 173.72L88.2749 172.728C87.6509 173.416 86.8189 173.752 85.8269 173.752C84.1469 173.752 82.9469 172.76 82.7549 171.272H89.6349C89.6509 171.128 89.6669 170.936 89.6669 170.808ZM85.4749 167.736C86.9629 167.736 88.0349 168.744 88.1949 170.168H82.7549C82.9149 168.728 84.0029 167.736 85.4749 167.736ZM96.5278 166.44C95.1838 166.44 94.0958 166.936 93.4718 167.8V166.52H91.9998V175H93.5358V170.632C93.5358 168.792 94.5918 167.816 96.2238 167.816C97.6798 167.816 98.5118 168.632 98.5118 170.296V175H100.048V170.12C100.048 167.624 98.5918 166.44 96.5278 166.44ZM103.858 164.888C104.466 164.888 104.898 164.44 104.898 163.864C104.898 163.32 104.45 162.888 103.858 162.888C103.266 162.888 102.818 163.336 102.818 163.896C102.818 164.456 103.266 164.888 103.858 164.888ZM103.09 175H104.626V166.52H103.09V175ZM118.367 166.44C116.927 166.44 115.743 167.048 115.103 168.008C114.543 166.952 113.455 166.44 112.159 166.44C110.879 166.44 109.839 166.92 109.231 167.784V166.52H107.759V175H109.295V170.632C109.295 168.792 110.303 167.816 111.839 167.816C113.231 167.816 114.031 168.632 114.031 170.296V175H115.567V170.632C115.567 168.792 116.575 167.816 118.111 167.816C119.503 167.816 120.303 168.632 120.303 170.296V175H121.839V170.12C121.839 167.624 120.431 166.44 118.367 166.44ZM135.362 166.52L132.434 173.304L129.474 166.52H127.874L131.618 174.984L131.346 175.576C130.93 176.552 130.466 176.888 129.73 176.888C129.154 176.888 128.626 176.664 128.21 176.264L127.554 177.416C128.082 177.928 128.914 178.2 129.73 178.2C131.026 178.2 132.002 177.64 132.754 175.848L136.866 166.52H135.362ZM141.897 175.096C144.441 175.096 146.297 173.288 146.297 170.76C146.297 168.232 144.441 166.44 141.897 166.44C139.353 166.44 137.481 168.232 137.481 170.76C137.481 173.288 139.353 175.096 141.897 175.096ZM141.897 173.752C140.265 173.752 139.033 172.568 139.033 170.76C139.033 168.952 140.265 167.784 141.897 167.784C143.529 167.784 144.745 168.952 144.745 170.76C144.745 172.568 143.529 173.752 141.897 173.752ZM154.99 166.52V170.904C154.99 172.728 153.966 173.72 152.366 173.72C150.91 173.72 150.078 172.888 150.078 171.224V166.52H148.542V171.4C148.542 173.896 149.998 175.096 152.19 175.096C153.39 175.096 154.446 174.6 155.07 173.72V175H156.526V166.52H154.99ZM168.643 166.44C167.395 166.44 166.307 166.92 165.619 167.864V166.52H164.147V178.104H165.683V173.72C166.387 174.632 167.443 175.096 168.643 175.096C171.123 175.096 172.931 173.368 172.931 170.76C172.931 168.168 171.123 166.44 168.643 166.44ZM168.515 173.752C166.899 173.752 165.667 172.568 165.667 170.76C165.667 168.968 166.899 167.784 168.515 167.784C170.147 167.784 171.379 168.968 171.379 170.76C171.379 172.568 170.147 173.752 168.515 173.752ZM176.725 167.944V166.52H175.253V175H176.789V170.776C176.789 168.92 177.813 167.912 179.461 167.912C179.573 167.912 179.685 167.912 179.813 167.928V166.44C178.325 166.44 177.269 166.952 176.725 167.944ZM185.46 175.096C188.004 175.096 189.86 173.288 189.86 170.76C189.86 168.232 188.004 166.44 185.46 166.44C182.916 166.44 181.044 168.232 181.044 170.76C181.044 173.288 182.916 175.096 185.46 175.096ZM185.46 173.752C183.828 173.752 182.596 172.568 182.596 170.76C182.596 168.952 183.828 167.784 185.46 167.784C187.092 167.784 188.308 168.952 188.308 170.76C188.308 172.568 187.092 173.752 185.46 173.752ZM196.68 166.44C195.48 166.44 194.424 166.888 193.72 167.8V163.128H192.184V175H193.656V173.656C194.344 174.616 195.432 175.096 196.68 175.096C199.16 175.096 200.968 173.352 200.968 170.76C200.968 168.168 199.16 166.44 196.68 166.44ZM196.552 173.752C194.936 173.752 193.704 172.568 193.704 170.76C193.704 168.952 194.936 167.784 196.552 167.784C198.184 167.784 199.416 168.952 199.416 170.76C199.416 172.568 198.184 173.752 196.552 173.752ZM206.3 166.44C204.94 166.44 203.676 166.824 202.796 167.528L203.436 168.68C204.092 168.12 205.116 167.768 206.124 167.768C207.644 167.768 208.396 168.52 208.396 169.816V170.12H205.964C203.436 170.12 202.556 171.24 202.556 172.6C202.556 174.072 203.772 175.096 205.692 175.096C207.02 175.096 207.964 174.648 208.476 173.88V175H209.932V169.88C209.932 167.56 208.62 166.44 206.3 166.44ZM205.948 173.912C204.78 173.912 204.076 173.384 204.076 172.536C204.076 171.816 204.508 171.224 206.028 171.224H208.396V172.408C208.012 173.384 207.1 173.912 205.948 173.912ZM217.471 166.44C216.271 166.44 215.215 166.888 214.511 167.8V163.128H212.975V175H214.447V173.656C215.135 174.616 216.223 175.096 217.471 175.096C219.951 175.096 221.759 173.352 221.759 170.76C221.759 168.168 219.951 166.44 217.471 166.44ZM217.343 173.752C215.727 173.752 214.495 172.568 214.495 170.76C214.495 168.952 215.727 167.784 217.343 167.784C218.975 167.784 220.207 168.952 220.207 170.76C220.207 172.568 218.975 173.752 217.343 173.752ZM224.081 175H225.617V163.128H224.081V175ZM234.75 166.52L231.822 173.304L228.862 166.52H227.262L231.006 174.984L230.734 175.576C230.318 176.552 229.854 176.888 229.118 176.888C228.542 176.888 228.014 176.664 227.598 176.264L226.942 177.416C227.47 177.928 228.302 178.2 229.118 178.2C230.414 178.2 231.39 177.64 232.142 175.848L236.254 166.52H234.75ZM246.912 166.44C245.616 166.44 244.56 166.904 243.92 167.72V163.128H242.384V175H243.92V170.632C243.92 168.792 244.976 167.816 246.608 167.816C248.064 167.816 248.896 168.632 248.896 170.296V175H250.432V170.12C250.432 167.624 248.976 166.44 246.912 166.44ZM256.563 166.44C255.203 166.44 253.939 166.824 253.059 167.528L253.699 168.68C254.355 168.12 255.379 167.768 256.387 167.768C257.907 167.768 258.659 168.52 258.659 169.816V170.12H256.227C253.699 170.12 252.819 171.24 252.819 172.6C252.819 174.072 254.035 175.096 255.955 175.096C257.283 175.096 258.227 174.648 258.739 173.88V175H260.195V169.88C260.195 167.56 258.883 166.44 256.563 166.44ZM256.211 173.912C255.043 173.912 254.339 173.384 254.339 172.536C254.339 171.816 254.771 171.224 256.291 171.224H258.659V172.408C258.275 173.384 257.363 173.912 256.211 173.912ZM269.081 166.52L266.105 173.32L263.193 166.52H261.593L265.305 175H266.873L270.585 166.52H269.081ZM279.648 170.808C279.648 168.2 277.904 166.44 275.456 166.44C273.008 166.44 271.2 168.248 271.2 170.76C271.2 173.288 273.024 175.096 275.76 175.096C277.168 175.096 278.336 174.616 279.104 173.72L278.256 172.728C277.632 173.416 276.8 173.752 275.808 173.752C274.128 173.752 272.928 172.76 272.736 171.272H279.616C279.632 171.128 279.648 170.936 279.648 170.808ZM275.456 167.736C276.944 167.736 278.016 168.744 278.176 170.168H272.736C272.896 168.728 273.984 167.736 275.456 167.736ZM286.509 166.44C285.165 166.44 284.077 166.936 283.453 167.8V166.52H281.981V175H283.517V170.632C283.517 168.792 284.573 167.816 286.205 167.816C287.661 167.816 288.493 168.632 288.493 170.296V175H290.029V170.12C290.029 167.624 288.573 166.44 286.509 166.44ZM292.72 168.12H293.856L293.968 163.8H292.624L292.72 168.12ZM300.919 173.4C300.599 173.656 300.167 173.8 299.719 173.8C298.871 173.8 298.391 173.288 298.391 172.376V167.784H300.823V166.52H298.391V164.664H296.855V166.52H295.415V167.784H296.855V172.44C296.855 174.152 297.831 175.096 299.543 175.096C300.231 175.096 300.935 174.904 301.399 174.504L300.919 173.4ZM312.481 166.44C311.185 166.44 310.129 166.904 309.489 167.72V163.128H307.953V175H309.489V170.632C309.489 168.792 310.545 167.816 312.177 167.816C313.633 167.816 314.465 168.632 314.465 170.296V175H316.001V170.12C316.001 167.624 314.545 166.44 312.481 166.44ZM326.754 170.808C326.754 168.2 325.01 166.44 322.562 166.44C320.114 166.44 318.306 168.248 318.306 170.76C318.306 173.288 320.13 175.096 322.866 175.096C324.274 175.096 325.442 174.616 326.21 173.72L325.362 172.728C324.738 173.416 323.906 173.752 322.914 173.752C321.234 173.752 320.034 172.76 319.842 171.272H326.722C326.738 171.128 326.754 170.936 326.754 170.808ZM322.562 167.736C324.05 167.736 325.122 168.744 325.282 170.168H319.842C320.002 168.728 321.09 167.736 322.562 167.736ZM331.941 166.44C330.581 166.44 329.317 166.824 328.437 167.528L329.077 168.68C329.733 168.12 330.757 167.768 331.765 167.768C333.285 167.768 334.037 168.52 334.037 169.816V170.12H331.605C329.077 170.12 328.197 171.24 328.197 172.6C328.197 174.072 329.413 175.096 331.333 175.096C332.661 175.096 333.605 174.648 334.117 173.88V175H335.573V169.88C335.573 167.56 334.261 166.44 331.941 166.44ZM331.589 173.912C330.421 173.912 329.717 173.384 329.717 172.536C329.717 171.816 330.149 171.224 331.669 171.224H334.037V172.408C333.653 173.384 332.741 173.912 331.589 173.912ZM340.087 167.944V166.52H338.615V175H340.151V170.776C340.151 168.92 341.175 167.912 342.823 167.912C342.935 167.912 343.047 167.912 343.175 167.928V166.44C341.687 166.44 340.631 166.952 340.087 167.944ZM351.654 163.128V167.8C350.95 166.888 349.894 166.44 348.694 166.44C346.214 166.44 344.406 168.168 344.406 170.76C344.406 173.352 346.214 175.096 348.694 175.096C349.942 175.096 351.03 174.616 351.718 173.656V175H353.19V163.128H351.654ZM348.822 173.752C347.19 173.752 345.958 172.568 345.958 170.76C345.958 168.952 347.19 167.784 348.822 167.784C350.438 167.784 351.67 168.952 351.67 170.76C351.67 172.568 350.438 173.752 348.822 173.752Z" fill="#23A6F0"/>
<rect x="401" y="156" width="34" height="34" rx="5" fill="#23A6F0"/>
<path d="M413.769 176H414.952V166.835H414.003L411.52 168.694V170.085L413.639 168.473H413.769V176ZM417.086 176H423.365V174.96H419.101V174.83L421.584 172.503C422.845 171.307 423.521 170.449 423.521 169.37C423.521 167.706 422.195 166.51 420.388 166.51C418.49 166.51 417.099 167.927 417.099 169.877H418.243C418.308 168.538 419.205 167.55 420.401 167.55C421.493 167.55 422.338 168.356 422.338 169.448C422.338 170.358 421.675 170.943 420.921 171.684L417.086 175.363V176Z" fill="white"/>
</g>
<rect x="0.5" y="138.5" width="460" height="68" stroke="#EBEBEB"/>
<rect x="0.5" y="207.5" width="460" height="68" stroke="#EBEBEB"/>
<path d="M42.912 244L40.256 240.24C41.824 239.68 42.72 238.432 42.72 236.704C42.72 234.272 40.96 232.8 38.048 232.8H33.68V244H35.28V240.592H38.048C38.288 240.592 38.528 240.576 38.752 240.56L41.168 244H42.912ZM38 239.232H35.28V234.192H38C40.048 234.192 41.12 235.104 41.12 236.704C41.12 238.304 40.048 239.232 38 239.232ZM52.945 239.808C52.945 237.2 51.201 235.44 48.753 235.44C46.305 235.44 44.497 237.248 44.497 239.76C44.497 242.288 46.321 244.096 49.057 244.096C50.465 244.096 51.633 243.616 52.401 242.72L51.553 241.728C50.929 242.416 50.097 242.752 49.105 242.752C47.425 242.752 46.225 241.76 46.033 240.272H52.913C52.929 240.128 52.945 239.936 52.945 239.808ZM48.753 236.736C50.241 236.736 51.313 237.744 51.473 239.168H46.033C46.193 237.728 47.281 236.736 48.753 236.736ZM59.7739 235.44C58.5259 235.44 57.4379 235.92 56.7499 236.864V235.52H55.2779V247.104H56.8139V242.72C57.5179 243.632 58.5739 244.096 59.7739 244.096C62.2539 244.096 64.0619 242.368 64.0619 239.76C64.0619 237.168 62.2539 235.44 59.7739 235.44ZM59.6459 242.752C58.0299 242.752 56.7979 241.568 56.7979 239.76C56.7979 237.968 58.0299 236.784 59.6459 236.784C61.2779 236.784 62.5099 237.968 62.5099 239.76C62.5099 241.568 61.2779 242.752 59.6459 242.752ZM67.8561 236.944V235.52H66.3841V244H67.9201V239.776C67.9201 237.92 68.9441 236.912 70.5921 236.912C70.7041 236.912 70.8161 236.912 70.9441 236.928V235.44C69.4561 235.44 68.4001 235.952 67.8561 236.944ZM80.6231 239.808C80.6231 237.2 78.8791 235.44 76.4311 235.44C73.9831 235.44 72.1751 237.248 72.1751 239.76C72.1751 242.288 73.9991 244.096 76.7351 244.096C78.1431 244.096 79.3111 243.616 80.0791 242.72L79.2311 241.728C78.6071 242.416 77.7751 242.752 76.7831 242.752C75.1031 242.752 73.9031 241.76 73.7111 240.272H80.5911C80.6071 240.128 80.6231 239.936 80.6231 239.808ZM76.4311 236.736C77.9191 236.736 78.9911 237.744 79.1511 239.168H73.7111C73.8711 237.728 74.9591 236.736 76.4311 236.736ZM87.484 235.44C86.188 235.44 85.132 235.904 84.492 236.72V232.128H82.956V244H84.492V239.632C84.492 237.792 85.548 236.816 87.18 236.816C88.636 236.816 89.468 237.632 89.468 239.296V244H91.004V239.12C91.004 236.624 89.548 235.44 87.484 235.44ZM101.758 239.808C101.758 237.2 100.014 235.44 97.5655 235.44C95.1175 235.44 93.3095 237.248 93.3095 239.76C93.3095 242.288 95.1335 244.096 97.8695 244.096C99.2775 244.096 100.446 243.616 101.214 242.72L100.366 241.728C99.7415 242.416 98.9095 242.752 97.9175 242.752C96.2375 242.752 95.0375 241.76 94.8455 240.272H101.726C101.742 240.128 101.758 239.936 101.758 239.808ZM97.5655 236.736C99.0535 236.736 100.126 237.744 100.286 239.168H94.8455C95.0055 237.728 96.0935 236.736 97.5655 236.736ZM108.618 235.44C107.274 235.44 106.186 235.936 105.562 236.8V235.52H104.09V244H105.626V239.632C105.626 237.792 106.682 236.816 108.314 236.816C109.77 236.816 110.602 237.632 110.602 239.296V244H112.138V239.12C112.138 236.624 110.682 235.44 108.618 235.44ZM121.692 232.128V236.8C120.988 235.888 119.932 235.44 118.732 235.44C116.252 235.44 114.444 237.168 114.444 239.76C114.444 242.352 116.252 244.096 118.732 244.096C119.98 244.096 121.068 243.616 121.756 242.656V244H123.228V232.128H121.692ZM118.86 242.752C117.228 242.752 115.996 241.568 115.996 239.76C115.996 237.952 117.228 236.784 118.86 236.784C120.476 236.784 121.708 237.952 121.708 239.76C121.708 241.568 120.476 242.752 118.86 242.752ZM133.998 239.808C133.998 237.2 132.254 235.44 129.806 235.44C127.358 235.44 125.55 237.248 125.55 239.76C125.55 242.288 127.374 244.096 130.11 244.096C131.518 244.096 132.686 243.616 133.454 242.72L132.606 241.728C131.982 242.416 131.15 242.752 130.158 242.752C128.478 242.752 127.278 241.76 127.086 240.272H133.966C133.982 240.128 133.998 239.936 133.998 239.808ZM129.806 236.736C131.294 236.736 132.366 237.744 132.526 239.168H127.086C127.246 237.728 128.334 236.736 129.806 236.736ZM137.803 236.944V235.52H136.331V244H137.867V239.776C137.867 237.92 138.891 236.912 140.539 236.912C140.651 236.912 140.763 236.912 140.891 236.928V235.44C139.403 235.44 138.347 235.952 137.803 236.944ZM143.752 233.888C144.36 233.888 144.792 233.44 144.792 232.864C144.792 232.32 144.344 231.888 143.752 231.888C143.16 231.888 142.712 232.336 142.712 232.896C142.712 233.456 143.16 233.888 143.752 233.888ZM142.984 244H144.52V235.52H142.984V244ZM151.941 242.4C151.621 242.656 151.189 242.8 150.741 242.8C149.893 242.8 149.413 242.288 149.413 241.376V236.784H151.845V235.52H149.413V233.664H147.877V235.52H146.437V236.784H147.877V241.44C147.877 243.152 148.853 244.096 150.565 244.096C151.253 244.096 151.957 243.904 152.421 243.504L151.941 242.4ZM163.471 235.44C162.271 235.44 161.215 235.888 160.511 236.8V232.128H158.975V244H160.447V242.656C161.135 243.616 162.223 244.096 163.471 244.096C165.951 244.096 167.759 242.352 167.759 239.76C167.759 237.168 165.951 235.44 163.471 235.44ZM163.343 242.752C161.727 242.752 160.495 241.568 160.495 239.76C160.495 237.952 161.727 236.784 163.343 236.784C164.975 236.784 166.207 237.952 166.207 239.76C166.207 241.568 164.975 242.752 163.343 242.752ZM176.449 235.52V239.904C176.449 241.728 175.425 242.72 173.825 242.72C172.369 242.72 171.537 241.888 171.537 240.224V235.52H170.001V240.4C170.001 242.896 171.457 244.096 173.649 244.096C174.849 244.096 175.905 243.6 176.529 242.72V244H177.985V235.52H176.449ZM185.397 242.4C185.077 242.656 184.645 242.8 184.197 242.8C183.349 242.8 182.869 242.288 182.869 241.376V236.784H185.301V235.52H182.869V233.664H181.333V235.52H179.893V236.784H181.333V241.44C181.333 243.152 182.309 244.096 184.021 244.096C184.709 244.096 185.413 243.904 185.877 243.504L185.397 242.4ZM191.349 244.096C192.869 244.096 194.133 243.456 194.805 242.272L193.637 241.536C193.093 242.368 192.261 242.752 191.333 242.752C189.669 242.752 188.421 241.6 188.421 239.76C188.421 237.952 189.669 236.784 191.333 236.784C192.261 236.784 193.093 237.168 193.637 238L194.805 237.248C194.133 236.064 192.869 235.44 191.349 235.44C188.741 235.44 186.869 237.232 186.869 239.76C186.869 242.288 188.741 244.096 191.349 244.096ZM201.412 235.44C200.116 235.44 199.06 235.904 198.42 236.72V232.128H196.884V244H198.42V239.632C198.42 237.792 199.476 236.816 201.108 236.816C202.564 236.816 203.396 237.632 203.396 239.296V244H204.932V239.12C204.932 236.624 203.476 235.44 201.412 235.44ZM215.686 239.808C215.686 237.2 213.942 235.44 211.494 235.44C209.046 235.44 207.238 237.248 207.238 239.76C207.238 242.288 209.062 244.096 211.798 244.096C213.206 244.096 214.374 243.616 215.142 242.72L214.294 241.728C213.67 242.416 212.838 242.752 211.846 242.752C210.166 242.752 208.966 241.76 208.774 240.272H215.654C215.67 240.128 215.686 239.936 215.686 239.808ZM211.494 236.736C212.982 236.736 214.054 237.744 214.214 239.168H208.774C208.934 237.728 210.022 236.736 211.494 236.736ZM219.491 236.944V235.52H218.019V244H219.555V239.776C219.555 237.92 220.579 236.912 222.227 236.912C222.339 236.912 222.451 236.912 222.579 236.928V235.44C221.091 235.44 220.035 235.952 219.491 236.944ZM230.75 236.944V235.52H229.278V244H230.814V239.776C230.814 237.92 231.838 236.912 233.486 236.912C233.598 236.912 233.71 236.912 233.838 236.928V235.44C232.35 235.44 231.294 235.952 230.75 236.944ZM243.517 239.808C243.517 237.2 241.773 235.44 239.325 235.44C236.877 235.44 235.069 237.248 235.069 239.76C235.069 242.288 236.893 244.096 239.629 244.096C241.037 244.096 242.205 243.616 242.973 242.72L242.125 241.728C241.501 242.416 240.669 242.752 239.677 242.752C237.997 242.752 236.797 241.76 236.605 240.272H243.485C243.501 240.128 243.517 239.936 243.517 239.808ZM239.325 236.736C240.813 236.736 241.885 237.744 242.045 239.168H236.605C236.765 237.728 237.853 236.736 239.325 236.736ZM250.138 242.4C249.818 242.656 249.386 242.8 248.938 242.8C248.09 242.8 247.61 242.288 247.61 241.376V236.784H250.042V235.52H247.61V233.664H246.074V235.52H244.634V236.784H246.074V241.44C246.074 243.152 247.05 244.096 248.762 244.096C249.45 244.096 250.154 243.904 250.618 243.504L250.138 242.4ZM254.147 236.944V235.52H252.675V244H254.211V239.776C254.211 237.92 255.235 236.912 256.883 236.912C256.995 236.912 257.107 236.912 257.235 236.928V235.44C255.747 235.44 254.691 235.952 254.147 236.944ZM262.882 244.096C265.426 244.096 267.282 242.288 267.282 239.76C267.282 237.232 265.426 235.44 262.882 235.44C260.338 235.44 258.466 237.232 258.466 239.76C258.466 242.288 260.338 244.096 262.882 244.096ZM262.882 242.752C261.25 242.752 260.018 241.568 260.018 239.76C260.018 237.952 261.25 236.784 262.882 236.784C264.514 236.784 265.73 237.952 265.73 239.76C265.73 241.568 264.514 242.752 262.882 242.752Z" fill="#252B42"/>
<rect x="406.5" y="225.5" width="30" height="33" rx="5.5" fill="#E8E8E8"/>
<rect x="406.5" y="225.5" width="30" height="33" rx="5.5" stroke="#BDBDBD"/>
<path d="M418.769 245H419.952V235.835H419.003L416.52 237.694V239.085L418.639 237.473H418.769V245ZM424.049 245H425.232V235.835H424.283L421.8 237.694V239.085L423.919 237.473H424.049V245Z" fill="#252B42"/>
<rect x="0.5" y="276.5" width="460" height="68" stroke="#EBEBEB"/>
<path d="M37.688 313.128C39.432 313.128 40.936 312.52 41.96 311.368L40.92 310.36C40.056 311.272 39 311.704 37.768 311.704C35.24 311.704 33.368 309.88 33.368 307.4C33.368 304.92 35.24 303.096 37.768 303.096C39 303.096 40.056 303.512 40.92 304.424L41.96 303.416C40.936 302.264 39.432 301.672 37.704 301.672C34.296 301.672 31.768 304.088 31.768 307.4C31.768 310.712 34.296 313.128 37.688 313.128ZM47.4911 313.096C50.0351 313.096 51.8911 311.288 51.8911 308.76C51.8911 306.232 50.0351 304.44 47.4911 304.44C44.9471 304.44 43.0751 306.232 43.0751 308.76C43.0751 311.288 44.9471 313.096 47.4911 313.096ZM47.4911 311.752C45.8591 311.752 44.6271 310.568 44.6271 308.76C44.6271 306.952 45.8591 305.784 47.4911 305.784C49.1231 305.784 50.3391 306.952 50.3391 308.76C50.3391 310.568 49.1231 311.752 47.4911 311.752ZM56.6474 313.096C58.9034 313.096 60.3114 312.12 60.3114 310.584C60.3114 307.288 54.9354 308.92 54.9354 306.92C54.9354 306.248 55.5914 305.752 56.9354 305.752C57.7674 305.752 58.6154 305.928 59.3834 306.424L60.0394 305.208C59.3034 304.728 58.0554 304.44 56.9514 304.44C54.7754 304.44 53.4154 305.464 53.4154 306.984C53.4154 310.36 58.7754 308.712 58.7754 310.616C58.7754 311.336 58.1834 311.768 56.7594 311.768C55.6554 311.768 54.5034 311.4 53.7834 310.888L53.1434 312.104C53.8474 312.664 55.2394 313.096 56.6474 313.096ZM66.927 304.44C65.727 304.44 64.671 304.888 63.967 305.8V301.128H62.431V313H63.903V311.656C64.591 312.616 65.679 313.096 66.927 313.096C69.407 313.096 71.215 311.352 71.215 308.76C71.215 306.168 69.407 304.44 66.927 304.44ZM66.799 311.752C65.183 311.752 63.951 310.568 63.951 308.76C63.951 306.952 65.183 305.784 66.799 305.784C68.431 305.784 69.663 306.952 69.663 308.76C69.663 310.568 68.431 311.752 66.799 311.752ZM79.3029 304.52L76.3749 311.304L73.4149 304.52H71.8149L75.5589 312.984L75.2869 313.576C74.8709 314.552 74.4069 314.888 73.6709 314.888C73.0949 314.888 72.5669 314.664 72.1509 314.264L71.4949 315.416C72.0229 315.928 72.8549 316.2 73.6709 316.2C74.9669 316.2 75.9429 315.64 76.6949 313.848L80.8069 304.52H79.3029ZM89.3693 313.096C91.6253 313.096 93.0333 312.12 93.0333 310.584C93.0333 307.288 87.6573 308.92 87.6573 306.92C87.6573 306.248 88.3133 305.752 89.6573 305.752C90.4893 305.752 91.3373 305.928 92.1053 306.424L92.7613 305.208C92.0253 304.728 90.7773 304.44 89.6733 304.44C87.4973 304.44 86.1373 305.464 86.1373 306.984C86.1373 310.36 91.4973 308.712 91.4973 310.616C91.4973 311.336 90.9053 311.768 89.4813 311.768C88.3773 311.768 87.2253 311.4 86.5053 310.888L85.8653 312.104C86.5693 312.664 87.9613 313.096 89.3693 313.096ZM106.453 304.52L103.925 311.304L101.413 304.52H100.117L97.5566 311.272L95.0926 304.52H93.6366L96.7886 313H98.2606L100.741 306.568L103.189 313H104.661L107.829 304.52H106.453ZM117.017 308.808C117.017 306.2 115.273 304.44 112.825 304.44C110.377 304.44 108.569 306.248 108.569 308.76C108.569 311.288 110.393 313.096 113.129 313.096C114.537 313.096 115.705 312.616 116.473 311.72L115.625 310.728C115.001 311.416 114.169 311.752 113.177 311.752C111.497 311.752 110.297 310.76 110.105 309.272H116.985C117.001 309.128 117.017 308.936 117.017 308.808ZM112.825 305.736C114.313 305.736 115.385 306.744 115.545 308.168H110.105C110.265 306.728 111.353 305.736 112.825 305.736ZM122.203 304.44C120.843 304.44 119.579 304.824 118.699 305.528L119.339 306.68C119.995 306.12 121.019 305.768 122.027 305.768C123.547 305.768 124.299 306.52 124.299 307.816V308.12H121.867C119.339 308.12 118.459 309.24 118.459 310.6C118.459 312.072 119.675 313.096 121.595 313.096C122.923 313.096 123.867 312.648 124.379 311.88V313H125.835V307.88C125.835 305.56 124.523 304.44 122.203 304.44ZM121.851 311.912C120.683 311.912 119.979 311.384 119.979 310.536C119.979 309.816 120.411 309.224 121.931 309.224H124.299V310.408C123.915 311.384 123.003 311.912 121.851 311.912ZM133.166 311.4C132.846 311.656 132.414 311.8 131.966 311.8C131.118 311.8 130.638 311.288 130.638 310.376V305.784H133.07V304.52H130.638V302.664H129.102V304.52H127.662V305.784H129.102V310.44C129.102 312.152 130.078 313.096 131.79 313.096C132.478 313.096 133.182 312.904 133.646 312.504L133.166 311.4ZM143.086 308.808C143.086 306.2 141.342 304.44 138.894 304.44C136.446 304.44 134.638 306.248 134.638 308.76C134.638 311.288 136.462 313.096 139.198 313.096C140.606 313.096 141.774 312.616 142.542 311.72L141.694 310.728C141.07 311.416 140.238 311.752 139.246 311.752C137.566 311.752 136.366 310.76 136.174 309.272H143.054C143.07 309.128 143.086 308.936 143.086 308.808ZM138.894 305.736C140.382 305.736 141.454 306.744 141.614 308.168H136.174C136.334 306.728 137.422 305.736 138.894 305.736ZM146.891 305.944V304.52H145.419V313H146.955V308.776C146.955 306.92 147.979 305.912 149.627 305.912C149.739 305.912 149.851 305.912 149.979 305.928V304.44C148.491 304.44 147.435 304.952 146.891 305.944ZM164.342 308.808C164.342 306.2 162.598 304.44 160.15 304.44C157.702 304.44 155.894 306.248 155.894 308.76C155.894 311.288 157.718 313.096 160.454 313.096C161.862 313.096 163.03 312.616 163.798 311.72L162.95 310.728C162.326 311.416 161.494 311.752 160.502 311.752C158.822 311.752 157.622 310.76 157.43 309.272H164.31C164.326 309.128 164.342 308.936 164.342 308.808ZM160.15 305.736C161.638 305.736 162.71 306.744 162.87 308.168H157.43C157.59 306.728 158.678 305.736 160.15 305.736ZM173.043 304.52V308.904C173.043 310.728 172.019 311.72 170.419 311.72C168.963 311.72 168.131 310.888 168.131 309.224V304.52H166.595V309.4C166.595 311.896 168.051 313.096 170.243 313.096C171.443 313.096 172.499 312.6 173.123 311.72V313H174.579V304.52H173.043ZM186.696 304.44C185.496 304.44 184.44 304.888 183.736 305.8V301.128H182.2V313H183.672V311.656C184.36 312.616 185.448 313.096 186.696 313.096C189.176 313.096 190.984 311.352 190.984 308.76C190.984 306.168 189.176 304.44 186.696 304.44ZM186.568 311.752C184.952 311.752 183.72 310.568 183.72 308.76C183.72 306.952 184.952 305.784 186.568 305.784C188.2 305.784 189.432 306.952 189.432 308.76C189.432 310.568 188.2 311.752 186.568 311.752ZM196.316 304.44C194.956 304.44 193.692 304.824 192.812 305.528L193.452 306.68C194.108 306.12 195.132 305.768 196.14 305.768C197.66 305.768 198.412 306.52 198.412 307.816V308.12H195.98C193.452 308.12 192.572 309.24 192.572 310.6C192.572 312.072 193.788 313.096 195.708 313.096C197.036 313.096 197.98 312.648 198.492 311.88V313H199.948V307.88C199.948 305.56 198.636 304.44 196.316 304.44ZM195.964 311.912C194.796 311.912 194.092 311.384 194.092 310.536C194.092 309.816 194.524 309.224 196.044 309.224H198.412V310.408C198.028 311.384 197.116 311.912 195.964 311.912ZM207.518 304.44C206.174 304.44 205.086 304.936 204.462 305.8V304.52H202.99V313H204.526V308.632C204.526 306.792 205.582 305.816 207.214 305.816C208.67 305.816 209.502 306.632 209.502 308.296V313H211.038V308.12C211.038 305.624 209.582 304.44 207.518 304.44ZM218.609 304.44C217.313 304.44 216.257 304.904 215.617 305.72V301.128H214.081V313H215.617V308.632C215.617 306.792 216.673 305.816 218.305 305.816C219.761 305.816 220.593 306.632 220.593 308.296V313H222.129V308.12C222.129 305.624 220.673 304.44 218.609 304.44ZM240.276 304.44C238.836 304.44 237.652 305.048 237.012 306.008C236.452 304.952 235.364 304.44 234.068 304.44C232.788 304.44 231.748 304.92 231.14 305.784V304.52H229.668V313H231.204V308.632C231.204 306.792 232.212 305.816 233.748 305.816C235.14 305.816 235.94 306.632 235.94 308.296V313H237.476V308.632C237.476 306.792 238.484 305.816 240.02 305.816C241.412 305.816 242.212 306.632 242.212 308.296V313H243.748V308.12C243.748 305.624 242.34 304.44 240.276 304.44ZM247.543 302.888C248.151 302.888 248.583 302.44 248.583 301.864C248.583 301.32 248.135 300.888 247.543 300.888C246.951 300.888 246.503 301.336 246.503 301.896C246.503 302.456 246.951 302.888 247.543 302.888ZM246.775 313H248.311V304.52H246.775V313Z" fill="#252B42"/>
<rect x="410.5" y="294.5" width="26" height="33" rx="5.5" fill="#E8E8E8"/>
<rect x="410.5" y="294.5" width="26" height="33" rx="5.5" stroke="#BDBDBD"/>
<path d="M421.599 314H422.886L426.461 305.537V304.835H420.26V305.875H425.044L421.599 314Z" fill="#252B42"/>
</g>
<defs>
<clipPath id="clip0_688_2674">
<rect width="461" height="345" fill="white"/>
</clipPath>
<clipPath id="clip1_688_2674">
<rect y="138" width="461" height="69" fill="white"/>
</clipPath>
</defs>
</svg>
