<svg width="249" height="284" viewBox="0 0 249 284" fill="none" xmlns="http://www.w3.org/2000/svg">
<g clip-path="url(#clip0_688_2648)" filter="url(#filter0_d_688_2648)">
<rect width="241" height="276" transform="translate(4 2)" fill="white"/>
<rect x="4.5" y="2.5" width="240" height="68" stroke="#EBEBEB"/>
<path d="M78.204 30.2V34.246H73.136V30.2H71.316V40H73.136V35.8H78.204V40H80.024V30.2H78.204ZM86.042 40.098C88.366 40.098 90.032 38.502 90.032 36.262C90.032 34.022 88.366 32.44 86.042 32.44C83.746 32.44 82.066 34.022 82.066 36.262C82.066 38.502 83.746 40.098 86.042 40.098ZM86.042 38.6C84.782 38.6 83.83 37.69 83.83 36.262C83.83 34.834 84.782 33.924 86.042 33.924C87.316 33.924 88.268 34.834 88.268 36.262C88.268 37.69 87.316 38.6 86.042 38.6ZM101.341 32.44C100.151 32.44 99.1434 32.916 98.5414 33.686C98.0234 32.846 97.1134 32.44 96.0214 32.44C94.9994 32.44 94.1314 32.804 93.5714 33.476V32.524H91.9054V40H93.6554V36.206C93.6554 34.722 94.4394 33.966 95.6014 33.966C96.6654 33.966 97.2814 34.61 97.2814 35.94V40H99.0314V36.206C99.0314 34.722 99.8294 33.966 100.977 33.966C102.041 33.966 102.657 34.61 102.657 35.94V40H104.407V35.716C104.407 33.462 103.147 32.44 101.341 32.44ZM113.94 36.304C113.94 33.966 112.344 32.44 110.16 32.44C107.934 32.44 106.296 34.036 106.296 36.262C106.296 38.488 107.92 40.098 110.426 40.098C111.714 40.098 112.764 39.678 113.436 38.88L112.498 37.802C111.966 38.348 111.308 38.614 110.468 38.614C109.166 38.614 108.256 37.914 108.046 36.822H113.912C113.926 36.654 113.94 36.444 113.94 36.304ZM110.16 33.84C111.308 33.84 112.134 34.582 112.274 35.66H108.032C108.2 34.568 109.026 33.84 110.16 33.84Z" fill="#252B42"/>
<rect x="188.5" y="19.5" width="27" height="33" rx="5.5" fill="#E8E8E8"/>
<rect x="188.5" y="19.5" width="27" height="33" rx="5.5" stroke="#BDBDBD"/>
<path d="M198.806 39H205.085V37.96H200.821V37.83L203.304 35.503C204.565 34.307 205.241 33.449 205.241 32.37C205.241 30.706 203.915 29.51 202.108 29.51C200.21 29.51 198.819 30.927 198.819 32.877H199.963C200.028 31.538 200.925 30.55 202.121 30.55C203.213 30.55 204.058 31.356 204.058 32.448C204.058 33.358 203.395 33.943 202.641 34.684L198.806 38.363V39Z" fill="#252B42"/>
<g clip-path="url(#clip1_688_2648)">
<path d="M46.5438 36.2683L37.1673 26.8544L36.5388 26.2231C36.3956 26.0802 36.2019 26 36 26C35.7982 26 35.6045 26.0802 35.4613 26.2231L25.4563 36.2683C25.3096 36.4152 25.1936 36.59 25.1152 36.7826C25.0369 36.9752 24.9977 37.1816 25.0001 37.3896C25.0098 38.2477 25.7208 38.9326 26.575 38.9326H27.6063V46.8718H44.3938V38.9326H45.4469C45.8619 38.9326 46.2526 38.7693 46.5462 38.4744C46.6908 38.3296 46.8053 38.1575 46.8832 37.9679C46.9611 37.7784 47.0008 37.5752 47 37.3701C47 36.9557 46.8374 36.5633 46.5438 36.2683ZM37.359 45.1167H34.6411V40.1441H37.359V45.1167ZM42.6466 37.1776V45.1167H38.912V39.5591C38.912 39.0204 38.4776 38.584 37.9414 38.584H34.0587C33.5224 38.584 33.0881 39.0204 33.0881 39.5591V45.1167H29.3535V37.1776H27.0239L36.0025 28.1658L36.563 28.7289L44.9786 37.1776H42.6466Z" fill="#252B42"/>
</g>
<g clip-path="url(#clip2_688_2648)">
<line x1="5.5" y1="71" x2="5.5" y2="140" stroke="#23A6F0" stroke-width="3"/>
<path d="M73.348 99.2H69.316V109H71.136V106.172H73.348C75.924 106.172 77.52 104.842 77.52 102.686C77.52 100.516 75.924 99.2 73.348 99.2ZM73.264 104.632H71.136V100.74H73.264C74.86 100.74 75.686 101.454 75.686 102.686C75.686 103.918 74.86 104.632 73.264 104.632ZM80.9671 102.616V101.524H79.3011V109H81.0511V105.374C81.0511 103.848 81.8911 103.064 83.2211 103.064C83.3471 103.064 83.4731 103.078 83.6271 103.106V101.44C82.3811 101.44 81.4711 101.832 80.9671 102.616ZM88.6033 109.098C90.9273 109.098 92.5933 107.502 92.5933 105.262C92.5933 103.022 90.9273 101.44 88.6033 101.44C86.3073 101.44 84.6273 103.022 84.6273 105.262C84.6273 107.502 86.3073 109.098 88.6033 109.098ZM88.6033 107.6C87.3433 107.6 86.3913 106.69 86.3913 105.262C86.3913 103.834 87.3433 102.924 88.6033 102.924C89.8773 102.924 90.8293 103.834 90.8293 105.262C90.8293 106.69 89.8773 107.6 88.6033 107.6ZM101.635 100.292C102.293 100.292 102.755 99.816 102.755 99.2C102.755 98.626 102.279 98.192 101.635 98.192C100.991 98.192 100.515 98.654 100.515 99.242C100.515 99.83 100.991 100.292 101.635 100.292ZM94.7048 101.104V101.58H93.4728V102.98H94.7048V109H96.4548V102.98H98.4568V101.58H96.3988V101.132C96.3988 100.334 96.7768 99.928 97.5048 99.928C97.8688 99.928 98.2048 100.054 98.4708 100.236L98.9608 98.92C98.5688 98.64 97.9808 98.514 97.3788 98.514C95.6428 98.514 94.7048 99.536 94.7048 101.104ZM100.753 109H102.503V101.524H100.753V109ZM105.003 109H106.753V98.612H105.003V109ZM116.278 105.304C116.278 102.966 114.682 101.44 112.498 101.44C110.272 101.44 108.634 103.036 108.634 105.262C108.634 107.488 110.258 109.098 112.764 109.098C114.052 109.098 115.102 108.678 115.774 107.88L114.836 106.802C114.304 107.348 113.646 107.614 112.806 107.614C111.504 107.614 110.594 106.914 110.384 105.822H116.25C116.264 105.654 116.278 105.444 116.278 105.304ZM112.498 102.84C113.646 102.84 114.472 103.582 114.612 104.66H110.37C110.538 103.568 111.364 102.84 112.498 102.84Z" fill="#23A6F0"/>
<rect x="180" y="88" width="36" height="34" rx="6" fill="#E77C40"/>
<path d="M190.806 108H197.085V106.96H192.821V106.83L195.304 104.503C196.565 103.307 197.241 102.449 197.241 101.37C197.241 99.706 195.915 98.51 194.108 98.51C192.21 98.51 190.819 99.927 190.819 101.877H191.963C192.028 100.538 192.925 99.55 194.121 99.55C195.213 99.55 196.058 100.356 196.058 101.448C196.058 102.358 195.395 102.943 194.641 103.684L190.806 107.363V108ZM201.86 108.325C203.797 108.325 205.188 107.064 205.188 105.348C205.188 103.723 203.927 102.527 202.289 102.384L204.837 99.628V98.835H198.948V99.875H203.03V100.005L200.586 102.631L200.937 103.502C201.145 103.411 201.509 103.333 201.808 103.333C203.069 103.333 204.005 104.178 204.005 105.335C204.005 106.466 203.095 107.285 201.847 107.285C200.586 107.285 199.624 106.284 199.624 104.932H198.428C198.506 106.895 199.949 108.325 201.86 108.325Z" fill="white"/>
<g clip-path="url(#clip3_688_2648)">
<path d="M35.5 97C34.2045 97 33.1925 97.4732 32.4638 98.4196C31.7351 99.3661 31.3707 100.576 31.3707 102.049C31.3617 103.879 31.9555 105.33 33.152 106.402C33.3049 106.545 33.3589 106.728 33.3139 106.951L33.0036 107.594C32.9046 107.808 32.7584 107.975 32.565 108.096C32.3716 108.217 31.9645 108.388 31.3438 108.612C31.3168 108.621 30.7478 108.804 29.6367 109.161C28.5257 109.518 27.9342 109.714 27.8622 109.75C27.1065 110.062 26.6117 110.388 26.3778 110.728C26.1259 111.29 26 112.714 26 115H45C45 112.714 44.8741 111.29 44.6222 110.728C44.3883 110.388 43.8935 110.062 43.1378 109.75C43.0658 109.714 42.4743 109.518 41.3633 109.161C40.2522 108.804 39.6832 108.621 39.6562 108.612C39.0355 108.388 38.6284 108.217 38.435 108.096C38.2416 107.975 38.0954 107.808 37.9964 107.594L37.6861 106.951C37.6411 106.728 37.6951 106.545 37.848 106.402C39.0445 105.33 39.6383 103.879 39.6293 102.049C39.6293 100.576 39.2649 99.3661 38.5362 98.4196C37.8075 97.4732 36.7955 97 35.5 97Z" fill="#23A6F0"/>
</g>
</g>
<rect x="4.5" y="71.5" width="240" height="68" stroke="#EBEBEB"/>
<rect x="4.5" y="140.5" width="240" height="68" stroke="#EBEBEB"/>
<path d="M82.04 178L82.026 168.2H80.528L76.706 174.696L72.814 168.2H71.316V178H73.052V171.588L76.272 176.88H77.084L80.304 171.504L80.318 178H82.04ZM91.7471 174.304C91.7471 171.966 90.1511 170.44 87.9671 170.44C85.7411 170.44 84.1031 172.036 84.1031 174.262C84.1031 176.488 85.7271 178.098 88.2331 178.098C89.5211 178.098 90.5711 177.678 91.2431 176.88L90.3051 175.802C89.7731 176.348 89.1151 176.614 88.2751 176.614C86.9731 176.614 86.0631 175.914 85.8531 174.822H91.7191C91.7331 174.654 91.7471 174.444 91.7471 174.304ZM87.9671 171.84C89.1151 171.84 89.9411 172.582 90.0811 173.66H85.8391C86.0071 172.568 86.8331 171.84 87.9671 171.84ZM95.9381 178.098C98.0381 178.098 99.3261 177.188 99.3261 175.788C99.3261 172.862 94.7061 174.206 94.7061 172.694C94.7061 172.204 95.2101 171.854 96.2741 171.854C96.9881 171.854 97.7021 171.994 98.4161 172.414L99.0881 171.084C98.4161 170.678 97.2821 170.44 96.2881 170.44C94.2721 170.44 92.9981 171.364 92.9981 172.778C92.9981 175.76 97.6181 174.416 97.6181 175.844C97.6181 176.362 97.1561 176.67 96.0501 176.67C95.1121 176.67 94.1041 176.362 93.4461 175.928L92.7741 177.258C93.4461 177.734 94.6921 178.098 95.9381 178.098ZM103.343 178.098C105.443 178.098 106.731 177.188 106.731 175.788C106.731 172.862 102.111 174.206 102.111 172.694C102.111 172.204 102.615 171.854 103.679 171.854C104.393 171.854 105.107 171.994 105.821 172.414L106.493 171.084C105.821 170.678 104.687 170.44 103.693 170.44C101.677 170.44 100.403 171.364 100.403 172.778C100.403 175.76 105.023 174.416 105.023 175.844C105.023 176.362 104.561 176.67 103.455 176.67C102.517 176.67 101.509 176.362 100.851 175.928L100.179 177.258C100.851 177.734 102.097 178.098 103.343 178.098ZM111.294 170.44C110.09 170.44 108.928 170.748 108.13 171.364L108.816 172.638C109.376 172.176 110.244 171.896 111.084 171.896C112.33 171.896 112.946 172.498 112.946 173.52V173.632H111.014C108.746 173.632 107.906 174.612 107.906 175.858C107.906 177.16 108.984 178.098 110.692 178.098C111.812 178.098 112.624 177.734 113.044 177.09V178H114.696V173.618C114.696 171.462 113.45 170.44 111.294 170.44ZM111.056 176.824C110.16 176.824 109.628 176.418 109.628 175.788C109.628 175.242 109.95 174.794 111.14 174.794H112.946V175.662C112.652 176.432 111.91 176.824 111.056 176.824ZM122.965 170.524V171.518C122.349 170.776 121.425 170.44 120.375 170.44C118.233 170.44 116.595 171.868 116.595 174.038C116.595 176.208 118.233 177.664 120.375 177.664C121.383 177.664 122.265 177.342 122.881 176.67V177.062C122.881 178.574 122.153 179.33 120.501 179.33C119.465 179.33 118.401 178.98 117.743 178.434L116.959 179.75C117.812 180.45 119.199 180.814 120.599 180.814C123.217 180.814 124.631 179.582 124.631 176.866V170.524H122.965ZM120.641 176.18C119.311 176.18 118.359 175.312 118.359 174.038C118.359 172.778 119.311 171.924 120.641 171.924C121.957 171.924 122.909 172.778 122.909 174.038C122.909 175.312 121.957 176.18 120.641 176.18ZM134.159 174.304C134.159 171.966 132.563 170.44 130.379 170.44C128.153 170.44 126.515 172.036 126.515 174.262C126.515 176.488 128.139 178.098 130.645 178.098C131.933 178.098 132.983 177.678 133.655 176.88L132.717 175.802C132.185 176.348 131.527 176.614 130.687 176.614C129.385 176.614 128.475 175.914 128.265 174.822H134.131C134.145 174.654 134.159 174.444 134.159 174.304ZM130.379 171.84C131.527 171.84 132.353 172.582 132.493 173.66H128.251C128.419 172.568 129.245 171.84 130.379 171.84ZM138.35 178.098C140.45 178.098 141.738 177.188 141.738 175.788C141.738 172.862 137.118 174.206 137.118 172.694C137.118 172.204 137.622 171.854 138.686 171.854C139.4 171.854 140.114 171.994 140.828 172.414L141.5 171.084C140.828 170.678 139.694 170.44 138.7 170.44C136.684 170.44 135.41 171.364 135.41 172.778C135.41 175.76 140.03 174.416 140.03 175.844C140.03 176.362 139.568 176.67 138.462 176.67C137.524 176.67 136.516 176.362 135.858 175.928L135.186 177.258C135.858 177.734 137.104 178.098 138.35 178.098Z" fill="#252B42"/>
<rect x="186" y="157" width="28" height="34" rx="6" fill="#2DC071"/>
<path d="M196.806 177H203.085V175.96H198.821V175.83L201.304 173.503C202.565 172.307 203.241 171.449 203.241 170.37C203.241 168.706 201.915 167.51 200.108 167.51C198.21 167.51 196.819 168.927 196.819 170.877H197.963C198.028 169.538 198.925 168.55 200.121 168.55C201.213 168.55 202.058 169.356 202.058 170.448C202.058 171.358 201.395 171.943 200.641 172.684L196.806 176.363V177Z" fill="white"/>
<g clip-path="url(#clip4_688_2648)">
<path d="M35.6072 175C35.6072 175.313 35.7539 175.612 36.0151 175.833C36.2763 176.054 36.6306 176.179 37 176.179C37.3694 176.179 37.7237 176.054 37.9849 175.833C38.2461 175.612 38.3928 175.313 38.3928 175C38.3928 174.687 38.2461 174.388 37.9849 174.167C37.7237 173.946 37.3694 173.821 37 173.821C36.6306 173.821 36.2763 173.946 36.0151 174.167C35.7539 174.388 35.6072 174.687 35.6072 175ZM41.4107 175C41.4107 175.313 41.5574 175.612 41.8186 175.833C42.0798 176.054 42.4341 176.179 42.8035 176.179C43.1729 176.179 43.5272 176.054 43.7884 175.833C44.0496 175.612 44.1963 175.313 44.1963 175C44.1963 174.687 44.0496 174.388 43.7884 174.167C43.5272 173.946 43.1729 173.821 42.8035 173.821C42.4341 173.821 42.0798 173.946 41.8186 174.167C41.5574 174.388 41.4107 174.687 41.4107 175ZM29.8037 175C29.8037 175.313 29.9504 175.612 30.2116 175.833C30.4728 176.054 30.8271 176.179 31.1965 176.179C31.5659 176.179 31.9202 176.054 32.1814 175.833C32.4426 175.612 32.5893 175.313 32.5893 175C32.5893 174.687 32.4426 174.388 32.1814 174.167C31.9202 173.946 31.5659 173.821 31.1965 173.821C30.8271 173.821 30.4728 173.946 30.2116 174.167C29.9504 174.388 29.8037 174.687 29.8037 175ZM48.99 170.737C48.3342 169.419 47.3941 168.235 46.1956 167.219C45.0056 166.208 43.5929 165.405 42.0374 164.854C40.4415 164.287 38.7469 164 37 164H36.942C35.1835 164.007 33.4802 164.302 31.8784 164.881C30.3363 165.438 28.9368 166.242 27.7579 167.251C26.5711 168.265 25.6397 169.444 24.9955 170.757C24.3281 172.117 23.9915 173.564 24.0002 175.052C24.01 176.757 24.4868 178.437 25.393 179.96V183.692C25.393 183.992 25.5336 184.279 25.784 184.491C26.0343 184.702 26.3738 184.821 26.7278 184.821H31.1414C32.9413 185.588 34.9268 185.992 36.942 186H37.0029C38.7411 186 40.427 185.715 42.0142 185.158C43.5618 184.614 44.9693 183.82 46.1579 182.82C47.3563 181.816 48.2994 180.642 48.9581 179.334C49.6429 177.978 49.9911 176.537 49.9998 175.049C50.0085 173.554 49.6661 172.103 48.99 170.737ZM44.6055 181.492C42.5714 183.196 39.8727 184.134 37 184.134H36.9507C35.2009 184.127 33.4628 183.758 31.9277 183.066L31.684 182.955H27.5983V179.498L27.4678 179.292C26.6495 177.993 26.2142 176.522 26.2055 175.042C26.1939 172.594 27.2995 170.296 29.3278 168.565C31.3532 166.833 34.0605 165.876 36.9536 165.866H37.0029C38.4538 165.866 39.8611 166.104 41.1872 166.576C42.4814 167.035 43.6421 167.695 44.6403 168.54C45.6356 169.382 46.4191 170.367 46.9617 171.462C47.5246 172.596 47.8061 173.799 47.8003 175.042C47.7829 177.487 46.6483 179.778 44.6055 181.492Z" fill="#252B42"/>
</g>
<rect x="4.5" y="209.5" width="240" height="68" stroke="#EBEBEB"/>
<path d="M74.354 247.14C77.042 247.14 78.316 245.796 78.316 244.228C78.316 240.63 72.506 241.988 72.506 239.902C72.506 239.16 73.122 238.572 74.634 238.572C75.488 238.572 76.454 238.824 77.336 239.342L77.91 237.928C77.056 237.368 75.824 237.06 74.648 237.06C71.96 237.06 70.7 238.404 70.7 239.986C70.7 243.626 76.524 242.24 76.524 244.354C76.524 245.082 75.88 245.628 74.354 245.628C73.15 245.628 71.904 245.18 71.12 244.55L70.49 245.964C71.302 246.664 72.828 247.14 74.354 247.14ZM87.1807 243.304C87.1807 240.966 85.5847 239.44 83.4007 239.44C81.1747 239.44 79.5367 241.036 79.5367 243.262C79.5367 245.488 81.1607 247.098 83.6667 247.098C84.9547 247.098 86.0047 246.678 86.6767 245.88L85.7387 244.802C85.2067 245.348 84.5487 245.614 83.7087 245.614C82.4067 245.614 81.4967 244.914 81.2867 243.822H87.1527C87.1667 243.654 87.1807 243.444 87.1807 243.304ZM83.4007 240.84C84.5487 240.84 85.3747 241.582 85.5147 242.66H81.2727C81.4407 241.568 82.2667 240.84 83.4007 240.84ZM93.0657 245.348C92.7997 245.558 92.4497 245.656 92.0857 245.656C91.4137 245.656 91.0497 245.264 91.0497 244.536V240.98H93.0517V239.58H91.0497V237.872H89.2997V239.58H88.0677V240.98H89.2997V244.578C89.2997 246.23 90.2377 247.098 91.8757 247.098C92.5057 247.098 93.1357 246.93 93.5557 246.594L93.0657 245.348ZM99.0215 245.348C98.7555 245.558 98.4055 245.656 98.0415 245.656C97.3695 245.656 97.0055 245.264 97.0055 244.536V240.98H99.0075V239.58H97.0055V237.872H95.2555V239.58H94.0235V240.98H95.2555V244.578C95.2555 246.23 96.1935 247.098 97.8315 247.098C98.4615 247.098 99.0915 246.93 99.5115 246.594L99.0215 245.348ZM102.033 238.292C102.691 238.292 103.153 237.816 103.153 237.2C103.153 236.626 102.677 236.192 102.033 236.192C101.389 236.192 100.913 236.654 100.913 237.242C100.913 237.83 101.389 238.292 102.033 238.292ZM101.151 247H102.901V239.524H101.151V247ZM109.64 239.44C108.548 239.44 107.638 239.804 107.064 240.49V239.524H105.398V247H107.148V243.22C107.148 241.722 107.988 240.966 109.234 240.966C110.354 240.966 111.012 241.61 111.012 242.94V247H112.762V242.716C112.762 240.462 111.432 239.44 109.64 239.44ZM121.004 239.524V240.518C120.388 239.776 119.464 239.44 118.414 239.44C116.272 239.44 114.634 240.868 114.634 243.038C114.634 245.208 116.272 246.664 118.414 246.664C119.422 246.664 120.304 246.342 120.92 245.67V246.062C120.92 247.574 120.192 248.33 118.54 248.33C117.504 248.33 116.44 247.98 115.782 247.434L114.998 248.75C115.852 249.45 117.238 249.814 118.638 249.814C121.256 249.814 122.67 248.582 122.67 245.866V239.524H121.004ZM118.68 245.18C117.35 245.18 116.398 244.312 116.398 243.038C116.398 241.778 117.35 240.924 118.68 240.924C119.996 240.924 120.948 241.778 120.948 243.038C120.948 244.312 119.996 245.18 118.68 245.18ZM127.481 247.098C129.581 247.098 130.869 246.188 130.869 244.788C130.869 241.862 126.249 243.206 126.249 241.694C126.249 241.204 126.753 240.854 127.817 240.854C128.531 240.854 129.245 240.994 129.959 241.414L130.631 240.084C129.959 239.678 128.825 239.44 127.831 239.44C125.815 239.44 124.541 240.364 124.541 241.778C124.541 244.76 129.161 243.416 129.161 244.844C129.161 245.362 128.699 245.67 127.593 245.67C126.655 245.67 125.647 245.362 124.989 244.928L124.317 246.258C124.989 246.734 126.235 247.098 127.481 247.098Z" fill="#252B42"/>
<rect x="180" y="226" width="34" height="34" rx="6" fill="#23A6F0"/>
<path d="M192.769 246H193.952V236.835H193.003L190.52 238.694V240.085L192.639 238.473H192.769V246ZM199.232 246.325C201.169 246.325 202.56 245.064 202.56 243.348C202.56 241.723 201.299 240.527 199.661 240.384L202.209 237.628V236.835H196.32V237.875H200.402V238.005L197.958 240.631L198.309 241.502C198.517 241.411 198.881 241.333 199.18 241.333C200.441 241.333 201.377 242.178 201.377 243.335C201.377 244.466 200.467 245.285 199.219 245.285C197.958 245.285 196.996 244.284 196.996 242.932H195.8C195.878 244.895 197.321 246.325 199.232 246.325Z" fill="white"/>
<g clip-path="url(#clip5_688_2648)">
<path d="M47.9574 244.325C47.7534 244.097 47.6409 243.804 47.6409 243.5C47.6409 243.196 47.7534 242.903 47.9574 242.675L49.586 240.875C49.7654 240.679 49.8769 240.431 49.9043 240.169C49.9317 239.906 49.8737 239.641 49.7386 239.413L47.194 235.089C47.0603 234.861 46.8567 234.68 46.6122 234.572C46.3677 234.464 46.0949 234.435 45.8326 234.489L43.4406 234.964C43.1362 235.025 42.8193 234.976 42.5498 234.824C42.2802 234.672 42.0766 234.428 41.9774 234.139L41.2013 231.852C41.1159 231.603 40.9533 231.388 40.7364 231.235C40.5195 231.083 40.2593 231.001 39.9925 231.002H34.9032C34.6257 230.987 34.3512 231.063 34.1214 231.216C33.8917 231.37 33.7194 231.593 33.6308 231.852L32.9183 234.139C32.8191 234.428 32.6155 234.672 32.3459 234.824C32.0764 234.976 31.7595 235.025 31.4551 234.964L28.9995 234.489C28.7509 234.454 28.4973 234.493 28.2709 234.6C28.0445 234.706 27.8553 234.876 27.7272 235.089L25.1825 239.413C25.044 239.639 24.9818 239.902 25.0046 240.164C25.0275 240.427 25.1343 240.676 25.3098 240.875L26.9256 242.675C27.1296 242.903 27.2421 243.196 27.2421 243.5C27.2421 243.804 27.1296 244.097 26.9256 244.325L25.3098 246.125C25.1343 246.324 25.0275 246.573 25.0046 246.836C24.9818 247.098 25.044 247.361 25.1825 247.587L27.7272 251.911C27.8609 252.139 28.0645 252.32 28.309 252.428C28.5534 252.536 28.8263 252.565 29.0886 252.511L31.4806 252.036C31.785 251.975 32.1018 252.024 32.3714 252.176C32.6409 252.328 32.8445 252.572 32.9438 252.861L33.7199 255.148C33.8084 255.407 33.9807 255.63 34.2105 255.784C34.4402 255.937 34.7148 256.013 34.9922 255.998H40.0816C40.3483 255.999 40.6085 255.917 40.8254 255.765C41.0423 255.612 41.205 255.397 41.2903 255.148L42.0664 252.861C42.1657 252.572 42.3693 252.328 42.6389 252.176C42.9084 252.024 43.2253 251.975 43.5296 252.036L45.9216 252.511C46.184 252.565 46.4568 252.536 46.7013 252.428C46.9457 252.32 47.1493 252.139 47.283 251.911L49.8277 247.587C49.9628 247.359 50.0208 247.094 49.9934 246.831C49.9659 246.569 49.8545 246.321 49.675 246.125L47.9574 244.325ZM46.0616 246L47.0795 247.125L45.4509 249.899L43.9495 249.599C43.0331 249.415 42.0799 249.568 41.2707 250.029C40.4615 250.49 39.8528 251.226 39.5599 252.099L39.0765 253.499H35.8193L35.3612 252.074C35.0684 251.201 34.4596 250.465 33.6504 250.004C32.8413 249.543 31.888 249.39 30.9717 249.574L29.4703 249.874L27.8163 247.112L28.8341 245.987C29.4601 245.3 29.8061 244.41 29.8061 243.488C29.8061 242.565 29.4601 241.675 28.8341 240.988L27.8163 239.863L29.4449 237.113L30.9462 237.413C31.8626 237.597 32.8158 237.444 33.625 236.984C34.4342 236.523 35.043 235.786 35.3358 234.914L35.8193 233.501H39.0765L39.5599 234.926C39.8528 235.799 40.4615 236.535 41.2707 236.996C42.0799 237.457 43.0331 237.61 43.9495 237.426L45.4509 237.126L47.0795 239.9L46.0616 241.025C45.4427 241.711 45.1009 242.596 45.1009 243.512C45.1009 244.429 45.4427 245.314 46.0616 246ZM37.4479 238.501C36.4413 238.501 35.4573 238.794 34.6204 239.343C33.7834 239.893 33.1311 240.673 32.7459 241.587C32.3607 242.5 32.2599 243.506 32.4563 244.475C32.6527 245.445 33.1374 246.336 33.8491 247.035C34.5609 247.734 35.4677 248.21 36.455 248.403C37.4422 248.596 38.4655 248.497 39.3955 248.119C40.3254 247.74 41.1203 247.1 41.6795 246.277C42.2387 245.455 42.5372 244.489 42.5372 243.5C42.5372 242.174 42.001 240.903 41.0466 239.965C40.0921 239.027 38.7976 238.501 37.4479 238.501ZM37.4479 246C36.9446 246 36.4526 245.853 36.0341 245.578C35.6156 245.304 35.2895 244.913 35.0969 244.457C34.9043 244 34.8539 243.497 34.9521 243.012C35.0503 242.527 35.2926 242.082 35.6485 241.732C36.0044 241.383 36.4578 241.145 36.9514 241.048C37.445 240.952 37.9567 241.001 38.4217 241.191C38.8866 241.38 39.2841 241.7 39.5637 242.111C39.8433 242.522 39.9925 243.006 39.9925 243.5C39.9925 244.163 39.7244 244.799 39.2472 245.268C38.77 245.736 38.1228 246 37.4479 246Z" fill="#252B42"/>
</g>
</g>
<defs>
<filter id="filter0_d_688_2648" x="0" y="0" width="249" height="284" filterUnits="userSpaceOnUse" color-interpolation-filters="sRGB">
<feFlood flood-opacity="0" result="BackgroundImageFix"/>
<feColorMatrix in="SourceAlpha" type="matrix" values="0 0 0 0 0 0 0 0 0 0 0 0 0 0 0 0 0 0 127 0" result="hardAlpha"/>
<feOffset dy="2"/>
<feGaussianBlur stdDeviation="2"/>
<feColorMatrix type="matrix" values="0 0 0 0 0 0 0 0 0 0 0 0 0 0 0 0 0 0 0.1 0"/>
<feBlend mode="normal" in2="BackgroundImageFix" result="effect1_dropShadow_688_2648"/>
<feBlend mode="normal" in="SourceGraphic" in2="effect1_dropShadow_688_2648" result="shape"/>
</filter>
<clipPath id="clip0_688_2648">
<rect width="241" height="276" fill="white" transform="translate(4 2)"/>
</clipPath>
<clipPath id="clip1_688_2648">
<rect width="22" height="20.8718" fill="white" transform="translate(25 26)"/>
</clipPath>
<clipPath id="clip2_688_2648">
<rect x="4" y="71" width="241" height="69" fill="white"/>
</clipPath>
<clipPath id="clip3_688_2648">
<rect width="19" height="18" fill="white" transform="translate(26 97)"/>
</clipPath>
<clipPath id="clip4_688_2648">
<rect width="26" height="22" fill="white" transform="translate(24 164)"/>
</clipPath>
<clipPath id="clip5_688_2648">
<rect width="25" height="25" fill="white" transform="translate(25 231)"/>
</clipPath>
</defs>
</svg>
