<svg width="451" height="121" viewBox="0 0 451 121" fill="none" xmlns="http://www.w3.org/2000/svg">
<path d="M7.488 16.074C8.22 16.074 8.85 15.954 9.378 15.714C9.906 15.462 10.458 15.066 11.034 14.526L12.402 15.93C11.07 17.406 9.45 18.144 7.542 18.144C5.646 18.144 4.068 17.532 2.808 16.308C1.56 15.084 0.936 13.536 0.936 11.664C0.936 9.792 1.572 8.232 2.844 6.984C4.128 5.736 5.742 5.112 7.686 5.112C9.642 5.112 11.274 5.832 12.582 7.272L11.232 8.748C10.632 8.172 10.062 7.77 9.522 7.542C8.994 7.314 8.37 7.2 7.65 7.2C6.378 7.2 5.31 7.614 4.446 8.442C3.582 9.258 3.15 10.308 3.15 11.592C3.15 12.864 3.576 13.932 4.428 14.796C5.292 15.648 6.312 16.074 7.488 16.074ZM22.5699 18H20.7339V16.722C19.9419 17.67 18.8799 18.144 17.5479 18.144C16.5519 18.144 15.7239 17.862 15.0639 17.298C14.4159 16.734 14.0919 15.984 14.0919 15.048C14.0919 14.1 14.4399 13.392 15.1359 12.924C15.8319 12.456 16.7739 12.222 17.9619 12.222H20.5719V11.862C20.5719 10.59 19.8639 9.954 18.4479 9.954C17.5599 9.954 16.6359 10.278 15.6759 10.926L14.7759 9.666C15.9399 8.742 17.2599 8.28 18.7359 8.28C19.8639 8.28 20.7819 8.568 21.4899 9.144C22.2099 9.708 22.5699 10.602 22.5699 11.826V18ZM20.5539 14.436V13.626H18.2859C16.8339 13.626 16.1079 14.082 16.1079 14.994C16.1079 15.462 16.2879 15.822 16.6479 16.074C17.0079 16.314 17.5059 16.434 18.1419 16.434C18.7899 16.434 19.3539 16.254 19.8339 15.894C20.3139 15.534 20.5539 15.048 20.5539 14.436ZM27.8549 10.044V14.904C27.8549 15.36 27.9749 15.726 28.2149 16.002C28.4549 16.266 28.7909 16.398 29.2229 16.398C29.6549 16.398 30.0689 16.188 30.4649 15.768L31.2929 17.19C30.5849 17.826 29.7989 18.144 28.9349 18.144C28.0829 18.144 27.3509 17.85 26.7389 17.262C26.1389 16.662 25.8389 15.858 25.8389 14.85V10.044H24.6329V8.424H25.8389V5.418H27.8549V8.424H30.3749V10.044H27.8549ZM41.9043 14.094H34.3983C34.4463 14.79 34.7643 15.354 35.3523 15.786C35.9403 16.206 36.6123 16.416 37.3683 16.416C38.5683 16.416 39.4803 16.038 40.1043 15.282L41.2563 16.542C40.2243 17.61 38.8803 18.144 37.2243 18.144C35.8803 18.144 34.7343 17.7 33.7863 16.812C32.8503 15.912 32.3823 14.712 32.3823 13.212C32.3823 11.7 32.8623 10.5 33.8223 9.612C34.7823 8.724 35.9103 8.28 37.2063 8.28C38.5143 8.28 39.6243 8.676 40.5363 9.468C41.4483 10.248 41.9043 11.328 41.9043 12.708V14.094ZM34.3983 12.51H39.8883C39.8883 11.706 39.6363 11.088 39.1323 10.656C38.6283 10.224 38.0043 10.008 37.2603 10.008C36.5283 10.008 35.8683 10.236 35.2803 10.692C34.6923 11.136 34.3983 11.742 34.3983 12.51ZM53.0773 8.424V16.776C53.0773 18.468 52.6153 19.734 51.6913 20.574C50.7793 21.426 49.6033 21.852 48.1633 21.852C46.7233 21.852 45.4213 21.402 44.2573 20.502L45.2113 18.972C46.1473 19.68 47.0893 20.034 48.0373 20.034C48.9973 20.034 49.7533 19.788 50.3053 19.296C50.8693 18.804 51.1513 18.018 51.1513 16.938V15.714C50.8513 16.278 50.4193 16.728 49.8553 17.064C49.3033 17.4 48.6793 17.568 47.9833 17.568C46.7113 17.568 45.6673 17.124 44.8513 16.236C44.0353 15.348 43.6273 14.244 43.6273 12.924C43.6273 11.604 44.0353 10.5 44.8513 9.612C45.6673 8.724 46.7053 8.28 47.9653 8.28C49.2373 8.28 50.2693 8.802 51.0613 9.846V8.424H53.0773ZM45.6073 12.852C45.6073 13.632 45.8473 14.31 46.3273 14.886C46.8193 15.45 47.4733 15.732 48.2893 15.732C49.1173 15.732 49.7833 15.456 50.2873 14.904C50.8033 14.352 51.0613 13.668 51.0613 12.852C51.0613 12.024 50.8033 11.328 50.2873 10.764C49.7713 10.188 49.1053 9.9 48.2893 9.9C47.4733 9.9 46.8193 10.194 46.3273 10.782C45.8473 11.37 45.6073 12.06 45.6073 12.852ZM58.3306 15.48C58.9066 16.056 59.6326 16.344 60.5086 16.344C61.3846 16.344 62.1046 16.056 62.6686 15.48C63.2446 14.892 63.5326 14.136 63.5326 13.212C63.5326 12.288 63.2446 11.538 62.6686 10.962C62.1046 10.374 61.3846 10.08 60.5086 10.08C59.6326 10.08 58.9066 10.374 58.3306 10.962C57.7666 11.538 57.4846 12.288 57.4846 13.212C57.4846 14.136 57.7666 14.892 58.3306 15.48ZM64.1086 16.722C63.1486 17.67 61.9486 18.144 60.5086 18.144C59.0686 18.144 57.8686 17.67 56.9086 16.722C55.9486 15.762 55.4686 14.592 55.4686 13.212C55.4686 11.832 55.9486 10.668 56.9086 9.72C57.8686 8.76 59.0686 8.28 60.5086 8.28C61.9486 8.28 63.1486 8.76 64.1086 9.72C65.0686 10.668 65.5486 11.832 65.5486 13.212C65.5486 14.592 65.0686 15.762 64.1086 16.722ZM72.9628 10.314C71.9668 10.314 71.2168 10.638 70.7128 11.286C70.2088 11.934 69.9568 12.804 69.9568 13.896V18H67.9408V8.424H69.9568V10.35C70.2808 9.75 70.7188 9.258 71.2708 8.874C71.8348 8.49 72.4288 8.292 73.0528 8.28L73.0708 10.314C73.0348 10.314 72.9988 10.314 72.9628 10.314ZM77.2111 18H75.1951V8.424H77.2111V18ZM75.3211 6.516C75.0691 6.264 74.9431 5.964 74.9431 5.616C74.9431 5.268 75.0691 4.968 75.3211 4.716C75.5731 4.464 75.8731 4.338 76.2211 4.338C76.5691 4.338 76.8691 4.464 77.1211 4.716C77.3731 4.968 77.4991 5.268 77.4991 5.616C77.4991 5.964 77.3731 6.264 77.1211 6.516C76.8691 6.768 76.5691 6.894 76.2211 6.894C75.8731 6.894 75.5731 6.768 75.3211 6.516ZM89.1446 14.094H81.6386C81.6866 14.79 82.0046 15.354 82.5926 15.786C83.1806 16.206 83.8526 16.416 84.6086 16.416C85.8086 16.416 86.7206 16.038 87.3446 15.282L88.4966 16.542C87.4646 17.61 86.1206 18.144 84.4646 18.144C83.1206 18.144 81.9746 17.7 81.0266 16.812C80.0906 15.912 79.6226 14.712 79.6226 13.212C79.6226 11.7 80.1026 10.5 81.0626 9.612C82.0226 8.724 83.1506 8.28 84.4466 8.28C85.7546 8.28 86.8646 8.676 87.7766 9.468C88.6886 10.248 89.1446 11.328 89.1446 12.708V14.094ZM81.6386 12.51H87.1286C87.1286 11.706 86.8766 11.088 86.3726 10.656C85.8686 10.224 85.2446 10.008 84.5006 10.008C83.7686 10.008 83.1086 10.236 82.5206 10.692C81.9326 11.136 81.6386 11.742 81.6386 12.51ZM98.2835 15.138C98.2835 16.05 97.9535 16.782 97.2935 17.334C96.6335 17.874 95.7875 18.144 94.7555 18.144C94.0595 18.144 93.3335 18.018 92.5775 17.766C91.8335 17.514 91.1735 17.16 90.5975 16.704L91.5695 15.138C92.6855 15.978 93.7655 16.398 94.8095 16.398C95.2655 16.398 95.6255 16.296 95.8895 16.092C96.1535 15.876 96.2855 15.606 96.2855 15.282C96.2855 14.802 95.6495 14.37 94.3775 13.986C94.2815 13.95 94.2095 13.926 94.1615 13.914C92.1695 13.374 91.1735 12.474 91.1735 11.214C91.1735 10.326 91.5155 9.618 92.1995 9.09C92.8955 8.55 93.7955 8.28 94.8995 8.28C96.0035 8.28 97.0475 8.604 98.0315 9.252L97.2755 10.746C96.4955 10.23 95.6495 9.972 94.7375 9.972C94.2575 9.972 93.8675 10.062 93.5675 10.242C93.2675 10.41 93.1175 10.668 93.1175 11.016C93.1175 11.328 93.2735 11.556 93.5855 11.7C93.8015 11.808 94.1015 11.91 94.4855 12.006C94.8815 12.102 95.2295 12.198 95.5295 12.294C95.8295 12.39 96.1175 12.498 96.3935 12.618C96.6815 12.738 96.9875 12.906 97.3115 13.122C97.9595 13.554 98.2835 14.226 98.2835 15.138ZM110.314 10.26L108.604 9.108L108.748 11.16H107.524L107.668 9.09L105.958 10.242L105.346 9.198L107.182 8.28L105.346 7.38L105.958 6.318L107.65 7.452L107.524 5.418H108.748L108.622 7.452L110.314 6.336L110.926 7.38L109.072 8.28L110.926 9.198L110.314 10.26Z" fill="#252B42"/>
<g clip-path="url(#clip0_688_2403)">
<g clip-path="url(#clip1_688_2403)">
<rect x="0.5" y="37.5" width="450" height="49" rx="4.5" fill="#F9F9F9"/>
<rect x="0.5" y="37.5" width="450" height="49" rx="4.5" stroke="#DDDDDD"/>
<path d="M22.312 58.502C21.836 58.502 21.444 58.6 21.136 58.796C20.828 58.992 20.674 59.2907 20.674 59.692C20.674 60.084 20.828 60.3873 21.136 60.602C21.444 60.8073 22.0973 61.0313 23.096 61.274C24.104 61.5167 24.86 61.8573 25.364 62.296C25.8773 62.7347 26.134 63.3833 26.134 64.242C26.134 65.0913 25.812 65.782 25.168 66.314C24.524 66.846 23.6793 67.112 22.634 67.112C21.1033 67.112 19.7453 66.5847 18.56 65.53L19.596 64.284C20.5853 65.1427 21.612 65.572 22.676 65.572C23.208 65.572 23.628 65.46 23.936 65.236C24.2533 65.0027 24.412 64.6993 24.412 64.326C24.412 63.9433 24.2627 63.6493 23.964 63.444C23.6747 63.2293 23.1707 63.038 22.452 62.87C21.7333 62.6927 21.1873 62.534 20.814 62.394C20.4407 62.2447 20.1093 62.0533 19.82 61.82C19.2413 61.3813 18.952 60.7093 18.952 59.804C18.952 58.8987 19.2787 58.2033 19.932 57.718C20.5947 57.2233 21.4113 56.976 22.382 56.976C23.0073 56.976 23.628 57.0787 24.244 57.284C24.86 57.4893 25.392 57.7787 25.84 58.152L24.958 59.398C24.6687 59.1367 24.2767 58.922 23.782 58.754C23.2873 58.586 22.7973 58.502 22.312 58.502ZM35.0824 63.962H29.2444C29.2817 64.5033 29.529 64.942 29.9864 65.278C30.4437 65.6047 30.9664 65.768 31.5544 65.768C32.4877 65.768 33.197 65.474 33.6824 64.886L34.5784 65.866C33.7757 66.6967 32.7304 67.112 31.4424 67.112C30.397 67.112 29.5057 66.7667 28.7684 66.076C28.0404 65.376 27.6764 64.4427 27.6764 63.276C27.6764 62.1 28.0497 61.1667 28.7964 60.476C29.543 59.7853 30.4204 59.44 31.4284 59.44C32.4457 59.44 33.309 59.748 34.0184 60.364C34.7277 60.9707 35.0824 61.8107 35.0824 62.884V63.962ZM29.2444 62.73H33.5144C33.5144 62.1047 33.3184 61.624 32.9264 61.288C32.5344 60.952 32.049 60.784 31.4704 60.784C30.901 60.784 30.3877 60.9613 29.9304 61.316C29.473 61.6613 29.2444 62.1327 29.2444 62.73ZM38.5747 67H37.0067V56.612H38.5747V67ZM47.9785 63.962H42.1405C42.1778 64.5033 42.4251 64.942 42.8825 65.278C43.3398 65.6047 43.8625 65.768 44.4505 65.768C45.3838 65.768 46.0931 65.474 46.5785 64.886L47.4745 65.866C46.6718 66.6967 45.6265 67.112 44.3385 67.112C43.2931 67.112 42.4018 66.7667 41.6645 66.076C40.9365 65.376 40.5725 64.4427 40.5725 63.276C40.5725 62.1 40.9458 61.1667 41.6925 60.476C42.4391 59.7853 43.3165 59.44 44.3245 59.44C45.3418 59.44 46.2051 59.748 46.9145 60.364C47.6238 60.9707 47.9785 61.8107 47.9785 62.884V63.962ZM42.1405 62.73H46.4105C46.4105 62.1047 46.2145 61.624 45.8225 61.288C45.4305 60.952 44.9451 60.784 44.3665 60.784C43.7971 60.784 43.2838 60.9613 42.8265 61.316C42.3691 61.6613 42.1405 62.1327 42.1405 62.73ZM53.2067 67.112C52.1707 67.112 51.2794 66.762 50.5327 66.062C49.7861 65.3527 49.4127 64.4287 49.4127 63.29C49.4127 62.1513 49.8001 61.2273 50.5747 60.518C51.3587 59.7993 52.3107 59.44 53.4307 59.44C54.5507 59.44 55.4981 59.8273 56.2727 60.602L55.3487 61.736C54.7047 61.176 54.0561 60.896 53.4027 60.896C52.7494 60.896 52.1801 61.1153 51.6947 61.554C51.2187 61.9833 50.9807 62.5433 50.9807 63.234C50.9807 63.9153 51.2187 64.494 51.6947 64.97C52.1707 65.446 52.7541 65.684 53.4447 65.684C54.1447 65.684 54.8027 65.3667 55.4187 64.732L56.3427 65.74C55.4374 66.6547 54.3921 67.112 53.2067 67.112ZM60.1012 60.812V64.592C60.1012 64.9467 60.1945 65.2313 60.3812 65.446C60.5678 65.6513 60.8292 65.754 61.1652 65.754C61.5012 65.754 61.8232 65.5907 62.1312 65.264L62.7752 66.37C62.2245 66.8647 61.6132 67.112 60.9412 67.112C60.2785 67.112 59.7092 66.8833 59.2332 66.426C58.7665 65.9593 58.5332 65.334 58.5332 64.55V60.812H57.5952V59.552H58.5332V57.214H60.1012V59.552H62.0612V60.812H60.1012Z" fill="#737373"/>
<path d="M409.992 57.9995L414.992 62.9995L419.992 57.9995L421.992 58.9995L414.992 65.9995L407.992 58.9995L409.992 57.9995Z" fill="#737373"/>
</g>
</g>
<path d="M6.992 109.716C7.48 109.716 7.9 109.636 8.252 109.476C8.604 109.308 8.972 109.044 9.356 108.684L10.268 109.62C9.38 110.604 8.3 111.096 7.028 111.096C5.764 111.096 4.712 110.688 3.872 109.872C3.04 109.056 2.624 108.024 2.624 106.776C2.624 105.528 3.048 104.488 3.896 103.656C4.752 102.824 5.828 102.408 7.124 102.408C8.428 102.408 9.516 102.888 10.388 103.848L9.488 104.832C9.088 104.448 8.708 104.18 8.348 104.028C7.996 103.876 7.58 103.8 7.1 103.8C6.252 103.8 5.54 104.076 4.964 104.628C4.388 105.172 4.1 105.872 4.1 106.728C4.1 107.576 4.384 108.288 4.952 108.864C5.528 109.432 6.208 109.716 6.992 109.716ZM13.3519 107.544V111H12.0079V102.108H13.3519V105.78C13.5439 105.388 13.8319 105.08 14.2159 104.856C14.6079 104.632 15.0279 104.52 15.4759 104.52C16.1959 104.52 16.7759 104.74 17.2159 105.18C17.6639 105.62 17.8879 106.256 17.8879 107.088V111H16.5439V107.496C16.5439 106.32 16.0559 105.732 15.0799 105.732C14.6159 105.732 14.2119 105.888 13.8679 106.2C13.5239 106.504 13.3519 106.952 13.3519 107.544ZM21.4537 109.32C21.8377 109.704 22.3217 109.896 22.9057 109.896C23.4897 109.896 23.9697 109.704 24.3457 109.32C24.7297 108.928 24.9217 108.424 24.9217 107.808C24.9217 107.192 24.7297 106.692 24.3457 106.308C23.9697 105.916 23.4897 105.72 22.9057 105.72C22.3217 105.72 21.8377 105.916 21.4537 106.308C21.0777 106.692 20.8897 107.192 20.8897 107.808C20.8897 108.424 21.0777 108.928 21.4537 109.32ZM25.3057 110.148C24.6657 110.78 23.8657 111.096 22.9057 111.096C21.9457 111.096 21.1457 110.78 20.5057 110.148C19.8657 109.508 19.5457 108.728 19.5457 107.808C19.5457 106.888 19.8657 106.112 20.5057 105.48C21.1457 104.84 21.9457 104.52 22.9057 104.52C23.8657 104.52 24.6657 104.84 25.3057 105.48C25.9457 106.112 26.2657 106.888 26.2657 107.808C26.2657 108.728 25.9457 109.508 25.3057 110.148ZM29.4819 109.32C29.8659 109.704 30.3499 109.896 30.9339 109.896C31.5179 109.896 31.9979 109.704 32.3739 109.32C32.7579 108.928 32.9499 108.424 32.9499 107.808C32.9499 107.192 32.7579 106.692 32.3739 106.308C31.9979 105.916 31.5179 105.72 30.9339 105.72C30.3499 105.72 29.8659 105.916 29.4819 106.308C29.1059 106.692 28.9179 107.192 28.9179 107.808C28.9179 108.424 29.1059 108.928 29.4819 109.32ZM33.3339 110.148C32.6939 110.78 31.8939 111.096 30.9339 111.096C29.9739 111.096 29.1739 110.78 28.5339 110.148C27.8939 109.508 27.5739 108.728 27.5739 107.808C27.5739 106.888 27.8939 106.112 28.5339 105.48C29.1739 104.84 29.9739 104.52 30.9339 104.52C31.8939 104.52 32.6939 104.84 33.3339 105.48C33.9739 106.112 34.2939 106.888 34.2939 107.808C34.2939 108.728 33.9739 109.508 33.3339 110.148ZM40.57 109.092C40.57 109.7 40.35 110.188 39.91 110.556C39.47 110.916 38.906 111.096 38.218 111.096C37.754 111.096 37.27 111.012 36.766 110.844C36.27 110.676 35.83 110.44 35.446 110.136L36.094 109.092C36.838 109.652 37.558 109.932 38.254 109.932C38.558 109.932 38.798 109.864 38.974 109.728C39.15 109.584 39.238 109.404 39.238 109.188C39.238 108.868 38.814 108.58 37.966 108.324C37.902 108.3 37.854 108.284 37.822 108.276C36.494 107.916 35.83 107.316 35.83 106.476C35.83 105.884 36.058 105.412 36.514 105.06C36.978 104.7 37.578 104.52 38.314 104.52C39.05 104.52 39.746 104.736 40.402 105.168L39.898 106.164C39.378 105.82 38.814 105.648 38.206 105.648C37.886 105.648 37.626 105.708 37.426 105.828C37.226 105.94 37.126 106.112 37.126 106.344C37.126 106.552 37.23 106.704 37.438 106.8C37.582 106.872 37.782 106.94 38.038 107.004C38.302 107.068 38.534 107.132 38.734 107.196C38.934 107.26 39.126 107.332 39.31 107.412C39.502 107.492 39.706 107.604 39.922 107.748C40.354 108.036 40.57 108.484 40.57 109.092ZM48.2323 108.396H43.2283C43.2603 108.86 43.4723 109.236 43.8643 109.524C44.2563 109.804 44.7043 109.944 45.2083 109.944C46.0083 109.944 46.6163 109.692 47.0323 109.188L47.8003 110.028C47.1123 110.74 46.2163 111.096 45.1123 111.096C44.2163 111.096 43.4523 110.8 42.8203 110.208C42.1963 109.608 41.8843 108.808 41.8843 107.808C41.8843 106.8 42.2043 106 42.8443 105.408C43.4843 104.816 44.2363 104.52 45.1003 104.52C45.9723 104.52 46.7123 104.784 47.3203 105.312C47.9283 105.832 48.2323 106.552 48.2323 107.472V108.396ZM43.2283 107.34H46.8883C46.8883 106.804 46.7203 106.392 46.3843 106.104C46.0483 105.816 45.6323 105.672 45.1363 105.672C44.6483 105.672 44.2083 105.824 43.8163 106.128C43.4243 106.424 43.2283 106.828 43.2283 107.34ZM55.0593 104.088V104.616H56.7393V105.696H55.0593V111H53.7153V105.696H52.9113V104.616H53.7153V104.124C53.7153 103.452 53.9153 102.92 54.3153 102.528C54.7233 102.128 55.2113 101.928 55.7793 101.928C56.3553 101.928 56.8793 102.14 57.3513 102.564L56.7993 103.512C56.5353 103.232 56.2593 103.092 55.9713 103.092C55.6833 103.092 55.4593 103.184 55.2993 103.368C55.1393 103.544 55.0593 103.784 55.0593 104.088ZM61.5802 105.876C60.9162 105.876 60.4162 106.092 60.0802 106.524C59.7442 106.956 59.5762 107.536 59.5762 108.264V111H58.2322V104.616H59.5762V105.9C59.7922 105.5 60.0842 105.172 60.4522 104.916C60.8282 104.66 61.2242 104.528 61.6402 104.52L61.6522 105.876C61.6282 105.876 61.6042 105.876 61.5802 105.876ZM64.5725 109.32C64.9565 109.704 65.4405 109.896 66.0245 109.896C66.6085 109.896 67.0885 109.704 67.4645 109.32C67.8485 108.928 68.0405 108.424 68.0405 107.808C68.0405 107.192 67.8485 106.692 67.4645 106.308C67.0885 105.916 66.6085 105.72 66.0245 105.72C65.4405 105.72 64.9565 105.916 64.5725 106.308C64.1965 106.692 64.0085 107.192 64.0085 107.808C64.0085 108.424 64.1965 108.928 64.5725 109.32ZM68.4245 110.148C67.7845 110.78 66.9845 111.096 66.0245 111.096C65.0645 111.096 64.2645 110.78 63.6245 110.148C62.9845 109.508 62.6645 108.728 62.6645 107.808C62.6645 106.888 62.9845 106.112 63.6245 105.48C64.2645 104.84 65.0645 104.52 66.0245 104.52C66.9845 104.52 67.7845 104.84 68.4245 105.48C69.0645 106.112 69.3845 106.888 69.3845 107.808C69.3845 108.728 69.0645 109.508 68.4245 110.148ZM72.4566 107.544V111H71.1126V104.616H72.4566V105.78C72.6486 105.388 72.9366 105.08 73.3206 104.856C73.7126 104.632 74.1326 104.52 74.5806 104.52C75.5886 104.52 76.2726 104.936 76.6326 105.768C77.2646 104.936 78.0526 104.52 78.9966 104.52C79.7166 104.52 80.2966 104.74 80.7366 105.18C81.1846 105.62 81.4086 106.256 81.4086 107.088V111H80.0646V107.496C80.0646 106.32 79.5766 105.732 78.6006 105.732C78.1446 105.732 77.7446 105.88 77.4006 106.176C77.0646 106.464 76.8886 106.888 76.8726 107.448V111H75.5286V107.496C75.5286 106.888 75.4206 106.444 75.2046 106.164C74.9886 105.876 74.6486 105.732 74.1846 105.732C73.7206 105.732 73.3166 105.888 72.9726 106.2C72.6286 106.504 72.4566 106.952 72.4566 107.544ZM88.6257 105.696V108.936C88.6257 109.24 88.7057 109.484 88.8657 109.668C89.0257 109.844 89.2497 109.932 89.5377 109.932C89.8257 109.932 90.1017 109.792 90.3657 109.512L90.9177 110.46C90.4457 110.884 89.9217 111.096 89.3457 111.096C88.7777 111.096 88.2897 110.9 87.8817 110.508C87.4817 110.108 87.2817 109.572 87.2817 108.9V105.696H86.4777V104.616H87.2817V102.612H88.6257V104.616H90.3057V105.696H88.6257ZM93.5293 107.544V111H92.1853V102.108H93.5293V105.78C93.7213 105.388 94.0093 105.08 94.3933 104.856C94.7853 104.632 95.2053 104.52 95.6533 104.52C96.3733 104.52 96.9533 104.74 97.3933 105.18C97.8413 105.62 98.0653 106.256 98.0653 107.088V111H96.7213V107.496C96.7213 106.32 96.2333 105.732 95.2573 105.732C94.7933 105.732 94.3893 105.888 94.0453 106.2C93.7013 106.504 93.5293 106.952 93.5293 107.544ZM106.083 108.396H101.079C101.111 108.86 101.323 109.236 101.715 109.524C102.107 109.804 102.555 109.944 103.059 109.944C103.859 109.944 104.467 109.692 104.883 109.188L105.651 110.028C104.963 110.74 104.067 111.096 102.963 111.096C102.067 111.096 101.303 110.8 100.671 110.208C100.047 109.608 99.7351 108.808 99.7351 107.808C99.7351 106.8 100.055 106 100.695 105.408C101.335 104.816 102.087 104.52 102.951 104.52C103.823 104.52 104.563 104.784 105.171 105.312C105.779 105.832 106.083 106.552 106.083 107.472V108.396ZM101.079 107.34H104.739C104.739 106.804 104.571 106.392 104.235 106.104C103.899 105.816 103.483 105.672 102.987 105.672C102.499 105.672 102.059 105.824 101.667 106.128C101.275 106.424 101.079 106.828 101.079 107.34ZM112.598 111H111.254V102.096H112.598V111ZM116.091 111H114.747V104.616H116.091V111ZM114.831 103.344C114.663 103.176 114.579 102.976 114.579 102.744C114.579 102.512 114.663 102.312 114.831 102.144C114.999 101.976 115.199 101.892 115.431 101.892C115.663 101.892 115.863 101.976 116.031 102.144C116.199 102.312 116.283 102.512 116.283 102.744C116.283 102.976 116.199 103.176 116.031 103.344C115.863 103.512 115.663 103.596 115.431 103.596C115.199 103.596 114.999 103.512 114.831 103.344ZM122.788 109.092C122.788 109.7 122.568 110.188 122.128 110.556C121.688 110.916 121.124 111.096 120.436 111.096C119.972 111.096 119.488 111.012 118.984 110.844C118.488 110.676 118.048 110.44 117.664 110.136L118.312 109.092C119.056 109.652 119.776 109.932 120.472 109.932C120.776 109.932 121.016 109.864 121.192 109.728C121.368 109.584 121.456 109.404 121.456 109.188C121.456 108.868 121.032 108.58 120.184 108.324C120.12 108.3 120.072 108.284 120.04 108.276C118.712 107.916 118.048 107.316 118.048 106.476C118.048 105.884 118.276 105.412 118.732 105.06C119.196 104.7 119.796 104.52 120.532 104.52C121.268 104.52 121.964 104.736 122.62 105.168L122.116 106.164C121.596 105.82 121.032 105.648 120.424 105.648C120.104 105.648 119.844 105.708 119.644 105.828C119.444 105.94 119.344 106.112 119.344 106.344C119.344 106.552 119.448 106.704 119.656 106.8C119.8 106.872 120 106.94 120.256 107.004C120.52 107.068 120.752 107.132 120.952 107.196C121.152 107.26 121.344 107.332 121.528 107.412C121.72 107.492 121.924 107.604 122.14 107.748C122.572 108.036 122.788 108.484 122.788 109.092ZM126.166 105.696V108.936C126.166 109.24 126.246 109.484 126.406 109.668C126.566 109.844 126.79 109.932 127.078 109.932C127.366 109.932 127.642 109.792 127.906 109.512L128.458 110.46C127.986 110.884 127.462 111.096 126.886 111.096C126.318 111.096 125.83 110.9 125.422 110.508C125.022 110.108 124.822 109.572 124.822 108.9V105.696H124.018V104.616H124.822V102.612H126.166V104.616H127.846V105.696H126.166ZM129.798 110.832C129.63 110.656 129.546 110.444 129.546 110.196C129.546 109.948 129.63 109.74 129.798 109.572C129.974 109.396 130.186 109.308 130.434 109.308C130.682 109.308 130.894 109.396 131.07 109.572C131.246 109.74 131.334 109.948 131.334 110.196C131.334 110.444 131.246 110.656 131.07 110.832C130.894 111.008 130.682 111.096 130.434 111.096C130.186 111.096 129.974 111.008 129.798 110.832Z" fill="#737373"/>
<defs>
<clipPath id="clip0_688_2403">
<rect width="451" height="50" fill="white" transform="translate(0 37)"/>
</clipPath>
<clipPath id="clip1_688_2403">
<rect width="451" height="50" fill="white" transform="translate(0 37)"/>
</clipPath>
</defs>
</svg>
