<svg width="452" height="125" viewBox="0 0 452 125" fill="none" xmlns="http://www.w3.org/2000/svg">
<path d="M10.584 5.418V7.416H3.87V10.746H9.9V12.636H3.87V16.002H10.8V18H1.746V5.418H10.584ZM15.3513 12.816V18H13.3353V8.424H15.3513V10.17C15.6393 9.582 16.0713 9.12 16.6473 8.784C17.2353 8.448 17.8653 8.28 18.5373 8.28C20.0493 8.28 21.0753 8.904 21.6153 10.152C22.5633 8.904 23.7453 8.28 25.1613 8.28C26.2413 8.28 27.1113 8.61 27.7713 9.27C28.4433 9.93 28.7793 10.884 28.7793 12.132V18H26.7633V12.744C26.7633 10.98 26.0313 10.098 24.5673 10.098C23.8833 10.098 23.2833 10.32 22.7673 10.764C22.2633 11.196 21.9993 11.832 21.9753 12.672V18H19.9593V12.744C19.9593 11.832 19.7973 11.166 19.4733 10.746C19.1493 10.314 18.6393 10.098 17.9433 10.098C17.2473 10.098 16.6413 10.332 16.1253 10.8C15.6093 11.256 15.3513 11.928 15.3513 12.816ZM39.4394 18H37.6034V16.722C36.8114 17.67 35.7494 18.144 34.4174 18.144C33.4214 18.144 32.5934 17.862 31.9334 17.298C31.2854 16.734 30.9614 15.984 30.9614 15.048C30.9614 14.1 31.3094 13.392 32.0054 12.924C32.7014 12.456 33.6434 12.222 34.8314 12.222H37.4414V11.862C37.4414 10.59 36.7334 9.954 35.3174 9.954C34.4294 9.954 33.5054 10.278 32.5454 10.926L31.6454 9.666C32.8094 8.742 34.1294 8.28 35.6054 8.28C36.7334 8.28 37.6514 8.568 38.3594 9.144C39.0794 9.708 39.4394 10.602 39.4394 11.826V18ZM37.4234 14.436V13.626H35.1554C33.7034 13.626 32.9774 14.082 32.9774 14.994C32.9774 15.462 33.1574 15.822 33.5174 16.074C33.8774 16.314 34.3754 16.434 35.0114 16.434C35.6594 16.434 36.2234 16.254 36.7034 15.894C37.1834 15.534 37.4234 15.048 37.4234 14.436ZM44.3619 18H42.3459V8.424H44.3619V18ZM42.4719 6.516C42.2199 6.264 42.0939 5.964 42.0939 5.616C42.0939 5.268 42.2199 4.968 42.4719 4.716C42.7239 4.464 43.0239 4.338 43.3719 4.338C43.7199 4.338 44.0199 4.464 44.2719 4.716C44.5239 4.968 44.6499 5.268 44.6499 5.616C44.6499 5.964 44.5239 6.264 44.2719 6.516C44.0199 6.768 43.7199 6.894 43.3719 6.894C43.0239 6.894 42.7239 6.768 42.4719 6.516ZM49.4013 18H47.3853V4.644H49.4013V18ZM65.2222 18H63.3862V16.722C62.5942 17.67 61.5322 18.144 60.2002 18.144C59.2042 18.144 58.3762 17.862 57.7162 17.298C57.0682 16.734 56.7442 15.984 56.7442 15.048C56.7442 14.1 57.0922 13.392 57.7882 12.924C58.4842 12.456 59.4262 12.222 60.6142 12.222H63.2242V11.862C63.2242 10.59 62.5162 9.954 61.1002 9.954C60.2122 9.954 59.2882 10.278 58.3282 10.926L57.4282 9.666C58.5922 8.742 59.9122 8.28 61.3882 8.28C62.5162 8.28 63.4342 8.568 64.1422 9.144C64.8622 9.708 65.2222 10.602 65.2222 11.826V18ZM63.2062 14.436V13.626H60.9382C59.4862 13.626 58.7602 14.082 58.7602 14.994C58.7602 15.462 58.9402 15.822 59.3002 16.074C59.6602 16.314 60.1582 16.434 60.7942 16.434C61.4422 16.434 62.0062 16.254 62.4862 15.894C62.9662 15.534 63.2062 15.048 63.2062 14.436ZM72.0347 18.144C70.8227 18.144 69.7667 17.688 68.8667 16.776C67.9667 15.864 67.5167 14.664 67.5167 13.176C67.5167 11.688 67.9787 10.5 68.9027 9.612C69.8267 8.724 70.9247 8.28 72.1967 8.28C73.4807 8.28 74.5127 8.82 75.2927 9.9V4.644H77.3087V18H75.2927V16.56C74.5487 17.616 73.4627 18.144 72.0347 18.144ZM69.5327 13.266C69.5327 14.178 69.8267 14.922 70.4147 15.498C71.0027 16.074 71.6927 16.362 72.4847 16.362C73.2767 16.362 73.9487 16.074 74.5007 15.498C75.0527 14.91 75.3287 14.16 75.3287 13.248C75.3287 12.336 75.0527 11.574 74.5007 10.962C73.9487 10.35 73.2707 10.044 72.4667 10.044C71.6627 10.044 70.9727 10.35 70.3967 10.962C69.8207 11.574 69.5327 12.342 69.5327 13.266ZM84.2285 18.144C83.0165 18.144 81.9605 17.688 81.0605 16.776C80.1605 15.864 79.7105 14.664 79.7105 13.176C79.7105 11.688 80.1725 10.5 81.0965 9.612C82.0205 8.724 83.1185 8.28 84.3905 8.28C85.6745 8.28 86.7065 8.82 87.4865 9.9V4.644H89.5025V18H87.4865V16.56C86.7425 17.616 85.6565 18.144 84.2285 18.144ZM81.7265 13.266C81.7265 14.178 82.0205 14.922 82.6085 15.498C83.1965 16.074 83.8865 16.362 84.6785 16.362C85.4705 16.362 86.1425 16.074 86.6945 15.498C87.2465 14.91 87.5225 14.16 87.5225 13.248C87.5225 12.336 87.2465 11.574 86.6945 10.962C86.1425 10.35 85.4645 10.044 84.6605 10.044C83.8565 10.044 83.1665 10.35 82.5905 10.962C82.0145 11.574 81.7265 12.342 81.7265 13.266ZM97.5382 10.314C96.5422 10.314 95.7922 10.638 95.2882 11.286C94.7842 11.934 94.5322 12.804 94.5322 13.896V18H92.5162V8.424H94.5322V10.35C94.8562 9.75 95.2942 9.258 95.8462 8.874C96.4102 8.49 97.0042 8.292 97.6282 8.28L97.6462 10.314C97.6102 10.314 97.5742 10.314 97.5382 10.314ZM108.681 14.094H101.175C101.223 14.79 101.541 15.354 102.129 15.786C102.717 16.206 103.389 16.416 104.145 16.416C105.345 16.416 106.257 16.038 106.881 15.282L108.033 16.542C107.001 17.61 105.657 18.144 104.001 18.144C102.657 18.144 101.511 17.7 100.562 16.812C99.6265 15.912 99.1585 14.712 99.1585 13.212C99.1585 11.7 99.6385 10.5 100.599 9.612C101.559 8.724 102.687 8.28 103.983 8.28C105.291 8.28 106.401 8.676 107.312 9.468C108.225 10.248 108.681 11.328 108.681 12.708V14.094ZM101.175 12.51H106.665C106.665 11.706 106.413 11.088 105.909 10.656C105.405 10.224 104.781 10.008 104.037 10.008C103.305 10.008 102.645 10.236 102.057 10.692C101.469 11.136 101.175 11.742 101.175 12.51ZM117.819 15.138C117.819 16.05 117.489 16.782 116.829 17.334C116.169 17.874 115.323 18.144 114.291 18.144C113.595 18.144 112.869 18.018 112.113 17.766C111.369 17.514 110.709 17.16 110.133 16.704L111.105 15.138C112.221 15.978 113.301 16.398 114.345 16.398C114.801 16.398 115.161 16.296 115.425 16.092C115.689 15.876 115.821 15.606 115.821 15.282C115.821 14.802 115.185 14.37 113.913 13.986C113.817 13.95 113.745 13.926 113.697 13.914C111.705 13.374 110.709 12.474 110.709 11.214C110.709 10.326 111.051 9.618 111.735 9.09C112.431 8.55 113.331 8.28 114.435 8.28C115.539 8.28 116.583 8.604 117.567 9.252L116.811 10.746C116.031 10.23 115.185 9.972 114.273 9.972C113.793 9.972 113.403 10.062 113.103 10.242C112.803 10.41 112.653 10.668 112.653 11.016C112.653 11.328 112.809 11.556 113.121 11.7C113.337 11.808 113.637 11.91 114.021 12.006C114.417 12.102 114.765 12.198 115.065 12.294C115.365 12.39 115.653 12.498 115.929 12.618C116.217 12.738 116.523 12.906 116.847 13.122C117.495 13.554 117.819 14.226 117.819 15.138ZM127.025 15.138C127.025 16.05 126.695 16.782 126.035 17.334C125.375 17.874 124.529 18.144 123.497 18.144C122.801 18.144 122.075 18.018 121.319 17.766C120.575 17.514 119.915 17.16 119.339 16.704L120.311 15.138C121.427 15.978 122.507 16.398 123.551 16.398C124.007 16.398 124.367 16.296 124.631 16.092C124.895 15.876 125.027 15.606 125.027 15.282C125.027 14.802 124.391 14.37 123.119 13.986C123.023 13.95 122.951 13.926 122.903 13.914C120.911 13.374 119.915 12.474 119.915 11.214C119.915 10.326 120.257 9.618 120.941 9.09C121.637 8.55 122.537 8.28 123.641 8.28C124.745 8.28 125.789 8.604 126.773 9.252L126.017 10.746C125.237 10.23 124.391 9.972 123.479 9.972C122.999 9.972 122.609 10.062 122.309 10.242C122.009 10.41 121.859 10.668 121.859 11.016C121.859 11.328 122.015 11.556 122.327 11.7C122.543 11.808 122.843 11.91 123.227 12.006C123.623 12.102 123.971 12.198 124.271 12.294C124.571 12.39 124.859 12.498 125.135 12.618C125.423 12.738 125.729 12.906 126.053 13.122C126.701 13.554 127.025 14.226 127.025 15.138ZM139.056 10.26L137.346 9.108L137.49 11.16H136.266L136.41 9.09L134.7 10.242L134.088 9.198L135.924 8.28L134.088 7.38L134.7 6.318L136.392 7.452L136.266 5.418H137.49L137.364 7.452L139.056 6.336L139.668 7.38L137.814 8.28L139.668 9.198L139.056 10.26Z" fill="#252B42"/>
<g clip-path="url(#clip0_688_2397)">
<rect x="2.5" y="41.5" width="449" height="49" rx="4.5" fill="#F9F9F9"/>
<rect x="2.5" y="41.5" width="449" height="49" rx="4.5" stroke="#E6E6E6"/>
<path d="M31.232 61.214V62.768H26.01V65.358H30.7V66.828H26.01V69.446H31.4V71H24.358V61.214H31.232ZM35.0622 66.968V71H33.4942V63.552H35.0622V64.91C35.2862 64.4527 35.6222 64.0933 36.0702 63.832C36.5275 63.5707 37.0175 63.44 37.5402 63.44C38.7162 63.44 39.5142 63.9253 39.9342 64.896C40.6715 63.9253 41.5908 63.44 42.6922 63.44C43.5322 63.44 44.2088 63.6967 44.7222 64.21C45.2448 64.7233 45.5062 65.4653 45.5062 66.436V71H43.9382V66.912C43.9382 65.54 43.3688 64.854 42.2302 64.854C41.6982 64.854 41.2315 65.0267 40.8302 65.372C40.4382 65.708 40.2328 66.2027 40.2142 66.856V71H38.6462V66.912C38.6462 66.2027 38.5202 65.6847 38.2682 65.358C38.0162 65.022 37.6195 64.854 37.0782 64.854C36.5368 64.854 36.0655 65.036 35.6642 65.4C35.2628 65.7547 35.0622 66.2773 35.0622 66.968ZM53.9196 71H52.4916V70.006C51.8756 70.7433 51.0496 71.112 50.0136 71.112C49.2389 71.112 48.5949 70.8927 48.0816 70.454C47.5776 70.0153 47.3256 69.432 47.3256 68.704C47.3256 67.9667 47.5962 67.416 48.1376 67.052C48.6789 66.688 49.4116 66.506 50.3356 66.506H52.3656V66.226C52.3656 65.2367 51.8149 64.742 50.7136 64.742C50.0229 64.742 49.3042 64.994 48.5576 65.498L47.8576 64.518C48.7629 63.7993 49.7896 63.44 50.9376 63.44C51.8149 63.44 52.5289 63.664 53.0796 64.112C53.6396 64.5507 53.9196 65.246 53.9196 66.198V71ZM52.3516 68.228V67.598H50.5876C49.4582 67.598 48.8936 67.9527 48.8936 68.662C48.8936 69.026 49.0336 69.306 49.3136 69.502C49.5936 69.6887 49.9809 69.782 50.4756 69.782C50.9796 69.782 51.4182 69.642 51.7916 69.362C52.1649 69.082 52.3516 68.704 52.3516 68.228ZM57.8704 71H56.3024V63.552H57.8704V71ZM56.4004 62.068C56.2044 61.872 56.1064 61.6387 56.1064 61.368C56.1064 61.0973 56.2044 60.864 56.4004 60.668C56.5964 60.472 56.8297 60.374 57.1004 60.374C57.371 60.374 57.6044 60.472 57.8004 60.668C57.9964 60.864 58.0944 61.0973 58.0944 61.368C58.0944 61.6387 57.9964 61.872 57.8004 62.068C57.6044 62.264 57.371 62.362 57.1004 62.362C56.8297 62.362 56.5964 62.264 56.4004 62.068ZM61.9122 71H60.3442V60.612H61.9122V71ZM72.0118 64.98L70.6818 64.084L70.7938 65.68H69.8418L69.9538 64.07L68.6238 64.966L68.1478 64.154L69.5758 63.44L68.1478 62.74L68.6238 61.914L69.9398 62.796L69.8418 61.214H70.7938L70.6958 62.796L72.0118 61.928L72.4878 62.74L71.0458 63.44L72.4878 64.154L72.0118 64.98Z" fill="#737373"/>
</g>
<path d="M5.78 112.648L7.652 106.612H8.924L10.796 112.648L12.908 106.612H14.432L11.504 115H10.1L8.336 109.252H8.24L6.476 115H5.072L2.144 106.612H3.668L5.78 112.648ZM21.6862 112.396H16.6822C16.7142 112.86 16.9262 113.236 17.3182 113.524C17.7102 113.804 18.1582 113.944 18.6622 113.944C19.4622 113.944 20.0702 113.692 20.4862 113.188L21.2542 114.028C20.5662 114.74 19.6702 115.096 18.5662 115.096C17.6702 115.096 16.9062 114.8 16.2742 114.208C15.6502 113.608 15.3382 112.808 15.3382 111.808C15.3382 110.8 15.6582 110 16.2982 109.408C16.9382 108.816 17.6902 108.52 18.5542 108.52C19.4262 108.52 20.1662 108.784 20.7742 109.312C21.3822 109.832 21.6862 110.552 21.6862 111.472V112.396ZM16.6822 111.34H20.3422C20.3422 110.804 20.1742 110.392 19.8382 110.104C19.5022 109.816 19.0862 109.672 18.5902 109.672C18.1022 109.672 17.6622 109.824 17.2702 110.128C16.8782 110.424 16.6822 110.828 16.6822 111.34ZM23.3162 109.564V106.612H24.2522V109.564H23.3162ZM27.6973 115H26.3533V106.096H27.6973V115ZM31.1902 115H29.8462V106.096H31.1902V115ZM38.1762 111.544V115H36.8322V108.616H38.1762V109.78C38.3922 109.388 38.6882 109.08 39.0642 108.856C39.4482 108.632 39.8602 108.52 40.3002 108.52C41.0202 108.52 41.6002 108.74 42.0402 109.18C42.4882 109.62 42.7122 110.256 42.7122 111.088V115H41.3682V111.496C41.3682 110.32 40.8802 109.732 39.9042 109.732C39.4402 109.732 39.0362 109.888 38.6922 110.2C38.3482 110.504 38.1762 110.952 38.1762 111.544ZM50.73 112.396H45.726C45.758 112.86 45.97 113.236 46.362 113.524C46.754 113.804 47.202 113.944 47.706 113.944C48.506 113.944 49.114 113.692 49.53 113.188L50.298 114.028C49.61 114.74 48.714 115.096 47.61 115.096C46.714 115.096 45.95 114.8 45.318 114.208C44.694 113.608 44.382 112.808 44.382 111.808C44.382 110.8 44.702 110 45.342 109.408C45.982 108.816 46.734 108.52 47.598 108.52C48.47 108.52 49.21 108.784 49.818 109.312C50.426 109.832 50.73 110.552 50.73 111.472V112.396ZM45.726 111.34H49.386C49.386 110.804 49.218 110.392 48.882 110.104C48.546 109.816 48.13 109.672 47.634 109.672C47.146 109.672 46.706 109.824 46.314 110.128C45.922 110.424 45.726 110.828 45.726 111.34ZM54.0296 115L51.4616 108.616H52.8536L54.7976 113.44L56.7416 108.616H58.1336L55.5656 115H54.0296ZM65.3448 112.396H60.3408C60.3728 112.86 60.5848 113.236 60.9768 113.524C61.3688 113.804 61.8168 113.944 62.3208 113.944C63.1208 113.944 63.7288 113.692 64.1448 113.188L64.9128 114.028C64.2248 114.74 63.3288 115.096 62.2248 115.096C61.3288 115.096 60.5648 114.8 59.9328 114.208C59.3088 113.608 58.9968 112.808 58.9968 111.808C58.9968 110.8 59.3168 110 59.9568 109.408C60.5968 108.816 61.3488 108.52 62.2128 108.52C63.0848 108.52 63.8248 108.784 64.4328 109.312C65.0408 109.832 65.3448 110.552 65.3448 111.472V112.396ZM60.3408 111.34H64.0008C64.0008 110.804 63.8328 110.392 63.4968 110.104C63.1608 109.816 62.7448 109.672 62.2488 109.672C61.7608 109.672 61.3208 109.824 60.9288 110.128C60.5368 110.424 60.3408 110.828 60.3408 111.34ZM70.3708 109.876C69.7068 109.876 69.2068 110.092 68.8708 110.524C68.5348 110.956 68.3668 111.536 68.3668 112.264V115H67.0228V108.616H68.3668V109.9C68.5828 109.5 68.8748 109.172 69.2428 108.916C69.6188 108.66 70.0148 108.528 70.4308 108.52L70.4428 109.876C70.4188 109.876 70.3948 109.876 70.3708 109.876ZM80.0333 113.092C80.0333 113.7 79.8133 114.188 79.3733 114.556C78.9333 114.916 78.3693 115.096 77.6813 115.096C77.2173 115.096 76.7333 115.012 76.2293 114.844C75.7333 114.676 75.2933 114.44 74.9093 114.136L75.5573 113.092C76.3013 113.652 77.0213 113.932 77.7173 113.932C78.0213 113.932 78.2613 113.864 78.4373 113.728C78.6133 113.584 78.7013 113.404 78.7013 113.188C78.7013 112.868 78.2773 112.58 77.4293 112.324C77.3653 112.3 77.3173 112.284 77.2853 112.276C75.9573 111.916 75.2933 111.316 75.2933 110.476C75.2933 109.884 75.5213 109.412 75.9773 109.06C76.4413 108.7 77.0413 108.52 77.7773 108.52C78.5133 108.52 79.2093 108.736 79.8653 109.168L79.3613 110.164C78.8413 109.82 78.2773 109.648 77.6693 109.648C77.3493 109.648 77.0893 109.708 76.8893 109.828C76.6893 109.94 76.5893 110.112 76.5893 110.344C76.5893 110.552 76.6933 110.704 76.9013 110.8C77.0453 110.872 77.2453 110.94 77.5013 111.004C77.7653 111.068 77.9973 111.132 78.1973 111.196C78.3973 111.26 78.5893 111.332 78.7733 111.412C78.9653 111.492 79.1693 111.604 79.3853 111.748C79.8173 112.036 80.0333 112.484 80.0333 113.092ZM83.0996 111.544V115H81.7556V106.108H83.0996V109.78C83.2916 109.388 83.5796 109.08 83.9636 108.856C84.3556 108.632 84.7756 108.52 85.2236 108.52C85.9436 108.52 86.5236 108.74 86.9636 109.18C87.4116 109.62 87.6356 110.256 87.6356 111.088V115H86.2916V111.496C86.2916 110.32 85.8036 109.732 84.8276 109.732C84.3636 109.732 83.9596 109.888 83.6156 110.2C83.2716 110.504 83.0996 110.952 83.0996 111.544ZM94.8854 115H93.6614V114.148C93.1334 114.78 92.4254 115.096 91.5374 115.096C90.8734 115.096 90.3214 114.908 89.8814 114.532C89.4494 114.156 89.2334 113.656 89.2334 113.032C89.2334 112.4 89.4654 111.928 89.9294 111.616C90.3934 111.304 91.0214 111.148 91.8134 111.148H93.5534V110.908C93.5534 110.06 93.0814 109.636 92.1374 109.636C91.5454 109.636 90.9294 109.852 90.2894 110.284L89.6894 109.444C90.4654 108.828 91.3454 108.52 92.3294 108.52C93.0814 108.52 93.6934 108.712 94.1654 109.096C94.6454 109.472 94.8854 110.068 94.8854 110.884V115ZM93.5414 112.624V112.084H92.0294C91.0614 112.084 90.5774 112.388 90.5774 112.996C90.5774 113.308 90.6974 113.548 90.9374 113.716C91.1774 113.876 91.5094 113.956 91.9334 113.956C92.3654 113.956 92.7414 113.836 93.0614 113.596C93.3814 113.356 93.5414 113.032 93.5414 112.624ZM100.304 109.876C99.6404 109.876 99.1404 110.092 98.8044 110.524C98.4684 110.956 98.3004 111.536 98.3004 112.264V115H96.9564V108.616H98.3004V109.9C98.5164 109.5 98.8084 109.172 99.1764 108.916C99.5524 108.66 99.9484 108.528 100.364 108.52L100.376 109.876C100.352 109.876 100.328 109.876 100.304 109.876ZM107.866 112.396H102.862C102.894 112.86 103.106 113.236 103.498 113.524C103.89 113.804 104.338 113.944 104.842 113.944C105.642 113.944 106.25 113.692 106.666 113.188L107.434 114.028C106.746 114.74 105.85 115.096 104.746 115.096C103.85 115.096 103.086 114.8 102.454 114.208C101.83 113.608 101.518 112.808 101.518 111.808C101.518 110.8 101.838 110 102.478 109.408C103.118 108.816 103.87 108.52 104.734 108.52C105.606 108.52 106.346 108.784 106.954 109.312C107.562 109.832 107.866 110.552 107.866 111.472V112.396ZM102.862 111.34H106.522C106.522 110.804 106.354 110.392 106.018 110.104C105.682 109.816 105.266 109.672 104.77 109.672C104.282 109.672 103.842 109.824 103.45 110.128C103.058 110.424 102.862 110.828 102.862 111.34ZM113.841 117.544C113.257 117.544 112.729 117.332 112.257 116.908L112.869 115.816C113.149 116.08 113.437 116.212 113.733 116.212C114.037 116.212 114.281 116.104 114.465 115.888C114.657 115.672 114.753 115.436 114.753 115.18C114.753 115.068 113.893 112.88 112.173 108.616H113.613L115.521 113.32L117.429 108.616H118.869L115.773 116.2C115.589 116.616 115.325 116.944 114.981 117.184C114.637 117.424 114.257 117.544 113.841 117.544ZM121.51 113.32C121.894 113.704 122.378 113.896 122.962 113.896C123.546 113.896 124.026 113.704 124.402 113.32C124.786 112.928 124.978 112.424 124.978 111.808C124.978 111.192 124.786 110.692 124.402 110.308C124.026 109.916 123.546 109.72 122.962 109.72C122.378 109.72 121.894 109.916 121.51 110.308C121.134 110.692 120.946 111.192 120.946 111.808C120.946 112.424 121.134 112.928 121.51 113.32ZM125.362 114.148C124.722 114.78 123.922 115.096 122.962 115.096C122.002 115.096 121.202 114.78 120.562 114.148C119.922 113.508 119.602 112.728 119.602 111.808C119.602 110.888 119.922 110.112 120.562 109.48C121.202 108.84 122.002 108.52 122.962 108.52C123.922 108.52 124.722 108.84 125.362 109.48C126.002 110.112 126.322 110.888 126.322 111.808C126.322 112.728 126.002 113.508 125.362 114.148ZM132.514 112.072V108.616H133.858V115H132.514V113.836C132.298 114.228 131.998 114.536 131.614 114.76C131.238 114.984 130.83 115.096 130.39 115.096C129.67 115.096 129.086 114.876 128.638 114.436C128.198 113.996 127.978 113.36 127.978 112.528V108.616H129.322V112.12C129.322 113.296 129.81 113.884 130.786 113.884C131.25 113.884 131.654 113.732 131.998 113.428C132.342 113.116 132.514 112.664 132.514 112.072ZM139.356 109.876C138.692 109.876 138.192 110.092 137.856 110.524C137.52 110.956 137.352 111.536 137.352 112.264V115H136.008V108.616H137.352V109.9C137.568 109.5 137.86 109.172 138.228 108.916C138.604 108.66 139 108.528 139.416 108.52L139.428 109.876C139.404 109.876 139.38 109.876 139.356 109.876ZM150.41 112.396H145.406C145.438 112.86 145.65 113.236 146.042 113.524C146.434 113.804 146.882 113.944 147.386 113.944C148.186 113.944 148.794 113.692 149.21 113.188L149.978 114.028C149.29 114.74 148.394 115.096 147.29 115.096C146.394 115.096 145.63 114.8 144.998 114.208C144.374 113.608 144.062 112.808 144.062 111.808C144.062 110.8 144.382 110 145.022 109.408C145.662 108.816 146.414 108.52 147.278 108.52C148.15 108.52 148.89 108.784 149.498 109.312C150.106 109.832 150.41 110.552 150.41 111.472V112.396ZM145.406 111.34H149.066C149.066 110.804 148.898 110.392 148.562 110.104C148.226 109.816 147.81 109.672 147.314 109.672C146.826 109.672 146.386 109.824 145.994 110.128C145.602 110.424 145.406 110.828 145.406 111.34ZM153.432 111.544V115H152.088V108.616H153.432V109.78C153.624 109.388 153.912 109.08 154.296 108.856C154.688 108.632 155.108 108.52 155.556 108.52C156.564 108.52 157.248 108.936 157.608 109.768C158.24 108.936 159.028 108.52 159.972 108.52C160.692 108.52 161.272 108.74 161.712 109.18C162.16 109.62 162.384 110.256 162.384 111.088V115H161.04V111.496C161.04 110.32 160.552 109.732 159.576 109.732C159.12 109.732 158.72 109.88 158.376 110.176C158.04 110.464 157.864 110.888 157.848 111.448V115H156.504V111.496C156.504 110.888 156.396 110.444 156.18 110.164C155.964 109.876 155.624 109.732 155.16 109.732C154.696 109.732 154.292 109.888 153.948 110.2C153.604 110.504 153.432 110.952 153.432 111.544ZM169.624 115H168.4V114.148C167.872 114.78 167.164 115.096 166.276 115.096C165.612 115.096 165.06 114.908 164.62 114.532C164.188 114.156 163.972 113.656 163.972 113.032C163.972 112.4 164.204 111.928 164.668 111.616C165.132 111.304 165.76 111.148 166.552 111.148H168.292V110.908C168.292 110.06 167.82 109.636 166.876 109.636C166.284 109.636 165.668 109.852 165.028 110.284L164.428 109.444C165.204 108.828 166.084 108.52 167.068 108.52C167.82 108.52 168.432 108.712 168.904 109.096C169.384 109.472 169.624 110.068 169.624 110.884V115ZM168.28 112.624V112.084H166.768C165.8 112.084 165.316 112.388 165.316 112.996C165.316 113.308 165.436 113.548 165.676 113.716C165.916 113.876 166.248 113.956 166.672 113.956C167.104 113.956 167.48 113.836 167.8 113.596C168.12 113.356 168.28 113.032 168.28 112.624ZM173.039 115H171.695V108.616H173.039V115ZM171.779 107.344C171.611 107.176 171.527 106.976 171.527 106.744C171.527 106.512 171.611 106.312 171.779 106.144C171.947 105.976 172.147 105.892 172.379 105.892C172.611 105.892 172.811 105.976 172.979 106.144C173.147 106.312 173.231 106.512 173.231 106.744C173.231 106.976 173.147 107.176 172.979 107.344C172.811 107.512 172.611 107.596 172.379 107.596C172.147 107.596 171.947 107.512 171.779 107.344ZM176.532 115H175.188V106.096H176.532V115ZM185.162 115H183.626L181.418 108.616H182.81L184.394 113.44L185.978 108.616H187.37L188.954 113.44L190.538 108.616H191.93L189.722 115H188.186L186.674 110.632L185.162 115ZM194.664 115H193.32V108.616H194.664V115ZM193.404 107.344C193.236 107.176 193.152 106.976 193.152 106.744C193.152 106.512 193.236 106.312 193.404 106.144C193.572 105.976 193.772 105.892 194.004 105.892C194.236 105.892 194.436 105.976 194.604 106.144C194.772 106.312 194.856 106.512 194.856 106.744C194.856 106.976 194.772 107.176 194.604 107.344C194.436 107.512 194.236 107.596 194.004 107.596C193.772 107.596 193.572 107.512 193.404 107.344ZM198.469 109.696V112.936C198.469 113.24 198.549 113.484 198.709 113.668C198.869 113.844 199.093 113.932 199.381 113.932C199.669 113.932 199.945 113.792 200.209 113.512L200.761 114.46C200.289 114.884 199.765 115.096 199.189 115.096C198.621 115.096 198.133 114.9 197.725 114.508C197.325 114.108 197.125 113.572 197.125 112.9V109.696H196.321V108.616H197.125V106.612H198.469V108.616H200.149V109.696H198.469ZM203.372 111.544V115H202.028V106.108H203.372V109.78C203.564 109.388 203.852 109.08 204.236 108.856C204.628 108.632 205.048 108.52 205.496 108.52C206.216 108.52 206.796 108.74 207.236 109.18C207.684 109.62 207.908 110.256 207.908 111.088V115H206.564V111.496C206.564 110.32 206.076 109.732 205.1 109.732C204.636 109.732 204.232 109.888 203.888 110.2C203.544 110.504 203.372 110.952 203.372 111.544ZM218.651 115H217.427V114.148C216.899 114.78 216.191 115.096 215.303 115.096C214.639 115.096 214.087 114.908 213.647 114.532C213.215 114.156 212.999 113.656 212.999 113.032C212.999 112.4 213.231 111.928 213.695 111.616C214.159 111.304 214.787 111.148 215.579 111.148H217.319V110.908C217.319 110.06 216.847 109.636 215.903 109.636C215.311 109.636 214.695 109.852 214.055 110.284L213.455 109.444C214.231 108.828 215.111 108.52 216.095 108.52C216.847 108.52 217.459 108.712 217.931 109.096C218.411 109.472 218.651 110.068 218.651 110.884V115ZM217.307 112.624V112.084H215.795C214.827 112.084 214.343 112.388 214.343 112.996C214.343 113.308 214.463 113.548 214.703 113.716C214.943 113.876 215.275 113.956 215.699 113.956C216.131 113.956 216.507 113.836 216.827 113.596C217.147 113.356 217.307 113.032 217.307 112.624ZM222.066 111.544V115H220.722V108.616H222.066V109.78C222.282 109.388 222.578 109.08 222.954 108.856C223.338 108.632 223.75 108.52 224.19 108.52C224.91 108.52 225.49 108.74 225.93 109.18C226.378 109.62 226.602 110.256 226.602 111.088V115H225.258V111.496C225.258 110.32 224.77 109.732 223.794 109.732C223.33 109.732 222.926 109.888 222.582 110.2C222.238 110.504 222.066 110.952 222.066 111.544ZM229.402 117.544C228.818 117.544 228.29 117.332 227.818 116.908L228.43 115.816C228.71 116.08 228.998 116.212 229.294 116.212C229.598 116.212 229.842 116.104 230.026 115.888C230.218 115.672 230.314 115.436 230.314 115.18C230.314 115.068 229.454 112.88 227.734 108.616H229.174L231.082 113.32L232.99 108.616H234.43L231.334 116.2C231.15 116.616 230.886 116.944 230.542 117.184C230.198 117.424 229.818 117.544 229.402 117.544ZM237.071 113.32C237.455 113.704 237.939 113.896 238.523 113.896C239.107 113.896 239.587 113.704 239.963 113.32C240.347 112.928 240.539 112.424 240.539 111.808C240.539 111.192 240.347 110.692 239.963 110.308C239.587 109.916 239.107 109.72 238.523 109.72C237.939 109.72 237.455 109.916 237.071 110.308C236.695 110.692 236.507 111.192 236.507 111.808C236.507 112.424 236.695 112.928 237.071 113.32ZM240.923 114.148C240.283 114.78 239.483 115.096 238.523 115.096C237.563 115.096 236.763 114.78 236.123 114.148C235.483 113.508 235.163 112.728 235.163 111.808C235.163 110.888 235.483 110.112 236.123 109.48C236.763 108.84 237.563 108.52 238.523 108.52C239.483 108.52 240.283 108.84 240.923 109.48C241.563 110.112 241.883 110.888 241.883 111.808C241.883 112.728 241.563 113.508 240.923 114.148ZM244.955 111.544V115H243.611V108.616H244.955V109.78C245.171 109.388 245.467 109.08 245.843 108.856C246.227 108.632 246.639 108.52 247.079 108.52C247.799 108.52 248.379 108.74 248.819 109.18C249.267 109.62 249.491 110.256 249.491 111.088V115H248.147V111.496C248.147 110.32 247.659 109.732 246.683 109.732C246.219 109.732 245.815 109.888 245.471 110.2C245.127 110.504 244.955 110.952 244.955 111.544ZM257.509 112.396H252.505C252.537 112.86 252.749 113.236 253.141 113.524C253.533 113.804 253.981 113.944 254.485 113.944C255.285 113.944 255.893 113.692 256.309 113.188L257.077 114.028C256.389 114.74 255.493 115.096 254.389 115.096C253.493 115.096 252.729 114.8 252.097 114.208C251.473 113.608 251.161 112.808 251.161 111.808C251.161 110.8 251.481 110 252.121 109.408C252.761 108.816 253.513 108.52 254.377 108.52C255.249 108.52 255.989 108.784 256.597 109.312C257.205 109.832 257.509 110.552 257.509 111.472V112.396ZM252.505 111.34H256.165C256.165 110.804 255.997 110.392 255.661 110.104C255.325 109.816 254.909 109.672 254.413 109.672C253.925 109.672 253.485 109.824 253.093 110.128C252.701 110.424 252.505 110.828 252.505 111.34ZM268.62 112.396H263.616C263.648 112.86 263.86 113.236 264.252 113.524C264.644 113.804 265.092 113.944 265.596 113.944C266.396 113.944 267.004 113.692 267.42 113.188L268.188 114.028C267.5 114.74 266.604 115.096 265.5 115.096C264.604 115.096 263.84 114.8 263.208 114.208C262.584 113.608 262.272 112.808 262.272 111.808C262.272 110.8 262.592 110 263.232 109.408C263.872 108.816 264.624 108.52 265.488 108.52C266.36 108.52 267.1 108.784 267.708 109.312C268.316 109.832 268.62 110.552 268.62 111.472V112.396ZM263.616 111.34H267.276C267.276 110.804 267.108 110.392 266.772 110.104C266.436 109.816 266.02 109.672 265.524 109.672C265.036 109.672 264.596 109.824 264.204 110.128C263.812 110.424 263.616 110.828 263.616 111.34ZM271.642 115H270.298V106.096H271.642V115ZM278.339 113.092C278.339 113.7 278.119 114.188 277.679 114.556C277.239 114.916 276.675 115.096 275.987 115.096C275.523 115.096 275.039 115.012 274.535 114.844C274.039 114.676 273.599 114.44 273.215 114.136L273.863 113.092C274.607 113.652 275.327 113.932 276.023 113.932C276.327 113.932 276.567 113.864 276.743 113.728C276.919 113.584 277.007 113.404 277.007 113.188C277.007 112.868 276.583 112.58 275.735 112.324C275.671 112.3 275.623 112.284 275.591 112.276C274.263 111.916 273.599 111.316 273.599 110.476C273.599 109.884 273.827 109.412 274.283 109.06C274.747 108.7 275.347 108.52 276.083 108.52C276.819 108.52 277.515 108.736 278.171 109.168L277.667 110.164C277.147 109.82 276.583 109.648 275.975 109.648C275.655 109.648 275.395 109.708 275.195 109.828C274.995 109.94 274.895 110.112 274.895 110.344C274.895 110.552 274.999 110.704 275.207 110.8C275.351 110.872 275.551 110.94 275.807 111.004C276.071 111.068 276.303 111.132 276.503 111.196C276.703 111.26 276.895 111.332 277.079 111.412C277.271 111.492 277.475 111.604 277.691 111.748C278.123 112.036 278.339 112.484 278.339 113.092ZM286.001 112.396H280.997C281.029 112.86 281.241 113.236 281.633 113.524C282.025 113.804 282.473 113.944 282.977 113.944C283.777 113.944 284.385 113.692 284.801 113.188L285.569 114.028C284.881 114.74 283.985 115.096 282.881 115.096C281.985 115.096 281.221 114.8 280.589 114.208C279.965 113.608 279.653 112.808 279.653 111.808C279.653 110.8 279.973 110 280.613 109.408C281.253 108.816 282.005 108.52 282.869 108.52C283.741 108.52 284.481 108.784 285.089 109.312C285.697 109.832 286.001 110.552 286.001 111.472V112.396ZM280.997 111.34H284.657C284.657 110.804 284.489 110.392 284.153 110.104C283.817 109.816 283.401 109.672 282.905 109.672C282.417 109.672 281.977 109.824 281.585 110.128C281.193 110.424 280.997 110.828 280.997 111.34ZM287.751 114.832C287.583 114.656 287.499 114.444 287.499 114.196C287.499 113.948 287.583 113.74 287.751 113.572C287.927 113.396 288.139 113.308 288.387 113.308C288.635 113.308 288.847 113.396 289.023 113.572C289.199 113.74 289.287 113.948 289.287 114.196C289.287 114.444 289.199 114.656 289.023 114.832C288.847 115.008 288.635 115.096 288.387 115.096C288.139 115.096 287.927 115.008 287.751 114.832Z" fill="#737373"/>
<defs>
<clipPath id="clip0_688_2397">
<rect width="450" height="50" fill="white" transform="translate(2 41)"/>
</clipPath>
</defs>
</svg>
