<svg width="450" height="126" viewBox="0 0 450 126" fill="none" xmlns="http://www.w3.org/2000/svg">
<path d="M4.572 15.12C5.148 15.792 5.928 16.128 6.912 16.128C7.896 16.128 8.676 15.792 9.252 15.12C9.828 14.448 10.116 13.536 10.116 12.384V5.418H12.24V12.474C12.24 14.286 11.742 15.684 10.746 16.668C9.75 17.64 8.472 18.126 6.912 18.126C5.352 18.126 4.074 17.64 3.078 16.668C2.082 15.684 1.584 14.286 1.584 12.474V5.418H3.708V12.384C3.708 13.536 3.996 14.448 4.572 15.12ZM20.5044 8.28C21.7884 8.28 22.8864 8.724 23.7984 9.612C24.7104 10.5 25.1664 11.682 25.1664 13.158C25.1664 14.634 24.7104 15.834 23.7984 16.758C22.8984 17.682 21.8424 18.144 20.6304 18.144C19.4304 18.144 18.3504 17.616 17.3904 16.56V21.492H15.3744V8.424H17.3904V10.098C18.1824 8.886 19.2204 8.28 20.5044 8.28ZM17.3544 13.23C17.3544 14.142 17.6304 14.892 18.1824 15.48C18.7344 16.056 19.4064 16.344 20.1984 16.344C20.9904 16.344 21.6804 16.056 22.2684 15.48C22.8564 14.904 23.1504 14.16 23.1504 13.248C23.1504 12.324 22.8624 11.562 22.2864 10.962C21.7104 10.35 21.0204 10.044 20.2164 10.044C19.4124 10.044 18.7344 10.35 18.1824 10.962C17.6304 11.562 17.3544 12.318 17.3544 13.23ZM29.5842 18H27.5682V4.644H29.5842V18ZM34.8396 15.48C35.4156 16.056 36.1416 16.344 37.0176 16.344C37.8936 16.344 38.6136 16.056 39.1776 15.48C39.7536 14.892 40.0416 14.136 40.0416 13.212C40.0416 12.288 39.7536 11.538 39.1776 10.962C38.6136 10.374 37.8936 10.08 37.0176 10.08C36.1416 10.08 35.4156 10.374 34.8396 10.962C34.2756 11.538 33.9936 12.288 33.9936 13.212C33.9936 14.136 34.2756 14.892 34.8396 15.48ZM40.6176 16.722C39.6576 17.67 38.4576 18.144 37.0176 18.144C35.5776 18.144 34.3776 17.67 33.4176 16.722C32.4576 15.762 31.9776 14.592 31.9776 13.212C31.9776 11.832 32.4576 10.668 33.4176 9.72C34.3776 8.76 35.5776 8.28 37.0176 8.28C38.4576 8.28 39.6576 8.76 40.6176 9.72C41.5776 10.668 42.0576 11.832 42.0576 13.212C42.0576 14.592 41.5776 15.762 40.6176 16.722ZM52.2078 18H50.3718V16.722C49.5798 17.67 48.5178 18.144 47.1858 18.144C46.1898 18.144 45.3618 17.862 44.7018 17.298C44.0538 16.734 43.7298 15.984 43.7298 15.048C43.7298 14.1 44.0778 13.392 44.7738 12.924C45.4698 12.456 46.4118 12.222 47.5998 12.222H50.2098V11.862C50.2098 10.59 49.5018 9.954 48.0858 9.954C47.1978 9.954 46.2738 10.278 45.3138 10.926L44.4138 9.666C45.5778 8.742 46.8978 8.28 48.3738 8.28C49.5018 8.28 50.4198 8.568 51.1278 9.144C51.8478 9.708 52.2078 10.602 52.2078 11.826V18ZM50.1918 14.436V13.626H47.9238C46.4718 13.626 45.7458 14.082 45.7458 14.994C45.7458 15.462 45.9258 15.822 46.2858 16.074C46.6458 16.314 47.1438 16.434 47.7798 16.434C48.4278 16.434 48.9918 16.254 49.4718 15.894C49.9518 15.534 50.1918 15.048 50.1918 14.436ZM59.0203 18.144C57.8083 18.144 56.7523 17.688 55.8523 16.776C54.9523 15.864 54.5023 14.664 54.5023 13.176C54.5023 11.688 54.9643 10.5 55.8883 9.612C56.8123 8.724 57.9103 8.28 59.1823 8.28C60.4663 8.28 61.4983 8.82 62.2783 9.9V4.644H64.2943V18H62.2783V16.56C61.5343 17.616 60.4483 18.144 59.0203 18.144ZM56.5183 13.266C56.5183 14.178 56.8123 14.922 57.4003 15.498C57.9883 16.074 58.6783 16.362 59.4703 16.362C60.2623 16.362 60.9343 16.074 61.4863 15.498C62.0383 14.91 62.3143 14.16 62.3143 13.248C62.3143 12.336 62.0383 11.574 61.4863 10.962C60.9343 10.35 60.2563 10.044 59.4523 10.044C58.6483 10.044 57.9583 10.35 57.3823 10.962C56.8063 11.574 56.5183 12.342 56.5183 13.266ZM76.9555 10.26L75.2455 9.108L75.3895 11.16H74.1655L74.3095 9.09L72.5995 10.242L71.9875 9.198L73.8235 8.28L71.9875 7.38L72.5995 6.318L74.2915 7.452L74.1655 5.418H75.3895L75.2635 7.452L76.9555 6.336L77.5675 7.38L75.7135 8.28L77.5675 9.198L76.9555 10.26Z" fill="#252B42"/>
<g clip-path="url(#clip0_688_2421)">
<rect y="40" width="450" height="50" rx="5" fill="white"/>
<path d="M25.2924 68.1974C25.2611 68.1664 25.2188 68.149 25.1747 68.149C25.1306 68.149 25.0883 68.1664 25.057 68.1974L22.6362 70.6184C21.5154 71.7393 19.6238 71.858 18.3864 70.6184C17.1468 69.3787 17.2656 67.4891 18.3864 66.3682L20.8071 63.9472C20.8717 63.8826 20.8717 63.7764 20.8071 63.7118L19.978 62.8826C19.9467 62.8516 19.9044 62.8342 19.8603 62.8342C19.8162 62.8342 19.7739 62.8516 19.7426 62.8826L17.3218 65.3035C15.5594 67.0661 15.5594 69.9183 17.3218 71.6788C19.0843 73.4393 21.9363 73.4414 23.6966 71.6788L26.1174 69.2579C26.182 69.1933 26.182 69.087 26.1174 69.0225L25.2924 68.1974ZM30.6797 58.3219C28.9173 56.5594 26.0653 56.5594 24.3049 58.3219L21.8821 60.7429C21.8511 60.7742 21.8337 60.8165 21.8337 60.8606C21.8337 60.9047 21.8511 60.947 21.8821 60.9783L22.7092 61.8054C22.7737 61.87 22.88 61.87 22.9446 61.8054L25.3653 59.3845C26.4861 58.2636 28.3777 58.1448 29.6152 59.3845C30.8547 60.6241 30.736 62.5138 29.6152 63.6347L27.1944 66.0556C27.1634 66.087 27.146 66.1293 27.146 66.1734C27.146 66.2174 27.1634 66.2598 27.1944 66.2911L28.0236 67.1203C28.0881 67.1849 28.1944 67.1849 28.259 67.1203L30.6797 64.6993C32.4401 62.9367 32.4401 60.0845 30.6797 58.3219ZM26.0445 62.0909C26.0131 62.0599 25.9708 62.0425 25.9268 62.0425C25.8827 62.0425 25.8404 62.0599 25.8091 62.0909L21.0905 66.8078C21.0594 66.8391 21.042 66.8814 21.042 66.9255C21.042 66.9696 21.0594 67.0119 21.0905 67.0432L21.9154 67.8682C21.98 67.9328 22.0863 67.9328 22.1508 67.8682L26.8674 63.1513C26.9319 63.0868 26.9319 62.9805 26.8674 62.9159L26.0445 62.0909Z" fill="#737373"/>
<path d="M65.824 68.502C66.3933 68.502 66.8833 68.4087 67.294 68.222C67.7047 68.026 68.134 67.718 68.582 67.298L69.646 68.39C68.61 69.538 67.35 70.112 65.866 70.112C64.3913 70.112 63.164 69.636 62.184 68.684C61.2133 67.732 60.728 66.528 60.728 65.072C60.728 63.616 61.2227 62.4027 62.212 61.432C63.2107 60.4613 64.466 59.976 65.978 59.976C67.4993 59.976 68.7687 60.536 69.786 61.656L68.736 62.804C68.2693 62.356 67.826 62.0433 67.406 61.866C66.9953 61.6887 66.51 61.6 65.95 61.6C64.9607 61.6 64.13 61.922 63.458 62.566C62.786 63.2007 62.45 64.0173 62.45 65.016C62.45 66.0053 62.7813 66.836 63.444 67.508C64.116 68.1707 64.9093 68.502 65.824 68.502ZM73.2106 65.968V70H71.6426V59.626H73.2106V63.91C73.4346 63.4527 73.7706 63.0933 74.2186 62.832C74.6759 62.5707 75.1659 62.44 75.6886 62.44C76.5286 62.44 77.2053 62.6967 77.7186 63.21C78.2413 63.7233 78.5026 64.4653 78.5026 65.436V70H76.9346V65.912C76.9346 64.54 76.3653 63.854 75.2266 63.854C74.6853 63.854 74.2139 64.036 73.8126 64.4C73.4113 64.7547 73.2106 65.2773 73.2106 65.968ZM82.6294 68.04C83.0774 68.488 83.642 68.712 84.3234 68.712C85.0047 68.712 85.5647 68.488 86.0034 68.04C86.4514 67.5827 86.6754 66.9947 86.6754 66.276C86.6754 65.5573 86.4514 64.974 86.0034 64.526C85.5647 64.0687 85.0047 63.84 84.3234 63.84C83.642 63.84 83.0774 64.0687 82.6294 64.526C82.1907 64.974 81.9714 65.5573 81.9714 66.276C81.9714 66.9947 82.1907 67.5827 82.6294 68.04ZM87.1234 69.006C86.3767 69.7433 85.4434 70.112 84.3234 70.112C83.2034 70.112 82.27 69.7433 81.5234 69.006C80.7767 68.2593 80.4034 67.3493 80.4034 66.276C80.4034 65.2027 80.7767 64.2973 81.5234 63.56C82.27 62.8133 83.2034 62.44 84.3234 62.44C85.4434 62.44 86.3767 62.8133 87.1234 63.56C87.87 64.2973 88.2434 65.2027 88.2434 66.276C88.2434 67.3493 87.87 68.2593 87.1234 69.006ZM91.9622 68.04C92.4102 68.488 92.9749 68.712 93.6562 68.712C94.3375 68.712 94.8975 68.488 95.3362 68.04C95.7842 67.5827 96.0082 66.9947 96.0082 66.276C96.0082 65.5573 95.7842 64.974 95.3362 64.526C94.8975 64.0687 94.3375 63.84 93.6562 63.84C92.9749 63.84 92.4102 64.0687 91.9622 64.526C91.5235 64.974 91.3042 65.5573 91.3042 66.276C91.3042 66.9947 91.5235 67.5827 91.9622 68.04ZM96.4562 69.006C95.7095 69.7433 94.7762 70.112 93.6562 70.112C92.5362 70.112 91.6029 69.7433 90.8562 69.006C90.1095 68.2593 89.7362 67.3493 89.7362 66.276C89.7362 65.2027 90.1095 64.2973 90.8562 63.56C91.6029 62.8133 92.5362 62.44 93.6562 62.44C94.7762 62.44 95.7095 62.8133 96.4562 63.56C97.2029 64.2973 97.5762 65.2027 97.5762 66.276C97.5762 67.3493 97.2029 68.2593 96.4562 69.006ZM104.865 67.774C104.865 68.4833 104.608 69.0527 104.095 69.482C103.582 69.902 102.924 70.112 102.121 70.112C101.58 70.112 101.015 70.014 100.427 69.818C99.8483 69.622 99.335 69.3467 98.887 68.992L99.643 67.774C100.511 68.4273 101.351 68.754 102.163 68.754C102.518 68.754 102.798 68.6747 103.003 68.516C103.208 68.348 103.311 68.138 103.311 67.886C103.311 67.5127 102.816 67.1767 101.827 66.878C101.752 66.85 101.696 66.8313 101.659 66.822C100.11 66.402 99.335 65.702 99.335 64.722C99.335 64.0313 99.601 63.4807 100.133 63.07C100.674 62.65 101.374 62.44 102.233 62.44C103.092 62.44 103.904 62.692 104.669 63.196L104.081 64.358C103.474 63.9567 102.816 63.756 102.107 63.756C101.734 63.756 101.43 63.826 101.197 63.966C100.964 64.0967 100.847 64.2973 100.847 64.568C100.847 64.8107 100.968 64.988 101.211 65.1C101.379 65.184 101.612 65.2633 101.911 65.338C102.219 65.4127 102.49 65.4873 102.723 65.562C102.956 65.6367 103.18 65.7207 103.395 65.814C103.619 65.9073 103.857 66.038 104.109 66.206C104.613 66.542 104.865 67.0647 104.865 67.774ZM113.771 66.962H107.933C107.97 67.5033 108.218 67.942 108.675 68.278C109.132 68.6047 109.655 68.768 110.243 68.768C111.176 68.768 111.886 68.474 112.371 67.886L113.267 68.866C112.464 69.6967 111.419 70.112 110.131 70.112C109.086 70.112 108.194 69.7667 107.457 69.076C106.729 68.376 106.365 67.4427 106.365 66.276C106.365 65.1 106.738 64.1667 107.485 63.476C108.232 62.7853 109.109 62.44 110.117 62.44C111.134 62.44 111.998 62.748 112.707 63.364C113.416 63.9707 113.771 64.8107 113.771 65.884V66.962ZM107.933 65.73H112.203C112.203 65.1047 112.007 64.624 111.615 64.288C111.223 63.952 110.738 63.784 110.159 63.784C109.59 63.784 109.076 63.9613 108.619 64.316C108.162 64.6613 107.933 65.1327 107.933 65.73ZM121.613 61.754V64.442H125.953V65.968H121.613V70H119.961V60.214H126.485L126.471 61.754H121.613ZM129.954 70H128.386V62.552H129.954V70ZM128.484 61.068C128.288 60.872 128.19 60.6387 128.19 60.368C128.19 60.0973 128.288 59.864 128.484 59.668C128.68 59.472 128.914 59.374 129.184 59.374C129.455 59.374 129.688 59.472 129.884 59.668C130.08 59.864 130.178 60.0973 130.178 60.368C130.178 60.6387 130.08 60.872 129.884 61.068C129.688 61.264 129.455 61.362 129.184 61.362C128.914 61.362 128.68 61.264 128.484 61.068ZM133.996 70H132.428V59.612H133.996V70ZM143.4 66.962H137.562C137.599 67.5033 137.847 67.942 138.304 68.278C138.761 68.6047 139.284 68.768 139.872 68.768C140.805 68.768 141.515 68.474 142 67.886L142.896 68.866C142.093 69.6967 141.048 70.112 139.76 70.112C138.715 70.112 137.823 69.7667 137.086 69.076C136.358 68.376 135.994 67.4427 135.994 66.276C135.994 65.1 136.367 64.1667 137.114 63.476C137.861 62.7853 138.738 62.44 139.746 62.44C140.763 62.44 141.627 62.748 142.336 63.364C143.045 63.9707 143.4 64.8107 143.4 65.884V66.962ZM137.562 65.73H141.832C141.832 65.1047 141.636 64.624 141.244 64.288C140.852 63.952 140.367 63.784 139.788 63.784C139.219 63.784 138.705 63.9613 138.248 64.316C137.791 64.6613 137.562 65.1327 137.562 65.73Z" fill="#737373"/>
<g clip-path="url(#clip1_688_2421)">
<path d="M333.5 40.5H445C447.485 40.5 449.5 42.5147 449.5 45V85C449.5 87.4853 447.485 89.5 445 89.5H333.5V40.5Z" fill="#23A6F0"/>
<path d="M333.5 40.5H445C447.485 40.5 449.5 42.5147 449.5 45V85C449.5 87.4853 447.485 89.5 445 89.5H333.5V40.5Z" stroke="#E6E6E6"/>
<path d="M389.67 65.24H391.322V68.586C390.398 69.6033 389.077 70.112 387.36 70.112C385.913 70.112 384.7 69.636 383.72 68.684C382.749 67.732 382.264 66.528 382.264 65.072C382.264 63.616 382.758 62.4027 383.748 61.432C384.746 60.4613 385.95 59.976 387.36 59.976C388.769 59.976 389.94 60.3867 390.874 61.208L389.992 62.468C389.609 62.1413 389.222 61.9173 388.83 61.796C388.447 61.6653 387.999 61.6 387.486 61.6C386.496 61.6 385.666 61.922 384.994 62.566C384.322 63.2007 383.986 64.0407 383.986 65.086C383.986 66.122 384.312 66.9573 384.966 67.592C385.619 68.2173 386.408 68.53 387.332 68.53C388.265 68.53 389.044 68.3293 389.67 67.928V65.24ZM395.201 68.04C395.649 68.488 396.214 68.712 396.895 68.712C397.577 68.712 398.137 68.488 398.575 68.04C399.023 67.5827 399.247 66.9947 399.247 66.276C399.247 65.5573 399.023 64.974 398.575 64.526C398.137 64.0687 397.577 63.84 396.895 63.84C396.214 63.84 395.649 64.0687 395.201 64.526C394.763 64.974 394.543 65.5573 394.543 66.276C394.543 66.9947 394.763 67.5827 395.201 68.04ZM399.695 69.006C398.949 69.7433 398.015 70.112 396.895 70.112C395.775 70.112 394.842 69.7433 394.095 69.006C393.349 68.2593 392.975 67.3493 392.975 66.276C392.975 65.2027 393.349 64.2973 394.095 63.56C394.842 62.8133 395.775 62.44 396.895 62.44C398.015 62.44 398.949 62.8133 399.695 63.56C400.442 64.2973 400.815 65.2027 400.815 66.276C400.815 67.3493 400.442 68.2593 399.695 69.006Z" fill="white"/>
</g>
</g>
<rect x="0.5" y="40.5" width="449" height="49" rx="4.5" stroke="#E9E9E9"/>
<path d="M3.164 112V103.612H4.58V110.656H8.408V112H3.164ZM11.3514 110.32C11.7354 110.704 12.2194 110.896 12.8034 110.896C13.3874 110.896 13.8674 110.704 14.2434 110.32C14.6274 109.928 14.8194 109.424 14.8194 108.808C14.8194 108.192 14.6274 107.692 14.2434 107.308C13.8674 106.916 13.3874 106.72 12.8034 106.72C12.2194 106.72 11.7354 106.916 11.3514 107.308C10.9754 107.692 10.7874 108.192 10.7874 108.808C10.7874 109.424 10.9754 109.928 11.3514 110.32ZM15.2034 111.148C14.5634 111.78 13.7634 112.096 12.8034 112.096C11.8434 112.096 11.0434 111.78 10.4034 111.148C9.76341 110.508 9.44341 109.728 9.44341 108.808C9.44341 107.888 9.76341 107.112 10.4034 106.48C11.0434 105.84 11.8434 105.52 12.8034 105.52C13.7634 105.52 14.5634 105.84 15.2034 106.48C15.8434 107.112 16.1634 107.888 16.1634 108.808C16.1634 109.728 15.8434 110.508 15.2034 111.148ZM21.2395 106.876C20.5755 106.876 20.0755 107.092 19.7395 107.524C19.4035 107.956 19.2355 108.536 19.2355 109.264V112H17.8915V105.616H19.2355V106.9C19.4515 106.5 19.7435 106.172 20.1115 105.916C20.4875 105.66 20.8835 105.528 21.2995 105.52L21.3115 106.876C21.2875 106.876 21.2635 106.876 21.2395 106.876ZM28.8011 109.396H23.7971C23.8291 109.86 24.0411 110.236 24.4331 110.524C24.8251 110.804 25.2731 110.944 25.7771 110.944C26.5771 110.944 27.1851 110.692 27.6011 110.188L28.3691 111.028C27.6811 111.74 26.7851 112.096 25.6811 112.096C24.7851 112.096 24.0211 111.8 23.3891 111.208C22.7651 110.608 22.4531 109.808 22.4531 108.808C22.4531 107.8 22.7731 107 23.4131 106.408C24.0531 105.816 24.8051 105.52 25.6691 105.52C26.5411 105.52 27.2811 105.784 27.8891 106.312C28.4971 106.832 28.8011 107.552 28.8011 108.472V109.396ZM23.7971 108.34H27.4571C27.4571 107.804 27.2891 107.392 26.9531 107.104C26.6171 106.816 26.2011 106.672 25.7051 106.672C25.2171 106.672 24.7771 106.824 24.3851 107.128C23.9931 107.424 23.7971 107.828 23.7971 108.34ZM31.823 108.544V112H30.479V105.616H31.823V106.78C32.015 106.388 32.303 106.08 32.687 105.856C33.079 105.632 33.499 105.52 33.947 105.52C34.955 105.52 35.639 105.936 35.999 106.768C36.631 105.936 37.419 105.52 38.363 105.52C39.083 105.52 39.663 105.74 40.103 106.18C40.551 106.62 40.775 107.256 40.775 108.088V112H39.431V108.496C39.431 107.32 38.943 106.732 37.967 106.732C37.511 106.732 37.111 106.88 36.767 107.176C36.431 107.464 36.255 107.888 36.239 108.448V112H34.895V108.496C34.895 107.888 34.787 107.444 34.571 107.164C34.355 106.876 34.015 106.732 33.551 106.732C33.087 106.732 32.683 106.888 32.339 107.2C31.995 107.504 31.823 107.952 31.823 108.544ZM47.6801 112H46.3361V105.616H47.6801V112ZM46.4201 104.344C46.2521 104.176 46.1681 103.976 46.1681 103.744C46.1681 103.512 46.2521 103.312 46.4201 103.144C46.5881 102.976 46.7881 102.892 47.0201 102.892C47.2521 102.892 47.4521 102.976 47.6201 103.144C47.7881 103.312 47.8721 103.512 47.8721 103.744C47.8721 103.976 47.7881 104.176 47.6201 104.344C47.4521 104.512 47.2521 104.596 47.0201 104.596C46.7881 104.596 46.5881 104.512 46.4201 104.344ZM51.173 108.544V112H49.829V105.616H51.173V106.78C51.365 106.388 51.653 106.08 52.037 105.856C52.429 105.632 52.849 105.52 53.297 105.52C54.305 105.52 54.989 105.936 55.349 106.768C55.981 105.936 56.769 105.52 57.713 105.52C58.433 105.52 59.013 105.74 59.453 106.18C59.901 106.62 60.125 107.256 60.125 108.088V112H58.781V108.496C58.781 107.32 58.293 106.732 57.317 106.732C56.861 106.732 56.461 106.88 56.117 107.176C55.781 107.464 55.605 107.888 55.589 108.448V112H54.245V108.496C54.245 107.888 54.137 107.444 53.921 107.164C53.705 106.876 53.365 106.732 52.901 106.732C52.437 106.732 52.033 106.888 51.689 107.2C51.345 107.504 51.173 107.952 51.173 108.544ZM65.6131 105.52C66.4691 105.52 67.2011 105.816 67.8091 106.408C68.4171 107 68.7211 107.788 68.7211 108.772C68.7211 109.756 68.4171 110.556 67.8091 111.172C67.2091 111.788 66.5051 112.096 65.6971 112.096C64.8971 112.096 64.1771 111.744 63.5371 111.04V114.328H62.1931V105.616H63.5371V106.732C64.0651 105.924 64.7571 105.52 65.6131 105.52ZM63.5131 108.82C63.5131 109.428 63.6971 109.928 64.0651 110.32C64.4331 110.704 64.8811 110.896 65.4091 110.896C65.9371 110.896 66.3971 110.704 66.7891 110.32C67.1811 109.936 67.3771 109.44 67.3771 108.832C67.3771 108.216 67.1851 107.708 66.8011 107.308C66.4171 106.9 65.9571 106.696 65.4211 106.696C64.8851 106.696 64.4331 106.9 64.0651 107.308C63.6971 107.708 63.5131 108.212 63.5131 108.82ZM75.0036 110.092C75.0036 110.7 74.7836 111.188 74.3436 111.556C73.9036 111.916 73.3396 112.096 72.6516 112.096C72.1876 112.096 71.7036 112.012 71.1996 111.844C70.7036 111.676 70.2636 111.44 69.8796 111.136L70.5276 110.092C71.2716 110.652 71.9916 110.932 72.6876 110.932C72.9916 110.932 73.2316 110.864 73.4076 110.728C73.5836 110.584 73.6716 110.404 73.6716 110.188C73.6716 109.868 73.2476 109.58 72.3996 109.324C72.3356 109.3 72.2876 109.284 72.2556 109.276C70.9276 108.916 70.2636 108.316 70.2636 107.476C70.2636 106.884 70.4916 106.412 70.9476 106.06C71.4116 105.7 72.0116 105.52 72.7476 105.52C73.4836 105.52 74.1796 105.736 74.8356 106.168L74.3316 107.164C73.8116 106.82 73.2476 106.648 72.6396 106.648C72.3196 106.648 72.0596 106.708 71.8596 106.828C71.6596 106.94 71.5596 107.112 71.5596 107.344C71.5596 107.552 71.6636 107.704 71.8716 107.8C72.0156 107.872 72.2156 107.94 72.4716 108.004C72.7356 108.068 72.9676 108.132 73.1676 108.196C73.3676 108.26 73.5596 108.332 73.7436 108.412C73.9356 108.492 74.1396 108.604 74.3556 108.748C74.7876 109.036 75.0036 109.484 75.0036 110.092ZM81.1899 109.072V105.616H82.5339V112H81.1899V110.836C80.9739 111.228 80.6739 111.536 80.2899 111.76C79.9139 111.984 79.5059 112.096 79.0659 112.096C78.3459 112.096 77.7619 111.876 77.3139 111.436C76.8739 110.996 76.6539 110.36 76.6539 109.528V105.616H77.9979V109.12C77.9979 110.296 78.4859 110.884 79.4619 110.884C79.9259 110.884 80.3299 110.732 80.6739 110.428C81.0179 110.116 81.1899 109.664 81.1899 109.072ZM86.0277 108.544V112H84.6837V105.616H86.0277V106.78C86.2197 106.388 86.5077 106.08 86.8917 105.856C87.2837 105.632 87.7037 105.52 88.1517 105.52C89.1597 105.52 89.8437 105.936 90.2037 106.768C90.8357 105.936 91.6237 105.52 92.5677 105.52C93.2877 105.52 93.8677 105.74 94.3077 106.18C94.7557 106.62 94.9797 107.256 94.9797 108.088V112H93.6357V108.496C93.6357 107.32 93.1477 106.732 92.1717 106.732C91.7157 106.732 91.3157 106.88 90.9717 107.176C90.6357 107.464 90.4597 107.888 90.4437 108.448V112H89.0997V108.496C89.0997 107.888 88.9917 107.444 88.7757 107.164C88.5597 106.876 88.2197 106.732 87.7557 106.732C87.2917 106.732 86.8877 106.888 86.5437 107.2C86.1997 107.504 86.0277 107.952 86.0277 108.544ZM103.145 112.096C102.337 112.096 101.633 111.792 101.033 111.184C100.433 110.576 100.133 109.776 100.133 108.784C100.133 107.792 100.441 107 101.057 106.408C101.673 105.816 102.405 105.52 103.253 105.52C104.109 105.52 104.797 105.88 105.317 106.6V103.096H106.661V112H105.317V111.04C104.821 111.744 104.097 112.096 103.145 112.096ZM101.477 108.844C101.477 109.452 101.673 109.948 102.065 110.332C102.457 110.716 102.917 110.908 103.445 110.908C103.973 110.908 104.421 110.716 104.789 110.332C105.157 109.94 105.341 109.44 105.341 108.832C105.341 108.224 105.157 107.716 104.789 107.308C104.421 106.9 103.969 106.696 103.433 106.696C102.897 106.696 102.437 106.9 102.053 107.308C101.669 107.716 101.477 108.228 101.477 108.844ZM110.291 110.32C110.675 110.704 111.159 110.896 111.743 110.896C112.327 110.896 112.807 110.704 113.183 110.32C113.567 109.928 113.759 109.424 113.759 108.808C113.759 108.192 113.567 107.692 113.183 107.308C112.807 106.916 112.327 106.72 111.743 106.72C111.159 106.72 110.675 106.916 110.291 107.308C109.915 107.692 109.727 108.192 109.727 108.808C109.727 109.424 109.915 109.928 110.291 110.32ZM114.143 111.148C113.503 111.78 112.703 112.096 111.743 112.096C110.783 112.096 109.983 111.78 109.343 111.148C108.703 110.508 108.383 109.728 108.383 108.808C108.383 107.888 108.703 107.112 109.343 106.48C109.983 105.84 110.783 105.52 111.743 105.52C112.703 105.52 113.503 105.84 114.143 106.48C114.783 107.112 115.103 107.888 115.103 108.808C115.103 109.728 114.783 110.508 114.143 111.148ZM118.175 112H116.831V103.096H118.175V112ZM121.812 110.32C122.196 110.704 122.68 110.896 123.264 110.896C123.848 110.896 124.328 110.704 124.704 110.32C125.088 109.928 125.28 109.424 125.28 108.808C125.28 108.192 125.088 107.692 124.704 107.308C124.328 106.916 123.848 106.72 123.264 106.72C122.68 106.72 122.196 106.916 121.812 107.308C121.436 107.692 121.248 108.192 121.248 108.808C121.248 109.424 121.436 109.928 121.812 110.32ZM125.664 111.148C125.024 111.78 124.224 112.096 123.264 112.096C122.304 112.096 121.504 111.78 120.864 111.148C120.224 110.508 119.904 109.728 119.904 108.808C119.904 107.888 120.224 107.112 120.864 106.48C121.504 105.84 122.304 105.52 123.264 105.52C124.224 105.52 125.024 105.84 125.664 106.48C126.304 107.112 126.624 107.888 126.624 108.808C126.624 109.728 126.304 110.508 125.664 111.148ZM131.7 106.876C131.036 106.876 130.536 107.092 130.2 107.524C129.864 107.956 129.696 108.536 129.696 109.264V112H128.352V105.616H129.696V106.9C129.912 106.5 130.204 106.172 130.572 105.916C130.948 105.66 131.344 105.528 131.76 105.52L131.772 106.876C131.748 106.876 131.724 106.876 131.7 106.876ZM141.987 112H140.763V111.148C140.235 111.78 139.527 112.096 138.639 112.096C137.975 112.096 137.423 111.908 136.983 111.532C136.551 111.156 136.335 110.656 136.335 110.032C136.335 109.4 136.567 108.928 137.031 108.616C137.495 108.304 138.123 108.148 138.915 108.148H140.655V107.908C140.655 107.06 140.183 106.636 139.239 106.636C138.647 106.636 138.031 106.852 137.391 107.284L136.791 106.444C137.567 105.828 138.447 105.52 139.431 105.52C140.183 105.52 140.795 105.712 141.267 106.096C141.747 106.472 141.987 107.068 141.987 107.884V112ZM140.643 109.624V109.084H139.131C138.163 109.084 137.679 109.388 137.679 109.996C137.679 110.308 137.799 110.548 138.039 110.716C138.279 110.876 138.611 110.956 139.035 110.956C139.467 110.956 139.843 110.836 140.163 110.596C140.483 110.356 140.643 110.032 140.643 109.624ZM145.402 108.544V112H144.058V105.616H145.402V106.78C145.594 106.388 145.882 106.08 146.266 105.856C146.658 105.632 147.078 105.52 147.526 105.52C148.534 105.52 149.218 105.936 149.578 106.768C150.21 105.936 150.998 105.52 151.942 105.52C152.662 105.52 153.242 105.74 153.682 106.18C154.13 106.62 154.354 107.256 154.354 108.088V112H153.01V108.496C153.01 107.32 152.522 106.732 151.546 106.732C151.09 106.732 150.69 106.88 150.346 107.176C150.01 107.464 149.834 107.888 149.818 108.448V112H148.474V108.496C148.474 107.888 148.366 107.444 148.15 107.164C147.934 106.876 147.594 106.732 147.13 106.732C146.666 106.732 146.262 106.888 145.918 107.2C145.574 107.504 145.402 107.952 145.402 108.544ZM157.766 112H156.422V105.616H157.766V112ZM156.506 104.344C156.338 104.176 156.254 103.976 156.254 103.744C156.254 103.512 156.338 103.312 156.506 103.144C156.674 102.976 156.874 102.892 157.106 102.892C157.338 102.892 157.538 102.976 157.706 103.144C157.874 103.312 157.958 103.512 157.958 103.744C157.958 103.976 157.874 104.176 157.706 104.344C157.538 104.512 157.338 104.596 157.106 104.596C156.874 104.596 156.674 104.512 156.506 104.344ZM161.571 106.696V109.936C161.571 110.24 161.651 110.484 161.811 110.668C161.971 110.844 162.195 110.932 162.483 110.932C162.771 110.932 163.047 110.792 163.311 110.512L163.863 111.46C163.391 111.884 162.867 112.096 162.291 112.096C161.723 112.096 161.235 111.9 160.827 111.508C160.427 111.108 160.227 110.572 160.227 109.9V106.696H159.423V105.616H160.227V103.612H161.571V105.616H163.251V106.696H161.571Z" fill="#737373"/>
<defs>
<clipPath id="clip0_688_2421">
<rect y="40" width="450" height="50" rx="5" fill="white"/>
</clipPath>
<clipPath id="clip1_688_2421">
<rect width="117" height="50" fill="white" transform="translate(333 40)"/>
</clipPath>
</defs>
</svg>
