<svg width="124" height="28" viewBox="0 0 124 28" fill="none" xmlns="http://www.w3.org/2000/svg">
<rect x="0.5" y="1.5" width="24" height="24" rx="4.5" fill="white"/>
<rect x="0.5" y="1.5" width="24" height="24" rx="4.5" stroke="#DCDCDC"/>
<path d="M44.656 18.288C45.3067 18.288 45.8667 18.1813 46.336 17.968C46.8053 17.744 47.296 17.392 47.808 16.912L49.024 18.16C47.84 19.472 46.4 20.128 44.704 20.128C43.0187 20.128 41.616 19.584 40.496 18.496C39.3867 17.408 38.832 16.032 38.832 14.368C38.832 12.704 39.3973 11.3173 40.528 10.208C41.6693 9.09867 43.104 8.544 44.832 8.544C46.5707 8.544 48.0213 9.184 49.184 10.464L47.984 11.776C47.4507 11.264 46.944 10.9067 46.464 10.704C45.9947 10.5013 45.44 10.4 44.8 10.4C43.6693 10.4 42.72 10.768 41.952 11.504C41.184 12.2293 40.8 13.1627 40.8 14.304C40.8 15.4347 41.1787 16.384 41.936 17.152C42.704 17.9093 43.6107 18.288 44.656 18.288ZM53.0692 15.392V20H51.2772V8.144H53.0692V13.04C53.3252 12.5173 53.7092 12.1067 54.2213 11.808C54.7439 11.5093 55.3039 11.36 55.9012 11.36C56.8612 11.36 57.6346 11.6533 58.2213 12.24C58.8186 12.8267 59.1173 13.6747 59.1173 14.784V20H57.3253V15.328C57.3253 13.76 56.6746 12.976 55.3733 12.976C54.7546 12.976 54.2159 13.184 53.7573 13.6C53.2986 14.0053 53.0692 14.6027 53.0692 15.392ZM69.741 16.528H63.069C63.1117 17.1467 63.3943 17.648 63.917 18.032C64.4397 18.4053 65.037 18.592 65.709 18.592C66.7757 18.592 67.5863 18.256 68.141 17.584L69.165 18.704C68.2477 19.6533 67.053 20.128 65.581 20.128C64.3863 20.128 63.3677 19.7333 62.525 18.944C61.693 18.144 61.277 17.0773 61.277 15.744C61.277 14.4 61.7037 13.3333 62.557 12.544C63.4103 11.7547 64.413 11.36 65.565 11.36C66.7277 11.36 67.7143 11.712 68.525 12.416C69.3357 13.1093 69.741 14.0693 69.741 15.296V16.528ZM63.069 15.12H67.949C67.949 14.4053 67.725 13.856 67.277 13.472C66.829 13.088 66.2743 12.896 65.613 12.896C64.9623 12.896 64.3757 13.0987 63.853 13.504C63.3303 13.8987 63.069 14.4373 63.069 15.12ZM75.6876 20.128C74.5036 20.128 73.485 19.728 72.6316 18.928C71.7783 18.1173 71.3516 17.0613 71.3516 15.76C71.3516 14.4587 71.7943 13.4027 72.6796 12.592C73.5756 11.7707 74.6636 11.36 75.9436 11.36C77.2236 11.36 78.3063 11.8027 79.1916 12.688L78.1356 13.984C77.3996 13.344 76.6583 13.024 75.9116 13.024C75.165 13.024 74.5143 13.2747 73.9596 13.776C73.4156 14.2667 73.1436 14.9067 73.1436 15.696C73.1436 16.4747 73.4156 17.136 73.9596 17.68C74.5036 18.224 75.1703 18.496 75.9596 18.496C76.7596 18.496 77.5116 18.1333 78.2156 17.408L79.2716 18.56C78.237 19.6053 77.0423 20.128 75.6876 20.128ZM83.1224 20H81.3304V8.128H83.1224V15.104L86.5784 11.488H88.8824L85.6504 14.864L89.1224 20H86.9464L84.4184 16.272L83.1224 17.584V20ZM95.3873 11.36C96.5286 11.36 97.5046 11.7547 98.3153 12.544C99.1259 13.3333 99.5312 14.384 99.5312 15.696C99.5312 17.008 99.1259 18.0747 98.3153 18.896C97.5153 19.7173 96.5766 20.128 95.4993 20.128C94.4326 20.128 93.4726 19.6587 92.6193 18.72V20H90.8273V8.128H92.6193V12.976C93.3233 11.8987 94.2459 11.36 95.3873 11.36ZM92.5873 15.76C92.5873 16.5707 92.8326 17.2373 93.3233 17.76C93.8139 18.272 94.4113 18.528 95.1153 18.528C95.8193 18.528 96.4326 18.272 96.9553 17.76C97.4779 17.248 97.7393 16.5867 97.7393 15.776C97.7393 14.9547 97.4833 14.2773 96.9713 13.744C96.4593 13.2 95.8459 12.928 95.1313 12.928C94.4166 12.928 93.8139 13.2 93.3233 13.744C92.8326 14.2773 92.5873 14.9493 92.5873 15.76ZM103.761 17.76C104.273 18.272 104.919 18.528 105.697 18.528C106.476 18.528 107.116 18.272 107.617 17.76C108.129 17.2373 108.385 16.5653 108.385 15.744C108.385 14.9227 108.129 14.256 107.617 13.744C107.116 13.2213 106.476 12.96 105.697 12.96C104.919 12.96 104.273 13.2213 103.761 13.744C103.26 14.256 103.009 14.9227 103.009 15.744C103.009 16.5653 103.26 17.2373 103.761 17.76ZM108.897 18.864C108.044 19.7067 106.977 20.128 105.697 20.128C104.417 20.128 103.351 19.7067 102.497 18.864C101.644 18.0107 101.217 16.9707 101.217 15.744C101.217 14.5173 101.644 13.4827 102.497 12.64C103.351 11.7867 104.417 11.36 105.697 11.36C106.977 11.36 108.044 11.7867 108.897 12.64C109.751 13.4827 110.177 14.5173 110.177 15.744C110.177 16.9707 109.751 18.0107 108.897 18.864ZM113.478 11.488L115.302 14.288L117.19 11.488H119.318L116.342 15.648L119.446 20H117.238L115.206 17.168L113.222 20H111.126L114.15 15.664L111.286 11.488H113.478Z" fill="#737373"/>
</svg>
