<svg width="657" height="579" viewBox="0 0 657 579" fill="none" xmlns="http://www.w3.org/2000/svg">
<rect width="657" height="579" rx="10" fill="white"/>
<path d="M282.515 55.792C283.742 55.792 284.744 55.3067 285.523 54.336L287.123 55.984C285.854 57.4133 284.355 58.128 282.627 58.128C280.91 58.128 279.491 57.584 278.371 56.496C277.262 55.408 276.707 54.0373 276.707 52.384C276.707 50.72 277.272 49.3333 278.403 48.224C279.544 47.1147 280.936 46.56 282.579 46.56C284.414 46.56 285.95 47.2587 287.187 48.656L285.635 50.416C284.846 49.4347 283.864 48.944 282.691 48.944C281.752 48.944 280.947 49.2533 280.275 49.872C279.614 50.48 279.283 51.3067 279.283 52.352C279.283 53.3867 279.598 54.2187 280.227 54.848C280.856 55.4773 281.619 55.792 282.515 55.792ZM290.534 53.696C290.534 54.4 290.731 54.976 291.126 55.424C291.531 55.8613 292.043 56.08 292.662 56.08C293.291 56.08 293.803 55.8613 294.198 55.424C294.603 54.976 294.806 54.4 294.806 53.696C294.806 52.992 294.603 52.416 294.198 51.968C293.803 51.52 293.291 51.296 292.662 51.296C292.043 51.296 291.531 51.52 291.126 51.968C290.731 52.416 290.534 52.992 290.534 53.696ZM297.222 53.696C297.222 54.944 296.79 55.9947 295.926 56.848C295.062 57.7013 293.974 58.128 292.662 58.128C291.361 58.128 290.278 57.7013 289.414 56.848C288.55 55.9947 288.118 54.944 288.118 53.696C288.118 52.448 288.55 51.3973 289.414 50.544C290.278 49.68 291.361 49.248 292.662 49.248C293.974 49.248 295.062 49.68 295.926 50.544C296.79 51.3973 297.222 52.448 297.222 53.696ZM301.505 53.2V58H299.105V49.392H301.505V50.352C302.23 49.616 303.046 49.248 303.953 49.248C304.859 49.248 305.617 49.568 306.225 50.208C306.843 50.848 307.153 51.7013 307.153 52.768V58H304.753V53.136C304.753 51.8133 304.267 51.152 303.297 51.152C302.817 51.152 302.395 51.328 302.033 51.68C301.681 52.0213 301.505 52.528 301.505 53.2ZM312.162 51.12V54.976C312.162 55.3067 312.248 55.568 312.418 55.76C312.589 55.9413 312.792 56.032 313.026 56.032C313.474 56.032 313.853 55.8293 314.162 55.424L315.058 57.104C314.312 57.7867 313.522 58.128 312.69 58.128C311.869 58.128 311.17 57.856 310.594 57.312C310.029 56.768 309.746 56.0267 309.746 55.088V51.12H308.738V49.392H309.746V46.816H312.162V49.392H314.242V51.12H312.162ZM323.757 58H321.501V56.96C320.883 57.7387 320.115 58.128 319.197 58.128C318.291 58.128 317.528 57.8667 316.909 57.344C316.291 56.8107 315.981 56.1067 315.981 55.232C315.981 54.3467 316.301 53.6853 316.941 53.248C317.581 52.8107 318.456 52.592 319.565 52.592H321.357V52.544C321.357 51.6267 320.872 51.168 319.901 51.168C319.485 51.168 319.043 51.2533 318.573 51.424C318.115 51.584 317.725 51.7867 317.405 52.032L316.333 50.48C317.464 49.6587 318.755 49.248 320.205 49.248C321.251 49.248 322.104 49.5093 322.765 50.032C323.427 50.5547 323.757 51.3813 323.757 52.512V58ZM321.341 54.72V54.304H319.837C318.877 54.304 318.397 54.6027 318.397 55.2C318.397 55.5093 318.509 55.7493 318.733 55.92C318.968 56.08 319.299 56.16 319.725 56.16C320.152 56.16 320.525 56.032 320.845 55.776C321.176 55.5093 321.341 55.1573 321.341 54.72ZM330.173 56C330.973 56 331.693 55.6 332.333 54.8L333.757 56.4C332.648 57.552 331.448 58.128 330.157 58.128C328.867 58.128 327.773 57.7227 326.877 56.912C325.992 56.0907 325.549 55.024 325.549 53.712C325.549 52.3893 325.997 51.3173 326.893 50.496C327.8 49.664 328.872 49.248 330.109 49.248C330.728 49.248 331.352 49.376 331.981 49.632C332.621 49.888 333.181 50.2667 333.661 50.768L332.413 52.4C332.136 52.0693 331.795 51.8133 331.389 51.632C330.995 51.4507 330.6 51.36 330.205 51.36C329.576 51.36 329.032 51.568 328.573 51.984C328.125 52.3893 327.901 52.96 327.901 53.696C327.901 54.4213 328.125 54.9867 328.573 55.392C329.032 55.7973 329.565 56 330.173 56ZM338.322 51.12V54.976C338.322 55.3067 338.407 55.568 338.578 55.76C338.749 55.9413 338.951 56.032 339.186 56.032C339.634 56.032 340.013 55.8293 340.322 55.424L341.218 57.104C340.471 57.7867 339.682 58.128 338.85 58.128C338.029 58.128 337.33 57.856 336.754 57.312C336.189 56.768 335.906 56.0267 335.906 55.088V51.12H334.898V49.392H335.906V46.816H338.322V49.392H340.402V51.12H338.322ZM350.124 55.12C350.54 55.632 351.1 55.888 351.804 55.888C352.508 55.888 353.062 55.632 353.468 55.12C353.884 54.5973 354.092 53.888 354.092 52.992V46.816H356.588V53.072C356.588 54.6933 356.14 55.9413 355.244 56.816C354.348 57.68 353.201 58.112 351.804 58.112C350.406 58.112 349.254 57.6747 348.348 56.8C347.452 55.9253 347.004 54.6827 347.004 53.072V46.816H349.5V52.992C349.5 53.888 349.708 54.5973 350.124 55.12ZM365.3 55.328C365.3 56.1707 364.986 56.848 364.356 57.36C363.738 57.872 362.948 58.128 361.988 58.128C361.348 58.128 360.682 58.016 359.988 57.792C359.295 57.5573 358.671 57.216 358.116 56.768L359.172 55.264C360.068 55.9573 361.023 56.304 362.036 56.304C362.346 56.304 362.591 56.2453 362.772 56.128C362.954 56 363.044 55.8347 363.044 55.632C363.044 55.4293 362.916 55.2427 362.66 55.072C362.415 54.9013 362.052 54.7413 361.572 54.592C361.103 54.4427 360.74 54.3147 360.484 54.208C360.239 54.1013 359.956 53.9467 359.636 53.744C358.986 53.3387 358.66 52.7413 358.66 51.952C358.66 51.152 358.98 50.5013 359.62 50C360.26 49.4987 361.087 49.248 362.1 49.248C363.114 49.248 364.127 49.5893 365.14 50.272L364.244 51.872C363.498 51.36 362.751 51.104 362.004 51.104C361.268 51.104 360.9 51.3067 360.9 51.712C360.9 51.936 361.018 52.112 361.252 52.24C361.487 52.368 361.876 52.5173 362.42 52.688C362.964 52.8587 363.348 52.992 363.572 53.088C363.807 53.1733 364.084 53.312 364.404 53.504C365.002 53.8667 365.3 54.4747 365.3 55.328Z" fill="#252B42"/>
<path d="M129.516 89.4L121.956 104.68H118.236L110.716 89.4V107H104.476V79.04H112.916L120.116 94.4L127.356 79.04H135.756V107H129.516V89.4ZM160.52 107H154.88V104.4C153.333 106.347 151.413 107.32 149.12 107.32C146.853 107.32 144.947 106.667 143.4 105.36C141.853 104.027 141.08 102.267 141.08 100.08C141.08 97.8667 141.88 96.2133 143.48 95.12C145.08 94.0267 147.267 93.48 150.04 93.48H154.52V93.36C154.52 91.0667 153.307 89.92 150.88 89.92C149.84 89.92 148.733 90.1333 147.56 90.56C146.413 90.96 145.44 91.4667 144.64 92.08L141.96 88.2C144.787 86.1467 148.013 85.12 151.64 85.12C154.253 85.12 156.387 85.7733 158.04 87.08C159.693 88.3867 160.52 90.4533 160.52 93.28V107ZM154.48 98.8V97.76H150.72C148.32 97.76 147.12 98.5067 147.12 100C147.12 100.773 147.4 101.373 147.96 101.8C148.547 102.2 149.373 102.4 150.44 102.4C151.507 102.4 152.44 102.08 153.24 101.44C154.067 100.773 154.48 99.8933 154.48 98.8ZM172.19 107H166.19V77.32H172.19V92.56L178.87 85.44H186.43L178.23 94.16L186.75 107H179.63L174.15 98.76L172.19 100.8V107ZM208.819 103.88C206.392 106.173 203.539 107.32 200.259 107.32C197.006 107.32 194.312 106.32 192.179 104.32C190.046 102.293 188.979 99.5867 188.979 96.2C188.979 92.8133 190.059 90.12 192.219 88.12C194.406 86.12 196.979 85.12 199.939 85.12C202.899 85.12 205.406 86.0133 207.459 87.8C209.539 89.5867 210.579 92.04 210.579 95.16V98.36H194.899C195.086 99.5333 195.699 100.493 196.739 101.24C197.779 101.987 198.952 102.36 200.259 102.36C202.366 102.36 204.099 101.653 205.459 100.24L208.819 103.88ZM204.499 94.08C204.366 92.8 203.886 91.8133 203.059 91.12C202.232 90.4267 201.219 90.08 200.019 90.08C198.846 90.08 197.766 90.44 196.779 91.16C195.792 91.88 195.219 92.8533 195.059 94.08H204.499ZM244.132 107H238.492V104.4C236.946 106.347 235.026 107.32 232.732 107.32C230.466 107.32 228.559 106.667 227.012 105.36C225.466 104.027 224.692 102.267 224.692 100.08C224.692 97.8667 225.492 96.2133 227.092 95.12C228.692 94.0267 230.879 93.48 233.652 93.48H238.132V93.36C238.132 91.0667 236.919 89.92 234.492 89.92C233.452 89.92 232.346 90.1333 231.172 90.56C230.026 90.96 229.052 91.4667 228.252 92.08L225.572 88.2C228.399 86.1467 231.626 85.12 235.252 85.12C237.866 85.12 239.999 85.7733 241.652 87.08C243.306 88.3867 244.132 90.4533 244.132 93.28V107ZM238.092 98.8V97.76H234.332C231.932 97.76 230.732 98.5067 230.732 100C230.732 100.773 231.012 101.373 231.572 101.8C232.159 102.2 232.986 102.4 234.052 102.4C235.119 102.4 236.052 102.08 236.852 101.44C237.679 100.773 238.092 99.8933 238.092 98.8ZM255.802 95V107H249.802V85.48H255.802V87.88C257.616 86.04 259.656 85.12 261.922 85.12C264.189 85.12 266.082 85.92 267.602 87.52C269.149 89.12 269.922 91.2533 269.922 93.92V107H263.922V94.84C263.922 91.5333 262.709 89.88 260.282 89.88C259.082 89.88 258.029 90.32 257.122 91.2C256.242 92.0533 255.802 93.32 255.802 95ZM306.816 107L304.216 100.96H292.496L289.896 107H283.256L295.336 79.04H301.376L313.456 107H306.816ZM298.376 87.36L294.856 95.48H301.856L298.376 87.36ZM328.821 85.12C331.328 85.12 333.554 86.1733 335.501 88.28C337.474 90.36 338.461 92.9867 338.461 96.16C338.461 99.3333 337.474 101.987 335.501 104.12C333.554 106.253 331.261 107.32 328.621 107.32C326.008 107.32 323.901 106.267 322.301 104.16V114.76H316.301V85.48H322.301V87.88C324.141 86.04 326.314 85.12 328.821 85.12ZM322.221 96.28C322.221 98.0133 322.701 99.44 323.661 100.56C324.648 101.653 325.834 102.2 327.221 102.2C328.608 102.2 329.821 101.653 330.861 100.56C331.901 99.44 332.421 98.0133 332.421 96.28C332.421 94.5467 331.914 93.0933 330.901 91.92C329.888 90.7467 328.674 90.16 327.261 90.16C325.848 90.16 324.648 90.7467 323.661 91.92C322.701 93.0667 322.221 94.52 322.221 96.28ZM355.662 85.12C358.168 85.12 360.395 86.1733 362.342 88.28C364.315 90.36 365.302 92.9867 365.302 96.16C365.302 99.3333 364.315 101.987 362.342 104.12C360.395 106.253 358.102 107.32 355.462 107.32C352.848 107.32 350.742 106.267 349.142 104.16V114.76H343.142V85.48H349.142V87.88C350.982 86.04 353.155 85.12 355.662 85.12ZM349.062 96.28C349.062 98.0133 349.542 99.44 350.502 100.56C351.488 101.653 352.675 102.2 354.062 102.2C355.448 102.2 356.662 101.653 357.702 100.56C358.742 99.44 359.262 98.0133 359.262 96.28C359.262 94.5467 358.755 93.0933 357.742 91.92C356.728 90.7467 355.515 90.16 354.102 90.16C352.688 90.16 351.488 90.7467 350.502 91.92C349.542 93.0667 349.062 94.52 349.062 96.28ZM374.782 96.24C374.782 98 375.276 99.44 376.262 100.56C377.276 101.653 378.556 102.2 380.102 102.2C381.676 102.2 382.956 101.653 383.942 100.56C384.956 99.44 385.462 98 385.462 96.24C385.462 94.48 384.956 93.04 383.942 91.92C382.956 90.8 381.676 90.24 380.102 90.24C378.556 90.24 377.276 90.8 376.262 91.92C375.276 93.04 374.782 94.48 374.782 96.24ZM391.502 96.24C391.502 99.36 390.422 101.987 388.262 104.12C386.102 106.253 383.382 107.32 380.102 107.32C376.849 107.32 374.142 106.253 371.982 104.12C369.822 101.987 368.742 99.36 368.742 96.24C368.742 93.12 369.822 90.4933 371.982 88.36C374.142 86.2 376.849 85.12 380.102 85.12C383.382 85.12 386.102 86.2 388.262 88.36C390.422 90.4933 391.502 93.12 391.502 96.24ZM402.159 107H396.159V85.48H402.159V107ZM396.639 82.76C395.972 82.0667 395.639 81.2267 395.639 80.24C395.639 79.2533 395.972 78.4267 396.639 77.76C397.332 77.0667 398.172 76.72 399.159 76.72C400.145 76.72 400.972 77.0667 401.639 77.76C402.332 78.4267 402.679 79.2533 402.679 80.24C402.679 81.2267 402.332 82.0667 401.639 82.76C400.972 83.4267 400.145 83.76 399.159 83.76C398.172 83.76 397.332 83.4267 396.639 82.76ZM414.038 95V107H408.038V85.48H414.038V87.88C415.852 86.04 417.892 85.12 420.158 85.12C422.425 85.12 424.318 85.92 425.838 87.52C427.385 89.12 428.158 91.2533 428.158 93.92V107H422.158V94.84C422.158 91.5333 420.945 89.88 418.518 89.88C417.318 89.88 416.265 90.32 415.358 91.2C414.478 92.0533 414.038 93.32 414.038 95ZM440.633 89.8V99.44C440.633 100.267 440.846 100.92 441.273 101.4C441.699 101.853 442.206 102.08 442.793 102.08C443.913 102.08 444.859 101.573 445.633 100.56L447.873 104.76C446.006 106.467 444.033 107.32 441.953 107.32C439.899 107.32 438.153 106.64 436.713 105.28C435.299 103.92 434.593 102.067 434.593 99.72V89.8H432.073V85.48H434.593V79.04H440.633V85.48H445.833V89.8H440.633ZM471.05 95.4V107H465.01V95.24C465.01 93.5333 464.743 92.28 464.21 91.48C463.703 90.68 462.863 90.28 461.69 90.28C460.543 90.28 459.517 90.72 458.61 91.6C457.73 92.4533 457.29 93.72 457.29 95.4V107H451.29V85.48H457.29V87.92C458.943 86.0533 460.837 85.12 462.97 85.12C464.33 85.12 465.557 85.52 466.65 86.32C467.77 87.12 468.61 88.0933 469.17 89.24C469.997 87.9333 471.103 86.92 472.49 86.2C473.903 85.48 475.317 85.12 476.73 85.12C479.263 85.12 481.303 85.88 482.85 87.4C484.397 88.8933 485.17 91.0667 485.17 93.92V107H479.13V95.24C479.13 91.9333 477.917 90.28 475.49 90.28C474.29 90.28 473.25 90.72 472.37 91.6C471.49 92.4533 471.05 93.72 471.05 95.4ZM509.466 103.88C507.039 106.173 504.186 107.32 500.906 107.32C497.653 107.32 494.959 106.32 492.826 104.32C490.693 102.293 489.626 99.5867 489.626 96.2C489.626 92.8133 490.706 90.12 492.866 88.12C495.053 86.12 497.626 85.12 500.586 85.12C503.546 85.12 506.053 86.0133 508.106 87.8C510.186 89.5867 511.226 92.04 511.226 95.16V98.36H495.546C495.733 99.5333 496.346 100.493 497.386 101.24C498.426 101.987 499.599 102.36 500.906 102.36C503.013 102.36 504.746 101.653 506.106 100.24L509.466 103.88ZM505.146 94.08C505.013 92.8 504.533 91.8133 503.706 91.12C502.879 90.4267 501.866 90.08 500.666 90.08C499.493 90.08 498.413 90.44 497.426 91.16C496.439 91.88 495.866 92.8533 495.706 94.08H505.146ZM521.752 95V107H515.752V85.48H521.752V87.88C523.566 86.04 525.606 85.12 527.872 85.12C530.139 85.12 532.032 85.92 533.552 87.52C535.099 89.12 535.872 91.2533 535.872 93.92V107H529.872V94.84C529.872 91.5333 528.659 89.88 526.232 89.88C525.032 89.88 523.979 90.32 523.072 91.2C522.192 92.0533 521.752 93.32 521.752 95ZM548.347 89.8V99.44C548.347 100.267 548.56 100.92 548.987 101.4C549.414 101.853 549.92 102.08 550.507 102.08C551.627 102.08 552.574 101.573 553.347 100.56L555.587 104.76C553.72 106.467 551.747 107.32 549.667 107.32C547.614 107.32 545.867 106.64 544.427 105.28C543.014 103.92 542.307 102.067 542.307 99.72V89.8H539.787V85.48H542.307V79.04H548.347V85.48H553.547V89.8H548.347Z" fill="#252B42"/>
<g clip-path="url(#clip0_688_3676)">
<rect width="537" height="280" transform="translate(60 161)" fill="white"/>
<g clip-path="url(#clip1_688_3676)">
<rect x="64" y="161.5" width="254" height="49" rx="4.5" fill="#F9F9F9"/>
<rect x="64" y="161.5" width="254" height="49" rx="4.5" stroke="#E6E6E6"/>
<path d="M87.51 182.754V185.442H91.85V186.968H87.51V191H85.858V181.214H92.382L92.368 182.754H87.51ZM99.3272 187.584V183.552H100.895V191H99.3272V189.642C99.0752 190.099 98.7252 190.459 98.2772 190.72C97.8385 190.981 97.3625 191.112 96.8492 191.112C96.0092 191.112 95.3278 190.855 94.8052 190.342C94.2918 189.829 94.0352 189.087 94.0352 188.116V183.552H95.6032V187.64C95.6032 189.012 96.1725 189.698 97.3112 189.698C97.8525 189.698 98.3238 189.521 98.7252 189.166C99.1265 188.802 99.3272 188.275 99.3272 187.584ZM104.938 191H103.37V180.612H104.938V191ZM108.98 191H107.412V180.612H108.98V191ZM123.055 181.214H124.707V191H122.915L117.371 183.86V191H115.719V181.214H117.371L123.055 188.522V181.214ZM133.432 191H132.004V190.006C131.388 190.743 130.562 191.112 129.526 191.112C128.752 191.112 128.108 190.893 127.594 190.454C127.09 190.015 126.838 189.432 126.838 188.704C126.838 187.967 127.109 187.416 127.65 187.052C128.192 186.688 128.924 186.506 129.848 186.506H131.878V186.226C131.878 185.237 131.328 184.742 130.226 184.742C129.536 184.742 128.817 184.994 128.07 185.498L127.37 184.518C128.276 183.799 129.302 183.44 130.45 183.44C131.328 183.44 132.042 183.664 132.592 184.112C133.152 184.551 133.432 185.246 133.432 186.198V191ZM131.864 188.228V187.598H130.1C128.971 187.598 128.406 187.953 128.406 188.662C128.406 189.026 128.546 189.306 128.826 189.502C129.106 189.689 129.494 189.782 129.988 189.782C130.492 189.782 130.931 189.642 131.304 189.362C131.678 189.082 131.864 188.704 131.864 188.228ZM137.383 186.968V191H135.815V183.552H137.383V184.91C137.607 184.453 137.943 184.093 138.391 183.832C138.849 183.571 139.339 183.44 139.861 183.44C141.037 183.44 141.835 183.925 142.255 184.896C142.993 183.925 143.912 183.44 145.013 183.44C145.853 183.44 146.53 183.697 147.043 184.21C147.566 184.723 147.827 185.465 147.827 186.436V191H146.259V186.912C146.259 185.54 145.69 184.854 144.551 184.854C144.019 184.854 143.553 185.027 143.151 185.372C142.759 185.708 142.554 186.203 142.535 186.856V191H140.967V186.912C140.967 186.203 140.841 185.685 140.589 185.358C140.337 185.022 139.941 184.854 139.399 184.854C138.858 184.854 138.387 185.036 137.985 185.4C137.584 185.755 137.383 186.277 137.383 186.968ZM157.137 187.962H151.299C151.336 188.503 151.583 188.942 152.041 189.278C152.498 189.605 153.021 189.768 153.609 189.768C154.542 189.768 155.251 189.474 155.737 188.886L156.633 189.866C155.83 190.697 154.785 191.112 153.497 191.112C152.451 191.112 151.56 190.767 150.823 190.076C150.095 189.376 149.731 188.443 149.731 187.276C149.731 186.1 150.104 185.167 150.851 184.476C151.597 183.785 152.475 183.44 153.483 183.44C154.5 183.44 155.363 183.748 156.073 184.364C156.782 184.971 157.137 185.811 157.137 186.884V187.962ZM151.299 186.73H155.569C155.569 186.105 155.373 185.624 154.981 185.288C154.589 184.952 154.103 184.784 153.525 184.784C152.955 184.784 152.442 184.961 151.985 185.316C151.527 185.661 151.299 186.133 151.299 186.73ZM166.687 184.98L165.357 184.084L165.469 185.68H164.517L164.629 184.07L163.299 184.966L162.823 184.154L164.251 183.44L162.823 182.74L163.299 181.914L164.615 182.796L164.517 181.214H165.469L165.371 182.796L166.687 181.928L167.163 182.74L165.721 183.44L167.163 184.154L166.687 184.98Z" fill="#737373"/>
</g>
<g clip-path="url(#clip2_688_3676)">
<rect x="339" y="161.5" width="254" height="49" rx="4.5" fill="#F9F9F9"/>
<rect x="339" y="161.5" width="254" height="49" rx="4.5" stroke="#E6E6E6"/>
<path d="M367.732 181.214V182.768H362.51V185.358H367.2V186.828H362.51V189.446H367.9V191H360.858V181.214H367.732ZM371.562 186.968V191H369.994V183.552H371.562V184.91C371.786 184.453 372.122 184.093 372.57 183.832C373.027 183.571 373.517 183.44 374.04 183.44C375.216 183.44 376.014 183.925 376.434 184.896C377.171 183.925 378.091 183.44 379.192 183.44C380.032 183.44 380.709 183.697 381.222 184.21C381.745 184.723 382.006 185.465 382.006 186.436V191H380.438V186.912C380.438 185.54 379.869 184.854 378.73 184.854C378.198 184.854 377.731 185.027 377.33 185.372C376.938 185.708 376.733 186.203 376.714 186.856V191H375.146V186.912C375.146 186.203 375.02 185.685 374.768 185.358C374.516 185.022 374.119 184.854 373.578 184.854C373.037 184.854 372.565 185.036 372.164 185.4C371.763 185.755 371.562 186.277 371.562 186.968ZM390.42 191H388.992V190.006C388.376 190.743 387.55 191.112 386.514 191.112C385.739 191.112 385.095 190.893 384.582 190.454C384.078 190.015 383.826 189.432 383.826 188.704C383.826 187.967 384.096 187.416 384.638 187.052C385.179 186.688 385.912 186.506 386.836 186.506H388.866V186.226C388.866 185.237 388.315 184.742 387.214 184.742C386.523 184.742 385.804 184.994 385.058 185.498L384.358 184.518C385.263 183.799 386.29 183.44 387.438 183.44C388.315 183.44 389.029 183.664 389.58 184.112C390.14 184.551 390.42 185.246 390.42 186.198V191ZM388.852 188.228V187.598H387.088C385.958 187.598 385.394 187.953 385.394 188.662C385.394 189.026 385.534 189.306 385.814 189.502C386.094 189.689 386.481 189.782 386.976 189.782C387.48 189.782 387.918 189.642 388.292 189.362C388.665 189.082 388.852 188.704 388.852 188.228ZM394.37 191H392.802V183.552H394.37V191ZM392.9 182.068C392.704 181.872 392.606 181.639 392.606 181.368C392.606 181.097 392.704 180.864 392.9 180.668C393.096 180.472 393.33 180.374 393.6 180.374C393.871 180.374 394.104 180.472 394.3 180.668C394.496 180.864 394.594 181.097 394.594 181.368C394.594 181.639 394.496 181.872 394.3 182.068C394.104 182.264 393.871 182.362 393.6 182.362C393.33 182.362 393.096 182.264 392.9 182.068ZM398.412 191H396.844V180.612H398.412V191ZM408.512 184.98L407.182 184.084L407.294 185.68H406.342L406.454 184.07L405.124 184.966L404.648 184.154L406.076 183.44L404.648 182.74L405.124 181.914L406.44 182.796L406.342 181.214H407.294L407.196 182.796L408.512 181.928L408.988 182.74L407.546 183.44L408.988 184.154L408.512 184.98Z" fill="#737373"/>
</g>
<g clip-path="url(#clip3_688_3676)">
<g clip-path="url(#clip4_688_3676)">
<rect x="64" y="231.5" width="254" height="49" rx="4.5" fill="#F9F9F9"/>
<rect x="64" y="231.5" width="254" height="49" rx="4.5" stroke="#DDDDDD"/>
<path d="M86.218 251.214C87.702 251.214 88.7847 251.499 89.466 252.068C90.1473 252.637 90.488 253.515 90.488 254.7C90.488 255.885 90.138 256.753 89.438 257.304C88.7473 257.855 87.6833 258.13 86.246 258.13H84.51V261H82.858V251.214H86.218ZM86.428 256.632C87.3427 256.632 87.9633 256.459 88.29 256.114C88.626 255.759 88.794 255.246 88.794 254.574C88.794 253.893 88.584 253.412 88.164 253.132C87.744 252.852 87.086 252.712 86.19 252.712H84.51V256.632H86.428ZM93.9723 261H92.4043V250.612H93.9723V261ZM103.376 257.962H97.5381C97.5754 258.503 97.8228 258.942 98.2801 259.278C98.7374 259.605 99.2601 259.768 99.8481 259.768C100.781 259.768 101.491 259.474 101.976 258.886L102.872 259.866C102.069 260.697 101.024 261.112 99.7361 261.112C98.6908 261.112 97.7994 260.767 97.0621 260.076C96.3341 259.376 95.9701 258.443 95.9701 257.276C95.9701 256.1 96.3434 255.167 97.0901 254.476C97.8368 253.785 98.7141 253.44 99.7221 253.44C100.739 253.44 101.603 253.748 102.312 254.364C103.021 254.971 103.376 255.811 103.376 256.884V257.962ZM97.5381 256.73H101.808C101.808 256.105 101.612 255.624 101.22 255.288C100.828 254.952 100.343 254.784 99.7641 254.784C99.1948 254.784 98.6814 254.961 98.2241 255.316C97.7668 255.661 97.5381 256.133 97.5381 256.73ZM111.334 261H109.906V260.006C109.29 260.743 108.464 261.112 107.428 261.112C106.654 261.112 106.01 260.893 105.496 260.454C104.992 260.015 104.74 259.432 104.74 258.704C104.74 257.967 105.011 257.416 105.552 257.052C106.094 256.688 106.826 256.506 107.75 256.506H109.78V256.226C109.78 255.237 109.23 254.742 108.128 254.742C107.438 254.742 106.719 254.994 105.972 255.498L105.272 254.518C106.178 253.799 107.204 253.44 108.352 253.44C109.23 253.44 109.944 253.664 110.494 254.112C111.054 254.551 111.334 255.246 111.334 256.198V261ZM109.766 258.228V257.598H108.002C106.873 257.598 106.308 257.953 106.308 258.662C106.308 259.026 106.448 259.306 106.728 259.502C107.008 259.689 107.396 259.782 107.89 259.782C108.394 259.782 108.833 259.642 109.206 259.362C109.58 259.082 109.766 258.704 109.766 258.228ZM119.023 258.774C119.023 259.483 118.767 260.053 118.253 260.482C117.74 260.902 117.082 261.112 116.279 261.112C115.738 261.112 115.173 261.014 114.585 260.818C114.007 260.622 113.493 260.347 113.045 259.992L113.801 258.774C114.669 259.427 115.509 259.754 116.321 259.754C116.676 259.754 116.956 259.675 117.161 259.516C117.367 259.348 117.469 259.138 117.469 258.886C117.469 258.513 116.975 258.177 115.985 257.878C115.911 257.85 115.855 257.831 115.817 257.822C114.268 257.402 113.493 256.702 113.493 255.722C113.493 255.031 113.759 254.481 114.291 254.07C114.833 253.65 115.533 253.44 116.391 253.44C117.25 253.44 118.062 253.692 118.827 254.196L118.239 255.358C117.633 254.957 116.975 254.756 116.265 254.756C115.892 254.756 115.589 254.826 115.355 254.966C115.122 255.097 115.005 255.297 115.005 255.568C115.005 255.811 115.127 255.988 115.369 256.1C115.537 256.184 115.771 256.263 116.069 256.338C116.377 256.413 116.648 256.487 116.881 256.562C117.115 256.637 117.339 256.721 117.553 256.814C117.777 256.907 118.015 257.038 118.267 257.206C118.771 257.542 119.023 258.065 119.023 258.774ZM127.929 257.962H122.091C122.129 258.503 122.376 258.942 122.833 259.278C123.291 259.605 123.813 259.768 124.401 259.768C125.335 259.768 126.044 259.474 126.529 258.886L127.425 259.866C126.623 260.697 125.577 261.112 124.289 261.112C123.244 261.112 122.353 260.767 121.615 260.076C120.887 259.376 120.523 258.443 120.523 257.276C120.523 256.1 120.897 255.167 121.643 254.476C122.39 253.785 123.267 253.44 124.275 253.44C125.293 253.44 126.156 253.748 126.865 254.364C127.575 254.971 127.929 255.811 127.929 256.884V257.962ZM122.091 256.73H126.361C126.361 256.105 126.165 255.624 125.773 255.288C125.381 254.952 124.896 254.784 124.317 254.784C123.748 254.784 123.235 254.961 122.777 255.316C122.32 255.661 122.091 256.133 122.091 256.73ZM137.073 252.502C136.597 252.502 136.205 252.6 135.897 252.796C135.589 252.992 135.435 253.291 135.435 253.692C135.435 254.084 135.589 254.387 135.897 254.602C136.205 254.807 136.859 255.031 137.857 255.274C138.865 255.517 139.621 255.857 140.125 256.296C140.639 256.735 140.895 257.383 140.895 258.242C140.895 259.091 140.573 259.782 139.929 260.314C139.285 260.846 138.441 261.112 137.395 261.112C135.865 261.112 134.507 260.585 133.321 259.53L134.357 258.284C135.347 259.143 136.373 259.572 137.437 259.572C137.969 259.572 138.389 259.46 138.697 259.236C139.015 259.003 139.173 258.699 139.173 258.326C139.173 257.943 139.024 257.649 138.725 257.444C138.436 257.229 137.932 257.038 137.213 256.87C136.495 256.693 135.949 256.534 135.575 256.394C135.202 256.245 134.871 256.053 134.581 255.82C134.003 255.381 133.713 254.709 133.713 253.804C133.713 252.899 134.04 252.203 134.693 251.718C135.356 251.223 136.173 250.976 137.143 250.976C137.769 250.976 138.389 251.079 139.005 251.284C139.621 251.489 140.153 251.779 140.601 252.152L139.719 253.398C139.43 253.137 139.038 252.922 138.543 252.754C138.049 252.586 137.559 252.502 137.073 252.502ZM149.844 257.962H144.006C144.043 258.503 144.29 258.942 144.748 259.278C145.205 259.605 145.728 259.768 146.316 259.768C147.249 259.768 147.958 259.474 148.444 258.886L149.34 259.866C148.537 260.697 147.492 261.112 146.204 261.112C145.158 261.112 144.267 260.767 143.53 260.076C142.802 259.376 142.438 258.443 142.438 257.276C142.438 256.1 142.811 255.167 143.558 254.476C144.304 253.785 145.182 253.44 146.19 253.44C147.207 253.44 148.07 253.748 148.78 254.364C149.489 254.971 149.844 255.811 149.844 256.884V257.962ZM144.006 256.73H148.276C148.276 256.105 148.08 255.624 147.688 255.288C147.296 254.952 146.81 254.784 146.232 254.784C145.662 254.784 145.149 254.961 144.692 255.316C144.234 255.661 144.006 256.133 144.006 256.73ZM153.336 261H151.768V250.612H153.336V261ZM162.74 257.962H156.902C156.939 258.503 157.186 258.942 157.644 259.278C158.101 259.605 158.624 259.768 159.212 259.768C160.145 259.768 160.854 259.474 161.34 258.886L162.236 259.866C161.433 260.697 160.388 261.112 159.1 261.112C158.054 261.112 157.163 260.767 156.426 260.076C155.698 259.376 155.334 258.443 155.334 257.276C155.334 256.1 155.707 255.167 156.454 254.476C157.2 253.785 158.078 253.44 159.086 253.44C160.103 253.44 160.966 253.748 161.676 254.364C162.385 254.971 162.74 255.811 162.74 256.884V257.962ZM156.902 256.73H161.172C161.172 256.105 160.976 255.624 160.584 255.288C160.192 254.952 159.706 254.784 159.128 254.784C158.558 254.784 158.045 254.961 157.588 255.316C157.13 255.661 156.902 256.133 156.902 256.73ZM167.968 261.112C166.932 261.112 166.041 260.762 165.294 260.062C164.547 259.353 164.174 258.429 164.174 257.29C164.174 256.151 164.561 255.227 165.336 254.518C166.12 253.799 167.072 253.44 168.192 253.44C169.312 253.44 170.259 253.827 171.034 254.602L170.11 255.736C169.466 255.176 168.817 254.896 168.164 254.896C167.511 254.896 166.941 255.115 166.456 255.554C165.98 255.983 165.742 256.543 165.742 257.234C165.742 257.915 165.98 258.494 166.456 258.97C166.932 259.446 167.515 259.684 168.206 259.684C168.906 259.684 169.564 259.367 170.18 258.732L171.104 259.74C170.199 260.655 169.153 261.112 167.968 261.112ZM174.862 254.812V258.592C174.862 258.947 174.956 259.231 175.142 259.446C175.329 259.651 175.59 259.754 175.926 259.754C176.262 259.754 176.584 259.591 176.892 259.264L177.536 260.37C176.986 260.865 176.374 261.112 175.702 261.112C175.04 261.112 174.47 260.883 173.994 260.426C173.528 259.959 173.294 259.334 173.294 258.55V254.812H172.356V253.552H173.294V251.214H174.862V253.552H176.822V254.812H174.862Z" fill="#737373"/>
<path d="M277.492 252L282.492 257L287.492 252L289.492 253L282.492 260L275.492 253L277.492 252Z" fill="#737373"/>
</g>
</g>
<g clip-path="url(#clip5_688_3676)">
<g clip-path="url(#clip6_688_3676)">
<rect x="339" y="231.5" width="254" height="49" rx="4.5" fill="#F9F9F9"/>
<rect x="339" y="231.5" width="254" height="49" rx="4.5" stroke="#DDDDDD"/>
<path d="M365.852 255.234H364.116V253.26H362.408V255.234H359.202L363.752 249.2H361.806L356.976 255.514V256.774H362.352V259H364.116V256.774H365.852V255.234ZM368.006 253.764C368.636 253.764 369.154 253.274 369.154 252.602C369.154 251.902 368.636 251.44 368.006 251.44C367.376 251.44 366.858 251.902 366.858 252.602C366.858 253.274 367.376 253.764 368.006 253.764ZM368.006 259.098C368.636 259.098 369.154 258.608 369.154 257.936C369.154 257.236 368.636 256.774 368.006 256.774C367.376 256.774 366.858 257.236 366.858 257.936C366.858 258.608 367.376 259.098 368.006 259.098ZM374.62 259.14C376.958 259.14 378.722 257.32 378.722 254.1C378.722 250.88 376.958 249.06 374.62 249.06C372.296 249.06 370.532 250.88 370.532 254.1C370.532 257.32 372.296 259.14 374.62 259.14ZM374.62 257.558C373.29 257.558 372.366 256.466 372.366 254.1C372.366 251.734 373.29 250.642 374.62 250.642C375.964 250.642 376.888 251.734 376.888 254.1C376.888 256.466 375.964 257.558 374.62 257.558ZM384.24 259.14C386.578 259.14 388.342 257.32 388.342 254.1C388.342 250.88 386.578 249.06 384.24 249.06C381.916 249.06 380.152 250.88 380.152 254.1C380.152 257.32 381.916 259.14 384.24 259.14ZM384.24 257.558C382.91 257.558 381.986 256.466 381.986 254.1C381.986 251.734 382.91 250.642 384.24 250.642C385.584 250.642 386.508 251.734 386.508 254.1C386.508 256.466 385.584 257.558 384.24 257.558ZM401.877 259H403.781L399.357 249.2H397.565L393.155 259H395.031L395.997 256.732H400.897L401.877 259ZM396.613 255.304L398.447 251.02L400.295 255.304H396.613ZM409.996 251.524L407.602 257.068L405.278 251.524H403.458L406.664 259H408.47L411.676 251.524H409.996ZM415.593 251.44C414.389 251.44 413.227 251.748 412.429 252.364L413.115 253.638C413.675 253.176 414.543 252.896 415.383 252.896C416.629 252.896 417.245 253.498 417.245 254.52V254.632H415.313C413.045 254.632 412.205 255.612 412.205 256.858C412.205 258.16 413.283 259.098 414.991 259.098C416.111 259.098 416.923 258.734 417.343 258.09V259H418.995V254.618C418.995 252.462 417.749 251.44 415.593 251.44ZM415.355 257.824C414.459 257.824 413.927 257.418 413.927 256.788C413.927 256.242 414.249 255.794 415.439 255.794H417.245V256.662C416.951 257.432 416.209 257.824 415.355 257.824ZM422.323 250.292C422.981 250.292 423.443 249.816 423.443 249.2C423.443 248.626 422.967 248.192 422.323 248.192C421.679 248.192 421.203 248.654 421.203 249.242C421.203 249.83 421.679 250.292 422.323 250.292ZM421.441 259H423.191V251.524H421.441V259ZM425.688 259H427.438V248.612H425.688V259ZM432.791 251.44C431.587 251.44 430.425 251.748 429.627 252.364L430.313 253.638C430.873 253.176 431.741 252.896 432.581 252.896C433.827 252.896 434.443 253.498 434.443 254.52V254.632H432.511C430.243 254.632 429.403 255.612 429.403 256.858C429.403 258.16 430.481 259.098 432.189 259.098C433.309 259.098 434.121 258.734 434.541 258.09V259H436.193V254.618C436.193 252.462 434.947 251.44 432.791 251.44ZM432.553 257.824C431.657 257.824 431.125 257.418 431.125 256.788C431.125 256.242 431.447 255.794 432.637 255.794H434.443V256.662C434.149 257.432 433.407 257.824 432.553 257.824ZM442.783 251.44C441.831 251.44 440.991 251.762 440.389 252.434V248.612H438.639V259H440.305V258.034C440.893 258.748 441.761 259.098 442.783 259.098C444.967 259.098 446.577 257.586 446.577 255.262C446.577 252.938 444.967 251.44 442.783 251.44ZM442.587 257.6C441.327 257.6 440.361 256.69 440.361 255.262C440.361 253.834 441.327 252.924 442.587 252.924C443.847 252.924 444.799 253.834 444.799 255.262C444.799 256.69 443.847 257.6 442.587 257.6ZM448.437 259H450.187V248.612H448.437V259ZM459.712 255.304C459.712 252.966 458.116 251.44 455.932 251.44C453.706 251.44 452.068 253.036 452.068 255.262C452.068 257.488 453.692 259.098 456.198 259.098C457.486 259.098 458.536 258.678 459.208 257.88L458.27 256.802C457.738 257.348 457.08 257.614 456.24 257.614C454.938 257.614 454.028 256.914 453.818 255.822H459.684C459.698 255.654 459.712 255.444 459.712 255.304ZM455.932 252.84C457.08 252.84 457.906 253.582 458.046 254.66H453.804C453.972 253.568 454.798 252.84 455.932 252.84Z" fill="#BDBDBD"/>
<path d="M552.492 252L557.492 257L562.492 252L564.492 253L557.492 260L550.492 253L552.492 252Z" fill="#737373"/>
</g>
</g>
<rect x="60.5" y="301.5" width="536" height="139" rx="4.5" fill="#F9F9F9"/>
<rect x="60.5" y="301.5" width="536" height="139" rx="4.5" stroke="#BDBDBD"/>
<path d="M98.04 334L98.026 324.2H96.528L92.706 330.696L88.814 324.2H87.316V334H89.052V327.588L92.272 332.88H93.084L96.304 327.504L96.318 334H98.04ZM107.747 330.304C107.747 327.966 106.151 326.44 103.967 326.44C101.741 326.44 100.103 328.036 100.103 330.262C100.103 332.488 101.727 334.098 104.233 334.098C105.521 334.098 106.571 333.678 107.243 332.88L106.305 331.802C105.773 332.348 105.115 332.614 104.275 332.614C102.973 332.614 102.063 331.914 101.853 330.822H107.719C107.733 330.654 107.747 330.444 107.747 330.304ZM103.967 327.84C105.115 327.84 105.941 328.582 106.081 329.66H101.839C102.007 328.568 102.833 327.84 103.967 327.84ZM111.938 334.098C114.038 334.098 115.326 333.188 115.326 331.788C115.326 328.862 110.706 330.206 110.706 328.694C110.706 328.204 111.21 327.854 112.274 327.854C112.988 327.854 113.702 327.994 114.416 328.414L115.088 327.084C114.416 326.678 113.282 326.44 112.288 326.44C110.272 326.44 108.998 327.364 108.998 328.778C108.998 331.76 113.618 330.416 113.618 331.844C113.618 332.362 113.156 332.67 112.05 332.67C111.112 332.67 110.104 332.362 109.446 331.928L108.774 333.258C109.446 333.734 110.692 334.098 111.938 334.098ZM119.343 334.098C121.443 334.098 122.731 333.188 122.731 331.788C122.731 328.862 118.111 330.206 118.111 328.694C118.111 328.204 118.615 327.854 119.679 327.854C120.393 327.854 121.107 327.994 121.821 328.414L122.493 327.084C121.821 326.678 120.687 326.44 119.693 326.44C117.677 326.44 116.403 327.364 116.403 328.778C116.403 331.76 121.023 330.416 121.023 331.844C121.023 332.362 120.561 332.67 119.455 332.67C118.517 332.67 117.509 332.362 116.851 331.928L116.179 333.258C116.851 333.734 118.097 334.098 119.343 334.098ZM127.294 326.44C126.09 326.44 124.928 326.748 124.13 327.364L124.816 328.638C125.376 328.176 126.244 327.896 127.084 327.896C128.33 327.896 128.946 328.498 128.946 329.52V329.632H127.014C124.746 329.632 123.906 330.612 123.906 331.858C123.906 333.16 124.984 334.098 126.692 334.098C127.812 334.098 128.624 333.734 129.044 333.09V334H130.696V329.618C130.696 327.462 129.45 326.44 127.294 326.44ZM127.056 332.824C126.16 332.824 125.628 332.418 125.628 331.788C125.628 331.242 125.95 330.794 127.14 330.794H128.946V331.662C128.652 332.432 127.91 332.824 127.056 332.824ZM138.965 326.524V327.518C138.349 326.776 137.425 326.44 136.375 326.44C134.233 326.44 132.595 327.868 132.595 330.038C132.595 332.208 134.233 333.664 136.375 333.664C137.383 333.664 138.265 333.342 138.881 332.67V333.062C138.881 334.574 138.153 335.33 136.501 335.33C135.465 335.33 134.401 334.98 133.743 334.434L132.959 335.75C133.812 336.45 135.199 336.814 136.599 336.814C139.217 336.814 140.631 335.582 140.631 332.866V326.524H138.965ZM136.641 332.18C135.311 332.18 134.359 331.312 134.359 330.038C134.359 328.778 135.311 327.924 136.641 327.924C137.957 327.924 138.909 328.778 138.909 330.038C138.909 331.312 137.957 332.18 136.641 332.18ZM150.159 330.304C150.159 327.966 148.563 326.44 146.379 326.44C144.153 326.44 142.515 328.036 142.515 330.262C142.515 332.488 144.139 334.098 146.645 334.098C147.933 334.098 148.983 333.678 149.655 332.88L148.717 331.802C148.185 332.348 147.527 332.614 146.687 332.614C145.385 332.614 144.475 331.914 144.265 330.822H150.131C150.145 330.654 150.159 330.444 150.159 330.304ZM146.379 327.84C147.527 327.84 148.353 328.582 148.493 329.66H144.251C144.419 328.568 145.245 327.84 146.379 327.84Z" fill="#BDBDBD"/>
</g>
<rect x="219.5" y="481" width="218" height="58" rx="5" fill="#23A6F0"/>
<path d="M265.257 515H260.973V505.214H264.781C265.443 505.214 266.013 505.293 266.489 505.452C266.974 505.611 267.338 505.825 267.581 506.096C268.019 506.6 268.239 507.169 268.239 507.804C268.239 508.569 267.991 509.139 267.497 509.512C267.329 509.643 267.212 509.727 267.147 509.764C267.081 509.792 266.965 509.843 266.797 509.918C267.403 510.049 267.884 510.324 268.239 510.744C268.603 511.155 268.785 511.668 268.785 512.284C268.785 512.965 268.551 513.567 268.085 514.09C267.543 514.697 266.601 515 265.257 515ZM263.157 509.176H264.193C264.799 509.176 265.247 509.111 265.537 508.98C265.835 508.849 265.985 508.569 265.985 508.14C265.985 507.701 265.849 507.412 265.579 507.272C265.308 507.132 264.851 507.062 264.207 507.062H263.157V509.176ZM263.157 513.152H264.655C265.28 513.152 265.747 513.077 266.055 512.928C266.372 512.769 266.531 512.466 266.531 512.018C266.531 511.561 266.363 511.262 266.027 511.122C265.7 510.973 265.173 510.898 264.445 510.898H263.157V513.152ZM272.227 511.234C272.227 511.85 272.399 512.354 272.745 512.746C273.099 513.129 273.547 513.32 274.089 513.32C274.639 513.32 275.087 513.129 275.433 512.746C275.787 512.354 275.965 511.85 275.965 511.234C275.965 510.618 275.787 510.114 275.433 509.722C275.087 509.33 274.639 509.134 274.089 509.134C273.547 509.134 273.099 509.33 272.745 509.722C272.399 510.114 272.227 510.618 272.227 511.234ZM278.079 511.234C278.079 512.326 277.701 513.245 276.945 513.992C276.189 514.739 275.237 515.112 274.089 515.112C272.95 515.112 272.003 514.739 271.247 513.992C270.491 513.245 270.113 512.326 270.113 511.234C270.113 510.142 270.491 509.223 271.247 508.476C272.003 507.72 272.95 507.342 274.089 507.342C275.237 507.342 276.189 507.72 276.945 508.476C277.701 509.223 278.079 510.142 278.079 511.234ZM281.518 511.234C281.518 511.85 281.691 512.354 282.036 512.746C282.391 513.129 282.839 513.32 283.38 513.32C283.931 513.32 284.379 513.129 284.724 512.746C285.079 512.354 285.256 511.85 285.256 511.234C285.256 510.618 285.079 510.114 284.724 509.722C284.379 509.33 283.931 509.134 283.38 509.134C282.839 509.134 282.391 509.33 282.036 509.722C281.691 510.114 281.518 510.618 281.518 511.234ZM287.37 511.234C287.37 512.326 286.992 513.245 286.236 513.992C285.48 514.739 284.528 515.112 283.38 515.112C282.242 515.112 281.294 514.739 280.538 513.992C279.782 513.245 279.404 512.326 279.404 511.234C279.404 510.142 279.782 509.223 280.538 508.476C281.294 507.72 282.242 507.342 283.38 507.342C284.528 507.342 285.48 507.72 286.236 508.476C286.992 509.223 287.37 510.142 287.37 511.234ZM291.23 515H289.13V504.612H291.23V509.946L293.568 507.454H296.214L293.344 510.506L296.326 515H293.834L291.916 512.116L291.23 512.83V515ZM308.73 515L307.82 512.886H303.718L302.808 515H300.484L304.712 505.214H306.826L311.054 515H308.73ZM305.776 508.126L304.544 510.968H306.994L305.776 508.126ZM316.561 507.342C317.439 507.342 318.218 507.711 318.899 508.448C319.59 509.176 319.935 510.095 319.935 511.206C319.935 512.317 319.59 513.245 318.899 513.992C318.218 514.739 317.415 515.112 316.491 515.112C315.577 515.112 314.839 514.743 314.279 514.006V517.716H312.179V507.468H314.279V508.308C314.923 507.664 315.684 507.342 316.561 507.342ZM314.251 511.248C314.251 511.855 314.419 512.354 314.755 512.746C315.101 513.129 315.516 513.32 316.001 513.32C316.487 513.32 316.911 513.129 317.275 512.746C317.639 512.354 317.821 511.855 317.821 511.248C317.821 510.641 317.644 510.133 317.289 509.722C316.935 509.311 316.51 509.106 316.015 509.106C315.521 509.106 315.101 509.311 314.755 509.722C314.419 510.123 314.251 510.632 314.251 511.248ZM326.086 507.342C326.963 507.342 327.742 507.711 328.424 508.448C329.114 509.176 329.46 510.095 329.46 511.206C329.46 512.317 329.114 513.245 328.424 513.992C327.742 514.739 326.94 515.112 326.016 515.112C325.101 515.112 324.364 514.743 323.804 514.006V517.716H321.704V507.468H323.804V508.308C324.448 507.664 325.208 507.342 326.086 507.342ZM323.776 511.248C323.776 511.855 323.944 512.354 324.28 512.746C324.625 513.129 325.04 513.32 325.526 513.32C326.011 513.32 326.436 513.129 326.8 512.746C327.164 512.354 327.346 511.855 327.346 511.248C327.346 510.641 327.168 510.133 326.814 509.722C326.459 509.311 326.034 509.106 325.54 509.106C325.045 509.106 324.625 509.311 324.28 509.722C323.944 510.123 323.776 510.632 323.776 511.248ZM332.908 511.234C332.908 511.85 333.08 512.354 333.426 512.746C333.78 513.129 334.228 513.32 334.77 513.32C335.32 513.32 335.768 513.129 336.114 512.746C336.468 512.354 336.646 511.85 336.646 511.234C336.646 510.618 336.468 510.114 336.114 509.722C335.768 509.33 335.32 509.134 334.77 509.134C334.228 509.134 333.78 509.33 333.426 509.722C333.08 510.114 332.908 510.618 332.908 511.234ZM338.76 511.234C338.76 512.326 338.382 513.245 337.626 513.992C336.87 514.739 335.918 515.112 334.77 515.112C333.631 515.112 332.684 514.739 331.928 513.992C331.172 513.245 330.794 512.326 330.794 511.234C330.794 510.142 331.172 509.223 331.928 508.476C332.684 507.72 333.631 507.342 334.77 507.342C335.918 507.342 336.87 507.72 337.626 508.476C338.382 509.223 338.76 510.142 338.76 511.234ZM342.62 515H340.52V507.468H342.62V515ZM340.688 506.516C340.454 506.273 340.338 505.979 340.338 505.634C340.338 505.289 340.454 504.999 340.688 504.766C340.93 504.523 341.224 504.402 341.57 504.402C341.915 504.402 342.204 504.523 342.438 504.766C342.68 504.999 342.802 505.289 342.802 505.634C342.802 505.979 342.68 506.273 342.438 506.516C342.204 506.749 341.915 506.866 341.57 506.866C341.224 506.866 340.93 506.749 340.688 506.516ZM346.907 510.8V515H344.807V507.468H346.907V508.308C347.542 507.664 348.256 507.342 349.049 507.342C349.843 507.342 350.505 507.622 351.037 508.182C351.579 508.742 351.849 509.489 351.849 510.422V515H349.749V510.744C349.749 509.587 349.325 509.008 348.475 509.008C348.055 509.008 347.687 509.162 347.369 509.47C347.061 509.769 346.907 510.212 346.907 510.8ZM356.346 508.98V512.354C356.346 512.643 356.42 512.872 356.57 513.04C356.719 513.199 356.896 513.278 357.102 513.278C357.494 513.278 357.825 513.101 358.096 512.746L358.88 514.216C358.226 514.813 357.536 515.112 356.808 515.112C356.089 515.112 355.478 514.874 354.974 514.398C354.479 513.922 354.232 513.273 354.232 512.452V508.98H353.35V507.468H354.232V505.214H356.346V507.468H358.166V508.98H356.346ZM367.122 510.94V515H365.008V510.884C365.008 510.287 364.914 509.848 364.728 509.568C364.55 509.288 364.256 509.148 363.846 509.148C363.444 509.148 363.085 509.302 362.768 509.61C362.46 509.909 362.306 510.352 362.306 510.94V515H360.206V507.468H362.306V508.322C362.884 507.669 363.547 507.342 364.294 507.342C364.77 507.342 365.199 507.482 365.582 507.762C365.974 508.042 366.268 508.383 366.464 508.784C366.753 508.327 367.14 507.972 367.626 507.72C368.12 507.468 368.615 507.342 369.11 507.342C369.996 507.342 370.71 507.608 371.252 508.14C371.793 508.663 372.064 509.423 372.064 510.422V515H369.95V510.884C369.95 509.727 369.525 509.148 368.676 509.148C368.256 509.148 367.892 509.302 367.584 509.61C367.276 509.909 367.122 510.352 367.122 510.94ZM380.697 513.908C379.848 514.711 378.849 515.112 377.701 515.112C376.562 515.112 375.62 514.762 374.873 514.062C374.126 513.353 373.753 512.405 373.753 511.22C373.753 510.035 374.131 509.092 374.887 508.392C375.652 507.692 376.553 507.342 377.589 507.342C378.625 507.342 379.502 507.655 380.221 508.28C380.949 508.905 381.313 509.764 381.313 510.856V511.976H375.825C375.89 512.387 376.105 512.723 376.469 512.984C376.833 513.245 377.244 513.376 377.701 513.376C378.438 513.376 379.045 513.129 379.521 512.634L380.697 513.908ZM379.185 510.478C379.138 510.03 378.97 509.685 378.681 509.442C378.392 509.199 378.037 509.078 377.617 509.078C377.206 509.078 376.828 509.204 376.483 509.456C376.138 509.708 375.937 510.049 375.881 510.478H379.185ZM385.127 510.8V515H383.027V507.468H385.127V508.308C385.762 507.664 386.476 507.342 387.269 507.342C388.063 507.342 388.725 507.622 389.257 508.182C389.799 508.742 390.069 509.489 390.069 510.422V515H387.969V510.744C387.969 509.587 387.545 509.008 386.695 509.008C386.275 509.008 385.907 509.162 385.589 509.47C385.281 509.769 385.127 510.212 385.127 510.8ZM394.565 508.98V512.354C394.565 512.643 394.64 512.872 394.789 513.04C394.939 513.199 395.116 513.278 395.321 513.278C395.713 513.278 396.045 513.101 396.315 512.746L397.099 514.216C396.446 514.813 395.755 515.112 395.027 515.112C394.309 515.112 393.697 514.874 393.193 514.398C392.699 513.922 392.451 513.273 392.451 512.452V508.98H391.569V507.468H392.451V505.214H394.565V507.468H396.385V508.98H394.565Z" fill="white"/>
<defs>
<clipPath id="clip0_688_3676">
<rect width="537" height="280" fill="white" transform="translate(60 161)"/>
</clipPath>
<clipPath id="clip1_688_3676">
<rect width="255" height="50" fill="white" transform="translate(63.5 161)"/>
</clipPath>
<clipPath id="clip2_688_3676">
<rect width="255" height="50" fill="white" transform="translate(338.5 161)"/>
</clipPath>
<clipPath id="clip3_688_3676">
<rect width="255" height="50" fill="white" transform="translate(63.5 231)"/>
</clipPath>
<clipPath id="clip4_688_3676">
<rect width="255" height="50" fill="white" transform="translate(63.5 231)"/>
</clipPath>
<clipPath id="clip5_688_3676">
<rect width="255" height="50" fill="white" transform="translate(338.5 231)"/>
</clipPath>
<clipPath id="clip6_688_3676">
<rect width="255" height="50" fill="white" transform="translate(338.5 231)"/>
</clipPath>
</defs>
</svg>
