<svg width="328" height="616" viewBox="0 0 328 616" fill="none" xmlns="http://www.w3.org/2000/svg">
<rect width="328" height="616" rx="10" fill="white"/>
<path d="M57.4041 65H50.0601V48.224H56.5881C57.7241 48.224 58.7001 48.36 59.5161 48.632C60.3481 48.904 60.9721 49.272 61.3881 49.736C62.1401 50.6 62.5161 51.576 62.5161 52.664C62.5161 53.976 62.0921 54.952 61.2441 55.592C60.9561 55.816 60.7561 55.96 60.6441 56.024C60.5321 56.072 60.3321 56.16 60.0441 56.288C61.0841 56.512 61.9081 56.984 62.5161 57.704C63.1401 58.408 63.4521 59.288 63.4521 60.344C63.4521 61.512 63.0521 62.544 62.2521 63.44C61.3241 64.48 59.7081 65 57.4041 65ZM53.8041 55.016H55.5801C56.6201 55.016 57.3881 54.904 57.8841 54.68C58.3961 54.456 58.6521 53.976 58.6521 53.24C58.6521 52.488 58.4201 51.992 57.9561 51.752C57.4921 51.512 56.7081 51.392 55.6041 51.392H53.8041V55.016ZM53.8041 61.832H56.3721C57.4441 61.832 58.2441 61.704 58.7721 61.448C59.3161 61.176 59.5881 60.656 59.5881 59.888C59.5881 59.104 59.3001 58.592 58.7241 58.352C58.1641 58.096 57.2601 57.968 56.0121 57.968H53.8041V61.832ZM69.1098 58.544C69.1098 59.6 69.4058 60.464 69.9978 61.136C70.6058 61.792 71.3738 62.12 72.3018 62.12C73.2458 62.12 74.0138 61.792 74.6058 61.136C75.2138 60.464 75.5178 59.6 75.5178 58.544C75.5178 57.488 75.2138 56.624 74.6058 55.952C74.0138 55.28 73.2458 54.944 72.3018 54.944C71.3738 54.944 70.6058 55.28 69.9978 55.952C69.4058 56.624 69.1098 57.488 69.1098 58.544ZM79.1418 58.544C79.1418 60.416 78.4938 61.992 77.1978 63.272C75.9018 64.552 74.2698 65.192 72.3018 65.192C70.3498 65.192 68.7258 64.552 67.4298 63.272C66.1338 61.992 65.4858 60.416 65.4858 58.544C65.4858 56.672 66.1338 55.096 67.4298 53.816C68.7258 52.52 70.3498 51.872 72.3018 51.872C74.2698 51.872 75.9018 52.52 77.1978 53.816C78.4938 55.096 79.1418 56.672 79.1418 58.544ZM84.7957 58.544C84.7957 59.6 85.0917 60.464 85.6837 61.136C86.2917 61.792 87.0597 62.12 87.9877 62.12C88.9317 62.12 89.6997 61.792 90.2917 61.136C90.8997 60.464 91.2037 59.6 91.2037 58.544C91.2037 57.488 90.8997 56.624 90.2917 55.952C89.6997 55.28 88.9317 54.944 87.9877 54.944C87.0597 54.944 86.2917 55.28 85.6837 55.952C85.0917 56.624 84.7957 57.488 84.7957 58.544ZM94.8277 58.544C94.8277 60.416 94.1797 61.992 92.8837 63.272C91.5877 64.552 89.9557 65.192 87.9877 65.192C86.0357 65.192 84.4117 64.552 83.1157 63.272C81.8197 61.992 81.1717 60.416 81.1717 58.544C81.1717 56.672 81.8197 55.096 83.1157 53.816C84.4117 52.52 86.0357 51.872 87.9877 51.872C89.9557 51.872 91.5877 52.52 92.8837 53.816C94.1797 55.096 94.8277 56.672 94.8277 58.544ZM101.202 65H97.6017V47.192H101.202V56.336L105.21 52.064H109.746L104.826 57.296L109.938 65H105.666L102.378 60.056L101.202 61.28V65ZM130.715 65L129.155 61.376H122.123L120.563 65H116.579L123.827 48.224H127.451L134.699 65H130.715ZM125.651 53.216L123.539 58.088H127.739L125.651 53.216ZM143.898 51.872C145.402 51.872 146.738 52.504 147.906 53.768C149.09 55.016 149.682 56.592 149.682 58.496C149.682 60.4 149.09 61.992 147.906 63.272C146.738 64.552 145.362 65.192 143.778 65.192C142.21 65.192 140.946 64.56 139.986 63.296V69.656H136.386V52.088H139.986V53.528C141.09 52.424 142.394 51.872 143.898 51.872ZM139.938 58.568C139.938 59.608 140.226 60.464 140.802 61.136C141.394 61.792 142.106 62.12 142.938 62.12C143.77 62.12 144.498 61.792 145.122 61.136C145.746 60.464 146.058 59.608 146.058 58.568C146.058 57.528 145.754 56.656 145.146 55.952C144.538 55.248 143.81 54.896 142.962 54.896C142.114 54.896 141.394 55.248 140.802 55.952C140.226 56.64 139.938 57.512 139.938 58.568ZM159.982 51.872C161.486 51.872 162.822 52.504 163.99 53.768C165.174 55.016 165.766 56.592 165.766 58.496C165.766 60.4 165.174 61.992 163.99 63.272C162.822 64.552 161.446 65.192 159.862 65.192C158.294 65.192 157.03 64.56 156.07 63.296V69.656H152.47V52.088H156.07V53.528C157.174 52.424 158.478 51.872 159.982 51.872ZM156.022 58.568C156.022 59.608 156.31 60.464 156.886 61.136C157.478 61.792 158.19 62.12 159.022 62.12C159.854 62.12 160.582 61.792 161.206 61.136C161.83 60.464 162.142 59.608 162.142 58.568C162.142 57.528 161.838 56.656 161.23 55.952C160.622 55.248 159.894 54.896 159.046 54.896C158.198 54.896 157.478 55.248 156.886 55.952C156.31 56.64 156.022 57.512 156.022 58.568ZM171.435 58.544C171.435 59.6 171.731 60.464 172.323 61.136C172.931 61.792 173.699 62.12 174.627 62.12C175.571 62.12 176.339 61.792 176.931 61.136C177.539 60.464 177.843 59.6 177.843 58.544C177.843 57.488 177.539 56.624 176.931 55.952C176.339 55.28 175.571 54.944 174.627 54.944C173.699 54.944 172.931 55.28 172.323 55.952C171.731 56.624 171.435 57.488 171.435 58.544ZM181.467 58.544C181.467 60.416 180.819 61.992 179.523 63.272C178.227 64.552 176.595 65.192 174.627 65.192C172.675 65.192 171.051 64.552 169.755 63.272C168.459 61.992 167.811 60.416 167.811 58.544C167.811 56.672 168.459 55.096 169.755 53.816C171.051 52.52 172.675 51.872 174.627 51.872C176.595 51.872 178.227 52.52 179.523 53.816C180.819 55.096 181.467 56.672 181.467 58.544ZM187.841 65H184.241V52.088H187.841V65ZM184.529 50.456C184.129 50.04 183.929 49.536 183.929 48.944C183.929 48.352 184.129 47.856 184.529 47.456C184.945 47.04 185.449 46.832 186.041 46.832C186.633 46.832 187.129 47.04 187.529 47.456C187.945 47.856 188.153 48.352 188.153 48.944C188.153 49.536 187.945 50.04 187.529 50.456C187.129 50.856 186.633 51.056 186.041 51.056C185.449 51.056 184.945 50.856 184.529 50.456ZM194.949 57.8V65H191.349V52.088H194.949V53.528C196.037 52.424 197.261 51.872 198.621 51.872C199.981 51.872 201.117 52.352 202.029 53.312C202.957 54.272 203.421 55.552 203.421 57.152V65H199.821V57.704C199.821 55.72 199.093 54.728 197.637 54.728C196.917 54.728 196.285 54.992 195.741 55.52C195.213 56.032 194.949 56.792 194.949 57.8ZM210.885 54.68V60.464C210.885 60.96 211.013 61.352 211.269 61.64C211.525 61.912 211.829 62.048 212.181 62.048C212.853 62.048 213.421 61.744 213.885 61.136L215.229 63.656C214.109 64.68 212.925 65.192 211.677 65.192C210.445 65.192 209.397 64.784 208.533 63.968C207.685 63.152 207.261 62.04 207.261 60.632V54.68H205.749V52.088H207.261V48.224H210.885V52.088H214.005V54.68H210.885ZM229.115 58.04V65H225.491V57.944C225.491 56.92 225.331 56.168 225.011 55.688C224.707 55.208 224.203 54.968 223.499 54.968C222.811 54.968 222.195 55.232 221.651 55.76C221.123 56.272 220.859 57.032 220.859 58.04V65H217.259V52.088H220.859V53.552C221.851 52.432 222.987 51.872 224.267 51.872C225.083 51.872 225.819 52.112 226.475 52.592C227.147 53.072 227.651 53.656 227.987 54.344C228.483 53.56 229.147 52.952 229.979 52.52C230.827 52.088 231.675 51.872 232.523 51.872C234.043 51.872 235.267 52.328 236.195 53.24C237.123 54.136 237.587 55.44 237.587 57.152V65H233.963V57.944C233.963 55.96 233.235 54.968 231.779 54.968C231.059 54.968 230.435 55.232 229.907 55.76C229.379 56.272 229.115 57.032 229.115 58.04ZM252.145 63.128C250.689 64.504 248.977 65.192 247.009 65.192C245.057 65.192 243.441 64.592 242.161 63.392C240.881 62.176 240.241 60.552 240.241 58.52C240.241 56.488 240.889 54.872 242.185 53.672C243.497 52.472 245.041 51.872 246.817 51.872C248.593 51.872 250.097 52.408 251.329 53.48C252.577 54.552 253.201 56.024 253.201 57.896V59.816H243.793C243.905 60.52 244.273 61.096 244.897 61.544C245.521 61.992 246.225 62.216 247.009 62.216C248.273 62.216 249.313 61.792 250.129 60.944L252.145 63.128ZM249.553 57.248C249.473 56.48 249.185 55.888 248.689 55.472C248.193 55.056 247.585 54.848 246.865 54.848C246.161 54.848 245.513 55.064 244.921 55.496C244.329 55.928 243.985 56.512 243.889 57.248H249.553ZM259.497 57.8V65H255.897V52.088H259.497V53.528C260.585 52.424 261.809 51.872 263.169 51.872C264.529 51.872 265.665 52.352 266.577 53.312C267.505 54.272 267.969 55.552 267.969 57.152V65H264.369V57.704C264.369 55.72 263.641 54.728 262.185 54.728C261.465 54.728 260.833 54.992 260.289 55.52C259.761 56.032 259.497 56.792 259.497 57.8ZM275.434 54.68V60.464C275.434 60.96 275.562 61.352 275.818 61.64C276.074 61.912 276.378 62.048 276.73 62.048C277.402 62.048 277.97 61.744 278.434 61.136L279.778 63.656C278.658 64.68 277.474 65.192 276.226 65.192C274.994 65.192 273.946 64.784 273.082 63.968C272.234 63.152 271.81 62.04 271.81 60.632V54.68H270.298V52.088H271.81V48.224H275.434V52.088H278.554V54.68H275.434Z" fill="#252B42"/>
<g clip-path="url(#clip0_688_3723)">
<rect x="40" y="112" width="248" height="366" rx="1" fill="white"/>
<path d="M48.218 119.2V125.836L42.814 119.2H41.316V129H43.122V122.364L48.526 129H50.024V119.2H48.218ZM55.538 121.44C54.334 121.44 53.172 121.748 52.374 122.364L53.06 123.638C53.62 123.176 54.488 122.896 55.328 122.896C56.574 122.896 57.19 123.498 57.19 124.52V124.632H55.258C52.99 124.632 52.15 125.612 52.15 126.858C52.15 128.16 53.228 129.098 54.936 129.098C56.056 129.098 56.868 128.734 57.288 128.09V129H58.94V124.618C58.94 122.462 57.694 121.44 55.538 121.44ZM55.3 127.824C54.404 127.824 53.872 127.418 53.872 126.788C53.872 126.242 54.194 125.794 55.384 125.794H57.19V126.662C56.896 127.432 56.154 127.824 55.3 127.824ZM70.8219 121.44C69.6319 121.44 68.6239 121.916 68.0219 122.686C67.5039 121.846 66.5939 121.44 65.5019 121.44C64.4799 121.44 63.6119 121.804 63.0519 122.476V121.524H61.3859V129H63.1359V125.206C63.1359 123.722 63.9199 122.966 65.0819 122.966C66.1459 122.966 66.7619 123.61 66.7619 124.94V129H68.5119V125.206C68.5119 123.722 69.3099 122.966 70.4579 122.966C71.5219 122.966 72.1379 123.61 72.1379 124.94V129H73.8879V124.716C73.8879 122.462 72.6279 121.44 70.8219 121.44ZM83.4205 125.304C83.4205 122.966 81.8245 121.44 79.6405 121.44C77.4145 121.44 75.7765 123.036 75.7765 125.262C75.7765 127.488 77.4005 129.098 79.9065 129.098C81.1945 129.098 82.2445 128.678 82.9165 127.88L81.9785 126.802C81.4465 127.348 80.7885 127.614 79.9485 127.614C78.6465 127.614 77.7365 126.914 77.5265 125.822H83.3925C83.4065 125.654 83.4205 125.444 83.4205 125.304ZM79.6405 122.84C80.7885 122.84 81.6145 123.582 81.7545 124.66H77.5125C77.6805 123.568 78.5065 122.84 79.6405 122.84ZM93.8227 120.418L93.2767 119.452L91.6527 120.418L91.6667 118.612H90.6027L90.6167 120.404L89.0067 119.452L88.4467 120.418L90.0567 121.3L88.4467 122.182L89.0067 123.134L90.6167 122.196L90.6027 123.988H91.6667L91.6527 122.182L93.2767 123.134L93.8227 122.182L92.2267 121.3L93.8227 120.418Z" fill="#252B42"/>
<g clip-path="url(#clip1_688_3723)">
<rect x="42.5" y="146.5" width="245" height="49" rx="4.5" fill="#F9F9F9"/>
<rect x="42.5" y="146.5" width="245" height="49" rx="4.5" stroke="#E6E6E6"/>
<path d="M66.01 167.754V170.442H70.35V171.968H66.01V176H64.358V166.214H70.882L70.868 167.754H66.01ZM77.8272 172.584V168.552H79.3952V176H77.8272V174.642C77.5752 175.099 77.2252 175.459 76.7772 175.72C76.3385 175.981 75.8625 176.112 75.3492 176.112C74.5092 176.112 73.8278 175.855 73.3052 175.342C72.7918 174.829 72.5352 174.087 72.5352 173.116V168.552H74.1032V172.64C74.1032 174.012 74.6725 174.698 75.8112 174.698C76.3525 174.698 76.8238 174.521 77.2252 174.166C77.6265 173.802 77.8272 173.275 77.8272 172.584ZM83.4379 176H81.8699V165.612H83.4379V176ZM87.4797 176H85.9117V165.612H87.4797V176ZM101.555 166.214H103.207V176H101.415L95.8713 168.86V176H94.2193V166.214H95.8713L101.555 173.522V166.214ZM111.932 176H110.504V175.006C109.888 175.743 109.062 176.112 108.026 176.112C107.252 176.112 106.608 175.893 106.094 175.454C105.59 175.015 105.338 174.432 105.338 173.704C105.338 172.967 105.609 172.416 106.15 172.052C106.692 171.688 107.424 171.506 108.348 171.506H110.378V171.226C110.378 170.237 109.828 169.742 108.726 169.742C108.036 169.742 107.317 169.994 106.57 170.498L105.87 169.518C106.776 168.799 107.802 168.44 108.95 168.44C109.828 168.44 110.542 168.664 111.092 169.112C111.652 169.551 111.932 170.246 111.932 171.198V176ZM110.364 173.228V172.598H108.6C107.471 172.598 106.906 172.953 106.906 173.662C106.906 174.026 107.046 174.306 107.326 174.502C107.606 174.689 107.994 174.782 108.488 174.782C108.992 174.782 109.431 174.642 109.804 174.362C110.178 174.082 110.364 173.704 110.364 173.228ZM115.883 171.968V176H114.315V168.552H115.883V169.91C116.107 169.453 116.443 169.093 116.891 168.832C117.349 168.571 117.839 168.44 118.361 168.44C119.537 168.44 120.335 168.925 120.755 169.896C121.493 168.925 122.412 168.44 123.513 168.44C124.353 168.44 125.03 168.697 125.543 169.21C126.066 169.723 126.327 170.465 126.327 171.436V176H124.759V171.912C124.759 170.54 124.19 169.854 123.051 169.854C122.519 169.854 122.053 170.027 121.651 170.372C121.259 170.708 121.054 171.203 121.035 171.856V176H119.467V171.912C119.467 171.203 119.341 170.685 119.089 170.358C118.837 170.022 118.441 169.854 117.899 169.854C117.358 169.854 116.887 170.036 116.485 170.4C116.084 170.755 115.883 171.277 115.883 171.968ZM135.637 172.962H129.799C129.836 173.503 130.083 173.942 130.541 174.278C130.998 174.605 131.521 174.768 132.109 174.768C133.042 174.768 133.751 174.474 134.237 173.886L135.133 174.866C134.33 175.697 133.285 176.112 131.997 176.112C130.951 176.112 130.06 175.767 129.323 175.076C128.595 174.376 128.231 173.443 128.231 172.276C128.231 171.1 128.604 170.167 129.351 169.476C130.097 168.785 130.975 168.44 131.983 168.44C133 168.44 133.863 168.748 134.573 169.364C135.282 169.971 135.637 170.811 135.637 171.884V172.962ZM129.799 171.73H134.069C134.069 171.105 133.873 170.624 133.481 170.288C133.089 169.952 132.603 169.784 132.025 169.784C131.455 169.784 130.942 169.961 130.485 170.316C130.027 170.661 129.799 171.133 129.799 171.73ZM145.187 169.98L143.857 169.084L143.969 170.68H143.017L143.129 169.07L141.799 169.966L141.323 169.154L142.751 168.44L141.323 167.74L141.799 166.914L143.115 167.796L143.017 166.214H143.969L143.871 167.796L145.187 166.928L145.663 167.74L144.221 168.44L145.663 169.154L145.187 169.98Z" fill="#737373"/>
</g>
<path d="M43.136 221.474V218.772H47.868V217.274H43.136V214.726H48.47V213.2H41.316V223H48.666V221.474H43.136ZM60.1629 215.44C58.9729 215.44 57.9649 215.916 57.3629 216.686C56.8449 215.846 55.9349 215.44 54.8429 215.44C53.8209 215.44 52.9529 215.804 52.3929 216.476V215.524H50.7269V223H52.4769V219.206C52.4769 217.722 53.2609 216.966 54.4229 216.966C55.4869 216.966 56.1029 217.61 56.1029 218.94V223H57.8529V219.206C57.8529 217.722 58.6509 216.966 59.7989 216.966C60.8629 216.966 61.4789 217.61 61.4789 218.94V223H63.2289V218.716C63.2289 216.462 61.9689 215.44 60.1629 215.44ZM68.5212 215.44C67.3172 215.44 66.1552 215.748 65.3572 216.364L66.0432 217.638C66.6032 217.176 67.4712 216.896 68.3112 216.896C69.5572 216.896 70.1732 217.498 70.1732 218.52V218.632H68.2412C65.9732 218.632 65.1332 219.612 65.1332 220.858C65.1332 222.16 66.2112 223.098 67.9192 223.098C69.0392 223.098 69.8512 222.734 70.2712 222.09V223H71.9232V218.618C71.9232 216.462 70.6772 215.44 68.5212 215.44ZM68.2832 221.824C67.3872 221.824 66.8552 221.418 66.8552 220.788C66.8552 220.242 67.1772 219.794 68.3672 219.794H70.1732V220.662C69.8792 221.432 69.1372 221.824 68.2832 221.824ZM75.2511 214.292C75.9091 214.292 76.3711 213.816 76.3711 213.2C76.3711 212.626 75.8951 212.192 75.2511 212.192C74.6071 212.192 74.1311 212.654 74.1311 213.242C74.1311 213.83 74.6071 214.292 75.2511 214.292ZM74.3691 223H76.1191V215.524H74.3691V223ZM78.616 223H80.366V212.612H78.616V223ZM89.788 215.44C88.584 215.44 87.422 215.748 86.624 216.364L87.31 217.638C87.87 217.176 88.738 216.896 89.578 216.896C90.824 216.896 91.44 217.498 91.44 218.52V218.632H89.508C87.24 218.632 86.4 219.612 86.4 220.858C86.4 222.16 87.478 223.098 89.186 223.098C90.306 223.098 91.118 222.734 91.538 222.09V223H93.19V218.618C93.19 216.462 91.944 215.44 89.788 215.44ZM89.55 221.824C88.654 221.824 88.122 221.418 88.122 220.788C88.122 220.242 88.444 219.794 89.634 219.794H91.44V220.662C91.146 221.432 90.404 221.824 89.55 221.824ZM101.276 212.612V216.448C100.688 215.762 99.8343 215.44 98.8683 215.44C96.6983 215.44 95.0883 216.938 95.0883 219.262C95.0883 221.586 96.6983 223.098 98.8683 223.098C99.8903 223.098 100.758 222.748 101.346 222.034V223H103.026V212.612H101.276ZM99.0783 221.6C97.8183 221.6 96.8523 220.69 96.8523 219.262C96.8523 217.834 97.8183 216.924 99.0783 216.924C100.338 216.924 101.304 217.834 101.304 219.262C101.304 220.69 100.338 221.6 99.0783 221.6ZM111.088 212.612V216.448C110.5 215.762 109.646 215.44 108.68 215.44C106.51 215.44 104.9 216.938 104.9 219.262C104.9 221.586 106.51 223.098 108.68 223.098C109.702 223.098 110.57 222.748 111.158 222.034V223H112.838V212.612H111.088ZM108.89 221.6C107.63 221.6 106.664 220.69 106.664 219.262C106.664 217.834 107.63 216.924 108.89 216.924C110.15 216.924 111.116 217.834 111.116 219.262C111.116 220.69 110.15 221.6 108.89 221.6ZM116.993 216.616V215.524H115.327V223H117.077V219.374C117.077 217.848 117.917 217.064 119.247 217.064C119.373 217.064 119.499 217.078 119.653 217.106V215.44C118.407 215.44 117.497 215.832 116.993 216.616ZM128.297 219.304C128.297 216.966 126.701 215.44 124.517 215.44C122.291 215.44 120.653 217.036 120.653 219.262C120.653 221.488 122.277 223.098 124.783 223.098C126.071 223.098 127.121 222.678 127.793 221.88L126.855 220.802C126.323 221.348 125.665 221.614 124.825 221.614C123.523 221.614 122.613 220.914 122.403 219.822H128.269C128.283 219.654 128.297 219.444 128.297 219.304ZM124.517 216.84C125.665 216.84 126.491 217.582 126.631 218.66H122.389C122.557 217.568 123.383 216.84 124.517 216.84ZM132.488 223.098C134.588 223.098 135.876 222.188 135.876 220.788C135.876 217.862 131.256 219.206 131.256 217.694C131.256 217.204 131.76 216.854 132.824 216.854C133.538 216.854 134.252 216.994 134.966 217.414L135.638 216.084C134.966 215.678 133.832 215.44 132.838 215.44C130.822 215.44 129.548 216.364 129.548 217.778C129.548 220.76 134.168 219.416 134.168 220.844C134.168 221.362 133.706 221.67 132.6 221.67C131.662 221.67 130.654 221.362 129.996 220.928L129.324 222.258C129.996 222.734 131.242 223.098 132.488 223.098ZM139.893 223.098C141.993 223.098 143.281 222.188 143.281 220.788C143.281 217.862 138.661 219.206 138.661 217.694C138.661 217.204 139.165 216.854 140.229 216.854C140.943 216.854 141.657 216.994 142.371 217.414L143.043 216.084C142.371 215.678 141.237 215.44 140.243 215.44C138.227 215.44 136.953 216.364 136.953 217.778C136.953 220.76 141.573 219.416 141.573 220.844C141.573 221.362 141.111 221.67 140.005 221.67C139.067 221.67 138.059 221.362 137.401 220.928L136.729 222.258C137.401 222.734 138.647 223.098 139.893 223.098ZM153.509 214.418L152.963 213.452L151.339 214.418L151.353 212.612H150.289L150.303 214.404L148.693 213.452L148.133 214.418L149.743 215.3L148.133 216.182L148.693 217.134L150.303 216.196L150.289 217.988H151.353L151.339 216.182L152.963 217.134L153.509 216.182L151.913 215.3L153.509 214.418Z" fill="#252B42"/>
<g clip-path="url(#clip2_688_3723)">
<rect x="42.5" y="240.5" width="245" height="49" rx="4.5" fill="#F9F9F9"/>
<rect x="42.5" y="240.5" width="245" height="49" rx="4.5" stroke="#E6E6E6"/>
<path d="M71.064 266.962H65.226C65.2633 267.503 65.5107 267.942 65.968 268.278C66.4253 268.605 66.948 268.768 67.536 268.768C68.4693 268.768 69.1787 268.474 69.664 267.886L70.56 268.866C69.7573 269.697 68.712 270.112 67.424 270.112C66.3787 270.112 65.4873 269.767 64.75 269.076C64.022 268.376 63.658 267.443 63.658 266.276C63.658 265.1 64.0313 264.167 64.778 263.476C65.5247 262.785 66.402 262.44 67.41 262.44C68.4273 262.44 69.2907 262.748 70 263.364C70.7093 263.971 71.064 264.811 71.064 265.884V266.962ZM65.226 265.73H69.496C69.496 265.105 69.3 264.624 68.908 264.288C68.516 263.952 68.0307 263.784 67.452 263.784C66.8827 263.784 66.3693 263.961 65.912 264.316C65.4547 264.661 65.226 265.133 65.226 265.73ZM74.0279 262.552L75.6239 265.002L77.2759 262.552H79.1379L76.5339 266.192L79.2499 270H77.3179L75.5399 267.522L73.8039 270H71.9699L74.6159 266.206L72.1099 262.552H74.0279ZM86.8102 270H85.3822V269.006C84.7662 269.743 83.9402 270.112 82.9042 270.112C82.1295 270.112 81.4855 269.893 80.9722 269.454C80.4682 269.015 80.2162 268.432 80.2162 267.704C80.2162 266.967 80.4869 266.416 81.0282 266.052C81.5695 265.688 82.3022 265.506 83.2262 265.506H85.2562V265.226C85.2562 264.237 84.7055 263.742 83.6042 263.742C82.9135 263.742 82.1949 263.994 81.4482 264.498L80.7482 263.518C81.6535 262.799 82.6802 262.44 83.8282 262.44C84.7055 262.44 85.4195 262.664 85.9702 263.112C86.5302 263.551 86.8102 264.246 86.8102 265.198V270ZM85.2422 267.228V266.598H83.4782C82.3489 266.598 81.7842 266.953 81.7842 267.662C81.7842 268.026 81.9242 268.306 82.2042 268.502C82.4842 268.689 82.8715 268.782 83.3662 268.782C83.8702 268.782 84.3089 268.642 84.6822 268.362C85.0555 268.082 85.2422 267.704 85.2422 267.228ZM90.761 265.968V270H89.193V262.552H90.761V263.91C90.985 263.453 91.321 263.093 91.769 262.832C92.2263 262.571 92.7163 262.44 93.239 262.44C94.415 262.44 95.213 262.925 95.633 263.896C96.3703 262.925 97.2897 262.44 98.391 262.44C99.231 262.44 99.9077 262.697 100.421 263.21C100.944 263.723 101.205 264.465 101.205 265.436V270H99.637V265.912C99.637 264.54 99.0677 263.854 97.929 263.854C97.397 263.854 96.9303 264.027 96.529 264.372C96.137 264.708 95.9317 265.203 95.913 265.856V270H94.345V265.912C94.345 265.203 94.219 264.685 93.967 264.358C93.715 264.022 93.3183 263.854 92.777 263.854C92.2357 263.854 91.7643 264.036 91.363 264.4C90.9617 264.755 90.761 265.277 90.761 265.968ZM107.574 262.44C108.573 262.44 109.427 262.785 110.136 263.476C110.846 264.167 111.2 265.086 111.2 266.234C111.2 267.382 110.846 268.315 110.136 269.034C109.436 269.753 108.615 270.112 107.672 270.112C106.739 270.112 105.899 269.701 105.152 268.88V272.716H103.584V262.552H105.152V263.854C105.768 262.911 106.576 262.44 107.574 262.44ZM105.124 266.29C105.124 266.999 105.339 267.583 105.768 268.04C106.198 268.488 106.72 268.712 107.336 268.712C107.952 268.712 108.489 268.488 108.946 268.04C109.404 267.592 109.632 267.013 109.632 266.304C109.632 265.585 109.408 264.993 108.96 264.526C108.512 264.05 107.976 263.812 107.35 263.812C106.725 263.812 106.198 264.05 105.768 264.526C105.339 264.993 105.124 265.581 105.124 266.29ZM114.759 270H113.191V259.612H114.759V270ZM124.162 266.962H118.324C118.362 267.503 118.609 267.942 119.066 268.278C119.524 268.605 120.046 268.768 120.634 268.768C121.568 268.768 122.277 268.474 122.762 267.886L123.658 268.866C122.856 269.697 121.81 270.112 120.522 270.112C119.477 270.112 118.586 269.767 117.848 269.076C117.12 268.376 116.756 267.443 116.756 266.276C116.756 265.1 117.13 264.167 117.876 263.476C118.623 262.785 119.5 262.44 120.508 262.44C121.526 262.44 122.389 262.748 123.098 263.364C123.808 263.971 124.162 264.811 124.162 265.884V266.962ZM118.324 265.73H122.594C122.594 265.105 122.398 264.624 122.006 264.288C121.614 263.952 121.129 263.784 120.55 263.784C119.981 263.784 119.468 263.961 119.01 264.316C118.553 264.661 118.324 265.133 118.324 265.73ZM131.197 271.764C129.629 271.764 128.313 271.241 127.249 270.196C126.194 269.151 125.667 267.844 125.667 266.276C125.667 264.708 126.222 263.369 127.333 262.258C128.443 261.138 129.783 260.578 131.351 260.578C132.928 260.578 134.253 261.138 135.327 262.258C136.409 263.369 136.951 264.727 136.951 266.332C136.951 267.34 136.759 268.157 136.377 268.782C135.994 269.398 135.485 269.706 134.851 269.706C134.393 269.706 134.029 269.552 133.759 269.244C133.488 268.927 133.343 268.479 133.325 267.9C132.802 269.104 131.967 269.706 130.819 269.706C130.016 269.706 129.307 269.384 128.691 268.74C128.084 268.096 127.781 267.279 127.781 266.29C127.781 265.301 128.07 264.47 128.649 263.798C129.227 263.126 129.993 262.79 130.945 262.79C131.374 262.79 131.78 262.902 132.163 263.126C132.545 263.35 132.821 263.616 132.989 263.924V262.986H134.333V267.872C134.333 268.525 134.589 268.852 135.103 268.852C135.392 268.852 135.653 268.642 135.887 268.222C136.129 267.793 136.251 267.233 136.251 266.542C136.251 265.049 135.798 263.784 134.893 262.748C133.997 261.712 132.835 261.194 131.407 261.194C129.988 261.194 128.779 261.693 127.781 262.692C126.782 263.691 126.283 264.885 126.283 266.276C126.283 267.667 126.754 268.829 127.697 269.762C128.639 270.686 129.806 271.148 131.197 271.148C132.317 271.148 133.175 270.868 133.773 270.308L134.081 270.826C133.754 271.106 133.32 271.33 132.779 271.498C132.237 271.675 131.71 271.764 131.197 271.764ZM133.003 266.234C133.003 265.627 132.825 265.128 132.471 264.736C132.116 264.344 131.654 264.148 131.085 264.148C130.515 264.148 130.058 264.349 129.713 264.75C129.367 265.151 129.195 265.646 129.195 266.234C129.195 266.813 129.363 267.321 129.699 267.76C130.044 268.189 130.511 268.404 131.099 268.404C131.687 268.404 132.149 268.194 132.485 267.774C132.83 267.345 133.003 266.831 133.003 266.234ZM145.835 262.552V269.048C145.835 270.364 145.476 271.349 144.757 272.002C144.048 272.665 143.133 272.996 142.013 272.996C140.893 272.996 139.88 272.646 138.975 271.946L139.717 270.756C140.445 271.307 141.178 271.582 141.915 271.582C142.662 271.582 143.25 271.391 143.679 271.008C144.118 270.625 144.337 270.014 144.337 269.174V268.222C144.104 268.661 143.768 269.011 143.329 269.272C142.9 269.533 142.414 269.664 141.873 269.664C140.884 269.664 140.072 269.319 139.437 268.628C138.802 267.937 138.485 267.079 138.485 266.052C138.485 265.025 138.802 264.167 139.437 263.476C140.072 262.785 140.879 262.44 141.859 262.44C142.848 262.44 143.651 262.846 144.267 263.658V262.552H145.835ZM140.025 265.996C140.025 266.603 140.212 267.13 140.585 267.578C140.968 268.017 141.476 268.236 142.111 268.236C142.755 268.236 143.273 268.021 143.665 267.592C144.066 267.163 144.267 266.631 144.267 265.996C144.267 265.352 144.066 264.811 143.665 264.372C143.264 263.924 142.746 263.7 142.111 263.7C141.476 263.7 140.968 263.929 140.585 264.386C140.212 264.843 140.025 265.38 140.025 265.996ZM149.875 265.968V270H148.307V262.552H149.875V263.91C150.099 263.453 150.435 263.093 150.883 262.832C151.34 262.571 151.83 262.44 152.353 262.44C153.529 262.44 154.327 262.925 154.747 263.896C155.484 262.925 156.404 262.44 157.505 262.44C158.345 262.44 159.022 262.697 159.535 263.21C160.058 263.723 160.319 264.465 160.319 265.436V270H158.751V265.912C158.751 264.54 158.182 263.854 157.043 263.854C156.511 263.854 156.044 264.027 155.643 264.372C155.251 264.708 155.046 265.203 155.027 265.856V270H153.459V265.912C153.459 265.203 153.333 264.685 153.081 264.358C152.829 264.022 152.432 263.854 151.891 263.854C151.35 263.854 150.878 264.036 150.477 264.4C150.076 264.755 149.875 265.277 149.875 265.968ZM168.732 270H167.304V269.006C166.688 269.743 165.862 270.112 164.826 270.112C164.052 270.112 163.408 269.893 162.894 269.454C162.39 269.015 162.138 268.432 162.138 267.704C162.138 266.967 162.409 266.416 162.95 266.052C163.492 265.688 164.224 265.506 165.148 265.506H167.178V265.226C167.178 264.237 166.628 263.742 165.526 263.742C164.836 263.742 164.117 263.994 163.37 264.498L162.67 263.518C163.576 262.799 164.602 262.44 165.75 262.44C166.628 262.44 167.342 262.664 167.892 263.112C168.452 263.551 168.732 264.246 168.732 265.198V270ZM167.164 267.228V266.598H165.4C164.271 266.598 163.706 266.953 163.706 267.662C163.706 268.026 163.846 268.306 164.126 268.502C164.406 268.689 164.794 268.782 165.288 268.782C165.792 268.782 166.231 268.642 166.604 268.362C166.978 268.082 167.164 267.704 167.164 267.228ZM172.683 270H171.115V262.552H172.683V270ZM171.213 261.068C171.017 260.872 170.919 260.639 170.919 260.368C170.919 260.097 171.017 259.864 171.213 259.668C171.409 259.472 171.643 259.374 171.913 259.374C172.184 259.374 172.417 259.472 172.613 259.668C172.809 259.864 172.907 260.097 172.907 260.368C172.907 260.639 172.809 260.872 172.613 261.068C172.417 261.264 172.184 261.362 171.913 261.362C171.643 261.362 171.409 261.264 171.213 261.068ZM176.725 270H175.157V259.612H176.725V270ZM179.283 269.804C179.087 269.599 178.989 269.351 178.989 269.062C178.989 268.773 179.087 268.53 179.283 268.334C179.488 268.129 179.736 268.026 180.025 268.026C180.314 268.026 180.562 268.129 180.767 268.334C180.972 268.53 181.075 268.773 181.075 269.062C181.075 269.351 180.972 269.599 180.767 269.804C180.562 270.009 180.314 270.112 180.025 270.112C179.736 270.112 179.488 270.009 179.283 269.804ZM186.627 270.112C185.591 270.112 184.699 269.762 183.953 269.062C183.206 268.353 182.833 267.429 182.833 266.29C182.833 265.151 183.22 264.227 183.995 263.518C184.779 262.799 185.731 262.44 186.851 262.44C187.971 262.44 188.918 262.827 189.693 263.602L188.769 264.736C188.125 264.176 187.476 263.896 186.823 263.896C186.169 263.896 185.6 264.115 185.115 264.554C184.639 264.983 184.401 265.543 184.401 266.234C184.401 266.915 184.639 267.494 185.115 267.97C185.591 268.446 186.174 268.684 186.865 268.684C187.565 268.684 188.223 268.367 188.839 267.732L189.763 268.74C188.857 269.655 187.812 270.112 186.627 270.112ZM193.175 268.04C193.623 268.488 194.187 268.712 194.869 268.712C195.55 268.712 196.11 268.488 196.549 268.04C196.997 267.583 197.221 266.995 197.221 266.276C197.221 265.557 196.997 264.974 196.549 264.526C196.11 264.069 195.55 263.84 194.869 263.84C194.187 263.84 193.623 264.069 193.175 264.526C192.736 264.974 192.517 265.557 192.517 266.276C192.517 266.995 192.736 267.583 193.175 268.04ZM197.669 269.006C196.922 269.743 195.989 270.112 194.869 270.112C193.749 270.112 192.815 269.743 192.069 269.006C191.322 268.259 190.949 267.349 190.949 266.276C190.949 265.203 191.322 264.297 192.069 263.56C192.815 262.813 193.749 262.44 194.869 262.44C195.989 262.44 196.922 262.813 197.669 263.56C198.415 264.297 198.789 265.203 198.789 266.276C198.789 267.349 198.415 268.259 197.669 269.006ZM202.339 265.968V270H200.771V262.552H202.339V263.91C202.563 263.453 202.899 263.093 203.347 262.832C203.805 262.571 204.295 262.44 204.817 262.44C205.993 262.44 206.791 262.925 207.211 263.896C207.949 262.925 208.868 262.44 209.969 262.44C210.809 262.44 211.486 262.697 211.999 263.21C212.522 263.723 212.783 264.465 212.783 265.436V270H211.215V265.912C211.215 264.54 210.646 263.854 209.507 263.854C208.975 263.854 208.509 264.027 208.107 264.372C207.715 264.708 207.51 265.203 207.491 265.856V270H205.923V265.912C205.923 265.203 205.797 264.685 205.545 264.358C205.293 264.022 204.897 263.854 204.355 263.854C203.814 263.854 203.343 264.036 202.941 264.4C202.54 264.755 202.339 265.277 202.339 265.968Z" fill="#737373"/>
</g>
<path d="M41.316 317H45.6C48.778 317 50.948 315.04 50.948 312.1C50.948 309.16 48.778 307.2 45.6 307.2H41.316V317ZM43.136 315.46V308.74H45.516C47.7 308.74 49.114 310.07 49.114 312.1C49.114 314.13 47.7 315.46 45.516 315.46H43.136ZM59.9424 313.304C59.9424 310.966 58.3464 309.44 56.1624 309.44C53.9364 309.44 52.2984 311.036 52.2984 313.262C52.2984 315.488 53.9224 317.098 56.4284 317.098C57.7164 317.098 58.7664 316.678 59.4384 315.88L58.5004 314.802C57.9684 315.348 57.3104 315.614 56.4704 315.614C55.1684 315.614 54.2584 314.914 54.0484 313.822H59.9144C59.9284 313.654 59.9424 313.444 59.9424 313.304ZM56.1624 310.84C57.3104 310.84 58.1364 311.582 58.2764 312.66H54.0344C54.2024 311.568 55.0284 310.84 56.1624 310.84ZM65.9674 309.44C64.9454 309.44 64.0774 309.79 63.4894 310.504V309.524H61.8234V319.716H63.5734V316.09C64.1754 316.776 65.0154 317.098 65.9674 317.098C68.1514 317.098 69.7614 315.586 69.7614 313.262C69.7614 310.952 68.1514 309.44 65.9674 309.44ZM65.7714 315.6C64.5114 315.6 63.5454 314.69 63.5454 313.262C63.5454 311.834 64.5114 310.924 65.7714 310.924C67.0314 310.924 67.9834 311.834 67.9834 313.262C67.9834 314.69 67.0314 315.6 65.7714 315.6ZM74.3813 309.44C73.1773 309.44 72.0153 309.748 71.2173 310.364L71.9033 311.638C72.4633 311.176 73.3313 310.896 74.1713 310.896C75.4173 310.896 76.0333 311.498 76.0333 312.52V312.632H74.1013C71.8333 312.632 70.9933 313.612 70.9933 314.858C70.9933 316.16 72.0713 317.098 73.7793 317.098C74.8993 317.098 75.7113 316.734 76.1313 316.09V317H77.7833V312.618C77.7833 310.462 76.5373 309.44 74.3813 309.44ZM74.1433 315.824C73.2473 315.824 72.7153 315.418 72.7153 314.788C72.7153 314.242 73.0373 313.794 74.2273 313.794H76.0333V314.662C75.7393 315.432 74.9973 315.824 74.1433 315.824ZM81.8952 310.616V309.524H80.2292V317H81.9792V313.374C81.9792 311.848 82.8192 311.064 84.1492 311.064C84.2752 311.064 84.4012 311.078 84.5552 311.106V309.44C83.3092 309.44 82.3992 309.832 81.8952 310.616ZM90.5172 315.348C90.2512 315.558 89.9012 315.656 89.5372 315.656C88.8652 315.656 88.5012 315.264 88.5012 314.536V310.98H90.5032V309.58H88.5012V307.872H86.7512V309.58H85.5192V310.98H86.7512V314.578C86.7512 316.23 87.6892 317.098 89.3272 317.098C89.9572 317.098 90.5872 316.93 91.0072 316.594L90.5172 315.348ZM99.4287 313.304C99.4287 310.966 97.8327 309.44 95.6487 309.44C93.4227 309.44 91.7847 311.036 91.7847 313.262C91.7847 315.488 93.4087 317.098 95.9147 317.098C97.2027 317.098 98.2527 316.678 98.9247 315.88L97.9867 314.802C97.4547 315.348 96.7967 315.614 95.9567 315.614C94.6547 315.614 93.7447 314.914 93.5347 313.822H99.4007C99.4147 313.654 99.4287 313.444 99.4287 313.304ZM95.6487 310.84C96.7967 310.84 97.6227 311.582 97.7627 312.66H93.5207C93.6887 311.568 94.5147 310.84 95.6487 310.84ZM110.746 309.44C109.556 309.44 108.548 309.916 107.946 310.686C107.428 309.846 106.518 309.44 105.426 309.44C104.404 309.44 103.536 309.804 102.976 310.476V309.524H101.31V317H103.06V313.206C103.06 311.722 103.844 310.966 105.006 310.966C106.07 310.966 106.686 311.61 106.686 312.94V317H108.436V313.206C108.436 311.722 109.234 310.966 110.382 310.966C111.446 310.966 112.062 311.61 112.062 312.94V317H113.812V312.716C113.812 310.462 112.552 309.44 110.746 309.44ZM123.344 313.304C123.344 310.966 121.748 309.44 119.564 309.44C117.338 309.44 115.7 311.036 115.7 313.262C115.7 315.488 117.324 317.098 119.83 317.098C121.118 317.098 122.168 316.678 122.84 315.88L121.902 314.802C121.37 315.348 120.712 315.614 119.872 315.614C118.57 315.614 117.66 314.914 117.45 313.822H123.316C123.33 313.654 123.344 313.444 123.344 313.304ZM119.564 310.84C120.712 310.84 121.538 311.582 121.678 312.66H117.436C117.604 311.568 118.43 310.84 119.564 310.84ZM129.467 309.44C128.375 309.44 127.465 309.804 126.891 310.49V309.524H125.225V317H126.975V313.22C126.975 311.722 127.815 310.966 129.061 310.966C130.181 310.966 130.839 311.61 130.839 312.94V317H132.589V312.716C132.589 310.462 131.259 309.44 129.467 309.44ZM139.013 315.348C138.747 315.558 138.397 315.656 138.033 315.656C137.361 315.656 136.997 315.264 136.997 314.536V310.98H138.999V309.58H136.997V307.872H135.247V309.58H134.015V310.98H135.247V314.578C135.247 316.23 136.185 317.098 137.823 317.098C138.453 317.098 139.083 316.93 139.503 316.594L139.013 315.348ZM149.664 308.418L149.118 307.452L147.494 308.418L147.508 306.612H146.444L146.458 308.404L144.848 307.452L144.288 308.418L145.898 309.3L144.288 310.182L144.848 311.134L146.458 310.196L146.444 311.988H147.508L147.494 310.182L149.118 311.134L149.664 310.182L148.068 309.3L149.664 308.418Z" fill="#252B42"/>
<g clip-path="url(#clip3_688_3723)">
<g clip-path="url(#clip4_688_3723)">
<rect x="40.5" y="334.5" width="247" height="49" rx="4.5" fill="#F9F9F9"/>
<rect x="40.5" y="334.5" width="247" height="49" rx="4.5" stroke="#DDDDDD"/>
<path d="M62.718 354.214C64.202 354.214 65.2847 354.499 65.966 355.068C66.6473 355.637 66.988 356.515 66.988 357.7C66.988 358.885 66.638 359.753 65.938 360.304C65.2473 360.855 64.1833 361.13 62.746 361.13H61.01V364H59.358V354.214H62.718ZM62.928 359.632C63.8427 359.632 64.4633 359.459 64.79 359.114C65.126 358.759 65.294 358.246 65.294 357.574C65.294 356.893 65.084 356.412 64.664 356.132C64.244 355.852 63.586 355.712 62.69 355.712H61.01V359.632H62.928ZM70.4723 364H68.9043V353.612H70.4723V364ZM79.8761 360.962H74.0381C74.0754 361.503 74.3228 361.942 74.7801 362.278C75.2374 362.605 75.7601 362.768 76.3481 362.768C77.2814 362.768 77.9908 362.474 78.4761 361.886L79.3721 362.866C78.5694 363.697 77.5241 364.112 76.2361 364.112C75.1908 364.112 74.2994 363.767 73.5621 363.076C72.8341 362.376 72.4701 361.443 72.4701 360.276C72.4701 359.1 72.8434 358.167 73.5901 357.476C74.3368 356.785 75.2141 356.44 76.2221 356.44C77.2394 356.44 78.1028 356.748 78.8121 357.364C79.5214 357.971 79.8761 358.811 79.8761 359.884V360.962ZM74.0381 359.73H78.3081C78.3081 359.105 78.1121 358.624 77.7201 358.288C77.3281 357.952 76.8428 357.784 76.2641 357.784C75.6948 357.784 75.1814 357.961 74.7241 358.316C74.2668 358.661 74.0381 359.133 74.0381 359.73ZM87.8344 364H86.4064V363.006C85.7904 363.743 84.9644 364.112 83.9284 364.112C83.1537 364.112 82.5097 363.893 81.9964 363.454C81.4924 363.015 81.2404 362.432 81.2404 361.704C81.2404 360.967 81.5111 360.416 82.0524 360.052C82.5937 359.688 83.3264 359.506 84.2504 359.506H86.2804V359.226C86.2804 358.237 85.7297 357.742 84.6284 357.742C83.9377 357.742 83.2191 357.994 82.4724 358.498L81.7724 357.518C82.6777 356.799 83.7044 356.44 84.8524 356.44C85.7297 356.44 86.4437 356.664 86.9944 357.112C87.5544 357.551 87.8344 358.246 87.8344 359.198V364ZM86.2664 361.228V360.598H84.5024C83.3731 360.598 82.8084 360.953 82.8084 361.662C82.8084 362.026 82.9484 362.306 83.2284 362.502C83.5084 362.689 83.8957 362.782 84.3904 362.782C84.8944 362.782 85.3331 362.642 85.7064 362.362C86.0797 362.082 86.2664 361.704 86.2664 361.228ZM95.5232 361.774C95.5232 362.483 95.2665 363.053 94.7532 363.482C94.2399 363.902 93.5819 364.112 92.7792 364.112C92.2379 364.112 91.6732 364.014 91.0852 363.818C90.5065 363.622 89.9932 363.347 89.5452 362.992L90.3012 361.774C91.1692 362.427 92.0092 362.754 92.8212 362.754C93.1759 362.754 93.4559 362.675 93.6612 362.516C93.8665 362.348 93.9692 362.138 93.9692 361.886C93.9692 361.513 93.4745 361.177 92.4852 360.878C92.4105 360.85 92.3545 360.831 92.3172 360.822C90.7679 360.402 89.9932 359.702 89.9932 358.722C89.9932 358.031 90.2592 357.481 90.7912 357.07C91.3325 356.65 92.0325 356.44 92.8912 356.44C93.7499 356.44 94.5619 356.692 95.3272 357.196L94.7392 358.358C94.1325 357.957 93.4745 357.756 92.7652 357.756C92.3919 357.756 92.0885 357.826 91.8552 357.966C91.6219 358.097 91.5052 358.297 91.5052 358.568C91.5052 358.811 91.6265 358.988 91.8692 359.1C92.0372 359.184 92.2705 359.263 92.5692 359.338C92.8772 359.413 93.1479 359.487 93.3812 359.562C93.6145 359.637 93.8385 359.721 94.0532 359.814C94.2772 359.907 94.5152 360.038 94.7672 360.206C95.2712 360.542 95.5232 361.065 95.5232 361.774ZM104.429 360.962H98.5912C98.6286 361.503 98.8759 361.942 99.3332 362.278C99.7906 362.605 100.313 362.768 100.901 362.768C101.835 362.768 102.544 362.474 103.029 361.886L103.925 362.866C103.123 363.697 102.077 364.112 100.789 364.112C99.7439 364.112 98.8526 363.767 98.1152 363.076C97.3872 362.376 97.0232 361.443 97.0232 360.276C97.0232 359.1 97.3966 358.167 98.1432 357.476C98.8899 356.785 99.7672 356.44 100.775 356.44C101.793 356.44 102.656 356.748 103.365 357.364C104.075 357.971 104.429 358.811 104.429 359.884V360.962ZM98.5912 359.73H102.861C102.861 359.105 102.665 358.624 102.273 358.288C101.881 357.952 101.396 357.784 100.817 357.784C100.248 357.784 99.7346 357.961 99.2772 358.316C98.8199 358.661 98.5912 359.133 98.5912 359.73ZM113.573 355.502C113.097 355.502 112.705 355.6 112.397 355.796C112.089 355.992 111.935 356.291 111.935 356.692C111.935 357.084 112.089 357.387 112.397 357.602C112.705 357.807 113.359 358.031 114.357 358.274C115.365 358.517 116.121 358.857 116.625 359.296C117.139 359.735 117.395 360.383 117.395 361.242C117.395 362.091 117.073 362.782 116.429 363.314C115.785 363.846 114.941 364.112 113.895 364.112C112.365 364.112 111.007 363.585 109.821 362.53L110.857 361.284C111.847 362.143 112.873 362.572 113.937 362.572C114.469 362.572 114.889 362.46 115.197 362.236C115.515 362.003 115.673 361.699 115.673 361.326C115.673 360.943 115.524 360.649 115.225 360.444C114.936 360.229 114.432 360.038 113.713 359.87C112.995 359.693 112.449 359.534 112.075 359.394C111.702 359.245 111.371 359.053 111.081 358.82C110.503 358.381 110.213 357.709 110.213 356.804C110.213 355.899 110.54 355.203 111.193 354.718C111.856 354.223 112.673 353.976 113.643 353.976C114.269 353.976 114.889 354.079 115.505 354.284C116.121 354.489 116.653 354.779 117.101 355.152L116.219 356.398C115.93 356.137 115.538 355.922 115.043 355.754C114.549 355.586 114.059 355.502 113.573 355.502ZM126.344 360.962H120.506C120.543 361.503 120.79 361.942 121.248 362.278C121.705 362.605 122.228 362.768 122.816 362.768C123.749 362.768 124.458 362.474 124.944 361.886L125.84 362.866C125.037 363.697 123.992 364.112 122.704 364.112C121.658 364.112 120.767 363.767 120.03 363.076C119.302 362.376 118.938 361.443 118.938 360.276C118.938 359.1 119.311 358.167 120.058 357.476C120.804 356.785 121.682 356.44 122.69 356.44C123.707 356.44 124.57 356.748 125.28 357.364C125.989 357.971 126.344 358.811 126.344 359.884V360.962ZM120.506 359.73H124.776C124.776 359.105 124.58 358.624 124.188 358.288C123.796 357.952 123.31 357.784 122.732 357.784C122.162 357.784 121.649 357.961 121.192 358.316C120.734 358.661 120.506 359.133 120.506 359.73ZM129.836 364H128.268V353.612H129.836V364ZM139.24 360.962H133.402C133.439 361.503 133.686 361.942 134.144 362.278C134.601 362.605 135.124 362.768 135.712 362.768C136.645 362.768 137.354 362.474 137.84 361.886L138.736 362.866C137.933 363.697 136.888 364.112 135.6 364.112C134.554 364.112 133.663 363.767 132.926 363.076C132.198 362.376 131.834 361.443 131.834 360.276C131.834 359.1 132.207 358.167 132.954 357.476C133.7 356.785 134.578 356.44 135.586 356.44C136.603 356.44 137.466 356.748 138.176 357.364C138.885 357.971 139.24 358.811 139.24 359.884V360.962ZM133.402 359.73H137.672C137.672 359.105 137.476 358.624 137.084 358.288C136.692 357.952 136.206 357.784 135.628 357.784C135.058 357.784 134.545 357.961 134.088 358.316C133.63 358.661 133.402 359.133 133.402 359.73ZM144.468 364.112C143.432 364.112 142.541 363.762 141.794 363.062C141.047 362.353 140.674 361.429 140.674 360.29C140.674 359.151 141.061 358.227 141.836 357.518C142.62 356.799 143.572 356.44 144.692 356.44C145.812 356.44 146.759 356.827 147.534 357.602L146.61 358.736C145.966 358.176 145.317 357.896 144.664 357.896C144.011 357.896 143.441 358.115 142.956 358.554C142.48 358.983 142.242 359.543 142.242 360.234C142.242 360.915 142.48 361.494 142.956 361.97C143.432 362.446 144.015 362.684 144.706 362.684C145.406 362.684 146.064 362.367 146.68 361.732L147.604 362.74C146.699 363.655 145.653 364.112 144.468 364.112ZM151.362 357.812V361.592C151.362 361.947 151.456 362.231 151.642 362.446C151.829 362.651 152.09 362.754 152.426 362.754C152.762 362.754 153.084 362.591 153.392 362.264L154.036 363.37C153.486 363.865 152.874 364.112 152.202 364.112C151.54 364.112 150.97 363.883 150.494 363.426C150.028 362.959 149.794 362.334 149.794 361.55V357.812H148.856V356.552H149.794V354.214H151.362V356.552H153.322V357.812H151.362Z" fill="#737373"/>
<path d="M246.992 355L251.992 360L256.992 355L258.992 356L251.992 363L244.992 356L246.992 355Z" fill="#737373"/>
</g>
</g>
<path d="M43.304 411H45.124V402.74H48.372V401.2H40.056V402.74H43.304V411ZM50.4741 402.292C51.1321 402.292 51.5941 401.816 51.5941 401.2C51.5941 400.626 51.1181 400.192 50.4741 400.192C49.8301 400.192 49.3541 400.654 49.3541 401.242C49.3541 401.83 49.8301 402.292 50.4741 402.292ZM49.5921 411H51.3421V403.524H49.5921V411ZM63.275 403.44C62.085 403.44 61.077 403.916 60.475 404.686C59.957 403.846 59.047 403.44 57.955 403.44C56.933 403.44 56.065 403.804 55.505 404.476V403.524H53.839V411H55.589V407.206C55.589 405.722 56.373 404.966 57.535 404.966C58.599 404.966 59.215 405.61 59.215 406.94V411H60.965V407.206C60.965 405.722 61.763 404.966 62.911 404.966C63.975 404.966 64.591 405.61 64.591 406.94V411H66.341V406.716C66.341 404.462 65.081 403.44 63.275 403.44ZM75.8737 407.304C75.8737 404.966 74.2777 403.44 72.0937 403.44C69.8677 403.44 68.2297 405.036 68.2297 407.262C68.2297 409.488 69.8537 411.098 72.3597 411.098C73.6477 411.098 74.6977 410.678 75.3697 409.88L74.4317 408.802C73.8997 409.348 73.2417 409.614 72.4017 409.614C71.0997 409.614 70.1897 408.914 69.9797 407.822H75.8457C75.8597 407.654 75.8737 407.444 75.8737 407.304ZM72.0937 404.84C73.2417 404.84 74.0677 405.582 74.2077 406.66H69.9657C70.1337 405.568 70.9597 404.84 72.0937 404.84ZM86.2758 402.418L85.7298 401.452L84.1058 402.418L84.1198 400.612H83.0558L83.0698 402.404L81.4598 401.452L80.8998 402.418L82.5098 403.3L80.8998 404.182L81.4598 405.134L83.0698 404.196L83.0558 405.988H84.1198L84.1058 404.182L85.7298 405.134L86.2758 404.182L84.6798 403.3L86.2758 402.418Z" fill="#252B42"/>
<g clip-path="url(#clip5_688_3723)">
<g clip-path="url(#clip6_688_3723)">
<rect x="40.5" y="428.5" width="247" height="49" rx="4.5" fill="#F9F9F9"/>
<rect x="40.5" y="428.5" width="247" height="49" rx="4.5" stroke="#DDDDDD"/>
<path d="M62.718 454.038V452.246H64.286V454.038H65.462V455.536H64.286V458H62.718V455.536H58.518V454.08L62.116 448.214H63.922L60.38 454.038H62.718ZM67.5137 457.804C67.3177 457.599 67.2197 457.351 67.2197 457.062C67.2197 456.773 67.3177 456.53 67.5137 456.334C67.7191 456.129 67.9664 456.026 68.2557 456.026C68.5451 456.026 68.7924 456.129 68.9977 456.334C69.2031 456.53 69.3057 456.773 69.3057 457.062C69.3057 457.351 69.2031 457.599 68.9977 457.804C68.7924 458.009 68.5451 458.112 68.2557 458.112C67.9664 458.112 67.7191 458.009 67.5137 457.804ZM67.5137 454.374C67.3177 454.169 67.2197 453.921 67.2197 453.632C67.2197 453.343 67.3177 453.1 67.5137 452.904C67.7191 452.699 67.9664 452.596 68.2557 452.596C68.5451 452.596 68.7924 452.699 68.9977 452.904C69.2031 453.1 69.3057 453.343 69.3057 453.632C69.3057 453.921 69.2031 454.169 68.9977 454.374C68.7924 454.579 68.5451 454.682 68.2557 454.682C67.9664 454.682 67.7191 454.579 67.5137 454.374ZM73.5093 450.398C73.1266 451.07 72.9353 451.952 72.9353 453.044C72.9353 454.136 73.1266 455.018 73.5093 455.69C73.9013 456.362 74.5079 456.698 75.3293 456.698C76.1506 456.698 76.7479 456.367 77.1213 455.704C77.5039 455.032 77.6953 454.145 77.6953 453.044C77.6953 451.943 77.5039 451.061 77.1213 450.398C76.7479 449.726 76.1506 449.39 75.3293 449.39C74.5079 449.39 73.9013 449.726 73.5093 450.398ZM72.3333 456.74C71.6706 455.816 71.3393 454.584 71.3393 453.044C71.3393 451.504 71.6706 450.277 72.3333 449.362C72.9959 448.438 73.9946 447.976 75.3293 447.976C76.6639 447.976 77.6626 448.438 78.3253 449.362C78.9879 450.277 79.3193 451.504 79.3193 453.044C79.3193 454.584 78.9879 455.816 78.3253 456.74C77.6626 457.655 76.6639 458.112 75.3293 458.112C73.9946 458.112 72.9959 457.655 72.3333 456.74ZM83.348 450.398C82.9653 451.07 82.774 451.952 82.774 453.044C82.774 454.136 82.9653 455.018 83.348 455.69C83.74 456.362 84.3466 456.698 85.168 456.698C85.9893 456.698 86.5866 456.367 86.96 455.704C87.3426 455.032 87.534 454.145 87.534 453.044C87.534 451.943 87.3426 451.061 86.96 450.398C86.5866 449.726 85.9893 449.39 85.168 449.39C84.3466 449.39 83.74 449.726 83.348 450.398ZM82.172 456.74C81.5093 455.816 81.178 454.584 81.178 453.044C81.178 451.504 81.5093 450.277 82.172 449.362C82.8346 448.438 83.8333 447.976 85.168 447.976C86.5026 447.976 87.5013 448.438 88.164 449.362C88.8266 450.277 89.158 451.504 89.158 453.044C89.158 454.584 88.8266 455.816 88.164 456.74C87.5013 457.655 86.5026 458.112 85.168 458.112C83.8333 458.112 82.8346 457.655 82.172 456.74ZM96.9764 455.774L95.9964 458H94.2324L98.5444 448.214H100.308L104.62 458H102.856L101.876 455.774H96.9764ZM101.204 454.248L99.4264 450.216L97.6484 454.248H101.204ZM107.521 458L104.525 450.552H106.149L108.417 456.18L110.685 450.552H112.309L109.313 458H107.521ZM119.697 458H118.269V457.006C117.653 457.743 116.827 458.112 115.791 458.112C115.016 458.112 114.372 457.893 113.859 457.454C113.355 457.015 113.103 456.432 113.103 455.704C113.103 454.967 113.374 454.416 113.915 454.052C114.456 453.688 115.189 453.506 116.113 453.506H118.143V453.226C118.143 452.237 117.592 451.742 116.491 451.742C115.8 451.742 115.082 451.994 114.335 452.498L113.635 451.518C114.54 450.799 115.567 450.44 116.715 450.44C117.592 450.44 118.306 450.664 118.857 451.112C119.417 451.551 119.697 452.246 119.697 453.198V458ZM118.129 455.228V454.598H116.365C115.236 454.598 114.671 454.953 114.671 455.662C114.671 456.026 114.811 456.306 115.091 456.502C115.371 456.689 115.758 456.782 116.253 456.782C116.757 456.782 117.196 456.642 117.569 456.362C117.942 456.082 118.129 455.704 118.129 455.228ZM123.648 458H122.08V450.552H123.648V458ZM122.178 449.068C121.982 448.872 121.884 448.639 121.884 448.368C121.884 448.097 121.982 447.864 122.178 447.668C122.374 447.472 122.607 447.374 122.878 447.374C123.148 447.374 123.382 447.472 123.578 447.668C123.774 447.864 123.872 448.097 123.872 448.368C123.872 448.639 123.774 448.872 123.578 449.068C123.382 449.264 123.148 449.362 122.878 449.362C122.607 449.362 122.374 449.264 122.178 449.068ZM127.69 458H126.122V447.612H127.69V458ZM136.197 458H134.769V457.006C134.153 457.743 133.327 458.112 132.291 458.112C131.517 458.112 130.873 457.893 130.359 457.454C129.855 457.015 129.603 456.432 129.603 455.704C129.603 454.967 129.874 454.416 130.415 454.052C130.957 453.688 131.689 453.506 132.613 453.506H134.643V453.226C134.643 452.237 134.093 451.742 132.991 451.742C132.301 451.742 131.582 451.994 130.835 452.498L130.135 451.518C131.041 450.799 132.067 450.44 133.215 450.44C134.093 450.44 134.807 450.664 135.357 451.112C135.917 451.551 136.197 452.246 136.197 453.198V458ZM134.629 455.228V454.598H132.865C131.736 454.598 131.171 454.953 131.171 455.662C131.171 456.026 131.311 456.306 131.591 456.502C131.871 456.689 132.259 456.782 132.753 456.782C133.257 456.782 133.696 456.642 134.069 456.362C134.443 456.082 134.629 455.704 134.629 455.228ZM142.57 450.44C143.569 450.44 144.423 450.785 145.132 451.476C145.841 452.167 146.196 453.086 146.196 454.234C146.196 455.382 145.841 456.315 145.132 457.034C144.432 457.753 143.611 458.112 142.668 458.112C141.735 458.112 140.895 457.701 140.148 456.88V458H138.58V447.612H140.148V451.854C140.764 450.911 141.571 450.44 142.57 450.44ZM140.12 454.29C140.12 454.999 140.335 455.583 140.764 456.04C141.193 456.488 141.716 456.712 142.332 456.712C142.948 456.712 143.485 456.488 143.942 456.04C144.399 455.592 144.628 455.013 144.628 454.304C144.628 453.585 144.404 452.993 143.956 452.526C143.508 452.05 142.971 451.812 142.346 451.812C141.721 451.812 141.193 452.05 140.764 452.526C140.335 452.993 140.12 453.581 140.12 454.29ZM149.754 458H148.186V447.612H149.754V458ZM159.158 454.962H153.32C153.357 455.503 153.605 455.942 154.062 456.278C154.519 456.605 155.042 456.768 155.63 456.768C156.563 456.768 157.273 456.474 157.758 455.886L158.654 456.866C157.851 457.697 156.806 458.112 155.518 458.112C154.473 458.112 153.581 457.767 152.844 457.076C152.116 456.376 151.752 455.443 151.752 454.276C151.752 453.1 152.125 452.167 152.872 451.476C153.619 450.785 154.496 450.44 155.504 450.44C156.521 450.44 157.385 450.748 158.094 451.364C158.803 451.971 159.158 452.811 159.158 453.884V454.962ZM153.32 453.73H157.59C157.59 453.105 157.394 452.624 157.002 452.288C156.61 451.952 156.125 451.784 155.546 451.784C154.977 451.784 154.463 451.961 154.006 452.316C153.549 452.661 153.32 453.133 153.32 453.73Z" fill="#737373"/>
<path d="M246.992 449L251.992 454L256.992 449L258.992 450L251.992 457L244.992 450L246.992 449Z" fill="#737373"/>
</g>
</g>
</g>
<rect x="40" y="518" width="248" height="58" rx="5" fill="#23A6F0"/>
<path d="M100.757 552H96.4726V542.214H100.281C100.943 542.214 101.513 542.293 101.989 542.452C102.474 542.611 102.838 542.825 103.081 543.096C103.519 543.6 103.739 544.169 103.739 544.804C103.739 545.569 103.491 546.139 102.997 546.512C102.829 546.643 102.712 546.727 102.647 546.764C102.581 546.792 102.465 546.843 102.297 546.918C102.903 547.049 103.384 547.324 103.739 547.744C104.103 548.155 104.285 548.668 104.285 549.284C104.285 549.965 104.051 550.567 103.585 551.09C103.043 551.697 102.101 552 100.757 552ZM98.6566 546.176H99.6926C100.299 546.176 100.747 546.111 101.037 545.98C101.335 545.849 101.485 545.569 101.485 545.14C101.485 544.701 101.349 544.412 101.079 544.272C100.808 544.132 100.351 544.062 99.7066 544.062H98.6566V546.176ZM98.6566 550.152H100.155C100.78 550.152 101.247 550.077 101.555 549.928C101.872 549.769 102.031 549.466 102.031 549.018C102.031 548.561 101.863 548.262 101.527 548.122C101.2 547.973 100.673 547.898 99.9446 547.898H98.6566V550.152ZM107.727 548.234C107.727 548.85 107.899 549.354 108.245 549.746C108.599 550.129 109.047 550.32 109.589 550.32C110.139 550.32 110.587 550.129 110.933 549.746C111.287 549.354 111.465 548.85 111.465 548.234C111.465 547.618 111.287 547.114 110.933 546.722C110.587 546.33 110.139 546.134 109.589 546.134C109.047 546.134 108.599 546.33 108.245 546.722C107.899 547.114 107.727 547.618 107.727 548.234ZM113.579 548.234C113.579 549.326 113.201 550.245 112.445 550.992C111.689 551.739 110.737 552.112 109.589 552.112C108.45 552.112 107.503 551.739 106.747 550.992C105.991 550.245 105.613 549.326 105.613 548.234C105.613 547.142 105.991 546.223 106.747 545.476C107.503 544.72 108.45 544.342 109.589 544.342C110.737 544.342 111.689 544.72 112.445 545.476C113.201 546.223 113.579 547.142 113.579 548.234ZM117.018 548.234C117.018 548.85 117.191 549.354 117.536 549.746C117.891 550.129 118.339 550.32 118.88 550.32C119.431 550.32 119.879 550.129 120.224 549.746C120.579 549.354 120.756 548.85 120.756 548.234C120.756 547.618 120.579 547.114 120.224 546.722C119.879 546.33 119.431 546.134 118.88 546.134C118.339 546.134 117.891 546.33 117.536 546.722C117.191 547.114 117.018 547.618 117.018 548.234ZM122.87 548.234C122.87 549.326 122.492 550.245 121.736 550.992C120.98 551.739 120.028 552.112 118.88 552.112C117.742 552.112 116.794 551.739 116.038 550.992C115.282 550.245 114.904 549.326 114.904 548.234C114.904 547.142 115.282 546.223 116.038 545.476C116.794 544.72 117.742 544.342 118.88 544.342C120.028 544.342 120.98 544.72 121.736 545.476C122.492 546.223 122.87 547.142 122.87 548.234ZM126.73 552H124.63V541.612H126.73V546.946L129.068 544.454H131.714L128.844 547.506L131.826 552H129.334L127.416 549.116L126.73 549.83V552ZM144.23 552L143.32 549.886H139.218L138.308 552H135.984L140.212 542.214H142.326L146.554 552H144.23ZM141.276 545.126L140.044 547.968H142.494L141.276 545.126ZM152.061 544.342C152.939 544.342 153.718 544.711 154.399 545.448C155.09 546.176 155.435 547.095 155.435 548.206C155.435 549.317 155.09 550.245 154.399 550.992C153.718 551.739 152.915 552.112 151.991 552.112C151.077 552.112 150.339 551.743 149.779 551.006V554.716H147.679V544.468H149.779V545.308C150.423 544.664 151.184 544.342 152.061 544.342ZM149.751 548.248C149.751 548.855 149.919 549.354 150.255 549.746C150.601 550.129 151.016 550.32 151.501 550.32C151.987 550.32 152.411 550.129 152.775 549.746C153.139 549.354 153.321 548.855 153.321 548.248C153.321 547.641 153.144 547.133 152.789 546.722C152.435 546.311 152.01 546.106 151.515 546.106C151.021 546.106 150.601 546.311 150.255 546.722C149.919 547.123 149.751 547.632 149.751 548.248ZM161.586 544.342C162.463 544.342 163.242 544.711 163.924 545.448C164.614 546.176 164.96 547.095 164.96 548.206C164.96 549.317 164.614 550.245 163.924 550.992C163.242 551.739 162.44 552.112 161.516 552.112C160.601 552.112 159.864 551.743 159.304 551.006V554.716H157.204V544.468H159.304V545.308C159.948 544.664 160.708 544.342 161.586 544.342ZM159.276 548.248C159.276 548.855 159.444 549.354 159.78 549.746C160.125 550.129 160.54 550.32 161.026 550.32C161.511 550.32 161.936 550.129 162.3 549.746C162.664 549.354 162.846 548.855 162.846 548.248C162.846 547.641 162.668 547.133 162.314 546.722C161.959 546.311 161.534 546.106 161.04 546.106C160.545 546.106 160.125 546.311 159.78 546.722C159.444 547.123 159.276 547.632 159.276 548.248ZM168.408 548.234C168.408 548.85 168.58 549.354 168.926 549.746C169.28 550.129 169.728 550.32 170.27 550.32C170.82 550.32 171.268 550.129 171.614 549.746C171.968 549.354 172.146 548.85 172.146 548.234C172.146 547.618 171.968 547.114 171.614 546.722C171.268 546.33 170.82 546.134 170.27 546.134C169.728 546.134 169.28 546.33 168.926 546.722C168.58 547.114 168.408 547.618 168.408 548.234ZM174.26 548.234C174.26 549.326 173.882 550.245 173.126 550.992C172.37 551.739 171.418 552.112 170.27 552.112C169.131 552.112 168.184 551.739 167.428 550.992C166.672 550.245 166.294 549.326 166.294 548.234C166.294 547.142 166.672 546.223 167.428 545.476C168.184 544.72 169.131 544.342 170.27 544.342C171.418 544.342 172.37 544.72 173.126 545.476C173.882 546.223 174.26 547.142 174.26 548.234ZM178.12 552H176.02V544.468H178.12V552ZM176.188 543.516C175.954 543.273 175.838 542.979 175.838 542.634C175.838 542.289 175.954 541.999 176.188 541.766C176.43 541.523 176.724 541.402 177.07 541.402C177.415 541.402 177.704 541.523 177.938 541.766C178.18 541.999 178.302 542.289 178.302 542.634C178.302 542.979 178.18 543.273 177.938 543.516C177.704 543.749 177.415 543.866 177.07 543.866C176.724 543.866 176.43 543.749 176.188 543.516ZM182.407 547.8V552H180.307V544.468H182.407V545.308C183.042 544.664 183.756 544.342 184.549 544.342C185.343 544.342 186.005 544.622 186.537 545.182C187.079 545.742 187.349 546.489 187.349 547.422V552H185.249V547.744C185.249 546.587 184.825 546.008 183.975 546.008C183.555 546.008 183.187 546.162 182.869 546.47C182.561 546.769 182.407 547.212 182.407 547.8ZM191.846 545.98V549.354C191.846 549.643 191.92 549.872 192.07 550.04C192.219 550.199 192.396 550.278 192.602 550.278C192.994 550.278 193.325 550.101 193.596 549.746L194.38 551.216C193.726 551.813 193.036 552.112 192.308 552.112C191.589 552.112 190.978 551.874 190.474 551.398C189.979 550.922 189.732 550.273 189.732 549.452V545.98H188.85V544.468H189.732V542.214H191.846V544.468H193.666V545.98H191.846ZM202.622 547.94V552H200.508V547.884C200.508 547.287 200.414 546.848 200.228 546.568C200.05 546.288 199.756 546.148 199.346 546.148C198.944 546.148 198.585 546.302 198.268 546.61C197.96 546.909 197.806 547.352 197.806 547.94V552H195.706V544.468H197.806V545.322C198.384 544.669 199.047 544.342 199.794 544.342C200.27 544.342 200.699 544.482 201.082 544.762C201.474 545.042 201.768 545.383 201.964 545.784C202.253 545.327 202.64 544.972 203.126 544.72C203.62 544.468 204.115 544.342 204.61 544.342C205.496 544.342 206.21 544.608 206.752 545.14C207.293 545.663 207.564 546.423 207.564 547.422V552H205.45V547.884C205.45 546.727 205.025 546.148 204.176 546.148C203.756 546.148 203.392 546.302 203.084 546.61C202.776 546.909 202.622 547.352 202.622 547.94ZM216.197 550.908C215.348 551.711 214.349 552.112 213.201 552.112C212.062 552.112 211.12 551.762 210.373 551.062C209.626 550.353 209.253 549.405 209.253 548.22C209.253 547.035 209.631 546.092 210.387 545.392C211.152 544.692 212.053 544.342 213.089 544.342C214.125 544.342 215.002 544.655 215.721 545.28C216.449 545.905 216.813 546.764 216.813 547.856V548.976H211.325C211.39 549.387 211.605 549.723 211.969 549.984C212.333 550.245 212.744 550.376 213.201 550.376C213.938 550.376 214.545 550.129 215.021 549.634L216.197 550.908ZM214.685 547.478C214.638 547.03 214.47 546.685 214.181 546.442C213.892 546.199 213.537 546.078 213.117 546.078C212.706 546.078 212.328 546.204 211.983 546.456C211.638 546.708 211.437 547.049 211.381 547.478H214.685ZM220.627 547.8V552H218.527V544.468H220.627V545.308C221.262 544.664 221.976 544.342 222.769 544.342C223.563 544.342 224.225 544.622 224.757 545.182C225.299 545.742 225.569 546.489 225.569 547.422V552H223.469V547.744C223.469 546.587 223.045 546.008 222.195 546.008C221.775 546.008 221.407 546.162 221.089 546.47C220.781 546.769 220.627 547.212 220.627 547.8ZM230.065 545.98V549.354C230.065 549.643 230.14 549.872 230.289 550.04C230.439 550.199 230.616 550.278 230.821 550.278C231.213 550.278 231.545 550.101 231.815 549.746L232.599 551.216C231.946 551.813 231.255 552.112 230.527 552.112C229.809 552.112 229.197 551.874 228.693 551.398C228.199 550.922 227.951 550.273 227.951 549.452V545.98H227.069V544.468H227.951V542.214H230.065V544.468H231.885V545.98H230.065Z" fill="white"/>
<defs>
<clipPath id="clip0_688_3723">
<rect x="40" y="112" width="248" height="366" rx="1" fill="white"/>
</clipPath>
<clipPath id="clip1_688_3723">
<rect width="246" height="50" fill="white" transform="translate(42 146)"/>
</clipPath>
<clipPath id="clip2_688_3723">
<rect width="246" height="50" fill="white" transform="translate(42 240)"/>
</clipPath>
<clipPath id="clip3_688_3723">
<rect width="248" height="50" fill="white" transform="translate(40 334)"/>
</clipPath>
<clipPath id="clip4_688_3723">
<rect width="248" height="50" fill="white" transform="translate(40 334)"/>
</clipPath>
<clipPath id="clip5_688_3723">
<rect width="248" height="50" fill="white" transform="translate(40 428)"/>
</clipPath>
<clipPath id="clip6_688_3723">
<rect width="248" height="50" fill="white" transform="translate(40 428)"/>
</clipPath>
</defs>
</svg>
