<svg width="85" height="28" viewBox="0 0 85 28" fill="none" xmlns="http://www.w3.org/2000/svg">
<rect x="1" y="1" width="23" height="23" rx="11.5" fill="#DADADA"/>
<rect x="1" y="1" width="23" height="23" rx="11.5" stroke="#DCDCDC" stroke-width="2"/>
<path d="M48.48 12.448C48.48 14.2933 47.6747 15.456 46.064 15.936L48.992 20H46.592L43.92 16.24H41.44V20H39.552V8.816H43.712C45.4187 8.816 46.64 9.104 47.376 9.68C48.112 10.256 48.48 11.1787 48.48 12.448ZM43.792 14.528C44.8587 14.528 45.584 14.3627 45.968 14.032C46.352 13.7013 46.544 13.1733 46.544 12.448C46.544 11.712 46.3467 11.2107 45.952 10.944C45.5573 10.6667 44.8533 10.528 43.84 10.528H41.44V14.528H43.792ZM57.8764 20H56.2444V18.864C55.5404 19.7067 54.5964 20.128 53.4124 20.128C52.527 20.128 51.791 19.8773 51.2044 19.376C50.6284 18.8747 50.3404 18.208 50.3404 17.376C50.3404 16.5333 50.6497 15.904 51.2684 15.488C51.887 15.072 52.7244 14.864 53.7804 14.864H56.1004V14.544C56.1004 13.4133 55.471 12.848 54.2124 12.848C53.423 12.848 52.6017 13.136 51.7484 13.712L50.9484 12.592C51.983 11.7707 53.1564 11.36 54.4684 11.36C55.471 11.36 56.287 11.616 56.9164 12.128C57.5564 12.6293 57.8764 13.424 57.8764 14.512V20ZM56.0844 16.832V16.112H54.0684C52.7777 16.112 52.1324 16.5173 52.1324 17.328C52.1324 17.744 52.2924 18.064 52.6124 18.288C52.9324 18.5013 53.375 18.608 53.9404 18.608C54.5164 18.608 55.0177 18.448 55.4444 18.128C55.871 17.808 56.0844 17.376 56.0844 16.832ZM64.043 20.128C62.9657 20.128 62.027 19.7227 61.227 18.912C60.427 18.1013 60.027 17.0347 60.027 15.712C60.027 14.3893 60.4377 13.3333 61.259 12.544C62.0803 11.7547 63.0563 11.36 64.187 11.36C65.3283 11.36 66.2457 11.84 66.939 12.8V8.128H68.731V20H66.939V18.72C66.2777 19.6587 65.3123 20.128 64.043 20.128ZM61.819 15.792C61.819 16.6027 62.0803 17.264 62.603 17.776C63.1257 18.288 63.739 18.544 64.443 18.544C65.147 18.544 65.7443 18.288 66.235 17.776C66.7257 17.2533 66.971 16.5867 66.971 15.776C66.971 14.9653 66.7257 14.288 66.235 13.744C65.7443 13.2 65.1417 12.928 64.427 12.928C63.7123 12.928 63.099 13.2 62.587 13.744C62.075 14.288 61.819 14.9707 61.819 15.792ZM73.313 20H71.521V11.488H73.313V20ZM71.633 9.792C71.409 9.568 71.297 9.30133 71.297 8.992C71.297 8.68267 71.409 8.416 71.633 8.192C71.857 7.968 72.1237 7.856 72.433 7.856C72.7423 7.856 73.009 7.968 73.233 8.192C73.457 8.416 73.569 8.68267 73.569 8.992C73.569 9.30133 73.457 9.568 73.233 9.792C73.009 10.016 72.7423 10.128 72.433 10.128C72.1237 10.128 71.857 10.016 71.633 9.792ZM78.0956 17.76C78.6076 18.272 79.253 18.528 80.0316 18.528C80.8103 18.528 81.4503 18.272 81.9516 17.76C82.4636 17.2373 82.7196 16.5653 82.7196 15.744C82.7196 14.9227 82.4636 14.256 81.9516 13.744C81.4503 13.2213 80.8103 12.96 80.0316 12.96C79.253 12.96 78.6076 13.2213 78.0956 13.744C77.5943 14.256 77.3436 14.9227 77.3436 15.744C77.3436 16.5653 77.5943 17.2373 78.0956 17.76ZM83.2316 18.864C82.3783 19.7067 81.3116 20.128 80.0316 20.128C78.7516 20.128 77.685 19.7067 76.8316 18.864C75.9783 18.0107 75.5516 16.9707 75.5516 15.744C75.5516 14.5173 75.9783 13.4827 76.8316 12.64C77.685 11.7867 78.7516 11.36 80.0316 11.36C81.3116 11.36 82.3783 11.7867 83.2316 12.64C84.085 13.4827 84.5116 14.5173 84.5116 15.744C84.5116 16.9707 84.085 18.0107 83.2316 18.864Z" fill="#737373"/>
</svg>
