<svg width="222" height="52" viewBox="0 0 222 52" fill="none" xmlns="http://www.w3.org/2000/svg">
<rect y="36" width="222" height="6" rx="3" fill="#E6E6E6"/>
<path d="M8.26 11.904C9.016 11.498 9.52 10.756 9.52 9.748C9.52 8.194 8.26 7.2 5.908 7.2H1.316V17H6.188C8.708 17 10.024 16.02 10.024 14.34C10.024 13.066 9.31 12.24 8.26 11.904ZM5.712 8.628C6.972 8.628 7.686 9.076 7.686 9.986C7.686 10.882 6.972 11.33 5.712 11.33H3.136V8.628H5.712ZM6.076 15.572H3.136V12.744H6.076C7.448 12.744 8.19 13.178 8.19 14.158C8.19 15.138 7.448 15.572 6.076 15.572ZM14.8544 9.44C13.6504 9.44 12.4884 9.748 11.6904 10.364L12.3764 11.638C12.9364 11.176 13.8044 10.896 14.6444 10.896C15.8904 10.896 16.5064 11.498 16.5064 12.52V12.632H14.5744C12.3064 12.632 11.4664 13.612 11.4664 14.858C11.4664 16.16 12.5444 17.098 14.2524 17.098C15.3724 17.098 16.1844 16.734 16.6044 16.09V17H18.2564V12.618C18.2564 10.462 17.0104 9.44 14.8544 9.44ZM14.6164 15.824C13.7204 15.824 13.1884 15.418 13.1884 14.788C13.1884 14.242 13.5104 13.794 14.7004 13.794H16.5064V14.662C16.2124 15.432 15.4704 15.824 14.6164 15.824ZM23.0123 17.098C25.1123 17.098 26.4003 16.188 26.4003 14.788C26.4003 11.862 21.7803 13.206 21.7803 11.694C21.7803 11.204 22.2843 10.854 23.3483 10.854C24.0623 10.854 24.7763 10.994 25.4903 11.414L26.1623 10.084C25.4903 9.678 24.3563 9.44 23.3623 9.44C21.3463 9.44 20.0723 10.364 20.0723 11.778C20.0723 14.76 24.6923 13.416 24.6923 14.844C24.6923 15.362 24.2303 15.67 23.1243 15.67C22.1863 15.67 21.1783 15.362 20.5203 14.928L19.8483 16.258C20.5203 16.734 21.7663 17.098 23.0123 17.098ZM28.9894 8.292C29.6474 8.292 30.1094 7.816 30.1094 7.2C30.1094 6.626 29.6334 6.192 28.9894 6.192C28.3454 6.192 27.8694 6.654 27.8694 7.242C27.8694 7.83 28.3454 8.292 28.9894 8.292ZM28.1074 17H29.8574V9.524H28.1074V17ZM35.7842 17.098C37.2402 17.098 38.4022 16.468 38.9762 15.348L37.6322 14.564C37.1842 15.278 36.5122 15.6 35.7702 15.6C34.4822 15.6 33.5022 14.718 33.5022 13.262C33.5022 11.82 34.4822 10.924 35.7702 10.924C36.5122 10.924 37.1842 11.246 37.6322 11.96L38.9762 11.176C38.4022 10.042 37.2402 9.44 35.7842 9.44C33.4182 9.44 31.7382 11.022 31.7382 13.262C31.7382 15.502 33.4182 17.098 35.7842 17.098ZM46.4242 10.616V9.524H44.7582V17H46.5082V13.374C46.5082 11.848 47.3482 11.064 48.6782 11.064C48.8042 11.064 48.9302 11.078 49.0842 11.106V9.44C47.8382 9.44 46.9282 9.832 46.4242 10.616ZM53.5837 9.44C52.3797 9.44 51.2177 9.748 50.4197 10.364L51.1057 11.638C51.6657 11.176 52.5337 10.896 53.3737 10.896C54.6197 10.896 55.2357 11.498 55.2357 12.52V12.632H53.3037C51.0357 12.632 50.1957 13.612 50.1957 14.858C50.1957 16.16 51.2737 17.098 52.9817 17.098C54.1017 17.098 54.9137 16.734 55.3337 16.09V17H56.9857V12.618C56.9857 10.462 55.7397 9.44 53.5837 9.44ZM53.3457 15.824C52.4497 15.824 51.9177 15.418 51.9177 14.788C51.9177 14.242 52.2397 13.794 53.4297 13.794H55.2357V14.662C54.9417 15.432 54.1997 15.824 53.3457 15.824ZM63.6736 9.44C62.5816 9.44 61.6716 9.804 61.0976 10.49V9.524H59.4316V17H61.1816V13.22C61.1816 11.722 62.0216 10.966 63.2676 10.966C64.3876 10.966 65.0456 11.61 65.0456 12.94V17H66.7956V12.716C66.7956 10.462 65.4656 9.44 63.6736 9.44ZM75.0379 9.524V10.518C74.4219 9.776 73.4979 9.44 72.4479 9.44C70.3059 9.44 68.6679 10.868 68.6679 13.038C68.6679 15.208 70.3059 16.664 72.4479 16.664C73.4559 16.664 74.3379 16.342 74.9539 15.67V16.062C74.9539 17.574 74.2259 18.33 72.5739 18.33C71.5379 18.33 70.4739 17.98 69.8159 17.434L69.0319 18.75C69.8859 19.45 71.2719 19.814 72.6719 19.814C75.2899 19.814 76.7039 18.582 76.7039 15.866V9.524H75.0379ZM72.7139 15.18C71.3839 15.18 70.4319 14.312 70.4319 13.038C70.4319 11.778 71.3839 10.924 72.7139 10.924C74.0299 10.924 74.9819 11.778 74.9819 13.038C74.9819 14.312 74.0299 15.18 72.7139 15.18ZM86.2326 13.304C86.2326 10.966 84.6366 9.44 82.4526 9.44C80.2266 9.44 78.5886 11.036 78.5886 13.262C78.5886 15.488 80.2126 17.098 82.7186 17.098C84.0066 17.098 85.0566 16.678 85.7286 15.88L84.7906 14.802C84.2586 15.348 83.6006 15.614 82.7606 15.614C81.4586 15.614 80.5486 14.914 80.3386 13.822H86.2046C86.2186 13.654 86.2326 13.444 86.2326 13.304ZM82.4526 10.84C83.6006 10.84 84.4266 11.582 84.5666 12.66H80.3246C80.4926 11.568 81.3186 10.84 82.4526 10.84Z" fill="#737373"/>
<g filter="url(#filter0_d_688_2256)">
<rect y="36" width="163" height="6" rx="3" fill="#23A6F0"/>
<g filter="url(#filter1_d_688_2256)">
<circle cx="156.5" cy="39.5" r="6.5" fill="#23A6F0"/>
</g>
<line x1="155.5" y1="37" x2="155.5" y2="42" stroke="white" stroke-opacity="0.3"/>
<line x1="157.5" y1="37" x2="157.5" y2="42" stroke="white" stroke-opacity="0.3"/>
</g>
<defs>
<filter id="filter0_d_688_2256" x="-4" y="31" width="171" height="21" filterUnits="userSpaceOnUse" color-interpolation-filters="sRGB">
<feFlood flood-opacity="0" result="BackgroundImageFix"/>
<feColorMatrix in="SourceAlpha" type="matrix" values="0 0 0 0 0 0 0 0 0 0 0 0 0 0 0 0 0 0 127 0" result="hardAlpha"/>
<feOffset dy="2"/>
<feGaussianBlur stdDeviation="2"/>
<feColorMatrix type="matrix" values="0 0 0 0 0 0 0 0 0 0 0 0 0 0 0 0 0 0 0.1 0"/>
<feBlend mode="normal" in2="BackgroundImageFix" result="effect1_dropShadow_688_2256"/>
<feBlend mode="normal" in="SourceGraphic" in2="effect1_dropShadow_688_2256" result="shape"/>
</filter>
<filter id="filter1_d_688_2256" x="146" y="31" width="21" height="21" filterUnits="userSpaceOnUse" color-interpolation-filters="sRGB">
<feFlood flood-opacity="0" result="BackgroundImageFix"/>
<feColorMatrix in="SourceAlpha" type="matrix" values="0 0 0 0 0 0 0 0 0 0 0 0 0 0 0 0 0 0 127 0" result="hardAlpha"/>
<feOffset dy="2"/>
<feGaussianBlur stdDeviation="2"/>
<feColorMatrix type="matrix" values="0 0 0 0 0 0 0 0 0 0 0 0 0 0 0 0 0 0 0.1 0"/>
<feBlend mode="normal" in2="BackgroundImageFix" result="effect1_dropShadow_688_2256"/>
<feBlend mode="normal" in="SourceGraphic" in2="effect1_dropShadow_688_2256" result="shape"/>
</filter>
</defs>
</svg>
