<svg width="451" height="50" viewBox="0 0 451 50" fill="none" xmlns="http://www.w3.org/2000/svg">
<g clip-path="url(#clip0_688_2312)">
<g clip-path="url(#clip1_688_2312)">
<rect x="0.5" y="0.5" width="450" height="49" rx="4.5" fill="#F9F9F9"/>
<rect x="0.5" y="0.5" width="450" height="49" rx="4.5" stroke="#DDDDDD"/>
<path d="M22.312 21.502C21.836 21.502 21.444 21.6 21.136 21.796C20.828 21.992 20.674 22.2907 20.674 22.692C20.674 23.084 20.828 23.3873 21.136 23.602C21.444 23.8073 22.0973 24.0313 23.096 24.274C24.104 24.5167 24.86 24.8573 25.364 25.296C25.8773 25.7347 26.134 26.3833 26.134 27.242C26.134 28.0913 25.812 28.782 25.168 29.314C24.524 29.846 23.6793 30.112 22.634 30.112C21.1033 30.112 19.7453 29.5847 18.56 28.53L19.596 27.284C20.5853 28.1427 21.612 28.572 22.676 28.572C23.208 28.572 23.628 28.46 23.936 28.236C24.2533 28.0027 24.412 27.6993 24.412 27.326C24.412 26.9433 24.2627 26.6493 23.964 26.444C23.6747 26.2293 23.1707 26.038 22.452 25.87C21.7333 25.6927 21.1873 25.534 20.814 25.394C20.4407 25.2447 20.1093 25.0533 19.82 24.82C19.2413 24.3813 18.952 23.7093 18.952 22.804C18.952 21.8987 19.2787 21.2033 19.932 20.718C20.5947 20.2233 21.4113 19.976 22.382 19.976C23.0073 19.976 23.628 20.0787 24.244 20.284C24.86 20.4893 25.392 20.7787 25.84 21.152L24.958 22.398C24.6687 22.1367 24.2767 21.922 23.782 21.754C23.2873 21.586 22.7973 21.502 22.312 21.502ZM35.0824 26.962H29.2444C29.2817 27.5033 29.529 27.942 29.9864 28.278C30.4437 28.6047 30.9664 28.768 31.5544 28.768C32.4877 28.768 33.197 28.474 33.6824 27.886L34.5784 28.866C33.7757 29.6967 32.7304 30.112 31.4424 30.112C30.397 30.112 29.5057 29.7667 28.7684 29.076C28.0404 28.376 27.6764 27.4427 27.6764 26.276C27.6764 25.1 28.0497 24.1667 28.7964 23.476C29.543 22.7853 30.4204 22.44 31.4284 22.44C32.4457 22.44 33.309 22.748 34.0184 23.364C34.7277 23.9707 35.0824 24.8107 35.0824 25.884V26.962ZM29.2444 25.73H33.5144C33.5144 25.1047 33.3184 24.624 32.9264 24.288C32.5344 23.952 32.049 23.784 31.4704 23.784C30.901 23.784 30.3877 23.9613 29.9304 24.316C29.473 24.6613 29.2444 25.1327 29.2444 25.73ZM38.5747 30H37.0067V19.612H38.5747V30ZM47.9785 26.962H42.1405C42.1778 27.5033 42.4251 27.942 42.8825 28.278C43.3398 28.6047 43.8625 28.768 44.4505 28.768C45.3838 28.768 46.0931 28.474 46.5785 27.886L47.4745 28.866C46.6718 29.6967 45.6265 30.112 44.3385 30.112C43.2931 30.112 42.4018 29.7667 41.6645 29.076C40.9365 28.376 40.5725 27.4427 40.5725 26.276C40.5725 25.1 40.9458 24.1667 41.6925 23.476C42.4391 22.7853 43.3165 22.44 44.3245 22.44C45.3418 22.44 46.2051 22.748 46.9145 23.364C47.6238 23.9707 47.9785 24.8107 47.9785 25.884V26.962ZM42.1405 25.73H46.4105C46.4105 25.1047 46.2145 24.624 45.8225 24.288C45.4305 23.952 44.9451 23.784 44.3665 23.784C43.7971 23.784 43.2838 23.9613 42.8265 24.316C42.3691 24.6613 42.1405 25.1327 42.1405 25.73ZM53.2067 30.112C52.1707 30.112 51.2794 29.762 50.5327 29.062C49.7861 28.3527 49.4127 27.4287 49.4127 26.29C49.4127 25.1513 49.8001 24.2273 50.5747 23.518C51.3587 22.7993 52.3107 22.44 53.4307 22.44C54.5507 22.44 55.4981 22.8273 56.2727 23.602L55.3487 24.736C54.7047 24.176 54.0561 23.896 53.4027 23.896C52.7494 23.896 52.1801 24.1153 51.6947 24.554C51.2187 24.9833 50.9807 25.5433 50.9807 26.234C50.9807 26.9153 51.2187 27.494 51.6947 27.97C52.1707 28.446 52.7541 28.684 53.4447 28.684C54.1447 28.684 54.8027 28.3667 55.4187 27.732L56.3427 28.74C55.4374 29.6547 54.3921 30.112 53.2067 30.112ZM60.1012 23.812V27.592C60.1012 27.9467 60.1945 28.2313 60.3812 28.446C60.5678 28.6513 60.8292 28.754 61.1652 28.754C61.5012 28.754 61.8232 28.5907 62.1312 28.264L62.7752 29.37C62.2245 29.8647 61.6132 30.112 60.9412 30.112C60.2785 30.112 59.7092 29.8833 59.2332 29.426C58.7665 28.9593 58.5332 28.334 58.5332 27.55V23.812H57.5952V22.552H58.5332V20.214H60.1012V22.552H62.0612V23.812H60.1012Z" fill="#737373"/>
<path d="M409.992 20.9995L414.992 25.9995L419.992 20.9995L421.992 21.9995L414.992 28.9995L407.992 21.9995L409.992 20.9995Z" fill="#737373"/>
</g>
</g>
<defs>
<clipPath id="clip0_688_2312">
<rect width="451" height="50" fill="white"/>
</clipPath>
<clipPath id="clip1_688_2312">
<rect width="451" height="50" fill="white"/>
</clipPath>
</defs>
</svg>
