<svg width="110" height="28" viewBox="0 0 110 28" fill="none" xmlns="http://www.w3.org/2000/svg">
<rect x="1" y="3" width="43" height="23" rx="11.5" fill="#DADADA"/>
<rect x="1" y="3" width="43" height="23" rx="11.5" stroke="#DCDCDC" stroke-width="2"/>
<circle cx="13.5" cy="14.5" r="9" fill="#EBEBEB" stroke="#D0D0D0"/>
<path d="M59.912 20.096C62.776 20.096 64.088 18.688 64.088 17.04C64.088 12.96 57.192 14.816 57.192 11.744C57.192 10.624 58.104 9.712 60.152 9.712C61.144 9.712 62.264 10.016 63.224 10.64L63.624 9.696C62.728 9.072 61.416 8.704 60.152 8.704C57.304 8.704 56.024 10.128 56.024 11.776C56.024 15.92 62.92 14.032 62.92 17.104C62.92 18.208 62.008 19.088 59.912 19.088C58.44 19.088 57.016 18.512 56.216 17.728L55.752 18.64C56.584 19.504 58.232 20.096 59.912 20.096ZM77.7835 11.584L75.1115 18.736L72.4235 11.584H71.4475L68.7435 18.736L66.1035 11.584H65.0155L68.1835 20H69.2555L71.9115 13.104L74.5675 20H75.6395L78.8235 11.584H77.7835ZM81.31 9.744C81.79 9.744 82.142 9.376 82.142 8.912C82.142 8.48 81.774 8.128 81.31 8.128C80.846 8.128 80.478 8.496 80.478 8.928C80.478 9.376 80.846 9.744 81.31 9.744ZM80.734 20H81.87V11.584H80.734V20ZM89.2629 18.672C88.9429 18.96 88.4789 19.104 88.0149 19.104C87.0709 19.104 86.5589 18.56 86.5589 17.568V12.544H89.1189V11.584H86.5589V9.744H85.4229V11.584H83.9189V12.544H85.4229V17.632C85.4229 19.184 86.3029 20.08 87.8869 20.08C88.5429 20.08 89.2149 19.888 89.6629 19.488L89.2629 18.672ZM95.122 20.08C96.546 20.08 97.746 19.504 98.418 18.416L97.57 17.84C96.994 18.688 96.098 19.072 95.122 19.072C93.282 19.072 91.938 17.776 91.938 15.792C91.938 13.824 93.282 12.512 95.122 12.512C96.098 12.512 96.994 12.912 97.57 13.76L98.418 13.184C97.746 12.08 96.546 11.52 95.122 11.52C92.61 11.52 90.786 13.28 90.786 15.792C90.786 18.304 92.61 20.08 95.122 20.08ZM105.013 11.52C103.589 11.52 102.485 12.08 101.861 13.056V8.128H100.725V20H101.861V15.584C101.861 13.664 102.997 12.544 104.805 12.544C106.405 12.544 107.333 13.456 107.333 15.232V20H108.469V15.12C108.469 12.704 107.061 11.52 105.013 11.52Z" fill="#7B7B7B"/>
</svg>
