<svg width="113" height="28" viewBox="0 0 113 28" fill="none" xmlns="http://www.w3.org/2000/svg">
<rect x="0.5" y="2.5" width="44" height="24" rx="12" fill="white"/>
<rect x="0.5" y="2.5" width="44" height="24" rx="12" stroke="#DCDCDC"/>
<circle cx="13.5" cy="14.5" r="9" fill="#EBEBEB" stroke="#D0D0D0"/>
<path d="M59.928 10.288C59.384 10.288 58.936 10.4 58.584 10.624C58.232 10.848 58.056 11.1893 58.056 11.648C58.056 12.096 58.232 12.4427 58.584 12.688C58.936 12.9227 59.6827 13.1787 60.824 13.456C61.976 13.7333 62.84 14.1227 63.416 14.624C64.0027 15.1253 64.296 15.8667 64.296 16.848C64.296 17.8187 63.928 18.608 63.192 19.216C62.456 19.824 61.4907 20.128 60.296 20.128C58.5467 20.128 56.9947 19.5253 55.64 18.32L56.824 16.896C57.9547 17.8773 59.128 18.368 60.344 18.368C60.952 18.368 61.432 18.24 61.784 17.984C62.1467 17.7173 62.328 17.3707 62.328 16.944C62.328 16.5067 62.1573 16.1707 61.816 15.936C61.4853 15.6907 60.9093 15.472 60.088 15.28C59.2667 15.0773 58.6427 14.896 58.216 14.736C57.7893 14.5653 57.4107 14.3467 57.08 14.08C56.4187 13.5787 56.088 12.8107 56.088 11.776C56.088 10.7413 56.4613 9.94667 57.208 9.392C57.9653 8.82667 58.8987 8.544 60.008 8.544C60.7227 8.544 61.432 8.66133 62.136 8.896C62.84 9.13067 63.448 9.46133 63.96 9.888L62.952 11.312C62.6213 11.0133 62.1733 10.768 61.608 10.576C61.0427 10.384 60.4827 10.288 59.928 10.288ZM70.4019 20H68.3539L65.4099 11.488H67.2659L69.3779 17.92L71.4899 11.488H73.3459L75.4579 17.92L77.5699 11.488H79.4259L76.4819 20H74.4339L72.4179 14.176L70.4019 20ZM83.0036 20H81.2116V11.488H83.0036V20ZM81.3236 9.792C81.0996 9.568 80.9876 9.30133 80.9876 8.992C80.9876 8.68267 81.0996 8.416 81.3236 8.192C81.5476 7.968 81.8143 7.856 82.1236 7.856C82.433 7.856 82.6996 7.968 82.9236 8.192C83.1476 8.416 83.2596 8.68267 83.2596 8.992C83.2596 9.30133 83.1476 9.568 82.9236 9.792C82.6996 10.016 82.433 10.128 82.1236 10.128C81.8143 10.128 81.5476 10.016 81.3236 9.792ZM88.0103 12.928V17.248C88.0103 17.6533 88.1169 17.9787 88.3303 18.224C88.5436 18.4587 88.8423 18.576 89.2263 18.576C89.6103 18.576 89.9783 18.3893 90.3303 18.016L91.0663 19.28C90.4369 19.8453 89.7383 20.128 88.9703 20.128C88.2129 20.128 87.5623 19.8667 87.0183 19.344C86.4849 18.8107 86.2183 18.096 86.2183 17.2V12.928H85.1463V11.488H86.2183V8.816H88.0103V11.488H90.2503V12.928H88.0103ZM96.4657 20.128C95.2817 20.128 94.2631 19.728 93.4097 18.928C92.5564 18.1173 92.1297 17.0613 92.1297 15.76C92.1297 14.4587 92.5724 13.4027 93.4577 12.592C94.3537 11.7707 95.4417 11.36 96.7217 11.36C98.0017 11.36 99.0844 11.8027 99.9697 12.688L98.9137 13.984C98.1777 13.344 97.4364 13.024 96.6897 13.024C95.9431 13.024 95.2924 13.2747 94.7377 13.776C94.1937 14.2667 93.9217 14.9067 93.9217 15.696C93.9217 16.4747 94.1937 17.136 94.7377 17.68C95.2817 18.224 95.9484 18.496 96.7377 18.496C97.5377 18.496 98.2897 18.1333 98.9937 17.408L100.05 18.56C99.0151 19.6053 97.8204 20.128 96.4657 20.128ZM103.901 15.392V20H102.109V8.144H103.901V13.04C104.157 12.5173 104.541 12.1067 105.053 11.808C105.575 11.5093 106.135 11.36 106.733 11.36C107.693 11.36 108.466 11.6533 109.053 12.24C109.65 12.8267 109.949 13.6747 109.949 14.784V20H108.157V15.328C108.157 13.76 107.506 12.976 106.205 12.976C105.586 12.976 105.047 13.184 104.589 13.6C104.13 14.0053 103.901 14.6027 103.901 15.392Z" fill="#737373"/>
</svg>
