<svg width="449" height="50" viewBox="0 0 449 50" fill="none" xmlns="http://www.w3.org/2000/svg">
<g clip-path="url(#clip0_688_2309)">
<rect x="0.5" y="0.5" width="448" height="49" rx="4.5" fill="#F9F9F9"/>
<rect x="0.5" y="0.5" width="448" height="49" rx="4.5" stroke="#E6E6E6"/>
<path d="M29.232 20.214V21.768H24.01V24.358H28.7V25.828H24.01V28.446H29.4V30H22.358V20.214H29.232ZM33.0622 25.968V30H31.4942V22.552H33.0622V23.91C33.2862 23.4527 33.6222 23.0933 34.0702 22.832C34.5275 22.5707 35.0175 22.44 35.5402 22.44C36.7162 22.44 37.5142 22.9253 37.9342 23.896C38.6715 22.9253 39.5908 22.44 40.6922 22.44C41.5322 22.44 42.2088 22.6967 42.7222 23.21C43.2448 23.7233 43.5062 24.4653 43.5062 25.436V30H41.9382V25.912C41.9382 24.54 41.3688 23.854 40.2302 23.854C39.6982 23.854 39.2315 24.0267 38.8302 24.372C38.4382 24.708 38.2328 25.2027 38.2142 25.856V30H36.6462V25.912C36.6462 25.2027 36.5202 24.6847 36.2682 24.358C36.0162 24.022 35.6195 23.854 35.0782 23.854C34.5368 23.854 34.0655 24.036 33.6642 24.4C33.2628 24.7547 33.0622 25.2773 33.0622 25.968ZM51.9196 30H50.4916V29.006C49.8756 29.7433 49.0496 30.112 48.0136 30.112C47.2389 30.112 46.5949 29.8927 46.0816 29.454C45.5776 29.0153 45.3256 28.432 45.3256 27.704C45.3256 26.9667 45.5962 26.416 46.1376 26.052C46.6789 25.688 47.4116 25.506 48.3356 25.506H50.3656V25.226C50.3656 24.2367 49.8149 23.742 48.7136 23.742C48.0229 23.742 47.3042 23.994 46.5576 24.498L45.8576 23.518C46.7629 22.7993 47.7896 22.44 48.9376 22.44C49.8149 22.44 50.5289 22.664 51.0796 23.112C51.6396 23.5507 51.9196 24.246 51.9196 25.198V30ZM50.3516 27.228V26.598H48.5876C47.4582 26.598 46.8936 26.9527 46.8936 27.662C46.8936 28.026 47.0336 28.306 47.3136 28.502C47.5936 28.6887 47.9809 28.782 48.4756 28.782C48.9796 28.782 49.4182 28.642 49.7916 28.362C50.1649 28.082 50.3516 27.704 50.3516 27.228ZM55.8704 30H54.3024V22.552H55.8704V30ZM54.4004 21.068C54.2044 20.872 54.1064 20.6387 54.1064 20.368C54.1064 20.0973 54.2044 19.864 54.4004 19.668C54.5964 19.472 54.8297 19.374 55.1004 19.374C55.371 19.374 55.6044 19.472 55.8004 19.668C55.9964 19.864 56.0944 20.0973 56.0944 20.368C56.0944 20.6387 55.9964 20.872 55.8004 21.068C55.6044 21.264 55.371 21.362 55.1004 21.362C54.8297 21.362 54.5964 21.264 54.4004 21.068ZM59.9122 30H58.3442V19.612H59.9122V30ZM70.0118 23.98L68.6818 23.084L68.7938 24.68H67.8418L67.9538 23.07L66.6238 23.966L66.1478 23.154L67.5758 22.44L66.1478 21.74L66.6238 20.914L67.9398 21.796L67.8418 20.214H68.7938L68.6958 21.796L70.0118 20.928L70.4878 21.74L69.0458 22.44L70.4878 23.154L70.0118 23.98Z" fill="#737373"/>
</g>
<defs>
<clipPath id="clip0_688_2309">
<rect width="449" height="50" fill="white"/>
</clipPath>
</defs>
</svg>
