<svg width="450" height="50" viewBox="0 0 450 50" fill="none" xmlns="http://www.w3.org/2000/svg">
<g clip-path="url(#clip0_688_2344)">
<rect width="450" height="50" rx="5" fill="#F9FFF9"/>
<rect x="0.5" y="0.5" width="449" height="49" rx="4.5" fill="#F9F9F9"/>
<rect x="0.5" y="0.5" width="449" height="49" rx="4.5" stroke="#E6E6E6"/>
<path d="M25.312 21.502C24.836 21.502 24.444 21.6 24.136 21.796C23.828 21.992 23.674 22.2907 23.674 22.692C23.674 23.084 23.828 23.3873 24.136 23.602C24.444 23.8073 25.0973 24.0313 26.096 24.274C27.104 24.5167 27.86 24.8573 28.364 25.296C28.8773 25.7347 29.134 26.3833 29.134 27.242C29.134 28.0913 28.812 28.782 28.168 29.314C27.524 29.846 26.6793 30.112 25.634 30.112C24.1033 30.112 22.7453 29.5847 21.56 28.53L22.596 27.284C23.5853 28.1427 24.612 28.572 25.676 28.572C26.208 28.572 26.628 28.46 26.936 28.236C27.2533 28.0027 27.412 27.6993 27.412 27.326C27.412 26.9433 27.2627 26.6493 26.964 26.444C26.6747 26.2293 26.1707 26.038 25.452 25.87C24.7333 25.6927 24.1873 25.534 23.814 25.394C23.4407 25.2447 23.1093 25.0533 22.82 24.82C22.2413 24.3813 21.952 23.7093 21.952 22.804C21.952 21.8987 22.2787 21.2033 22.932 20.718C23.5947 20.2233 24.4113 19.976 25.382 19.976C26.0073 19.976 26.628 20.0787 27.244 20.284C27.86 20.4893 28.392 20.7787 28.84 21.152L27.958 22.398C27.6687 22.1367 27.2767 21.922 26.782 21.754C26.2873 21.586 25.7973 21.502 25.312 21.502ZM36.2783 26.584V22.552H37.8463V30H36.2783V28.642C36.0263 29.0993 35.6763 29.4587 35.2283 29.72C34.7897 29.9813 34.3137 30.112 33.8003 30.112C32.9603 30.112 32.279 29.8553 31.7563 29.342C31.243 28.8287 30.9863 28.0867 30.9863 27.116V22.552H32.5543V26.64C32.5543 28.012 33.1237 28.698 34.2623 28.698C34.8037 28.698 35.275 28.5207 35.6763 28.166C36.0777 27.802 36.2783 27.2747 36.2783 26.584ZM43.6251 30.112C42.5891 30.112 41.6978 29.762 40.9511 29.062C40.2044 28.3527 39.8311 27.4287 39.8311 26.29C39.8311 25.1513 40.2184 24.2273 40.9931 23.518C41.7771 22.7993 42.7291 22.44 43.8491 22.44C44.9691 22.44 45.9164 22.8273 46.6911 23.602L45.7671 24.736C45.1231 24.176 44.4744 23.896 43.8211 23.896C43.1678 23.896 42.5984 24.1153 42.1131 24.554C41.6371 24.9833 41.3991 25.5433 41.3991 26.234C41.3991 26.9153 41.6371 27.494 42.1131 27.97C42.5891 28.446 43.1724 28.684 43.8631 28.684C44.5631 28.684 45.2211 28.3667 45.8371 27.732L46.7611 28.74C45.8558 29.6547 44.8104 30.112 43.6251 30.112ZM51.8915 30.112C50.8555 30.112 49.9642 29.762 49.2175 29.062C48.4708 28.3527 48.0975 27.4287 48.0975 26.29C48.0975 25.1513 48.4848 24.2273 49.2595 23.518C50.0435 22.7993 50.9955 22.44 52.1155 22.44C53.2355 22.44 54.1828 22.8273 54.9575 23.602L54.0335 24.736C53.3895 24.176 52.7408 23.896 52.0875 23.896C51.4342 23.896 50.8648 24.1153 50.3795 24.554C49.9035 24.9833 49.6655 25.5433 49.6655 26.234C49.6655 26.9153 49.9035 27.494 50.3795 27.97C50.8555 28.446 51.4388 28.684 52.1295 28.684C52.8295 28.684 53.4875 28.3667 54.1035 27.732L55.0275 28.74C54.1222 29.6547 53.0768 30.112 51.8915 30.112ZM63.7839 26.962H57.9459C57.9833 27.5033 58.2306 27.942 58.6879 28.278C59.1453 28.6047 59.6679 28.768 60.2559 28.768C61.1893 28.768 61.8986 28.474 62.3839 27.886L63.2799 28.866C62.4773 29.6967 61.4319 30.112 60.1439 30.112C59.0986 30.112 58.2073 29.7667 57.4699 29.076C56.7419 28.376 56.3779 27.4427 56.3779 26.276C56.3779 25.1 56.7513 24.1667 57.4979 23.476C58.2446 22.7853 59.1219 22.44 60.1299 22.44C61.1473 22.44 62.0106 22.748 62.7199 23.364C63.4293 23.9707 63.7839 24.8107 63.7839 25.884V26.962ZM57.9459 25.73H62.2159C62.2159 25.1047 62.0199 24.624 61.6279 24.288C61.2359 23.952 60.7506 23.784 60.1719 23.784C59.6026 23.784 59.0893 23.9613 58.6319 24.316C58.1746 24.6613 57.9459 25.1327 57.9459 25.73ZM71.0142 27.774C71.0142 28.4833 70.7576 29.0527 70.2442 29.482C69.7309 29.902 69.0729 30.112 68.2702 30.112C67.7289 30.112 67.1642 30.014 66.5762 29.818C65.9976 29.622 65.4842 29.3467 65.0362 28.992L65.7922 27.774C66.6602 28.4273 67.5002 28.754 68.3122 28.754C68.6669 28.754 68.9469 28.6747 69.1522 28.516C69.3576 28.348 69.4602 28.138 69.4602 27.886C69.4602 27.5127 68.9656 27.1767 67.9762 26.878C67.9016 26.85 67.8456 26.8313 67.8082 26.822C66.2589 26.402 65.4842 25.702 65.4842 24.722C65.4842 24.0313 65.7502 23.4807 66.2822 23.07C66.8236 22.65 67.5236 22.44 68.3822 22.44C69.2409 22.44 70.0529 22.692 70.8182 23.196L70.2302 24.358C69.6236 23.9567 68.9656 23.756 68.2562 23.756C67.8829 23.756 67.5796 23.826 67.3462 23.966C67.1129 24.0967 66.9962 24.2973 66.9962 24.568C66.9962 24.8107 67.1176 24.988 67.3602 25.1C67.5282 25.184 67.7616 25.2633 68.0602 25.338C68.3682 25.4127 68.6389 25.4873 68.8722 25.562C69.1056 25.6367 69.3296 25.7207 69.5442 25.814C69.7682 25.9073 70.0062 26.038 70.2582 26.206C70.7622 26.542 71.0142 27.0647 71.0142 27.774ZM78.2963 27.774C78.2963 28.4833 78.0396 29.0527 77.5263 29.482C77.0129 29.902 76.3549 30.112 75.5523 30.112C75.0109 30.112 74.4463 30.014 73.8583 29.818C73.2796 29.622 72.7663 29.3467 72.3183 28.992L73.0743 27.774C73.9423 28.4273 74.7823 28.754 75.5943 28.754C75.9489 28.754 76.2289 28.6747 76.4343 28.516C76.6396 28.348 76.7423 28.138 76.7423 27.886C76.7423 27.5127 76.2476 27.1767 75.2583 26.878C75.1836 26.85 75.1276 26.8313 75.0903 26.822C73.5409 26.402 72.7663 25.702 72.7663 24.722C72.7663 24.0313 73.0323 23.4807 73.5643 23.07C74.1056 22.65 74.8056 22.44 75.6643 22.44C76.5229 22.44 77.3349 22.692 78.1003 23.196L77.5123 24.358C76.9056 23.9567 76.2476 23.756 75.5383 23.756C75.1649 23.756 74.8616 23.826 74.6283 23.966C74.3949 24.0967 74.2783 24.2973 74.2783 24.568C74.2783 24.8107 74.3996 24.988 74.6423 25.1C74.8103 25.184 75.0436 25.2633 75.3423 25.338C75.6503 25.4127 75.9209 25.4873 76.1543 25.562C76.3876 25.6367 76.6116 25.7207 76.8263 25.814C77.0503 25.9073 77.2883 26.038 77.5403 26.206C78.0443 26.542 78.2963 27.0647 78.2963 27.774Z" fill="#737373"/>
</g>
<rect x="0.5" y="0.5" width="449" height="49" rx="4.5" stroke="#2DC071"/>
<defs>
<clipPath id="clip0_688_2344">
<rect width="450" height="50" rx="5" fill="white"/>
</clipPath>
</defs>
</svg>
