<svg width="450" height="50" viewBox="0 0 450 50" fill="none" xmlns="http://www.w3.org/2000/svg">
<g clip-path="url(#clip0_688_2347)">
<rect width="450" height="50" rx="5" fill="#FFF9F9"/>
<rect x="0.5" y="0.5" width="449" height="49" rx="4.5" fill="#F9F9F9"/>
<rect x="0.5" y="0.5" width="449" height="49" rx="4.5" stroke="#E6E6E6"/>
<path d="M29.232 20.214V21.768H24.01V24.358H28.7V25.828H24.01V28.446H29.4V30H22.358V20.214H29.232ZM35.4002 24.022C34.6255 24.022 34.0422 24.274 33.6502 24.778C33.2582 25.282 33.0622 25.9587 33.0622 26.808V30H31.4942V22.552H33.0622V24.05C33.3142 23.5833 33.6548 23.2007 34.0842 22.902C34.5228 22.6033 34.9848 22.4493 35.4702 22.44L35.4842 24.022C35.4562 24.022 35.4282 24.022 35.4002 24.022ZM41.1646 24.022C40.3899 24.022 39.8066 24.274 39.4146 24.778C39.0226 25.282 38.8266 25.9587 38.8266 26.808V30H37.2586V22.552H38.8266V24.05C39.0786 23.5833 39.4193 23.2007 39.8486 22.902C40.2873 22.6033 40.7493 22.4493 41.2346 22.44L41.2486 24.022C41.2206 24.022 41.1926 24.022 41.1646 24.022ZM44.6223 28.04C45.0703 28.488 45.635 28.712 46.3163 28.712C46.9977 28.712 47.5577 28.488 47.9963 28.04C48.4443 27.5827 48.6683 26.9947 48.6683 26.276C48.6683 25.5573 48.4443 24.974 47.9963 24.526C47.5577 24.0687 46.9977 23.84 46.3163 23.84C45.635 23.84 45.0703 24.0687 44.6223 24.526C44.1837 24.974 43.9643 25.5573 43.9643 26.276C43.9643 26.9947 44.1837 27.5827 44.6223 28.04ZM49.1163 29.006C48.3697 29.7433 47.4363 30.112 46.3163 30.112C45.1963 30.112 44.263 29.7433 43.5163 29.006C42.7697 28.2593 42.3963 27.3493 42.3963 26.276C42.3963 25.2027 42.7697 24.2973 43.5163 23.56C44.263 22.8133 45.1963 22.44 46.3163 22.44C47.4363 22.44 48.3697 22.8133 49.1163 23.56C49.863 24.2973 50.2363 25.2027 50.2363 26.276C50.2363 27.3493 49.863 28.2593 49.1163 29.006ZM56.1252 24.022C55.3505 24.022 54.7672 24.274 54.3752 24.778C53.9832 25.282 53.7872 25.9587 53.7872 26.808V30H52.2192V22.552H53.7872V24.05C54.0392 23.5833 54.3798 23.2007 54.8092 22.902C55.2478 22.6033 55.7098 22.4493 56.1952 22.44L56.2092 24.022C56.1812 24.022 56.1532 24.022 56.1252 24.022Z" fill="#737373"/>
</g>
<rect x="0.5" y="0.5" width="449" height="49" rx="4.5" stroke="#E74040"/>
<defs>
<clipPath id="clip0_688_2347">
<rect width="450" height="50" rx="5" fill="white"/>
</clipPath>
</defs>
</svg>
