<svg width="450" height="140" viewBox="0 0 450 140" fill="none" xmlns="http://www.w3.org/2000/svg">
<rect x="0.5" y="0.5" width="449" height="139" rx="4.5" fill="#F9F9F9"/>
<rect x="0.5" y="0.5" width="449" height="139" rx="4.5" stroke="#E6E6E6"/>
<path d="M29.01 35H27.358V25.214H29.934L32.888 31.36L35.842 25.214H38.404V35H36.752V27.356L33.336 34.146H32.412L29.01 27.356V35ZM48.0316 31.962H42.1936C42.2309 32.5033 42.4782 32.942 42.9356 33.278C43.3929 33.6047 43.9156 33.768 44.5036 33.768C45.4369 33.768 46.1462 33.474 46.6316 32.886L47.5276 33.866C46.7249 34.6967 45.6796 35.112 44.3916 35.112C43.3462 35.112 42.4549 34.7667 41.7176 34.076C40.9896 33.376 40.6256 32.4427 40.6256 31.276C40.6256 30.1 40.9989 29.1667 41.7456 28.476C42.4922 27.7853 43.3696 27.44 44.3776 27.44C45.3949 27.44 46.2582 27.748 46.9676 28.364C47.6769 28.9707 48.0316 29.8107 48.0316 30.884V31.962ZM42.1936 30.73H46.4636C46.4636 30.1047 46.2676 29.624 45.8756 29.288C45.4836 28.952 44.9982 28.784 44.4196 28.784C43.8502 28.784 43.3369 28.9613 42.8796 29.316C42.4222 29.6613 42.1936 30.1327 42.1936 30.73ZM55.2619 32.774C55.2619 33.4833 55.0052 34.0527 54.4919 34.482C53.9785 34.902 53.3205 35.112 52.5179 35.112C51.9765 35.112 51.4119 35.014 50.8239 34.818C50.2452 34.622 49.7319 34.3467 49.2839 33.992L50.0399 32.774C50.9079 33.4273 51.7479 33.754 52.5599 33.754C52.9145 33.754 53.1945 33.6747 53.3999 33.516C53.6052 33.348 53.7079 33.138 53.7079 32.886C53.7079 32.5127 53.2132 32.1767 52.2239 31.878C52.1492 31.85 52.0932 31.8313 52.0559 31.822C50.5065 31.402 49.7319 30.702 49.7319 29.722C49.7319 29.0313 49.9979 28.4807 50.5299 28.07C51.0712 27.65 51.7712 27.44 52.6299 27.44C53.4885 27.44 54.3005 27.692 55.0659 28.196L54.4779 29.358C53.8712 28.9567 53.2132 28.756 52.5039 28.756C52.1305 28.756 51.8272 28.826 51.5939 28.966C51.3605 29.0967 51.2439 29.2973 51.2439 29.568C51.2439 29.8107 51.3652 29.988 51.6079 30.1C51.7759 30.184 52.0092 30.2633 52.3079 30.338C52.6159 30.4127 52.8865 30.4873 53.1199 30.562C53.3532 30.6367 53.5772 30.7207 53.7919 30.814C54.0159 30.9073 54.2539 31.038 54.5059 31.206C55.0099 31.542 55.2619 32.0647 55.2619 32.774ZM62.5439 32.774C62.5439 33.4833 62.2872 34.0527 61.7739 34.482C61.2606 34.902 60.6026 35.112 59.7999 35.112C59.2586 35.112 58.6939 35.014 58.1059 34.818C57.5272 34.622 57.0139 34.3467 56.5659 33.992L57.3219 32.774C58.1899 33.4273 59.0299 33.754 59.8419 33.754C60.1966 33.754 60.4766 33.6747 60.6819 33.516C60.8872 33.348 60.9899 33.138 60.9899 32.886C60.9899 32.5127 60.4952 32.1767 59.5059 31.878C59.4312 31.85 59.3752 31.8313 59.3379 31.822C57.7886 31.402 57.0139 30.702 57.0139 29.722C57.0139 29.0313 57.2799 28.4807 57.8119 28.07C58.3532 27.65 59.0532 27.44 59.9119 27.44C60.7706 27.44 61.5826 27.692 62.3479 28.196L61.7599 29.358C61.1532 28.9567 60.4952 28.756 59.7859 28.756C59.4126 28.756 59.1092 28.826 58.8759 28.966C58.6426 29.0967 58.5259 29.2973 58.5259 29.568C58.5259 29.8107 58.6472 29.988 58.8899 30.1C59.0579 30.184 59.2912 30.2633 59.5899 30.338C59.8979 30.4127 60.1686 30.4873 60.4019 30.562C60.6352 30.6367 60.8592 30.7207 61.0739 30.814C61.2979 30.9073 61.5359 31.038 61.7879 31.206C62.2919 31.542 62.5439 32.0647 62.5439 32.774ZM70.5539 35H69.1259V34.006C68.5099 34.7433 67.6839 35.112 66.6479 35.112C65.8733 35.112 65.2293 34.8927 64.7159 34.454C64.2119 34.0153 63.9599 33.432 63.9599 32.704C63.9599 31.9667 64.2306 31.416 64.7719 31.052C65.3133 30.688 66.0459 30.506 66.9699 30.506H68.9999V30.226C68.9999 29.2367 68.4493 28.742 67.3479 28.742C66.6573 28.742 65.9386 28.994 65.1919 29.498L64.4919 28.518C65.3973 27.7993 66.4239 27.44 67.5719 27.44C68.4493 27.44 69.1633 27.664 69.7139 28.112C70.2739 28.5507 70.5539 29.246 70.5539 30.198V35ZM68.9859 32.228V31.598H67.2219C66.0926 31.598 65.5279 31.9527 65.5279 32.662C65.5279 33.026 65.6679 33.306 65.9479 33.502C66.2279 33.6887 66.6153 33.782 67.1099 33.782C67.6139 33.782 68.0526 33.642 68.4259 33.362C68.7993 33.082 68.9859 32.704 68.9859 32.228ZM79.8247 27.552V34.048C79.8247 35.364 79.4654 36.3487 78.7467 37.002C78.0374 37.6647 77.1227 37.996 76.0027 37.996C74.8827 37.996 73.8701 37.646 72.9647 36.946L73.7067 35.756C74.4347 36.3067 75.1674 36.582 75.9047 36.582C76.6514 36.582 77.2394 36.3907 77.6687 36.008C78.1074 35.6253 78.3267 35.014 78.3267 34.174V33.222C78.0934 33.6607 77.7574 34.0107 77.3187 34.272C76.8894 34.5333 76.4041 34.664 75.8627 34.664C74.8734 34.664 74.0614 34.3187 73.4267 33.628C72.7921 32.9373 72.4747 32.0787 72.4747 31.052C72.4747 30.0253 72.7921 29.1667 73.4267 28.476C74.0614 27.7853 74.8687 27.44 75.8487 27.44C76.8381 27.44 77.6407 27.846 78.2567 28.658V27.552H79.8247ZM74.0147 30.996C74.0147 31.6027 74.2014 32.13 74.5747 32.578C74.9574 33.0167 75.4661 33.236 76.1007 33.236C76.7447 33.236 77.2627 33.0213 77.6547 32.592C78.0561 32.1627 78.2567 31.6307 78.2567 30.996C78.2567 30.352 78.0561 29.8107 77.6547 29.372C77.2534 28.924 76.7354 28.7 76.1007 28.7C75.4661 28.7 74.9574 28.9287 74.5747 29.386C74.2014 29.8433 74.0147 30.38 74.0147 30.996ZM89.2269 31.962H83.3889C83.4262 32.5033 83.6736 32.942 84.1309 33.278C84.5882 33.6047 85.1109 33.768 85.6989 33.768C86.6322 33.768 87.3416 33.474 87.8269 32.886L88.7229 33.866C87.9202 34.6967 86.8749 35.112 85.5869 35.112C84.5416 35.112 83.6502 34.7667 82.9129 34.076C82.1849 33.376 81.8209 32.4427 81.8209 31.276C81.8209 30.1 82.1942 29.1667 82.9409 28.476C83.6876 27.7853 84.5649 27.44 85.5729 27.44C86.5902 27.44 87.4536 27.748 88.1629 28.364C88.8722 28.9707 89.2269 29.8107 89.2269 30.884V31.962ZM83.3889 30.73H87.6589C87.6589 30.1047 87.4629 29.624 87.0709 29.288C86.6789 28.952 86.1936 28.784 85.6149 28.784C85.0456 28.784 84.5322 28.9613 84.0749 29.316C83.6176 29.6613 83.3889 30.1327 83.3889 30.73Z" fill="#737373"/>
</svg>
