<svg width="450" height="50" viewBox="0 0 450 50" fill="none" xmlns="http://www.w3.org/2000/svg">
<g clip-path="url(#clip0_688_2335)">
<rect width="450" height="50" rx="5" fill="#F9F9F9"/>
<g clip-path="url(#clip1_688_2335)">
<g clip-path="url(#clip2_688_2335)">
<g clip-path="url(#clip3_688_2335)">
<g clip-path="url(#clip4_688_2335)">
<path d="M34.2806 28.1823C34.2493 28.1514 34.2071 28.134 34.1631 28.134C34.119 28.134 34.0768 28.1514 34.0455 28.1823L31.6278 30.6C30.5085 31.7194 28.6192 31.838 27.3834 30.6C26.1454 29.362 26.264 27.4749 27.3834 26.3555L29.801 23.9379C29.8655 23.8734 29.8655 23.7672 29.801 23.7027L28.973 22.8747C28.9417 22.8437 28.8994 22.8263 28.8554 22.8263C28.8114 22.8263 28.7691 22.8437 28.7378 22.8747L26.3202 25.2923C24.5599 27.0525 24.5599 29.9009 26.3202 31.6591C28.0804 33.4172 30.9287 33.4193 32.6869 31.6591L35.1046 29.2414C35.1691 29.1769 35.1691 29.0708 35.1046 29.0063L34.2806 28.1823ZM39.6611 18.3202C37.9009 16.5599 35.0525 16.5599 33.2944 18.3202L30.8746 20.7378C30.8437 20.7691 30.8263 20.8114 30.8263 20.8554C30.8263 20.8994 30.8437 20.9417 30.8746 20.973L31.7007 21.799C31.7652 21.8635 31.8713 21.8635 31.9358 21.799L34.3534 19.3813C35.4728 18.2619 37.362 18.1433 38.5979 19.3813C39.8359 20.6193 39.7173 22.5064 38.5979 23.6258L36.1802 26.0434C36.1493 26.0747 36.1319 26.117 36.1319 26.161C36.1319 26.205 36.1493 26.2473 36.1802 26.2786L37.0083 27.1066C37.0728 27.1711 37.1789 27.1711 37.2434 27.1066L39.6611 24.689C41.4192 22.9287 41.4192 20.0804 39.6611 18.3202ZM35.0317 22.084C35.0004 22.053 34.9582 22.0357 34.9142 22.0357C34.8702 22.0357 34.8279 22.053 34.7966 22.084L30.084 26.7946C30.053 26.8258 30.0357 26.8681 30.0357 26.9121C30.0357 26.9561 30.053 26.9984 30.084 27.0297L30.9079 27.8536C30.9724 27.9181 31.0785 27.9181 31.143 27.8536L35.8536 23.1431C35.9181 23.0786 35.9181 22.9724 35.8536 22.9079L35.0317 22.084Z" fill="#737373"/>
</g>
</g>
</g>
<path d="M65.824 28.502C66.3933 28.502 66.8833 28.4087 67.294 28.222C67.7047 28.026 68.134 27.718 68.582 27.298L69.646 28.39C68.61 29.538 67.35 30.112 65.866 30.112C64.3913 30.112 63.164 29.636 62.184 28.684C61.2133 27.732 60.728 26.528 60.728 25.072C60.728 23.616 61.2227 22.4027 62.212 21.432C63.2107 20.4613 64.466 19.976 65.978 19.976C67.4993 19.976 68.7687 20.536 69.786 21.656L68.736 22.804C68.2693 22.356 67.826 22.0433 67.406 21.866C66.9953 21.6887 66.51 21.6 65.95 21.6C64.9607 21.6 64.13 21.922 63.458 22.566C62.786 23.2007 62.45 24.0173 62.45 25.016C62.45 26.0053 62.7813 26.836 63.444 27.508C64.116 28.1707 64.9093 28.502 65.824 28.502ZM73.2106 25.968V30H71.6426V19.626H73.2106V23.91C73.4346 23.4527 73.7706 23.0933 74.2186 22.832C74.6759 22.5707 75.1659 22.44 75.6886 22.44C76.5286 22.44 77.2053 22.6967 77.7186 23.21C78.2413 23.7233 78.5026 24.4653 78.5026 25.436V30H76.9346V25.912C76.9346 24.54 76.3653 23.854 75.2266 23.854C74.6853 23.854 74.2139 24.036 73.8126 24.4C73.4113 24.7547 73.2106 25.2773 73.2106 25.968ZM82.6294 28.04C83.0774 28.488 83.642 28.712 84.3234 28.712C85.0047 28.712 85.5647 28.488 86.0034 28.04C86.4514 27.5827 86.6754 26.9947 86.6754 26.276C86.6754 25.5573 86.4514 24.974 86.0034 24.526C85.5647 24.0687 85.0047 23.84 84.3234 23.84C83.642 23.84 83.0774 24.0687 82.6294 24.526C82.1907 24.974 81.9714 25.5573 81.9714 26.276C81.9714 26.9947 82.1907 27.5827 82.6294 28.04ZM87.1234 29.006C86.3767 29.7433 85.4434 30.112 84.3234 30.112C83.2034 30.112 82.27 29.7433 81.5234 29.006C80.7767 28.2593 80.4034 27.3493 80.4034 26.276C80.4034 25.2027 80.7767 24.2973 81.5234 23.56C82.27 22.8133 83.2034 22.44 84.3234 22.44C85.4434 22.44 86.3767 22.8133 87.1234 23.56C87.87 24.2973 88.2434 25.2027 88.2434 26.276C88.2434 27.3493 87.87 28.2593 87.1234 29.006ZM91.9622 28.04C92.4102 28.488 92.9749 28.712 93.6562 28.712C94.3375 28.712 94.8975 28.488 95.3362 28.04C95.7842 27.5827 96.0082 26.9947 96.0082 26.276C96.0082 25.5573 95.7842 24.974 95.3362 24.526C94.8975 24.0687 94.3375 23.84 93.6562 23.84C92.9749 23.84 92.4102 24.0687 91.9622 24.526C91.5235 24.974 91.3042 25.5573 91.3042 26.276C91.3042 26.9947 91.5235 27.5827 91.9622 28.04ZM96.4562 29.006C95.7095 29.7433 94.7762 30.112 93.6562 30.112C92.5362 30.112 91.6029 29.7433 90.8562 29.006C90.1095 28.2593 89.7362 27.3493 89.7362 26.276C89.7362 25.2027 90.1095 24.2973 90.8562 23.56C91.6029 22.8133 92.5362 22.44 93.6562 22.44C94.7762 22.44 95.7095 22.8133 96.4562 23.56C97.2029 24.2973 97.5762 25.2027 97.5762 26.276C97.5762 27.3493 97.2029 28.2593 96.4562 29.006ZM104.865 27.774C104.865 28.4833 104.608 29.0527 104.095 29.482C103.582 29.902 102.924 30.112 102.121 30.112C101.58 30.112 101.015 30.014 100.427 29.818C99.8483 29.622 99.335 29.3467 98.887 28.992L99.643 27.774C100.511 28.4273 101.351 28.754 102.163 28.754C102.518 28.754 102.798 28.6747 103.003 28.516C103.208 28.348 103.311 28.138 103.311 27.886C103.311 27.5127 102.816 27.1767 101.827 26.878C101.752 26.85 101.696 26.8313 101.659 26.822C100.11 26.402 99.335 25.702 99.335 24.722C99.335 24.0313 99.601 23.4807 100.133 23.07C100.674 22.65 101.374 22.44 102.233 22.44C103.092 22.44 103.904 22.692 104.669 23.196L104.081 24.358C103.474 23.9567 102.816 23.756 102.107 23.756C101.734 23.756 101.43 23.826 101.197 23.966C100.964 24.0967 100.847 24.2973 100.847 24.568C100.847 24.8107 100.968 24.988 101.211 25.1C101.379 25.184 101.612 25.2633 101.911 25.338C102.219 25.4127 102.49 25.4873 102.723 25.562C102.956 25.6367 103.18 25.7207 103.395 25.814C103.619 25.9073 103.857 26.038 104.109 26.206C104.613 26.542 104.865 27.0647 104.865 27.774ZM113.771 26.962H107.933C107.97 27.5033 108.218 27.942 108.675 28.278C109.132 28.6047 109.655 28.768 110.243 28.768C111.176 28.768 111.886 28.474 112.371 27.886L113.267 28.866C112.464 29.6967 111.419 30.112 110.131 30.112C109.086 30.112 108.194 29.7667 107.457 29.076C106.729 28.376 106.365 27.4427 106.365 26.276C106.365 25.1 106.738 24.1667 107.485 23.476C108.232 22.7853 109.109 22.44 110.117 22.44C111.134 22.44 111.998 22.748 112.707 23.364C113.416 23.9707 113.771 24.8107 113.771 25.884V26.962ZM107.933 25.73H112.203C112.203 25.1047 112.007 24.624 111.615 24.288C111.223 23.952 110.738 23.784 110.159 23.784C109.59 23.784 109.076 23.9613 108.619 24.316C108.162 24.6613 107.933 25.1327 107.933 25.73ZM121.613 21.754V24.442H125.953V25.968H121.613V30H119.961V20.214H126.485L126.471 21.754H121.613ZM129.954 30H128.386V22.552H129.954V30ZM128.484 21.068C128.288 20.872 128.19 20.6387 128.19 20.368C128.19 20.0973 128.288 19.864 128.484 19.668C128.68 19.472 128.914 19.374 129.184 19.374C129.455 19.374 129.688 19.472 129.884 19.668C130.08 19.864 130.178 20.0973 130.178 20.368C130.178 20.6387 130.08 20.872 129.884 21.068C129.688 21.264 129.455 21.362 129.184 21.362C128.914 21.362 128.68 21.264 128.484 21.068ZM133.996 30H132.428V19.612H133.996V30ZM143.4 26.962H137.562C137.599 27.5033 137.847 27.942 138.304 28.278C138.761 28.6047 139.284 28.768 139.872 28.768C140.805 28.768 141.515 28.474 142 27.886L142.896 28.866C142.093 29.6967 141.048 30.112 139.76 30.112C138.715 30.112 137.823 29.7667 137.086 29.076C136.358 28.376 135.994 27.4427 135.994 26.276C135.994 25.1 136.367 24.1667 137.114 23.476C137.861 22.7853 138.738 22.44 139.746 22.44C140.763 22.44 141.627 22.748 142.336 23.364C143.045 23.9707 143.4 24.8107 143.4 25.884V26.962ZM137.562 25.73H141.832C141.832 25.1047 141.636 24.624 141.244 24.288C140.852 23.952 140.367 23.784 139.788 23.784C139.219 23.784 138.705 23.9613 138.248 24.316C137.791 24.6613 137.562 25.1327 137.562 25.73Z" fill="#737373"/>
</g>
</g>
<rect x="0.5" y="0.5" width="449" height="49" rx="4.5" stroke="#DADADA"/>
<defs>
<clipPath id="clip0_688_2335">
<rect width="450" height="50" rx="5" fill="white"/>
</clipPath>
<clipPath id="clip1_688_2335">
<rect width="450" height="50" fill="white"/>
</clipPath>
<clipPath id="clip2_688_2335">
<rect width="15.9645" height="15.9998" fill="white" transform="translate(24.9414 17)"/>
</clipPath>
<clipPath id="clip3_688_2335">
<rect width="15.9645" height="15.9998" fill="white" transform="translate(24.9414 17)"/>
</clipPath>
<clipPath id="clip4_688_2335">
<rect width="15.9645" height="15.9998" fill="white" transform="translate(24.9414 17)"/>
</clipPath>
</defs>
</svg>
