<svg width="907" height="255" viewBox="0 0 907 255" fill="none" xmlns="http://www.w3.org/2000/svg">
<g clip-path="url(#clip0_688_2781)">
<rect width="907" height="255" fill="white"/>
<g clip-path="url(#clip1_688_2781)">
<rect x="0.5" y="-2.5" width="74" height="68" stroke="#EDEDED"/>
<path d="M21.856 36H24.4L25.264 32.816H27.248L26.384 36H28.928L29.776 32.816H33.152V30.816H30.304L30.768 29.152H33.952V27.152H31.296L32.144 24.064H29.6L28.768 27.152H26.768L27.616 24.064H25.088L24.256 27.152H21.168V29.152H23.712L23.264 30.816H20.368V32.816H22.72L21.856 36ZM25.776 30.816L26.24 29.152H28.224L27.776 30.816H25.776Z" fill="#252B42"/>
<rect x="75.5" y="-2.5" width="207" height="68" stroke="#EDEDED"/>
<path d="M95.912 36H99.288V31.872H103.944V29.344H99.288V27.424H104.68V24.544H95.912V36ZM114.139 27.744H111.147V32.288C111.147 33.12 110.603 33.696 109.899 33.696C109.195 33.696 108.747 33.136 108.747 32.336V27.744H105.755V32.896C105.755 34.816 106.955 36.192 108.667 36.192C109.643 36.192 110.331 35.76 110.987 34.784H111.147V36H114.139V27.744ZM115.654 36H118.646V24.064H115.654V36ZM120.16 36H123.152V24.064H120.16V36ZM128.865 36H132.017V28.912H132.177L135.937 36H139.553V24.544H136.401V31.648H136.241L132.481 24.544H128.865V36ZM143.609 36.192C144.681 36.192 145.673 35.792 146.137 35.024H146.297V36H149.305V30.576C149.305 28.72 147.689 27.536 145.241 27.536C142.777 27.536 141.193 28.72 141.193 30.56H144.089C144.089 29.856 144.553 29.44 145.209 29.44C145.897 29.44 146.297 29.856 146.297 30.464V30.832L144.857 31.008C142.153 31.376 140.857 32.224 140.857 33.824C140.857 35.328 141.977 36.192 143.609 36.192ZM144.777 34.384C144.121 34.384 143.737 34.048 143.737 33.536C143.737 33.056 144.089 32.72 144.969 32.608L146.297 32.416V32.912C146.297 33.76 145.673 34.384 144.777 34.384ZM150.717 36H153.709V31.424C153.709 30.592 154.141 30.048 154.845 30.048C155.517 30.048 155.965 30.592 155.965 31.424V36H158.973V31.424C158.973 30.608 159.437 30.048 160.157 30.048C160.893 30.08 161.341 30.672 161.341 31.424V36H164.349V30.752C164.349 28.848 163.101 27.552 161.373 27.552C160.189 27.552 159.293 28.144 158.861 29.12H158.701C158.301 28.176 157.309 27.536 156.253 27.536C155.213 27.536 154.349 28.144 153.869 29.072H153.693V27.744H150.717V36ZM170.042 36.208C172.154 36.208 173.85 35.264 174.266 33.712L171.69 33.248C171.434 33.776 170.922 34.144 170.202 34.144C169.306 34.144 168.698 33.584 168.506 32.688H174.538C174.57 32.528 174.586 32.112 174.586 31.872C174.586 29.232 172.794 27.536 170.074 27.536C167.338 27.536 165.418 29.216 165.418 31.84C165.418 34.496 167.306 36.208 170.042 36.208ZM168.474 31.088C168.634 30.176 169.178 29.6 170.01 29.6C170.858 29.6 171.482 30.272 171.562 31.088H168.474Z" fill="#252B42"/>
<rect x="283.5" y="-2.5" width="207" height="68" stroke="#EDEDED"/>
<path d="M303.912 36H312.232V33.12H307.288V24.544H303.912V36ZM315.734 36.192C316.806 36.192 317.798 35.792 318.262 35.024H318.422V36H321.43V30.576C321.43 28.72 319.814 27.536 317.366 27.536C314.902 27.536 313.318 28.72 313.318 30.56H316.214C316.214 29.856 316.678 29.44 317.334 29.44C318.022 29.44 318.422 29.856 318.422 30.464V30.832L316.982 31.008C314.278 31.376 312.982 32.224 312.982 33.824C312.982 35.328 314.102 36.192 315.734 36.192ZM316.902 34.384C316.246 34.384 315.862 34.048 315.862 33.536C315.862 33.056 316.214 32.72 317.094 32.608L318.422 32.416V32.912C318.422 33.76 317.798 34.384 316.902 34.384ZM326.554 36.272C329.178 36.272 330.794 35.152 330.794 33.312C330.794 31.36 328.906 30.992 327.402 30.832C326.298 30.704 325.322 30.672 325.322 30.048C325.322 29.6 325.802 29.296 326.474 29.296C327.242 29.296 327.786 29.68 327.802 30.256H330.458C330.458 28.56 328.762 27.488 326.474 27.488C324.122 27.488 322.57 28.576 322.57 30.32C322.57 32.608 324.762 32.736 326.25 32.88C327.114 32.96 327.818 33.056 327.818 33.648C327.818 34.144 327.322 34.448 326.618 34.448C325.674 34.448 325.066 33.984 325.066 33.28H322.522C322.522 35.136 324.074 36.272 326.554 36.272ZM335.524 36.208C336.036 36.208 336.804 36.112 337.332 35.92V33.84C337.076 33.904 336.756 33.952 336.532 33.952C335.94 33.952 335.556 33.52 335.556 32.88V29.872H337.284V27.744H335.556V25.168H333.204L332.66 27.744H331.492V29.872H332.548V33.024C332.548 34.928 333.716 36.208 335.524 36.208ZM342.693 36H345.845V28.912H346.005L349.765 36H353.381V24.544H350.229V31.648H350.069L346.309 24.544H342.693V36ZM357.437 36.192C358.509 36.192 359.501 35.792 359.965 35.024H360.125V36H363.133V30.576C363.133 28.72 361.517 27.536 359.069 27.536C356.605 27.536 355.021 28.72 355.021 30.56H357.917C357.917 29.856 358.381 29.44 359.037 29.44C359.725 29.44 360.125 29.856 360.125 30.464V30.832L358.685 31.008C355.981 31.376 354.685 32.224 354.685 33.824C354.685 35.328 355.805 36.192 357.437 36.192ZM358.605 34.384C357.949 34.384 357.565 34.048 357.565 33.536C357.565 33.056 357.917 32.72 358.797 32.608L360.125 32.416V32.912C360.125 33.76 359.501 34.384 358.605 34.384ZM364.545 36H367.537V31.424C367.537 30.592 367.969 30.048 368.673 30.048C369.345 30.048 369.793 30.592 369.793 31.424V36H372.801V31.424C372.801 30.608 373.265 30.048 373.985 30.048C374.721 30.08 375.169 30.672 375.169 31.424V36H378.177V30.752C378.177 28.848 376.929 27.552 375.201 27.552C374.017 27.552 373.121 28.144 372.689 29.12H372.529C372.129 28.176 371.137 27.536 370.081 27.536C369.041 27.536 368.177 28.144 367.697 29.072H367.521V27.744H364.545V36ZM383.87 36.208C385.982 36.208 387.678 35.264 388.094 33.712L385.518 33.248C385.262 33.776 384.75 34.144 384.03 34.144C383.134 34.144 382.526 33.584 382.334 32.688H388.366C388.398 32.528 388.414 32.112 388.414 31.872C388.414 29.232 386.622 27.536 383.902 27.536C381.166 27.536 379.246 29.216 379.246 31.84C379.246 34.496 381.134 36.208 383.87 36.208ZM382.302 31.088C382.462 30.176 383.006 29.6 383.838 29.6C384.686 29.6 385.31 30.272 385.39 31.088H382.302Z" fill="#252B42"/>
<rect x="491.5" y="-2.5" width="207" height="68" stroke="#EDEDED"/>
<path d="M511.928 36H515.288V32.672H517.208C520.232 32.672 522.12 31.072 522.12 28.608C522.12 26.144 520.248 24.544 517.24 24.544H511.928V36ZM515.288 30.24V26.976H516.856C517.992 26.976 518.744 27.616 518.744 28.608C518.744 29.6 517.992 30.24 516.856 30.24H515.288ZM527.312 36.208C530.144 36.208 531.968 34.576 531.968 31.872C531.968 29.184 530.144 27.536 527.312 27.536C524.448 27.536 522.64 29.168 522.64 31.872C522.64 34.56 524.464 36.208 527.312 36.208ZM527.312 33.696C526.32 33.696 525.648 32.944 525.648 31.872C525.648 30.8 526.32 30.048 527.312 30.048C528.288 30.048 528.976 30.8 528.976 31.872C528.976 32.944 528.288 33.696 527.312 33.696ZM536.835 36.272C539.459 36.272 541.075 35.152 541.075 33.312C541.075 31.36 539.187 30.992 537.683 30.832C536.579 30.704 535.603 30.672 535.603 30.048C535.603 29.6 536.083 29.296 536.755 29.296C537.523 29.296 538.067 29.68 538.083 30.256H540.739C540.739 28.56 539.043 27.488 536.755 27.488C534.403 27.488 532.851 28.576 532.851 30.32C532.851 32.608 535.043 32.736 536.531 32.88C537.395 32.96 538.099 33.056 538.099 33.648C538.099 34.144 537.603 34.448 536.899 34.448C535.955 34.448 535.347 33.984 535.347 33.28H532.803C532.803 35.136 534.355 36.272 536.835 36.272ZM543.806 26.848C544.814 26.848 545.518 26.16 545.518 25.2C545.518 24.24 544.814 23.568 543.806 23.568C542.83 23.568 542.11 24.24 542.11 25.2C542.11 26.16 542.83 26.848 543.806 26.848ZM542.318 36H545.31V27.744H542.318V36ZM550.406 36.208C550.918 36.208 551.686 36.112 552.214 35.92V33.84C551.958 33.904 551.638 33.952 551.414 33.952C550.822 33.952 550.438 33.52 550.438 32.88V29.872H552.166V27.744H550.438V25.168H548.086L547.542 27.744H546.374V29.872H547.43V33.024C547.43 34.928 548.598 36.208 550.406 36.208ZM554.912 26.848C555.92 26.848 556.624 26.16 556.624 25.2C556.624 24.24 555.92 23.568 554.912 23.568C553.936 23.568 553.216 24.24 553.216 25.2C553.216 26.16 553.936 26.848 554.912 26.848ZM553.424 36H556.416V27.744H553.424V36ZM562.296 36.208C565.128 36.208 566.952 34.576 566.952 31.872C566.952 29.184 565.128 27.536 562.296 27.536C559.432 27.536 557.624 29.168 557.624 31.872C557.624 34.56 559.448 36.208 562.296 36.208ZM562.296 33.696C561.304 33.696 560.632 32.944 560.632 31.872C560.632 30.8 561.304 30.048 562.296 30.048C563.272 30.048 563.96 30.8 563.96 31.872C563.96 32.944 563.272 33.696 562.296 33.696ZM568.107 36H571.099V31.456C571.099 30.64 571.643 30.064 572.347 30.064C573.051 30.064 573.499 30.608 573.499 31.408V36H576.491V30.848C576.491 28.944 575.291 27.552 573.579 27.552C572.603 27.552 571.915 28 571.259 28.96H571.099V27.744H568.107V36Z" fill="#252B42"/>
<rect x="699.5" y="-2.5" width="207" height="68" stroke="#EDEDED"/>
<path d="M719.928 36H723.288V32.672H725.208C728.232 32.672 730.12 31.072 730.12 28.608C730.12 26.144 728.248 24.544 725.24 24.544H719.928V36ZM723.288 30.24V26.976H724.856C725.992 26.976 726.744 27.616 726.744 28.608C726.744 29.6 725.992 30.24 724.856 30.24H723.288ZM731.258 36H734.25V31.456C734.25 30.624 734.778 30.048 735.482 30.048C736.186 30.048 736.634 30.608 736.634 31.392V36H739.642V30.848C739.642 28.928 738.442 27.536 736.73 27.536C735.754 27.536 735.05 27.984 734.41 28.928H734.25V24.064H731.258V36ZM745.38 36.208C748.212 36.208 750.036 34.576 750.036 31.872C750.036 29.184 748.212 27.536 745.38 27.536C742.516 27.536 740.708 29.168 740.708 31.872C740.708 34.56 742.532 36.208 745.38 36.208ZM745.38 33.696C744.388 33.696 743.716 32.944 743.716 31.872C743.716 30.8 744.388 30.048 745.38 30.048C746.356 30.048 747.044 30.8 747.044 31.872C747.044 32.944 746.356 33.696 745.38 33.696ZM751.191 36H754.183V31.456C754.183 30.64 754.727 30.064 755.431 30.064C756.135 30.064 756.583 30.608 756.583 31.408V36H759.575V30.848C759.575 28.944 758.375 27.552 756.663 27.552C755.687 27.552 754.999 28 754.343 28.96H754.183V27.744H751.191V36ZM765.283 36.208C767.395 36.208 769.091 35.264 769.507 33.712L766.931 33.248C766.675 33.776 766.163 34.144 765.443 34.144C764.547 34.144 763.939 33.584 763.747 32.688H769.779C769.811 32.528 769.827 32.112 769.827 31.872C769.827 29.232 768.035 27.536 765.315 27.536C762.579 27.536 760.659 29.216 760.659 31.84C760.659 34.496 762.547 36.208 765.283 36.208ZM763.715 31.088C763.875 30.176 764.419 29.6 765.251 29.6C766.099 29.6 766.723 30.272 766.803 31.088H763.715Z" fill="#252B42"/>
</g>
<rect x="0.5" y="0.5" width="906" height="62" stroke="#EDEDED"/>
<rect x="0.5" y="63.5" width="906" height="47" fill="#F7F7F7"/>
<rect x="0.5" y="63.5" width="906" height="47" stroke="#EDEDED"/>
<rect x="0.5" y="64.5" width="74" height="45" stroke="#EDEDED"/>
<path d="M20.128 81.8V83.192H22.656V93H24.24V81.8H20.128Z" fill="#252B42"/>
<rect x="75.5" y="64.5" width="207" height="45" stroke="#EDEDED"/>
<path d="M98.12 93.128C100.408 93.128 101.624 91.896 101.624 89.4V81.8H95.992V83.192H100.04V89.48C100.04 90.984 99.384 91.752 98.12 91.752C97.176 91.752 96.392 91.288 95.784 90.424L94.856 91.512C95.576 92.552 96.792 93.128 98.12 93.128ZM108.491 93.096C111.035 93.096 112.891 91.288 112.891 88.76C112.891 86.232 111.035 84.44 108.491 84.44C105.947 84.44 104.075 86.232 104.075 88.76C104.075 91.288 105.947 93.096 108.491 93.096ZM108.491 91.752C106.859 91.752 105.627 90.568 105.627 88.76C105.627 86.952 106.859 85.784 108.491 85.784C110.123 85.784 111.339 86.952 111.339 88.76C111.339 90.568 110.123 91.752 108.491 91.752ZM119.743 84.44C118.447 84.44 117.391 84.904 116.751 85.72V81.128H115.215V93H116.751V88.632C116.751 86.792 117.807 85.816 119.439 85.816C120.895 85.816 121.727 86.632 121.727 88.296V93H123.263V88.12C123.263 85.624 121.807 84.44 119.743 84.44ZM130.834 84.44C129.49 84.44 128.402 84.936 127.778 85.8V84.52H126.306V93H127.842V88.632C127.842 86.792 128.898 85.816 130.53 85.816C131.986 85.816 132.818 86.632 132.818 88.296V93H134.354V88.12C134.354 85.624 132.898 84.44 130.834 84.44Z" fill="#252B42"/>
<rect x="283.5" y="64.5" width="207" height="45" stroke="#EDEDED"/>
<path d="M304.68 93H309.4C313 93 315.448 90.728 315.448 87.4C315.448 84.072 313 81.8 309.4 81.8H304.68V93ZM306.28 91.608V83.192H309.304C312.072 83.192 313.848 84.888 313.848 87.4C313.848 89.912 312.072 91.608 309.304 91.608H306.28ZM321.507 93.096C324.051 93.096 325.907 91.288 325.907 88.76C325.907 86.232 324.051 84.44 321.507 84.44C318.963 84.44 317.091 86.232 317.091 88.76C317.091 91.288 318.963 93.096 321.507 93.096ZM321.507 91.752C319.875 91.752 318.643 90.568 318.643 88.76C318.643 86.952 319.875 85.784 321.507 85.784C323.139 85.784 324.355 86.952 324.355 88.76C324.355 90.568 323.139 91.752 321.507 91.752ZM335.895 88.808C335.895 86.2 334.151 84.44 331.703 84.44C329.255 84.44 327.447 86.248 327.447 88.76C327.447 91.288 329.271 93.096 332.007 93.096C333.415 93.096 334.583 92.616 335.351 91.72L334.503 90.728C333.879 91.416 333.047 91.752 332.055 91.752C330.375 91.752 329.175 90.76 328.983 89.272H335.863C335.879 89.128 335.895 88.936 335.895 88.808ZM331.703 85.736C333.191 85.736 334.263 86.744 334.423 88.168H328.983C329.143 86.728 330.231 85.736 331.703 85.736Z" fill="#252B42"/>
<rect x="491.5" y="64.5" width="207" height="45" stroke="#EDEDED"/>
<path d="M517.688 93.128C519.432 93.128 520.936 92.52 521.96 91.368L520.92 90.36C520.056 91.272 519 91.704 517.768 91.704C515.24 91.704 513.368 89.88 513.368 87.4C513.368 84.92 515.24 83.096 517.768 83.096C519 83.096 520.056 83.512 520.92 84.424L521.96 83.416C520.936 82.264 519.432 81.672 517.704 81.672C514.296 81.672 511.768 84.088 511.768 87.4C511.768 90.712 514.296 93.128 517.688 93.128ZM526.043 91.608V87.992H531.659V86.632H526.043V83.192H532.347V81.8H524.442V93H532.571V91.608H526.043ZM540.37 93.128C543.778 93.128 546.306 90.696 546.306 87.4C546.306 84.104 543.778 81.672 540.37 81.672C536.93 81.672 534.402 84.12 534.402 87.4C534.402 90.68 536.93 93.128 540.37 93.128ZM540.37 91.704C537.858 91.704 536.002 89.88 536.002 87.4C536.002 84.92 537.858 83.096 540.37 83.096C542.85 83.096 544.706 84.92 544.706 87.4C544.706 89.88 542.85 91.704 540.37 91.704ZM548.799 90.904C548.191 90.904 547.727 91.352 547.727 91.992C547.727 92.472 547.999 92.84 548.399 92.984L547.807 95.368H548.815L549.567 93.144C549.775 92.552 549.839 92.312 549.839 91.992C549.839 91.368 549.407 90.904 548.799 90.904ZM564.865 83.192V81.8H556.961V93H558.561V88.472H564.177V87.096H558.561V83.192H564.865ZM570.46 93.096C573.004 93.096 574.86 91.288 574.86 88.76C574.86 86.232 573.004 84.44 570.46 84.44C567.916 84.44 566.044 86.232 566.044 88.76C566.044 91.288 567.916 93.096 570.46 93.096ZM570.46 91.752C568.828 91.752 567.596 90.568 567.596 88.76C567.596 86.952 568.828 85.784 570.46 85.784C572.092 85.784 573.308 86.952 573.308 88.76C573.308 90.568 572.092 91.752 570.46 91.752ZM583.552 84.52V88.904C583.552 90.728 582.528 91.72 580.928 91.72C579.472 91.72 578.64 90.888 578.64 89.224V84.52H577.104V89.4C577.104 91.896 578.56 93.096 580.752 93.096C581.952 93.096 583.008 92.6 583.632 91.72V93H585.088V84.52H583.552ZM592.74 84.44C591.396 84.44 590.308 84.936 589.684 85.8V84.52H588.212V93H589.748V88.632C589.748 86.792 590.804 85.816 592.436 85.816C593.892 85.816 594.724 86.632 594.724 88.296V93H596.26V88.12C596.26 85.624 594.804 84.44 592.74 84.44ZM605.814 81.128V85.8C605.11 84.888 604.054 84.44 602.854 84.44C600.374 84.44 598.566 86.168 598.566 88.76C598.566 91.352 600.374 93.096 602.854 93.096C604.102 93.096 605.19 92.616 605.878 91.656V93H607.35V81.128H605.814ZM602.982 91.752C601.35 91.752 600.118 90.568 600.118 88.76C600.118 86.952 601.35 85.784 602.982 85.784C604.598 85.784 605.83 86.952 605.83 88.76C605.83 90.568 604.598 91.752 602.982 91.752ZM618.12 88.808C618.12 86.2 616.376 84.44 613.928 84.44C611.48 84.44 609.672 86.248 609.672 88.76C609.672 91.288 611.496 93.096 614.232 93.096C615.64 93.096 616.808 92.616 617.576 91.72L616.728 90.728C616.104 91.416 615.272 91.752 614.28 91.752C612.6 91.752 611.4 90.76 611.208 89.272H618.088C618.104 89.128 618.12 88.936 618.12 88.808ZM613.928 85.736C615.416 85.736 616.488 86.744 616.648 88.168H611.208C611.368 86.728 612.456 85.736 613.928 85.736ZM621.925 85.944V84.52H620.453V93H621.989V88.776C621.989 86.92 623.013 85.912 624.661 85.912C624.773 85.912 624.885 85.912 625.013 85.928V84.44C623.525 84.44 622.469 84.952 621.925 85.944Z" fill="#252B42"/>
<rect x="699.5" y="64.5" width="207" height="45" stroke="#EDEDED"/>
<path d="M727.24 86.776H724.328V83.896H722.984V86.776H720.072V88.04H722.984V90.904H724.328V88.04H727.24V86.776ZM733.256 86.504L736.184 82.888V81.8H728.792V83.192H734.184L731.368 86.648V87.768H732.264C734.184 87.768 735.032 88.536 735.032 89.72C735.032 90.936 734.072 91.704 732.392 91.704C731.016 91.704 729.768 91.208 729.016 90.504L728.28 91.768C729.224 92.616 730.792 93.128 732.392 93.128C735.24 93.128 736.632 91.592 736.632 89.704C736.632 87.976 735.496 86.712 733.256 86.504ZM746.021 86.264H744.773L745.077 83.192H750.053V81.8H743.733L743.141 87.656H745.685C748.277 87.656 749.077 88.44 749.077 89.704C749.077 90.92 748.117 91.704 746.421 91.704C745.061 91.704 743.813 91.208 743.061 90.504L742.325 91.768C743.285 92.616 744.853 93.128 746.437 93.128C749.301 93.128 750.677 91.576 750.677 89.64C750.677 87.656 749.365 86.264 746.021 86.264ZM755.33 86.264H754.082L754.386 83.192H759.362V81.8H753.042L752.45 87.656H754.994C757.586 87.656 758.386 88.44 758.386 89.704C758.386 90.92 757.426 91.704 755.73 91.704C754.37 91.704 753.122 91.208 752.37 90.504L751.634 91.768C752.594 92.616 754.162 93.128 755.746 93.128C758.61 93.128 759.986 91.576 759.986 89.64C759.986 87.656 758.674 86.264 755.33 86.264ZM764.64 86.264H763.392L763.696 83.192H768.672V81.8H762.352L761.76 87.656H764.304C766.896 87.656 767.696 88.44 767.696 89.704C767.696 90.92 766.736 91.704 765.04 91.704C763.68 91.704 762.432 91.208 761.68 90.504L760.944 91.768C761.904 92.616 763.472 93.128 765.056 93.128C767.92 93.128 769.296 91.576 769.296 89.64C769.296 87.656 767.984 86.264 764.64 86.264ZM780.156 86.2C778.764 86.2 777.58 86.712 776.94 87.672C776.924 87.528 776.924 87.4 776.924 87.272C776.924 84.472 778.38 83.048 780.652 83.048C781.452 83.048 782.22 83.192 782.796 83.576L783.404 82.328C782.684 81.88 781.676 81.672 780.62 81.672C777.484 81.672 775.324 83.72 775.324 87.544C775.324 91.112 777.02 93.128 780.028 93.128C782.252 93.128 783.996 91.752 783.996 89.592C783.996 87.528 782.38 86.2 780.156 86.2ZM779.964 91.832C778.236 91.832 777.308 90.824 777.308 89.672C777.308 88.44 778.364 87.496 779.884 87.496C781.452 87.496 782.444 88.344 782.444 89.656C782.444 90.984 781.42 91.832 779.964 91.832ZM792.247 87.128C793.271 86.648 793.831 85.816 793.831 84.712C793.831 82.84 792.199 81.672 789.767 81.672C787.351 81.672 785.735 82.84 785.735 84.712C785.735 85.816 786.279 86.648 787.303 87.128C786.039 87.608 785.335 88.552 785.335 89.832C785.335 91.864 787.047 93.128 789.767 93.128C792.503 93.128 794.231 91.864 794.231 89.832C794.231 88.552 793.527 87.624 792.247 87.128ZM789.767 82.968C791.271 82.968 792.263 83.656 792.263 84.776C792.263 85.88 791.319 86.568 789.767 86.568C788.231 86.568 787.319 85.88 787.319 84.776C787.319 83.656 788.263 82.968 789.767 82.968ZM789.767 91.832C787.991 91.832 786.935 91.048 786.935 89.784C786.935 88.552 787.991 87.784 789.767 87.784C791.543 87.784 792.631 88.552 792.631 89.784C792.631 91.048 791.543 91.832 789.767 91.832ZM800.105 81.8V85.192H801.641V83.192H806.761L802.329 93H804.025L808.553 82.888V81.8H800.105ZM814.419 93.128C817.027 93.128 818.979 91.048 818.979 87.4C818.979 83.752 817.027 81.672 814.419 81.672C811.795 81.672 809.843 83.752 809.843 87.4C809.843 91.048 811.795 93.128 814.419 93.128ZM814.419 91.704C812.659 91.704 811.443 90.264 811.443 87.4C811.443 84.536 812.659 83.096 814.419 83.096C816.163 83.096 817.379 84.536 817.379 87.4C817.379 90.264 816.163 91.704 814.419 91.704Z" fill="#252B42"/>
<rect x="0.5" y="111.5" width="906" height="47" stroke="#EDEDED"/>
<rect x="0.5" y="112.5" width="74" height="45" stroke="#EDEDED"/>
<path d="M22.896 139.608L26.32 136.312C27.84 134.856 28.16 133.88 28.16 132.792C28.16 130.872 26.656 129.672 24.32 129.672C22.576 129.672 21.088 130.296 20.224 131.368L21.312 132.312C22 131.48 22.976 131.096 24.176 131.096C25.744 131.096 26.56 131.8 26.56 132.952C26.56 133.656 26.336 134.36 25.152 135.512L20.592 139.912V141H28.64V139.608H22.896Z" fill="#252B42"/>
<rect x="75.5" y="112.5" width="207" height="45" stroke="#EDEDED"/>
<path d="M98.12 141.128C100.408 141.128 101.624 139.896 101.624 137.4V129.8H95.992V131.192H100.04V137.48C100.04 138.984 99.384 139.752 98.12 139.752C97.176 139.752 96.392 139.288 95.784 138.424L94.856 139.512C95.576 140.552 96.792 141.128 98.12 141.128ZM108.491 141.096C111.035 141.096 112.891 139.288 112.891 136.76C112.891 134.232 111.035 132.44 108.491 132.44C105.947 132.44 104.075 134.232 104.075 136.76C104.075 139.288 105.947 141.096 108.491 141.096ZM108.491 139.752C106.859 139.752 105.627 138.568 105.627 136.76C105.627 134.952 106.859 133.784 108.491 133.784C110.123 133.784 111.339 134.952 111.339 136.76C111.339 138.568 110.123 139.752 108.491 139.752ZM119.743 132.44C118.447 132.44 117.391 132.904 116.751 133.72V129.128H115.215V141H116.751V136.632C116.751 134.792 117.807 133.816 119.439 133.816C120.895 133.816 121.727 134.632 121.727 136.296V141H123.263V136.12C123.263 133.624 121.807 132.44 119.743 132.44ZM130.834 132.44C129.49 132.44 128.402 132.936 127.778 133.8V132.52H126.306V141H127.842V136.632C127.842 134.792 128.898 133.816 130.53 133.816C131.986 133.816 132.818 134.632 132.818 136.296V141H134.354V136.12C134.354 133.624 132.898 132.44 130.834 132.44Z" fill="#252B42"/>
<rect x="283.5" y="112.5" width="207" height="45" stroke="#EDEDED"/>
<path d="M304.68 141H309.4C313 141 315.448 138.728 315.448 135.4C315.448 132.072 313 129.8 309.4 129.8H304.68V141ZM306.28 139.608V131.192H309.304C312.072 131.192 313.848 132.888 313.848 135.4C313.848 137.912 312.072 139.608 309.304 139.608H306.28ZM321.507 141.096C324.051 141.096 325.907 139.288 325.907 136.76C325.907 134.232 324.051 132.44 321.507 132.44C318.963 132.44 317.091 134.232 317.091 136.76C317.091 139.288 318.963 141.096 321.507 141.096ZM321.507 139.752C319.875 139.752 318.643 138.568 318.643 136.76C318.643 134.952 319.875 133.784 321.507 133.784C323.139 133.784 324.355 134.952 324.355 136.76C324.355 138.568 323.139 139.752 321.507 139.752ZM335.895 136.808C335.895 134.2 334.151 132.44 331.703 132.44C329.255 132.44 327.447 134.248 327.447 136.76C327.447 139.288 329.271 141.096 332.007 141.096C333.415 141.096 334.583 140.616 335.351 139.72L334.503 138.728C333.879 139.416 333.047 139.752 332.055 139.752C330.375 139.752 329.175 138.76 328.983 137.272H335.863C335.879 137.128 335.895 136.936 335.895 136.808ZM331.703 133.736C333.191 133.736 334.263 134.744 334.423 136.168H328.983C329.143 134.728 330.231 133.736 331.703 133.736Z" fill="#252B42"/>
<rect x="491.5" y="112.5" width="207" height="45" stroke="#EDEDED"/>
<path d="M517.688 141.128C519.432 141.128 520.936 140.52 521.96 139.368L520.92 138.36C520.056 139.272 519 139.704 517.768 139.704C515.24 139.704 513.368 137.88 513.368 135.4C513.368 132.92 515.24 131.096 517.768 131.096C519 131.096 520.056 131.512 520.92 132.424L521.96 131.416C520.936 130.264 519.432 129.672 517.704 129.672C514.296 129.672 511.768 132.088 511.768 135.4C511.768 138.712 514.296 141.128 517.688 141.128ZM526.043 139.608V135.992H531.659V134.632H526.043V131.192H532.347V129.8H524.442V141H532.571V139.608H526.043ZM540.37 141.128C543.778 141.128 546.306 138.696 546.306 135.4C546.306 132.104 543.778 129.672 540.37 129.672C536.93 129.672 534.402 132.12 534.402 135.4C534.402 138.68 536.93 141.128 540.37 141.128ZM540.37 139.704C537.858 139.704 536.002 137.88 536.002 135.4C536.002 132.92 537.858 131.096 540.37 131.096C542.85 131.096 544.706 132.92 544.706 135.4C544.706 137.88 542.85 139.704 540.37 139.704ZM548.799 138.904C548.191 138.904 547.727 139.352 547.727 139.992C547.727 140.472 547.999 140.84 548.399 140.984L547.807 143.368H548.815L549.567 141.144C549.775 140.552 549.839 140.312 549.839 139.992C549.839 139.368 549.407 138.904 548.799 138.904ZM564.865 131.192V129.8H556.961V141H558.561V136.472H564.177V135.096H558.561V131.192H564.865ZM570.46 141.096C573.004 141.096 574.86 139.288 574.86 136.76C574.86 134.232 573.004 132.44 570.46 132.44C567.916 132.44 566.044 134.232 566.044 136.76C566.044 139.288 567.916 141.096 570.46 141.096ZM570.46 139.752C568.828 139.752 567.596 138.568 567.596 136.76C567.596 134.952 568.828 133.784 570.46 133.784C572.092 133.784 573.308 134.952 573.308 136.76C573.308 138.568 572.092 139.752 570.46 139.752ZM583.552 132.52V136.904C583.552 138.728 582.528 139.72 580.928 139.72C579.472 139.72 578.64 138.888 578.64 137.224V132.52H577.104V137.4C577.104 139.896 578.56 141.096 580.752 141.096C581.952 141.096 583.008 140.6 583.632 139.72V141H585.088V132.52H583.552ZM592.74 132.44C591.396 132.44 590.308 132.936 589.684 133.8V132.52H588.212V141H589.748V136.632C589.748 134.792 590.804 133.816 592.436 133.816C593.892 133.816 594.724 134.632 594.724 136.296V141H596.26V136.12C596.26 133.624 594.804 132.44 592.74 132.44ZM605.814 129.128V133.8C605.11 132.888 604.054 132.44 602.854 132.44C600.374 132.44 598.566 134.168 598.566 136.76C598.566 139.352 600.374 141.096 602.854 141.096C604.102 141.096 605.19 140.616 605.878 139.656V141H607.35V129.128H605.814ZM602.982 139.752C601.35 139.752 600.118 138.568 600.118 136.76C600.118 134.952 601.35 133.784 602.982 133.784C604.598 133.784 605.83 134.952 605.83 136.76C605.83 138.568 604.598 139.752 602.982 139.752ZM618.12 136.808C618.12 134.2 616.376 132.44 613.928 132.44C611.48 132.44 609.672 134.248 609.672 136.76C609.672 139.288 611.496 141.096 614.232 141.096C615.64 141.096 616.808 140.616 617.576 139.72L616.728 138.728C616.104 139.416 615.272 139.752 614.28 139.752C612.6 139.752 611.4 138.76 611.208 137.272H618.088C618.104 137.128 618.12 136.936 618.12 136.808ZM613.928 133.736C615.416 133.736 616.488 134.744 616.648 136.168H611.208C611.368 134.728 612.456 133.736 613.928 133.736ZM621.925 133.944V132.52H620.453V141H621.989V136.776C621.989 134.92 623.013 133.912 624.661 133.912C624.773 133.912 624.885 133.912 625.013 133.928V132.44C623.525 132.44 622.469 132.952 621.925 133.944Z" fill="#252B42"/>
<rect x="699.5" y="112.5" width="207" height="45" stroke="#EDEDED"/>
<path d="M727.24 134.776H724.328V131.896H722.984V134.776H720.072V136.04H722.984V138.904H724.328V136.04H727.24V134.776ZM733.256 134.504L736.184 130.888V129.8H728.792V131.192H734.184L731.368 134.648V135.768H732.264C734.184 135.768 735.032 136.536 735.032 137.72C735.032 138.936 734.072 139.704 732.392 139.704C731.016 139.704 729.768 139.208 729.016 138.504L728.28 139.768C729.224 140.616 730.792 141.128 732.392 141.128C735.24 141.128 736.632 139.592 736.632 137.704C736.632 135.976 735.496 134.712 733.256 134.504ZM746.021 134.264H744.773L745.077 131.192H750.053V129.8H743.733L743.141 135.656H745.685C748.277 135.656 749.077 136.44 749.077 137.704C749.077 138.92 748.117 139.704 746.421 139.704C745.061 139.704 743.813 139.208 743.061 138.504L742.325 139.768C743.285 140.616 744.853 141.128 746.437 141.128C749.301 141.128 750.677 139.576 750.677 137.64C750.677 135.656 749.365 134.264 746.021 134.264ZM755.33 134.264H754.082L754.386 131.192H759.362V129.8H753.042L752.45 135.656H754.994C757.586 135.656 758.386 136.44 758.386 137.704C758.386 138.92 757.426 139.704 755.73 139.704C754.37 139.704 753.122 139.208 752.37 138.504L751.634 139.768C752.594 140.616 754.162 141.128 755.746 141.128C758.61 141.128 759.986 139.576 759.986 137.64C759.986 135.656 758.674 134.264 755.33 134.264ZM764.64 134.264H763.392L763.696 131.192H768.672V129.8H762.352L761.76 135.656H764.304C766.896 135.656 767.696 136.44 767.696 137.704C767.696 138.92 766.736 139.704 765.04 139.704C763.68 139.704 762.432 139.208 761.68 138.504L760.944 139.768C761.904 140.616 763.472 141.128 765.056 141.128C767.92 141.128 769.296 139.576 769.296 137.64C769.296 135.656 767.984 134.264 764.64 134.264ZM780.156 134.2C778.764 134.2 777.58 134.712 776.94 135.672C776.924 135.528 776.924 135.4 776.924 135.272C776.924 132.472 778.38 131.048 780.652 131.048C781.452 131.048 782.22 131.192 782.796 131.576L783.404 130.328C782.684 129.88 781.676 129.672 780.62 129.672C777.484 129.672 775.324 131.72 775.324 135.544C775.324 139.112 777.02 141.128 780.028 141.128C782.252 141.128 783.996 139.752 783.996 137.592C783.996 135.528 782.38 134.2 780.156 134.2ZM779.964 139.832C778.236 139.832 777.308 138.824 777.308 137.672C777.308 136.44 778.364 135.496 779.884 135.496C781.452 135.496 782.444 136.344 782.444 137.656C782.444 138.984 781.42 139.832 779.964 139.832ZM792.247 135.128C793.271 134.648 793.831 133.816 793.831 132.712C793.831 130.84 792.199 129.672 789.767 129.672C787.351 129.672 785.735 130.84 785.735 132.712C785.735 133.816 786.279 134.648 787.303 135.128C786.039 135.608 785.335 136.552 785.335 137.832C785.335 139.864 787.047 141.128 789.767 141.128C792.503 141.128 794.231 139.864 794.231 137.832C794.231 136.552 793.527 135.624 792.247 135.128ZM789.767 130.968C791.271 130.968 792.263 131.656 792.263 132.776C792.263 133.88 791.319 134.568 789.767 134.568C788.231 134.568 787.319 133.88 787.319 132.776C787.319 131.656 788.263 130.968 789.767 130.968ZM789.767 139.832C787.991 139.832 786.935 139.048 786.935 137.784C786.935 136.552 787.991 135.784 789.767 135.784C791.543 135.784 792.631 136.552 792.631 137.784C792.631 139.048 791.543 139.832 789.767 139.832ZM800.105 129.8V133.192H801.641V131.192H806.761L802.329 141H804.025L808.553 130.888V129.8H800.105ZM814.419 141.128C817.027 141.128 818.979 139.048 818.979 135.4C818.979 131.752 817.027 129.672 814.419 129.672C811.795 129.672 809.843 131.752 809.843 135.4C809.843 139.048 811.795 141.128 814.419 141.128ZM814.419 139.704C812.659 139.704 811.443 138.264 811.443 135.4C811.443 132.536 812.659 131.096 814.419 131.096C816.163 131.096 817.379 132.536 817.379 135.4C817.379 138.264 816.163 139.704 814.419 139.704Z" fill="#252B42"/>
<rect x="0.5" y="159.5" width="906" height="47" fill="#F7F7F7"/>
<rect x="0.5" y="159.5" width="906" height="47" stroke="#EDEDED"/>
<rect x="0.5" y="160.5" width="74" height="45" stroke="#EDEDED"/>
<path d="M25.056 182.504L27.984 178.888V177.8H20.592V179.192H25.984L23.168 182.648V183.768H24.064C25.984 183.768 26.832 184.536 26.832 185.72C26.832 186.936 25.872 187.704 24.192 187.704C22.816 187.704 21.568 187.208 20.816 186.504L20.08 187.768C21.024 188.616 22.592 189.128 24.192 189.128C27.04 189.128 28.432 187.592 28.432 185.704C28.432 183.976 27.296 182.712 25.056 182.504Z" fill="#252B42"/>
<rect x="75.5" y="160.5" width="207" height="45" stroke="#EDEDED"/>
<path d="M98.12 189.128C100.408 189.128 101.624 187.896 101.624 185.4V177.8H95.992V179.192H100.04V185.48C100.04 186.984 99.384 187.752 98.12 187.752C97.176 187.752 96.392 187.288 95.784 186.424L94.856 187.512C95.576 188.552 96.792 189.128 98.12 189.128ZM108.491 189.096C111.035 189.096 112.891 187.288 112.891 184.76C112.891 182.232 111.035 180.44 108.491 180.44C105.947 180.44 104.075 182.232 104.075 184.76C104.075 187.288 105.947 189.096 108.491 189.096ZM108.491 187.752C106.859 187.752 105.627 186.568 105.627 184.76C105.627 182.952 106.859 181.784 108.491 181.784C110.123 181.784 111.339 182.952 111.339 184.76C111.339 186.568 110.123 187.752 108.491 187.752ZM119.743 180.44C118.447 180.44 117.391 180.904 116.751 181.72V177.128H115.215V189H116.751V184.632C116.751 182.792 117.807 181.816 119.439 181.816C120.895 181.816 121.727 182.632 121.727 184.296V189H123.263V184.12C123.263 181.624 121.807 180.44 119.743 180.44ZM130.834 180.44C129.49 180.44 128.402 180.936 127.778 181.8V180.52H126.306V189H127.842V184.632C127.842 182.792 128.898 181.816 130.53 181.816C131.986 181.816 132.818 182.632 132.818 184.296V189H134.354V184.12C134.354 181.624 132.898 180.44 130.834 180.44Z" fill="#252B42"/>
<rect x="283.5" y="160.5" width="207" height="45" stroke="#EDEDED"/>
<path d="M304.68 189H309.4C313 189 315.448 186.728 315.448 183.4C315.448 180.072 313 177.8 309.4 177.8H304.68V189ZM306.28 187.608V179.192H309.304C312.072 179.192 313.848 180.888 313.848 183.4C313.848 185.912 312.072 187.608 309.304 187.608H306.28ZM321.507 189.096C324.051 189.096 325.907 187.288 325.907 184.76C325.907 182.232 324.051 180.44 321.507 180.44C318.963 180.44 317.091 182.232 317.091 184.76C317.091 187.288 318.963 189.096 321.507 189.096ZM321.507 187.752C319.875 187.752 318.643 186.568 318.643 184.76C318.643 182.952 319.875 181.784 321.507 181.784C323.139 181.784 324.355 182.952 324.355 184.76C324.355 186.568 323.139 187.752 321.507 187.752ZM335.895 184.808C335.895 182.2 334.151 180.44 331.703 180.44C329.255 180.44 327.447 182.248 327.447 184.76C327.447 187.288 329.271 189.096 332.007 189.096C333.415 189.096 334.583 188.616 335.351 187.72L334.503 186.728C333.879 187.416 333.047 187.752 332.055 187.752C330.375 187.752 329.175 186.76 328.983 185.272H335.863C335.879 185.128 335.895 184.936 335.895 184.808ZM331.703 181.736C333.191 181.736 334.263 182.744 334.423 184.168H328.983C329.143 182.728 330.231 181.736 331.703 181.736Z" fill="#252B42"/>
<rect x="491.5" y="160.5" width="207" height="45" stroke="#EDEDED"/>
<path d="M517.688 189.128C519.432 189.128 520.936 188.52 521.96 187.368L520.92 186.36C520.056 187.272 519 187.704 517.768 187.704C515.24 187.704 513.368 185.88 513.368 183.4C513.368 180.92 515.24 179.096 517.768 179.096C519 179.096 520.056 179.512 520.92 180.424L521.96 179.416C520.936 178.264 519.432 177.672 517.704 177.672C514.296 177.672 511.768 180.088 511.768 183.4C511.768 186.712 514.296 189.128 517.688 189.128ZM526.043 187.608V183.992H531.659V182.632H526.043V179.192H532.347V177.8H524.442V189H532.571V187.608H526.043ZM540.37 189.128C543.778 189.128 546.306 186.696 546.306 183.4C546.306 180.104 543.778 177.672 540.37 177.672C536.93 177.672 534.402 180.12 534.402 183.4C534.402 186.68 536.93 189.128 540.37 189.128ZM540.37 187.704C537.858 187.704 536.002 185.88 536.002 183.4C536.002 180.92 537.858 179.096 540.37 179.096C542.85 179.096 544.706 180.92 544.706 183.4C544.706 185.88 542.85 187.704 540.37 187.704ZM548.799 186.904C548.191 186.904 547.727 187.352 547.727 187.992C547.727 188.472 547.999 188.84 548.399 188.984L547.807 191.368H548.815L549.567 189.144C549.775 188.552 549.839 188.312 549.839 187.992C549.839 187.368 549.407 186.904 548.799 186.904ZM564.865 179.192V177.8H556.961V189H558.561V184.472H564.177V183.096H558.561V179.192H564.865ZM570.46 189.096C573.004 189.096 574.86 187.288 574.86 184.76C574.86 182.232 573.004 180.44 570.46 180.44C567.916 180.44 566.044 182.232 566.044 184.76C566.044 187.288 567.916 189.096 570.46 189.096ZM570.46 187.752C568.828 187.752 567.596 186.568 567.596 184.76C567.596 182.952 568.828 181.784 570.46 181.784C572.092 181.784 573.308 182.952 573.308 184.76C573.308 186.568 572.092 187.752 570.46 187.752ZM583.552 180.52V184.904C583.552 186.728 582.528 187.72 580.928 187.72C579.472 187.72 578.64 186.888 578.64 185.224V180.52H577.104V185.4C577.104 187.896 578.56 189.096 580.752 189.096C581.952 189.096 583.008 188.6 583.632 187.72V189H585.088V180.52H583.552ZM592.74 180.44C591.396 180.44 590.308 180.936 589.684 181.8V180.52H588.212V189H589.748V184.632C589.748 182.792 590.804 181.816 592.436 181.816C593.892 181.816 594.724 182.632 594.724 184.296V189H596.26V184.12C596.26 181.624 594.804 180.44 592.74 180.44ZM605.814 177.128V181.8C605.11 180.888 604.054 180.44 602.854 180.44C600.374 180.44 598.566 182.168 598.566 184.76C598.566 187.352 600.374 189.096 602.854 189.096C604.102 189.096 605.19 188.616 605.878 187.656V189H607.35V177.128H605.814ZM602.982 187.752C601.35 187.752 600.118 186.568 600.118 184.76C600.118 182.952 601.35 181.784 602.982 181.784C604.598 181.784 605.83 182.952 605.83 184.76C605.83 186.568 604.598 187.752 602.982 187.752ZM618.12 184.808C618.12 182.2 616.376 180.44 613.928 180.44C611.48 180.44 609.672 182.248 609.672 184.76C609.672 187.288 611.496 189.096 614.232 189.096C615.64 189.096 616.808 188.616 617.576 187.72L616.728 186.728C616.104 187.416 615.272 187.752 614.28 187.752C612.6 187.752 611.4 186.76 611.208 185.272H618.088C618.104 185.128 618.12 184.936 618.12 184.808ZM613.928 181.736C615.416 181.736 616.488 182.744 616.648 184.168H611.208C611.368 182.728 612.456 181.736 613.928 181.736ZM621.925 181.944V180.52H620.453V189H621.989V184.776C621.989 182.92 623.013 181.912 624.661 181.912C624.773 181.912 624.885 181.912 625.013 181.928V180.44C623.525 180.44 622.469 180.952 621.925 181.944Z" fill="#252B42"/>
<rect x="699.5" y="160.5" width="207" height="45" stroke="#EDEDED"/>
<path d="M727.24 182.776H724.328V179.896H722.984V182.776H720.072V184.04H722.984V186.904H724.328V184.04H727.24V182.776ZM733.256 182.504L736.184 178.888V177.8H728.792V179.192H734.184L731.368 182.648V183.768H732.264C734.184 183.768 735.032 184.536 735.032 185.72C735.032 186.936 734.072 187.704 732.392 187.704C731.016 187.704 729.768 187.208 729.016 186.504L728.28 187.768C729.224 188.616 730.792 189.128 732.392 189.128C735.24 189.128 736.632 187.592 736.632 185.704C736.632 183.976 735.496 182.712 733.256 182.504ZM746.021 182.264H744.773L745.077 179.192H750.053V177.8H743.733L743.141 183.656H745.685C748.277 183.656 749.077 184.44 749.077 185.704C749.077 186.92 748.117 187.704 746.421 187.704C745.061 187.704 743.813 187.208 743.061 186.504L742.325 187.768C743.285 188.616 744.853 189.128 746.437 189.128C749.301 189.128 750.677 187.576 750.677 185.64C750.677 183.656 749.365 182.264 746.021 182.264ZM755.33 182.264H754.082L754.386 179.192H759.362V177.8H753.042L752.45 183.656H754.994C757.586 183.656 758.386 184.44 758.386 185.704C758.386 186.92 757.426 187.704 755.73 187.704C754.37 187.704 753.122 187.208 752.37 186.504L751.634 187.768C752.594 188.616 754.162 189.128 755.746 189.128C758.61 189.128 759.986 187.576 759.986 185.64C759.986 183.656 758.674 182.264 755.33 182.264ZM764.64 182.264H763.392L763.696 179.192H768.672V177.8H762.352L761.76 183.656H764.304C766.896 183.656 767.696 184.44 767.696 185.704C767.696 186.92 766.736 187.704 765.04 187.704C763.68 187.704 762.432 187.208 761.68 186.504L760.944 187.768C761.904 188.616 763.472 189.128 765.056 189.128C767.92 189.128 769.296 187.576 769.296 185.64C769.296 183.656 767.984 182.264 764.64 182.264ZM780.156 182.2C778.764 182.2 777.58 182.712 776.94 183.672C776.924 183.528 776.924 183.4 776.924 183.272C776.924 180.472 778.38 179.048 780.652 179.048C781.452 179.048 782.22 179.192 782.796 179.576L783.404 178.328C782.684 177.88 781.676 177.672 780.62 177.672C777.484 177.672 775.324 179.72 775.324 183.544C775.324 187.112 777.02 189.128 780.028 189.128C782.252 189.128 783.996 187.752 783.996 185.592C783.996 183.528 782.38 182.2 780.156 182.2ZM779.964 187.832C778.236 187.832 777.308 186.824 777.308 185.672C777.308 184.44 778.364 183.496 779.884 183.496C781.452 183.496 782.444 184.344 782.444 185.656C782.444 186.984 781.42 187.832 779.964 187.832ZM792.247 183.128C793.271 182.648 793.831 181.816 793.831 180.712C793.831 178.84 792.199 177.672 789.767 177.672C787.351 177.672 785.735 178.84 785.735 180.712C785.735 181.816 786.279 182.648 787.303 183.128C786.039 183.608 785.335 184.552 785.335 185.832C785.335 187.864 787.047 189.128 789.767 189.128C792.503 189.128 794.231 187.864 794.231 185.832C794.231 184.552 793.527 183.624 792.247 183.128ZM789.767 178.968C791.271 178.968 792.263 179.656 792.263 180.776C792.263 181.88 791.319 182.568 789.767 182.568C788.231 182.568 787.319 181.88 787.319 180.776C787.319 179.656 788.263 178.968 789.767 178.968ZM789.767 187.832C787.991 187.832 786.935 187.048 786.935 185.784C786.935 184.552 787.991 183.784 789.767 183.784C791.543 183.784 792.631 184.552 792.631 185.784C792.631 187.048 791.543 187.832 789.767 187.832ZM800.105 177.8V181.192H801.641V179.192H806.761L802.329 189H804.025L808.553 178.888V177.8H800.105ZM814.419 189.128C817.027 189.128 818.979 187.048 818.979 183.4C818.979 179.752 817.027 177.672 814.419 177.672C811.795 177.672 809.843 179.752 809.843 183.4C809.843 187.048 811.795 189.128 814.419 189.128ZM814.419 187.704C812.659 187.704 811.443 186.264 811.443 183.4C811.443 180.536 812.659 179.096 814.419 179.096C816.163 179.096 817.379 180.536 817.379 183.4C817.379 186.264 816.163 187.704 814.419 187.704Z" fill="#252B42"/>
<rect x="0.5" y="207.5" width="906" height="47" stroke="#EDEDED"/>
<rect x="0.5" y="208.5" width="74" height="45" stroke="#EDEDED"/>
<path d="M30.512 232.872H28.384V230.44H26.88V232.872H22.576L28.064 225.8H26.336L20.608 233.128V234.248H26.832V237H28.384V234.248H30.512V232.872Z" fill="#252B42"/>
<rect x="75.5" y="208.5" width="207" height="45" stroke="#EDEDED"/>
<path d="M98.12 237.128C100.408 237.128 101.624 235.896 101.624 233.4V225.8H95.992V227.192H100.04V233.48C100.04 234.984 99.384 235.752 98.12 235.752C97.176 235.752 96.392 235.288 95.784 234.424L94.856 235.512C95.576 236.552 96.792 237.128 98.12 237.128ZM108.491 237.096C111.035 237.096 112.891 235.288 112.891 232.76C112.891 230.232 111.035 228.44 108.491 228.44C105.947 228.44 104.075 230.232 104.075 232.76C104.075 235.288 105.947 237.096 108.491 237.096ZM108.491 235.752C106.859 235.752 105.627 234.568 105.627 232.76C105.627 230.952 106.859 229.784 108.491 229.784C110.123 229.784 111.339 230.952 111.339 232.76C111.339 234.568 110.123 235.752 108.491 235.752ZM119.743 228.44C118.447 228.44 117.391 228.904 116.751 229.72V225.128H115.215V237H116.751V232.632C116.751 230.792 117.807 229.816 119.439 229.816C120.895 229.816 121.727 230.632 121.727 232.296V237H123.263V232.12C123.263 229.624 121.807 228.44 119.743 228.44ZM130.834 228.44C129.49 228.44 128.402 228.936 127.778 229.8V228.52H126.306V237H127.842V232.632C127.842 230.792 128.898 229.816 130.53 229.816C131.986 229.816 132.818 230.632 132.818 232.296V237H134.354V232.12C134.354 229.624 132.898 228.44 130.834 228.44Z" fill="#252B42"/>
<rect x="283.5" y="208.5" width="207" height="45" stroke="#EDEDED"/>
<path d="M304.68 237H309.4C313 237 315.448 234.728 315.448 231.4C315.448 228.072 313 225.8 309.4 225.8H304.68V237ZM306.28 235.608V227.192H309.304C312.072 227.192 313.848 228.888 313.848 231.4C313.848 233.912 312.072 235.608 309.304 235.608H306.28ZM321.507 237.096C324.051 237.096 325.907 235.288 325.907 232.76C325.907 230.232 324.051 228.44 321.507 228.44C318.963 228.44 317.091 230.232 317.091 232.76C317.091 235.288 318.963 237.096 321.507 237.096ZM321.507 235.752C319.875 235.752 318.643 234.568 318.643 232.76C318.643 230.952 319.875 229.784 321.507 229.784C323.139 229.784 324.355 230.952 324.355 232.76C324.355 234.568 323.139 235.752 321.507 235.752ZM335.895 232.808C335.895 230.2 334.151 228.44 331.703 228.44C329.255 228.44 327.447 230.248 327.447 232.76C327.447 235.288 329.271 237.096 332.007 237.096C333.415 237.096 334.583 236.616 335.351 235.72L334.503 234.728C333.879 235.416 333.047 235.752 332.055 235.752C330.375 235.752 329.175 234.76 328.983 233.272H335.863C335.879 233.128 335.895 232.936 335.895 232.808ZM331.703 229.736C333.191 229.736 334.263 230.744 334.423 232.168H328.983C329.143 230.728 330.231 229.736 331.703 229.736Z" fill="#252B42"/>
<rect x="491.5" y="208.5" width="207" height="45" stroke="#EDEDED"/>
<path d="M517.688 237.128C519.432 237.128 520.936 236.52 521.96 235.368L520.92 234.36C520.056 235.272 519 235.704 517.768 235.704C515.24 235.704 513.368 233.88 513.368 231.4C513.368 228.92 515.24 227.096 517.768 227.096C519 227.096 520.056 227.512 520.92 228.424L521.96 227.416C520.936 226.264 519.432 225.672 517.704 225.672C514.296 225.672 511.768 228.088 511.768 231.4C511.768 234.712 514.296 237.128 517.688 237.128ZM526.043 235.608V231.992H531.659V230.632H526.043V227.192H532.347V225.8H524.442V237H532.571V235.608H526.043ZM540.37 237.128C543.778 237.128 546.306 234.696 546.306 231.4C546.306 228.104 543.778 225.672 540.37 225.672C536.93 225.672 534.402 228.12 534.402 231.4C534.402 234.68 536.93 237.128 540.37 237.128ZM540.37 235.704C537.858 235.704 536.002 233.88 536.002 231.4C536.002 228.92 537.858 227.096 540.37 227.096C542.85 227.096 544.706 228.92 544.706 231.4C544.706 233.88 542.85 235.704 540.37 235.704ZM548.799 234.904C548.191 234.904 547.727 235.352 547.727 235.992C547.727 236.472 547.999 236.84 548.399 236.984L547.807 239.368H548.815L549.567 237.144C549.775 236.552 549.839 236.312 549.839 235.992C549.839 235.368 549.407 234.904 548.799 234.904ZM564.865 227.192V225.8H556.961V237H558.561V232.472H564.177V231.096H558.561V227.192H564.865ZM570.46 237.096C573.004 237.096 574.86 235.288 574.86 232.76C574.86 230.232 573.004 228.44 570.46 228.44C567.916 228.44 566.044 230.232 566.044 232.76C566.044 235.288 567.916 237.096 570.46 237.096ZM570.46 235.752C568.828 235.752 567.596 234.568 567.596 232.76C567.596 230.952 568.828 229.784 570.46 229.784C572.092 229.784 573.308 230.952 573.308 232.76C573.308 234.568 572.092 235.752 570.46 235.752ZM583.552 228.52V232.904C583.552 234.728 582.528 235.72 580.928 235.72C579.472 235.72 578.64 234.888 578.64 233.224V228.52H577.104V233.4C577.104 235.896 578.56 237.096 580.752 237.096C581.952 237.096 583.008 236.6 583.632 235.72V237H585.088V228.52H583.552ZM592.74 228.44C591.396 228.44 590.308 228.936 589.684 229.8V228.52H588.212V237H589.748V232.632C589.748 230.792 590.804 229.816 592.436 229.816C593.892 229.816 594.724 230.632 594.724 232.296V237H596.26V232.12C596.26 229.624 594.804 228.44 592.74 228.44ZM605.814 225.128V229.8C605.11 228.888 604.054 228.44 602.854 228.44C600.374 228.44 598.566 230.168 598.566 232.76C598.566 235.352 600.374 237.096 602.854 237.096C604.102 237.096 605.19 236.616 605.878 235.656V237H607.35V225.128H605.814ZM602.982 235.752C601.35 235.752 600.118 234.568 600.118 232.76C600.118 230.952 601.35 229.784 602.982 229.784C604.598 229.784 605.83 230.952 605.83 232.76C605.83 234.568 604.598 235.752 602.982 235.752ZM618.12 232.808C618.12 230.2 616.376 228.44 613.928 228.44C611.48 228.44 609.672 230.248 609.672 232.76C609.672 235.288 611.496 237.096 614.232 237.096C615.64 237.096 616.808 236.616 617.576 235.72L616.728 234.728C616.104 235.416 615.272 235.752 614.28 235.752C612.6 235.752 611.4 234.76 611.208 233.272H618.088C618.104 233.128 618.12 232.936 618.12 232.808ZM613.928 229.736C615.416 229.736 616.488 230.744 616.648 232.168H611.208C611.368 230.728 612.456 229.736 613.928 229.736ZM621.925 229.944V228.52H620.453V237H621.989V232.776C621.989 230.92 623.013 229.912 624.661 229.912C624.773 229.912 624.885 229.912 625.013 229.928V228.44C623.525 228.44 622.469 228.952 621.925 229.944Z" fill="#252B42"/>
<rect x="699.5" y="208.5" width="207" height="45" stroke="#EDEDED"/>
<path d="M727.24 230.776H724.328V227.896H722.984V230.776H720.072V232.04H722.984V234.904H724.328V232.04H727.24V230.776ZM733.256 230.504L736.184 226.888V225.8H728.792V227.192H734.184L731.368 230.648V231.768H732.264C734.184 231.768 735.032 232.536 735.032 233.72C735.032 234.936 734.072 235.704 732.392 235.704C731.016 235.704 729.768 235.208 729.016 234.504L728.28 235.768C729.224 236.616 730.792 237.128 732.392 237.128C735.24 237.128 736.632 235.592 736.632 233.704C736.632 231.976 735.496 230.712 733.256 230.504ZM746.021 230.264H744.773L745.077 227.192H750.053V225.8H743.733L743.141 231.656H745.685C748.277 231.656 749.077 232.44 749.077 233.704C749.077 234.92 748.117 235.704 746.421 235.704C745.061 235.704 743.813 235.208 743.061 234.504L742.325 235.768C743.285 236.616 744.853 237.128 746.437 237.128C749.301 237.128 750.677 235.576 750.677 233.64C750.677 231.656 749.365 230.264 746.021 230.264ZM755.33 230.264H754.082L754.386 227.192H759.362V225.8H753.042L752.45 231.656H754.994C757.586 231.656 758.386 232.44 758.386 233.704C758.386 234.92 757.426 235.704 755.73 235.704C754.37 235.704 753.122 235.208 752.37 234.504L751.634 235.768C752.594 236.616 754.162 237.128 755.746 237.128C758.61 237.128 759.986 235.576 759.986 233.64C759.986 231.656 758.674 230.264 755.33 230.264ZM764.64 230.264H763.392L763.696 227.192H768.672V225.8H762.352L761.76 231.656H764.304C766.896 231.656 767.696 232.44 767.696 233.704C767.696 234.92 766.736 235.704 765.04 235.704C763.68 235.704 762.432 235.208 761.68 234.504L760.944 235.768C761.904 236.616 763.472 237.128 765.056 237.128C767.92 237.128 769.296 235.576 769.296 233.64C769.296 231.656 767.984 230.264 764.64 230.264ZM780.156 230.2C778.764 230.2 777.58 230.712 776.94 231.672C776.924 231.528 776.924 231.4 776.924 231.272C776.924 228.472 778.38 227.048 780.652 227.048C781.452 227.048 782.22 227.192 782.796 227.576L783.404 226.328C782.684 225.88 781.676 225.672 780.62 225.672C777.484 225.672 775.324 227.72 775.324 231.544C775.324 235.112 777.02 237.128 780.028 237.128C782.252 237.128 783.996 235.752 783.996 233.592C783.996 231.528 782.38 230.2 780.156 230.2ZM779.964 235.832C778.236 235.832 777.308 234.824 777.308 233.672C777.308 232.44 778.364 231.496 779.884 231.496C781.452 231.496 782.444 232.344 782.444 233.656C782.444 234.984 781.42 235.832 779.964 235.832ZM792.247 231.128C793.271 230.648 793.831 229.816 793.831 228.712C793.831 226.84 792.199 225.672 789.767 225.672C787.351 225.672 785.735 226.84 785.735 228.712C785.735 229.816 786.279 230.648 787.303 231.128C786.039 231.608 785.335 232.552 785.335 233.832C785.335 235.864 787.047 237.128 789.767 237.128C792.503 237.128 794.231 235.864 794.231 233.832C794.231 232.552 793.527 231.624 792.247 231.128ZM789.767 226.968C791.271 226.968 792.263 227.656 792.263 228.776C792.263 229.88 791.319 230.568 789.767 230.568C788.231 230.568 787.319 229.88 787.319 228.776C787.319 227.656 788.263 226.968 789.767 226.968ZM789.767 235.832C787.991 235.832 786.935 235.048 786.935 233.784C786.935 232.552 787.991 231.784 789.767 231.784C791.543 231.784 792.631 232.552 792.631 233.784C792.631 235.048 791.543 235.832 789.767 235.832ZM800.105 225.8V229.192H801.641V227.192H806.761L802.329 237H804.025L808.553 226.888V225.8H800.105ZM814.419 237.128C817.027 237.128 818.979 235.048 818.979 231.4C818.979 227.752 817.027 225.672 814.419 225.672C811.795 225.672 809.843 227.752 809.843 231.4C809.843 235.048 811.795 237.128 814.419 237.128ZM814.419 235.704C812.659 235.704 811.443 234.264 811.443 231.4C811.443 228.536 812.659 227.096 814.419 227.096C816.163 227.096 817.379 228.536 817.379 231.4C817.379 234.264 816.163 235.704 814.419 235.704Z" fill="#252B42"/>
</g>
<defs>
<clipPath id="clip0_688_2781">
<rect width="907" height="255" fill="white"/>
</clipPath>
<clipPath id="clip1_688_2781">
<rect width="907" height="63" fill="white"/>
</clipPath>
</defs>
</svg>
