<svg width="1322" height="106" viewBox="0 0 1322 106" fill="none" xmlns="http://www.w3.org/2000/svg">
<path d="M145.408 62H138.064V45.224H144.592C145.728 45.224 146.704 45.36 147.52 45.632C148.352 45.904 148.976 46.272 149.392 46.736C150.144 47.6 150.52 48.576 150.52 49.664C150.52 50.976 150.096 51.952 149.248 52.592C148.96 52.816 148.76 52.96 148.648 53.024C148.536 53.072 148.336 53.16 148.048 53.288C149.088 53.512 149.912 53.984 150.52 54.704C151.144 55.408 151.456 56.288 151.456 57.344C151.456 58.512 151.056 59.544 150.256 60.44C149.328 61.48 147.712 62 145.408 62ZM141.808 52.016H143.584C144.624 52.016 145.392 51.904 145.888 51.68C146.4 51.456 146.656 50.976 146.656 50.24C146.656 49.488 146.424 48.992 145.96 48.752C145.496 48.512 144.712 48.392 143.608 48.392H141.808V52.016ZM141.808 58.832H144.376C145.448 58.832 146.248 58.704 146.776 58.448C147.32 58.176 147.592 57.656 147.592 56.888C147.592 56.104 147.304 55.592 146.728 55.352C146.168 55.096 145.264 54.968 144.016 54.968H141.808V58.832ZM161.143 52.256C160.071 52.256 159.271 52.64 158.743 53.408C158.215 54.16 157.951 55.16 157.951 56.408V62H154.351V49.088H157.951V50.792C158.415 50.264 158.991 49.816 159.679 49.448C160.383 49.08 161.095 48.888 161.815 48.872L161.839 52.256H161.143ZM175.169 62H171.785V60.44C170.857 61.608 169.705 62.192 168.329 62.192C166.969 62.192 165.825 61.8 164.897 61.016C163.969 60.216 163.505 59.16 163.505 57.848C163.505 56.52 163.985 55.528 164.945 54.872C165.905 54.216 167.217 53.888 168.881 53.888H171.569V53.816C171.569 52.44 170.841 51.752 169.385 51.752C168.761 51.752 168.097 51.88 167.393 52.136C166.705 52.376 166.121 52.68 165.641 53.048L164.033 50.72C165.729 49.488 167.665 48.872 169.841 48.872C171.409 48.872 172.689 49.264 173.681 50.048C174.673 50.832 175.169 52.072 175.169 53.768V62ZM171.545 57.08V56.456H169.289C167.849 56.456 167.129 56.904 167.129 57.8C167.129 58.264 167.297 58.624 167.633 58.88C167.985 59.12 168.481 59.24 169.121 59.24C169.761 59.24 170.321 59.048 170.801 58.664C171.297 58.264 171.545 57.736 171.545 57.08ZM182.151 54.8V62H178.551V49.088H182.151V50.528C183.239 49.424 184.463 48.872 185.823 48.872C187.183 48.872 188.319 49.352 189.231 50.312C190.159 51.272 190.623 52.552 190.623 54.152V62H187.023V54.704C187.023 52.72 186.295 51.728 184.839 51.728C184.119 51.728 183.487 51.992 182.943 52.52C182.415 53.032 182.151 53.792 182.151 54.8ZM199.139 62.192C197.619 62.192 196.259 61.544 195.059 60.248C193.859 58.952 193.259 57.344 193.259 55.424C193.259 53.504 193.843 51.936 195.011 50.72C196.179 49.488 197.547 48.872 199.115 48.872C200.683 48.872 201.963 49.424 202.955 50.528V44.192H206.555V62H202.955V60.296C201.947 61.56 200.675 62.192 199.139 62.192ZM196.883 55.568C196.883 56.608 197.195 57.464 197.819 58.136C198.443 58.792 199.171 59.12 200.003 59.12C200.835 59.12 201.539 58.792 202.115 58.136C202.707 57.464 203.003 56.608 203.003 55.568C203.003 54.512 202.707 53.64 202.115 52.952C201.539 52.248 200.827 51.896 199.979 51.896C199.131 51.896 198.403 52.248 197.795 52.952C197.187 53.656 196.883 54.528 196.883 55.568ZM222.159 45.224H225.903V62H222.159L214.167 51.488V62H210.423V45.224H213.927L222.159 56.024V45.224ZM240.749 62H237.365V60.44C236.437 61.608 235.285 62.192 233.909 62.192C232.549 62.192 231.405 61.8 230.477 61.016C229.549 60.216 229.085 59.16 229.085 57.848C229.085 56.52 229.565 55.528 230.525 54.872C231.485 54.216 232.797 53.888 234.461 53.888H237.149V53.816C237.149 52.44 236.421 51.752 234.965 51.752C234.341 51.752 233.677 51.88 232.973 52.136C232.285 52.376 231.701 52.68 231.221 53.048L229.613 50.72C231.309 49.488 233.245 48.872 235.421 48.872C236.989 48.872 238.269 49.264 239.261 50.048C240.253 50.832 240.749 52.072 240.749 53.768V62ZM237.125 57.08V56.456H234.869C233.429 56.456 232.709 56.904 232.709 57.8C232.709 58.264 232.877 58.624 233.213 58.88C233.565 59.12 234.061 59.24 234.701 59.24C235.341 59.24 235.901 59.048 236.381 58.664C236.877 58.264 237.125 57.736 237.125 57.08ZM255.987 55.04V62H252.363V54.944C252.363 53.92 252.203 53.168 251.883 52.688C251.579 52.208 251.075 51.968 250.371 51.968C249.683 51.968 249.067 52.232 248.523 52.76C247.995 53.272 247.731 54.032 247.731 55.04V62H244.131V49.088H247.731V50.552C248.723 49.432 249.859 48.872 251.139 48.872C251.955 48.872 252.691 49.112 253.347 49.592C254.019 50.072 254.523 50.656 254.859 51.344C255.355 50.56 256.019 49.952 256.851 49.52C257.699 49.088 258.547 48.872 259.395 48.872C260.915 48.872 262.139 49.328 263.067 50.24C263.995 51.136 264.459 52.44 264.459 54.152V62H260.835V54.944C260.835 52.96 260.107 51.968 258.651 51.968C257.931 51.968 257.307 52.232 256.779 52.76C256.251 53.272 255.987 54.032 255.987 55.04ZM279.016 60.128C277.56 61.504 275.848 62.192 273.88 62.192C271.928 62.192 270.312 61.592 269.032 60.392C267.752 59.176 267.112 57.552 267.112 55.52C267.112 53.488 267.76 51.872 269.056 50.672C270.368 49.472 271.912 48.872 273.688 48.872C275.464 48.872 276.968 49.408 278.2 50.48C279.448 51.552 280.072 53.024 280.072 54.896V56.816H270.664C270.776 57.52 271.144 58.096 271.768 58.544C272.392 58.992 273.096 59.216 273.88 59.216C275.144 59.216 276.184 58.792 277 57.944L279.016 60.128ZM276.424 54.248C276.344 53.48 276.056 52.888 275.56 52.472C275.064 52.056 274.456 51.848 273.736 51.848C273.032 51.848 272.384 52.064 271.792 52.496C271.2 52.928 270.856 53.512 270.76 54.248H276.424Z" fill="#252B42"/>
<g clip-path="url(#clip0_688_2972)">
<path d="M364.5 29C364.5 26.5147 366.515 24.5 369 24.5H599.5V81.5H369C366.515 81.5 364.5 79.4853 364.5 77V29Z" fill="#F9F9F9"/>
<path d="M364.5 29C364.5 26.5147 366.515 24.5 369 24.5H599.5V81.5H369C366.515 81.5 364.5 79.4853 364.5 77V29Z" stroke="#E6E6E6"/>
<path d="M394.312 49.502C393.836 49.502 393.444 49.6 393.136 49.796C392.828 49.992 392.674 50.2907 392.674 50.692C392.674 51.084 392.828 51.3873 393.136 51.602C393.444 51.8073 394.097 52.0313 395.096 52.274C396.104 52.5167 396.86 52.8573 397.364 53.296C397.877 53.7347 398.134 54.3833 398.134 55.242C398.134 56.0913 397.812 56.782 397.168 57.314C396.524 57.846 395.679 58.112 394.634 58.112C393.103 58.112 391.745 57.5847 390.56 56.53L391.596 55.284C392.585 56.1427 393.612 56.572 394.676 56.572C395.208 56.572 395.628 56.46 395.936 56.236C396.253 56.0027 396.412 55.6993 396.412 55.326C396.412 54.9433 396.263 54.6493 395.964 54.444C395.675 54.2293 395.171 54.038 394.452 53.87C393.733 53.6927 393.187 53.534 392.814 53.394C392.441 53.2447 392.109 53.0533 391.82 52.82C391.241 52.3813 390.952 51.7093 390.952 50.804C390.952 49.8987 391.279 49.2033 391.932 48.718C392.595 48.2233 393.411 47.976 394.382 47.976C395.007 47.976 395.628 48.0787 396.244 48.284C396.86 48.4893 397.392 48.7787 397.84 49.152L396.958 50.398C396.669 50.1367 396.277 49.922 395.782 49.754C395.287 49.586 394.797 49.502 394.312 49.502ZM407.082 54.962H401.244C401.282 55.5033 401.529 55.942 401.986 56.278C402.444 56.6047 402.966 56.768 403.554 56.768C404.488 56.768 405.197 56.474 405.682 55.886L406.578 56.866C405.776 57.6967 404.73 58.112 403.442 58.112C402.397 58.112 401.506 57.7667 400.768 57.076C400.04 56.376 399.676 55.4427 399.676 54.276C399.676 53.1 400.05 52.1667 400.796 51.476C401.543 50.7853 402.42 50.44 403.428 50.44C404.446 50.44 405.309 50.748 406.018 51.364C406.728 51.9707 407.082 52.8107 407.082 53.884V54.962ZM401.244 53.73H405.514C405.514 53.1047 405.318 52.624 404.926 52.288C404.534 51.952 404.049 51.784 403.47 51.784C402.901 51.784 402.388 51.9613 401.93 52.316C401.473 52.6613 401.244 53.1327 401.244 53.73ZM415.041 58H413.613V57.006C412.997 57.7433 412.171 58.112 411.135 58.112C410.36 58.112 409.716 57.8927 409.203 57.454C408.699 57.0153 408.447 56.432 408.447 55.704C408.447 54.9667 408.717 54.416 409.259 54.052C409.8 53.688 410.533 53.506 411.457 53.506H413.487V53.226C413.487 52.2367 412.936 51.742 411.835 51.742C411.144 51.742 410.425 51.994 409.679 52.498L408.979 51.518C409.884 50.7993 410.911 50.44 412.059 50.44C412.936 50.44 413.65 50.664 414.201 51.112C414.761 51.5507 415.041 52.246 415.041 53.198V58ZM413.473 55.228V54.598H411.709C410.579 54.598 410.015 54.9527 410.015 55.662C410.015 56.026 410.155 56.306 410.435 56.502C410.715 56.6887 411.102 56.782 411.597 56.782C412.101 56.782 412.539 56.642 412.913 56.362C413.286 56.082 413.473 55.704 413.473 55.228ZM421.329 52.022C420.555 52.022 419.971 52.274 419.579 52.778C419.187 53.282 418.991 53.9587 418.991 54.808V58H417.423V50.552H418.991V52.05C419.243 51.5833 419.584 51.2007 420.013 50.902C420.452 50.6033 420.914 50.4493 421.399 50.44L421.413 52.022C421.385 52.022 421.357 52.022 421.329 52.022ZM426.492 58.112C425.456 58.112 424.565 57.762 423.818 57.062C423.071 56.3527 422.698 55.4287 422.698 54.29C422.698 53.1513 423.085 52.2273 423.86 51.518C424.644 50.7993 425.596 50.44 426.716 50.44C427.836 50.44 428.783 50.8273 429.558 51.602L428.634 52.736C427.99 52.176 427.341 51.896 426.688 51.896C426.035 51.896 425.465 52.1153 424.98 52.554C424.504 52.9833 424.266 53.5433 424.266 54.234C424.266 54.9153 424.504 55.494 424.98 55.97C425.456 56.446 426.039 56.684 426.73 56.684C427.43 56.684 428.088 56.3667 428.704 55.732L429.628 56.74C428.723 57.6547 427.677 58.112 426.492 58.112ZM433.022 53.968V58H431.454V47.626H433.022V51.91C433.246 51.4527 433.582 51.0933 434.03 50.832C434.488 50.5707 434.978 50.44 435.5 50.44C436.34 50.44 437.017 50.6967 437.53 51.21C438.053 51.7233 438.314 52.4653 438.314 53.436V58H436.746V53.912C436.746 52.54 436.177 51.854 435.038 51.854C434.497 51.854 434.026 52.036 433.624 52.4C433.223 52.7547 433.022 53.2773 433.022 53.968Z" fill="#737373"/>
<g clip-path="url(#clip1_688_2972)">
<rect x="598.5" y="24.5" width="154" height="57" fill="#F9F9F9"/>
<rect x="598.5" y="24.5" width="154" height="57" stroke="#E6E6E6"/>
<path d="M626.852 58.112C628.378 58.112 629.694 57.58 630.59 56.572L629.68 55.69C628.924 56.488 628 56.866 626.922 56.866C624.71 56.866 623.072 55.27 623.072 53.1C623.072 50.93 624.71 49.334 626.922 49.334C628 49.334 628.924 49.698 629.68 50.496L630.59 49.614C629.694 48.606 628.378 48.088 626.866 48.088C623.884 48.088 621.672 50.202 621.672 53.1C621.672 55.998 623.884 58.112 626.852 58.112ZM635.197 50.51C634.007 50.51 632.901 50.846 632.131 51.462L632.691 52.47C633.265 51.98 634.161 51.672 635.043 51.672C636.373 51.672 637.031 52.33 637.031 53.464V53.73H634.903C632.691 53.73 631.921 54.71 631.921 55.9C631.921 57.188 632.985 58.084 634.665 58.084C635.827 58.084 636.653 57.692 637.101 57.02V58H638.375V53.52C638.375 51.49 637.227 50.51 635.197 50.51ZM634.889 57.048C633.867 57.048 633.251 56.586 633.251 55.844C633.251 55.214 633.629 54.696 634.959 54.696H637.031V55.732C636.695 56.586 635.897 57.048 634.889 57.048ZM644.815 56.6C644.535 56.824 644.157 56.95 643.765 56.95C643.023 56.95 642.603 56.502 642.603 55.704V51.686H644.731V50.58H642.603V48.956H641.259V50.58H639.999V51.686H641.259V55.76C641.259 57.258 642.113 58.084 643.611 58.084C644.213 58.084 644.829 57.916 645.235 57.566L644.815 56.6ZM653.519 54.332C653.519 52.05 651.993 50.51 649.851 50.51C647.709 50.51 646.127 52.092 646.127 54.29C646.127 56.502 647.723 58.084 650.117 58.084C651.349 58.084 652.371 57.664 653.043 56.88L652.301 56.012C651.755 56.614 651.027 56.908 650.159 56.908C648.689 56.908 647.639 56.04 647.471 54.738H653.491C653.505 54.612 653.519 54.444 653.519 54.332ZM649.851 51.644C651.153 51.644 652.091 52.526 652.231 53.772H647.471C647.611 52.512 648.563 51.644 649.851 51.644ZM661.41 50.58V51.728C660.78 50.916 659.772 50.51 658.666 50.51C656.524 50.51 654.9 51.952 654.9 54.094C654.9 56.236 656.524 57.692 658.666 57.692C659.73 57.692 660.696 57.314 661.34 56.544V57.132C661.34 58.812 660.542 59.624 658.792 59.624C657.7 59.624 656.622 59.246 655.936 58.658L655.292 59.694C656.104 60.422 657.476 60.8 658.834 60.8C661.354 60.8 662.684 59.61 662.684 56.992V50.58H661.41ZM658.82 56.516C657.322 56.516 656.258 55.522 656.258 54.094C656.258 52.652 657.322 51.686 658.82 51.686C660.304 51.686 661.368 52.652 661.368 54.094C661.368 55.522 660.304 56.516 658.82 56.516ZM668.63 58.084C670.856 58.084 672.48 56.502 672.48 54.29C672.48 52.078 670.856 50.51 668.63 50.51C666.404 50.51 664.766 52.078 664.766 54.29C664.766 56.502 666.404 58.084 668.63 58.084ZM668.63 56.908C667.202 56.908 666.124 55.872 666.124 54.29C666.124 52.708 667.202 51.686 668.63 51.686C670.058 51.686 671.122 52.708 671.122 54.29C671.122 55.872 670.058 56.908 668.63 56.908ZM675.826 51.826V50.58H674.538V58H675.882V54.304C675.882 52.68 676.778 51.798 678.22 51.798C678.318 51.798 678.416 51.798 678.528 51.812V50.51C677.226 50.51 676.302 50.958 675.826 51.826ZM685.936 50.58L683.374 56.516L680.784 50.58H679.384L682.66 57.986L682.422 58.504C682.058 59.358 681.652 59.652 681.008 59.652C680.504 59.652 680.042 59.456 679.678 59.106L679.104 60.114C679.566 60.562 680.294 60.8 681.008 60.8C682.142 60.8 682.996 60.31 683.654 58.742L687.252 50.58H685.936Z" fill="#252B42"/>
<path d="M718.429 50L722 53.5714L725.571 50L727 50.7143L722 55.7143L717 50.7143L718.429 50Z" fill="#252B42"/>
</g>
<g clip-path="url(#clip2_688_2972)">
<path d="M752.5 24.5H807.001C809.486 24.5 811.501 26.5147 811.501 29V77.0004C811.501 79.4857 809.486 81.5004 807.001 81.5004H752.5V24.5Z" fill="#23A6F0"/>
<path d="M752.5 24.5H807.001C809.486 24.5 811.501 26.5147 811.501 29V77.0004C811.501 79.4857 809.486 81.5004 807.001 81.5004H752.5V24.5Z" stroke="#E6E6E6"/>
<g clip-path="url(#clip3_688_2972)">
<path fill-rule="evenodd" clip-rule="evenodd" d="M785.46 55.3185L789.764 59.6223C789.915 59.7737 790 59.979 790 60.193C790 60.407 789.915 60.6122 789.763 60.7635C789.612 60.9147 789.407 60.9997 789.193 60.9996C788.979 60.9995 788.774 60.9144 788.622 60.7631L784.319 56.4593C783.032 57.4558 781.414 57.9247 779.794 57.7707C778.174 57.6167 776.673 56.8513 775.598 55.6302C774.522 54.4091 773.952 52.8241 774.003 51.1975C774.055 49.571 774.724 48.0251 775.874 46.8744C777.025 45.7237 778.571 45.0546 780.198 45.0032C781.824 44.9518 783.409 45.522 784.63 46.5977C785.851 47.6735 786.617 49.174 786.771 50.794C786.925 52.4141 786.456 54.0319 785.459 55.3185H785.46ZM780.4 56.1993C781.673 56.1993 782.894 55.6936 783.794 54.7935C784.694 53.8933 785.2 52.6725 785.2 51.3995C785.2 50.1265 784.694 48.9057 783.794 48.0055C782.894 47.1054 781.673 46.5997 780.4 46.5997C779.127 46.5997 777.906 47.1054 777.006 48.0055C776.106 48.9057 775.601 50.1265 775.601 51.3995C775.601 52.6725 776.106 53.8933 777.006 54.7935C777.906 55.6936 779.127 56.1993 780.4 56.1993Z" fill="white"/>
</g>
</g>
</g>
<g clip-path="url(#clip4_688_2972)">
<path d="M943.343 56.474V53.772H948.075V52.274H943.343V49.726H948.677V48.2H941.523V58H948.873V56.474H943.343ZM957.531 58L954.605 54.178L957.405 50.524H955.515L953.681 52.974L951.847 50.524H949.901L952.687 54.206L949.775 58H951.707L953.639 55.41L955.557 58H957.531ZM963.166 50.44C962.144 50.44 961.276 50.79 960.688 51.504V50.524H959.022V60.716H960.772V57.09C961.374 57.776 962.214 58.098 963.166 58.098C965.35 58.098 966.96 56.586 966.96 54.262C966.96 51.952 965.35 50.44 963.166 50.44ZM962.97 56.6C961.71 56.6 960.744 55.69 960.744 54.262C960.744 52.834 961.71 51.924 962.97 51.924C964.23 51.924 965.182 52.834 965.182 54.262C965.182 55.69 964.23 56.6 962.97 56.6ZM968.82 58H970.57V47.612H968.82V58ZM976.427 58.098C978.751 58.098 980.417 56.502 980.417 54.262C980.417 52.022 978.751 50.44 976.427 50.44C974.131 50.44 972.451 52.022 972.451 54.262C972.451 56.502 974.131 58.098 976.427 58.098ZM976.427 56.6C975.167 56.6 974.215 55.69 974.215 54.262C974.215 52.834 975.167 51.924 976.427 51.924C977.701 51.924 978.653 52.834 978.653 54.262C978.653 55.69 977.701 56.6 976.427 56.6ZM983.956 51.616V50.524H982.29V58H984.04V54.374C984.04 52.848 984.88 52.064 986.21 52.064C986.336 52.064 986.462 52.078 986.616 52.106V50.44C985.37 50.44 984.46 50.832 983.956 51.616ZM995.26 54.304C995.26 51.966 993.664 50.44 991.48 50.44C989.254 50.44 987.616 52.036 987.616 54.262C987.616 56.488 989.24 58.098 991.746 58.098C993.034 58.098 994.084 57.678 994.756 56.88L993.818 55.802C993.286 56.348 992.628 56.614 991.788 56.614C990.486 56.614 989.576 55.914 989.366 54.822H995.232C995.246 54.654 995.26 54.444 995.26 54.304ZM991.48 51.84C992.628 51.84 993.454 52.582 993.594 53.66H989.352C989.52 52.568 990.346 51.84 991.48 51.84Z" fill="#252B42"/>
<path d="M1018.57 58H1025.52V56.46H1020.39V48.2H1018.57V58ZM1030.28 58.098C1032.6 58.098 1034.27 56.502 1034.27 54.262C1034.27 52.022 1032.6 50.44 1030.28 50.44C1027.98 50.44 1026.3 52.022 1026.3 54.262C1026.3 56.502 1027.98 58.098 1030.28 58.098ZM1030.28 56.6C1029.02 56.6 1028.06 55.69 1028.06 54.262C1028.06 52.834 1029.02 51.924 1030.28 51.924C1031.55 51.924 1032.5 52.834 1032.5 54.262C1032.5 55.69 1031.55 56.6 1030.28 56.6ZM1041.89 50.524V51.518C1041.28 50.776 1040.35 50.44 1039.3 50.44C1037.16 50.44 1035.52 51.868 1035.52 54.038C1035.52 56.208 1037.16 57.664 1039.3 57.664C1040.31 57.664 1041.19 57.342 1041.81 56.67V57.062C1041.81 58.574 1041.08 59.33 1039.43 59.33C1038.39 59.33 1037.33 58.98 1036.67 58.434L1035.89 59.75C1036.74 60.45 1038.13 60.814 1039.53 60.814C1042.15 60.814 1043.56 59.582 1043.56 56.866V50.524H1041.89ZM1039.57 56.18C1038.24 56.18 1037.29 55.312 1037.29 54.038C1037.29 52.778 1038.24 51.924 1039.57 51.924C1040.89 51.924 1041.84 52.778 1041.84 54.038C1041.84 55.312 1040.89 56.18 1039.57 56.18ZM1046.94 49.292C1047.6 49.292 1048.06 48.816 1048.06 48.2C1048.06 47.626 1047.59 47.192 1046.94 47.192C1046.3 47.192 1045.82 47.654 1045.82 48.242C1045.82 48.83 1046.3 49.292 1046.94 49.292ZM1046.06 58H1047.81V50.524H1046.06V58ZM1054.55 50.44C1053.46 50.44 1052.55 50.804 1051.97 51.49V50.524H1050.31V58H1052.06V54.22C1052.06 52.722 1052.9 51.966 1054.14 51.966C1055.26 51.966 1055.92 52.61 1055.92 53.94V58H1057.67V53.716C1057.67 51.462 1056.34 50.44 1054.55 50.44Z" fill="#737373"/>
<path d="M1084.42 58.14C1087.11 58.14 1088.38 56.796 1088.38 55.228C1088.38 51.63 1082.57 52.988 1082.57 50.902C1082.57 50.16 1083.19 49.572 1084.7 49.572C1085.55 49.572 1086.52 49.824 1087.4 50.342L1087.98 48.928C1087.12 48.368 1085.89 48.06 1084.71 48.06C1082.03 48.06 1080.77 49.404 1080.77 50.986C1080.77 54.626 1086.59 53.24 1086.59 55.354C1086.59 56.082 1085.95 56.628 1084.42 56.628C1083.22 56.628 1081.97 56.18 1081.19 55.55L1080.56 56.964C1081.37 57.664 1082.89 58.14 1084.42 58.14ZM1091.1 49.292C1091.76 49.292 1092.22 48.816 1092.22 48.2C1092.22 47.626 1091.74 47.192 1091.1 47.192C1090.46 47.192 1089.98 47.654 1089.98 48.242C1089.98 48.83 1090.46 49.292 1091.1 49.292ZM1090.22 58H1091.97V50.524H1090.22V58ZM1100.22 50.524V51.518C1099.6 50.776 1098.68 50.44 1097.63 50.44C1095.49 50.44 1093.85 51.868 1093.85 54.038C1093.85 56.208 1095.49 57.664 1097.63 57.664C1098.64 57.664 1099.52 57.342 1100.13 56.67V57.062C1100.13 58.574 1099.41 59.33 1097.75 59.33C1096.72 59.33 1095.65 58.98 1095 58.434L1094.21 59.75C1095.07 60.45 1096.45 60.814 1097.85 60.814C1100.47 60.814 1101.88 59.582 1101.88 56.866V50.524H1100.22ZM1097.89 56.18C1096.56 56.18 1095.61 55.312 1095.61 54.038C1095.61 52.778 1096.56 51.924 1097.89 51.924C1099.21 51.924 1100.16 52.778 1100.16 54.038C1100.16 55.312 1099.21 56.18 1097.89 56.18ZM1108.63 50.44C1107.54 50.44 1106.63 50.804 1106.05 51.49V50.524H1104.39V58H1106.14V54.22C1106.14 52.722 1106.98 51.966 1108.22 51.966C1109.34 51.966 1110 52.61 1110 53.94V58H1111.75V53.716C1111.75 51.462 1110.42 50.44 1108.63 50.44ZM1113.79 54.836H1117.64V53.38H1113.79V54.836ZM1125.24 50.524V54.304C1125.24 55.802 1124.42 56.558 1123.2 56.558C1122.09 56.558 1121.45 55.914 1121.45 54.556V50.524H1119.7V54.794C1119.7 57.048 1121 58.098 1122.92 58.098C1123.89 58.098 1124.77 57.734 1125.33 57.048V58H1126.99V50.524H1125.24ZM1133.63 50.44C1132.61 50.44 1131.74 50.79 1131.15 51.504V50.524H1129.49V60.716H1131.24V57.09C1131.84 57.776 1132.68 58.098 1133.63 58.098C1135.81 58.098 1137.42 56.586 1137.42 54.262C1137.42 51.952 1135.81 50.44 1133.63 50.44ZM1133.43 56.6C1132.17 56.6 1131.21 55.69 1131.21 54.262C1131.21 52.834 1132.17 51.924 1133.43 51.924C1134.69 51.924 1135.65 52.834 1135.65 54.262C1135.65 55.69 1134.69 56.6 1133.43 56.6Z" fill="#737373"/>
</g>
<defs>
<clipPath id="clip0_688_2972">
<rect width="448" height="58" fill="white" transform="translate(364 24)"/>
</clipPath>
<clipPath id="clip1_688_2972">
<rect width="155" height="58" fill="white" transform="translate(598 24)"/>
</clipPath>
<clipPath id="clip2_688_2972">
<rect width="60.0009" height="58.0004" fill="white" transform="translate(752 24)"/>
</clipPath>
<clipPath id="clip3_688_2972">
<rect width="16" height="16" fill="white" transform="translate(774 45)"/>
</clipPath>
<clipPath id="clip4_688_2972">
<rect width="198" height="24" fill="white" transform="translate(940 41)"/>
</clipPath>
</defs>
</svg>
