<svg width="414" height="551" viewBox="0 0 414 551" fill="none" xmlns="http://www.w3.org/2000/svg">
<rect width="414" height="551" fill="white"/>
<g clip-path="url(#clip0_688_4481)" filter="url(#filter0_d_688_4481)">
<path d="M31.354 162.14C34.042 162.14 35.316 160.796 35.316 159.228C35.316 155.63 29.506 156.988 29.506 154.902C29.506 154.16 30.122 153.572 31.634 153.572C32.488 153.572 33.454 153.824 34.336 154.342L34.91 152.928C34.056 152.368 32.824 152.06 31.648 152.06C28.96 152.06 27.7 153.404 27.7 154.986C27.7 158.626 33.524 157.24 33.524 159.354C33.524 160.082 32.88 160.628 31.354 160.628C30.15 160.628 28.904 160.18 28.12 159.55L27.49 160.964C28.302 161.664 29.828 162.14 31.354 162.14ZM40.5127 162.098C42.8367 162.098 44.5027 160.502 44.5027 158.262C44.5027 156.022 42.8367 154.44 40.5127 154.44C38.2167 154.44 36.5367 156.022 36.5367 158.262C36.5367 160.502 38.2167 162.098 40.5127 162.098ZM40.5127 160.6C39.2527 160.6 38.3007 159.69 38.3007 158.262C38.3007 156.834 39.2527 155.924 40.5127 155.924C41.7867 155.924 42.7387 156.834 42.7387 158.262C42.7387 159.69 41.7867 160.6 40.5127 160.6ZM48.0421 155.616V154.524H46.3761V162H48.1261V158.374C48.1261 156.848 48.9661 156.064 50.2961 156.064C50.4221 156.064 50.5481 156.078 50.7021 156.106V154.44C49.4561 154.44 48.5461 154.832 48.0421 155.616ZM56.6641 160.348C56.3981 160.558 56.0481 160.656 55.6841 160.656C55.0121 160.656 54.6481 160.264 54.6481 159.536V155.98H56.6501V154.58H54.6481V152.872H52.8981V154.58H51.6661V155.98H52.8981V159.578C52.8981 161.23 53.8361 162.098 55.4741 162.098C56.1041 162.098 56.7341 161.93 57.1541 161.594L56.6641 160.348ZM67.0068 154.44C66.0548 154.44 65.2148 154.762 64.6128 155.434V151.612H62.8628V162H64.5288V161.034C65.1168 161.748 65.9848 162.098 67.0068 162.098C69.1908 162.098 70.8008 160.586 70.8008 158.262C70.8008 155.938 69.1908 154.44 67.0068 154.44ZM66.8108 160.6C65.5508 160.6 64.5848 159.69 64.5848 158.262C64.5848 156.834 65.5508 155.924 66.8108 155.924C68.0708 155.924 69.0228 156.834 69.0228 158.262C69.0228 159.69 68.0708 160.6 66.8108 160.6ZM77.7754 154.524L75.4094 160.054L73.0574 154.524H71.2374L74.4994 162.028L74.3734 162.322C74.0374 163.064 73.6734 163.358 73.0574 163.358C72.5814 163.358 72.1054 163.162 71.7694 162.84L71.0694 164.128C71.5454 164.562 72.3294 164.814 73.0714 164.814C74.3174 164.814 75.2694 164.296 75.9554 162.602L79.4554 154.524H77.7754ZM85.3783 156.764C86.0083 156.764 86.5263 156.274 86.5263 155.602C86.5263 154.902 86.0083 154.44 85.3783 154.44C84.7483 154.44 84.2303 154.902 84.2303 155.602C84.2303 156.274 84.7483 156.764 85.3783 156.764ZM85.3783 162.098C86.0083 162.098 86.5263 161.608 86.5263 160.936C86.5263 160.236 86.0083 159.774 85.3783 159.774C84.7483 159.774 84.2303 160.236 84.2303 160.936C84.2303 161.608 84.7483 162.098 85.3783 162.098Z" fill="#737373"/>
<g filter="url(#filter1_d_688_4481)">
<rect x="27" y="187" width="360" height="74" rx="7" fill="white"/>
<rect x="27.5" y="187.5" width="359" height="73" rx="6.5" stroke="#DCDCDC"/>
<path d="M49.437 225.038V229H47.584V218.336H51.6636C52.855 218.336 53.7998 218.646 54.498 219.266C55.2012 219.886 55.5527 220.707 55.5527 221.727C55.5527 222.772 55.2085 223.585 54.52 224.166C53.8364 224.747 52.877 225.038 51.6416 225.038H49.437ZM49.437 223.551H51.6636C52.3228 223.551 52.8257 223.397 53.1724 223.089C53.519 222.777 53.6924 222.328 53.6924 221.742C53.6924 221.166 53.5166 220.707 53.165 220.365C52.8135 220.018 52.3301 219.84 51.7148 219.83H49.437V223.551ZM56.6708 224.964C56.6708 224.188 56.8246 223.49 57.1322 222.87C57.4398 222.245 57.872 221.766 58.4286 221.434C58.9853 221.097 59.6249 220.929 60.3476 220.929C61.4169 220.929 62.2836 221.273 62.9477 221.961C63.6166 222.65 63.9779 223.563 64.0316 224.701L64.039 225.118C64.039 225.899 63.8876 226.598 63.5849 227.213C63.287 227.828 62.8573 228.304 62.2958 228.641C61.7392 228.978 61.0946 229.146 60.3622 229.146C59.244 229.146 58.348 228.775 57.6742 228.033C57.0053 227.286 56.6708 226.292 56.6708 225.052V224.964ZM58.4506 225.118C58.4506 225.934 58.619 226.573 58.956 227.037C59.2929 227.496 59.7616 227.726 60.3622 227.726C60.9628 227.726 61.4291 227.491 61.7611 227.022C62.098 226.554 62.2665 225.868 62.2665 224.964C62.2665 224.164 62.0932 223.529 61.7465 223.06C61.4047 222.591 60.9384 222.357 60.3476 222.357C59.7665 222.357 59.3051 222.589 58.9633 223.053C58.6215 223.512 58.4506 224.2 58.4506 225.118ZM72.5838 225.118C72.5838 226.344 72.3055 227.323 71.7488 228.055C71.1922 228.783 70.4451 229.146 69.5076 229.146C68.6385 229.146 67.9427 228.861 67.4202 228.29V232.047H65.6404V221.075H67.2811L67.3543 221.881C67.8768 221.246 68.5872 220.929 69.4856 220.929C70.4524 220.929 71.2093 221.29 71.7562 222.013C72.3079 222.73 72.5838 223.729 72.5838 225.008V225.118ZM70.8113 224.964C70.8113 224.173 70.6526 223.546 70.3353 223.082C70.0228 222.618 69.5735 222.386 68.9876 222.386C68.2601 222.386 67.7376 222.687 67.4202 223.287V226.803C67.7425 227.418 68.2698 227.726 69.0022 227.726C69.5687 227.726 70.0105 227.499 70.3279 227.044C70.6502 226.585 70.8113 225.892 70.8113 224.964ZM78.9973 228.224C78.4748 228.839 77.7326 229.146 76.7707 229.146C75.9113 229.146 75.2595 228.895 74.8151 228.392C74.3757 227.889 74.156 227.162 74.156 226.209V221.075H75.9357V226.188C75.9357 227.193 76.3532 227.696 77.1882 227.696C78.0524 227.696 78.6359 227.386 78.9387 226.766V221.075H80.7185V229H79.0412L78.9973 228.224ZM84.5245 229H82.7447V217.75H84.5245V229ZM91.3042 229C91.2261 228.849 91.1577 228.602 91.0991 228.26C90.5327 228.851 89.8394 229.146 89.019 229.146C88.2231 229.146 87.5737 228.919 87.0708 228.465C86.5679 228.011 86.3164 227.45 86.3164 226.781C86.3164 225.936 86.6289 225.289 87.2539 224.84C87.8838 224.386 88.7822 224.159 89.9492 224.159H91.0405V223.639C91.0405 223.229 90.9258 222.901 90.6963 222.657C90.4668 222.408 90.1177 222.284 89.6489 222.284C89.2437 222.284 88.9116 222.386 88.6528 222.591C88.394 222.792 88.2646 223.048 88.2646 223.36H86.4849C86.4849 222.926 86.6289 222.521 86.917 222.145C87.2051 221.764 87.5957 221.466 88.0889 221.251C88.5869 221.036 89.1411 220.929 89.7515 220.929C90.6792 220.929 91.4189 221.163 91.9707 221.632C92.5225 222.096 92.8057 222.75 92.8203 223.595V227.169C92.8203 227.882 92.9204 228.451 93.1206 228.875V229H91.3042ZM89.3486 227.718C89.7002 227.718 90.0298 227.633 90.3374 227.462C90.6499 227.291 90.8843 227.062 91.0405 226.773V225.279H90.0811C89.4219 225.279 88.9263 225.394 88.5942 225.624C88.2622 225.853 88.0962 226.178 88.0962 226.598C88.0962 226.939 88.2085 227.213 88.4331 227.418C88.6626 227.618 88.9678 227.718 89.3486 227.718ZM98.9335 222.701C98.6991 222.662 98.4574 222.643 98.2084 222.643C97.393 222.643 96.8437 222.955 96.5604 223.58V229H94.7807V221.075H96.4799L96.5238 221.961C96.9535 221.273 97.5492 220.929 98.3109 220.929C98.5648 220.929 98.7748 220.963 98.9408 221.031L98.9335 222.701ZM102.051 229H100.271V221.075H102.051V229ZM100.161 219.017C100.161 218.744 100.247 218.517 100.418 218.336C100.594 218.155 100.843 218.065 101.165 218.065C101.487 218.065 101.736 218.155 101.912 218.336C102.088 218.517 102.176 218.744 102.176 219.017C102.176 219.286 102.088 219.51 101.912 219.691C101.736 219.867 101.487 219.955 101.165 219.955C100.843 219.955 100.594 219.867 100.418 219.691C100.247 219.51 100.161 219.286 100.161 219.017ZM106.326 219.149V221.075H107.725V222.394H106.326V226.817C106.326 227.12 106.384 227.34 106.502 227.477C106.624 227.608 106.839 227.674 107.146 227.674C107.351 227.674 107.559 227.65 107.769 227.601V228.978C107.363 229.09 106.973 229.146 106.597 229.146C105.23 229.146 104.546 228.392 104.546 226.883V222.394H103.242V221.075H104.546V219.149H106.326ZM111.963 226.451L113.574 221.075H115.471L112.322 230.201C111.838 231.534 111.018 232.201 109.861 232.201C109.602 232.201 109.317 232.157 109.004 232.069V230.692L109.341 230.714C109.79 230.714 110.127 230.631 110.352 230.465C110.581 230.304 110.762 230.03 110.894 229.645L111.15 228.963L108.367 221.075H110.286L111.963 226.451Z" fill="#252B42"/>
<g clip-path="url(#clip1_688_4481)">
<path d="M365.001 232L360.758 227.757L362.173 226.343L365.001 229.172L367.829 226.343L369.244 227.757L365.001 232Z" fill="#8D8D8D"/>
</g>
<g clip-path="url(#clip2_688_4481)">
<path d="M364.999 216L369.242 220.243L367.827 221.657L364.999 218.828L362.171 221.657L360.756 220.243L364.999 216Z" fill="#8D8D8D"/>
</g>
<line x1="385.5" y1="207" x2="385.5" y2="240" stroke="#E2E2E2"/>
</g>
<g filter="url(#filter2_d_688_4481)">
<rect x="27" y="272" width="360" height="74" rx="7" fill="white"/>
<rect x="27.5" y="272.5" width="359" height="73" rx="6.5" stroke="#DCDCDC"/>
<path d="M53.1577 311.253C53.1577 310.785 52.9917 310.423 52.6597 310.169C52.3325 309.916 51.7393 309.659 50.8799 309.4C50.0205 309.142 49.3369 308.854 48.8291 308.536C47.8574 307.926 47.3716 307.13 47.3716 306.148C47.3716 305.289 47.7207 304.581 48.4189 304.024C49.1221 303.468 50.0327 303.189 51.1509 303.189C51.8931 303.189 52.5547 303.326 53.1357 303.6C53.7168 303.873 54.1733 304.264 54.5054 304.771C54.8374 305.274 55.0034 305.833 55.0034 306.449H53.1577C53.1577 305.892 52.9819 305.458 52.6304 305.145C52.2837 304.828 51.7856 304.669 51.1362 304.669C50.5308 304.669 50.0596 304.798 49.7227 305.057C49.3906 305.316 49.2246 305.677 49.2246 306.141C49.2246 306.532 49.4053 306.859 49.7666 307.123C50.1279 307.381 50.7236 307.635 51.5537 307.884C52.3838 308.128 53.0503 308.409 53.5532 308.727C54.0562 309.039 54.4248 309.4 54.6592 309.811C54.8936 310.216 55.0107 310.692 55.0107 311.239C55.0107 312.127 54.6689 312.835 53.9854 313.363C53.3066 313.885 52.3838 314.146 51.2168 314.146C50.4453 314.146 49.7349 314.005 49.0854 313.722C48.4409 313.434 47.938 313.038 47.5767 312.535C47.2202 312.032 47.042 311.446 47.042 310.777H48.895C48.895 311.383 49.0952 311.852 49.4956 312.184C49.896 312.516 50.4697 312.682 51.2168 312.682C51.8613 312.682 52.3447 312.552 52.667 312.293C52.9941 312.03 53.1577 311.683 53.1577 311.253ZM60.0546 314.146C58.9267 314.146 58.0111 313.792 57.308 313.084C56.6098 312.372 56.2606 311.424 56.2606 310.243V310.023C56.2606 309.232 56.412 308.526 56.7147 307.906C57.0224 307.281 57.4521 306.795 58.0038 306.449C58.5556 306.102 59.1708 305.929 59.8495 305.929C60.9286 305.929 61.7611 306.273 62.3471 306.961C62.9379 307.65 63.2333 308.624 63.2333 309.884V310.602H58.0551C58.1088 311.256 58.3261 311.773 58.7069 312.154C59.0927 312.535 59.5761 312.726 60.1571 312.726C60.9726 312.726 61.6366 312.396 62.1493 311.737L63.1088 312.652C62.7914 313.126 62.3666 313.495 61.8344 313.758C61.307 314.017 60.7138 314.146 60.0546 314.146ZM59.8422 307.357C59.3539 307.357 58.9584 307.528 58.6557 307.87C58.3578 308.211 58.1674 308.688 58.0844 309.298H61.4755V309.166C61.4364 308.57 61.2777 308.121 60.9994 307.818C60.7211 307.511 60.3354 307.357 59.8422 307.357ZM66.6146 314H64.8348V302.75H66.6146V314ZM70.5524 314H68.7727V302.75H70.5524V314ZM76.087 314.146C74.9591 314.146 74.0436 313.792 73.3404 313.084C72.6422 312.372 72.2931 311.424 72.2931 310.243V310.023C72.2931 309.232 72.4444 308.526 72.7472 307.906C73.0548 307.281 73.4845 306.795 74.0362 306.449C74.588 306.102 75.2032 305.929 75.8819 305.929C76.961 305.929 77.7936 306.273 78.3795 306.961C78.9703 307.65 79.2657 308.624 79.2657 309.884V310.602H74.0875C74.1412 311.256 74.3585 311.773 74.7394 312.154C75.1251 312.535 75.6085 312.726 76.1896 312.726C77.005 312.726 77.669 312.396 78.1817 311.737L79.1412 312.652C78.8238 313.126 78.399 313.495 77.8668 313.758C77.3395 314.017 76.7462 314.146 76.087 314.146ZM75.8746 307.357C75.3863 307.357 74.9908 307.528 74.6881 307.87C74.3902 308.211 74.1998 308.688 74.1168 309.298H77.5079V309.166C77.4688 308.57 77.3102 308.121 77.0318 307.818C76.7535 307.511 76.3678 307.357 75.8746 307.357ZM84.9028 307.701C84.6685 307.662 84.4268 307.643 84.1777 307.643C83.3623 307.643 82.813 307.955 82.5298 308.58V314H80.75V306.075H82.4492L82.4932 306.961C82.9229 306.273 83.5186 305.929 84.2803 305.929C84.5342 305.929 84.7441 305.963 84.9102 306.031L84.9028 307.701ZM90.1346 314V303.336H93.284C94.2264 303.336 95.0613 303.546 95.7889 303.966C96.5213 304.386 97.0877 304.981 97.4881 305.753C97.8885 306.524 98.0887 307.408 98.0887 308.404V308.939C98.0887 309.95 97.886 310.838 97.4808 311.605C97.0804 312.372 96.5066 312.962 95.7596 313.377C95.0174 313.792 94.1653 314 93.2034 314H90.1346ZM91.9876 304.83V312.521H93.1961C94.1678 312.521 94.9124 312.218 95.43 311.612C95.9524 311.002 96.2186 310.128 96.2283 308.99V308.397C96.2283 307.24 95.9769 306.356 95.4739 305.746C94.971 305.135 94.241 304.83 93.284 304.83H91.9876ZM103.352 314.146C102.224 314.146 101.309 313.792 100.606 313.084C99.9074 312.372 99.5583 311.424 99.5583 310.243V310.023C99.5583 309.232 99.7097 308.526 100.012 307.906C100.32 307.281 100.75 306.795 101.301 306.449C101.853 306.102 102.468 305.929 103.147 305.929C104.226 305.929 105.059 306.273 105.645 306.961C106.236 307.65 106.531 308.624 106.531 309.884V310.602H101.353C101.406 311.256 101.624 311.773 102.005 312.154C102.39 312.535 102.874 312.726 103.455 312.726C104.27 312.726 104.934 312.396 105.447 311.737L106.406 312.652C106.089 313.126 105.664 313.495 105.132 313.758C104.605 314.017 104.011 314.146 103.352 314.146ZM103.14 307.357C102.652 307.357 102.256 307.528 101.953 307.87C101.655 308.211 101.465 308.688 101.382 309.298H104.773V309.166C104.734 308.57 104.575 308.121 104.297 307.818C104.019 307.511 103.633 307.357 103.14 307.357ZM110.249 304.149V306.075H111.648V307.394H110.249V311.817C110.249 312.12 110.308 312.34 110.425 312.477C110.547 312.608 110.762 312.674 111.069 312.674C111.275 312.674 111.482 312.65 111.692 312.601V313.978C111.287 314.09 110.896 314.146 110.52 314.146C109.153 314.146 108.469 313.392 108.469 311.883V307.394H107.166V306.075H108.469V304.149H110.249ZM117.849 314C117.771 313.849 117.703 313.602 117.644 313.26C117.078 313.851 116.384 314.146 115.564 314.146C114.768 314.146 114.119 313.919 113.616 313.465C113.113 313.011 112.861 312.45 112.861 311.781C112.861 310.936 113.174 310.289 113.799 309.84C114.429 309.386 115.327 309.159 116.494 309.159H117.585V308.639C117.585 308.229 117.471 307.901 117.241 307.657C117.012 307.408 116.663 307.284 116.194 307.284C115.789 307.284 115.457 307.386 115.198 307.591C114.939 307.792 114.81 308.048 114.81 308.36H113.03C113.03 307.926 113.174 307.521 113.462 307.145C113.75 306.764 114.141 306.466 114.634 306.251C115.132 306.036 115.686 305.929 116.296 305.929C117.224 305.929 117.964 306.163 118.516 306.632C119.067 307.096 119.351 307.75 119.365 308.595V312.169C119.365 312.882 119.465 313.451 119.666 313.875V314H117.849ZM115.894 312.718C116.245 312.718 116.575 312.633 116.882 312.462C117.195 312.291 117.429 312.062 117.585 311.773V310.279H116.626C115.967 310.279 115.471 310.394 115.139 310.624C114.807 310.853 114.641 311.178 114.641 311.598C114.641 311.939 114.753 312.213 114.978 312.418C115.208 312.618 115.513 312.718 115.894 312.718ZM123.223 314H121.443V306.075H123.223V314ZM121.333 304.017C121.333 303.744 121.418 303.517 121.589 303.336C121.765 303.155 122.014 303.065 122.336 303.065C122.659 303.065 122.908 303.155 123.083 303.336C123.259 303.517 123.347 303.744 123.347 304.017C123.347 304.286 123.259 304.51 123.083 304.691C122.908 304.867 122.659 304.955 122.336 304.955C122.014 304.955 121.765 304.867 121.589 304.691C121.418 304.51 121.333 304.286 121.333 304.017ZM127.16 314H125.381V302.75H127.16V314ZM133.647 311.847C133.647 311.529 133.515 311.288 133.252 311.122C132.993 310.956 132.561 310.809 131.955 310.682C131.35 310.555 130.844 310.394 130.439 310.199C129.55 309.769 129.106 309.146 129.106 308.331C129.106 307.647 129.394 307.076 129.97 306.617C130.547 306.158 131.279 305.929 132.168 305.929C133.115 305.929 133.879 306.163 134.46 306.632C135.046 307.101 135.339 307.708 135.339 308.456H133.559C133.559 308.114 133.432 307.831 133.178 307.606C132.925 307.376 132.588 307.262 132.168 307.262C131.777 307.262 131.457 307.352 131.208 307.533C130.964 307.713 130.842 307.955 130.842 308.258C130.842 308.531 130.957 308.744 131.186 308.895C131.416 309.046 131.88 309.2 132.578 309.356C133.276 309.508 133.823 309.691 134.218 309.906C134.619 310.116 134.914 310.37 135.105 310.667C135.3 310.965 135.398 311.327 135.398 311.751C135.398 312.464 135.102 313.043 134.511 313.487C133.921 313.927 133.147 314.146 132.19 314.146C131.54 314.146 130.962 314.029 130.454 313.795C129.946 313.561 129.55 313.238 129.267 312.828C128.984 312.418 128.842 311.976 128.842 311.502H130.571C130.595 311.922 130.754 312.247 131.047 312.477C131.34 312.701 131.728 312.813 132.212 312.813C132.68 312.813 133.037 312.726 133.281 312.55C133.525 312.369 133.647 312.135 133.647 311.847Z" fill="#252B42"/>
<g clip-path="url(#clip3_688_4481)">
<path d="M365.001 317L360.758 312.757L362.173 311.343L365.001 314.172L367.829 311.343L369.244 312.757L365.001 317Z" fill="#8D8D8D"/>
</g>
<g clip-path="url(#clip4_688_4481)">
<path d="M364.999 301L369.242 305.243L367.827 306.657L364.999 303.828L362.171 306.657L360.756 305.243L364.999 301Z" fill="#8D8D8D"/>
</g>
</g>
<g filter="url(#filter3_d_688_4481)">
<rect x="27" y="357" width="360" height="74" rx="7" fill="white"/>
<rect x="27.5" y="357.5" width="359" height="73" rx="6.5" stroke="#DCDCDC"/>
<path d="M47.584 399V388.336H51.2388C52.4448 388.336 53.3628 388.578 53.9927 389.061C54.6226 389.544 54.9375 390.265 54.9375 391.222C54.9375 391.71 54.8057 392.149 54.542 392.54C54.2783 392.931 53.8926 393.233 53.3848 393.448C53.9609 393.604 54.4053 393.9 54.7178 394.334C55.0352 394.764 55.1938 395.282 55.1938 395.887C55.1938 396.888 54.8716 397.657 54.2271 398.194C53.5874 398.731 52.6694 399 51.4731 399H47.584ZM49.437 394.188V397.521H51.4951C52.0762 397.521 52.5303 397.376 52.8574 397.088C53.1846 396.8 53.3481 396.4 53.3481 395.887C53.3481 394.779 52.7817 394.212 51.6489 394.188H49.437ZM49.437 392.826H51.2534C51.8296 392.826 52.2788 392.696 52.6011 392.438C52.9282 392.174 53.0918 391.803 53.0918 391.324C53.0918 390.797 52.9404 390.416 52.6377 390.182C52.3398 389.947 51.8735 389.83 51.2388 389.83H49.437V392.826ZM61.7758 398.224C61.2533 398.839 60.5111 399.146 59.5492 399.146C58.6898 399.146 58.038 398.895 57.5937 398.392C57.1542 397.889 56.9345 397.162 56.9345 396.209V391.075H58.7143V396.188C58.7143 397.193 59.1317 397.696 59.9667 397.696C60.831 397.696 61.4145 397.386 61.7172 396.766V391.075H63.497V399H61.8197L61.7758 398.224ZM65.0765 394.979C65.0765 393.758 65.3597 392.779 65.9261 392.042C66.4925 391.3 67.2518 390.929 68.2039 390.929C69.0438 390.929 69.7225 391.222 70.24 391.808V387.75H72.0198V399H70.4085L70.3206 398.18C69.7884 398.824 69.0779 399.146 68.1893 399.146C67.2615 399.146 66.5096 398.773 65.9334 398.026C65.3621 397.279 65.0765 396.263 65.0765 394.979ZM66.8563 395.133C66.8563 395.938 67.0101 396.568 67.3177 397.022C67.6302 397.472 68.0721 397.696 68.6434 397.696C69.3709 397.696 69.9031 397.372 70.24 396.722V393.338C69.9129 392.704 69.3855 392.386 68.658 392.386C68.0818 392.386 67.6375 392.616 67.325 393.075C67.0125 393.529 66.8563 394.215 66.8563 395.133ZM73.6652 394.979C73.6652 393.749 73.9533 392.767 74.5295 392.035C75.1105 391.297 75.8796 390.929 76.8366 390.929C77.7399 390.929 78.4504 391.244 78.968 391.874L79.0485 391.075H80.6525V398.758C80.6525 399.798 80.3278 400.619 79.6784 401.219C79.0339 401.82 78.1623 402.12 77.0637 402.12C76.4826 402.12 75.9138 401.998 75.3571 401.754C74.8054 401.515 74.3854 401.2 74.0974 400.809L74.9396 399.74C75.4865 400.389 76.1604 400.714 76.9611 400.714C77.552 400.714 78.0183 400.553 78.3601 400.23C78.7019 399.913 78.8728 399.444 78.8728 398.824V398.29C78.3601 398.861 77.6765 399.146 76.822 399.146C75.8942 399.146 75.135 398.778 74.5441 398.041C73.9582 397.303 73.6652 396.283 73.6652 394.979ZM75.4377 395.133C75.4377 395.929 75.5988 396.556 75.9211 397.015C76.2482 397.469 76.6999 397.696 77.2761 397.696C77.9938 397.696 78.5261 397.389 78.8728 396.773V393.287C78.5358 392.687 78.0085 392.386 77.2907 392.386C76.7048 392.386 76.2482 392.618 75.9211 393.082C75.5988 393.546 75.4377 394.229 75.4377 395.133ZM86.0772 399.146C84.9493 399.146 84.0338 398.792 83.3307 398.084C82.6324 397.372 82.2833 396.424 82.2833 395.243V395.023C82.2833 394.232 82.4347 393.526 82.7374 392.906C83.045 392.281 83.4747 391.795 84.0265 391.449C84.5782 391.102 85.1935 390.929 85.8722 390.929C86.9513 390.929 87.7838 391.273 88.3697 391.961C88.9605 392.65 89.256 393.624 89.256 394.884V395.602H84.0777C84.1314 396.256 84.3487 396.773 84.7296 397.154C85.1153 397.535 85.5987 397.726 86.1798 397.726C86.9952 397.726 87.6593 397.396 88.172 396.737L89.1314 397.652C88.8141 398.126 88.3893 398.495 87.857 398.758C87.3297 399.017 86.7364 399.146 86.0772 399.146ZM85.8648 392.357C85.3766 392.357 84.9811 392.528 84.6783 392.87C84.3805 393.211 84.19 393.688 84.107 394.298H87.4981V394.166C87.4591 393.57 87.3004 393.121 87.0221 392.818C86.7438 392.511 86.358 392.357 85.8648 392.357ZM92.9741 389.149V391.075H94.373V392.394H92.9741V396.817C92.9741 397.12 93.0327 397.34 93.1499 397.477C93.272 397.608 93.4868 397.674 93.7944 397.674C93.9995 397.674 94.207 397.65 94.417 397.601V398.978C94.0117 399.09 93.6211 399.146 93.2451 399.146C91.8779 399.146 91.1943 398.392 91.1943 396.883V392.394H89.8906V391.075H91.1943V389.149H92.9741Z" fill="#252B42"/>
<g clip-path="url(#clip5_688_4481)">
<path d="M365.001 402L360.758 397.757L362.173 396.343L365.001 399.172L367.829 396.343L369.244 397.757L365.001 402Z" fill="#8D8D8D"/>
</g>
<g clip-path="url(#clip6_688_4481)">
<path d="M364.999 386L369.242 390.243L367.827 391.657L364.999 388.828L362.171 391.657L360.756 390.243L364.999 386Z" fill="#8D8D8D"/>
</g>
</g>
<g filter="url(#filter4_d_688_4481)">
<rect x="27" y="442" width="360" height="74" rx="7" fill="white"/>
<rect x="27.5" y="442.5" width="359" height="73" rx="6.5" stroke="#DCDCDC"/>
<path d="M47.584 484V473.336H50.7334C51.6758 473.336 52.5107 473.546 53.2383 473.966C53.9707 474.386 54.5371 474.981 54.9375 475.753C55.3379 476.524 55.5381 477.408 55.5381 478.404V478.939C55.5381 479.95 55.3354 480.838 54.9302 481.605C54.5298 482.372 53.9561 482.962 53.209 483.377C52.4668 483.792 51.6147 484 50.6528 484H47.584ZM49.437 474.83V482.521H50.6455C51.6172 482.521 52.3618 482.218 52.8794 481.612C53.4019 481.002 53.668 480.128 53.6777 478.99V478.397C53.6777 477.24 53.4263 476.356 52.9233 475.746C52.4204 475.135 51.6904 474.83 50.7334 474.83H49.437ZM60.8017 484.146C59.6737 484.146 58.7582 483.792 58.0551 483.084C57.3568 482.372 57.0077 481.424 57.0077 480.243V480.023C57.0077 479.232 57.1591 478.526 57.4618 477.906C57.7694 477.281 58.1991 476.795 58.7509 476.449C59.3026 476.102 59.9179 475.929 60.5966 475.929C61.6757 475.929 62.5082 476.273 63.0941 476.961C63.685 477.65 63.9804 478.624 63.9804 479.884V480.602H58.8021C58.8559 481.256 59.0731 481.773 59.454 482.154C59.8397 482.535 60.3231 482.726 60.9042 482.726C61.7196 482.726 62.3837 482.396 62.8964 481.737L63.8559 482.652C63.5385 483.126 63.1137 483.495 62.5814 483.758C62.0541 484.017 61.4608 484.146 60.8017 484.146ZM60.5893 477.357C60.101 477.357 59.7055 477.528 59.4027 477.87C59.1049 478.211 58.9145 478.688 58.8314 479.298H62.2226V479.166C62.1835 478.57 62.0248 478.121 61.7465 477.818C61.4682 477.511 61.0824 477.357 60.5893 477.357ZM67.3616 484H65.5818V472.75H67.3616V484ZM71.2995 484H69.5197V476.075H71.2995V484ZM69.4099 474.017C69.4099 473.744 69.4953 473.517 69.6662 473.336C69.842 473.155 70.091 473.065 70.4133 473.065C70.7355 473.065 70.9846 473.155 71.1604 473.336C71.3361 473.517 71.424 473.744 71.424 474.017C71.424 474.286 71.3361 474.51 71.1604 474.691C70.9846 474.867 70.7355 474.955 70.4133 474.955C70.091 474.955 69.842 474.867 69.6662 474.691C69.4953 474.51 69.4099 474.286 69.4099 474.017ZM76.1383 481.744L77.8155 476.075H79.6539L76.9073 484H75.3619L72.5934 476.075H74.4391L76.1383 481.744ZM84.2583 484.146C83.1304 484.146 82.2148 483.792 81.5117 483.084C80.8135 482.372 80.4644 481.424 80.4644 480.243V480.023C80.4644 479.232 80.6157 478.526 80.9185 477.906C81.2261 477.281 81.6558 476.795 82.2075 476.449C82.7593 476.102 83.3745 475.929 84.0532 475.929C85.1323 475.929 85.9648 476.273 86.5508 476.961C87.1416 477.65 87.437 478.624 87.437 479.884V480.602H82.2588C82.3125 481.256 82.5298 481.773 82.9106 482.154C83.2964 482.535 83.7798 482.726 84.3608 482.726C85.1763 482.726 85.8403 482.396 86.353 481.737L87.3125 482.652C86.9951 483.126 86.5703 483.495 86.0381 483.758C85.5107 484.017 84.9175 484.146 84.2583 484.146ZM84.0459 477.357C83.5576 477.357 83.1621 477.528 82.8594 477.87C82.5615 478.211 82.3711 478.688 82.2881 479.298H85.6792V479.166C85.6401 478.57 85.4814 478.121 85.2031 477.818C84.9248 477.511 84.5391 477.357 84.0459 477.357ZM93.0741 477.701C92.8397 477.662 92.598 477.643 92.349 477.643C91.5336 477.643 90.9843 477.955 90.7011 478.58V484H88.9213V476.075H90.6205L90.6645 476.961C91.0941 476.273 91.6898 475.929 92.4516 475.929C92.7055 475.929 92.9154 475.963 93.0814 476.031L93.0741 477.701ZM97.2024 481.451L98.8138 476.075H100.711L97.5613 485.201C97.0779 486.534 96.2576 487.201 95.1004 487.201C94.8416 487.201 94.556 487.157 94.2435 487.069V485.692L94.5804 485.714C95.0296 485.714 95.3665 485.631 95.5911 485.465C95.8206 485.304 96.0013 485.03 96.1331 484.645L96.3895 483.963L93.6063 476.075H95.5252L97.2024 481.451ZM113.113 474.83H109.788V484H107.949V474.83H104.653V473.336H113.113V474.83ZM116.34 484H114.561V476.075H116.34V484ZM114.451 474.017C114.451 473.744 114.536 473.517 114.707 473.336C114.883 473.155 115.132 473.065 115.454 473.065C115.776 473.065 116.025 473.155 116.201 473.336C116.377 473.517 116.465 473.744 116.465 474.017C116.465 474.286 116.377 474.51 116.201 474.691C116.025 474.867 115.776 474.955 115.454 474.955C115.132 474.955 114.883 474.867 114.707 474.691C114.536 474.51 114.451 474.286 114.451 474.017ZM120.058 476.075L120.11 476.903C120.666 476.253 121.428 475.929 122.395 475.929C123.454 475.929 124.18 476.334 124.57 477.145C125.146 476.334 125.957 475.929 127.002 475.929C127.876 475.929 128.525 476.17 128.95 476.654C129.38 477.137 129.6 477.85 129.609 478.792V484H127.829V478.844C127.829 478.341 127.72 477.972 127.5 477.738C127.28 477.503 126.916 477.386 126.409 477.386C126.003 477.386 125.671 477.496 125.412 477.716C125.159 477.931 124.98 478.214 124.878 478.565L124.885 484H123.105V478.785C123.081 477.853 122.605 477.386 121.677 477.386C120.964 477.386 120.459 477.677 120.161 478.258V484H118.381V476.075H120.058ZM135.027 484.146C133.899 484.146 132.983 483.792 132.28 483.084C131.582 482.372 131.233 481.424 131.233 480.243V480.023C131.233 479.232 131.384 478.526 131.687 477.906C131.994 477.281 132.424 476.795 132.976 476.449C133.528 476.102 134.143 475.929 134.822 475.929C135.901 475.929 136.733 476.273 137.319 476.961C137.91 477.65 138.205 478.624 138.205 479.884V480.602H133.027C133.081 481.256 133.298 481.773 133.679 482.154C134.065 482.535 134.548 482.726 135.129 482.726C135.945 482.726 136.609 482.396 137.121 481.737L138.081 482.652C137.763 483.126 137.339 483.495 136.806 483.758C136.279 484.017 135.686 484.146 135.027 484.146ZM134.814 477.357C134.326 477.357 133.93 477.528 133.628 477.87C133.33 478.211 133.139 478.688 133.056 479.298H136.448V479.166C136.408 478.57 136.25 478.121 135.971 477.818C135.693 477.511 135.307 477.357 134.814 477.357Z" fill="#252B42"/>
<g clip-path="url(#clip7_688_4481)">
<path d="M365.001 487L360.758 482.757L362.173 481.343L365.001 484.172L367.829 481.343L369.244 482.757L365.001 487Z" fill="#8D8D8D"/>
</g>
<g clip-path="url(#clip8_688_4481)">
<path d="M364.999 471L369.242 475.243L367.827 476.657L364.999 473.828L362.171 476.657L360.756 475.243L364.999 471Z" fill="#8D8D8D"/>
</g>
</g>
</g>
<g clip-path="url(#clip9_688_4481)">
<path d="M38.4675 39.2V43.246H33.3995V39.2H31.5795V49H33.3995V44.8H38.4675V49H40.2875V39.2H38.4675ZM46.3055 49.098C48.6295 49.098 50.2955 47.502 50.2955 45.262C50.2955 43.022 48.6295 41.44 46.3055 41.44C44.0095 41.44 42.3295 43.022 42.3295 45.262C42.3295 47.502 44.0095 49.098 46.3055 49.098ZM46.3055 47.6C45.0455 47.6 44.0935 46.69 44.0935 45.262C44.0935 43.834 45.0455 42.924 46.3055 42.924C47.5795 42.924 48.5315 43.834 48.5315 45.262C48.5315 46.69 47.5795 47.6 46.3055 47.6ZM61.6049 41.44C60.4149 41.44 59.4069 41.916 58.8049 42.686C58.2869 41.846 57.3769 41.44 56.2849 41.44C55.2629 41.44 54.3949 41.804 53.8349 42.476V41.524H52.1689V49H53.9189V45.206C53.9189 43.722 54.7029 42.966 55.8649 42.966C56.9289 42.966 57.5449 43.61 57.5449 44.94V49H59.2949V45.206C59.2949 43.722 60.0929 42.966 61.2409 42.966C62.3049 42.966 62.9209 43.61 62.9209 44.94V49H64.6709V44.716C64.6709 42.462 63.4109 41.44 61.6049 41.44ZM74.2035 45.304C74.2035 42.966 72.6075 41.44 70.4235 41.44C68.1975 41.44 66.5595 43.036 66.5595 45.262C66.5595 47.488 68.1835 49.098 70.6895 49.098C71.9775 49.098 73.0275 48.678 73.6995 47.88L72.7615 46.802C72.2295 47.348 71.5715 47.614 70.7315 47.614C69.4295 47.614 68.5195 46.914 68.3095 45.822H74.1755C74.1895 45.654 74.2035 45.444 74.2035 45.304ZM70.4235 42.84C71.5715 42.84 72.3975 43.582 72.5375 44.66H68.2955C68.4635 43.568 69.2895 42.84 70.4235 42.84Z" fill="#252B42"/>
<g clip-path="url(#clip10_688_4481)">
<path fill-rule="evenodd" clip-rule="evenodd" d="M88 49.196L93.3593 44L88 38.804L88.8278 38L95 44.003L88.8278 50L88 49.196Z" fill="#BDBDBD"/>
</g>
<path d="M120.159 49L120.145 39.2H118.647L114.825 45.696L110.933 39.2H109.435V49H111.171V42.588L114.391 47.88H115.203L118.423 42.504L118.437 49H120.159ZM125.694 41.44C124.49 41.44 123.328 41.748 122.53 42.364L123.216 43.638C123.776 43.176 124.644 42.896 125.484 42.896C126.73 42.896 127.346 43.498 127.346 44.52V44.632H125.414C123.146 44.632 122.306 45.612 122.306 46.858C122.306 48.16 123.384 49.098 125.092 49.098C126.212 49.098 127.024 48.734 127.444 48.09V49H129.096V44.618C129.096 42.462 127.85 41.44 125.694 41.44ZM125.456 47.824C124.56 47.824 124.028 47.418 124.028 46.788C124.028 46.242 124.35 45.794 125.54 45.794H127.346V46.662C127.052 47.432 126.31 47.824 125.456 47.824ZM133.208 42.616V41.524H131.542V49H133.292V45.374C133.292 43.848 134.132 43.064 135.462 43.064C135.588 43.064 135.714 43.078 135.868 43.106V41.44C134.622 41.44 133.712 41.832 133.208 42.616ZM143.194 49H145.322L141.906 44.66L145.028 41.524H142.928L139.302 44.884V38.612H137.552V49H139.302V47.026L140.604 45.794L143.194 49ZM153.366 45.304C153.366 42.966 151.77 41.44 149.586 41.44C147.36 41.44 145.722 43.036 145.722 45.262C145.722 47.488 147.346 49.098 149.852 49.098C151.14 49.098 152.19 48.678 152.862 47.88L151.924 46.802C151.392 47.348 150.734 47.614 149.894 47.614C148.592 47.614 147.682 46.914 147.472 45.822H153.338C153.352 45.654 153.366 45.444 153.366 45.304ZM149.586 42.84C150.734 42.84 151.56 43.582 151.7 44.66H147.458C147.626 43.568 148.452 42.84 149.586 42.84ZM159.251 47.348C158.985 47.558 158.635 47.656 158.271 47.656C157.599 47.656 157.235 47.264 157.235 46.536V42.98H159.237V41.58H157.235V39.872H155.485V41.58H154.253V42.98H155.485V46.578C155.485 48.23 156.423 49.098 158.061 49.098C158.691 49.098 159.321 48.93 159.741 48.594L159.251 47.348ZM165.525 41.44C164.503 41.44 163.635 41.79 163.047 42.504V41.524H161.381V51.716H163.131V48.09C163.733 48.776 164.573 49.098 165.525 49.098C167.709 49.098 169.319 47.586 169.319 45.262C169.319 42.952 167.709 41.44 165.525 41.44ZM165.329 47.6C164.069 47.6 163.103 46.69 163.103 45.262C163.103 43.834 164.069 42.924 165.329 42.924C166.589 42.924 167.541 43.834 167.541 45.262C167.541 46.69 166.589 47.6 165.329 47.6ZM171.178 49H172.928V38.612H171.178V49ZM178.281 41.44C177.077 41.44 175.915 41.748 175.117 42.364L175.803 43.638C176.363 43.176 177.231 42.896 178.071 42.896C179.317 42.896 179.933 43.498 179.933 44.52V44.632H178.001C175.733 44.632 174.893 45.612 174.893 46.858C174.893 48.16 175.971 49.098 177.679 49.098C178.799 49.098 179.611 48.734 180.031 48.09V49H181.683V44.618C181.683 42.462 180.437 41.44 178.281 41.44ZM178.043 47.824C177.147 47.824 176.615 47.418 176.615 46.788C176.615 46.242 176.937 45.794 178.127 45.794H179.933V46.662C179.639 47.432 178.897 47.824 178.043 47.824ZM187.627 49.098C189.083 49.098 190.245 48.468 190.819 47.348L189.475 46.564C189.027 47.278 188.355 47.6 187.613 47.6C186.325 47.6 185.345 46.718 185.345 45.262C185.345 43.82 186.325 42.924 187.613 42.924C188.355 42.924 189.027 43.246 189.475 43.96L190.819 43.176C190.245 42.042 189.083 41.44 187.627 41.44C185.261 41.44 183.581 43.022 183.581 45.262C183.581 47.502 185.261 49.098 187.627 49.098ZM199.451 45.304C199.451 42.966 197.855 41.44 195.671 41.44C193.445 41.44 191.807 43.036 191.807 45.262C191.807 47.488 193.431 49.098 195.937 49.098C197.225 49.098 198.275 48.678 198.947 47.88L198.009 46.802C197.477 47.348 196.819 47.614 195.979 47.614C194.677 47.614 193.767 46.914 193.557 45.822H199.423C199.437 45.654 199.451 45.444 199.451 45.304ZM195.671 42.84C196.819 42.84 197.645 43.582 197.785 44.66H193.543C193.711 43.568 194.537 42.84 195.671 42.84ZM209.601 39.2H205.569V49H207.389V46.172H209.601C212.177 46.172 213.773 44.842 213.773 42.686C213.773 40.516 212.177 39.2 209.601 39.2ZM209.517 44.632H207.389V40.74H209.517C211.113 40.74 211.939 41.454 211.939 42.686C211.939 43.918 211.113 44.632 209.517 44.632ZM217.22 42.616V41.524H215.554V49H217.304V45.374C217.304 43.848 218.144 43.064 219.474 43.064C219.6 43.064 219.726 43.078 219.88 43.106V41.44C218.634 41.44 217.724 41.832 217.22 42.616ZM224.856 49.098C227.18 49.098 228.846 47.502 228.846 45.262C228.846 43.022 227.18 41.44 224.856 41.44C222.56 41.44 220.88 43.022 220.88 45.262C220.88 47.502 222.56 49.098 224.856 49.098ZM224.856 47.6C223.596 47.6 222.644 46.69 222.644 45.262C222.644 43.834 223.596 42.924 224.856 42.924C226.13 42.924 227.082 43.834 227.082 45.262C227.082 46.69 226.13 47.6 224.856 47.6ZM236.292 38.612V42.448C235.704 41.762 234.85 41.44 233.884 41.44C231.714 41.44 230.104 42.938 230.104 45.262C230.104 47.586 231.714 49.098 233.884 49.098C234.906 49.098 235.774 48.748 236.362 48.034V49H238.042V38.612H236.292ZM234.094 47.6C232.834 47.6 231.868 46.69 231.868 45.262C231.868 43.834 232.834 42.924 234.094 42.924C235.354 42.924 236.32 43.834 236.32 45.262C236.32 46.69 235.354 47.6 234.094 47.6ZM246.019 41.524V45.304C246.019 46.802 245.193 47.558 243.975 47.558C242.869 47.558 242.225 46.914 242.225 45.556V41.524H240.475V45.794C240.475 48.048 241.777 49.098 243.695 49.098C244.661 49.098 245.543 48.734 246.103 48.048V49H247.769V41.524H246.019ZM253.69 49.098C255.146 49.098 256.308 48.468 256.882 47.348L255.538 46.564C255.09 47.278 254.418 47.6 253.676 47.6C252.388 47.6 251.408 46.718 251.408 45.262C251.408 43.82 252.388 42.924 253.676 42.924C254.418 42.924 255.09 43.246 255.538 43.96L256.882 43.176C256.308 42.042 255.146 41.44 253.69 41.44C251.324 41.44 249.644 43.022 249.644 45.262C249.644 47.502 251.324 49.098 253.69 49.098ZM262.695 47.348C262.429 47.558 262.079 47.656 261.715 47.656C261.043 47.656 260.679 47.264 260.679 46.536V42.98H262.681V41.58H260.679V39.872H258.929V41.58H257.697V42.98H258.929V46.578C258.929 48.23 259.867 49.098 261.505 49.098C262.135 49.098 262.765 48.93 263.185 48.594L262.695 47.348ZM267.134 49.098C269.234 49.098 270.522 48.188 270.522 46.788C270.522 43.862 265.902 45.206 265.902 43.694C265.902 43.204 266.406 42.854 267.47 42.854C268.184 42.854 268.898 42.994 269.612 43.414L270.284 42.084C269.612 41.678 268.478 41.44 267.484 41.44C265.468 41.44 264.194 42.364 264.194 43.778C264.194 46.76 268.814 45.416 268.814 46.844C268.814 47.362 268.352 47.67 267.246 47.67C266.308 47.67 265.3 47.362 264.642 46.928L263.97 48.258C264.642 48.734 265.888 49.098 267.134 49.098Z" fill="#737373"/>
</g>
<path d="M52.2474 95.44L47.7114 104.608H45.4794L40.9674 95.44V106H37.2234V89.224H42.2874L46.6074 98.44L50.9514 89.224H55.9914V106H52.2474V95.44ZM70.8298 106H67.4458V104.44C66.5178 105.608 65.3658 106.192 63.9898 106.192C62.6298 106.192 61.4858 105.8 60.5578 105.016C59.6298 104.216 59.1658 103.16 59.1658 101.848C59.1658 100.52 59.6458 99.528 60.6058 98.872C61.5658 98.216 62.8778 97.888 64.5418 97.888H67.2298V97.816C67.2298 96.44 66.5018 95.752 65.0458 95.752C64.4218 95.752 63.7578 95.88 63.0538 96.136C62.3658 96.376 61.7818 96.68 61.3018 97.048L59.6938 94.72C61.3898 93.488 63.3258 92.872 65.5018 92.872C67.0698 92.872 68.3498 93.264 69.3418 94.048C70.3338 94.832 70.8298 96.072 70.8298 97.768V106ZM67.2058 101.08V100.456H64.9498C63.5098 100.456 62.7898 100.904 62.7898 101.8C62.7898 102.264 62.9578 102.624 63.2938 102.88C63.6458 103.12 64.1418 103.24 64.7818 103.24C65.4218 103.24 65.9818 103.048 66.4618 102.664C66.9578 102.264 67.2058 101.736 67.2058 101.08ZM81.0038 96.256C79.9318 96.256 79.1318 96.64 78.6038 97.408C78.0758 98.16 77.8118 99.16 77.8118 100.408V106H74.2118V93.088H77.8118V94.792C78.2758 94.264 78.8518 93.816 79.5398 93.448C80.2438 93.08 80.9558 92.888 81.6758 92.872L81.6998 96.256H81.0038ZM87.779 106H84.179V88.192H87.779V97.336L91.787 93.064H96.323L91.403 98.296L96.515 106H92.243L88.955 101.056L87.779 102.28V106ZM109.736 104.128C108.28 105.504 106.568 106.192 104.6 106.192C102.648 106.192 101.032 105.592 99.7524 104.392C98.4724 103.176 97.8324 101.552 97.8324 99.52C97.8324 97.488 98.4804 95.872 99.7764 94.672C101.088 93.472 102.632 92.872 104.408 92.872C106.184 92.872 107.688 93.408 108.92 94.48C110.168 95.552 110.792 97.024 110.792 98.896V100.816H101.384C101.496 101.52 101.864 102.096 102.488 102.544C103.112 102.992 103.816 103.216 104.6 103.216C105.864 103.216 106.904 102.792 107.72 101.944L109.736 104.128ZM107.144 98.248C107.064 97.48 106.776 96.888 106.28 96.472C105.784 96.056 105.176 95.848 104.456 95.848C103.752 95.848 103.104 96.064 102.512 96.496C101.92 96.928 101.576 97.512 101.48 98.248H107.144ZM117.644 95.68V101.464C117.644 101.96 117.772 102.352 118.028 102.64C118.284 102.912 118.588 103.048 118.94 103.048C119.612 103.048 120.18 102.744 120.644 102.136L121.988 104.656C120.868 105.68 119.684 106.192 118.436 106.192C117.204 106.192 116.156 105.784 115.292 104.968C114.444 104.152 114.02 103.04 114.02 101.632V95.68H112.508V93.088H114.02V89.224H117.644V93.088H120.764V95.68H117.644ZM131.53 92.872C133.034 92.872 134.37 93.504 135.538 94.768C136.722 96.016 137.314 97.592 137.314 99.496C137.314 101.4 136.722 102.992 135.538 104.272C134.37 105.552 132.994 106.192 131.41 106.192C129.842 106.192 128.578 105.56 127.618 104.296V110.656H124.018V93.088H127.618V94.528C128.722 93.424 130.026 92.872 131.53 92.872ZM127.57 99.568C127.57 100.608 127.858 101.464 128.434 102.136C129.026 102.792 129.738 103.12 130.57 103.12C131.402 103.12 132.13 102.792 132.754 102.136C133.378 101.464 133.69 100.608 133.69 99.568C133.69 98.528 133.386 97.656 132.778 96.952C132.17 96.248 131.442 95.896 130.594 95.896C129.746 95.896 129.026 96.248 128.434 96.952C127.858 97.64 127.57 98.512 127.57 99.568ZM143.702 106H140.102V88.192H143.702V106ZM158.178 106H154.794V104.44C153.866 105.608 152.714 106.192 151.338 106.192C149.978 106.192 148.834 105.8 147.906 105.016C146.978 104.216 146.514 103.16 146.514 101.848C146.514 100.52 146.994 99.528 147.954 98.872C148.914 98.216 150.226 97.888 151.89 97.888H154.578V97.816C154.578 96.44 153.85 95.752 152.394 95.752C151.77 95.752 151.106 95.88 150.402 96.136C149.714 96.376 149.13 96.68 148.65 97.048L147.042 94.72C148.738 93.488 150.674 92.872 152.85 92.872C154.418 92.872 155.698 93.264 156.69 94.048C157.682 94.832 158.178 96.072 158.178 97.768V106ZM154.554 101.08V100.456H152.298C150.858 100.456 150.138 100.904 150.138 101.8C150.138 102.264 150.306 102.624 150.642 102.88C150.994 103.12 151.49 103.24 152.13 103.24C152.77 103.24 153.33 103.048 153.81 102.664C154.306 102.264 154.554 101.736 154.554 101.08ZM167.752 103C168.952 103 170.032 102.4 170.992 101.2L173.128 103.6C171.464 105.328 169.664 106.192 167.728 106.192C165.792 106.192 164.152 105.584 162.808 104.368C161.48 103.136 160.816 101.536 160.816 99.568C160.816 97.584 161.488 95.976 162.832 94.744C164.192 93.496 165.8 92.872 167.656 92.872C168.584 92.872 169.52 93.064 170.464 93.448C171.424 93.832 172.264 94.4 172.984 95.152L171.112 97.6C170.696 97.104 170.184 96.72 169.576 96.448C168.984 96.176 168.392 96.04 167.8 96.04C166.856 96.04 166.04 96.352 165.352 96.976C164.68 97.584 164.344 98.44 164.344 99.544C164.344 100.632 164.68 101.48 165.352 102.088C166.04 102.696 166.84 103 167.752 103ZM186.813 104.128C185.357 105.504 183.645 106.192 181.677 106.192C179.725 106.192 178.109 105.592 176.829 104.392C175.549 103.176 174.909 101.552 174.909 99.52C174.909 97.488 175.557 95.872 176.853 94.672C178.165 93.472 179.709 92.872 181.485 92.872C183.261 92.872 184.765 93.408 185.997 94.48C187.245 95.552 187.869 97.024 187.869 98.896V100.816H178.461C178.573 101.52 178.941 102.096 179.565 102.544C180.189 102.992 180.893 103.216 181.677 103.216C182.941 103.216 183.981 102.792 184.797 101.944L186.813 104.128ZM184.221 98.248C184.141 97.48 183.853 96.888 183.357 96.472C182.861 96.056 182.253 95.848 181.533 95.848C180.829 95.848 180.181 96.064 179.589 96.496C178.997 96.928 178.653 97.512 178.557 98.248H184.221ZM203.281 89.224C205.857 89.224 207.729 89.728 208.897 90.736C210.081 91.728 210.673 93.264 210.673 95.344C210.673 97.408 210.065 98.92 208.849 99.88C207.649 100.84 205.809 101.32 203.329 101.32H201.097V106H197.353V89.224H203.281ZM203.617 98.08C204.865 98.08 205.713 97.832 206.161 97.336C206.609 96.824 206.833 96.088 206.833 95.128C206.833 94.152 206.537 93.464 205.945 93.064C205.369 92.648 204.465 92.44 203.233 92.44H201.097V98.08H203.617ZM220.127 96.256C219.055 96.256 218.255 96.64 217.727 97.408C217.199 98.16 216.935 99.16 216.935 100.408V106H213.335V93.088H216.935V94.792C217.399 94.264 217.975 93.816 218.663 93.448C219.367 93.08 220.079 92.888 220.799 92.872L220.823 96.256H220.127ZM225.995 99.544C225.995 100.6 226.291 101.464 226.883 102.136C227.491 102.792 228.259 103.12 229.187 103.12C230.131 103.12 230.899 102.792 231.491 102.136C232.099 101.464 232.403 100.6 232.403 99.544C232.403 98.488 232.099 97.624 231.491 96.952C230.899 96.28 230.131 95.944 229.187 95.944C228.259 95.944 227.491 96.28 226.883 96.952C226.291 97.624 225.995 98.488 225.995 99.544ZM236.027 99.544C236.027 101.416 235.379 102.992 234.083 104.272C232.787 105.552 231.155 106.192 229.187 106.192C227.235 106.192 225.611 105.552 224.315 104.272C223.019 102.992 222.371 101.416 222.371 99.544C222.371 97.672 223.019 96.096 224.315 94.816C225.611 93.52 227.235 92.872 229.187 92.872C231.155 92.872 232.787 93.52 234.083 94.816C235.379 96.096 236.027 97.672 236.027 99.544ZM243.961 106.192C242.441 106.192 241.081 105.544 239.881 104.248C238.681 102.952 238.081 101.344 238.081 99.424C238.081 97.504 238.665 95.936 239.833 94.72C241.001 93.488 242.369 92.872 243.937 92.872C245.505 92.872 246.785 93.424 247.777 94.528V88.192H251.377V106H247.777V104.296C246.769 105.56 245.497 106.192 243.961 106.192ZM241.705 99.568C241.705 100.608 242.017 101.464 242.641 102.136C243.265 102.792 243.993 103.12 244.825 103.12C245.657 103.12 246.361 102.792 246.937 102.136C247.529 101.464 247.825 100.608 247.825 99.568C247.825 98.512 247.529 97.64 246.937 96.952C246.361 96.248 245.649 95.896 244.801 95.896C243.953 95.896 243.225 96.248 242.617 96.952C242.009 97.656 241.705 98.528 241.705 99.568ZM263.213 100.048V93.088H266.837V106H263.213V104.296C262.317 105.56 261.157 106.192 259.733 106.192C258.325 106.192 257.141 105.752 256.181 104.872C255.221 103.976 254.741 102.656 254.741 100.912V93.088H258.365V100.12C258.365 102.104 259.093 103.096 260.549 103.096C261.269 103.096 261.893 102.84 262.421 102.328C262.949 101.8 263.213 101.04 263.213 100.048ZM276.529 103C277.729 103 278.809 102.4 279.769 101.2L281.905 103.6C280.241 105.328 278.441 106.192 276.505 106.192C274.569 106.192 272.929 105.584 271.585 104.368C270.257 103.136 269.593 101.536 269.593 99.568C269.593 97.584 270.265 95.976 271.609 94.744C272.969 93.496 274.577 92.872 276.433 92.872C277.361 92.872 278.297 93.064 279.241 93.448C280.201 93.832 281.041 94.4 281.761 95.152L279.889 97.6C279.473 97.104 278.961 96.72 278.353 96.448C277.761 96.176 277.169 96.04 276.577 96.04C275.633 96.04 274.817 96.352 274.129 96.976C273.457 97.584 273.121 98.44 273.121 99.544C273.121 100.632 273.457 101.48 274.129 102.088C274.817 102.696 275.617 103 276.529 103ZM288.702 95.68V101.464C288.702 101.96 288.83 102.352 289.086 102.64C289.342 102.912 289.646 103.048 289.998 103.048C290.67 103.048 291.238 102.744 291.702 102.136L293.046 104.656C291.926 105.68 290.742 106.192 289.494 106.192C288.262 106.192 287.214 105.784 286.35 104.968C285.502 104.152 285.078 103.04 285.078 101.632V95.68H283.566V93.088H285.078V89.224H288.702V93.088H291.822V95.68H288.702ZM304.796 101.992C304.796 103.256 304.324 104.272 303.38 105.04C302.452 105.808 301.268 106.192 299.828 106.192C298.868 106.192 297.868 106.024 296.828 105.688C295.788 105.336 294.852 104.824 294.02 104.152L295.604 101.896C296.948 102.936 298.38 103.456 299.9 103.456C300.364 103.456 300.732 103.368 301.004 103.192C301.276 103 301.412 102.752 301.412 102.448C301.412 102.144 301.22 101.864 300.836 101.608C300.468 101.352 299.924 101.112 299.204 100.888C298.5 100.664 297.956 100.472 297.572 100.312C297.204 100.152 296.78 99.92 296.3 99.616C295.324 99.008 294.836 98.112 294.836 96.928C294.836 95.728 295.316 94.752 296.276 94C297.236 93.248 298.476 92.872 299.996 92.872C301.516 92.872 303.036 93.384 304.556 94.408L303.212 96.808C302.092 96.04 300.972 95.656 299.852 95.656C298.748 95.656 298.196 95.96 298.196 96.568C298.196 96.904 298.372 97.168 298.724 97.36C299.076 97.552 299.66 97.776 300.476 98.032C301.292 98.288 301.868 98.488 302.204 98.632C302.556 98.76 302.972 98.968 303.452 99.256C304.348 99.8 304.796 100.712 304.796 101.992Z" fill="#252B42"/>
<defs>
<filter id="filter0_d_688_4481" x="23" y="139" width="368" height="392" filterUnits="userSpaceOnUse" color-interpolation-filters="sRGB">
<feFlood flood-opacity="0" result="BackgroundImageFix"/>
<feColorMatrix in="SourceAlpha" type="matrix" values="0 0 0 0 0 0 0 0 0 0 0 0 0 0 0 0 0 0 127 0" result="hardAlpha"/>
<feOffset dy="2"/>
<feGaussianBlur stdDeviation="2"/>
<feColorMatrix type="matrix" values="0 0 0 0 0 0 0 0 0 0 0 0 0 0 0 0 0 0 0.1 0"/>
<feBlend mode="normal" in2="BackgroundImageFix" result="effect1_dropShadow_688_4481"/>
<feBlend mode="normal" in="SourceGraphic" in2="effect1_dropShadow_688_4481" result="shape"/>
</filter>
<filter id="filter1_d_688_4481" x="23" y="185" width="368" height="82" filterUnits="userSpaceOnUse" color-interpolation-filters="sRGB">
<feFlood flood-opacity="0" result="BackgroundImageFix"/>
<feColorMatrix in="SourceAlpha" type="matrix" values="0 0 0 0 0 0 0 0 0 0 0 0 0 0 0 0 0 0 127 0" result="hardAlpha"/>
<feOffset dy="2"/>
<feGaussianBlur stdDeviation="2"/>
<feColorMatrix type="matrix" values="0 0 0 0 0 0 0 0 0 0 0 0 0 0 0 0 0 0 0.1 0"/>
<feBlend mode="normal" in2="BackgroundImageFix" result="effect1_dropShadow_688_4481"/>
<feBlend mode="normal" in="SourceGraphic" in2="effect1_dropShadow_688_4481" result="shape"/>
</filter>
<filter id="filter2_d_688_4481" x="23" y="270" width="368" height="82" filterUnits="userSpaceOnUse" color-interpolation-filters="sRGB">
<feFlood flood-opacity="0" result="BackgroundImageFix"/>
<feColorMatrix in="SourceAlpha" type="matrix" values="0 0 0 0 0 0 0 0 0 0 0 0 0 0 0 0 0 0 127 0" result="hardAlpha"/>
<feOffset dy="2"/>
<feGaussianBlur stdDeviation="2"/>
<feColorMatrix type="matrix" values="0 0 0 0 0 0 0 0 0 0 0 0 0 0 0 0 0 0 0.1 0"/>
<feBlend mode="normal" in2="BackgroundImageFix" result="effect1_dropShadow_688_4481"/>
<feBlend mode="normal" in="SourceGraphic" in2="effect1_dropShadow_688_4481" result="shape"/>
</filter>
<filter id="filter3_d_688_4481" x="23" y="355" width="368" height="82" filterUnits="userSpaceOnUse" color-interpolation-filters="sRGB">
<feFlood flood-opacity="0" result="BackgroundImageFix"/>
<feColorMatrix in="SourceAlpha" type="matrix" values="0 0 0 0 0 0 0 0 0 0 0 0 0 0 0 0 0 0 127 0" result="hardAlpha"/>
<feOffset dy="2"/>
<feGaussianBlur stdDeviation="2"/>
<feColorMatrix type="matrix" values="0 0 0 0 0 0 0 0 0 0 0 0 0 0 0 0 0 0 0.1 0"/>
<feBlend mode="normal" in2="BackgroundImageFix" result="effect1_dropShadow_688_4481"/>
<feBlend mode="normal" in="SourceGraphic" in2="effect1_dropShadow_688_4481" result="shape"/>
</filter>
<filter id="filter4_d_688_4481" x="23" y="440" width="368" height="82" filterUnits="userSpaceOnUse" color-interpolation-filters="sRGB">
<feFlood flood-opacity="0" result="BackgroundImageFix"/>
<feColorMatrix in="SourceAlpha" type="matrix" values="0 0 0 0 0 0 0 0 0 0 0 0 0 0 0 0 0 0 127 0" result="hardAlpha"/>
<feOffset dy="2"/>
<feGaussianBlur stdDeviation="2"/>
<feColorMatrix type="matrix" values="0 0 0 0 0 0 0 0 0 0 0 0 0 0 0 0 0 0 0.1 0"/>
<feBlend mode="normal" in2="BackgroundImageFix" result="effect1_dropShadow_688_4481"/>
<feBlend mode="normal" in="SourceGraphic" in2="effect1_dropShadow_688_4481" result="shape"/>
</filter>
<clipPath id="clip0_688_4481">
<rect width="360" height="384" fill="white" transform="translate(27 141)"/>
</clipPath>
<clipPath id="clip1_688_4481">
<rect width="10" height="6" fill="white" transform="translate(360 226)"/>
</clipPath>
<clipPath id="clip2_688_4481">
<rect width="10" height="6" fill="white" transform="translate(370 222) rotate(180)"/>
</clipPath>
<clipPath id="clip3_688_4481">
<rect width="10" height="6" fill="white" transform="translate(360 311)"/>
</clipPath>
<clipPath id="clip4_688_4481">
<rect width="10" height="6" fill="white" transform="translate(370 307) rotate(180)"/>
</clipPath>
<clipPath id="clip5_688_4481">
<rect width="10" height="6" fill="white" transform="translate(360 396)"/>
</clipPath>
<clipPath id="clip6_688_4481">
<rect width="10" height="6" fill="white" transform="translate(370 392) rotate(180)"/>
</clipPath>
<clipPath id="clip7_688_4481">
<rect width="10" height="6" fill="white" transform="translate(360 481)"/>
</clipPath>
<clipPath id="clip8_688_4481">
<rect width="10" height="6" fill="white" transform="translate(370 477) rotate(180)"/>
</clipPath>
<clipPath id="clip9_688_4481">
<rect width="241" height="44" fill="white" transform="translate(30 22)"/>
</clipPath>
<clipPath id="clip10_688_4481">
<rect width="7" height="12" fill="white" transform="translate(88 38)"/>
</clipPath>
</defs>
</svg>
