<svg width="1440" height="309" viewBox="0 0 1440 309" fill="none" xmlns="http://www.w3.org/2000/svg">
<rect width="1440" height="309" fill="white"/>
<path d="M159.467 47.2V51.246H154.399V47.2H152.579V57H154.399V52.8H159.467V57H161.287V47.2H159.467ZM167.305 57.098C169.629 57.098 171.295 55.502 171.295 53.262C171.295 51.022 169.629 49.44 167.305 49.44C165.009 49.44 163.329 51.022 163.329 53.262C163.329 55.502 165.009 57.098 167.305 57.098ZM167.305 55.6C166.045 55.6 165.093 54.69 165.093 53.262C165.093 51.834 166.045 50.924 167.305 50.924C168.579 50.924 169.531 51.834 169.531 53.262C169.531 54.69 168.579 55.6 167.305 55.6ZM182.605 49.44C181.415 49.44 180.407 49.916 179.805 50.686C179.287 49.846 178.377 49.44 177.285 49.44C176.263 49.44 175.395 49.804 174.835 50.476V49.524H173.169V57H174.919V53.206C174.919 51.722 175.703 50.966 176.865 50.966C177.929 50.966 178.545 51.61 178.545 52.94V57H180.295V53.206C180.295 51.722 181.093 50.966 182.241 50.966C183.305 50.966 183.921 51.61 183.921 52.94V57H185.671V52.716C185.671 50.462 184.411 49.44 182.605 49.44ZM195.204 53.304C195.204 50.966 193.608 49.44 191.424 49.44C189.198 49.44 187.56 51.036 187.56 53.262C187.56 55.488 189.184 57.098 191.69 57.098C192.978 57.098 194.028 56.678 194.7 55.88L193.762 54.802C193.23 55.348 192.572 55.614 191.732 55.614C190.43 55.614 189.52 54.914 189.31 53.822H195.176C195.19 53.654 195.204 53.444 195.204 53.304ZM191.424 50.84C192.572 50.84 193.398 51.582 193.538 52.66H189.296C189.464 51.568 190.29 50.84 191.424 50.84Z" fill="#252B42"/>
<g clip-path="url(#clip0_688_4082)">
<path fill-rule="evenodd" clip-rule="evenodd" d="M211 57.196L216.359 52L211 46.804L211.828 46L218 52.003L211.828 58L211 57.196Z" fill="#BDBDBD"/>
</g>
<path d="M245.159 57L245.145 47.2H243.647L239.825 53.696L235.933 47.2H234.435V57H236.171V50.588L239.391 55.88H240.203L243.423 50.504L243.437 57H245.159ZM250.694 49.44C249.49 49.44 248.328 49.748 247.53 50.364L248.216 51.638C248.776 51.176 249.644 50.896 250.484 50.896C251.73 50.896 252.346 51.498 252.346 52.52V52.632H250.414C248.146 52.632 247.306 53.612 247.306 54.858C247.306 56.16 248.384 57.098 250.092 57.098C251.212 57.098 252.024 56.734 252.444 56.09V57H254.096V52.618C254.096 50.462 252.85 49.44 250.694 49.44ZM250.456 55.824C249.56 55.824 249.028 55.418 249.028 54.788C249.028 54.242 249.35 53.794 250.54 53.794H252.346V54.662C252.052 55.432 251.31 55.824 250.456 55.824ZM258.208 50.616V49.524H256.542V57H258.292V53.374C258.292 51.848 259.132 51.064 260.462 51.064C260.588 51.064 260.714 51.078 260.868 51.106V49.44C259.622 49.44 258.712 49.832 258.208 50.616ZM268.194 57H270.322L266.906 52.66L270.028 49.524H267.928L264.302 52.884V46.612H262.552V57H264.302V55.026L265.604 53.794L268.194 57ZM278.366 53.304C278.366 50.966 276.77 49.44 274.586 49.44C272.36 49.44 270.722 51.036 270.722 53.262C270.722 55.488 272.346 57.098 274.852 57.098C276.14 57.098 277.19 56.678 277.862 55.88L276.924 54.802C276.392 55.348 275.734 55.614 274.894 55.614C273.592 55.614 272.682 54.914 272.472 53.822H278.338C278.352 53.654 278.366 53.444 278.366 53.304ZM274.586 50.84C275.734 50.84 276.56 51.582 276.7 52.66H272.458C272.626 51.568 273.452 50.84 274.586 50.84ZM284.251 55.348C283.985 55.558 283.635 55.656 283.271 55.656C282.599 55.656 282.235 55.264 282.235 54.536V50.98H284.237V49.58H282.235V47.872H280.485V49.58H279.253V50.98H280.485V54.578C280.485 56.23 281.423 57.098 283.061 57.098C283.691 57.098 284.321 56.93 284.741 56.594L284.251 55.348ZM290.525 49.44C289.503 49.44 288.635 49.79 288.047 50.504V49.524H286.381V59.716H288.131V56.09C288.733 56.776 289.573 57.098 290.525 57.098C292.709 57.098 294.319 55.586 294.319 53.262C294.319 50.952 292.709 49.44 290.525 49.44ZM290.329 55.6C289.069 55.6 288.103 54.69 288.103 53.262C288.103 51.834 289.069 50.924 290.329 50.924C291.589 50.924 292.541 51.834 292.541 53.262C292.541 54.69 291.589 55.6 290.329 55.6ZM296.178 57H297.928V46.612H296.178V57ZM303.281 49.44C302.077 49.44 300.915 49.748 300.117 50.364L300.803 51.638C301.363 51.176 302.231 50.896 303.071 50.896C304.317 50.896 304.933 51.498 304.933 52.52V52.632H303.001C300.733 52.632 299.893 53.612 299.893 54.858C299.893 56.16 300.971 57.098 302.679 57.098C303.799 57.098 304.611 56.734 305.031 56.09V57H306.683V52.618C306.683 50.462 305.437 49.44 303.281 49.44ZM303.043 55.824C302.147 55.824 301.615 55.418 301.615 54.788C301.615 54.242 301.937 53.794 303.127 53.794H304.933V54.662C304.639 55.432 303.897 55.824 303.043 55.824ZM312.627 57.098C314.083 57.098 315.245 56.468 315.819 55.348L314.475 54.564C314.027 55.278 313.355 55.6 312.613 55.6C311.325 55.6 310.345 54.718 310.345 53.262C310.345 51.82 311.325 50.924 312.613 50.924C313.355 50.924 314.027 51.246 314.475 51.96L315.819 51.176C315.245 50.042 314.083 49.44 312.627 49.44C310.261 49.44 308.581 51.022 308.581 53.262C308.581 55.502 310.261 57.098 312.627 57.098ZM324.451 53.304C324.451 50.966 322.855 49.44 320.671 49.44C318.445 49.44 316.807 51.036 316.807 53.262C316.807 55.488 318.431 57.098 320.937 57.098C322.225 57.098 323.275 56.678 323.947 55.88L323.009 54.802C322.477 55.348 321.819 55.614 320.979 55.614C319.677 55.614 318.767 54.914 318.557 53.822H324.423C324.437 53.654 324.451 53.444 324.451 53.304ZM320.671 50.84C321.819 50.84 322.645 51.582 322.785 52.66H318.543C318.711 51.568 319.537 50.84 320.671 50.84ZM334.601 47.2H330.569V57H332.389V54.172H334.601C337.177 54.172 338.773 52.842 338.773 50.686C338.773 48.516 337.177 47.2 334.601 47.2ZM334.517 52.632H332.389V48.74H334.517C336.113 48.74 336.939 49.454 336.939 50.686C336.939 51.918 336.113 52.632 334.517 52.632ZM342.22 50.616V49.524H340.554V57H342.304V53.374C342.304 51.848 343.144 51.064 344.474 51.064C344.6 51.064 344.726 51.078 344.88 51.106V49.44C343.634 49.44 342.724 49.832 342.22 50.616ZM349.856 57.098C352.18 57.098 353.846 55.502 353.846 53.262C353.846 51.022 352.18 49.44 349.856 49.44C347.56 49.44 345.88 51.022 345.88 53.262C345.88 55.502 347.56 57.098 349.856 57.098ZM349.856 55.6C348.596 55.6 347.644 54.69 347.644 53.262C347.644 51.834 348.596 50.924 349.856 50.924C351.13 50.924 352.082 51.834 352.082 53.262C352.082 54.69 351.13 55.6 349.856 55.6ZM361.292 46.612V50.448C360.704 49.762 359.85 49.44 358.884 49.44C356.714 49.44 355.104 50.938 355.104 53.262C355.104 55.586 356.714 57.098 358.884 57.098C359.906 57.098 360.774 56.748 361.362 56.034V57H363.042V46.612H361.292ZM359.094 55.6C357.834 55.6 356.868 54.69 356.868 53.262C356.868 51.834 357.834 50.924 359.094 50.924C360.354 50.924 361.32 51.834 361.32 53.262C361.32 54.69 360.354 55.6 359.094 55.6ZM371.019 49.524V53.304C371.019 54.802 370.193 55.558 368.975 55.558C367.869 55.558 367.225 54.914 367.225 53.556V49.524H365.475V53.794C365.475 56.048 366.777 57.098 368.695 57.098C369.661 57.098 370.543 56.734 371.103 56.048V57H372.769V49.524H371.019ZM378.69 57.098C380.146 57.098 381.308 56.468 381.882 55.348L380.538 54.564C380.09 55.278 379.418 55.6 378.676 55.6C377.388 55.6 376.408 54.718 376.408 53.262C376.408 51.82 377.388 50.924 378.676 50.924C379.418 50.924 380.09 51.246 380.538 51.96L381.882 51.176C381.308 50.042 380.146 49.44 378.69 49.44C376.324 49.44 374.644 51.022 374.644 53.262C374.644 55.502 376.324 57.098 378.69 57.098ZM387.695 55.348C387.429 55.558 387.079 55.656 386.715 55.656C386.043 55.656 385.679 55.264 385.679 54.536V50.98H387.681V49.58H385.679V47.872H383.929V49.58H382.697V50.98H383.929V54.578C383.929 56.23 384.867 57.098 386.505 57.098C387.135 57.098 387.765 56.93 388.185 56.594L387.695 55.348ZM392.134 57.098C394.234 57.098 395.522 56.188 395.522 54.788C395.522 51.862 390.902 53.206 390.902 51.694C390.902 51.204 391.406 50.854 392.47 50.854C393.184 50.854 393.898 50.994 394.612 51.414L395.284 50.084C394.612 49.678 393.478 49.44 392.484 49.44C390.468 49.44 389.194 50.364 389.194 51.778C389.194 54.76 393.814 53.416 393.814 54.844C393.814 55.362 393.352 55.67 392.246 55.67C391.308 55.67 390.3 55.362 389.642 54.928L388.97 56.258C389.642 56.734 390.888 57.098 392.134 57.098Z" fill="#737373"/>
<path d="M168.247 118.44L163.711 127.608H161.479L156.967 118.44V129H153.223V112.224H158.287L162.607 121.44L166.951 112.224H171.991V129H168.247V118.44ZM186.83 129H183.446V127.44C182.518 128.608 181.366 129.192 179.99 129.192C178.63 129.192 177.486 128.8 176.558 128.016C175.63 127.216 175.166 126.16 175.166 124.848C175.166 123.52 175.646 122.528 176.606 121.872C177.566 121.216 178.878 120.888 180.542 120.888H183.23V120.816C183.23 119.44 182.502 118.752 181.046 118.752C180.422 118.752 179.758 118.88 179.054 119.136C178.366 119.376 177.782 119.68 177.302 120.048L175.694 117.72C177.39 116.488 179.326 115.872 181.502 115.872C183.07 115.872 184.35 116.264 185.342 117.048C186.334 117.832 186.83 119.072 186.83 120.768V129ZM183.206 124.08V123.456H180.95C179.51 123.456 178.79 123.904 178.79 124.8C178.79 125.264 178.958 125.624 179.294 125.88C179.646 126.12 180.142 126.24 180.782 126.24C181.422 126.24 181.982 126.048 182.462 125.664C182.958 125.264 183.206 124.736 183.206 124.08ZM197.004 119.256C195.932 119.256 195.132 119.64 194.604 120.408C194.076 121.16 193.812 122.16 193.812 123.408V129H190.212V116.088H193.812V117.792C194.276 117.264 194.852 116.816 195.54 116.448C196.244 116.08 196.956 115.888 197.676 115.872L197.7 119.256H197.004ZM203.779 129H200.179V111.192H203.779V120.336L207.787 116.064H212.323L207.403 121.296L212.515 129H208.243L204.955 124.056L203.779 125.28V129ZM225.736 127.128C224.28 128.504 222.568 129.192 220.6 129.192C218.648 129.192 217.032 128.592 215.752 127.392C214.472 126.176 213.832 124.552 213.832 122.52C213.832 120.488 214.48 118.872 215.776 117.672C217.088 116.472 218.632 115.872 220.408 115.872C222.184 115.872 223.688 116.408 224.92 117.48C226.168 118.552 226.792 120.024 226.792 121.896V123.816H217.384C217.496 124.52 217.864 125.096 218.488 125.544C219.112 125.992 219.816 126.216 220.6 126.216C221.864 126.216 222.904 125.792 223.72 124.944L225.736 127.128ZM223.144 121.248C223.064 120.48 222.776 119.888 222.28 119.472C221.784 119.056 221.176 118.848 220.456 118.848C219.752 118.848 219.104 119.064 218.512 119.496C217.92 119.928 217.576 120.512 217.48 121.248H223.144ZM233.644 118.68V124.464C233.644 124.96 233.772 125.352 234.028 125.64C234.284 125.912 234.588 126.048 234.94 126.048C235.612 126.048 236.18 125.744 236.644 125.136L237.988 127.656C236.868 128.68 235.684 129.192 234.436 129.192C233.204 129.192 232.156 128.784 231.292 127.968C230.444 127.152 230.02 126.04 230.02 124.632V118.68H228.508V116.088H230.02V112.224H233.644V116.088H236.764V118.68H233.644ZM247.53 115.872C249.034 115.872 250.37 116.504 251.538 117.768C252.722 119.016 253.314 120.592 253.314 122.496C253.314 124.4 252.722 125.992 251.538 127.272C250.37 128.552 248.994 129.192 247.41 129.192C245.842 129.192 244.578 128.56 243.618 127.296V133.656H240.018V116.088H243.618V117.528C244.722 116.424 246.026 115.872 247.53 115.872ZM243.57 122.568C243.57 123.608 243.858 124.464 244.434 125.136C245.026 125.792 245.738 126.12 246.57 126.12C247.402 126.12 248.13 125.792 248.754 125.136C249.378 124.464 249.69 123.608 249.69 122.568C249.69 121.528 249.386 120.656 248.778 119.952C248.17 119.248 247.442 118.896 246.594 118.896C245.746 118.896 245.026 119.248 244.434 119.952C243.858 120.64 243.57 121.512 243.57 122.568ZM259.702 129H256.102V111.192H259.702V129ZM274.178 129H270.794V127.44C269.866 128.608 268.714 129.192 267.338 129.192C265.978 129.192 264.834 128.8 263.906 128.016C262.978 127.216 262.514 126.16 262.514 124.848C262.514 123.52 262.994 122.528 263.954 121.872C264.914 121.216 266.226 120.888 267.89 120.888H270.578V120.816C270.578 119.44 269.85 118.752 268.394 118.752C267.77 118.752 267.106 118.88 266.402 119.136C265.714 119.376 265.13 119.68 264.65 120.048L263.042 117.72C264.738 116.488 266.674 115.872 268.85 115.872C270.418 115.872 271.698 116.264 272.69 117.048C273.682 117.832 274.178 119.072 274.178 120.768V129ZM270.554 124.08V123.456H268.298C266.858 123.456 266.138 123.904 266.138 124.8C266.138 125.264 266.306 125.624 266.642 125.88C266.994 126.12 267.49 126.24 268.13 126.24C268.77 126.24 269.33 126.048 269.81 125.664C270.306 125.264 270.554 124.736 270.554 124.08ZM283.752 126C284.952 126 286.032 125.4 286.992 124.2L289.128 126.6C287.464 128.328 285.664 129.192 283.728 129.192C281.792 129.192 280.152 128.584 278.808 127.368C277.48 126.136 276.816 124.536 276.816 122.568C276.816 120.584 277.488 118.976 278.832 117.744C280.192 116.496 281.8 115.872 283.656 115.872C284.584 115.872 285.52 116.064 286.464 116.448C287.424 116.832 288.264 117.4 288.984 118.152L287.112 120.6C286.696 120.104 286.184 119.72 285.576 119.448C284.984 119.176 284.392 119.04 283.8 119.04C282.856 119.04 282.04 119.352 281.352 119.976C280.68 120.584 280.344 121.44 280.344 122.544C280.344 123.632 280.68 124.48 281.352 125.088C282.04 125.696 282.84 126 283.752 126ZM302.813 127.128C301.357 128.504 299.645 129.192 297.677 129.192C295.725 129.192 294.109 128.592 292.829 127.392C291.549 126.176 290.909 124.552 290.909 122.52C290.909 120.488 291.557 118.872 292.853 117.672C294.165 116.472 295.709 115.872 297.485 115.872C299.261 115.872 300.765 116.408 301.997 117.48C303.245 118.552 303.869 120.024 303.869 121.896V123.816H294.461C294.573 124.52 294.941 125.096 295.565 125.544C296.189 125.992 296.893 126.216 297.677 126.216C298.941 126.216 299.981 125.792 300.797 124.944L302.813 127.128ZM300.221 121.248C300.141 120.48 299.853 119.888 299.357 119.472C298.861 119.056 298.253 118.848 297.533 118.848C296.829 118.848 296.181 119.064 295.589 119.496C294.997 119.928 294.653 120.512 294.557 121.248H300.221ZM319.281 112.224C321.857 112.224 323.729 112.728 324.897 113.736C326.081 114.728 326.673 116.264 326.673 118.344C326.673 120.408 326.065 121.92 324.849 122.88C323.649 123.84 321.809 124.32 319.329 124.32H317.097V129H313.353V112.224H319.281ZM319.617 121.08C320.865 121.08 321.713 120.832 322.161 120.336C322.609 119.824 322.833 119.088 322.833 118.128C322.833 117.152 322.537 116.464 321.945 116.064C321.369 115.648 320.465 115.44 319.233 115.44H317.097V121.08H319.617ZM336.127 119.256C335.055 119.256 334.255 119.64 333.727 120.408C333.199 121.16 332.935 122.16 332.935 123.408V129H329.335V116.088H332.935V117.792C333.399 117.264 333.975 116.816 334.663 116.448C335.367 116.08 336.079 115.888 336.799 115.872L336.823 119.256H336.127ZM341.995 122.544C341.995 123.6 342.291 124.464 342.883 125.136C343.491 125.792 344.259 126.12 345.187 126.12C346.131 126.12 346.899 125.792 347.491 125.136C348.099 124.464 348.403 123.6 348.403 122.544C348.403 121.488 348.099 120.624 347.491 119.952C346.899 119.28 346.131 118.944 345.187 118.944C344.259 118.944 343.491 119.28 342.883 119.952C342.291 120.624 341.995 121.488 341.995 122.544ZM352.027 122.544C352.027 124.416 351.379 125.992 350.083 127.272C348.787 128.552 347.155 129.192 345.187 129.192C343.235 129.192 341.611 128.552 340.315 127.272C339.019 125.992 338.371 124.416 338.371 122.544C338.371 120.672 339.019 119.096 340.315 117.816C341.611 116.52 343.235 115.872 345.187 115.872C347.155 115.872 348.787 116.52 350.083 117.816C351.379 119.096 352.027 120.672 352.027 122.544ZM359.961 129.192C358.441 129.192 357.081 128.544 355.881 127.248C354.681 125.952 354.081 124.344 354.081 122.424C354.081 120.504 354.665 118.936 355.833 117.72C357.001 116.488 358.369 115.872 359.937 115.872C361.505 115.872 362.785 116.424 363.777 117.528V111.192H367.377V129H363.777V127.296C362.769 128.56 361.497 129.192 359.961 129.192ZM357.705 122.568C357.705 123.608 358.017 124.464 358.641 125.136C359.265 125.792 359.993 126.12 360.825 126.12C361.657 126.12 362.361 125.792 362.937 125.136C363.529 124.464 363.825 123.608 363.825 122.568C363.825 121.512 363.529 120.64 362.937 119.952C362.361 119.248 361.649 118.896 360.801 118.896C359.953 118.896 359.225 119.248 358.617 119.952C358.009 120.656 357.705 121.528 357.705 122.568ZM379.213 123.048V116.088H382.837V129H379.213V127.296C378.317 128.56 377.157 129.192 375.733 129.192C374.325 129.192 373.141 128.752 372.181 127.872C371.221 126.976 370.741 125.656 370.741 123.912V116.088H374.365V123.12C374.365 125.104 375.093 126.096 376.549 126.096C377.269 126.096 377.893 125.84 378.421 125.328C378.949 124.8 379.213 124.04 379.213 123.048ZM392.529 126C393.729 126 394.809 125.4 395.769 124.2L397.905 126.6C396.241 128.328 394.441 129.192 392.505 129.192C390.569 129.192 388.929 128.584 387.585 127.368C386.257 126.136 385.593 124.536 385.593 122.568C385.593 120.584 386.265 118.976 387.609 117.744C388.969 116.496 390.577 115.872 392.433 115.872C393.361 115.872 394.297 116.064 395.241 116.448C396.201 116.832 397.041 117.4 397.761 118.152L395.889 120.6C395.473 120.104 394.961 119.72 394.353 119.448C393.761 119.176 393.169 119.04 392.577 119.04C391.633 119.04 390.817 119.352 390.129 119.976C389.457 120.584 389.121 121.44 389.121 122.544C389.121 123.632 389.457 124.48 390.129 125.088C390.817 125.696 391.617 126 392.529 126ZM404.702 118.68V124.464C404.702 124.96 404.83 125.352 405.086 125.64C405.342 125.912 405.646 126.048 405.998 126.048C406.67 126.048 407.238 125.744 407.702 125.136L409.046 127.656C407.926 128.68 406.742 129.192 405.494 129.192C404.262 129.192 403.214 128.784 402.35 127.968C401.502 127.152 401.078 126.04 401.078 124.632V118.68H399.566V116.088H401.078V112.224H404.702V116.088H407.822V118.68H404.702ZM420.796 124.992C420.796 126.256 420.324 127.272 419.38 128.04C418.452 128.808 417.268 129.192 415.828 129.192C414.868 129.192 413.868 129.024 412.828 128.688C411.788 128.336 410.852 127.824 410.02 127.152L411.604 124.896C412.948 125.936 414.38 126.456 415.9 126.456C416.364 126.456 416.732 126.368 417.004 126.192C417.276 126 417.412 125.752 417.412 125.448C417.412 125.144 417.22 124.864 416.836 124.608C416.468 124.352 415.924 124.112 415.204 123.888C414.5 123.664 413.956 123.472 413.572 123.312C413.204 123.152 412.78 122.92 412.3 122.616C411.324 122.008 410.836 121.112 410.836 119.928C410.836 118.728 411.316 117.752 412.276 117C413.236 116.248 414.476 115.872 415.996 115.872C417.516 115.872 419.036 116.384 420.556 117.408L419.212 119.808C418.092 119.04 416.972 118.656 415.852 118.656C414.748 118.656 414.196 118.96 414.196 119.568C414.196 119.904 414.372 120.168 414.724 120.36C415.076 120.552 415.66 120.776 416.476 121.032C417.292 121.288 417.868 121.488 418.204 121.632C418.556 121.76 418.972 121.968 419.452 122.256C420.348 122.8 420.796 123.712 420.796 124.992Z" fill="#252B42"/>
<path d="M161.048 165H162.728L157.64 153.8H156.056L150.984 165H152.632L153.864 162.2H159.816L161.048 165ZM154.424 160.92L156.84 155.432L159.256 160.92H154.424ZM174.983 156.44C173.543 156.44 172.359 157.048 171.719 158.008C171.159 156.952 170.071 156.44 168.775 156.44C167.495 156.44 166.455 156.92 165.847 157.784V156.52H164.375V165H165.911V160.632C165.911 158.792 166.919 157.816 168.455 157.816C169.847 157.816 170.647 158.632 170.647 160.296V165H172.183V160.632C172.183 158.792 173.191 157.816 174.727 157.816C176.119 157.816 176.919 158.632 176.919 160.296V165H178.455V160.12C178.455 157.624 177.047 156.44 174.983 156.44ZM189.192 160.808C189.192 158.2 187.448 156.44 185 156.44C182.552 156.44 180.744 158.248 180.744 160.76C180.744 163.288 182.568 165.096 185.304 165.096C186.712 165.096 187.88 164.616 188.648 163.72L187.8 162.728C187.176 163.416 186.344 163.752 185.352 163.752C183.672 163.752 182.472 162.76 182.28 161.272H189.16C189.176 161.128 189.192 160.936 189.192 160.808ZM185 157.736C186.488 157.736 187.56 158.744 187.72 160.168H182.28C182.44 158.728 183.528 157.736 185 157.736ZM195.813 163.4C195.493 163.656 195.061 163.8 194.613 163.8C193.765 163.8 193.285 163.288 193.285 162.376V157.784H195.717V156.52H193.285V154.664H191.749V156.52H190.309V157.784H191.749V162.44C191.749 164.152 192.725 165.096 194.437 165.096C195.125 165.096 195.829 164.904 196.293 164.504L195.813 163.4ZM213.455 156.44C212.015 156.44 210.831 157.048 210.191 158.008C209.631 156.952 208.543 156.44 207.247 156.44C205.967 156.44 204.927 156.92 204.319 157.784V156.52H202.847V165H204.383V160.632C204.383 158.792 205.391 157.816 206.927 157.816C208.319 157.816 209.119 158.632 209.119 160.296V165H210.655V160.632C210.655 158.792 211.663 157.816 213.199 157.816C214.591 157.816 215.391 158.632 215.391 160.296V165H216.927V160.12C216.927 157.624 215.519 156.44 213.455 156.44ZM220.721 154.888C221.329 154.888 221.761 154.44 221.761 153.864C221.761 153.32 221.313 152.888 220.721 152.888C220.129 152.888 219.681 153.336 219.681 153.896C219.681 154.456 220.129 154.888 220.721 154.888ZM219.953 165H221.489V156.52H219.953V165ZM229.15 156.44C227.806 156.44 226.718 156.936 226.094 157.8V156.52H224.622V165H226.158V160.632C226.158 158.792 227.214 157.816 228.846 157.816C230.302 157.816 231.134 158.632 231.134 160.296V165H232.67V160.12C232.67 157.624 231.214 156.44 229.15 156.44ZM236.48 154.888C237.088 154.888 237.52 154.44 237.52 153.864C237.52 153.32 237.072 152.888 236.48 152.888C235.888 152.888 235.44 153.336 235.44 153.896C235.44 154.456 235.888 154.888 236.48 154.888ZM235.712 165H237.248V156.52H235.712V165ZM250.989 156.44C249.549 156.44 248.365 157.048 247.725 158.008C247.165 156.952 246.077 156.44 244.781 156.44C243.501 156.44 242.461 156.92 241.853 157.784V156.52H240.381V165H241.917V160.632C241.917 158.792 242.925 157.816 244.461 157.816C245.853 157.816 246.653 158.632 246.653 160.296V165H248.189V160.632C248.189 158.792 249.197 157.816 250.733 157.816C252.125 157.816 252.925 158.632 252.925 160.296V165H254.461V160.12C254.461 157.624 253.053 156.44 250.989 156.44ZM272.592 156.44C271.152 156.44 269.968 157.048 269.328 158.008C268.768 156.952 267.68 156.44 266.384 156.44C265.104 156.44 264.064 156.92 263.456 157.784V156.52H261.984V165H263.52V160.632C263.52 158.792 264.528 157.816 266.064 157.816C267.456 157.816 268.256 158.632 268.256 160.296V165H269.792V160.632C269.792 158.792 270.8 157.816 272.336 157.816C273.728 157.816 274.528 158.632 274.528 160.296V165H276.064V160.12C276.064 157.624 274.656 156.44 272.592 156.44ZM282.769 165.096C285.313 165.096 287.169 163.288 287.169 160.76C287.169 158.232 285.313 156.44 282.769 156.44C280.225 156.44 278.353 158.232 278.353 160.76C278.353 163.288 280.225 165.096 282.769 165.096ZM282.769 163.752C281.137 163.752 279.905 162.568 279.905 160.76C279.905 158.952 281.137 157.784 282.769 157.784C284.401 157.784 285.617 158.952 285.617 160.76C285.617 162.568 284.401 163.752 282.769 163.752ZM289.494 165H291.03V153.128H289.494V165ZM294.162 165H295.698V153.128H294.162V165ZM299.599 154.888C300.207 154.888 300.639 154.44 300.639 153.864C300.639 153.32 300.191 152.888 299.599 152.888C299.007 152.888 298.559 153.336 298.559 153.896C298.559 154.456 299.007 154.888 299.599 154.888ZM298.831 165H300.367V156.52H298.831V165ZM307.788 163.4C307.468 163.656 307.036 163.8 306.588 163.8C305.74 163.8 305.26 163.288 305.26 162.376V157.784H307.692V156.52H305.26V154.664H303.724V156.52H302.284V157.784H303.724V162.44C303.724 164.152 304.7 165.096 306.412 165.096C307.1 165.096 307.804 164.904 308.268 164.504L307.788 163.4ZM319.35 156.44C318.006 156.44 316.918 156.936 316.294 157.8V156.52H314.822V165H316.358V160.632C316.358 158.792 317.414 157.816 319.046 157.816C320.502 157.816 321.334 158.632 321.334 160.296V165H322.87V160.12C322.87 157.624 321.414 156.44 319.35 156.44ZM329.591 165.096C332.135 165.096 333.991 163.288 333.991 160.76C333.991 158.232 332.135 156.44 329.591 156.44C327.047 156.44 325.175 158.232 325.175 160.76C325.175 163.288 327.047 165.096 329.591 165.096ZM329.591 163.752C327.959 163.752 326.727 162.568 326.727 160.76C326.727 158.952 327.959 157.784 329.591 157.784C331.223 157.784 332.439 158.952 332.439 160.76C332.439 162.568 331.223 163.752 329.591 163.752ZM340.843 156.44C339.499 156.44 338.411 156.936 337.787 157.8V156.52H336.315V165H337.851V160.632C337.851 158.792 338.907 157.816 340.539 157.816C341.995 157.816 342.827 158.632 342.827 160.296V165H344.363V160.12C344.363 157.624 342.907 156.44 340.843 156.44ZM358.367 153.128V157.8C357.663 156.888 356.607 156.44 355.407 156.44C352.927 156.44 351.119 158.168 351.119 160.76C351.119 163.352 352.927 165.096 355.407 165.096C356.655 165.096 357.743 164.616 358.431 163.656V165H359.903V153.128H358.367ZM355.535 163.752C353.903 163.752 352.671 162.568 352.671 160.76C352.671 158.952 353.903 157.784 355.535 157.784C357.151 157.784 358.383 158.952 358.383 160.76C358.383 162.568 357.151 163.752 355.535 163.752ZM370.673 160.808C370.673 158.2 368.929 156.44 366.481 156.44C364.033 156.44 362.225 158.248 362.225 160.76C362.225 163.288 364.049 165.096 366.785 165.096C368.193 165.096 369.361 164.616 370.129 163.72L369.281 162.728C368.657 163.416 367.825 163.752 366.833 163.752C365.153 163.752 363.953 162.76 363.761 161.272H370.641C370.657 161.128 370.673 160.936 370.673 160.808ZM366.481 157.736C367.969 157.736 369.041 158.744 369.201 160.168H363.761C363.921 158.728 365.009 157.736 366.481 157.736ZM375.438 165.096C377.694 165.096 379.102 164.12 379.102 162.584C379.102 159.288 373.726 160.92 373.726 158.92C373.726 158.248 374.382 157.752 375.726 157.752C376.558 157.752 377.406 157.928 378.174 158.424L378.83 157.208C378.094 156.728 376.846 156.44 375.742 156.44C373.566 156.44 372.206 157.464 372.206 158.984C372.206 162.36 377.566 160.712 377.566 162.616C377.566 163.336 376.974 163.768 375.55 163.768C374.446 163.768 373.294 163.4 372.574 162.888L371.934 164.104C372.638 164.664 374.03 165.096 375.438 165.096ZM388.886 160.808C388.886 158.2 387.142 156.44 384.694 156.44C382.246 156.44 380.438 158.248 380.438 160.76C380.438 163.288 382.262 165.096 384.998 165.096C386.406 165.096 387.574 164.616 388.342 163.72L387.494 162.728C386.87 163.416 386.038 163.752 385.046 163.752C383.366 163.752 382.166 162.76 381.974 161.272H388.854C388.87 161.128 388.886 160.936 388.886 160.808ZM384.694 157.736C386.182 157.736 387.254 158.744 387.414 160.168H381.974C382.134 158.728 383.222 157.736 384.694 157.736ZM392.69 157.944V156.52H391.218V165H392.754V160.776C392.754 158.92 393.778 157.912 395.426 157.912C395.538 157.912 395.65 157.912 395.778 157.928V156.44C394.29 156.44 393.234 156.952 392.69 157.944ZM404.349 156.52V160.904C404.349 162.728 403.325 163.72 401.725 163.72C400.269 163.72 399.437 162.888 399.437 161.224V156.52H397.901V161.4C397.901 163.896 399.357 165.096 401.549 165.096C402.749 165.096 403.805 164.6 404.429 163.72V165H405.885V156.52H404.349ZM413.537 156.44C412.193 156.44 411.105 156.936 410.481 157.8V156.52H409.009V165H410.545V160.632C410.545 158.792 411.601 157.816 413.233 157.816C414.689 157.816 415.521 158.632 415.521 160.296V165H417.057V160.12C417.057 157.624 415.601 156.44 413.537 156.44ZM424.388 163.4C424.068 163.656 423.636 163.8 423.188 163.8C422.34 163.8 421.86 163.288 421.86 162.376V157.784H424.292V156.52H421.86V154.664H420.324V156.52H418.884V157.784H420.324V162.44C420.324 164.152 421.3 165.096 423.012 165.096C423.7 165.096 424.404 164.904 424.868 164.504L424.388 163.4ZM437.79 156.52V160.904C437.79 162.728 436.766 163.72 435.166 163.72C433.71 163.72 432.878 162.888 432.878 161.224V156.52H431.342V161.4C431.342 163.896 432.798 165.096 434.99 165.096C436.19 165.096 437.246 164.6 437.87 163.72V165H439.326V156.52H437.79ZM442.45 165H443.986V153.128H442.45V165ZM447.119 165H448.655V153.128H447.119V165ZM454.875 156.44C453.515 156.44 452.251 156.824 451.371 157.528L452.011 158.68C452.667 158.12 453.691 157.768 454.699 157.768C456.219 157.768 456.971 158.52 456.971 159.816V160.12H454.539C452.011 160.12 451.131 161.24 451.131 162.6C451.131 164.072 452.347 165.096 454.267 165.096C455.595 165.096 456.539 164.648 457.051 163.88V165H458.507V159.88C458.507 157.56 457.195 156.44 454.875 156.44ZM454.523 163.912C453.355 163.912 452.651 163.384 452.651 162.536C452.651 161.816 453.083 161.224 454.603 161.224H456.971V162.408C456.587 163.384 455.675 163.912 454.523 163.912ZM472.158 156.44C470.718 156.44 469.534 157.048 468.894 158.008C468.334 156.952 467.246 156.44 465.95 156.44C464.67 156.44 463.63 156.92 463.022 157.784V156.52H461.55V165H463.086V160.632C463.086 158.792 464.094 157.816 465.63 157.816C467.022 157.816 467.822 158.632 467.822 160.296V165H469.358V160.632C469.358 158.792 470.366 157.816 471.902 157.816C473.294 157.816 474.094 158.632 474.094 160.296V165H475.63V160.12C475.63 157.624 474.222 156.44 472.158 156.44ZM482.399 165.096C483.919 165.096 485.183 164.456 485.855 163.272L484.687 162.536C484.143 163.368 483.311 163.752 482.383 163.752C480.719 163.752 479.471 162.6 479.471 160.76C479.471 158.952 480.719 157.784 482.383 157.784C483.311 157.784 484.143 158.168 484.687 159L485.855 158.248C485.183 157.064 483.919 156.44 482.399 156.44C479.791 156.44 477.919 158.232 477.919 160.76C477.919 163.288 479.791 165.096 482.399 165.096ZM491.55 165.096C494.094 165.096 495.95 163.288 495.95 160.76C495.95 158.232 494.094 156.44 491.55 156.44C489.006 156.44 487.134 158.232 487.134 160.76C487.134 163.288 489.006 165.096 491.55 165.096ZM491.55 163.752C489.918 163.752 488.686 162.568 488.686 160.76C488.686 158.952 489.918 157.784 491.55 157.784C493.182 157.784 494.398 158.952 494.398 160.76C494.398 162.568 493.182 163.752 491.55 163.752ZM510.436 160.808C510.436 158.2 508.692 156.44 506.244 156.44C503.796 156.44 501.988 158.248 501.988 160.76C501.988 163.288 503.812 165.096 506.548 165.096C507.956 165.096 509.124 164.616 509.892 163.72L509.044 162.728C508.42 163.416 507.588 163.752 506.596 163.752C504.916 163.752 503.716 162.76 503.524 161.272H510.404C510.42 161.128 510.436 160.936 510.436 160.808ZM506.244 157.736C507.732 157.736 508.804 158.744 508.964 160.168H503.524C503.684 158.728 504.772 157.736 506.244 157.736ZM515.201 165.096C517.457 165.096 518.865 164.12 518.865 162.584C518.865 159.288 513.489 160.92 513.489 158.92C513.489 158.248 514.145 157.752 515.489 157.752C516.321 157.752 517.169 157.928 517.937 158.424L518.593 157.208C517.857 156.728 516.609 156.44 515.505 156.44C513.329 156.44 511.969 157.464 511.969 158.984C511.969 162.36 517.329 160.712 517.329 162.616C517.329 163.336 516.737 163.768 515.312 163.768C514.209 163.768 513.057 163.4 512.337 162.888L511.697 164.104C512.401 164.664 513.793 165.096 515.201 165.096ZM525.272 163.4C524.952 163.656 524.52 163.8 524.072 163.8C523.224 163.8 522.744 163.288 522.744 162.376V157.784H525.176V156.52H522.744V154.664H521.208V156.52H519.768V157.784H521.208V162.44C521.208 164.152 522.184 165.096 523.896 165.096C524.584 165.096 525.288 164.904 525.752 164.504L525.272 163.4ZM534.738 165.096C536.994 165.096 538.402 164.12 538.402 162.584C538.402 159.288 533.026 160.92 533.026 158.92C533.026 158.248 533.682 157.752 535.026 157.752C535.858 157.752 536.706 157.928 537.474 158.424L538.13 157.208C537.394 156.728 536.146 156.44 535.042 156.44C532.866 156.44 531.506 157.464 531.506 158.984C531.506 162.36 536.866 160.712 536.866 162.616C536.866 163.336 536.274 163.768 534.85 163.768C533.746 163.768 532.594 163.4 531.874 162.888L531.234 164.104C531.938 164.664 533.33 165.096 534.738 165.096ZM541.29 154.888C541.898 154.888 542.33 154.44 542.33 153.864C542.33 153.32 541.882 152.888 541.29 152.888C540.698 152.888 540.25 153.336 540.25 153.896C540.25 154.456 540.698 154.888 541.29 154.888ZM540.522 165H542.058V156.52H540.522V165ZM549.478 163.4C549.158 163.656 548.726 163.8 548.278 163.8C547.43 163.8 546.95 163.288 546.95 162.376V157.784H549.382V156.52H546.95V154.664H545.414V156.52H543.974V157.784H545.414V162.44C545.414 164.152 546.39 165.096 548.102 165.096C548.79 165.096 549.494 164.904 549.958 164.504L549.478 163.4ZM559.6 156.44C558.24 156.44 556.976 156.824 556.096 157.528L556.736 158.68C557.392 158.12 558.416 157.768 559.424 157.768C560.944 157.768 561.696 158.52 561.696 159.816V160.12H559.264C556.736 160.12 555.856 161.24 555.856 162.6C555.856 164.072 557.072 165.096 558.992 165.096C560.32 165.096 561.264 164.648 561.776 163.88V165H563.232V159.88C563.232 157.56 561.92 156.44 559.6 156.44ZM559.248 163.912C558.08 163.912 557.376 163.384 557.376 162.536C557.376 161.816 557.808 161.224 559.328 161.224H561.696V162.408C561.312 163.384 560.4 163.912 559.248 163.912ZM566.275 165H567.811V153.128H566.275V165ZM571.711 154.888C572.319 154.888 572.751 154.44 572.751 153.864C572.751 153.32 572.303 152.888 571.711 152.888C571.119 152.888 570.671 153.336 570.671 153.896C570.671 154.456 571.119 154.888 571.711 154.888ZM570.943 165H572.479V156.52H570.943V165ZM582.14 156.52V157.864C581.452 156.92 580.364 156.44 579.116 156.44C576.636 156.44 574.828 158.168 574.828 160.76C574.828 163.368 576.636 165.096 579.116 165.096C580.316 165.096 581.372 164.632 582.076 163.72V168.104H583.612V156.52H582.14ZM579.244 163.752C577.612 163.752 576.38 162.568 576.38 160.76C576.38 158.968 577.612 157.784 579.244 157.784C580.86 157.784 582.092 158.968 582.092 160.76C582.092 162.568 580.86 163.752 579.244 163.752ZM593.087 156.52V160.904C593.087 162.728 592.063 163.72 590.463 163.72C589.007 163.72 588.175 162.888 588.175 161.224V156.52H586.639V161.4C586.639 163.896 588.095 165.096 590.287 165.096C591.487 165.096 592.543 164.6 593.167 163.72V165H594.623V156.52H593.087ZM600.835 156.44C599.475 156.44 598.211 156.824 597.331 157.528L597.971 158.68C598.627 158.12 599.651 157.768 600.659 157.768C602.179 157.768 602.931 158.52 602.931 159.816V160.12H600.499C597.971 160.12 597.091 161.24 597.091 162.6C597.091 164.072 598.307 165.096 600.227 165.096C601.555 165.096 602.499 164.648 603.011 163.88V165H604.467V159.88C604.467 157.56 603.155 156.44 600.835 156.44ZM600.483 163.912C599.315 163.912 598.611 163.384 598.611 162.536C598.611 161.816 599.043 161.224 600.563 161.224H602.931V162.408C602.547 163.384 601.635 163.912 600.483 163.912ZM618.47 153.128V157.8C617.766 156.888 616.71 156.44 615.51 156.44C613.03 156.44 611.222 158.168 611.222 160.76C611.222 163.352 613.03 165.096 615.51 165.096C616.758 165.096 617.846 164.616 618.534 163.656V165H620.006V153.128H618.47ZM615.638 163.752C614.006 163.752 612.774 162.568 612.774 160.76C612.774 158.952 614.006 157.784 615.638 157.784C617.254 157.784 618.486 158.952 618.486 160.76C618.486 162.568 617.254 163.752 615.638 163.752ZM626.744 165.096C629.288 165.096 631.144 163.288 631.144 160.76C631.144 158.232 629.288 156.44 626.744 156.44C624.2 156.44 622.328 158.232 622.328 160.76C622.328 163.288 624.2 165.096 626.744 165.096ZM626.744 163.752C625.112 163.752 623.88 162.568 623.88 160.76C623.88 158.952 625.112 157.784 626.744 157.784C628.376 157.784 629.592 158.952 629.592 160.76C629.592 162.568 628.376 163.752 626.744 163.752ZM633.469 165H635.005V153.128H633.469V165ZM641.769 165.096C644.313 165.096 646.169 163.288 646.169 160.76C646.169 158.232 644.313 156.44 641.769 156.44C639.225 156.44 637.353 158.232 637.353 160.76C637.353 163.288 639.225 165.096 641.769 165.096ZM641.769 163.752C640.137 163.752 638.905 162.568 638.905 160.76C638.905 158.952 640.137 157.784 641.769 157.784C643.401 157.784 644.617 158.952 644.617 160.76C644.617 162.568 643.401 163.752 641.769 163.752ZM649.966 157.944V156.52H648.494V165H650.03V160.776C650.03 158.92 651.054 157.912 652.702 157.912C652.814 157.912 652.926 157.912 653.054 157.928V156.44C651.566 156.44 650.51 156.952 649.966 157.944ZM666.217 153.128V157.8C665.513 156.888 664.457 156.44 663.257 156.44C660.777 156.44 658.969 158.168 658.969 160.76C658.969 163.352 660.777 165.096 663.257 165.096C664.505 165.096 665.593 164.616 666.281 163.656V165H667.753V153.128H666.217ZM663.385 163.752C661.753 163.752 660.521 162.568 660.521 160.76C660.521 158.952 661.753 157.784 663.385 157.784C665.001 157.784 666.233 158.952 666.233 160.76C666.233 162.568 665.001 163.752 663.385 163.752ZM674.491 165.096C677.035 165.096 678.891 163.288 678.891 160.76C678.891 158.232 677.035 156.44 674.491 156.44C671.947 156.44 670.075 158.232 670.075 160.76C670.075 163.288 671.947 165.096 674.491 165.096ZM674.491 163.752C672.859 163.752 671.627 162.568 671.627 160.76C671.627 158.952 672.859 157.784 674.491 157.784C676.123 157.784 677.339 158.952 677.339 160.76C677.339 162.568 676.123 163.752 674.491 163.752ZM688.8 156.44C687.44 156.44 686.176 156.824 685.296 157.528L685.936 158.68C686.592 158.12 687.616 157.768 688.624 157.768C690.144 157.768 690.896 158.52 690.896 159.816V160.12H688.464C685.936 160.12 685.056 161.24 685.056 162.6C685.056 164.072 686.272 165.096 688.192 165.096C689.52 165.096 690.464 164.648 690.976 163.88V165H692.432V159.88C692.432 157.56 691.12 156.44 688.8 156.44ZM688.448 163.912C687.28 163.912 686.576 163.384 686.576 162.536C686.576 161.816 687.008 161.224 688.528 161.224H690.896V162.408C690.512 163.384 689.6 163.912 688.448 163.912ZM706.083 156.44C704.643 156.44 703.459 157.048 702.819 158.008C702.259 156.952 701.171 156.44 699.875 156.44C698.595 156.44 697.555 156.92 696.947 157.784V156.52H695.475V165H697.011V160.632C697.011 158.792 698.019 157.816 699.555 157.816C700.947 157.816 701.747 158.632 701.747 160.296V165H703.283V160.632C703.283 158.792 704.291 157.816 705.827 157.816C707.219 157.816 708.019 158.632 708.019 160.296V165H709.555V160.12C709.555 157.624 708.147 156.44 706.083 156.44ZM720.292 160.808C720.292 158.2 718.548 156.44 716.1 156.44C713.652 156.44 711.844 158.248 711.844 160.76C711.844 163.288 713.668 165.096 716.404 165.096C717.812 165.096 718.98 164.616 719.748 163.72L718.9 162.728C718.276 163.416 717.444 163.752 716.452 163.752C714.772 163.752 713.572 162.76 713.38 161.272H720.26C720.276 161.128 720.292 160.936 720.292 160.808ZM716.1 157.736C717.588 157.736 718.66 158.744 718.82 160.168H713.38C713.54 158.728 714.628 157.736 716.1 157.736ZM726.913 163.4C726.593 163.656 726.161 163.8 725.713 163.8C724.865 163.8 724.385 163.288 724.385 162.376V157.784H726.817V156.52H724.385V154.664H722.849V156.52H721.409V157.784H722.849V162.44C722.849 164.152 723.825 165.096 725.537 165.096C726.225 165.096 726.929 164.904 727.393 164.504L726.913 163.4ZM736.379 165.096C738.635 165.096 740.043 164.12 740.043 162.584C740.043 159.288 734.667 160.92 734.667 158.92C734.667 158.248 735.323 157.752 736.667 157.752C737.499 157.752 738.347 157.928 739.115 158.424L739.771 157.208C739.035 156.728 737.787 156.44 736.683 156.44C734.507 156.44 733.147 157.464 733.147 158.984C733.147 162.36 738.507 160.712 738.507 162.616C738.507 163.336 737.915 163.768 736.491 163.768C735.387 163.768 734.235 163.4 733.515 162.888L732.875 164.104C733.579 164.664 734.971 165.096 736.379 165.096ZM742.93 154.888C743.538 154.888 743.97 154.44 743.97 153.864C743.97 153.32 743.522 152.888 742.93 152.888C742.338 152.888 741.89 153.336 741.89 153.896C741.89 154.456 742.338 154.888 742.93 154.888ZM742.162 165H743.698V156.52H742.162V165ZM751.359 156.44C750.015 156.44 748.927 156.936 748.303 157.8V156.52H746.831V165H748.367V160.632C748.367 158.792 749.423 157.816 751.055 157.816C752.511 157.816 753.343 158.632 753.343 160.296V165H754.879V160.12C754.879 157.624 753.423 156.44 751.359 156.44ZM762.21 163.4C761.89 163.656 761.458 163.8 761.01 163.8C760.162 163.8 759.682 163.288 759.682 162.376V157.784H762.114V156.52H759.682V154.664H758.146V156.52H756.706V157.784H758.146V162.44C758.146 164.152 759.122 165.096 760.834 165.096C761.522 165.096 762.226 164.904 762.69 164.504L762.21 163.4ZM765.271 165.096C765.847 165.096 766.327 164.632 766.327 163.992C766.327 163.352 765.847 162.904 765.271 162.904C764.679 162.904 764.183 163.352 764.183 163.992C764.183 164.632 764.679 165.096 765.271 165.096Z" fill="#737373"/>
<path d="M156.354 236.14C159.042 236.14 160.316 234.796 160.316 233.228C160.316 229.63 154.506 230.988 154.506 228.902C154.506 228.16 155.122 227.572 156.634 227.572C157.488 227.572 158.454 227.824 159.336 228.342L159.91 226.928C159.056 226.368 157.824 226.06 156.648 226.06C153.96 226.06 152.7 227.404 152.7 228.986C152.7 232.626 158.524 231.24 158.524 233.354C158.524 234.082 157.88 234.628 156.354 234.628C155.15 234.628 153.904 234.18 153.12 233.55L152.49 234.964C153.302 235.664 154.828 236.14 156.354 236.14ZM165.513 236.098C167.837 236.098 169.503 234.502 169.503 232.262C169.503 230.022 167.837 228.44 165.513 228.44C163.217 228.44 161.537 230.022 161.537 232.262C161.537 234.502 163.217 236.098 165.513 236.098ZM165.513 234.6C164.253 234.6 163.301 233.69 163.301 232.262C163.301 230.834 164.253 229.924 165.513 229.924C166.787 229.924 167.739 230.834 167.739 232.262C167.739 233.69 166.787 234.6 165.513 234.6ZM173.042 229.616V228.524H171.376V236H173.126V232.374C173.126 230.848 173.966 230.064 175.296 230.064C175.422 230.064 175.548 230.078 175.702 230.106V228.44C174.456 228.44 173.546 228.832 173.042 229.616ZM181.664 234.348C181.398 234.558 181.048 234.656 180.684 234.656C180.012 234.656 179.648 234.264 179.648 233.536V229.98H181.65V228.58H179.648V226.872H177.898V228.58H176.666V229.98H177.898V233.578C177.898 235.23 178.836 236.098 180.474 236.098C181.104 236.098 181.734 235.93 182.154 235.594L181.664 234.348ZM192.007 228.44C191.055 228.44 190.215 228.762 189.613 229.434V225.612H187.863V236H189.529V235.034C190.117 235.748 190.985 236.098 192.007 236.098C194.191 236.098 195.801 234.586 195.801 232.262C195.801 229.938 194.191 228.44 192.007 228.44ZM191.811 234.6C190.551 234.6 189.585 233.69 189.585 232.262C189.585 230.834 190.551 229.924 191.811 229.924C193.071 229.924 194.023 230.834 194.023 232.262C194.023 233.69 193.071 234.6 191.811 234.6ZM202.775 228.524L200.409 234.054L198.057 228.524H196.237L199.499 236.028L199.373 236.322C199.037 237.064 198.673 237.358 198.057 237.358C197.581 237.358 197.105 237.162 196.769 236.84L196.069 238.128C196.545 238.562 197.329 238.814 198.071 238.814C199.317 238.814 200.269 238.296 200.955 236.602L204.455 228.524H202.775ZM210.378 230.764C211.008 230.764 211.526 230.274 211.526 229.602C211.526 228.902 211.008 228.44 210.378 228.44C209.748 228.44 209.23 228.902 209.23 229.602C209.23 230.274 209.748 230.764 210.378 230.764ZM210.378 236.098C211.008 236.098 211.526 235.608 211.526 234.936C211.526 234.236 211.008 233.774 210.378 233.774C209.748 233.774 209.23 234.236 209.23 234.936C209.23 235.608 209.748 236.098 210.378 236.098Z" fill="#737373"/>
<rect x="228.5" y="202.5" width="154" height="57" fill="#F9F9F9"/>
<rect x="228.5" y="202.5" width="154" height="57" stroke="#E6E6E6"/>
<path d="M256.348 225.2H252.316V235H254.136V232.172H256.348C258.924 232.172 260.52 230.842 260.52 228.686C260.52 226.516 258.924 225.2 256.348 225.2ZM256.264 230.632H254.136V226.74H256.264C257.86 226.74 258.686 227.454 258.686 228.686C258.686 229.918 257.86 230.632 256.264 230.632ZM265.702 235.098C268.026 235.098 269.692 233.502 269.692 231.262C269.692 229.022 268.026 227.44 265.702 227.44C263.406 227.44 261.726 229.022 261.726 231.262C261.726 233.502 263.406 235.098 265.702 235.098ZM265.702 233.6C264.442 233.6 263.49 232.69 263.49 231.262C263.49 229.834 264.442 228.924 265.702 228.924C266.976 228.924 267.928 229.834 267.928 231.262C267.928 232.69 266.976 233.6 265.702 233.6ZM275.71 227.44C274.688 227.44 273.82 227.79 273.232 228.504V227.524H271.566V237.716H273.316V234.09C273.918 234.776 274.758 235.098 275.71 235.098C277.894 235.098 279.504 233.586 279.504 231.262C279.504 228.952 277.894 227.44 275.71 227.44ZM275.514 233.6C274.254 233.6 273.288 232.69 273.288 231.262C273.288 229.834 274.254 228.924 275.514 228.924C276.774 228.924 277.726 229.834 277.726 231.262C277.726 232.69 276.774 233.6 275.514 233.6ZM286.851 227.524V231.304C286.851 232.802 286.025 233.558 284.807 233.558C283.701 233.558 283.057 232.914 283.057 231.556V227.524H281.307V231.794C281.307 234.048 282.609 235.098 284.527 235.098C285.493 235.098 286.375 234.734 286.935 234.048V235H288.601V227.524H286.851ZM291.093 235H292.843V224.612H291.093V235ZM298.195 227.44C296.991 227.44 295.829 227.748 295.031 228.364L295.717 229.638C296.277 229.176 297.145 228.896 297.985 228.896C299.231 228.896 299.847 229.498 299.847 230.52V230.632H297.915C295.647 230.632 294.807 231.612 294.807 232.858C294.807 234.16 295.885 235.098 297.593 235.098C298.713 235.098 299.525 234.734 299.945 234.09V235H301.597V230.618C301.597 228.462 300.351 227.44 298.195 227.44ZM297.957 233.824C297.061 233.824 296.529 233.418 296.529 232.788C296.529 232.242 296.851 231.794 298.041 231.794H299.847V232.662C299.553 233.432 298.811 233.824 297.957 233.824ZM305.709 228.616V227.524H304.043V235H305.793V231.374C305.793 229.848 306.633 229.064 307.963 229.064C308.089 229.064 308.215 229.078 308.369 229.106V227.44C307.123 227.44 306.213 227.832 305.709 228.616ZM310.936 226.292C311.594 226.292 312.056 225.816 312.056 225.2C312.056 224.626 311.58 224.192 310.936 224.192C310.292 224.192 309.816 224.654 309.816 225.242C309.816 225.83 310.292 226.292 310.936 226.292ZM310.054 235H311.804V227.524H310.054V235ZM318.305 233.348C318.039 233.558 317.689 233.656 317.325 233.656C316.653 233.656 316.289 233.264 316.289 232.536V228.98H318.291V227.58H316.289V225.872H314.539V227.58H313.307V228.98H314.539V232.578C314.539 234.23 315.477 235.098 317.115 235.098C317.745 235.098 318.375 234.93 318.795 234.594L318.305 233.348ZM325.618 227.524L323.252 233.054L320.9 227.524H319.08L322.342 235.028L322.216 235.322C321.88 236.064 321.516 236.358 320.9 236.358C320.424 236.358 319.948 236.162 319.612 235.84L318.912 237.128C319.388 237.562 320.172 237.814 320.914 237.814C322.16 237.814 323.112 237.296 323.798 235.602L327.298 227.524H325.618Z" fill="#252B42"/>
<path d="M348.429 228L352 231.571L355.571 228L357 228.714L352 233.714L347 228.714L348.429 228Z" fill="#252B42"/>
<rect x="398.5" y="202.5" width="162" height="55" fill="#F9F9F9"/>
<rect x="398.5" y="202.5" width="162" height="55" stroke="#E6E6E6"/>
<path d="M425.354 235.14C428.042 235.14 429.316 233.796 429.316 232.228C429.316 228.63 423.506 229.988 423.506 227.902C423.506 227.16 424.122 226.572 425.634 226.572C426.488 226.572 427.454 226.824 428.336 227.342L428.91 225.928C428.056 225.368 426.824 225.06 425.648 225.06C422.96 225.06 421.7 226.404 421.7 227.986C421.7 231.626 427.524 230.24 427.524 232.354C427.524 233.082 426.88 233.628 425.354 233.628C424.15 233.628 422.904 233.18 422.12 232.55L421.49 233.964C422.302 234.664 423.828 235.14 425.354 235.14ZM438.181 231.304C438.181 228.966 436.585 227.44 434.401 227.44C432.175 227.44 430.537 229.036 430.537 231.262C430.537 233.488 432.161 235.098 434.667 235.098C435.955 235.098 437.005 234.678 437.677 233.88L436.739 232.802C436.207 233.348 435.549 233.614 434.709 233.614C433.407 233.614 432.497 232.914 432.287 231.822H438.153C438.167 231.654 438.181 231.444 438.181 231.304ZM434.401 228.84C435.549 228.84 436.375 229.582 436.515 230.66H432.273C432.441 229.568 433.267 228.84 434.401 228.84ZM440.062 235H441.812V224.612H440.062V235ZM444.309 235H446.059V224.612H444.309V235ZM455.583 231.304C455.583 228.966 453.987 227.44 451.803 227.44C449.577 227.44 447.939 229.036 447.939 231.262C447.939 233.488 449.563 235.098 452.069 235.098C453.357 235.098 454.407 234.678 455.079 233.88L454.141 232.802C453.609 233.348 452.951 233.614 452.111 233.614C450.809 233.614 449.899 232.914 449.689 231.822H455.555C455.569 231.654 455.583 231.444 455.583 231.304ZM451.803 228.84C452.951 228.84 453.777 229.582 453.917 230.66H449.675C449.843 229.568 450.669 228.84 451.803 228.84ZM459.13 228.616V227.524H457.464V235H459.214V231.374C459.214 229.848 460.054 229.064 461.384 229.064C461.51 229.064 461.636 229.078 461.79 229.106V227.44C460.544 227.44 459.634 227.832 459.13 228.616ZM467.78 235H472.064C475.242 235 477.412 233.04 477.412 230.1C477.412 227.16 475.242 225.2 472.064 225.2H467.78V235ZM469.6 233.46V226.74H471.98C474.164 226.74 475.578 228.07 475.578 230.1C475.578 232.13 474.164 233.46 471.98 233.46H469.6ZM486.407 231.304C486.407 228.966 484.811 227.44 482.627 227.44C480.401 227.44 478.763 229.036 478.763 231.262C478.763 233.488 480.387 235.098 482.893 235.098C484.181 235.098 485.231 234.678 485.903 233.88L484.965 232.802C484.433 233.348 483.775 233.614 482.935 233.614C481.633 233.614 480.723 232.914 480.513 231.822H486.379C486.393 231.654 486.407 231.444 486.407 231.304ZM482.627 228.84C483.775 228.84 484.601 229.582 484.741 230.66H480.499C480.667 229.568 481.493 228.84 482.627 228.84ZM492.292 233.348C492.026 233.558 491.676 233.656 491.312 233.656C490.64 233.656 490.276 233.264 490.276 232.536V228.98H492.278V227.58H490.276V225.872H488.526V227.58H487.294V228.98H488.526V232.578C488.526 234.23 489.464 235.098 491.102 235.098C491.732 235.098 492.362 234.93 492.782 234.594L492.292 233.348ZM497.277 227.44C496.073 227.44 494.911 227.748 494.113 228.364L494.799 229.638C495.359 229.176 496.227 228.896 497.067 228.896C498.313 228.896 498.929 229.498 498.929 230.52V230.632H496.997C494.729 230.632 493.889 231.612 493.889 232.858C493.889 234.16 494.967 235.098 496.675 235.098C497.795 235.098 498.607 234.734 499.027 234.09V235H500.679V230.618C500.679 228.462 499.433 227.44 497.277 227.44ZM497.039 233.824C496.143 233.824 495.611 233.418 495.611 232.788C495.611 232.242 495.933 231.794 497.123 231.794H498.929V232.662C498.635 233.432 497.893 233.824 497.039 233.824ZM504.007 226.292C504.665 226.292 505.127 225.816 505.127 225.2C505.127 224.626 504.651 224.192 504.007 224.192C503.363 224.192 502.887 224.654 502.887 225.242C502.887 225.83 503.363 226.292 504.007 226.292ZM503.125 235H504.875V227.524H503.125V235ZM507.372 235H509.122V224.612H507.372V235ZM513.929 235.098C516.029 235.098 517.317 234.188 517.317 232.788C517.317 229.862 512.697 231.206 512.697 229.694C512.697 229.204 513.201 228.854 514.265 228.854C514.979 228.854 515.693 228.994 516.407 229.414L517.079 228.084C516.407 227.678 515.273 227.44 514.279 227.44C512.263 227.44 510.989 228.364 510.989 229.778C510.989 232.76 515.609 231.416 515.609 232.844C515.609 233.362 515.147 233.67 514.041 233.67C513.103 233.67 512.095 233.362 511.437 232.928L510.765 234.258C511.437 234.734 512.683 235.098 513.929 235.098Z" fill="#252B42"/>
<path d="M529.429 227.143L533 230.714L536.571 227.143L538 227.857L533 232.857L528 227.857L529.429 227.143Z" fill="#252B42"/>
<rect x="576.5" y="202.5" width="162" height="55" fill="#F9F9F9"/>
<rect x="576.5" y="202.5" width="162" height="55" stroke="#E6E6E6"/>
<path d="M607.26 229.904C608.016 229.498 608.52 228.756 608.52 227.748C608.52 226.194 607.26 225.2 604.908 225.2H600.316V235H605.188C607.708 235 609.024 234.02 609.024 232.34C609.024 231.066 608.31 230.24 607.26 229.904ZM604.712 226.628C605.972 226.628 606.686 227.076 606.686 227.986C606.686 228.882 605.972 229.33 604.712 229.33H602.136V226.628H604.712ZM605.076 233.572H602.136V230.744H605.076C606.448 230.744 607.19 231.178 607.19 232.158C607.19 233.138 606.448 233.572 605.076 233.572ZM616.486 227.524V231.304C616.486 232.802 615.66 233.558 614.442 233.558C613.336 233.558 612.692 232.914 612.692 231.556V227.524H610.942V231.794C610.942 234.048 612.244 235.098 614.162 235.098C615.128 235.098 616.01 234.734 616.57 234.048V235H618.236V227.524H616.486ZM626.3 224.612V228.448C625.712 227.762 624.858 227.44 623.892 227.44C621.722 227.44 620.112 228.938 620.112 231.262C620.112 233.586 621.722 235.098 623.892 235.098C624.914 235.098 625.782 234.748 626.37 234.034V235H628.05V224.612H626.3ZM624.102 233.6C622.842 233.6 621.876 232.69 621.876 231.262C621.876 229.834 622.842 228.924 624.102 228.924C625.362 228.924 626.328 229.834 626.328 231.262C626.328 232.69 625.362 233.6 624.102 233.6ZM636.293 227.524V228.518C635.677 227.776 634.753 227.44 633.703 227.44C631.561 227.44 629.923 228.868 629.923 231.038C629.923 233.208 631.561 234.664 633.703 234.664C634.711 234.664 635.593 234.342 636.209 233.67V234.062C636.209 235.574 635.481 236.33 633.829 236.33C632.793 236.33 631.729 235.98 631.071 235.434L630.287 236.75C631.141 237.45 632.527 237.814 633.927 237.814C636.545 237.814 637.959 236.582 637.959 233.866V227.524H636.293ZM633.969 233.18C632.639 233.18 631.687 232.312 631.687 231.038C631.687 229.778 632.639 228.924 633.969 228.924C635.285 228.924 636.237 229.778 636.237 231.038C636.237 232.312 635.285 233.18 633.969 233.18ZM647.488 231.304C647.488 228.966 645.892 227.44 643.708 227.44C641.482 227.44 639.844 229.036 639.844 231.262C639.844 233.488 641.468 235.098 643.974 235.098C645.262 235.098 646.312 234.678 646.984 233.88L646.046 232.802C645.514 233.348 644.856 233.614 644.016 233.614C642.714 233.614 641.804 232.914 641.594 231.822H647.46C647.474 231.654 647.488 231.444 647.488 231.304ZM643.708 228.84C644.856 228.84 645.682 229.582 645.822 230.66H641.58C641.748 229.568 642.574 228.84 643.708 228.84ZM653.373 233.348C653.107 233.558 652.757 233.656 652.393 233.656C651.721 233.656 651.357 233.264 651.357 232.536V228.98H653.359V227.58H651.357V225.872H649.607V227.58H648.375V228.98H649.607V232.578C649.607 234.23 650.545 235.098 652.183 235.098C652.813 235.098 653.443 234.93 653.863 234.594L653.373 233.348Z" fill="#252B42"/>
<path d="M707.429 227.143L711 230.714L714.571 227.143L716 227.857L711 232.857L706 227.857L707.429 227.143Z" fill="#252B42"/>
<rect x="754.5" y="202.5" width="162" height="55" fill="#F9F9F9"/>
<rect x="754.5" y="202.5" width="162" height="55" stroke="#E6E6E6"/>
<path d="M778.316 235H782.6C785.778 235 787.948 233.04 787.948 230.1C787.948 227.16 785.778 225.2 782.6 225.2H778.316V235ZM780.136 233.46V226.74H782.516C784.7 226.74 786.114 228.07 786.114 230.1C786.114 232.13 784.7 233.46 782.516 233.46H780.136ZM796.942 231.304C796.942 228.966 795.346 227.44 793.162 227.44C790.936 227.44 789.298 229.036 789.298 231.262C789.298 233.488 790.922 235.098 793.428 235.098C794.716 235.098 795.766 234.678 796.438 233.88L795.5 232.802C794.968 233.348 794.31 233.614 793.47 233.614C792.168 233.614 791.258 232.914 791.048 231.822H796.914C796.928 231.654 796.942 231.444 796.942 231.304ZM793.162 228.84C794.31 228.84 795.136 229.582 795.276 230.66H791.034C791.202 229.568 792.028 228.84 793.162 228.84ZM798.823 235H800.573V224.612H798.823V235ZM803.952 226.292C804.61 226.292 805.072 225.816 805.072 225.2C805.072 224.626 804.596 224.192 803.952 224.192C803.308 224.192 802.832 224.654 802.832 225.242C802.832 225.83 803.308 226.292 803.952 226.292ZM803.07 235H804.82V227.524H803.07V235ZM812.637 227.524L810.243 233.068L807.919 227.524H806.099L809.305 235H811.111L814.317 227.524H812.637ZM822.434 231.304C822.434 228.966 820.838 227.44 818.654 227.44C816.428 227.44 814.79 229.036 814.79 231.262C814.79 233.488 816.414 235.098 818.92 235.098C820.208 235.098 821.258 234.678 821.93 233.88L820.992 232.802C820.46 233.348 819.802 233.614 818.962 233.614C817.66 233.614 816.75 232.914 816.54 231.822H822.406C822.42 231.654 822.434 231.444 822.434 231.304ZM818.654 228.84C819.802 228.84 820.628 229.582 820.768 230.66H816.526C816.694 229.568 817.52 228.84 818.654 228.84ZM825.981 228.616V227.524H824.315V235H826.065V231.374C826.065 229.848 826.905 229.064 828.235 229.064C828.361 229.064 828.487 229.078 828.641 229.106V227.44C827.395 227.44 826.485 227.832 825.981 228.616ZM835.919 227.524L833.553 233.054L831.201 227.524H829.381L832.643 235.028L832.517 235.322C832.181 236.064 831.817 236.358 831.201 236.358C830.725 236.358 830.249 236.162 829.913 235.84L829.213 237.128C829.689 237.562 830.473 237.814 831.215 237.814C832.461 237.814 833.413 237.296 834.099 235.602L837.599 227.524H835.919ZM845.118 235H846.938V226.74H850.186V225.2H841.87V226.74H845.118V235ZM852.288 226.292C852.946 226.292 853.408 225.816 853.408 225.2C853.408 224.626 852.932 224.192 852.288 224.192C851.644 224.192 851.168 224.654 851.168 225.242C851.168 225.83 851.644 226.292 852.288 226.292ZM851.406 235H853.156V227.524H851.406V235ZM865.089 227.44C863.899 227.44 862.891 227.916 862.289 228.686C861.771 227.846 860.861 227.44 859.769 227.44C858.747 227.44 857.879 227.804 857.319 228.476V227.524H855.653V235H857.403V231.206C857.403 229.722 858.187 228.966 859.349 228.966C860.413 228.966 861.029 229.61 861.029 230.94V235H862.779V231.206C862.779 229.722 863.577 228.966 864.725 228.966C865.789 228.966 866.405 229.61 866.405 230.94V235H868.155V230.716C868.155 228.462 866.895 227.44 865.089 227.44ZM877.687 231.304C877.687 228.966 876.091 227.44 873.907 227.44C871.681 227.44 870.043 229.036 870.043 231.262C870.043 233.488 871.667 235.098 874.173 235.098C875.461 235.098 876.511 234.678 877.183 233.88L876.245 232.802C875.713 233.348 875.055 233.614 874.215 233.614C872.913 233.614 872.003 232.914 871.793 231.822H877.659C877.673 231.654 877.687 231.444 877.687 231.304ZM873.907 228.84C875.055 228.84 875.881 229.582 876.021 230.66H871.779C871.947 229.568 872.773 228.84 873.907 228.84Z" fill="#252B42"/>
<path d="M885.429 227.143L889 230.714L892.571 227.143L894 227.857L889 232.857L884 227.857L885.429 227.143Z" fill="#252B42"/>
<rect x="1139" y="204" width="54" height="54" rx="5" fill="#E9E9E9"/>
<rect x="1155" y="220" width="9" height="9" rx="2" stroke="#252B42" stroke-width="2"/>
<rect x="1168" y="220" width="9" height="9" rx="2" stroke="#252B42" stroke-width="2"/>
<rect x="1155" y="233" width="9" height="9" rx="2" stroke="#252B42" stroke-width="2"/>
<rect x="1168" y="233" width="9" height="9" rx="2" stroke="#252B42" stroke-width="2"/>
<rect x="1213" y="207.5" width="51" height="47" rx="5" fill="white"/>
<g clip-path="url(#clip1_688_4082)">
<path d="M1231.92 235.438L1231.92 235.437C1231.9 235.413 1231.87 235.394 1231.84 235.381L1232.04 234.922L1231.84 235.381C1231.81 235.369 1231.78 235.363 1231.75 235.363C1231.72 235.363 1231.69 235.369 1231.66 235.381L1231.46 234.922L1231.66 235.381C1231.63 235.394 1231.6 235.413 1231.58 235.437L1231.58 235.438L1229.86 237.21L1229.5 237.581L1229.14 237.209L1228.92 236.983C1228.92 236.983 1228.92 236.983 1228.92 236.983C1228.87 236.933 1228.81 236.908 1228.75 236.908C1228.69 236.908 1228.63 236.933 1228.58 236.983C1228.53 237.033 1228.5 237.105 1228.5 237.182C1228.5 237.259 1228.53 237.331 1228.58 237.381L1229.33 238.153L1229.33 238.154C1229.35 238.179 1229.38 238.197 1229.41 238.21C1229.41 238.21 1229.41 238.21 1229.41 238.21L1229.21 238.67C1229.3 238.709 1229.4 238.729 1229.5 238.729C1229.6 238.729 1229.7 238.709 1229.79 238.67L1231.92 235.438ZM1231.92 235.438C1231.95 235.463 1231.97 235.493 1231.98 235.527L1232.44 235.341L1231.92 235.438ZM1231.92 223.075L1231.92 223.076C1231.95 223.1 1231.97 223.13 1231.98 223.165L1231.98 223.165C1231.99 223.199 1232 223.236 1232 223.274C1232 223.312 1231.99 223.349 1231.98 223.383L1231.98 223.383C1231.97 223.418 1231.95 223.448 1231.92 223.472L1231.92 223.473L1229.67 225.791L1229.67 225.791C1229.65 225.816 1229.62 225.835 1229.59 225.847C1229.56 225.86 1229.53 225.866 1229.5 225.866C1229.47 225.866 1229.44 225.86 1229.41 225.847L1229.21 226.307L1229.41 225.847C1229.38 225.835 1229.35 225.816 1229.33 225.791L1229.33 225.791L1228.58 225.018L1228.23 225.355L1228.58 225.018C1228.55 224.993 1228.53 224.963 1228.52 224.929C1228.51 224.895 1228.5 224.857 1228.5 224.819C1228.5 224.781 1228.51 224.744 1228.52 224.71C1228.53 224.676 1228.55 224.645 1228.58 224.621L1228.22 224.272L1228.58 224.621C1228.6 224.596 1228.63 224.577 1228.66 224.564C1228.69 224.552 1228.72 224.546 1228.75 224.546C1228.78 224.546 1228.81 224.552 1228.84 224.564C1228.87 224.577 1228.9 224.596 1228.92 224.62C1228.92 224.62 1228.92 224.62 1228.92 224.621L1229.14 224.847L1229.5 225.219L1229.86 224.848L1231.58 223.075L1231.58 223.075C1231.6 223.05 1231.63 223.031 1231.66 223.019C1231.69 223.006 1231.72 223 1231.75 223C1231.78 223 1231.81 223.006 1231.84 223.019C1231.87 223.031 1231.9 223.05 1231.92 223.075ZM1231.92 229.256L1231.92 229.257C1231.95 229.282 1231.97 229.312 1231.98 229.346L1232.44 229.159L1231.98 229.346C1231.99 229.38 1232 229.417 1232 229.455C1232 229.493 1231.99 229.53 1231.98 229.565L1232.44 229.751L1231.98 229.565C1231.97 229.599 1231.95 229.629 1231.92 229.654L1231.92 229.654L1229.67 231.972L1229.67 231.973C1229.65 231.997 1229.62 232.016 1229.59 232.029C1229.56 232.041 1229.53 232.047 1229.5 232.047C1229.47 232.047 1229.44 232.041 1229.41 232.029C1229.38 232.016 1229.35 231.997 1229.33 231.973L1229.33 231.972L1228.58 231.199C1228.53 231.149 1228.5 231.078 1228.5 231.001C1228.5 230.923 1228.53 230.852 1228.58 230.802L1228.22 230.454L1228.58 230.802C1228.63 230.752 1228.69 230.727 1228.75 230.727C1228.81 230.727 1228.87 230.752 1228.92 230.801C1228.92 230.802 1228.92 230.802 1228.92 230.802L1229.14 231.028L1229.5 231.4L1229.86 231.029L1231.58 229.256L1231.58 229.256C1231.6 229.231 1231.63 229.213 1231.66 229.2L1231.46 228.74L1231.66 229.2C1231.69 229.188 1231.72 229.181 1231.75 229.181C1231.78 229.181 1231.81 229.188 1231.84 229.2L1232.04 228.74L1231.84 229.2C1231.87 229.213 1231.9 229.231 1231.92 229.256ZM1234.5 237.182C1234.5 237.105 1234.53 237.034 1234.58 236.984C1234.63 236.934 1234.69 236.909 1234.75 236.909H1248.25C1248.31 236.909 1248.37 236.934 1248.42 236.984C1248.47 237.034 1248.5 237.105 1248.5 237.182C1248.5 237.259 1248.47 237.33 1248.42 237.38C1248.37 237.43 1248.31 237.455 1248.25 237.455H1234.75C1234.69 237.455 1234.63 237.43 1234.58 237.38C1234.53 237.33 1234.5 237.259 1234.5 237.182ZM1234.5 231.001C1234.5 230.924 1234.53 230.853 1234.58 230.803C1234.63 230.753 1234.69 230.728 1234.75 230.728H1248.25C1248.31 230.728 1248.37 230.753 1248.42 230.803C1248.47 230.853 1248.5 230.924 1248.5 231.001C1248.5 231.078 1248.47 231.149 1248.42 231.199C1248.37 231.248 1248.31 231.273 1248.25 231.273H1234.75C1234.69 231.273 1234.63 231.248 1234.58 231.199C1234.53 231.149 1234.5 231.078 1234.5 231.001ZM1234.5 224.819C1234.5 224.742 1234.53 224.671 1234.58 224.621C1234.63 224.572 1234.69 224.547 1234.75 224.547H1248.25C1248.31 224.547 1248.37 224.572 1248.42 224.621C1248.47 224.671 1248.5 224.742 1248.5 224.819C1248.5 224.896 1248.47 224.967 1248.42 225.017C1248.37 225.067 1248.31 225.092 1248.25 225.092H1234.75C1234.69 225.092 1234.63 225.067 1234.58 225.017C1234.53 224.967 1234.5 224.896 1234.5 224.819Z" fill="#252B42" stroke="#252B42"/>
</g>
<defs>
<clipPath id="clip0_688_4082">
<rect width="7" height="12" fill="white" transform="translate(211 46)"/>
</clipPath>
<clipPath id="clip1_688_4082">
<rect width="21" height="17" fill="white" transform="translate(1228 222.5)"/>
</clipPath>
</defs>
</svg>
