<svg width="328" height="82" viewBox="0 0 328 82" fill="none" xmlns="http://www.w3.org/2000/svg">
<g filter="url(#filter0_d_688_2243)">
<g clip-path="url(#clip0_688_2243)">
<rect y="2" width="324" height="74" rx="6.72761" fill="white"/>
<rect x="0.5" y="2.5" width="86" height="73" fill="#F3F3F3"/>
<rect x="0.5" y="2.5" width="86" height="73" stroke="#BDBDBD"/>
<path d="M34.2154 33.816V36.008H29.0314V38.424H33.9594V40.616H29.0314V45H26.5354V33.816H34.2154ZM38.5922 45H36.1922V36.392H38.5922V45ZM36.3842 35.304C36.1176 35.0267 35.9842 34.6907 35.9842 34.296C35.9842 33.9013 36.1176 33.5707 36.3842 33.304C36.6616 33.0267 36.9976 32.888 37.3922 32.888C37.7869 32.888 38.1176 33.0267 38.3842 33.304C38.6616 33.5707 38.8002 33.9013 38.8002 34.296C38.8002 34.6907 38.6616 35.0267 38.3842 35.304C38.1176 35.5707 37.7869 35.704 37.3922 35.704C36.9976 35.704 36.6616 35.5707 36.3842 35.304ZM45.4921 38.504C44.7775 38.504 44.2441 38.76 43.8921 39.272C43.5401 39.7733 43.3641 40.44 43.3641 41.272V45H40.9641V36.392H43.3641V37.528C43.6735 37.176 44.0575 36.8773 44.5161 36.632C44.9855 36.3867 45.4601 36.2587 45.9401 36.248L45.9561 38.504H45.4921ZM54.0597 42.328C54.0597 43.1707 53.7451 43.848 53.1157 44.36C52.4971 44.872 51.7077 45.128 50.7477 45.128C50.1077 45.128 49.4411 45.016 48.7477 44.792C48.0544 44.5573 47.4304 44.216 46.8757 43.768L47.9317 42.264C48.8277 42.9573 49.7824 43.304 50.7957 43.304C51.1051 43.304 51.3504 43.2453 51.5317 43.128C51.7131 43 51.8037 42.8347 51.8037 42.632C51.8037 42.4293 51.6757 42.2427 51.4197 42.072C51.1744 41.9013 50.8117 41.7413 50.3317 41.592C49.8624 41.4427 49.4997 41.3147 49.2437 41.208C48.9984 41.1013 48.7157 40.9467 48.3957 40.744C47.7451 40.3387 47.4197 39.7413 47.4197 38.952C47.4197 38.152 47.7397 37.5013 48.3797 37C49.0197 36.4987 49.8464 36.248 50.8597 36.248C51.8731 36.248 52.8864 36.5893 53.8997 37.272L53.0037 38.872C52.2571 38.36 51.5104 38.104 50.7637 38.104C50.0277 38.104 49.6597 38.3067 49.6597 38.712C49.6597 38.936 49.7771 39.112 50.0117 39.24C50.2464 39.368 50.6357 39.5173 51.1797 39.688C51.7237 39.8587 52.1077 39.992 52.3317 40.088C52.5664 40.1733 52.8437 40.312 53.1637 40.504C53.7611 40.8667 54.0597 41.4747 54.0597 42.328ZM58.7937 38.12V41.976C58.7937 42.3067 58.8791 42.568 59.0497 42.76C59.2204 42.9413 59.4231 43.032 59.6577 43.032C60.1057 43.032 60.4844 42.8293 60.7937 42.424L61.6897 44.104C60.9431 44.7867 60.1537 45.128 59.3217 45.128C58.5004 45.128 57.8017 44.856 57.2257 44.312C56.6604 43.768 56.3777 43.0267 56.3777 42.088V38.12H55.3697V36.392H56.3777V33.816H58.7937V36.392H60.8737V38.12H58.7937Z" fill="#BDBDBD"/>
<rect x="87.5" y="2.5" width="46" height="73" fill="white"/>
<rect x="87.5" y="2.5" width="46" height="73" stroke="#E9E9E9"/>
<path d="M107.769 33.816H112.297V45H109.897V35.944H107.769V33.816Z" fill="#23A6F0"/>
<rect x="134.5" y="2.5" width="49" height="73" fill="#23A6F0"/>
<rect x="134.5" y="2.5" width="49" height="73" stroke="#E9E9E9"/>
<path d="M158.364 39.784C159.026 39.112 159.495 38.5787 159.772 38.184C160.06 37.7787 160.204 37.3893 160.204 37.016C160.204 36.6427 160.082 36.3333 159.836 36.088C159.591 35.832 159.276 35.704 158.892 35.704C158.188 35.704 157.522 36.2053 156.892 37.208L154.892 36.024C155.415 35.2133 155.986 34.6 156.604 34.184C157.234 33.768 158.028 33.56 158.988 33.56C159.959 33.56 160.807 33.8693 161.532 34.488C162.268 35.096 162.636 35.928 162.636 36.984C162.636 37.56 162.487 38.1147 162.188 38.648C161.9 39.1707 161.362 39.8427 160.572 40.664L158.556 42.76H162.972V45H155.084V43.144L158.364 39.784Z" fill="white"/>
<rect x="184.5" y="2.5" width="49" height="73" fill="white"/>
<rect x="184.5" y="2.5" width="49" height="73" stroke="#E9E9E9"/>
<path d="M205.473 35.944V33.816H212.321V35.544L210.033 38.152C210.929 38.3013 211.623 38.68 212.113 39.288C212.604 39.8853 212.849 40.5787 212.849 41.368C212.849 42.5413 212.449 43.464 211.649 44.136C210.86 44.7973 209.847 45.128 208.609 45.128C207.372 45.128 206.119 44.6907 204.849 43.816L205.873 41.832C206.929 42.5787 207.873 42.952 208.705 42.952C209.207 42.952 209.617 42.8293 209.937 42.584C210.268 42.3387 210.433 41.9867 210.433 41.528C210.433 41.0587 210.247 40.6907 209.873 40.424C209.5 40.1467 208.983 40.008 208.321 40.008C207.969 40.008 207.473 40.1093 206.833 40.312V38.472L208.977 35.944H205.473Z" fill="#23A6F0"/>
<rect x="234.5" y="2.5" width="89" height="73" fill="white"/>
<rect x="234.5" y="2.5" width="89" height="73" stroke="#E8E8E8"/>
<path d="M268.48 33.816H270.976V45H268.48L263.152 37.992V45H260.656V33.816H262.992L268.48 41.016V33.816ZM281.05 43.752C280.079 44.6693 278.938 45.128 277.626 45.128C276.324 45.128 275.247 44.728 274.394 43.928C273.54 43.1173 273.114 42.0347 273.114 40.68C273.114 39.3253 273.546 38.248 274.41 37.448C275.284 36.648 276.314 36.248 277.498 36.248C278.682 36.248 279.684 36.6053 280.506 37.32C281.338 38.0347 281.754 39.016 281.754 40.264V41.544H275.482C275.556 42.0133 275.802 42.3973 276.218 42.696C276.634 42.9947 277.103 43.144 277.626 43.144C278.468 43.144 279.162 42.8613 279.706 42.296L281.05 43.752ZM279.322 39.832C279.268 39.32 279.076 38.9253 278.746 38.648C278.415 38.3707 278.01 38.232 277.53 38.232C277.06 38.232 276.628 38.376 276.234 38.664C275.839 38.952 275.61 39.3413 275.546 39.832H279.322ZM285.446 36.392L286.918 38.696L288.438 36.392H291.254L288.294 40.6L291.366 45H288.502L286.822 42.632L285.19 45H282.422L285.43 40.616L282.582 36.392H285.446ZM295.673 38.12V41.976C295.673 42.3067 295.759 42.568 295.929 42.76C296.1 42.9413 296.303 43.032 296.537 43.032C296.985 43.032 297.364 42.8293 297.673 42.424L298.569 44.104C297.823 44.7867 297.033 45.128 296.201 45.128C295.38 45.128 294.681 44.856 294.105 44.312C293.54 43.768 293.257 43.0267 293.257 42.088V38.12H292.249V36.392H293.257V33.816H295.673V36.392H297.753V38.12H295.673Z" fill="#23A6F0"/>
</g>
<rect x="0.672761" y="2.67276" width="322.654" height="72.6545" rx="6.05484" stroke="#BDBDBD" stroke-width="1.34552"/>
</g>
<defs>
<filter id="filter0_d_688_2243" x="-4" y="0" width="332" height="82" filterUnits="userSpaceOnUse" color-interpolation-filters="sRGB">
<feFlood flood-opacity="0" result="BackgroundImageFix"/>
<feColorMatrix in="SourceAlpha" type="matrix" values="0 0 0 0 0 0 0 0 0 0 0 0 0 0 0 0 0 0 127 0" result="hardAlpha"/>
<feOffset dy="2"/>
<feGaussianBlur stdDeviation="2"/>
<feColorMatrix type="matrix" values="0 0 0 0 0 0 0 0 0 0 0 0 0 0 0 0 0 0 0.1 0"/>
<feBlend mode="normal" in2="BackgroundImageFix" result="effect1_dropShadow_688_2243"/>
<feBlend mode="normal" in="SourceGraphic" in2="effect1_dropShadow_688_2243" result="shape"/>
</filter>
<clipPath id="clip0_688_2243">
<rect y="2" width="324" height="74" rx="6.72761" fill="white"/>
</clipPath>
</defs>
</svg>
