<svg width="328" height="159" viewBox="0 0 328 159" fill="none" xmlns="http://www.w3.org/2000/svg">
<g clip-path="url(#clip0_688_3234)">
<rect width="328" height="159" rx="2" fill="white"/>
<g clip-path="url(#clip1_688_3234)">
<g clip-path="url(#clip2_688_3234)">
<path fill-rule="evenodd" clip-rule="evenodd" d="M65.918 73.6668C65.918 73.6668 69.0013 73.6668 69.0013 70.5557C69.0013 67.4446 65.918 58.1113 53.5846 58.1113C41.2513 58.1113 38.168 67.4446 38.168 70.5557C38.168 73.6668 41.2513 73.6668 41.2513 73.6668H65.918ZM41.3191 70.5557H65.8501C65.8646 70.554 65.879 70.5519 65.8933 70.5495L65.918 70.5433C65.9118 69.7219 65.403 67.3388 63.5746 65.1922C61.8726 63.1793 58.8818 61.2224 53.5846 61.2224C48.2906 61.2224 45.2997 63.1824 43.5946 65.1922C41.7662 67.3388 41.2544 69.7251 41.2513 70.5433C41.2739 70.5477 41.2965 70.5518 41.3191 70.5557ZM53.5846 51.8891C55.2201 51.8891 56.7887 51.2335 57.9451 50.0666C59.1016 48.8997 59.7513 47.3171 59.7513 45.6668C59.7513 44.0166 59.1016 42.4339 57.9451 41.2671C56.7887 40.1002 55.2201 39.4446 53.5846 39.4446C51.9491 39.4446 50.3806 40.1002 49.2241 41.2671C48.0677 42.4339 47.418 44.0166 47.418 45.6668C47.418 47.3171 48.0677 48.8997 49.2241 50.0666C50.3806 51.2335 51.9491 51.8891 53.5846 51.8891ZM62.8346 45.6668C62.8346 46.8925 62.5954 48.1062 62.1305 49.2385C61.6657 50.3709 60.9843 51.3998 60.1254 52.2665C59.2664 53.1332 58.2467 53.8207 57.1245 54.2897C56.0022 54.7587 54.7994 55.0002 53.5846 55.0002C52.3699 55.0002 51.1671 54.7587 50.0448 54.2897C48.9226 53.8207 47.9028 53.1332 47.0439 52.2665C46.185 51.3998 45.5036 50.3709 45.0387 49.2385C44.5739 48.1062 44.3346 46.8925 44.3346 45.6668C44.3346 43.1915 45.3092 40.8175 47.0439 39.0672C48.7786 37.3168 51.1314 36.3335 53.5846 36.3335C56.0379 36.3335 58.3907 37.3168 60.1254 39.0672C61.8601 40.8175 62.8346 43.1915 62.8346 45.6668ZM41.054 58.9824C39.8206 58.5905 38.5492 58.3329 37.2615 58.2139C36.5379 58.1445 35.8115 58.1103 35.0846 58.1113C22.7513 58.1113 19.668 67.4446 19.668 70.5557C19.668 72.6308 20.6947 73.6668 22.7513 73.6668H35.7506C35.2935 72.6956 35.0656 71.6307 35.0846 70.5557C35.0846 67.4135 36.2471 64.2028 38.4455 61.521C39.1947 60.6064 40.0673 59.7508 41.054 58.9824ZM34.838 61.2224C29.695 61.2846 26.7751 63.2135 25.0946 65.1922C23.2539 67.3513 22.7513 69.7437 22.7513 70.5557H32.0013C32.0013 67.3046 32.9972 64.0659 34.838 61.2224ZM24.293 47.2224C24.293 44.747 25.2675 42.3731 27.0022 40.6227C28.7369 38.8724 31.0897 37.8891 33.543 37.8891C35.9962 37.8891 38.349 38.8724 40.0837 40.6227C41.8184 42.3731 42.793 44.747 42.793 47.2224C42.793 49.6977 41.8184 52.0717 40.0837 53.822C38.349 55.5724 35.9962 56.5557 33.543 56.5557C31.0897 56.5557 28.7369 55.5724 27.0022 53.822C25.2675 52.0717 24.293 49.6977 24.293 47.2224ZM33.543 41.0002C31.9075 41.0002 30.339 41.6557 29.1825 42.8226C28.026 43.9895 27.3763 45.5721 27.3763 47.2224C27.3763 48.8726 28.026 50.4553 29.1825 51.6222C30.339 52.7891 31.9075 53.4446 33.543 53.4446C35.1785 53.4446 36.747 52.7891 37.9035 51.6222C39.0599 50.4553 39.7096 48.8726 39.7096 47.2224C39.7096 45.5721 39.0599 43.9895 37.9035 42.8226C36.747 41.6557 35.1785 41.0002 33.543 41.0002Z" fill="#23A6F0"/>
</g>
<path d="M90.688 46.44V43.224H99.424V54.168C99.424 56.168 98.904 57.664 97.864 58.656C96.84 59.648 95.52 60.144 93.904 60.144C91.888 60.144 90.128 59.368 88.624 57.816L90.568 55.128C91.576 56.216 92.632 56.76 93.736 56.76C94.264 56.76 94.712 56.56 95.08 56.16C95.464 55.744 95.656 55.128 95.656 54.312V46.44H90.688ZM105.809 53.544C105.809 54.6 106.105 55.464 106.697 56.136C107.305 56.792 108.073 57.12 109.001 57.12C109.945 57.12 110.713 56.792 111.305 56.136C111.913 55.464 112.217 54.6 112.217 53.544C112.217 52.488 111.913 51.624 111.305 50.952C110.713 50.28 109.945 49.944 109.001 49.944C108.073 49.944 107.305 50.28 106.697 50.952C106.105 51.624 105.809 52.488 105.809 53.544ZM115.841 53.544C115.841 55.416 115.193 56.992 113.897 58.272C112.601 59.552 110.969 60.192 109.001 60.192C107.049 60.192 105.425 59.552 104.129 58.272C102.833 56.992 102.185 55.416 102.185 53.544C102.185 51.672 102.833 50.096 104.129 48.816C105.425 47.52 107.049 46.872 109.001 46.872C110.969 46.872 112.601 47.52 113.897 48.816C115.193 50.096 115.841 51.672 115.841 53.544ZM126.055 46.872C127.623 46.872 128.991 47.488 130.159 48.72C131.327 49.936 131.911 51.504 131.911 53.424C131.911 55.344 131.311 56.952 130.111 58.248C128.911 59.544 127.543 60.192 126.007 60.192C124.487 60.192 123.223 59.56 122.215 58.296V60H118.615V42.192H122.215V48.528C123.207 47.424 124.487 46.872 126.055 46.872ZM122.167 53.568C122.167 54.608 122.455 55.464 123.031 56.136C123.623 56.792 124.335 57.12 125.167 57.12C125.999 57.12 126.727 56.792 127.351 56.136C127.975 55.464 128.287 54.608 128.287 53.568C128.287 52.528 127.983 51.656 127.375 50.952C126.767 50.248 126.039 49.896 125.191 49.896C124.343 49.896 123.623 50.248 123.031 50.952C122.455 51.64 122.167 52.512 122.167 53.568ZM146.887 46.128C146.263 46.128 145.767 46.28 145.399 46.584C145.047 46.872 144.871 47.264 144.871 47.76C144.871 48.24 145.087 48.624 145.519 48.912C145.967 49.2 146.983 49.544 148.567 49.944C150.167 50.328 151.407 50.912 152.287 51.696C153.167 52.48 153.607 53.624 153.607 55.128C153.607 56.632 153.039 57.856 151.903 58.8C150.783 59.728 149.303 60.192 147.463 60.192C144.807 60.192 142.415 59.208 140.287 57.24L142.519 54.504C144.327 56.088 145.999 56.88 147.535 56.88C148.223 56.88 148.759 56.736 149.143 56.448C149.543 56.144 149.743 55.744 149.743 55.248C149.743 54.736 149.535 54.336 149.119 54.048C148.703 53.744 147.879 53.44 146.647 53.136C144.695 52.672 143.263 52.072 142.351 51.336C141.455 50.584 141.007 49.416 141.007 47.832C141.007 46.232 141.575 45 142.711 44.136C143.863 43.272 145.295 42.84 147.007 42.84C148.127 42.84 149.247 43.032 150.367 43.416C151.487 43.8 152.463 44.344 153.295 45.048L151.399 47.784C149.943 46.68 148.439 46.128 146.887 46.128ZM167.716 58.128C166.26 59.504 164.548 60.192 162.58 60.192C160.628 60.192 159.012 59.592 157.732 58.392C156.452 57.176 155.812 55.552 155.812 53.52C155.812 51.488 156.46 49.872 157.756 48.672C159.068 47.472 160.612 46.872 162.388 46.872C164.164 46.872 165.668 47.408 166.9 48.48C168.148 49.552 168.772 51.024 168.772 52.896V54.816H159.364C159.476 55.52 159.844 56.096 160.468 56.544C161.092 56.992 161.796 57.216 162.58 57.216C163.844 57.216 164.884 56.792 165.7 55.944L167.716 58.128ZM165.124 52.248C165.044 51.48 164.756 50.888 164.26 50.472C163.764 50.056 163.156 49.848 162.436 49.848C161.732 49.848 161.084 50.064 160.492 50.496C159.9 50.928 159.556 51.512 159.46 52.248H165.124ZM177.66 57C178.86 57 179.94 56.4 180.9 55.2L183.036 57.6C181.372 59.328 179.572 60.192 177.636 60.192C175.7 60.192 174.06 59.584 172.716 58.368C171.388 57.136 170.724 55.536 170.724 53.568C170.724 51.584 171.396 49.976 172.74 48.744C174.1 47.496 175.708 46.872 177.564 46.872C178.492 46.872 179.428 47.064 180.372 47.448C181.332 47.832 182.172 48.4 182.892 49.152L181.02 51.6C180.604 51.104 180.092 50.72 179.484 50.448C178.892 50.176 178.3 50.04 177.708 50.04C176.764 50.04 175.948 50.352 175.26 50.976C174.588 51.584 174.252 52.44 174.252 53.544C174.252 54.632 174.588 55.48 175.26 56.088C175.948 56.696 176.748 57 177.66 57ZM193.865 54.048V47.088H197.489V60H193.865V58.296C192.969 59.56 191.809 60.192 190.385 60.192C188.977 60.192 187.793 59.752 186.833 58.872C185.873 57.976 185.393 56.656 185.393 54.912V47.088H189.017V54.12C189.017 56.104 189.745 57.096 191.201 57.096C191.921 57.096 192.545 56.84 193.073 56.328C193.601 55.8 193.865 55.04 193.865 54.048ZM207.78 50.256C206.708 50.256 205.908 50.64 205.38 51.408C204.852 52.16 204.588 53.16 204.588 54.408V60H200.988V47.088H204.588V48.792C205.052 48.264 205.628 47.816 206.316 47.448C207.02 47.08 207.732 46.888 208.452 46.872L208.476 50.256H207.78ZM214.556 60H210.956V47.088H214.556V60ZM211.244 45.456C210.844 45.04 210.644 44.536 210.644 43.944C210.644 43.352 210.844 42.856 211.244 42.456C211.66 42.04 212.164 41.832 212.756 41.832C213.348 41.832 213.844 42.04 214.244 42.456C214.66 42.856 214.868 43.352 214.868 43.944C214.868 44.536 214.66 45.04 214.244 45.456C213.844 45.856 213.348 46.056 212.756 46.056C212.164 46.056 211.66 45.856 211.244 45.456ZM222.359 49.68V55.464C222.359 55.96 222.487 56.352 222.743 56.64C222.999 56.912 223.303 57.048 223.655 57.048C224.327 57.048 224.895 56.744 225.359 56.136L226.703 58.656C225.583 59.68 224.399 60.192 223.151 60.192C221.919 60.192 220.871 59.784 220.007 58.968C219.159 58.152 218.735 57.04 218.735 55.632V49.68H217.223V47.088H218.735V43.224H222.359V47.088H225.479V49.68H222.359ZM230.966 65.088C229.702 65.088 228.51 64.576 227.39 63.552L229.022 60.888C229.63 61.48 230.254 61.776 230.894 61.776C231.23 61.776 231.518 61.608 231.758 61.272C231.998 60.952 232.118 60.608 232.118 60.24C232.118 59.872 230.454 55.488 227.126 47.088H230.966L234.11 55.128L237.254 47.088H241.094L235.094 62.304C234.742 63.184 234.19 63.864 233.438 64.344C232.702 64.84 231.878 65.088 230.966 65.088Z" fill="#252B42"/>
<path d="M93.744 89.4C93.424 89.656 92.992 89.8 92.544 89.8C91.696 89.8 91.216 89.288 91.216 88.376V83.784H93.648V82.52H91.216V80.664H89.68V82.52H88.24V83.784H89.68V88.44C89.68 90.152 90.656 91.096 92.368 91.096C93.056 91.096 93.76 90.904 94.224 90.504L93.744 89.4ZM100.809 82.44C99.513 82.44 98.457 82.904 97.817 83.72V79.128H96.281V91H97.817V86.632C97.817 84.792 98.873 83.816 100.505 83.816C101.961 83.816 102.793 84.632 102.793 86.296V91H104.329V86.12C104.329 83.624 102.873 82.44 100.809 82.44ZM115.083 86.808C115.083 84.2 113.339 82.44 110.891 82.44C108.442 82.44 106.634 84.248 106.634 86.76C106.634 89.288 108.458 91.096 111.194 91.096C112.602 91.096 113.771 90.616 114.538 89.72L113.69 88.728C113.067 89.416 112.234 89.752 111.242 89.752C109.562 89.752 108.362 88.76 108.17 87.272H115.05C115.066 87.128 115.083 86.936 115.083 86.808ZM110.891 83.736C112.378 83.736 113.451 84.744 113.61 86.168H108.17C108.33 84.728 109.418 83.736 110.891 83.736ZM128.44 82.52V83.864C127.752 82.92 126.664 82.44 125.416 82.44C122.936 82.44 121.128 84.168 121.128 86.76C121.128 89.368 122.936 91.096 125.416 91.096C126.616 91.096 127.672 90.632 128.376 89.72V94.104H129.912V82.52H128.44ZM125.544 89.752C123.912 89.752 122.68 88.568 122.68 86.76C122.68 84.968 123.912 83.784 125.544 83.784C127.16 83.784 128.392 84.968 128.392 86.76C128.392 88.568 127.16 89.752 125.544 89.752ZM139.387 82.52V86.904C139.387 88.728 138.363 89.72 136.763 89.72C135.307 89.72 134.475 88.888 134.475 87.224V82.52H132.939V87.4C132.939 89.896 134.395 91.096 136.587 91.096C137.787 91.096 138.843 90.6 139.467 89.72V91H140.923V82.52H139.387ZM144.815 80.888C145.423 80.888 145.855 80.44 145.855 79.864C145.855 79.32 145.407 78.888 144.815 78.888C144.223 78.888 143.775 79.336 143.775 79.896C143.775 80.456 144.223 80.888 144.815 80.888ZM144.047 91H145.583V82.52H144.047V91ZM152.411 91.096C153.931 91.096 155.195 90.456 155.867 89.272L154.699 88.536C154.155 89.368 153.323 89.752 152.395 89.752C150.731 89.752 149.483 88.6 149.483 86.76C149.483 84.952 150.731 83.784 152.395 83.784C153.323 83.784 154.155 84.168 154.699 85L155.867 84.248C155.195 83.064 153.931 82.44 152.411 82.44C149.803 82.44 147.931 84.232 147.931 86.76C147.931 89.288 149.803 91.096 152.411 91.096ZM164.427 91H166.315L162.395 86.024L165.963 82.52H164.107L159.483 86.744V79.128H157.947V91H159.483V88.68L161.243 87.048L164.427 91ZM175.607 80.296C176.055 80.296 176.471 80.456 176.791 80.696L177.255 79.528C176.823 79.192 176.183 79.032 175.527 79.032C173.719 79.032 172.727 80.12 172.727 81.768V82.52H171.287V83.784H172.727V91H174.263V83.784H176.695V82.52H174.231V81.784C174.231 80.808 174.695 80.296 175.607 80.296ZM181.85 91.096C184.394 91.096 186.25 89.288 186.25 86.76C186.25 84.232 184.394 82.44 181.85 82.44C179.306 82.44 177.434 84.232 177.434 86.76C177.434 89.288 179.306 91.096 181.85 91.096ZM181.85 89.752C180.218 89.752 178.986 88.568 178.986 86.76C178.986 84.952 180.218 83.784 181.85 83.784C183.482 83.784 184.698 84.952 184.698 86.76C184.698 88.568 183.482 89.752 181.85 89.752ZM195.446 91L192.07 86.664L195.27 82.52H193.59L191.27 85.576L188.934 82.52H187.222L190.406 86.664L187.062 91H188.774L191.254 87.752L193.702 91H195.446ZM202.667 80.888C203.275 80.888 203.707 80.44 203.707 79.864C203.707 79.32 203.259 78.888 202.667 78.888C202.075 78.888 201.627 79.336 201.627 79.896C201.627 80.456 202.075 80.888 202.667 80.888ZM200.731 94.2C202.475 94.2 203.435 93.112 203.435 91.384V82.52H201.899V91.416C201.899 92.392 201.451 92.904 200.635 92.904C200.139 92.904 199.691 92.76 199.387 92.504L198.891 93.688C199.323 94.04 200.027 94.2 200.731 94.2ZM212.933 82.52V86.904C212.933 88.728 211.909 89.72 210.309 89.72C208.853 89.72 208.021 88.888 208.021 87.224V82.52H206.485V87.4C206.485 89.896 207.941 91.096 210.133 91.096C211.333 91.096 212.389 90.6 213.013 89.72V91H214.469V82.52H212.933ZM228.201 82.44C226.761 82.44 225.577 83.048 224.937 84.008C224.377 82.952 223.289 82.44 221.993 82.44C220.713 82.44 219.673 82.92 219.065 83.784V82.52H217.593V91H219.129V86.632C219.129 84.792 220.137 83.816 221.673 83.816C223.065 83.816 223.865 84.632 223.865 86.296V91H225.401V86.632C225.401 84.792 226.409 83.816 227.945 83.816C229.337 83.816 230.137 84.632 230.137 86.296V91H231.673V86.12C231.673 83.624 230.265 82.44 228.201 82.44ZM239.196 82.44C237.948 82.44 236.86 82.92 236.172 83.864V82.52H234.7V94.104H236.236V89.72C236.94 90.632 237.996 91.096 239.196 91.096C241.676 91.096 243.484 89.368 243.484 86.76C243.484 84.168 241.676 82.44 239.196 82.44ZM239.068 89.752C237.452 89.752 236.22 88.568 236.22 86.76C236.22 84.968 237.452 83.784 239.068 83.784C240.7 83.784 241.932 84.968 241.932 86.76C241.932 88.568 240.7 89.752 239.068 89.752ZM248.238 91.096C250.494 91.096 251.902 90.12 251.902 88.584C251.902 85.288 246.526 86.92 246.526 84.92C246.526 84.248 247.182 83.752 248.526 83.752C249.358 83.752 250.206 83.928 250.974 84.424L251.63 83.208C250.894 82.728 249.646 82.44 248.542 82.44C246.366 82.44 245.006 83.464 245.006 84.984C245.006 88.36 250.366 86.712 250.366 88.616C250.366 89.336 249.774 89.768 248.35 89.768C247.246 89.768 246.094 89.4 245.374 88.888L244.734 90.104C245.438 90.664 246.83 91.096 248.238 91.096ZM262.151 91.096C264.695 91.096 266.551 89.288 266.551 86.76C266.551 84.232 264.695 82.44 262.151 82.44C259.607 82.44 257.735 84.232 257.735 86.76C257.735 89.288 259.607 91.096 262.151 91.096ZM262.151 89.752C260.519 89.752 259.287 88.568 259.287 86.76C259.287 84.952 260.519 83.784 262.151 83.784C263.783 83.784 264.999 84.952 264.999 86.76C264.999 88.568 263.783 89.752 262.151 89.752ZM274.64 82.52L271.664 89.32L268.752 82.52H267.152L270.864 91H272.432L276.144 82.52H274.64ZM285.207 86.808C285.207 84.2 283.463 82.44 281.015 82.44C278.567 82.44 276.759 84.248 276.759 86.76C276.759 89.288 278.583 91.096 281.319 91.096C282.727 91.096 283.895 90.616 284.663 89.72L283.815 88.728C283.191 89.416 282.359 89.752 281.367 89.752C279.687 89.752 278.487 88.76 278.295 87.272H285.175C285.191 87.128 285.207 86.936 285.207 86.808ZM281.015 83.736C282.503 83.736 283.575 84.744 283.735 86.168H278.295C278.455 84.728 279.543 83.736 281.015 83.736ZM289.012 83.944V82.52H287.54V91H289.076V86.776C289.076 84.92 290.1 83.912 291.748 83.912C291.86 83.912 291.972 83.912 292.1 83.928V82.44C290.612 82.44 289.556 82.952 289.012 83.944ZM303.088 89.4C302.768 89.656 302.336 89.8 301.888 89.8C301.04 89.8 300.56 89.288 300.56 88.376V83.784H302.992V82.52H300.56V80.664H299.024V82.52H297.584V83.784H299.024V88.44C299.024 90.152 300 91.096 301.712 91.096C302.4 91.096 303.104 90.904 303.568 90.504L303.088 89.4ZM310.153 82.44C308.857 82.44 307.801 82.904 307.161 83.72V79.128H305.625V91H307.161V86.632C307.161 84.792 308.217 83.816 309.849 83.816C311.305 83.816 312.137 84.632 312.137 86.296V91H313.673V86.12C313.673 83.624 312.217 82.44 310.153 82.44ZM324.426 86.808C324.426 84.2 322.682 82.44 320.234 82.44C317.786 82.44 315.978 84.248 315.978 86.76C315.978 89.288 317.802 91.096 320.538 91.096C321.946 91.096 323.114 90.616 323.882 89.72L323.034 88.728C322.41 89.416 321.578 89.752 320.586 89.752C318.906 89.752 317.706 88.76 317.514 87.272H324.394C324.41 87.128 324.426 86.936 324.426 86.808ZM320.234 83.736C321.722 83.736 322.794 84.744 322.954 86.168H317.514C317.674 84.728 318.762 83.736 320.234 83.736ZM89.456 117H90.992V105.128H89.456V117ZM97.2127 108.44C95.8528 108.44 94.5887 108.824 93.7087 109.528L94.3487 110.68C95.0048 110.12 96.0287 109.768 97.0367 109.768C98.5568 109.768 99.3088 110.52 99.3088 111.816V112.12H96.8767C94.3487 112.12 93.4687 113.24 93.4687 114.6C93.4687 116.072 94.6847 117.096 96.6047 117.096C97.9328 117.096 98.8767 116.648 99.3888 115.88V117H100.845V111.88C100.845 109.56 99.5328 108.44 97.2127 108.44ZM96.8608 115.912C95.6927 115.912 94.9887 115.384 94.9887 114.536C94.9887 113.816 95.4207 113.224 96.9408 113.224H99.3088V114.408C98.9248 115.384 98.0128 115.912 96.8608 115.912ZM105.039 115.736L110.047 109.528V108.52H103.167V109.784H108.079L103.071 116.008V117H110.175V115.736H105.039ZM118.275 108.52L115.347 115.304L112.387 108.52H110.787L114.531 116.984L114.259 117.576C113.843 118.552 113.379 118.888 112.643 118.888C112.067 118.888 111.539 118.664 111.123 118.264L110.467 119.416C110.995 119.928 111.827 120.2 112.643 120.2C113.939 120.2 114.915 119.64 115.667 117.848L119.779 108.52H118.275ZM132.373 105.128V109.8C131.669 108.888 130.613 108.44 129.413 108.44C126.933 108.44 125.125 110.168 125.125 112.76C125.125 115.352 126.933 117.096 129.413 117.096C130.661 117.096 131.749 116.616 132.437 115.656V117H133.909V105.128H132.373ZM129.541 115.752C127.909 115.752 126.677 114.568 126.677 112.76C126.677 110.952 127.909 109.784 129.541 109.784C131.157 109.784 132.389 110.952 132.389 112.76C132.389 114.568 131.157 115.752 129.541 115.752ZM140.647 117.096C143.191 117.096 145.047 115.288 145.047 112.76C145.047 110.232 143.191 108.44 140.647 108.44C138.103 108.44 136.231 110.232 136.231 112.76C136.231 115.288 138.103 117.096 140.647 117.096ZM140.647 115.752C139.015 115.752 137.783 114.568 137.783 112.76C137.783 110.952 139.015 109.784 140.647 109.784C142.279 109.784 143.495 110.952 143.495 112.76C143.495 114.568 142.279 115.752 140.647 115.752ZM154.028 108.52V109.832C153.308 108.904 152.156 108.44 150.892 108.44C148.444 108.44 146.588 110.088 146.588 112.536C146.588 114.984 148.444 116.648 150.892 116.648C152.108 116.648 153.212 116.216 153.948 115.336V116.008C153.948 117.928 153.036 118.856 151.036 118.856C149.788 118.856 148.556 118.424 147.772 117.752L147.036 118.936C147.964 119.768 149.532 120.2 151.084 120.2C153.964 120.2 155.484 118.84 155.484 115.848V108.52H154.028ZM151.068 115.304C149.356 115.304 148.14 114.168 148.14 112.536C148.14 110.888 149.356 109.784 151.068 109.784C152.764 109.784 153.98 110.888 153.98 112.536C153.98 114.168 152.764 115.304 151.068 115.304Z" fill="#737373"/>
</g>
</g>
<defs>
<clipPath id="clip0_688_3234">
<rect width="328" height="159" rx="2" fill="white"/>
</clipPath>
<clipPath id="clip1_688_3234">
<rect width="310" height="89" fill="white" transform="translate(20 35)"/>
</clipPath>
<clipPath id="clip2_688_3234">
<rect width="48" height="39.5295" fill="white" transform="translate(20 35)"/>
</clipPath>
</defs>
</svg>
