<svg width="230" height="328" viewBox="0 0 230 328" fill="none" xmlns="http://www.w3.org/2000/svg">
<rect width="230" height="327.529" fill="white"/>
<g clip-path="url(#clip0_688_3285)">
<path fill-rule="evenodd" clip-rule="evenodd" d="M85.918 73.6668C85.918 73.6668 89.0013 73.6668 89.0013 70.5557C89.0013 67.4446 85.918 58.1113 73.5846 58.1113C61.2513 58.1113 58.168 67.4446 58.168 70.5557C58.168 73.6668 61.2513 73.6668 61.2513 73.6668H85.918ZM61.3191 70.5557H85.8501C85.8646 70.554 85.879 70.5519 85.8933 70.5495L85.918 70.5433C85.9118 69.7219 85.403 67.3388 83.5746 65.1922C81.8726 63.1793 78.8818 61.2224 73.5846 61.2224C68.2906 61.2224 65.2997 63.1824 63.5946 65.1922C61.7662 67.3388 61.2544 69.7251 61.2513 70.5433C61.2739 70.5477 61.2965 70.5518 61.3191 70.5557ZM73.5846 51.8891C75.2201 51.8891 76.7887 51.2335 77.9451 50.0666C79.1016 48.8997 79.7513 47.3171 79.7513 45.6668C79.7513 44.0166 79.1016 42.4339 77.9451 41.2671C76.7887 40.1002 75.2201 39.4446 73.5846 39.4446C71.9491 39.4446 70.3806 40.1002 69.2241 41.2671C68.0677 42.4339 67.418 44.0166 67.418 45.6668C67.418 47.3171 68.0677 48.8997 69.2241 50.0666C70.3806 51.2335 71.9491 51.8891 73.5846 51.8891ZM82.8346 45.6668C82.8346 46.8925 82.5954 48.1062 82.1305 49.2385C81.6657 50.3709 80.9843 51.3998 80.1254 52.2665C79.2664 53.1332 78.2467 53.8207 77.1245 54.2897C76.0022 54.7587 74.7994 55.0002 73.5846 55.0002C72.3699 55.0002 71.1671 54.7587 70.0448 54.2897C68.9226 53.8207 67.9028 53.1332 67.0439 52.2665C66.185 51.3998 65.5036 50.3709 65.0387 49.2385C64.5739 48.1062 64.3346 46.8925 64.3346 45.6668C64.3346 43.1915 65.3092 40.8175 67.0439 39.0672C68.7786 37.3168 71.1314 36.3335 73.5846 36.3335C76.0379 36.3335 78.3907 37.3168 80.1254 39.0672C81.8601 40.8175 82.8346 43.1915 82.8346 45.6668ZM61.054 58.9824C59.8206 58.5905 58.5492 58.3329 57.2615 58.2139C56.5379 58.1445 55.8115 58.1103 55.0846 58.1113C42.7513 58.1113 39.668 67.4446 39.668 70.5557C39.668 72.6308 40.6947 73.6668 42.7513 73.6668H55.7506C55.2935 72.6956 55.0656 71.6307 55.0846 70.5557C55.0846 67.4135 56.2471 64.2028 58.4455 61.521C59.1947 60.6064 60.0673 59.7508 61.054 58.9824ZM54.838 61.2224C49.695 61.2846 46.7751 63.2135 45.0946 65.1922C43.2539 67.3513 42.7513 69.7437 42.7513 70.5557H52.0013C52.0013 67.3046 52.9972 64.0659 54.838 61.2224ZM44.293 47.2224C44.293 44.747 45.2675 42.3731 47.0022 40.6227C48.7369 38.8724 51.0897 37.8891 53.543 37.8891C55.9962 37.8891 58.349 38.8724 60.0837 40.6227C61.8184 42.3731 62.793 44.747 62.793 47.2224C62.793 49.6977 61.8184 52.0717 60.0837 53.822C58.349 55.5724 55.9962 56.5557 53.543 56.5557C51.0897 56.5557 48.7369 55.5724 47.0022 53.822C45.2675 52.0717 44.293 49.6977 44.293 47.2224ZM53.543 41.0002C51.9075 41.0002 50.339 41.6557 49.1825 42.8226C48.026 43.9895 47.3763 45.5721 47.3763 47.2224C47.3763 48.8726 48.026 50.4553 49.1825 51.6222C50.339 52.7891 51.9075 53.4446 53.543 53.4446C55.1785 53.4446 56.747 52.7891 57.9035 51.6222C59.0599 50.4553 59.7096 48.8726 59.7096 47.2224C59.7096 45.5721 59.0599 43.9895 57.9035 42.8226C56.747 41.6557 55.1785 41.0002 53.543 41.0002Z" fill="#23A6F0"/>
</g>
<path d="M46.112 103.505V112.529H43.616V103.505H40.448V101.345H49.28V103.505H46.112ZM53.2923 107.889V112.529H50.8923V100.657H53.2923V104.881C54.0176 104.145 54.8283 103.777 55.7243 103.777C56.6309 103.777 57.3936 104.097 58.0123 104.737C58.6309 105.377 58.9403 106.231 58.9403 107.297V112.529H56.5403V107.825C56.5403 106.503 56.0549 105.841 55.0843 105.841C54.6043 105.841 54.1829 106.017 53.8203 106.369C53.4683 106.711 53.2923 107.217 53.2923 107.889ZM68.667 111.281C67.6963 112.199 66.555 112.657 65.243 112.657C63.9417 112.657 62.8643 112.257 62.011 111.457C61.1577 110.647 60.731 109.564 60.731 108.209C60.731 106.855 61.163 105.777 62.027 104.977C62.9017 104.177 63.931 103.777 65.115 103.777C66.299 103.777 67.3017 104.135 68.123 104.849C68.955 105.564 69.371 106.545 69.371 107.793V109.073H63.099C63.1737 109.543 63.419 109.927 63.835 110.225C64.251 110.524 64.7203 110.673 65.243 110.673C66.0857 110.673 66.779 110.391 67.323 109.825L68.667 111.281ZM66.939 107.361C66.8857 106.849 66.6937 106.455 66.363 106.177C66.0323 105.9 65.627 105.761 65.147 105.761C64.6777 105.761 64.2457 105.905 63.851 106.193C63.4563 106.481 63.227 106.871 63.163 107.361H66.939ZM79.1524 112.657C78.0537 112.657 77.0937 112.247 76.2724 111.425C75.451 110.593 75.0404 109.532 75.0404 108.241C75.0404 106.94 75.4404 105.873 76.2404 105.041C77.0404 104.199 77.931 103.777 78.9124 103.777C79.8937 103.777 80.7524 104.145 81.4884 104.881V103.921H83.9044V115.633H81.4884V111.841C80.8057 112.385 80.027 112.657 79.1524 112.657ZM77.4564 108.241C77.4564 108.935 77.6644 109.505 78.0804 109.953C78.4964 110.391 78.9817 110.609 79.5364 110.609C80.091 110.609 80.5604 110.391 80.9444 109.953C81.3284 109.505 81.5204 108.935 81.5204 108.241C81.5204 107.537 81.3284 106.956 80.9444 106.497C80.5604 106.028 80.0857 105.793 79.5204 105.793C78.955 105.793 78.4697 106.028 78.0644 106.497C77.659 106.956 77.4564 107.537 77.4564 108.241ZM91.8286 108.561V103.921H94.2446V112.529H91.8286V111.393C91.2313 112.236 90.458 112.657 89.5086 112.657C88.57 112.657 87.7806 112.364 87.1406 111.777C86.5006 111.18 86.1806 110.3 86.1806 109.137V103.921H88.5966V108.609C88.5966 109.932 89.082 110.593 90.0526 110.593C90.5326 110.593 90.9486 110.423 91.3006 110.081C91.6526 109.729 91.8286 109.223 91.8286 108.561ZM99.011 112.529H96.611V103.921H99.011V112.529ZM96.803 102.833C96.5363 102.556 96.403 102.22 96.403 101.825C96.403 101.431 96.5363 101.1 96.803 100.833C97.0803 100.556 97.4163 100.417 97.811 100.417C98.2057 100.417 98.5363 100.556 98.803 100.833C99.0803 101.1 99.219 101.431 99.219 101.825C99.219 102.22 99.0803 102.556 98.803 102.833C98.5363 103.1 98.2057 103.233 97.811 103.233C97.4163 103.233 97.0803 103.1 96.803 102.833ZM105.511 110.529C106.311 110.529 107.031 110.129 107.671 109.329L109.095 110.929C107.986 112.081 106.786 112.657 105.495 112.657C104.204 112.657 103.111 112.252 102.215 111.441C101.33 110.62 100.887 109.553 100.887 108.241C100.887 106.919 101.335 105.847 102.231 105.025C103.138 104.193 104.21 103.777 105.447 103.777C106.066 103.777 106.69 103.905 107.319 104.161C107.959 104.417 108.519 104.796 108.999 105.297L107.751 106.929C107.474 106.599 107.132 106.343 106.727 106.161C106.332 105.98 105.938 105.889 105.543 105.889C104.914 105.889 104.37 106.097 103.911 106.513C103.463 106.919 103.239 107.489 103.239 108.225C103.239 108.951 103.463 109.516 103.911 109.921C104.37 110.327 104.903 110.529 105.511 110.529ZM113.195 112.529H110.795V100.657H113.195V106.753L115.867 103.905H118.891L115.611 107.393L119.019 112.529H116.171L113.979 109.233L113.195 110.049V112.529ZM127.594 103.425V104.001H129.674V105.729H127.594V112.529H125.178V105.729H124.17V104.001H125.178V103.473C125.178 102.535 125.46 101.793 126.026 101.249C126.602 100.695 127.311 100.417 128.154 100.417C129.007 100.417 129.78 100.737 130.474 101.377L129.61 102.993C129.258 102.588 128.868 102.385 128.442 102.385C128.196 102.385 127.994 102.476 127.834 102.657C127.674 102.828 127.594 103.084 127.594 103.425ZM132.984 108.225C132.984 108.929 133.181 109.505 133.576 109.953C133.981 110.391 134.493 110.609 135.112 110.609C135.741 110.609 136.253 110.391 136.648 109.953C137.053 109.505 137.256 108.929 137.256 108.225C137.256 107.521 137.053 106.945 136.648 106.497C136.253 106.049 135.741 105.825 135.112 105.825C134.493 105.825 133.981 106.049 133.576 106.497C133.181 106.945 132.984 107.521 132.984 108.225ZM139.672 108.225C139.672 109.473 139.24 110.524 138.376 111.377C137.512 112.231 136.424 112.657 135.112 112.657C133.811 112.657 132.728 112.231 131.864 111.377C131 110.524 130.568 109.473 130.568 108.225C130.568 106.977 131 105.927 131.864 105.073C132.728 104.209 133.811 103.777 135.112 103.777C136.424 103.777 137.512 104.209 138.376 105.073C139.24 105.927 139.672 106.977 139.672 108.225ZM143.291 103.921L144.763 106.225L146.283 103.921H149.099L146.139 108.129L149.211 112.529H146.347L144.667 110.161L143.035 112.529H140.267L143.275 108.145L140.427 103.921H143.291ZM43.056 132.225C43.056 132.929 43.2533 133.505 43.648 133.953C44.0533 134.391 44.5653 134.609 45.184 134.609C45.8133 134.609 46.3253 134.391 46.72 133.953C47.1253 133.505 47.328 132.929 47.328 132.225C47.328 131.521 47.1253 130.945 46.72 130.497C46.3253 130.049 45.8133 129.825 45.184 129.825C44.5653 129.825 44.0533 130.049 43.648 130.497C43.2533 130.945 43.056 131.521 43.056 132.225ZM49.744 132.225C49.744 133.473 49.312 134.524 48.448 135.377C47.584 136.231 46.496 136.657 45.184 136.657C43.8827 136.657 42.8 136.231 41.936 135.377C41.072 134.524 40.64 133.473 40.64 132.225C40.64 130.977 41.072 129.927 41.936 129.073C42.8 128.209 43.8827 127.777 45.184 127.777C46.496 127.777 47.584 128.209 48.448 129.073C49.312 129.927 49.744 130.977 49.744 132.225ZM53.7591 136.529L50.3511 127.905H52.8471L54.9911 133.329L57.1351 127.905H59.6311L56.2231 136.529H53.7591ZM68.3701 135.281C67.3995 136.199 66.2581 136.657 64.9461 136.657C63.6448 136.657 62.5675 136.257 61.7141 135.457C60.8608 134.647 60.4341 133.564 60.4341 132.209C60.4341 130.855 60.8661 129.777 61.7301 128.977C62.6048 128.177 63.6341 127.777 64.8181 127.777C66.0021 127.777 67.0048 128.135 67.8261 128.849C68.6581 129.564 69.0741 130.545 69.0741 131.793V133.073H62.8021C62.8768 133.543 63.1221 133.927 63.5381 134.225C63.9541 134.524 64.4235 134.673 64.9461 134.673C65.7888 134.673 66.4821 134.391 67.0261 133.825L68.3701 135.281ZM66.6421 131.361C66.5888 130.849 66.3968 130.455 66.0661 130.177C65.7355 129.9 65.3301 129.761 64.8501 129.761C64.3808 129.761 63.9488 129.905 63.5541 130.193C63.1595 130.481 62.9301 130.871 62.8661 131.361H66.6421ZM75.4327 130.033C74.7181 130.033 74.1847 130.289 73.8327 130.801C73.4807 131.303 73.3047 131.969 73.3047 132.801V136.529H70.9047V127.921H73.3047V129.057C73.6141 128.705 73.9981 128.407 74.4567 128.161C74.9261 127.916 75.4007 127.788 75.8807 127.777L75.8967 130.033H75.4327ZM84.7656 129.649V133.505C84.7656 133.836 84.851 134.097 85.0216 134.289C85.1923 134.471 85.395 134.561 85.6296 134.561C86.0776 134.561 86.4563 134.359 86.7656 133.953L87.6616 135.633C86.915 136.316 86.1256 136.657 85.2936 136.657C84.4723 136.657 83.7736 136.385 83.1976 135.841C82.6323 135.297 82.3496 134.556 82.3496 133.617V129.649H81.3416V127.921H82.3496V125.345H84.7656V127.921H86.8456V129.649H84.7656ZM91.4485 131.889V136.529H89.0485V124.657H91.4485V128.881C92.1738 128.145 92.9845 127.777 93.8805 127.777C94.7872 127.777 95.5498 128.097 96.1685 128.737C96.7872 129.377 97.0965 130.231 97.0965 131.297V136.529H94.6965V131.825C94.6965 130.503 94.2112 129.841 93.2405 129.841C92.7605 129.841 92.3392 130.017 91.9765 130.369C91.6245 130.711 91.4485 131.217 91.4485 131.889ZM106.823 135.281C105.853 136.199 104.711 136.657 103.399 136.657C102.098 136.657 101.021 136.257 100.167 135.457C99.3139 134.647 98.8873 133.564 98.8873 132.209C98.8873 130.855 99.3193 129.777 100.183 128.977C101.058 128.177 102.087 127.777 103.271 127.777C104.455 127.777 105.458 128.135 106.279 128.849C107.111 129.564 107.527 130.545 107.527 131.793V133.073H101.255C101.33 133.543 101.575 133.927 101.991 134.225C102.407 134.524 102.877 134.673 103.399 134.673C104.242 134.673 104.935 134.391 105.479 133.825L106.823 135.281ZM105.095 131.361C105.042 130.849 104.85 130.455 104.519 130.177C104.189 129.9 103.783 129.761 103.303 129.761C102.834 129.761 102.402 129.905 102.007 130.193C101.613 130.481 101.383 130.871 101.319 131.361H105.095ZM116.077 136.529H113.677V124.657H116.077V136.529ZM125.76 136.529H123.505V135.489C122.886 136.268 122.118 136.657 121.201 136.657C120.294 136.657 119.531 136.396 118.913 135.873C118.294 135.34 117.985 134.636 117.985 133.761C117.985 132.876 118.305 132.215 118.945 131.777C119.585 131.34 120.459 131.121 121.569 131.121H123.361V131.073C123.361 130.156 122.875 129.697 121.905 129.697C121.489 129.697 121.046 129.783 120.577 129.953C120.118 130.113 119.729 130.316 119.409 130.561L118.337 129.009C119.467 128.188 120.758 127.777 122.209 127.777C123.254 127.777 124.107 128.039 124.769 128.561C125.43 129.084 125.76 129.911 125.76 131.041V136.529ZM123.345 133.249V132.833H121.841C120.881 132.833 120.401 133.132 120.401 133.729C120.401 134.039 120.513 134.279 120.737 134.449C120.971 134.609 121.302 134.689 121.729 134.689C122.155 134.689 122.529 134.561 122.849 134.305C123.179 134.039 123.345 133.687 123.345 133.249ZM127.888 129.905V127.921H134.832V129.793L130.656 134.529H135.072V136.529H127.584V134.545L131.648 129.905H127.888ZM138.48 139.921C137.638 139.921 136.843 139.58 136.096 138.897L137.184 137.121C137.59 137.516 138.006 137.713 138.432 137.713C138.656 137.713 138.848 137.601 139.008 137.377C139.168 137.164 139.248 136.935 139.248 136.689C139.248 136.444 138.139 133.521 135.92 127.921H138.48L140.576 133.281L142.672 127.921H145.232L141.232 138.065C140.998 138.652 140.63 139.105 140.128 139.425C139.638 139.756 139.088 139.921 138.48 139.921ZM154.289 136.657C153.275 136.657 152.369 136.225 151.569 135.361C150.769 134.497 150.369 133.425 150.369 132.145C150.369 130.865 150.758 129.82 151.537 129.009C152.315 128.188 153.227 127.777 154.273 127.777C155.318 127.777 156.171 128.145 156.833 128.881V124.657H159.233V136.529H156.833V135.393C156.161 136.236 155.313 136.657 154.289 136.657ZM152.785 132.241C152.785 132.935 152.993 133.505 153.409 133.953C153.825 134.391 154.31 134.609 154.865 134.609C155.419 134.609 155.889 134.391 156.273 133.953C156.667 133.505 156.865 132.935 156.865 132.241C156.865 131.537 156.667 130.956 156.273 130.497C155.889 130.028 155.414 129.793 154.849 129.793C154.283 129.793 153.798 130.028 153.393 130.497C152.987 130.967 152.785 131.548 152.785 132.241ZM163.525 132.225C163.525 132.929 163.722 133.505 164.117 133.953C164.522 134.391 165.034 134.609 165.653 134.609C166.282 134.609 166.794 134.391 167.189 133.953C167.594 133.505 167.797 132.929 167.797 132.225C167.797 131.521 167.594 130.945 167.189 130.497C166.794 130.049 166.282 129.825 165.653 129.825C165.034 129.825 164.522 130.049 164.117 130.497C163.722 130.945 163.525 131.521 163.525 132.225ZM170.213 132.225C170.213 133.473 169.781 134.524 168.917 135.377C168.053 136.231 166.965 136.657 165.653 136.657C164.351 136.657 163.269 136.231 162.405 135.377C161.541 134.524 161.109 133.473 161.109 132.225C161.109 130.977 161.541 129.927 162.405 129.073C163.269 128.209 164.351 127.777 165.653 127.777C166.965 127.777 168.053 128.209 168.917 129.073C169.781 129.927 170.213 130.977 170.213 132.225ZM178.127 132.049C178.127 131.356 177.935 130.812 177.551 130.417C177.167 130.023 176.693 129.825 176.127 129.825C175.562 129.825 175.071 130.023 174.655 130.417C174.25 130.812 174.047 131.351 174.047 132.033C174.047 132.716 174.245 133.271 174.639 133.697C175.045 134.113 175.535 134.321 176.111 134.321C176.687 134.321 177.167 134.113 177.551 133.697C177.935 133.281 178.127 132.732 178.127 132.049ZM178.463 135.073C177.706 135.916 176.762 136.337 175.631 136.337C174.511 136.337 173.562 135.959 172.783 135.201C172.015 134.433 171.631 133.415 171.631 132.145C171.631 130.865 172.026 129.82 172.815 129.009C173.615 128.188 174.527 127.777 175.551 127.777C176.575 127.777 177.423 128.199 178.095 129.041V127.905H180.495V135.409C180.495 136.177 180.362 136.86 180.095 137.457C179.829 138.055 179.471 138.524 179.023 138.865C178.138 139.569 177.093 139.921 175.887 139.921C175.247 139.921 174.591 139.815 173.919 139.601C173.258 139.399 172.677 139.105 172.175 138.721L173.103 136.913C173.893 137.511 174.725 137.809 175.599 137.809C176.485 137.809 177.183 137.591 177.695 137.153C178.207 136.716 178.463 136.023 178.463 135.073Z" fill="#252B42"/>
<path d="M45.744 179.929C45.424 180.185 44.992 180.329 44.544 180.329C43.696 180.329 43.216 179.817 43.216 178.905V174.313H45.648V173.049H43.216V171.193H41.68V173.049H40.24V174.313H41.68V178.969C41.68 180.681 42.656 181.625 44.368 181.625C45.056 181.625 45.76 181.433 46.224 181.033L45.744 179.929ZM52.809 172.969C51.513 172.969 50.457 173.433 49.817 174.249V169.657H48.281V181.529H49.817V177.161C49.817 175.321 50.873 174.345 52.505 174.345C53.961 174.345 54.793 175.161 54.793 176.825V181.529H56.329V176.649C56.329 174.153 54.873 172.969 52.809 172.969ZM67.0825 177.337C67.0825 174.729 65.3385 172.969 62.8905 172.969C60.4425 172.969 58.6345 174.777 58.6345 177.289C58.6345 179.817 60.4585 181.625 63.1945 181.625C64.6025 181.625 65.7705 181.145 66.5385 180.249L65.6905 179.257C65.0665 179.945 64.2345 180.281 63.2425 180.281C61.5625 180.281 60.3625 179.289 60.1705 177.801H67.0505C67.0665 177.657 67.0825 177.465 67.0825 177.337ZM62.8905 174.265C64.3785 174.265 65.4505 175.273 65.6105 176.697H60.1705C60.3305 175.257 61.4185 174.265 62.8905 174.265ZM80.4402 173.049V174.393C79.7522 173.449 78.6642 172.969 77.4162 172.969C74.9362 172.969 73.1282 174.697 73.1282 177.289C73.1282 179.897 74.9362 181.625 77.4162 181.625C78.6162 181.625 79.6722 181.161 80.3762 180.249V184.633H81.9122V173.049H80.4402ZM77.5442 180.281C75.9122 180.281 74.6802 179.097 74.6802 177.289C74.6802 175.497 75.9122 174.313 77.5442 174.313C79.1602 174.313 80.3922 175.497 80.3922 177.289C80.3922 179.097 79.1602 180.281 77.5442 180.281ZM91.3865 173.049V177.433C91.3865 179.257 90.3625 180.249 88.7625 180.249C87.3065 180.249 86.4745 179.417 86.4745 177.753V173.049H84.9385V177.929C84.9385 180.425 86.3945 181.625 88.5865 181.625C89.7865 181.625 90.8425 181.129 91.4665 180.249V181.529H92.9225V173.049H91.3865ZM96.8146 171.417C97.4226 171.417 97.8546 170.969 97.8546 170.393C97.8546 169.849 97.4066 169.417 96.8146 169.417C96.2226 169.417 95.7746 169.865 95.7746 170.425C95.7746 170.985 96.2226 171.417 96.8146 171.417ZM96.0466 181.529H97.5826V173.049H96.0466V181.529ZM104.411 181.625C105.931 181.625 107.195 180.985 107.867 179.801L106.699 179.065C106.155 179.897 105.323 180.281 104.395 180.281C102.731 180.281 101.483 179.129 101.483 177.289C101.483 175.481 102.731 174.313 104.395 174.313C105.323 174.313 106.155 174.697 106.699 175.529L107.867 174.777C107.195 173.593 105.931 172.969 104.411 172.969C101.803 172.969 99.9314 174.761 99.9314 177.289C99.9314 179.817 101.803 181.625 104.411 181.625ZM116.427 181.529H118.315L114.395 176.553L117.963 173.049H116.107L111.483 177.273V169.657H109.947V181.529H111.483V179.209L113.243 177.577L116.427 181.529ZM127.607 170.825C128.055 170.825 128.471 170.985 128.791 171.225L129.255 170.057C128.823 169.721 128.183 169.561 127.527 169.561C125.719 169.561 124.727 170.649 124.727 172.297V173.049H123.287V174.313H124.727V181.529H126.263V174.313H128.695V173.049H126.231V172.313C126.231 171.337 126.695 170.825 127.607 170.825ZM133.85 181.625C136.394 181.625 138.25 179.817 138.25 177.289C138.25 174.761 136.394 172.969 133.85 172.969C131.306 172.969 129.434 174.761 129.434 177.289C129.434 179.817 131.306 181.625 133.85 181.625ZM133.85 180.281C132.218 180.281 130.986 179.097 130.986 177.289C130.986 175.481 132.218 174.313 133.85 174.313C135.482 174.313 136.698 175.481 136.698 177.289C136.698 179.097 135.482 180.281 133.85 180.281ZM147.446 181.529L144.07 177.193L147.27 173.049H145.59L143.27 176.105L140.934 173.049H139.222L142.406 177.193L139.062 181.529H140.774L143.254 178.281L145.702 181.529H147.446ZM154.667 171.417C155.275 171.417 155.707 170.969 155.707 170.393C155.707 169.849 155.259 169.417 154.667 169.417C154.075 169.417 153.627 169.865 153.627 170.425C153.627 170.985 154.075 171.417 154.667 171.417ZM152.731 184.729C154.475 184.729 155.435 183.641 155.435 181.913V173.049H153.899V181.945C153.899 182.921 153.451 183.433 152.635 183.433C152.139 183.433 151.691 183.289 151.387 183.033L150.891 184.217C151.323 184.569 152.027 184.729 152.731 184.729ZM164.933 173.049V177.433C164.933 179.257 163.909 180.249 162.309 180.249C160.853 180.249 160.021 179.417 160.021 177.753V173.049H158.485V177.929C158.485 180.425 159.941 181.625 162.133 181.625C163.333 181.625 164.389 181.129 165.013 180.249V181.529H166.469V173.049H164.933ZM180.201 172.969C178.761 172.969 177.577 173.577 176.937 174.537C176.377 173.481 175.289 172.969 173.993 172.969C172.713 172.969 171.673 173.449 171.065 174.313V173.049H169.593V181.529H171.129V177.161C171.129 175.321 172.137 174.345 173.673 174.345C175.065 174.345 175.865 175.161 175.865 176.825V181.529H177.401V177.161C177.401 175.321 178.409 174.345 179.945 174.345C181.337 174.345 182.137 175.161 182.137 176.825V181.529H183.673V176.649C183.673 174.153 182.265 172.969 180.201 172.969ZM191.196 172.969C189.948 172.969 188.86 173.449 188.172 174.393V173.049H186.7V184.633H188.236V180.249C188.94 181.161 189.996 181.625 191.196 181.625C193.676 181.625 195.484 179.897 195.484 177.289C195.484 174.697 193.676 172.969 191.196 172.969ZM191.068 180.281C189.452 180.281 188.22 179.097 188.22 177.289C188.22 175.497 189.452 174.313 191.068 174.313C192.7 174.313 193.932 175.497 193.932 177.289C193.932 179.097 192.7 180.281 191.068 180.281ZM200.238 181.625C202.494 181.625 203.902 180.649 203.902 179.113C203.902 175.817 198.526 177.449 198.526 175.449C198.526 174.777 199.182 174.281 200.526 174.281C201.358 174.281 202.206 174.457 202.974 174.953L203.63 173.737C202.894 173.257 201.646 172.969 200.542 172.969C198.366 172.969 197.006 173.993 197.006 175.513C197.006 178.889 202.366 177.241 202.366 179.145C202.366 179.865 201.774 180.297 200.35 180.297C199.246 180.297 198.094 179.929 197.374 179.417L196.734 180.633C197.438 181.193 198.83 181.625 200.238 181.625ZM45.088 207.625C47.632 207.625 49.488 205.817 49.488 203.289C49.488 200.761 47.632 198.969 45.088 198.969C42.544 198.969 40.672 200.761 40.672 203.289C40.672 205.817 42.544 207.625 45.088 207.625ZM45.088 206.281C43.456 206.281 42.224 205.097 42.224 203.289C42.224 201.481 43.456 200.313 45.088 200.313C46.72 200.313 47.936 201.481 47.936 203.289C47.936 205.097 46.72 206.281 45.088 206.281ZM57.5779 199.049L54.6019 205.849L51.6899 199.049H50.0899L53.8019 207.529H55.3699L59.0819 199.049H57.5779ZM68.145 203.337C68.145 200.729 66.401 198.969 63.953 198.969C61.505 198.969 59.697 200.777 59.697 203.289C59.697 205.817 61.521 207.625 64.257 207.625C65.665 207.625 66.833 207.145 67.601 206.249L66.753 205.257C66.129 205.945 65.297 206.281 64.305 206.281C62.625 206.281 61.425 205.289 61.233 203.801H68.113C68.129 203.657 68.145 203.465 68.145 203.337ZM63.953 200.265C65.441 200.265 66.513 201.273 66.673 202.697H61.233C61.393 201.257 62.481 200.265 63.953 200.265ZM71.9499 200.473V199.049H70.4779V207.529H72.0139V203.305C72.0139 201.449 73.0379 200.441 74.6859 200.441C74.7979 200.441 74.9099 200.441 75.0379 200.457V198.969C73.5499 198.969 72.4939 199.481 71.9499 200.473ZM86.0253 205.929C85.7053 206.185 85.2733 206.329 84.8253 206.329C83.9773 206.329 83.4973 205.817 83.4973 204.905V200.313H85.9293V199.049H83.4973V197.193H81.9613V199.049H80.5213V200.313H81.9613V204.969C81.9613 206.681 82.9373 207.625 84.6493 207.625C85.3373 207.625 86.0413 207.433 86.5053 207.033L86.0253 205.929ZM93.0903 198.969C91.7943 198.969 90.7383 199.433 90.0983 200.249V195.657H88.5623V207.529H90.0983V203.161C90.0983 201.321 91.1543 200.345 92.7863 200.345C94.2423 200.345 95.0743 201.161 95.0743 202.825V207.529H96.6103V202.649C96.6103 200.153 95.1543 198.969 93.0903 198.969ZM107.364 203.337C107.364 200.729 105.62 198.969 103.172 198.969C100.724 198.969 98.9158 200.777 98.9158 203.289C98.9158 205.817 100.74 207.625 103.476 207.625C104.884 207.625 106.052 207.145 106.82 206.249L105.972 205.257C105.348 205.945 104.516 206.281 103.524 206.281C101.844 206.281 100.644 205.289 100.452 203.801H107.332C107.348 203.657 107.364 203.465 107.364 203.337ZM103.172 200.265C104.66 200.265 105.732 201.273 105.892 202.697H100.452C100.612 201.257 101.7 200.265 103.172 200.265ZM114.194 207.529H115.73V195.657H114.194V207.529ZM121.95 198.969C120.59 198.969 119.326 199.353 118.446 200.057L119.086 201.209C119.742 200.649 120.766 200.297 121.774 200.297C123.294 200.297 124.046 201.049 124.046 202.345V202.649H121.614C119.086 202.649 118.206 203.769 118.206 205.129C118.206 206.601 119.422 207.625 121.342 207.625C122.67 207.625 123.614 207.177 124.126 206.409V207.529H125.582V202.409C125.582 200.089 124.27 198.969 121.95 198.969ZM121.598 206.441C120.43 206.441 119.726 205.913 119.726 205.065C119.726 204.345 120.158 203.753 121.678 203.753H124.046V204.937C123.662 205.913 122.75 206.441 121.598 206.441ZM129.777 206.265L134.785 200.057V199.049H127.905V200.313H132.817L127.809 206.537V207.529H134.913V206.265H129.777ZM143.012 199.049L140.084 205.833L137.124 199.049H135.524L139.268 207.513L138.996 208.105C138.58 209.081 138.116 209.417 137.38 209.417C136.804 209.417 136.276 209.193 135.86 208.793L135.204 209.945C135.732 210.457 136.564 210.729 137.38 210.729C138.676 210.729 139.652 210.169 140.404 208.377L144.516 199.049H143.012ZM157.111 195.657V200.329C156.407 199.417 155.351 198.969 154.151 198.969C151.671 198.969 149.863 200.697 149.863 203.289C149.863 205.881 151.671 207.625 154.151 207.625C155.399 207.625 156.487 207.145 157.175 206.185V207.529H158.647V195.657H157.111ZM154.279 206.281C152.647 206.281 151.415 205.097 151.415 203.289C151.415 201.481 152.647 200.313 154.279 200.313C155.895 200.313 157.127 201.481 157.127 203.289C157.127 205.097 155.895 206.281 154.279 206.281ZM165.385 207.625C167.929 207.625 169.785 205.817 169.785 203.289C169.785 200.761 167.929 198.969 165.385 198.969C162.841 198.969 160.969 200.761 160.969 203.289C160.969 205.817 162.841 207.625 165.385 207.625ZM165.385 206.281C163.753 206.281 162.521 205.097 162.521 203.289C162.521 201.481 163.753 200.313 165.385 200.313C167.017 200.313 168.233 201.481 168.233 203.289C168.233 205.097 167.017 206.281 165.385 206.281ZM178.765 199.049V200.361C178.045 199.433 176.893 198.969 175.629 198.969C173.181 198.969 171.325 200.617 171.325 203.065C171.325 205.513 173.181 207.177 175.629 207.177C176.845 207.177 177.949 206.745 178.685 205.865V206.537C178.685 208.457 177.773 209.385 175.773 209.385C174.525 209.385 173.293 208.953 172.509 208.281L171.773 209.465C172.701 210.297 174.269 210.729 175.821 210.729C178.701 210.729 180.221 209.369 180.221 206.377V199.049H178.765ZM175.805 205.833C174.093 205.833 172.877 204.697 172.877 203.065C172.877 201.417 174.093 200.313 175.805 200.313C177.501 200.313 178.717 201.417 178.717 203.065C178.717 204.697 177.501 205.833 175.805 205.833Z" fill="#737373"/>
<rect x="40.5" y="235.029" width="116" height="57" rx="28.5" stroke="#23A6F0"/>
<path d="M79.968 262.369L77.322 267.717H76.02L73.388 262.369V268.529H71.204V258.743H74.158L76.678 264.119L79.212 258.743H82.152V268.529H79.968V262.369ZM86.2314 264.763C86.2314 265.379 86.4041 265.883 86.7494 266.275C87.1041 266.658 87.5521 266.849 88.0934 266.849C88.6441 266.849 89.0921 266.658 89.4374 266.275C89.7921 265.883 89.9694 265.379 89.9694 264.763C89.9694 264.147 89.7921 263.643 89.4374 263.251C89.0921 262.859 88.6441 262.663 88.0934 262.663C87.5521 262.663 87.1041 262.859 86.7494 263.251C86.4041 263.643 86.2314 264.147 86.2314 264.763ZM92.0834 264.763C92.0834 265.855 91.7054 266.775 90.9494 267.521C90.1934 268.268 89.2414 268.641 88.0934 268.641C86.9548 268.641 86.0074 268.268 85.2514 267.521C84.4954 266.775 84.1174 265.855 84.1174 264.763C84.1174 263.671 84.4954 262.752 85.2514 262.005C86.0074 261.249 86.9548 260.871 88.0934 260.871C89.2414 260.871 90.1934 261.249 90.9494 262.005C91.7054 262.752 92.0834 263.671 92.0834 264.763ZM97.8052 262.845C97.1799 262.845 96.7132 263.069 96.4052 263.517C96.0972 263.956 95.9432 264.539 95.9432 265.267V268.529H93.8432V260.997H95.9432V261.991C96.2139 261.683 96.5499 261.422 96.9512 261.207C97.3619 260.993 97.7772 260.881 98.1972 260.871L98.2112 262.845H97.8052ZM106.323 267.437C105.474 268.24 104.475 268.641 103.327 268.641C102.188 268.641 101.246 268.291 100.499 267.591C99.7524 266.882 99.3791 265.935 99.3791 264.749C99.3791 263.564 99.7571 262.621 100.513 261.921C101.278 261.221 102.179 260.871 103.215 260.871C104.251 260.871 105.128 261.184 105.847 261.809C106.575 262.435 106.939 263.293 106.939 264.385V265.505H101.451C101.516 265.916 101.731 266.252 102.095 266.513C102.459 266.775 102.87 266.905 103.327 266.905C104.064 266.905 104.671 266.658 105.147 266.163L106.323 267.437ZM104.811 264.007C104.764 263.559 104.596 263.214 104.307 262.971C104.018 262.729 103.663 262.607 103.243 262.607C102.832 262.607 102.454 262.733 102.109 262.985C101.764 263.237 101.563 263.578 101.507 264.007H104.811Z" fill="#23A6F0"/>
<g clip-path="url(#clip1_688_3285)">
<path fill-rule="evenodd" clip-rule="evenodd" d="M118.181 255.71C118.238 255.653 118.306 255.607 118.381 255.576C118.455 255.545 118.535 255.529 118.616 255.529C118.697 255.529 118.777 255.545 118.852 255.576C118.927 255.607 118.995 255.653 119.052 255.71L126.436 263.094C126.493 263.151 126.539 263.219 126.57 263.294C126.601 263.368 126.617 263.449 126.617 263.529C126.617 263.61 126.601 263.691 126.57 263.765C126.539 263.84 126.493 263.908 126.436 263.965L119.052 271.349C118.937 271.464 118.78 271.529 118.616 271.529C118.453 271.529 118.296 271.464 118.181 271.349C118.065 271.233 118 271.077 118 270.913C118 270.75 118.065 270.593 118.181 270.478L125.13 263.529L118.181 256.581C118.123 256.524 118.078 256.456 118.047 256.382C118.016 256.307 118 256.227 118 256.146C118 256.065 118.016 255.985 118.047 255.91C118.078 255.835 118.123 255.767 118.181 255.71Z" fill="#23A6F0"/>
</g>
<defs>
<clipPath id="clip0_688_3285">
<rect width="48" height="39.5295" fill="white" transform="translate(40 35)"/>
</clipPath>
<clipPath id="clip1_688_3285">
<rect width="9" height="16" fill="white" transform="translate(118 255.529)"/>
</clipPath>
</defs>
</svg>
