<svg width="230" height="201" viewBox="0 0 230 201" fill="none" xmlns="http://www.w3.org/2000/svg">
<rect width="230" height="200.529" fill="white"/>
<g clip-path="url(#clip0_688_3321)">
<path fill-rule="evenodd" clip-rule="evenodd" d="M136.918 68.6668C136.918 68.6668 140.001 68.6668 140.001 65.5557C140.001 62.4446 136.918 53.1113 124.585 53.1113C112.251 53.1113 109.168 62.4446 109.168 65.5557C109.168 68.6668 112.251 68.6668 112.251 68.6668H136.918ZM112.319 65.5557H136.85C136.865 65.554 136.879 65.5519 136.893 65.5495L136.918 65.5433C136.912 64.7219 136.403 62.3388 134.575 60.1922C132.873 58.1793 129.882 56.2224 124.585 56.2224C119.291 56.2224 116.3 58.1824 114.595 60.1922C112.766 62.3388 112.254 64.7251 112.251 65.5433C112.274 65.5477 112.296 65.5518 112.319 65.5557ZM124.585 46.8891C126.22 46.8891 127.789 46.2335 128.945 45.0666C130.102 43.8997 130.751 42.3171 130.751 40.6668C130.751 39.0166 130.102 37.4339 128.945 36.2671C127.789 35.1002 126.22 34.4446 124.585 34.4446C122.949 34.4446 121.381 35.1002 120.224 36.2671C119.068 37.4339 118.418 39.0166 118.418 40.6668C118.418 42.3171 119.068 43.8997 120.224 45.0666C121.381 46.2335 122.949 46.8891 124.585 46.8891ZM133.835 40.6668C133.835 41.8925 133.595 43.1062 133.131 44.2385C132.666 45.3709 131.984 46.3998 131.125 47.2665C130.266 48.1332 129.247 48.8207 128.124 49.2897C127.002 49.7587 125.799 50.0002 124.585 50.0002C123.37 50.0002 122.167 49.7587 121.045 49.2897C119.923 48.8207 118.903 48.1332 118.044 47.2665C117.185 46.3998 116.504 45.3709 116.039 44.2385C115.574 43.1062 115.335 41.8925 115.335 40.6668C115.335 38.1915 116.309 35.8175 118.044 34.0672C119.779 32.3168 122.131 31.3335 124.585 31.3335C127.038 31.3335 129.391 32.3168 131.125 34.0672C132.86 35.8175 133.835 38.1915 133.835 40.6668ZM112.054 53.9824C110.821 53.5905 109.549 53.3329 108.261 53.2139C107.538 53.1445 106.811 53.1103 106.085 53.1113C93.7513 53.1113 90.668 62.4446 90.668 65.5557C90.668 67.6308 91.6947 68.6668 93.7513 68.6668H106.751C106.294 67.6956 106.066 66.6307 106.085 65.5557C106.085 62.4135 107.247 59.2028 109.445 56.521C110.195 55.6064 111.067 54.7508 112.054 53.9824ZM105.838 56.2224C100.695 56.2846 97.7751 58.2135 96.0946 60.1922C94.2539 62.3513 93.7513 64.7437 93.7513 65.5557H103.001C103.001 62.3046 103.997 59.0659 105.838 56.2224ZM95.293 42.2224C95.293 39.747 96.2675 37.3731 98.0022 35.6227C99.7369 33.8724 102.09 32.8891 104.543 32.8891C106.996 32.8891 109.349 33.8724 111.084 35.6227C112.818 37.3731 113.793 39.747 113.793 42.2224C113.793 44.6977 112.818 47.0717 111.084 48.822C109.349 50.5724 106.996 51.5557 104.543 51.5557C102.09 51.5557 99.7369 50.5724 98.0022 48.822C96.2675 47.0717 95.293 44.6977 95.293 42.2224ZM104.543 36.0002C102.907 36.0002 101.339 36.6557 100.182 37.8226C99.026 38.9895 98.3763 40.5721 98.3763 42.2224C98.3763 43.8726 99.026 45.4553 100.182 46.6222C101.339 47.7891 102.907 48.4446 104.543 48.4446C106.178 48.4446 107.747 47.7891 108.903 46.6222C110.06 45.4553 110.71 43.8726 110.71 42.2224C110.71 40.5721 110.06 38.9895 108.903 37.8226C107.747 36.6557 106.178 36.0002 104.543 36.0002Z" fill="#23A6F0"/>
</g>
<path d="M87.18 110.45V105.57H93.18V110.45H96.34V115.85H93.18V122.53H87.18V115.85H75.94V111.09L85.9 94.5695H92.7L83.22 110.45H87.18ZM118.456 94.5695V99.9695H107.416V104.65C108.242 104.41 109.189 104.29 110.256 104.29C112.949 104.29 115.269 105.103 117.216 106.73C119.162 108.356 120.136 110.556 120.136 113.33C120.136 116.076 119.122 118.356 117.096 120.17C115.096 121.956 112.616 122.85 109.656 122.85C105.869 122.85 102.709 121.45 100.176 118.65L103.456 114.09C103.696 114.33 104.016 114.623 104.416 114.97C104.816 115.316 105.549 115.783 106.616 116.37C107.682 116.93 108.749 117.21 109.816 117.21C110.882 117.21 111.829 116.89 112.656 116.25C113.482 115.61 113.896 114.663 113.896 113.41C113.896 112.156 113.442 111.196 112.536 110.53C111.656 109.836 110.509 109.49 109.096 109.49C107.682 109.49 106.042 109.996 104.176 111.01L101.576 108.21V94.5695H118.456ZM151.964 94.5695L131.924 122.53H125.044L145.124 94.5695H151.964ZM145.244 118.69C145.564 119.036 145.964 119.21 146.444 119.21C146.924 119.21 147.324 119.036 147.644 118.69C147.964 118.316 148.124 117.836 148.124 117.25C148.124 116.663 147.964 116.183 147.644 115.81C147.324 115.41 146.924 115.21 146.444 115.21C145.99 115.21 145.604 115.41 145.284 115.81C144.964 116.183 144.804 116.663 144.804 117.25C144.804 117.836 144.95 118.316 145.244 118.69ZM152.364 117.25C152.364 118.823 151.804 120.156 150.684 121.25C149.564 122.316 148.15 122.85 146.444 122.85C144.764 122.85 143.364 122.303 142.244 121.21C141.124 120.116 140.564 118.796 140.564 117.25C140.564 115.676 141.124 114.343 142.244 113.25C143.364 112.156 144.764 111.61 146.444 111.61C148.15 111.61 149.564 112.156 150.684 113.25C151.804 114.343 152.364 115.676 152.364 117.25ZM129.484 102.33C129.804 102.676 130.204 102.85 130.684 102.85C131.164 102.85 131.564 102.676 131.884 102.33C132.204 101.956 132.364 101.476 132.364 100.89C132.364 100.303 132.204 99.8229 131.884 99.4495C131.564 99.0495 131.164 98.8495 130.684 98.8495C130.23 98.8495 129.844 99.0495 129.524 99.4495C129.204 99.8229 129.044 100.303 129.044 100.89C129.044 101.476 129.19 101.956 129.484 102.33ZM136.604 100.89C136.604 102.463 136.044 103.796 134.924 104.89C133.804 105.956 132.39 106.49 130.684 106.49C129.004 106.49 127.604 105.943 126.484 104.85C125.364 103.756 124.804 102.436 124.804 100.89C124.804 99.3162 125.364 97.9829 126.484 96.8895C127.604 95.7962 129.004 95.2495 130.684 95.2495C132.39 95.2495 133.804 95.7962 134.924 96.8895C136.044 97.9829 136.604 99.3162 136.604 100.89Z" fill="#252B42"/>
<path d="M53.4995 162.322C54.7262 162.322 55.7288 161.836 56.5075 160.866L58.1075 162.514C56.8382 163.943 55.3395 164.658 53.6115 164.658C51.8942 164.658 50.4755 164.114 49.3555 163.026C48.2462 161.938 47.6915 160.567 47.6915 158.914C47.6915 157.25 48.2568 155.863 49.3875 154.754C50.5288 153.644 51.9208 153.09 53.5635 153.09C55.3982 153.09 56.9342 153.788 58.1715 155.186L56.6195 156.946C55.8302 155.964 54.8488 155.474 53.6755 155.474C52.7368 155.474 51.9315 155.783 51.2595 156.402C50.5982 157.01 50.2675 157.836 50.2675 158.882C50.2675 159.916 50.5822 160.748 51.2115 161.378C51.8408 162.007 52.6035 162.322 53.4995 162.322ZM67.1605 164.53H64.9045V163.49C64.2858 164.268 63.5178 164.658 62.6005 164.658C61.6938 164.658 60.9312 164.396 60.3125 163.874C59.6938 163.34 59.3845 162.636 59.3845 161.762C59.3845 160.876 59.7045 160.215 60.3445 159.778C60.9845 159.34 61.8592 159.122 62.9685 159.122H64.7605V159.074C64.7605 158.156 64.2752 157.698 63.3045 157.698C62.8885 157.698 62.4458 157.783 61.9765 157.954C61.5178 158.114 61.1285 158.316 60.8085 158.562L59.7365 157.01C60.8672 156.188 62.1578 155.778 63.6085 155.778C64.6538 155.778 65.5072 156.039 66.1685 156.562C66.8298 157.084 67.1605 157.911 67.1605 159.042V164.53ZM64.7445 161.25V160.834H63.2405C62.2805 160.834 61.8005 161.132 61.8005 161.73C61.8005 162.039 61.9125 162.279 62.1365 162.45C62.3712 162.61 62.7018 162.69 63.1285 162.69C63.5552 162.69 63.9285 162.562 64.2485 162.306C64.5792 162.039 64.7445 161.687 64.7445 161.25ZM75.9285 161.858C75.9285 162.7 75.6138 163.378 74.9845 163.89C74.3658 164.402 73.5765 164.658 72.6165 164.658C71.9765 164.658 71.3098 164.546 70.6165 164.322C69.9232 164.087 69.2992 163.746 68.7445 163.298L69.8005 161.794C70.6965 162.487 71.6512 162.834 72.6645 162.834C72.9738 162.834 73.2192 162.775 73.4005 162.658C73.5818 162.53 73.6725 162.364 73.6725 162.162C73.6725 161.959 73.5445 161.772 73.2885 161.602C73.0432 161.431 72.6805 161.271 72.2005 161.122C71.7312 160.972 71.3685 160.844 71.1125 160.738C70.8672 160.631 70.5845 160.476 70.2645 160.274C69.6138 159.868 69.2885 159.271 69.2885 158.482C69.2885 157.682 69.6085 157.031 70.2485 156.53C70.8885 156.028 71.7152 155.778 72.7285 155.778C73.7418 155.778 74.7552 156.119 75.7685 156.802L74.8725 158.402C74.1258 157.89 73.3792 157.634 72.6325 157.634C71.8965 157.634 71.5285 157.836 71.5285 158.242C71.5285 158.466 71.6458 158.642 71.8805 158.77C72.1152 158.898 72.5045 159.047 73.0485 159.218C73.5925 159.388 73.9765 159.522 74.2005 159.618C74.4352 159.703 74.7125 159.842 75.0325 160.034C75.6298 160.396 75.9285 161.004 75.9285 161.858ZM85.317 163.282C84.3463 164.199 83.205 164.658 81.893 164.658C80.5917 164.658 79.5143 164.258 78.661 163.458C77.8077 162.647 77.381 161.564 77.381 160.21C77.381 158.855 77.813 157.778 78.677 156.978C79.5517 156.178 80.581 155.778 81.765 155.778C82.949 155.778 83.9517 156.135 84.773 156.85C85.605 157.564 86.021 158.546 86.021 159.794V161.074H79.749C79.8237 161.543 80.069 161.927 80.485 162.226C80.901 162.524 81.3703 162.674 81.893 162.674C82.7357 162.674 83.429 162.391 83.973 161.826L85.317 163.282ZM83.589 159.362C83.5357 158.85 83.3437 158.455 83.013 158.178C82.6823 157.9 82.277 157.762 81.797 157.762C81.3277 157.762 80.8957 157.906 80.501 158.194C80.1063 158.482 79.877 158.871 79.813 159.362H83.589ZM94.3316 161.858C94.3316 162.7 94.017 163.378 93.3876 163.89C92.769 164.402 91.9796 164.658 91.0196 164.658C90.3796 164.658 89.713 164.546 89.0196 164.322C88.3263 164.087 87.7023 163.746 87.1476 163.298L88.2036 161.794C89.0996 162.487 90.0543 162.834 91.0676 162.834C91.377 162.834 91.6223 162.775 91.8036 162.658C91.985 162.53 92.0756 162.364 92.0756 162.162C92.0756 161.959 91.9476 161.772 91.6916 161.602C91.4463 161.431 91.0836 161.271 90.6036 161.122C90.1343 160.972 89.7716 160.844 89.5156 160.738C89.2703 160.631 88.9876 160.476 88.6676 160.274C88.017 159.868 87.6916 159.271 87.6916 158.482C87.6916 157.682 88.0116 157.031 88.6516 156.53C89.2916 156.028 90.1183 155.778 91.1316 155.778C92.145 155.778 93.1583 156.119 94.1716 156.802L93.2756 158.402C92.529 157.89 91.7823 157.634 91.0356 157.634C90.2996 157.634 89.9316 157.836 89.9316 158.242C89.9316 158.466 90.049 158.642 90.2836 158.77C90.5183 158.898 90.9076 159.047 91.4516 159.218C91.9956 159.388 92.3796 159.522 92.6036 159.618C92.8383 159.703 93.1156 159.842 93.4356 160.034C94.033 160.396 94.3316 161.004 94.3316 161.858ZM104.775 153.346C106.77 153.346 108.3 153.836 109.367 154.818C110.434 155.788 110.967 157.143 110.967 158.882C110.967 160.62 110.444 161.996 109.399 163.01C108.364 164.023 106.78 164.53 104.647 164.53H100.823V153.346H104.775ZM104.903 162.322C106.044 162.322 106.919 162.034 107.527 161.458C108.146 160.882 108.455 160.044 108.455 158.946C108.455 157.847 108.146 157.004 107.527 156.418C106.919 155.82 105.98 155.522 104.711 155.522H103.319V162.322H104.903ZM115.286 164.53H112.886V155.922H115.286V164.53ZM113.078 154.834C112.811 154.556 112.678 154.22 112.678 153.826C112.678 153.431 112.811 153.1 113.078 152.834C113.355 152.556 113.691 152.418 114.086 152.418C114.481 152.418 114.811 152.556 115.078 152.834C115.355 153.1 115.494 153.431 115.494 153.826C115.494 154.22 115.355 154.556 115.078 154.834C114.811 155.1 114.481 155.234 114.086 155.234C113.691 155.234 113.355 155.1 113.078 154.834ZM124.138 161.858C124.138 162.7 123.823 163.378 123.194 163.89C122.575 164.402 121.786 164.658 120.826 164.658C120.186 164.658 119.519 164.546 118.826 164.322C118.133 164.087 117.509 163.746 116.954 163.298L118.01 161.794C118.906 162.487 119.861 162.834 120.874 162.834C121.183 162.834 121.429 162.775 121.61 162.658C121.791 162.53 121.882 162.364 121.882 162.162C121.882 161.959 121.754 161.772 121.498 161.602C121.253 161.431 120.89 161.271 120.41 161.122C119.941 160.972 119.578 160.844 119.322 160.738C119.077 160.631 118.794 160.476 118.474 160.274C117.823 159.868 117.498 159.271 117.498 158.482C117.498 157.682 117.818 157.031 118.458 156.53C119.098 156.028 119.925 155.778 120.938 155.778C121.951 155.778 122.965 156.119 123.978 156.802L123.082 158.402C122.335 157.89 121.589 157.634 120.842 157.634C120.106 157.634 119.738 157.836 119.738 158.242C119.738 158.466 119.855 158.642 120.09 158.77C120.325 158.898 120.714 159.047 121.258 159.218C121.802 159.388 122.186 159.522 122.41 159.618C122.645 159.703 122.922 159.842 123.242 160.034C123.839 160.396 124.138 161.004 124.138 161.858ZM133.974 159.89V164.53H131.558V159.826C131.558 159.143 131.452 158.642 131.238 158.322C131.036 158.002 130.7 157.842 130.23 157.842C129.772 157.842 129.361 158.018 128.998 158.37C128.646 158.711 128.47 159.218 128.47 159.89V164.53H126.07V155.922H128.47V156.898C129.132 156.151 129.889 155.778 130.742 155.778C131.286 155.778 131.777 155.938 132.214 156.258C132.662 156.578 132.998 156.967 133.222 157.426C133.553 156.903 133.996 156.498 134.55 156.21C135.116 155.922 135.681 155.778 136.246 155.778C137.26 155.778 138.076 156.082 138.694 156.69C139.313 157.287 139.622 158.156 139.622 159.298V164.53H137.206V159.826C137.206 158.503 136.721 157.842 135.75 157.842C135.27 157.842 134.854 158.018 134.502 158.37C134.15 158.711 133.974 159.218 133.974 159.89ZM144.305 164.53H141.905V155.922H144.305V164.53ZM142.097 154.834C141.83 154.556 141.697 154.22 141.697 153.826C141.697 153.431 141.83 153.1 142.097 152.834C142.374 152.556 142.71 152.418 143.105 152.418C143.499 152.418 143.83 152.556 144.097 152.834C144.374 153.1 144.513 153.431 144.513 153.826C144.513 154.22 144.374 154.556 144.097 154.834C143.83 155.1 143.499 155.234 143.105 155.234C142.71 155.234 142.374 155.1 142.097 154.834ZM153.157 161.858C153.157 162.7 152.842 163.378 152.213 163.89C151.594 164.402 150.805 164.658 149.845 164.658C149.205 164.658 148.538 164.546 147.845 164.322C147.151 164.087 146.527 163.746 145.973 163.298L147.029 161.794C147.925 162.487 148.879 162.834 149.893 162.834C150.202 162.834 150.447 162.775 150.629 162.658C150.81 162.53 150.901 162.364 150.901 162.162C150.901 161.959 150.773 161.772 150.517 161.602C150.271 161.431 149.909 161.271 149.429 161.122C148.959 160.972 148.597 160.844 148.341 160.738C148.095 160.631 147.813 160.476 147.493 160.274C146.842 159.868 146.517 159.271 146.517 158.482C146.517 157.682 146.837 157.031 147.477 156.53C148.117 156.028 148.943 155.778 149.957 155.778C150.97 155.778 151.983 156.119 152.997 156.802L152.101 158.402C151.354 157.89 150.607 157.634 149.861 157.634C149.125 157.634 148.757 157.836 148.757 158.242C148.757 158.466 148.874 158.642 149.109 158.77C149.343 158.898 149.733 159.047 150.277 159.218C150.821 159.388 151.205 159.522 151.429 159.618C151.663 159.703 151.941 159.842 152.261 160.034C152.858 160.396 153.157 161.004 153.157 161.858ZM161.569 161.858C161.569 162.7 161.254 163.378 160.625 163.89C160.006 164.402 159.217 164.658 158.257 164.658C157.617 164.658 156.95 164.546 156.257 164.322C155.564 164.087 154.94 163.746 154.385 163.298L155.441 161.794C156.337 162.487 157.292 162.834 158.305 162.834C158.614 162.834 158.86 162.775 159.041 162.658C159.222 162.53 159.313 162.364 159.313 162.162C159.313 161.959 159.185 161.772 158.929 161.602C158.684 161.431 158.321 161.271 157.841 161.122C157.372 160.972 157.009 160.844 156.753 160.738C156.508 160.631 156.225 160.476 155.905 160.274C155.254 159.868 154.929 159.271 154.929 158.482C154.929 157.682 155.249 157.031 155.889 156.53C156.529 156.028 157.356 155.778 158.369 155.778C159.382 155.778 160.396 156.119 161.409 156.802L160.513 158.402C159.766 157.89 159.02 157.634 158.273 157.634C157.537 157.634 157.169 157.836 157.169 158.242C157.169 158.466 157.286 158.642 157.521 158.77C157.756 158.898 158.145 159.047 158.689 159.218C159.233 159.388 159.617 159.522 159.841 159.618C160.076 159.703 160.353 159.842 160.673 160.034C161.27 160.396 161.569 161.004 161.569 161.858ZM170.958 163.282C169.987 164.199 168.846 164.658 167.534 164.658C166.232 164.658 165.155 164.258 164.302 163.458C163.448 162.647 163.022 161.564 163.022 160.21C163.022 158.855 163.454 157.778 164.318 156.978C165.192 156.178 166.222 155.778 167.406 155.778C168.59 155.778 169.592 156.135 170.414 156.85C171.246 157.564 171.662 158.546 171.662 159.794V161.074H165.39C165.464 161.543 165.71 161.927 166.126 162.226C166.542 162.524 167.011 162.674 167.534 162.674C168.376 162.674 169.07 162.391 169.614 161.826L170.958 163.282ZM169.23 159.362C169.176 158.85 168.984 158.455 168.654 158.178C168.323 157.9 167.918 157.762 167.438 157.762C166.968 157.762 166.536 157.906 166.142 158.194C165.747 158.482 165.518 158.871 165.454 159.362H169.23ZM176.932 164.658C175.919 164.658 175.012 164.226 174.212 163.362C173.412 162.498 173.012 161.426 173.012 160.146C173.012 158.866 173.402 157.82 174.18 157.01C174.959 156.188 175.871 155.778 176.916 155.778C177.962 155.778 178.815 156.146 179.476 156.882V152.658H181.876V164.53H179.476V163.394C178.804 164.236 177.956 164.658 176.932 164.658ZM175.428 160.242C175.428 160.935 175.636 161.506 176.052 161.954C176.468 162.391 176.954 162.61 177.508 162.61C178.063 162.61 178.532 162.391 178.916 161.954C179.311 161.506 179.508 160.935 179.508 160.242C179.508 159.538 179.311 158.956 178.916 158.498C178.532 158.028 178.058 157.794 177.492 157.794C176.927 157.794 176.442 158.028 176.036 158.498C175.631 158.967 175.428 159.548 175.428 160.242Z" fill="#737373"/>
<defs>
<clipPath id="clip0_688_3321">
<rect width="48" height="39.5295" fill="white" transform="translate(91 30)"/>
</clipPath>
</defs>
</svg>
