<svg width="333" height="199" viewBox="0 0 333 199" fill="none" xmlns="http://www.w3.org/2000/svg">
<rect width="333" height="199" rx="9" fill="white"/>
<g clip-path="url(#clip0_688_3388)">
<g clip-path="url(#clip1_688_3388)">
<path fill-rule="evenodd" clip-rule="evenodd" d="M32.6808 25.1808C32.7379 25.1235 32.8058 25.078 32.8806 25.047C32.9553 25.016 33.0355 25 33.1164 25C33.1973 25 33.2775 25.016 33.3522 25.047C33.427 25.078 33.4949 25.1235 33.5521 25.1808L40.9358 32.5645C40.9931 32.6217 41.0386 32.6896 41.0696 32.7643C41.1006 32.8391 41.1166 32.9192 41.1166 33.0002C41.1166 33.0811 41.1006 33.1612 41.0696 33.236C41.0386 33.3107 40.9931 33.3786 40.9358 33.4358L33.5521 40.8196C33.4365 40.9351 33.2798 41 33.1164 41C32.953 41 32.7963 40.9351 32.6808 40.8196C32.5652 40.704 32.5003 40.5473 32.5003 40.3839C32.5003 40.2205 32.5652 40.0638 32.6808 39.9483L39.6301 33.0002L32.6808 26.0521C32.6235 25.9949 32.578 25.927 32.547 25.8522C32.516 25.7775 32.5 25.6973 32.5 25.6164C32.5 25.5355 32.516 25.4553 32.547 25.3806C32.578 25.3058 32.6235 25.2379 32.6808 25.1808Z" fill="#23A6F0"/>
</g>
<path d="M65.5 36.12V39.976C65.5 40.3067 65.5853 40.568 65.756 40.76C65.9267 40.9413 66.1293 41.032 66.364 41.032C66.812 41.032 67.1907 40.8293 67.5 40.424L68.396 42.104C67.6493 42.7867 66.86 43.128 66.028 43.128C65.2067 43.128 64.508 42.856 63.932 42.312C63.3667 41.768 63.084 41.0267 63.084 40.088V36.12H62.076V34.392H63.084V31.816H65.5V34.392H67.58V36.12H65.5ZM72.1829 38.36V43H69.7829V31.128H72.1829V35.352C72.9082 34.616 73.7189 34.248 74.6149 34.248C75.5215 34.248 76.2842 34.568 76.9029 35.208C77.5215 35.848 77.8309 36.7013 77.8309 37.768V43H75.4309V38.296C75.4309 36.9733 74.9455 36.312 73.9749 36.312C73.4949 36.312 73.0735 36.488 72.7109 36.84C72.3589 37.1813 72.1829 37.688 72.1829 38.36ZM87.5576 41.752C86.587 42.6693 85.4456 43.128 84.1336 43.128C82.8323 43.128 81.755 42.728 80.9016 41.928C80.0483 41.1173 79.6216 40.0347 79.6216 38.68C79.6216 37.3253 80.0536 36.248 80.9176 35.448C81.7923 34.648 82.8216 34.248 84.0056 34.248C85.1896 34.248 86.1923 34.6053 87.0136 35.32C87.8456 36.0347 88.2616 37.016 88.2616 38.264V39.544H81.9896C82.0643 40.0133 82.3096 40.3973 82.7256 40.696C83.1416 40.9947 83.611 41.144 84.1336 41.144C84.9763 41.144 85.6696 40.8613 86.2136 40.296L87.5576 41.752ZM85.8296 37.832C85.7763 37.32 85.5843 36.9253 85.2536 36.648C84.923 36.3707 84.5176 36.232 84.0376 36.232C83.5683 36.232 83.1363 36.376 82.7416 36.664C82.347 36.952 82.1176 37.3413 82.0536 37.832H85.8296ZM98.043 43.128C96.9443 43.128 95.9843 42.7173 95.163 41.896C94.3417 41.064 93.931 40.0027 93.931 38.712C93.931 37.4107 94.331 36.344 95.131 35.512C95.931 34.6693 96.8217 34.248 97.803 34.248C98.7843 34.248 99.643 34.616 100.379 35.352V34.392H102.795V46.104H100.379V42.312C99.6963 42.856 98.9177 43.128 98.043 43.128ZM96.347 38.712C96.347 39.4053 96.555 39.976 96.971 40.424C97.387 40.8613 97.8723 41.08 98.427 41.08C98.9817 41.08 99.451 40.8613 99.835 40.424C100.219 39.976 100.411 39.4053 100.411 38.712C100.411 38.008 100.219 37.4267 99.835 36.968C99.451 36.4987 98.9763 36.264 98.411 36.264C97.8457 36.264 97.3603 36.4987 96.955 36.968C96.5497 37.4267 96.347 38.008 96.347 38.712ZM110.719 39.032V34.392H113.135V43H110.719V41.864C110.122 42.7067 109.349 43.128 108.399 43.128C107.461 43.128 106.671 42.8347 106.031 42.248C105.391 41.6507 105.071 40.7707 105.071 39.608V34.392H107.487V39.08C107.487 40.4027 107.973 41.064 108.943 41.064C109.423 41.064 109.839 40.8933 110.191 40.552C110.543 40.2 110.719 39.6933 110.719 39.032ZM117.902 43H115.502V34.392H117.902V43ZM115.694 33.304C115.427 33.0267 115.294 32.6907 115.294 32.296C115.294 31.9013 115.427 31.5707 115.694 31.304C115.971 31.0267 116.307 30.888 116.702 30.888C117.096 30.888 117.427 31.0267 117.694 31.304C117.971 31.5707 118.11 31.9013 118.11 32.296C118.11 32.6907 117.971 33.0267 117.694 33.304C117.427 33.5707 117.096 33.704 116.702 33.704C116.307 33.704 115.971 33.5707 115.694 33.304ZM124.402 41C125.202 41 125.922 40.6 126.562 39.8L127.986 41.4C126.876 42.552 125.676 43.128 124.386 43.128C123.095 43.128 122.002 42.7227 121.106 41.912C120.22 41.0907 119.778 40.024 119.778 38.712C119.778 37.3893 120.226 36.3173 121.122 35.496C122.028 34.664 123.1 34.248 124.338 34.248C124.956 34.248 125.58 34.376 126.21 34.632C126.85 34.888 127.41 35.2667 127.89 35.768L126.642 37.4C126.364 37.0693 126.023 36.8133 125.618 36.632C125.223 36.4507 124.828 36.36 124.434 36.36C123.804 36.36 123.26 36.568 122.802 36.984C122.354 37.3893 122.13 37.96 122.13 38.696C122.13 39.4213 122.354 39.9867 122.802 40.392C123.26 40.7973 123.794 41 124.402 41ZM132.086 43H129.686V31.128H132.086V37.224L134.758 34.376H137.782L134.502 37.864L137.91 43H135.062L132.87 39.704L132.086 40.52V43ZM146.484 33.896V34.472H148.564V36.2H146.484V43H144.068V36.2H143.06V34.472H144.068V33.944C144.068 33.0053 144.351 32.264 144.916 31.72C145.492 31.1653 146.202 30.888 147.044 30.888C147.898 30.888 148.671 31.208 149.364 31.848L148.5 33.464C148.148 33.0587 147.759 32.856 147.332 32.856C147.087 32.856 146.884 32.9467 146.724 33.128C146.564 33.2987 146.484 33.5547 146.484 33.896ZM151.875 38.696C151.875 39.4 152.072 39.976 152.467 40.424C152.872 40.8613 153.384 41.08 154.003 41.08C154.632 41.08 155.144 40.8613 155.539 40.424C155.944 39.976 156.147 39.4 156.147 38.696C156.147 37.992 155.944 37.416 155.539 36.968C155.144 36.52 154.632 36.296 154.003 36.296C153.384 36.296 152.872 36.52 152.467 36.968C152.072 37.416 151.875 37.992 151.875 38.696ZM158.563 38.696C158.563 39.944 158.131 40.9947 157.267 41.848C156.403 42.7013 155.315 43.128 154.003 43.128C152.701 43.128 151.619 42.7013 150.755 41.848C149.891 40.9947 149.459 39.944 149.459 38.696C149.459 37.448 149.891 36.3973 150.755 35.544C151.619 34.68 152.701 34.248 154.003 34.248C155.315 34.248 156.403 34.68 157.267 35.544C158.131 36.3973 158.563 37.448 158.563 38.696ZM162.182 34.392L163.654 36.696L165.174 34.392H167.99L165.03 38.6L168.102 43H165.238L163.558 40.632L161.926 43H159.158L162.166 38.616L159.318 34.392H162.182ZM174.68 43.16V34.376H177.08V43.352C177.08 44.2907 176.792 45.032 176.216 45.576C175.651 46.12 174.952 46.392 174.12 46.392C173.299 46.392 172.515 46.0507 171.768 45.368L172.872 43.592C173.192 43.9653 173.549 44.152 173.944 44.152C174.157 44.152 174.333 44.0667 174.472 43.896C174.611 43.736 174.68 43.4907 174.68 43.16ZM174.872 33.304C174.605 33.0267 174.472 32.6907 174.472 32.296C174.472 31.9013 174.605 31.5707 174.872 31.304C175.149 31.0267 175.485 30.888 175.88 30.888C176.275 30.888 176.605 31.0267 176.872 31.304C177.149 31.5707 177.288 31.9013 177.288 32.296C177.288 32.6907 177.149 33.0267 176.872 33.304C176.605 33.5707 176.275 33.704 175.88 33.704C175.485 33.704 175.149 33.5707 174.872 33.304ZM185.001 39.032V34.392H187.417V43H185.001V41.864C184.403 42.7067 183.63 43.128 182.681 43.128C181.742 43.128 180.953 42.8347 180.312 42.248C179.673 41.6507 179.353 40.7707 179.353 39.608V34.392H181.769V39.08C181.769 40.4027 182.254 41.064 183.225 41.064C183.705 41.064 184.121 40.8933 184.473 40.552C184.825 40.2 185.001 39.6933 185.001 39.032ZM197.687 38.36V43H195.271V38.296C195.271 37.6133 195.164 37.112 194.951 36.792C194.748 36.472 194.412 36.312 193.943 36.312C193.484 36.312 193.074 36.488 192.711 36.84C192.359 37.1813 192.183 37.688 192.183 38.36V43H189.783V34.392H192.183V35.368C192.844 34.6213 193.602 34.248 194.455 34.248C194.999 34.248 195.49 34.408 195.927 34.728C196.375 35.048 196.711 35.4373 196.935 35.896C197.266 35.3733 197.708 34.968 198.263 34.68C198.828 34.392 199.394 34.248 199.959 34.248C200.972 34.248 201.788 34.552 202.407 35.16C203.026 35.7573 203.335 36.6267 203.335 37.768V43H200.919V38.296C200.919 36.9733 200.434 36.312 199.463 36.312C198.983 36.312 198.567 36.488 198.215 36.84C197.863 37.1813 197.687 37.688 197.687 38.36ZM210.625 34.248C211.628 34.248 212.519 34.6693 213.297 35.512C214.087 36.344 214.481 37.3947 214.481 38.664C214.481 39.9333 214.087 40.9947 213.297 41.848C212.519 42.7013 211.601 43.128 210.545 43.128C209.5 43.128 208.657 42.7067 208.017 41.864V46.104H205.617V34.392H208.017V35.352C208.753 34.616 209.623 34.248 210.625 34.248ZM207.985 38.712C207.985 39.4053 208.177 39.976 208.561 40.424C208.956 40.8613 209.431 41.08 209.985 41.08C210.54 41.08 211.025 40.8613 211.441 40.424C211.857 39.976 212.065 39.4053 212.065 38.712C212.065 38.0187 211.863 37.4373 211.457 36.968C211.052 36.4987 210.567 36.264 210.001 36.264C209.436 36.264 208.956 36.4987 208.561 36.968C208.177 37.4267 207.985 38.008 207.985 38.712ZM222.775 40.328C222.775 41.1707 222.461 41.848 221.831 42.36C221.213 42.872 220.423 43.128 219.463 43.128C218.823 43.128 218.157 43.016 217.463 42.792C216.77 42.5573 216.146 42.216 215.591 41.768L216.647 40.264C217.543 40.9573 218.498 41.304 219.511 41.304C219.821 41.304 220.066 41.2453 220.247 41.128C220.429 41 220.519 40.8347 220.519 40.632C220.519 40.4293 220.391 40.2427 220.135 40.072C219.89 39.9013 219.527 39.7413 219.047 39.592C218.578 39.4427 218.215 39.3147 217.959 39.208C217.714 39.1013 217.431 38.9467 217.111 38.744C216.461 38.3387 216.135 37.7413 216.135 36.952C216.135 36.152 216.455 35.5013 217.095 35C217.735 34.4987 218.562 34.248 219.575 34.248C220.589 34.248 221.602 34.5893 222.615 35.272L221.719 36.872C220.973 36.36 220.226 36.104 219.479 36.104C218.743 36.104 218.375 36.3067 218.375 36.712C218.375 36.936 218.493 37.112 218.727 37.24C218.962 37.368 219.351 37.5173 219.895 37.688C220.439 37.8587 220.823 37.992 221.047 38.088C221.282 38.1733 221.559 38.312 221.879 38.504C222.477 38.8667 222.775 39.4747 222.775 40.328ZM230.947 38.696C230.947 39.4 231.144 39.976 231.539 40.424C231.944 40.8613 232.456 41.08 233.075 41.08C233.704 41.08 234.216 40.8613 234.611 40.424C235.016 39.976 235.219 39.4 235.219 38.696C235.219 37.992 235.016 37.416 234.611 36.968C234.216 36.52 233.704 36.296 233.075 36.296C232.456 36.296 231.944 36.52 231.539 36.968C231.144 37.416 230.947 37.992 230.947 38.696ZM237.635 38.696C237.635 39.944 237.203 40.9947 236.339 41.848C235.475 42.7013 234.387 43.128 233.075 43.128C231.773 43.128 230.691 42.7013 229.827 41.848C228.963 40.9947 228.531 39.944 228.531 38.696C228.531 37.448 228.963 36.3973 229.827 35.544C230.691 34.68 231.773 34.248 233.075 34.248C234.387 34.248 235.475 34.68 236.339 35.544C237.203 36.3973 237.635 37.448 237.635 38.696ZM241.65 43L238.242 34.376H240.738L242.882 39.8L245.026 34.376H247.522L244.114 43H241.65ZM256.261 41.752C255.29 42.6693 254.149 43.128 252.837 43.128C251.535 43.128 250.458 42.728 249.605 41.928C248.751 41.1173 248.325 40.0347 248.325 38.68C248.325 37.3253 248.757 36.248 249.621 35.448C250.495 34.648 251.525 34.248 252.709 34.248C253.893 34.248 254.895 34.6053 255.717 35.32C256.549 36.0347 256.965 37.016 256.965 38.264V39.544H250.693C250.767 40.0133 251.013 40.3973 251.429 40.696C251.845 40.9947 252.314 41.144 252.837 41.144C253.679 41.144 254.373 40.8613 254.917 40.296L256.261 41.752ZM254.533 37.832C254.479 37.32 254.287 36.9253 253.957 36.648C253.626 36.3707 253.221 36.232 252.741 36.232C252.271 36.232 251.839 36.376 251.445 36.664C251.05 36.952 250.821 37.3413 250.757 37.832H254.533ZM263.323 36.504C262.609 36.504 262.075 36.76 261.723 37.272C261.371 37.7733 261.195 38.44 261.195 39.272V43H258.795V34.392H261.195V35.528C261.505 35.176 261.889 34.8773 262.347 34.632C262.817 34.3867 263.291 34.2587 263.771 34.248L263.787 36.504H263.323ZM272.656 36.12V39.976C272.656 40.3067 272.742 40.568 272.912 40.76C273.083 40.9413 273.286 41.032 273.52 41.032C273.968 41.032 274.347 40.8293 274.656 40.424L275.552 42.104C274.806 42.7867 274.016 43.128 273.184 43.128C272.363 43.128 271.664 42.856 271.088 42.312C270.523 41.768 270.24 41.0267 270.24 40.088V36.12H269.232V34.392H270.24V31.816H272.656V34.392H274.736V36.12H272.656ZM279.339 38.36V43H276.939V31.128H279.339V35.352C280.064 34.616 280.875 34.248 281.771 34.248C282.678 34.248 283.44 34.568 284.059 35.208C284.678 35.848 284.987 36.7013 284.987 37.768V43H282.587V38.296C282.587 36.9733 282.102 36.312 281.131 36.312C280.651 36.312 280.23 36.488 279.867 36.84C279.515 37.1813 279.339 37.688 279.339 38.36ZM294.714 41.752C293.743 42.6693 292.602 43.128 291.29 43.128C289.989 43.128 288.911 42.728 288.058 41.928C287.205 41.1173 286.778 40.0347 286.778 38.68C286.778 37.3253 287.21 36.248 288.074 35.448C288.949 34.648 289.978 34.248 291.162 34.248C292.346 34.248 293.349 34.6053 294.17 35.32C295.002 36.0347 295.418 37.016 295.418 38.264V39.544H289.146C289.221 40.0133 289.466 40.3973 289.882 40.696C290.298 40.9947 290.767 41.144 291.29 41.144C292.133 41.144 292.826 40.8613 293.37 40.296L294.714 41.752ZM292.986 37.832C292.933 37.32 292.741 36.9253 292.41 36.648C292.079 36.3707 291.674 36.232 291.194 36.232C290.725 36.232 290.293 36.376 289.898 36.664C289.503 36.952 289.274 37.3413 289.21 37.832H292.986ZM65.036 67H62.636V55.128H65.036V67ZM74.7199 67H72.4639V65.96C71.8452 66.7387 71.0772 67.128 70.1599 67.128C69.2532 67.128 68.4905 66.8667 67.8719 66.344C67.2532 65.8107 66.9439 65.1067 66.9439 64.232C66.9439 63.3467 67.2639 62.6853 67.9039 62.248C68.5439 61.8107 69.4185 61.592 70.5279 61.592H72.3199V61.544C72.3199 60.6267 71.8345 60.168 70.8639 60.168C70.4479 60.168 70.0052 60.2533 69.5359 60.424C69.0772 60.584 68.6879 60.7867 68.3679 61.032L67.2959 59.48C68.4265 58.6587 69.7172 58.248 71.1679 58.248C72.2132 58.248 73.0665 58.5093 73.7279 59.032C74.3892 59.5547 74.7199 60.3813 74.7199 61.512V67ZM72.3039 63.72V63.304H70.7999C69.8399 63.304 69.3599 63.6027 69.3599 64.2C69.3599 64.5093 69.4719 64.7493 69.6959 64.92C69.9305 65.08 70.2612 65.16 70.6879 65.16C71.1145 65.16 71.4879 65.032 71.8079 64.776C72.1385 64.5093 72.3039 64.1573 72.3039 63.72ZM76.8479 60.376V58.392H83.7919V60.264L79.6159 65H84.0319V67H76.5439V65.016L80.6079 60.376H76.8479ZM87.4396 70.392C86.597 70.392 85.8023 70.0507 85.0556 69.368L86.1436 67.592C86.549 67.9867 86.965 68.184 87.3916 68.184C87.6156 68.184 87.8076 68.072 87.9676 67.848C88.1276 67.6347 88.2076 67.4053 88.2076 67.16C88.2076 66.9147 87.0983 63.992 84.8796 58.392H87.4396L89.5356 63.752L91.6316 58.392H94.1916L90.1916 68.536C89.957 69.1227 89.589 69.576 89.0876 69.896C88.597 70.2267 88.0476 70.392 87.4396 70.392ZM103.248 67.128C102.235 67.128 101.328 66.696 100.528 65.832C99.7279 64.968 99.3279 63.896 99.3279 62.616C99.3279 61.336 99.7172 60.2907 100.496 59.48C101.275 58.6587 102.187 58.248 103.232 58.248C104.277 58.248 105.131 58.616 105.792 59.352V55.128H108.192V67H105.792V65.864C105.12 66.7067 104.272 67.128 103.248 67.128ZM101.744 62.712C101.744 63.4053 101.952 63.976 102.368 64.424C102.784 64.8613 103.269 65.08 103.824 65.08C104.379 65.08 104.848 64.8613 105.232 64.424C105.627 63.976 105.824 63.4053 105.824 62.712C105.824 62.008 105.627 61.4267 105.232 60.968C104.848 60.4987 104.373 60.264 103.808 60.264C103.243 60.264 102.757 60.4987 102.352 60.968C101.947 61.4373 101.744 62.0187 101.744 62.712ZM112.484 62.696C112.484 63.4 112.681 63.976 113.076 64.424C113.481 64.8613 113.993 65.08 114.612 65.08C115.241 65.08 115.753 64.8613 116.148 64.424C116.553 63.976 116.756 63.4 116.756 62.696C116.756 61.992 116.553 61.416 116.148 60.968C115.753 60.52 115.241 60.296 114.612 60.296C113.993 60.296 113.481 60.52 113.076 60.968C112.681 61.416 112.484 61.992 112.484 62.696ZM119.172 62.696C119.172 63.944 118.74 64.9947 117.876 65.848C117.012 66.7013 115.924 67.128 114.612 67.128C113.311 67.128 112.228 66.7013 111.364 65.848C110.5 64.9947 110.068 63.944 110.068 62.696C110.068 61.448 110.5 60.3973 111.364 59.544C112.228 58.68 113.311 58.248 114.612 58.248C115.924 58.248 117.012 58.68 117.876 59.544C118.74 60.3973 119.172 61.448 119.172 62.696ZM127.087 62.52C127.087 61.8267 126.895 61.2827 126.511 60.888C126.127 60.4933 125.652 60.296 125.087 60.296C124.521 60.296 124.031 60.4933 123.615 60.888C123.209 61.2827 123.007 61.8213 123.007 62.504C123.007 63.1867 123.204 63.7413 123.599 64.168C124.004 64.584 124.495 64.792 125.071 64.792C125.647 64.792 126.127 64.584 126.511 64.168C126.895 63.752 127.087 63.2027 127.087 62.52ZM127.423 65.544C126.665 66.3867 125.721 66.808 124.591 66.808C123.471 66.808 122.521 66.4293 121.743 65.672C120.975 64.904 120.591 63.8853 120.591 62.616C120.591 61.336 120.985 60.2907 121.775 59.48C122.575 58.6587 123.487 58.248 124.511 58.248C125.535 58.248 126.383 58.6693 127.055 59.512V58.376H129.455V65.88C129.455 66.648 129.321 67.3307 129.055 67.928C128.788 68.5253 128.431 68.9947 127.983 69.336C127.097 70.04 126.052 70.392 124.847 70.392C124.207 70.392 123.551 70.2853 122.879 70.072C122.217 69.8693 121.636 69.576 121.135 69.192L122.063 67.384C122.852 67.9813 123.684 68.28 124.559 68.28C125.444 68.28 126.143 68.0613 126.655 67.624C127.167 67.1867 127.423 66.4933 127.423 65.544Z" fill="#252B42"/>
<path d="M64.804 95H66.624V86.74H69.872V85.2H61.556V86.74H64.804V95ZM75.5119 87.44C74.4759 87.44 73.5939 87.776 73.0199 88.392V84.612H71.2699V95H73.0199V91.22C73.0199 89.722 73.8599 88.966 75.1059 88.966C76.2259 88.966 76.8839 89.61 76.8839 90.94V95H78.6339V90.716C78.6339 88.462 77.3039 87.44 75.5119 87.44ZM81.9359 86.292C82.5939 86.292 83.0559 85.816 83.0559 85.2C83.0559 84.626 82.5799 84.192 81.9359 84.192C81.2919 84.192 80.8159 84.654 80.8159 85.242C80.8159 85.83 81.2919 86.292 81.9359 86.292ZM81.0539 95H82.8039V87.524H81.0539V95ZM89.5427 87.44C88.4507 87.44 87.5407 87.804 86.9667 88.49V87.524H85.3007V95H87.0507V91.22C87.0507 89.722 87.8907 88.966 89.1367 88.966C90.2567 88.966 90.9147 89.61 90.9147 90.94V95H92.6647V90.716C92.6647 88.462 91.3347 87.44 89.5427 87.44ZM100.907 87.524V88.518C100.291 87.776 99.3671 87.44 98.3171 87.44C96.1751 87.44 94.5371 88.868 94.5371 91.038C94.5371 93.208 96.1751 94.664 98.3171 94.664C99.3251 94.664 100.207 94.342 100.823 93.67V94.062C100.823 95.574 100.095 96.33 98.4431 96.33C97.4071 96.33 96.3431 95.98 95.6851 95.434L94.9011 96.75C95.7551 97.45 97.1411 97.814 98.5411 97.814C101.159 97.814 102.573 96.582 102.573 93.866V87.524H100.907ZM98.5831 93.18C97.2531 93.18 96.3011 92.312 96.3011 91.038C96.3011 89.778 97.2531 88.924 98.5831 88.924C99.8991 88.924 100.851 89.778 100.851 91.038C100.851 92.312 99.8991 93.18 98.5831 93.18ZM107.384 95.098C109.484 95.098 110.772 94.188 110.772 92.788C110.772 89.862 106.152 91.206 106.152 89.694C106.152 89.204 106.656 88.854 107.72 88.854C108.434 88.854 109.148 88.994 109.862 89.414L110.534 88.084C109.862 87.678 108.728 87.44 107.734 87.44C105.718 87.44 104.444 88.364 104.444 89.778C104.444 92.76 109.064 91.416 109.064 92.844C109.064 93.362 108.602 93.67 107.496 93.67C106.558 93.67 105.55 93.362 104.892 92.928L104.22 94.258C104.892 94.734 106.138 95.098 107.384 95.098ZM119.908 95.098C122.232 95.098 123.898 93.502 123.898 91.262C123.898 89.022 122.232 87.44 119.908 87.44C117.612 87.44 115.932 89.022 115.932 91.262C115.932 93.502 117.612 95.098 119.908 95.098ZM119.908 93.6C118.648 93.6 117.696 92.69 117.696 91.262C117.696 89.834 118.648 88.924 119.908 88.924C121.182 88.924 122.134 89.834 122.134 91.262C122.134 92.69 121.182 93.6 119.908 93.6ZM130.013 87.44C128.921 87.44 128.011 87.804 127.437 88.49V87.524H125.771V95H127.521V91.22C127.521 89.722 128.361 88.966 129.607 88.966C130.727 88.966 131.385 89.61 131.385 90.94V95H133.135V90.716C133.135 88.462 131.805 87.44 130.013 87.44ZM142.481 87.44C141.277 87.44 140.115 87.748 139.317 88.364L140.003 89.638C140.563 89.176 141.431 88.896 142.271 88.896C143.517 88.896 144.133 89.498 144.133 90.52V90.632H142.201C139.933 90.632 139.093 91.612 139.093 92.858C139.093 94.16 140.171 95.098 141.879 95.098C142.999 95.098 143.811 94.734 144.231 94.09V95H145.883V90.618C145.883 88.462 144.637 87.44 142.481 87.44ZM142.243 93.824C141.347 93.824 140.815 93.418 140.815 92.788C140.815 92.242 141.137 91.794 142.327 91.794H144.133V92.662C143.839 93.432 143.097 93.824 142.243 93.824ZM157.718 87.524L155.324 93.068L153 87.524H151.18L154.386 95H156.192L159.398 87.524H157.718ZM167.514 91.304C167.514 88.966 165.918 87.44 163.734 87.44C161.508 87.44 159.87 89.036 159.87 91.262C159.87 93.488 161.494 95.098 164 95.098C165.288 95.098 166.338 94.678 167.01 93.88L166.072 92.802C165.54 93.348 164.882 93.614 164.042 93.614C162.74 93.614 161.83 92.914 161.62 91.822H167.486C167.5 91.654 167.514 91.444 167.514 91.304ZM163.734 88.84C164.882 88.84 165.708 89.582 165.848 90.66H161.606C161.774 89.568 162.6 88.84 163.734 88.84ZM171.061 88.616V87.524H169.395V95H171.145V91.374C171.145 89.848 171.985 89.064 173.315 89.064C173.441 89.064 173.567 89.078 173.721 89.106V87.44C172.475 87.44 171.565 87.832 171.061 88.616ZM180.999 87.524L178.633 93.054L176.281 87.524H174.461L177.723 95.028L177.597 95.322C177.261 96.064 176.897 96.358 176.281 96.358C175.805 96.358 175.329 96.162 174.993 95.84L174.293 97.128C174.769 97.562 175.553 97.814 176.295 97.814C177.541 97.814 178.493 97.296 179.179 95.602L182.679 87.524H180.999ZM190.352 95.098C192.452 95.098 193.74 94.188 193.74 92.788C193.74 89.862 189.12 91.206 189.12 89.694C189.12 89.204 189.624 88.854 190.688 88.854C191.402 88.854 192.116 88.994 192.83 89.414L193.502 88.084C192.83 87.678 191.696 87.44 190.702 87.44C188.686 87.44 187.412 88.364 187.412 89.778C187.412 92.76 192.032 91.416 192.032 92.844C192.032 93.362 191.57 93.67 190.464 93.67C189.526 93.67 188.518 93.362 187.86 92.928L187.188 94.258C187.86 94.734 189.106 95.098 190.352 95.098ZM204.883 87.44C203.693 87.44 202.685 87.916 202.083 88.686C201.565 87.846 200.655 87.44 199.563 87.44C198.541 87.44 197.673 87.804 197.113 88.476V87.524H195.447V95H197.197V91.206C197.197 89.722 197.981 88.966 199.143 88.966C200.207 88.966 200.823 89.61 200.823 90.94V95H202.573V91.206C202.573 89.722 203.371 88.966 204.519 88.966C205.583 88.966 206.199 89.61 206.199 90.94V95H207.949V90.716C207.949 88.462 206.689 87.44 204.883 87.44ZM213.242 87.44C212.038 87.44 210.876 87.748 210.078 88.364L210.764 89.638C211.324 89.176 212.192 88.896 213.032 88.896C214.278 88.896 214.894 89.498 214.894 90.52V90.632H212.962C210.694 90.632 209.854 91.612 209.854 92.858C209.854 94.16 210.932 95.098 212.64 95.098C213.76 95.098 214.572 94.734 214.992 94.09V95H216.644V90.618C216.644 88.462 215.398 87.44 213.242 87.44ZM213.004 93.824C212.108 93.824 211.576 93.418 211.576 92.788C211.576 92.242 211.898 91.794 213.088 91.794H214.894V92.662C214.6 93.432 213.858 93.824 213.004 93.824ZM219.089 95H220.839V84.612H219.089V95ZM223.336 95H225.086V84.612H223.336V95ZM233.962 95.098C236.062 95.098 237.35 94.188 237.35 92.788C237.35 89.862 232.73 91.206 232.73 89.694C232.73 89.204 233.234 88.854 234.298 88.854C235.012 88.854 235.726 88.994 236.44 89.414L237.112 88.084C236.44 87.678 235.306 87.44 234.312 87.44C232.296 87.44 231.022 88.364 231.022 89.778C231.022 92.76 235.642 91.416 235.642 92.844C235.642 93.362 235.18 93.67 234.074 93.67C233.136 93.67 232.128 93.362 231.47 92.928L230.798 94.258C231.47 94.734 232.716 95.098 233.962 95.098ZM242.487 95.098C243.943 95.098 245.105 94.468 245.679 93.348L244.335 92.564C243.887 93.278 243.215 93.6 242.473 93.6C241.185 93.6 240.205 92.718 240.205 91.262C240.205 89.82 241.185 88.924 242.473 88.924C243.215 88.924 243.887 89.246 244.335 89.96L245.679 89.176C245.105 88.042 243.943 87.44 242.487 87.44C240.121 87.44 238.441 89.022 238.441 91.262C238.441 93.502 240.121 95.098 242.487 95.098ZM250.248 87.44C249.044 87.44 247.882 87.748 247.084 88.364L247.77 89.638C248.33 89.176 249.198 88.896 250.038 88.896C251.284 88.896 251.9 89.498 251.9 90.52V90.632H249.968C247.7 90.632 246.86 91.612 246.86 92.858C246.86 94.16 247.938 95.098 249.646 95.098C250.766 95.098 251.578 94.734 251.998 94.09V95H253.65V90.618C253.65 88.462 252.404 87.44 250.248 87.44ZM250.01 93.824C249.114 93.824 248.582 93.418 248.582 92.788C248.582 92.242 248.904 91.794 250.094 91.794H251.9V92.662C251.606 93.432 250.864 93.824 250.01 93.824ZM256.096 95H257.846V84.612H256.096V95ZM267.371 91.304C267.371 88.966 265.775 87.44 263.591 87.44C261.365 87.44 259.727 89.036 259.727 91.262C259.727 93.488 261.351 95.098 263.857 95.098C265.145 95.098 266.195 94.678 266.867 93.88L265.929 92.802C265.397 93.348 264.739 93.614 263.899 93.614C262.597 93.614 261.687 92.914 261.477 91.822H267.343C267.357 91.654 267.371 91.444 267.371 91.304ZM263.591 88.84C264.739 88.84 265.565 89.582 265.705 90.66H261.463C261.631 89.568 262.457 88.84 263.591 88.84ZM66.792 111.44C65.84 111.44 65 111.762 64.398 112.434V108.612H62.648V119H64.314V118.034C64.902 118.748 65.77 119.098 66.792 119.098C68.976 119.098 70.586 117.586 70.586 115.262C70.586 112.938 68.976 111.44 66.792 111.44ZM66.596 117.6C65.336 117.6 64.37 116.69 64.37 115.262C64.37 113.834 65.336 112.924 66.596 112.924C67.856 112.924 68.808 113.834 68.808 115.262C68.808 116.69 67.856 117.6 66.596 117.6ZM79.4737 115.304C79.4737 112.966 77.8777 111.44 75.6937 111.44C73.4677 111.44 71.8297 113.036 71.8297 115.262C71.8297 117.488 73.4537 119.098 75.9597 119.098C77.2477 119.098 78.2977 118.678 78.9697 117.88L78.0317 116.802C77.4997 117.348 76.8417 117.614 76.0017 117.614C74.6997 117.614 73.7897 116.914 73.5797 115.822H79.4457C79.4597 115.654 79.4737 115.444 79.4737 115.304ZM75.6937 112.84C76.8417 112.84 77.6677 113.582 77.8077 114.66H73.5657C73.7337 113.568 74.5597 112.84 75.6937 112.84ZM85.5966 111.44C84.5606 111.44 83.6786 111.776 83.1046 112.392V108.612H81.3546V119H83.1046V115.22C83.1046 113.722 83.9446 112.966 85.1906 112.966C86.3106 112.966 86.9686 113.61 86.9686 114.94V119H88.7186V114.716C88.7186 112.462 87.3886 111.44 85.5966 111.44ZM93.9946 111.44C92.7906 111.44 91.6286 111.748 90.8306 112.364L91.5166 113.638C92.0766 113.176 92.9446 112.896 93.7846 112.896C95.0306 112.896 95.6466 113.498 95.6466 114.52V114.632H93.7146C91.4466 114.632 90.6066 115.612 90.6066 116.858C90.6066 118.16 91.6846 119.098 93.3926 119.098C94.5126 119.098 95.3246 118.734 95.7446 118.09V119H97.3966V114.618C97.3966 112.462 96.1506 111.44 93.9946 111.44ZM93.7566 117.824C92.8606 117.824 92.3286 117.418 92.3286 116.788C92.3286 116.242 92.6506 115.794 93.8406 115.794H95.6466V116.662C95.3526 117.432 94.6106 117.824 93.7566 117.824ZM105.026 111.524L102.632 117.068L100.308 111.524H98.4878L101.694 119H103.5L106.706 111.524H105.026ZM114.822 115.304C114.822 112.966 113.226 111.44 111.042 111.44C108.816 111.44 107.178 113.036 107.178 115.262C107.178 117.488 108.802 119.098 111.308 119.098C112.596 119.098 113.646 118.678 114.318 117.88L113.38 116.802C112.848 117.348 112.19 117.614 111.35 117.614C110.048 117.614 109.138 116.914 108.928 115.822H114.794C114.808 115.654 114.822 115.444 114.822 115.304ZM111.042 112.84C112.19 112.84 113.016 113.582 113.156 114.66H108.914C109.082 113.568 109.908 112.84 111.042 112.84ZM120.773 119H122.523V108.612H120.773V119ZM125.901 110.292C126.559 110.292 127.021 109.816 127.021 109.2C127.021 108.626 126.545 108.192 125.901 108.192C125.257 108.192 124.781 108.654 124.781 109.242C124.781 109.83 125.257 110.292 125.901 110.292ZM125.019 119H126.769V111.524H125.019V119ZM134.908 119H137.036L133.62 114.66L136.742 111.524H134.642L131.016 114.884V108.612H129.266V119H131.016V117.026L132.318 115.794L134.908 119ZM145.08 115.304C145.08 112.966 143.484 111.44 141.3 111.44C139.074 111.44 137.436 113.036 137.436 115.262C137.436 117.488 139.06 119.098 141.566 119.098C142.854 119.098 143.904 118.678 144.576 117.88L143.638 116.802C143.106 117.348 142.448 117.614 141.608 117.614C140.306 117.614 139.396 116.914 139.186 115.822H145.052C145.066 115.654 145.08 115.444 145.08 115.304ZM141.3 112.84C142.448 112.84 143.274 113.582 143.414 114.66H139.172C139.34 113.568 140.166 112.84 141.3 112.84ZM155.272 111.44C154.18 111.44 153.27 111.804 152.696 112.49V111.524H151.03V119H152.78V115.22C152.78 113.722 153.62 112.966 154.866 112.966C155.986 112.966 156.644 113.61 156.644 114.94V119H158.394V114.716C158.394 112.462 157.064 111.44 155.272 111.44ZM164.243 119.098C166.567 119.098 168.233 117.502 168.233 115.262C168.233 113.022 166.567 111.44 164.243 111.44C161.947 111.44 160.267 113.022 160.267 115.262C160.267 117.502 161.947 119.098 164.243 119.098ZM164.243 117.6C162.983 117.6 162.031 116.69 162.031 115.262C162.031 113.834 162.983 112.924 164.243 112.924C165.517 112.924 166.469 113.834 166.469 115.262C166.469 116.69 165.517 117.6 164.243 117.6ZM174.11 117.348C173.844 117.558 173.494 117.656 173.13 117.656C172.458 117.656 172.094 117.264 172.094 116.536V112.98H174.096V111.58H172.094V109.872H170.344V111.58H169.112V112.98H170.344V116.578C170.344 118.23 171.282 119.098 172.92 119.098C173.55 119.098 174.18 118.93 174.6 118.594L174.11 117.348ZM180.482 111.44C179.446 111.44 178.564 111.776 177.99 112.392V108.612H176.24V119H177.99V115.22C177.99 113.722 178.83 112.966 180.076 112.966C181.196 112.966 181.854 113.61 181.854 114.94V119H183.604V114.716C183.604 112.462 182.274 111.44 180.482 111.44ZM186.906 110.292C187.564 110.292 188.026 109.816 188.026 109.2C188.026 108.626 187.55 108.192 186.906 108.192C186.262 108.192 185.786 108.654 185.786 109.242C185.786 109.83 186.262 110.292 186.906 110.292ZM186.024 119H187.774V111.524H186.024V119ZM194.513 111.44C193.421 111.44 192.511 111.804 191.937 112.49V111.524H190.271V119H192.021V115.22C192.021 113.722 192.861 112.966 194.107 112.966C195.227 112.966 195.885 113.61 195.885 114.94V119H197.635V114.716C197.635 112.462 196.305 111.44 194.513 111.44ZM205.877 111.524V112.518C205.261 111.776 204.337 111.44 203.287 111.44C201.145 111.44 199.507 112.868 199.507 115.038C199.507 117.208 201.145 118.664 203.287 118.664C204.295 118.664 205.177 118.342 205.793 117.67V118.062C205.793 119.574 205.065 120.33 203.413 120.33C202.377 120.33 201.313 119.98 200.655 119.434L199.871 120.75C200.725 121.45 202.111 121.814 203.511 121.814C206.129 121.814 207.543 120.582 207.543 117.866V111.524H205.877ZM203.553 117.18C202.223 117.18 201.271 116.312 201.271 115.038C201.271 113.778 202.223 112.924 203.553 112.924C204.869 112.924 205.821 113.778 205.821 115.038C205.821 116.312 204.869 117.18 203.553 117.18ZM218.117 117.348C217.851 117.558 217.501 117.656 217.137 117.656C216.465 117.656 216.101 117.264 216.101 116.536V112.98H218.103V111.58H216.101V109.872H214.351V111.58H213.119V112.98H214.351V116.578C214.351 118.23 215.289 119.098 216.927 119.098C217.557 119.098 218.187 118.93 218.607 118.594L218.117 117.348ZM224.488 111.44C223.452 111.44 222.57 111.776 221.996 112.392V108.612H220.246V119H221.996V115.22C221.996 113.722 222.836 112.966 224.082 112.966C225.202 112.966 225.86 113.61 225.86 114.94V119H227.61V114.716C227.61 112.462 226.28 111.44 224.488 111.44ZM232.886 111.44C231.682 111.44 230.52 111.748 229.722 112.364L230.408 113.638C230.968 113.176 231.836 112.896 232.676 112.896C233.922 112.896 234.538 113.498 234.538 114.52V114.632H232.606C230.338 114.632 229.498 115.612 229.498 116.858C229.498 118.16 230.576 119.098 232.284 119.098C233.404 119.098 234.216 118.734 234.636 118.09V119H236.288V114.618C236.288 112.462 235.042 111.44 232.886 111.44ZM232.648 117.824C231.752 117.824 231.22 117.418 231.22 116.788C231.22 116.242 231.542 115.794 232.732 115.794H234.538V116.662C234.244 117.432 233.502 117.824 232.648 117.824ZM242.738 117.348C242.472 117.558 242.122 117.656 241.758 117.656C241.086 117.656 240.722 117.264 240.722 116.536V112.98H242.724V111.58H240.722V109.872H238.972V111.58H237.74V112.98H238.972V116.578C238.972 118.23 239.91 119.098 241.548 119.098C242.178 119.098 242.808 118.93 243.228 118.594L242.738 117.348ZM254.257 111.524L251.891 117.054L249.539 111.524H247.719L250.981 119.028L250.855 119.322C250.519 120.064 250.155 120.358 249.539 120.358C249.063 120.358 248.587 120.162 248.251 119.84L247.551 121.128C248.027 121.562 248.811 121.814 249.553 121.814C250.799 121.814 251.751 121.296 252.437 119.602L255.937 111.524H254.257ZM260.386 119.098C262.71 119.098 264.376 117.502 264.376 115.262C264.376 113.022 262.71 111.44 260.386 111.44C258.09 111.44 256.41 113.022 256.41 115.262C256.41 117.502 258.09 119.098 260.386 119.098ZM260.386 117.6C259.126 117.6 258.174 116.69 258.174 115.262C258.174 113.834 259.126 112.924 260.386 112.924C261.66 112.924 262.612 113.834 262.612 115.262C262.612 116.69 261.66 117.6 260.386 117.6ZM271.737 111.524V115.304C271.737 116.802 270.911 117.558 269.693 117.558C268.587 117.558 267.943 116.914 267.943 115.556V111.524H266.193V115.794C266.193 118.048 267.495 119.098 269.413 119.098C270.379 119.098 271.261 118.734 271.821 118.048V119H273.487V111.524H271.737ZM66.89 135.44C65.854 135.44 64.972 135.776 64.398 136.392V132.612H62.648V143H64.398V139.22C64.398 137.722 65.238 136.966 66.484 136.966C67.604 136.966 68.262 137.61 68.262 138.94V143H70.012V138.716C70.012 136.462 68.682 135.44 66.89 135.44ZM75.288 135.44C74.084 135.44 72.922 135.748 72.124 136.364L72.81 137.638C73.37 137.176 74.238 136.896 75.078 136.896C76.324 136.896 76.94 137.498 76.94 138.52V138.632H75.008C72.74 138.632 71.9 139.612 71.9 140.858C71.9 142.16 72.978 143.098 74.686 143.098C75.806 143.098 76.618 142.734 77.038 142.09V143H78.69V138.618C78.69 136.462 77.444 135.44 75.288 135.44ZM75.05 141.824C74.154 141.824 73.622 141.418 73.622 140.788C73.622 140.242 73.944 139.794 75.134 139.794H76.94V140.662C76.646 141.432 75.904 141.824 75.05 141.824ZM86.3192 135.524L83.9252 141.068L81.6012 135.524H79.7812L82.9872 143H84.7932L87.9992 135.524H86.3192ZM96.1158 139.304C96.1158 136.966 94.5198 135.44 92.3358 135.44C90.1098 135.44 88.4718 137.036 88.4718 139.262C88.4718 141.488 90.0958 143.098 92.6018 143.098C93.8898 143.098 94.9398 142.678 95.6118 141.88L94.6738 140.802C94.1418 141.348 93.4838 141.614 92.6438 141.614C91.3418 141.614 90.4318 140.914 90.2218 139.822H96.0878C96.1018 139.654 96.1158 139.444 96.1158 139.304ZM92.3358 136.84C93.4838 136.84 94.3098 137.582 94.4498 138.66H90.2078C90.3758 137.568 91.2018 136.84 92.3358 136.84ZM104.922 135.44C103.718 135.44 102.556 135.748 101.758 136.364L102.444 137.638C103.004 137.176 103.872 136.896 104.712 136.896C105.958 136.896 106.574 137.498 106.574 138.52V138.632H104.642C102.374 138.632 101.534 139.612 101.534 140.858C101.534 142.16 102.612 143.098 104.32 143.098C105.44 143.098 106.252 142.734 106.672 142.09V143H108.324V138.618C108.324 136.462 107.078 135.44 104.922 135.44ZM104.684 141.824C103.788 141.824 103.256 141.418 103.256 140.788C103.256 140.242 103.578 139.794 104.768 139.794H106.574V140.662C106.28 141.432 105.538 141.824 104.684 141.824ZM115.012 135.44C113.92 135.44 113.01 135.804 112.436 136.49V135.524H110.77V143H112.52V139.22C112.52 137.722 113.36 136.966 114.606 136.966C115.726 136.966 116.384 137.61 116.384 138.94V143H118.134V138.716C118.134 136.462 116.804 135.44 115.012 135.44ZM125.737 135.524L123.371 141.054L121.019 135.524H119.199L122.461 143.028L122.335 143.322C121.999 144.064 121.635 144.358 121.019 144.358C120.543 144.358 120.067 144.162 119.731 143.84L119.031 145.128C119.507 145.562 120.291 145.814 121.033 145.814C122.279 145.814 123.231 145.296 123.917 143.602L127.417 135.524H125.737ZM138.352 132.612V136.448C137.764 135.762 136.91 135.44 135.944 135.44C133.774 135.44 132.164 136.938 132.164 139.262C132.164 141.586 133.774 143.098 135.944 143.098C136.966 143.098 137.834 142.748 138.422 142.034V143H140.102V132.612H138.352ZM136.154 141.6C134.894 141.6 133.928 140.69 133.928 139.262C133.928 137.834 134.894 136.924 136.154 136.924C137.414 136.924 138.38 137.834 138.38 139.262C138.38 140.69 137.414 141.6 136.154 141.6ZM143.473 134.292C144.131 134.292 144.593 133.816 144.593 133.2C144.593 132.626 144.117 132.192 143.473 132.192C142.829 132.192 142.353 132.654 142.353 133.242C142.353 133.83 142.829 134.292 143.473 134.292ZM142.591 143H144.341V135.524H142.591V143ZM148.504 136.616V135.524H146.838V143H148.588V139.374C148.588 137.848 149.428 137.064 150.758 137.064C150.884 137.064 151.01 137.078 151.164 137.106V135.44C149.918 135.44 149.008 135.832 148.504 136.616ZM159.808 139.304C159.808 136.966 158.212 135.44 156.028 135.44C153.802 135.44 152.164 137.036 152.164 139.262C152.164 141.488 153.788 143.098 156.294 143.098C157.582 143.098 158.632 142.678 159.304 141.88L158.366 140.802C157.834 141.348 157.176 141.614 156.336 141.614C155.034 141.614 154.124 140.914 153.914 139.822H159.78C159.794 139.654 159.808 139.444 159.808 139.304ZM156.028 136.84C157.176 136.84 158.002 137.582 158.142 138.66H153.9C154.068 137.568 154.894 136.84 156.028 136.84ZM165.119 143.098C166.575 143.098 167.737 142.468 168.311 141.348L166.967 140.564C166.519 141.278 165.847 141.6 165.105 141.6C163.817 141.6 162.837 140.718 162.837 139.262C162.837 137.82 163.817 136.924 165.105 136.924C165.847 136.924 166.519 137.246 166.967 137.96L168.311 137.176C167.737 136.042 166.575 135.44 165.119 135.44C162.753 135.44 161.073 137.022 161.073 139.262C161.073 141.502 162.753 143.098 165.119 143.098ZM174.124 141.348C173.858 141.558 173.508 141.656 173.144 141.656C172.472 141.656 172.108 141.264 172.108 140.536V136.98H174.11V135.58H172.108V133.872H170.358V135.58H169.126V136.98H170.358V140.578C170.358 142.23 171.296 143.098 172.934 143.098C173.564 143.098 174.194 142.93 174.614 142.594L174.124 141.348ZM187.351 139.304C187.351 136.966 185.755 135.44 183.571 135.44C181.345 135.44 179.707 137.036 179.707 139.262C179.707 141.488 181.331 143.098 183.837 143.098C185.125 143.098 186.175 142.678 186.847 141.88L185.909 140.802C185.377 141.348 184.719 141.614 183.879 141.614C182.577 141.614 181.667 140.914 181.457 139.822H187.323C187.337 139.654 187.351 139.444 187.351 139.304ZM183.571 136.84C184.719 136.84 185.545 137.582 185.685 138.66H181.443C181.611 137.568 182.437 136.84 183.571 136.84ZM195.761 143L192.835 139.178L195.635 135.524H193.745L191.911 137.974L190.077 135.524H188.131L190.917 139.206L188.005 143H189.937L191.869 140.41L193.787 143H195.761ZM201.396 135.44C200.374 135.44 199.506 135.79 198.918 136.504V135.524H197.252V145.716H199.002V142.09C199.604 142.776 200.444 143.098 201.396 143.098C203.58 143.098 205.19 141.586 205.19 139.262C205.19 136.952 203.58 135.44 201.396 135.44ZM201.2 141.6C199.94 141.6 198.974 140.69 198.974 139.262C198.974 137.834 199.94 136.924 201.2 136.924C202.46 136.924 203.412 137.834 203.412 139.262C203.412 140.69 202.46 141.6 201.2 141.6ZM214.078 139.304C214.078 136.966 212.482 135.44 210.298 135.44C208.072 135.44 206.434 137.036 206.434 139.262C206.434 141.488 208.058 143.098 210.564 143.098C211.852 143.098 212.902 142.678 213.574 141.88L212.636 140.802C212.104 141.348 211.446 141.614 210.606 141.614C209.304 141.614 208.394 140.914 208.184 139.822H214.05C214.064 139.654 214.078 139.444 214.078 139.304ZM210.298 136.84C211.446 136.84 212.272 137.582 212.412 138.66H208.17C208.338 137.568 209.164 136.84 210.298 136.84ZM217.625 136.616V135.524H215.959V143H217.709V139.374C217.709 137.848 218.549 137.064 219.879 137.064C220.005 137.064 220.131 137.078 220.285 137.106V135.44C219.039 135.44 218.129 135.832 217.625 136.616ZM222.851 134.292C223.509 134.292 223.971 133.816 223.971 133.2C223.971 132.626 223.495 132.192 222.851 132.192C222.207 132.192 221.731 132.654 221.731 133.242C221.731 133.83 222.207 134.292 222.851 134.292ZM221.969 143H223.719V135.524H221.969V143ZM233.244 139.304C233.244 136.966 231.648 135.44 229.464 135.44C227.238 135.44 225.6 137.036 225.6 139.262C225.6 141.488 227.224 143.098 229.73 143.098C231.018 143.098 232.068 142.678 232.74 141.88L231.802 140.802C231.27 141.348 230.612 141.614 229.772 141.614C228.47 141.614 227.56 140.914 227.35 139.822H233.216C233.23 139.654 233.244 139.444 233.244 139.304ZM229.464 136.84C230.612 136.84 231.438 137.582 231.578 138.66H227.336C227.504 137.568 228.33 136.84 229.464 136.84ZM239.367 135.44C238.275 135.44 237.365 135.804 236.791 136.49V135.524H235.125V143H236.875V139.22C236.875 137.722 237.715 136.966 238.961 136.966C240.081 136.966 240.739 137.61 240.739 138.94V143H242.489V138.716C242.489 136.462 241.159 135.44 239.367 135.44ZM248.407 143.098C249.863 143.098 251.025 142.468 251.599 141.348L250.255 140.564C249.807 141.278 249.135 141.6 248.393 141.6C247.105 141.6 246.125 140.718 246.125 139.262C246.125 137.82 247.105 136.924 248.393 136.924C249.135 136.924 249.807 137.246 250.255 137.96L251.599 137.176C251.025 136.042 249.863 135.44 248.407 135.44C246.041 135.44 244.361 137.022 244.361 139.262C244.361 141.502 246.041 143.098 248.407 143.098ZM260.231 139.304C260.231 136.966 258.635 135.44 256.451 135.44C254.225 135.44 252.587 137.036 252.587 139.262C252.587 141.488 254.211 143.098 256.717 143.098C258.005 143.098 259.055 142.678 259.727 141.88L258.789 140.802C258.257 141.348 257.599 141.614 256.759 141.614C255.457 141.614 254.547 140.914 254.337 139.822H260.203C260.217 139.654 260.231 139.444 260.231 139.304ZM256.451 136.84C257.599 136.84 258.425 137.582 258.565 138.66H254.323C254.491 137.568 255.317 136.84 256.451 136.84ZM65.504 159.44C64.3 159.44 63.138 159.748 62.34 160.364L63.026 161.638C63.586 161.176 64.454 160.896 65.294 160.896C66.54 160.896 67.156 161.498 67.156 162.52V162.632H65.224C62.956 162.632 62.116 163.612 62.116 164.858C62.116 166.16 63.194 167.098 64.902 167.098C66.022 167.098 66.834 166.734 67.254 166.09V167H68.906V162.618C68.906 160.462 67.66 159.44 65.504 159.44ZM65.266 165.824C64.37 165.824 63.838 165.418 63.838 164.788C63.838 164.242 64.16 163.794 65.35 163.794H67.156V164.662C66.862 165.432 66.12 165.824 65.266 165.824ZM75.4959 159.44C74.5439 159.44 73.7039 159.762 73.1019 160.434V156.612H71.3519V167H73.0179V166.034C73.6059 166.748 74.4739 167.098 75.4959 167.098C77.6799 167.098 79.2899 165.586 79.2899 163.262C79.2899 160.938 77.6799 159.44 75.4959 159.44ZM75.2999 165.6C74.0399 165.6 73.0739 164.69 73.0739 163.262C73.0739 161.834 74.0399 160.924 75.2999 160.924C76.5599 160.924 77.5119 161.834 77.5119 163.262C77.5119 164.69 76.5599 165.6 75.2999 165.6ZM84.5096 167.098C86.8336 167.098 88.4996 165.502 88.4996 163.262C88.4996 161.022 86.8336 159.44 84.5096 159.44C82.2136 159.44 80.5336 161.022 80.5336 163.262C80.5336 165.502 82.2136 167.098 84.5096 167.098ZM84.5096 165.6C83.2496 165.6 82.2976 164.69 82.2976 163.262C82.2976 161.834 83.2496 160.924 84.5096 160.924C85.7836 160.924 86.7356 161.834 86.7356 163.262C86.7356 164.69 85.7836 165.6 84.5096 165.6ZM95.861 159.524V163.304C95.861 164.802 95.035 165.558 93.817 165.558C92.711 165.558 92.067 164.914 92.067 163.556V159.524H90.317V163.794C90.317 166.048 91.619 167.098 93.537 167.098C94.503 167.098 95.385 166.734 95.945 166.048V167H97.611V159.524H95.861ZM104.106 165.348C103.84 165.558 103.49 165.656 103.126 165.656C102.454 165.656 102.09 165.264 102.09 164.536V160.98H104.092V159.58H102.09V157.872H100.34V159.58H99.1083V160.98H100.34V164.578C100.34 166.23 101.278 167.098 102.916 167.098C103.546 167.098 104.176 166.93 104.596 166.594L104.106 165.348ZM106.933 167.098C107.563 167.098 108.081 166.608 108.081 165.936C108.081 165.236 107.563 164.774 106.933 164.774C106.303 164.774 105.785 165.236 105.785 165.936C105.785 166.608 106.303 167.098 106.933 167.098Z" fill="#737373"/>
</g>
<defs>
<clipPath id="clip0_688_3388">
<rect width="268" height="149" fill="white" transform="translate(32.5 25)"/>
</clipPath>
<clipPath id="clip1_688_3388">
<rect width="9" height="16" fill="white" transform="translate(32.5 25)"/>
</clipPath>
</defs>
</svg>
