<svg width="741" height="108" viewBox="0 0 741 108" fill="none" xmlns="http://www.w3.org/2000/svg">
<g filter="url(#filter0_d_688_2755)">
<rect x="19.1289" y="6.34155" width="702" height="69" fill="#F2FFF7"/>
<rect x="19.6289" y="6.84155" width="701" height="68" stroke="#76D8A3"/>
<path d="M99.6098 32.1416L96.5218 41.2936L93.4338 32.1416H91.9618L88.8098 41.2456L85.7858 32.1416H84.1378L87.8818 43.3416H89.5938L92.6498 34.3976L95.7058 43.3416H97.3858L101.13 32.1416H99.6098ZM103.847 33.2296C104.455 33.2296 104.887 32.7816 104.887 32.2056C104.887 31.6616 104.439 31.2296 103.847 31.2296C103.255 31.2296 102.807 31.6776 102.807 32.2376C102.807 32.7976 103.255 33.2296 103.847 33.2296ZM103.079 43.3416H104.615V34.8616H103.079V43.3416ZM107.747 43.3416H109.283V31.4696H107.747V43.3416ZM112.416 43.3416H113.952V31.4696H112.416V43.3416ZM117.853 33.2296C118.461 33.2296 118.893 32.7816 118.893 32.2056C118.893 31.6616 118.445 31.2296 117.853 31.2296C117.261 31.2296 116.813 31.6776 116.813 32.2376C116.813 32.7976 117.261 33.2296 117.853 33.2296ZM117.085 43.3416H118.621V34.8616H117.085V43.3416ZM124.842 34.7816C123.482 34.7816 122.218 35.1656 121.338 35.8696L121.978 37.0216C122.634 36.4616 123.658 36.1096 124.666 36.1096C126.186 36.1096 126.938 36.8616 126.938 38.1576V38.4616H124.506C121.978 38.4616 121.098 39.5816 121.098 40.9416C121.098 42.4136 122.314 43.4376 124.234 43.4376C125.562 43.4376 126.506 42.9896 127.018 42.2216V43.3416H128.474V38.2216C128.474 35.9016 127.162 34.7816 124.842 34.7816ZM124.49 42.2536C123.322 42.2536 122.618 41.7256 122.618 40.8776C122.618 40.1576 123.05 39.5656 124.57 39.5656H126.938V40.7496C126.554 41.7256 125.642 42.2536 124.49 42.2536ZM142.124 34.7816C140.684 34.7816 139.5 35.3896 138.86 36.3496C138.3 35.2936 137.212 34.7816 135.916 34.7816C134.636 34.7816 133.596 35.2616 132.988 36.1256V34.8616H131.516V43.3416H133.052V38.9736C133.052 37.1336 134.06 36.1576 135.596 36.1576C136.988 36.1576 137.788 36.9736 137.788 38.6376V43.3416H139.324V38.9736C139.324 37.1336 140.332 36.1576 141.868 36.1576C143.26 36.1576 144.06 36.9736 144.06 38.6376V43.3416H145.596V38.4616C145.596 35.9656 144.188 34.7816 142.124 34.7816ZM151.054 43.4376C153.31 43.4376 154.718 42.4616 154.718 40.9256C154.718 37.6296 149.342 39.2616 149.342 37.2616C149.342 36.5896 149.998 36.0936 151.342 36.0936C152.174 36.0936 153.022 36.2696 153.79 36.7656L154.446 35.5496C153.71 35.0696 152.462 34.7816 151.358 34.7816C149.182 34.7816 147.822 35.8056 147.822 37.3256C147.822 40.7016 153.182 39.0536 153.182 40.9576C153.182 41.6776 152.59 42.1096 151.166 42.1096C150.062 42.1096 148.91 41.7416 148.19 41.2296L147.55 42.4456C148.254 43.0056 149.646 43.4376 151.054 43.4376ZM161.334 34.7816C160.134 34.7816 159.078 35.2296 158.374 36.1416V31.4696H156.838V43.3416H158.31V41.9976C158.998 42.9576 160.086 43.4376 161.334 43.4376C163.814 43.4376 165.622 41.6936 165.622 39.1016C165.622 36.5096 163.814 34.7816 161.334 34.7816ZM161.206 42.0936C159.59 42.0936 158.358 40.9096 158.358 39.1016C158.358 37.2936 159.59 36.1256 161.206 36.1256C162.838 36.1256 164.07 37.2936 164.07 39.1016C164.07 40.9096 162.838 42.0936 161.206 42.0936ZM174.312 34.8616V39.2456C174.312 41.0696 173.288 42.0616 171.688 42.0616C170.232 42.0616 169.4 41.2296 169.4 39.5656V34.8616H167.864V39.7416C167.864 42.2376 169.32 43.4376 171.512 43.4376C172.712 43.4376 173.768 42.9416 174.392 42.0616V43.3416H175.848V34.8616H174.312ZM180.444 36.2856V34.8616H178.972V43.3416H180.508V39.1176C180.508 37.2616 181.532 36.2536 183.18 36.2536C183.292 36.2536 183.404 36.2536 183.532 36.2696V34.7816C182.044 34.7816 180.988 35.2936 180.444 36.2856ZM192.203 34.8616V36.1736C191.483 35.2456 190.331 34.7816 189.067 34.7816C186.619 34.7816 184.763 36.4296 184.763 38.8776C184.763 41.3256 186.619 42.9896 189.067 42.9896C190.283 42.9896 191.387 42.5576 192.123 41.6776V42.3496C192.123 44.2696 191.211 45.1976 189.211 45.1976C187.963 45.1976 186.731 44.7656 185.947 44.0936L185.211 45.2776C186.139 46.1096 187.707 46.5416 189.259 46.5416C192.139 46.5416 193.659 45.1816 193.659 42.1896V34.8616H192.203ZM189.243 41.6456C187.531 41.6456 186.315 40.5096 186.315 38.8776C186.315 37.2296 187.531 36.1256 189.243 36.1256C190.939 36.1256 192.155 37.2296 192.155 38.8776C192.155 40.5096 190.939 41.6456 189.243 41.6456ZM204.987 43.4376C206.507 43.4376 207.771 42.7976 208.443 41.6136L207.275 40.8776C206.731 41.7096 205.899 42.0936 204.971 42.0936C203.307 42.0936 202.059 40.9416 202.059 39.1016C202.059 37.2936 203.307 36.1256 204.971 36.1256C205.899 36.1256 206.731 36.5096 207.275 37.3416L208.443 36.5896C207.771 35.4056 206.507 34.7816 204.987 34.7816C202.379 34.7816 200.507 36.5736 200.507 39.1016C200.507 41.6296 202.379 43.4376 204.987 43.4376ZM213.72 34.7816C212.36 34.7816 211.096 35.1656 210.216 35.8696L210.856 37.0216C211.512 36.4616 212.536 36.1096 213.544 36.1096C215.064 36.1096 215.816 36.8616 215.816 38.1576V38.4616H213.384C210.856 38.4616 209.976 39.5816 209.976 40.9416C209.976 42.4136 211.192 43.4376 213.112 43.4376C214.44 43.4376 215.384 42.9896 215.896 42.2216V43.3416H217.352V38.2216C217.352 35.9016 216.04 34.7816 213.72 34.7816ZM213.368 42.2536C212.2 42.2536 211.496 41.7256 211.496 40.8776C211.496 40.1576 211.928 39.5656 213.448 39.5656H215.816V40.7496C215.432 41.7256 214.52 42.2536 213.368 42.2536ZM221.866 36.2856V34.8616H220.394V43.3416H221.93V39.1176C221.93 37.2616 222.954 36.2536 224.602 36.2536C224.714 36.2536 224.826 36.2536 224.954 36.2696V34.7816C223.466 34.7816 222.41 35.2936 221.866 36.2856ZM227.047 43.3416H228.583V31.4696H227.047V43.3416ZM239.38 39.1496C239.38 36.5416 237.636 34.7816 235.188 34.7816C232.74 34.7816 230.932 36.5896 230.932 39.1016C230.932 41.6296 232.756 43.4376 235.492 43.4376C236.9 43.4376 238.068 42.9576 238.836 42.0616L237.988 41.0696C237.364 41.7576 236.532 42.0936 235.54 42.0936C233.86 42.0936 232.66 41.1016 232.468 39.6136H239.348C239.364 39.4696 239.38 39.2776 239.38 39.1496ZM235.188 36.0776C236.676 36.0776 237.748 37.0856 237.908 38.5096H232.468C232.628 37.0696 233.716 36.0776 235.188 36.0776ZM244.145 43.4376C246.401 43.4376 247.809 42.4616 247.809 40.9256C247.809 37.6296 242.433 39.2616 242.433 37.2616C242.433 36.5896 243.089 36.0936 244.433 36.0936C245.265 36.0936 246.113 36.2696 246.881 36.7656L247.537 35.5496C246.801 35.0696 245.553 34.7816 244.449 34.7816C242.273 34.7816 240.913 35.8056 240.913 37.3256C240.913 40.7016 246.273 39.0536 246.273 40.9576C246.273 41.6776 245.681 42.1096 244.257 42.1096C243.153 42.1096 242.001 41.7416 241.281 41.2296L240.641 42.4456C241.345 43.0056 242.737 43.4376 244.145 43.4376ZM260.426 34.8616L257.45 41.6616L254.538 34.8616H252.938L256.65 43.3416H258.218L261.93 34.8616H260.426ZM270.993 39.1496C270.993 36.5416 269.249 34.7816 266.801 34.7816C264.353 34.7816 262.545 36.5896 262.545 39.1016C262.545 41.6296 264.369 43.4376 267.105 43.4376C268.513 43.4376 269.681 42.9576 270.449 42.0616L269.601 41.0696C268.977 41.7576 268.145 42.0936 267.153 42.0936C265.473 42.0936 264.273 41.1016 264.081 39.6136H270.961C270.977 39.4696 270.993 39.2776 270.993 39.1496ZM266.801 36.0776C268.289 36.0776 269.361 37.0856 269.521 38.5096H264.081C264.241 37.0696 265.329 36.0776 266.801 36.0776ZM279.982 34.8616V36.1736C279.262 35.2456 278.11 34.7816 276.846 34.7816C274.398 34.7816 272.542 36.4296 272.542 38.8776C272.542 41.3256 274.398 42.9896 276.846 42.9896C278.062 42.9896 279.166 42.5576 279.902 41.6776V42.3496C279.902 44.2696 278.99 45.1976 276.99 45.1976C275.742 45.1976 274.51 44.7656 273.726 44.0936L272.99 45.2776C273.918 46.1096 275.486 46.5416 277.038 46.5416C279.918 46.5416 281.438 45.1816 281.438 42.1896V34.8616H279.982ZM277.022 41.6456C275.31 41.6456 274.094 40.5096 274.094 38.8776C274.094 37.2296 275.31 36.1256 277.022 36.1256C278.718 36.1256 279.934 37.2296 279.934 38.8776C279.934 40.5096 278.718 41.6456 277.022 41.6456ZM287.66 34.7816C286.3 34.7816 285.036 35.1656 284.156 35.8696L284.796 37.0216C285.452 36.4616 286.476 36.1096 287.484 36.1096C289.004 36.1096 289.756 36.8616 289.756 38.1576V38.4616H287.324C284.796 38.4616 283.916 39.5816 283.916 40.9416C283.916 42.4136 285.132 43.4376 287.052 43.4376C288.38 43.4376 289.324 42.9896 289.836 42.2216V43.3416H291.292V38.2216C291.292 35.9016 289.98 34.7816 287.66 34.7816ZM287.308 42.2536C286.14 42.2536 285.436 41.7256 285.436 40.8776C285.436 40.1576 285.868 39.5656 287.388 39.5656H289.756V40.7496C289.372 41.7256 288.46 42.2536 287.308 42.2536ZM298.863 34.7816C297.519 34.7816 296.431 35.2776 295.807 36.1416V34.8616H294.335V43.3416H295.871V38.9736C295.871 37.1336 296.927 36.1576 298.559 36.1576C300.015 36.1576 300.847 36.9736 300.847 38.6376V43.3416H302.383V38.4616C302.383 35.9656 300.927 34.7816 298.863 34.7816ZM314.45 34.7816C313.154 34.7816 312.098 35.2456 311.458 36.0616V31.4696H309.922V43.3416H311.458V38.9736C311.458 37.1336 312.514 36.1576 314.146 36.1576C315.602 36.1576 316.434 36.9736 316.434 38.6376V43.3416H317.97V38.4616C317.97 35.9656 316.514 34.7816 314.45 34.7816ZM328.724 39.1496C328.724 36.5416 326.98 34.7816 324.532 34.7816C322.084 34.7816 320.276 36.5896 320.276 39.1016C320.276 41.6296 322.1 43.4376 324.836 43.4376C326.244 43.4376 327.412 42.9576 328.18 42.0616L327.332 41.0696C326.708 41.7576 325.876 42.0936 324.884 42.0936C323.204 42.0936 322.004 41.1016 321.812 39.6136H328.692C328.708 39.4696 328.724 39.2776 328.724 39.1496ZM324.532 36.0776C326.02 36.0776 327.092 37.0856 327.252 38.5096H321.812C321.972 37.0696 323.06 36.0776 324.532 36.0776ZM331.057 43.3416H332.593V31.4696H331.057V43.3416ZM341.726 34.8616L338.75 41.6616L335.838 34.8616H334.238L337.95 43.3416H339.518L343.23 34.8616H341.726ZM352.293 39.1496C352.293 36.5416 350.549 34.7816 348.101 34.7816C345.653 34.7816 343.845 36.5896 343.845 39.1016C343.845 41.6296 345.669 43.4376 348.405 43.4376C349.813 43.4376 350.981 42.9576 351.749 42.0616L350.901 41.0696C350.277 41.7576 349.445 42.0936 348.453 42.0936C346.773 42.0936 345.573 41.1016 345.381 39.6136H352.261C352.277 39.4696 352.293 39.2776 352.293 39.1496ZM348.101 36.0776C349.589 36.0776 350.661 37.0856 350.821 38.5096H345.381C345.541 37.0696 346.629 36.0776 348.101 36.0776ZM358.914 41.7416C358.594 41.9976 358.162 42.1416 357.714 42.1416C356.866 42.1416 356.386 41.6296 356.386 40.7176V36.1256H358.818V34.8616H356.386V33.0056H354.85V34.8616H353.41V36.1256H354.85V40.7816C354.85 42.4936 355.826 43.4376 357.538 43.4376C358.226 43.4376 358.93 43.2456 359.394 42.8456L358.914 41.7416ZM362.219 33.2296C362.827 33.2296 363.259 32.7816 363.259 32.2056C363.259 31.6616 362.811 31.2296 362.219 31.2296C361.627 31.2296 361.179 31.6776 361.179 32.2376C361.179 32.7976 361.627 33.2296 362.219 33.2296ZM361.451 43.3416H362.987V34.8616H361.451V43.3416ZM369.815 43.4376C371.335 43.4376 372.599 42.7976 373.271 41.6136L372.103 40.8776C371.559 41.7096 370.727 42.0936 369.799 42.0936C368.135 42.0936 366.887 40.9416 366.887 39.1016C366.887 37.2936 368.135 36.1256 369.799 36.1256C370.727 36.1256 371.559 36.5096 372.103 37.3416L373.271 36.5896C372.599 35.4056 371.335 34.7816 369.815 34.7816C367.207 34.7816 365.335 36.5736 365.335 39.1016C365.335 41.6296 367.207 43.4376 369.815 43.4376ZM378.548 34.7816C377.188 34.7816 375.924 35.1656 375.044 35.8696L375.684 37.0216C376.34 36.4616 377.364 36.1096 378.372 36.1096C379.892 36.1096 380.644 36.8616 380.644 38.1576V38.4616H378.212C375.684 38.4616 374.804 39.5816 374.804 40.9416C374.804 42.4136 376.02 43.4376 377.94 43.4376C379.268 43.4376 380.212 42.9896 380.724 42.2216V43.3416H382.18V38.2216C382.18 35.9016 380.868 34.7816 378.548 34.7816ZM378.196 42.2536C377.028 42.2536 376.324 41.7256 376.324 40.8776C376.324 40.1576 376.756 39.5656 378.276 39.5656H380.644V40.7496C380.26 41.7256 379.348 42.2536 378.196 42.2536ZM385.59 43.4376C386.166 43.4376 386.646 42.9736 386.646 42.3336C386.646 41.6936 386.166 41.2456 385.59 41.2456C384.998 41.2456 384.502 41.6936 384.502 42.3336C384.502 42.9736 384.998 43.4376 385.59 43.4376Z" fill="#2DC071"/>
<g clip-path="url(#clip0_688_2755)">
<path d="M693.224 38.5166C693.224 38.4381 693.16 38.3738 693.081 38.3738L691.903 38.3791L690.128 40.4952L688.354 38.3809L687.174 38.3756C687.096 38.3756 687.031 38.4381 687.031 38.5184C687.031 38.5524 687.044 38.5845 687.065 38.6113L689.388 41.3791L687.065 44.1452C687.044 44.1714 687.032 44.2041 687.031 44.2381C687.031 44.3166 687.096 44.3809 687.174 44.3809L688.354 44.3756L690.128 42.2595L691.901 44.3738L693.079 44.3791C693.158 44.3791 693.222 44.3166 693.222 44.2363C693.222 44.2024 693.21 44.1702 693.188 44.1434L690.869 41.3774L693.192 38.6095C693.213 38.5845 693.224 38.5506 693.224 38.5166Z" fill="#2DC071"/>
<path d="M690.129 33.3416C685.711 33.3416 682.129 36.9237 682.129 41.3416C682.129 45.7594 685.711 49.3416 690.129 49.3416C694.547 49.3416 698.129 45.7594 698.129 41.3416C698.129 36.9237 694.547 33.3416 690.129 33.3416ZM690.129 47.9844C686.461 47.9844 683.486 45.0094 683.486 41.3416C683.486 37.6737 686.461 34.6987 690.129 34.6987C693.797 34.6987 696.772 37.6737 696.772 41.3416C696.772 45.0094 693.797 47.9844 690.129 47.9844Z" fill="#2DC071"/>
</g>
<g clip-path="url(#clip1_688_2755)">
<path fill-rule="evenodd" clip-rule="evenodd" d="M68.8382 30.6339C68.9313 30.7268 69.0052 30.8371 69.0556 30.9586C69.106 31.0801 69.132 31.2103 69.132 31.3419C69.132 31.4734 69.106 31.6037 69.0556 31.7251C69.0052 31.8466 68.9313 31.957 68.8382 32.0499L54.8382 46.0499C54.7453 46.143 54.6349 46.2169 54.5134 46.2673C54.3919 46.3177 54.2617 46.3437 54.1302 46.3437C53.9986 46.3437 53.8684 46.3177 53.7469 46.2673C53.6254 46.2169 53.5151 46.143 53.4222 46.0499L47.4222 40.0499C47.3292 39.9569 47.2554 39.8465 47.2051 39.725C47.1548 39.6036 47.1289 39.4734 47.1289 39.3419C47.1289 39.2104 47.1548 39.0802 47.2051 38.9587C47.2554 38.8372 47.3292 38.7269 47.4222 38.6339C47.5151 38.5409 47.6255 38.4671 47.747 38.4168C47.8685 38.3665 47.9987 38.3406 48.1302 38.3406C48.2617 38.3406 48.3919 38.3665 48.5133 38.4168C48.6348 38.4671 48.7452 38.5409 48.8382 38.6339L54.1302 43.9279L67.4222 30.6339C67.5151 30.5407 67.6254 30.4669 67.7469 30.4165C67.8684 30.366 67.9986 30.3401 68.1302 30.3401C68.2617 30.3401 68.3919 30.366 68.5134 30.4165C68.6349 30.4669 68.7453 30.5407 68.8382 30.6339Z" fill="#2DC071"/>
<path fill-rule="evenodd" clip-rule="evenodd" d="M54.1289 30.3418C51.9533 30.3418 49.8266 30.9869 48.0177 32.1956C46.2087 33.4043 44.7988 35.1223 43.9662 37.1323C43.1337 39.1422 42.9158 41.354 43.3403 43.4878C43.7647 45.6216 44.8124 47.5816 46.3508 49.12C47.8891 50.6583 49.8491 51.706 51.9829 52.1304C54.1167 52.5549 56.3285 52.337 58.3384 51.5045C60.3484 50.6719 62.0664 49.262 63.2751 47.4531C64.4838 45.6441 65.1289 43.5174 65.1289 41.3418C65.1289 41.0766 65.2343 40.8222 65.4218 40.6347C65.6094 40.4471 65.8637 40.3418 66.1289 40.3418C66.3941 40.3418 66.6485 40.4471 66.836 40.6347C67.0236 40.8222 67.1289 41.0766 67.1289 41.3418C67.1286 44.2035 66.184 46.985 64.4416 49.2552C62.6993 51.5253 60.2566 53.1571 57.4924 53.8975C54.7281 54.6379 51.7968 54.4455 49.1531 53.3501C46.5093 52.2548 44.3009 50.3178 42.8702 47.8394C41.4395 45.361 40.8666 42.4798 41.2402 39.6426C41.6139 36.8055 42.9133 34.1709 44.9368 32.1474C46.9604 30.124 49.5951 28.8248 52.4323 28.4513C55.2695 28.0778 58.1506 28.6509 60.6289 30.0818C60.7484 30.1443 60.8541 30.2303 60.9394 30.3347C61.0248 30.4391 61.0882 30.5597 61.1258 30.6892C61.1634 30.8188 61.1744 30.9546 61.1581 31.0884C61.1418 31.2223 61.0987 31.3515 61.0312 31.4683C60.9637 31.5851 60.8733 31.687 60.7654 31.7679C60.6575 31.8488 60.5343 31.9071 60.4033 31.9391C60.2723 31.9712 60.1362 31.9765 60.0031 31.9546C59.87 31.9327 59.7427 31.8841 59.6289 31.8118C57.9574 30.8452 56.0598 30.338 54.1289 30.3418Z" fill="#2DC071"/>
</g>
</g>
<defs>
<filter id="filter0_d_688_2755" x="0.128906" y="0.341553" width="740" height="107" filterUnits="userSpaceOnUse" color-interpolation-filters="sRGB">
<feFlood flood-opacity="0" result="BackgroundImageFix"/>
<feColorMatrix in="SourceAlpha" type="matrix" values="0 0 0 0 0 0 0 0 0 0 0 0 0 0 0 0 0 0 127 0" result="hardAlpha"/>
<feOffset dy="13"/>
<feGaussianBlur stdDeviation="9.5"/>
<feColorMatrix type="matrix" values="0 0 0 0 0 0 0 0 0 0 0 0 0 0 0 0 0 0 0.07 0"/>
<feBlend mode="normal" in2="BackgroundImageFix" result="effect1_dropShadow_688_2755"/>
<feBlend mode="normal" in="SourceGraphic" in2="effect1_dropShadow_688_2755" result="shape"/>
</filter>
<clipPath id="clip0_688_2755">
<rect width="16" height="16" fill="white" transform="translate(682.129 33.3416)"/>
</clipPath>
<clipPath id="clip1_688_2755">
<rect width="29" height="27" fill="white" transform="translate(41.1289 27.3416)"/>
</clipPath>
</defs>
</svg>
