<svg width="741" height="110" viewBox="0 0 741 110" fill="none" xmlns="http://www.w3.org/2000/svg">
<g filter="url(#filter0_d_688_2741)">
<rect x="19" y="8.68359" width="702" height="69" transform="rotate(-0.219027 19 8.68359)" fill="#FFF6EF"/>
<rect x="19.5019" y="9.18168" width="701" height="68" transform="rotate(-0.219027 19.5019 9.18168)" stroke="#E77C40"/>
<path d="M99.5809 34.1758L96.5279 43.3395L93.4049 34.1994L91.9329 34.205L88.8157 43.321L85.757 34.2286L84.109 34.2349L87.8958 45.4205L89.6077 45.414L92.6295 36.4583L95.7197 45.3906L97.3997 45.3842L101.101 34.1699L99.5809 34.1758ZM103.822 35.2475C104.43 35.2452 104.86 34.7956 104.858 34.2196C104.856 33.6756 104.406 33.2453 103.814 33.2476C103.222 33.2498 102.776 33.6995 102.778 34.2595C102.78 34.8195 103.23 35.2498 103.822 35.2475ZM103.093 45.3624L104.629 45.3565L104.596 36.8766L103.06 36.8825L103.093 45.3624ZM107.761 45.3446L109.297 45.3387L109.252 33.4668L107.716 33.4726L107.761 45.3446ZM112.43 45.3267L113.966 45.3208L113.921 33.4489L112.385 33.4548L112.43 45.3267ZM117.828 35.194C118.436 35.1917 118.866 34.742 118.864 34.166C118.862 33.622 118.412 33.1918 117.82 33.194C117.228 33.1963 116.782 33.646 116.784 34.206C116.786 34.766 117.236 35.1963 117.828 35.194ZM117.099 45.3089L118.635 45.303L118.602 36.8231L117.066 36.8289L117.099 45.3089ZM124.823 36.7193C123.463 36.7245 122.2 37.1133 121.323 37.8207L121.967 38.9702C122.621 38.4077 123.644 38.0518 124.652 38.0479C126.172 38.0421 126.927 38.7912 126.932 40.0872L126.933 40.3912L124.501 40.4005C121.973 40.4102 121.097 41.5336 121.102 42.8935C121.108 44.3655 122.328 45.3849 124.248 45.3775C125.576 45.3725 126.518 44.9209 127.027 44.1509L127.031 45.2709L128.487 45.2653L128.468 40.1454C128.459 37.8254 127.143 36.7104 124.823 36.7193ZM124.499 44.1926C123.331 44.197 122.625 43.6717 122.622 42.8237C122.619 42.1037 123.049 41.5101 124.569 41.5043L126.937 41.4952L126.941 42.6792C126.561 43.6567 125.651 44.1882 124.499 44.1926ZM142.105 36.6532C140.665 36.6587 139.483 37.2712 138.847 38.2337C138.283 37.1798 137.193 36.672 135.897 36.6769C134.617 36.6818 133.579 37.1658 132.974 38.0321L132.969 36.7681L131.497 36.7738L131.53 45.2537L133.066 45.2478L133.049 40.8799C133.042 39.0399 134.046 38.06 135.582 38.0542C136.974 38.0488 137.777 38.8618 137.784 40.5258L137.802 45.2297L139.338 45.2239L139.321 40.8559C139.314 39.0159 140.318 38.0361 141.854 38.0302C143.246 38.0249 144.049 38.8378 144.056 40.5018L144.074 45.2057L145.61 45.1999L145.591 40.3199C145.582 37.8239 144.169 36.6453 142.105 36.6532ZM151.068 45.275C153.324 45.2664 154.729 44.285 154.723 42.749C154.71 39.453 149.34 41.1056 149.333 39.1056C149.33 38.4336 149.984 37.9351 151.328 37.93C152.16 37.9268 153.009 38.0995 153.779 38.5926L154.43 37.3741C153.692 36.8969 152.443 36.6137 151.339 36.6179C149.163 36.6262 147.807 37.6554 147.813 39.1754C147.826 42.5514 153.18 40.8829 153.187 42.7869C153.19 43.5069 152.599 43.9411 151.175 43.9466C150.071 43.9508 148.918 43.5872 148.196 43.078L147.561 44.2964C148.267 44.8537 149.66 45.2804 151.068 45.275ZM161.315 36.5798C160.115 36.5844 159.06 37.0364 158.36 37.9511L158.342 33.2791L156.806 33.285L156.852 45.1569L158.323 45.1513L158.318 43.8073C159.01 44.7646 160.1 45.2405 161.348 45.2357C163.828 45.2262 165.629 43.4753 165.619 40.8834C165.609 38.2914 163.795 36.5703 161.315 36.5798ZM161.215 43.8922C159.599 43.8984 158.362 42.7191 158.355 40.9111C158.348 39.1031 159.576 37.9304 161.192 37.9243C162.824 37.918 164.06 39.0813 164.067 40.8893C164.074 42.6973 162.847 43.886 161.215 43.8922ZM174.293 36.6102L174.31 40.9941C174.317 42.8181 173.297 43.814 171.697 43.8201C170.241 43.8257 169.406 42.9969 169.399 41.3329L169.381 36.6289L167.845 36.6348L167.864 41.5148C167.873 44.0108 169.334 45.2052 171.526 45.1968C172.726 45.1922 173.78 44.6922 174.401 43.8098L174.406 45.0898L175.862 45.0842L175.829 36.6043L174.293 36.6102ZM180.431 38.0107L180.425 36.5867L178.953 36.5923L178.986 45.0723L180.522 45.0664L180.506 40.8424C180.498 38.9865 181.519 37.9746 183.167 37.9683C183.279 37.9678 183.391 37.9674 183.519 37.9829L183.513 36.4949C182.025 36.5006 180.971 37.0166 180.431 38.0107ZM192.184 36.5418L192.189 37.8538C191.466 36.9285 190.312 36.4689 189.048 36.4738C186.6 36.4831 184.75 38.1382 184.76 40.5862C184.769 43.0342 186.631 44.6911 189.079 44.6817C190.295 44.6771 191.398 44.2408 192.13 43.358L192.133 44.03C192.14 45.95 191.232 46.8815 189.232 46.8891C187.984 46.8939 186.75 46.4666 185.964 45.7976L185.232 46.9844C186.163 47.8129 187.733 48.2389 189.285 48.2329C192.165 48.2219 193.68 46.8561 193.668 43.8642L193.64 36.5362L192.184 36.5418ZM189.25 43.337C187.538 43.3436 186.318 42.2122 186.312 40.5802C186.305 38.9323 187.517 37.8236 189.229 37.8171C190.925 37.8106 192.145 38.9099 192.152 40.5579C192.158 42.1899 190.946 43.3306 189.25 43.337ZM205.001 45.0688C206.521 45.063 207.782 44.4182 208.45 43.2316L207.279 42.5001C206.738 43.3342 205.907 43.7214 204.98 43.7249C203.316 43.7313 202.063 42.5841 202.056 40.7441C202.049 38.9361 203.293 37.7633 204.957 37.757C205.885 37.7534 206.718 38.1342 207.265 38.9641L208.43 38.2077C207.754 37.0263 206.488 36.4071 204.968 36.4129C202.36 36.4229 200.494 38.222 200.504 40.75C200.514 43.278 202.393 45.0788 205.001 45.0688ZM213.7 36.3795C212.34 36.3847 211.078 36.7735 210.2 37.4809L210.845 38.6305C211.499 38.0679 212.521 37.712 213.529 37.7082C215.049 37.7024 215.804 38.4515 215.809 39.7475L215.81 40.0515L213.378 40.0608C210.85 40.0704 209.974 41.1938 209.98 42.5538C209.985 44.0258 211.205 45.0451 213.125 45.0378C214.453 45.0327 215.395 44.5811 215.905 43.8111L215.909 44.9311L217.365 44.9256L217.345 39.8056C217.336 37.4856 216.02 36.3707 213.7 36.3795ZM213.377 43.8528C212.209 43.8573 211.503 43.332 211.499 42.484C211.497 41.764 211.926 41.1703 213.446 41.1645L215.814 41.1555L215.819 42.3395C215.439 43.3169 214.529 43.8484 213.377 43.8528ZM221.852 37.8524L221.847 36.4284L220.375 36.434L220.407 44.9139L221.943 44.9081L221.927 40.6841C221.92 38.8281 222.94 37.8162 224.588 37.8099C224.7 37.8095 224.812 37.8091 224.94 37.8246L224.935 36.3366C223.447 36.3423 222.393 36.8583 221.852 37.8524ZM227.06 44.8885L228.596 44.8826L228.551 33.0107L227.015 33.0166L227.06 44.8885ZM239.377 40.6494C239.367 38.0414 237.616 36.2881 235.168 36.2975C232.72 36.3068 230.919 38.1217 230.929 40.6337C230.939 43.1617 232.769 44.9627 235.505 44.9522C236.913 44.9468 238.08 44.4624 238.844 43.5635L237.992 42.5747C237.371 43.2651 236.54 43.6043 235.548 43.6081C233.868 43.6145 232.665 42.6271 232.467 41.1398L239.347 41.1135C239.362 40.9695 239.377 40.7774 239.377 40.6494ZM235.173 37.5934C236.661 37.5878 237.737 38.5916 237.903 40.015L232.463 40.0358C232.617 38.5952 233.701 37.5991 235.173 37.5934ZM244.158 44.9191C246.414 44.9105 247.818 43.9292 247.813 42.3932C247.8 39.0972 242.43 40.7497 242.423 38.7497C242.42 38.0777 243.074 37.5792 244.418 37.5741C245.25 37.5709 246.099 37.7437 246.869 38.2367L247.52 37.0182C246.782 36.5411 245.533 36.2578 244.429 36.2621C242.253 36.2704 240.897 37.2996 240.903 38.8195C240.916 42.1955 246.269 40.527 246.277 42.431C246.279 43.151 245.689 43.5853 244.265 43.5907C243.161 43.595 242.008 43.2314 241.286 42.7221L240.65 43.9406C241.357 44.4979 242.75 44.9245 244.158 44.9191ZM260.406 36.281L257.456 43.0923L254.518 36.3035L252.918 36.3096L256.662 44.7753L258.23 44.7694L261.91 36.2752L260.406 36.281ZM270.989 40.5285C270.979 37.9206 269.229 36.1672 266.781 36.1766C264.333 36.186 262.532 38.0009 262.541 40.5128C262.551 43.0408 264.382 44.8418 267.118 44.8314C268.526 44.826 269.692 44.3415 270.456 43.4426L269.605 42.4539C268.983 43.1442 268.153 43.4834 267.161 43.4872C265.481 43.4936 264.277 42.5062 264.079 41.019L270.959 40.9927C270.974 40.8486 270.99 40.6565 270.989 40.5285ZM266.786 37.4726C268.274 37.4669 269.349 38.4708 269.515 39.8942L264.075 39.915C264.229 38.4744 265.314 37.4782 266.786 37.4726ZM279.962 36.2062L279.967 37.5182C279.243 36.593 278.089 36.1334 276.825 36.1382C274.377 36.1476 272.528 37.8026 272.537 40.2506C272.546 42.6986 274.409 44.3555 276.857 44.3461C278.073 44.3415 279.175 43.9053 279.908 43.0225L279.91 43.6945C279.918 45.6145 279.009 46.5459 277.009 46.5536C275.761 46.5584 274.528 46.1311 273.741 45.4621L273.01 46.6489C273.941 47.4773 275.51 47.9033 277.062 47.8974C279.942 47.8864 281.457 46.5206 281.446 43.5286L281.418 36.2007L279.962 36.2062ZM277.028 43.0015C275.316 43.008 274.095 41.8767 274.089 40.2447C274.083 38.5967 275.295 37.4881 277.007 37.4815C278.703 37.475 279.923 38.5744 279.929 40.2224C279.935 41.8544 278.724 42.995 277.028 43.0015ZM287.64 36.0969C286.28 36.1021 285.018 36.4909 284.14 37.1983L284.785 38.3478C285.439 37.7853 286.461 37.4294 287.469 37.4255C288.989 37.4197 289.744 38.1688 289.749 39.4648L289.75 39.7688L287.318 39.7781C284.79 39.7878 283.915 40.9111 283.92 42.2711C283.925 43.7431 285.145 44.7625 287.065 44.7551C288.393 44.75 289.336 44.2984 289.845 43.5285L289.849 44.6485L291.305 44.6429L291.285 39.523C291.276 37.203 289.96 36.088 287.64 36.0969ZM287.317 43.5702C286.149 43.5746 285.443 43.0493 285.44 42.2013C285.437 41.4813 285.866 40.8877 287.386 40.8819L289.754 40.8728L289.759 42.0568C289.379 43.0343 288.469 43.5658 287.317 43.5702ZM298.843 36.054C297.499 36.0592 296.413 36.5593 295.792 37.4257L295.787 36.1457L294.315 36.1513L294.347 44.6313L295.883 44.6254L295.867 40.2574C295.86 38.4175 296.912 37.4374 298.544 37.4312C300 37.4256 300.835 38.2384 300.841 39.9024L300.859 44.6064L302.395 44.6005L302.377 39.7206C302.367 37.2246 300.907 36.0462 298.843 36.054ZM314.43 35.9945C313.134 35.9994 312.08 36.4674 311.443 37.2859L311.425 32.6939L309.889 32.6998L309.935 44.5717L311.471 44.5658L311.454 40.1979C311.447 38.3579 312.499 37.3778 314.131 37.3716C315.587 37.366 316.422 38.1789 316.429 39.8428L316.447 44.5468L317.983 44.5409L317.964 39.661C317.954 37.165 316.494 35.9866 314.43 35.9945ZM328.72 40.3079C328.71 37.6999 326.959 35.9466 324.511 35.9559C322.063 35.9653 320.262 37.7802 320.272 40.2922C320.282 42.8201 322.113 44.6211 324.849 44.6107C326.257 44.6053 327.423 44.1208 328.187 43.2219L327.335 42.2332C326.714 42.9235 325.883 43.2627 324.891 43.2665C323.211 43.2729 322.008 42.2855 321.81 40.7983L328.69 40.772C328.705 40.6279 328.721 40.4359 328.72 40.3079ZM324.516 37.2519C326.004 37.2462 327.08 38.2501 327.246 39.6735L321.806 39.6943C321.96 38.2537 323.044 37.2575 324.516 37.2519ZM331.069 44.4909L332.605 44.485L332.56 32.6131L331.024 32.619L331.069 44.4909ZM341.705 35.9702L338.755 42.7815L335.817 35.9927L334.217 35.9988L337.962 44.4646L339.53 44.4586L343.209 35.9644L341.705 35.9702ZM352.289 40.2178C352.279 37.6098 350.528 35.8565 348.08 35.8658C345.632 35.8752 343.831 37.6901 343.841 40.2021C343.85 42.73 345.681 44.5311 348.417 44.5206C349.825 44.5152 350.991 44.0307 351.756 43.1318L350.904 42.1431C350.283 42.8334 349.452 43.1726 348.46 43.1764C346.78 43.1828 345.576 42.1954 345.379 40.7082L352.258 40.6819C352.274 40.5378 352.289 40.3458 352.289 40.2178ZM348.085 37.1618C349.573 37.1561 350.649 38.16 350.814 39.5834L345.374 39.6042C345.529 38.1636 346.613 37.1674 348.085 37.1618ZM358.919 42.7844C358.6 43.0417 358.169 43.1873 357.721 43.189C356.873 43.1923 356.391 42.6821 356.387 41.7701L356.37 37.1781L358.802 37.1688L358.797 35.9048L356.365 35.9141L356.358 34.0582L354.822 34.064L354.829 35.92L353.389 35.9255L353.394 37.1895L354.834 37.184L354.852 41.84C354.858 43.552 355.838 44.4922 357.55 44.4857C358.238 44.4831 358.941 44.2884 359.404 43.8866L358.919 42.7844ZM362.192 34.2599C362.8 34.2575 363.23 33.8079 363.228 33.2319C363.226 32.6879 362.776 32.2576 362.184 32.2599C361.592 32.2621 361.146 32.7118 361.148 33.2718C361.15 33.8318 361.6 34.2621 362.192 34.2599ZM361.463 44.3747L362.998 44.3689L362.966 35.8889L361.43 35.8948L361.463 44.3747ZM369.828 44.4387C371.348 44.4329 372.609 43.7881 373.277 42.6015L372.106 41.87C371.565 42.7041 370.734 43.0913 369.806 43.0948C368.142 43.1012 366.89 41.954 366.883 40.114C366.876 38.306 368.12 37.1332 369.784 37.1269C370.712 37.1233 371.545 37.5041 372.092 38.334L373.257 37.5776C372.581 36.3962 371.314 35.777 369.794 35.7828C367.186 35.7928 365.321 37.5919 365.331 40.1199C365.341 42.6479 367.22 44.4487 369.828 44.4387ZM378.527 35.7494C377.167 35.7546 375.905 36.1435 375.027 36.8508L375.672 38.0004C376.325 37.4379 377.348 37.0819 378.356 37.0781C379.876 37.0723 380.631 37.8214 380.636 39.1174L380.637 39.4214L378.205 39.4307C375.677 39.4403 374.801 40.5637 374.807 41.9237C374.812 43.3957 376.032 44.415 377.952 44.4077C379.28 44.4026 380.222 43.951 380.731 43.1811L380.736 44.301L382.192 44.2955L382.172 39.1755C382.163 36.8555 380.847 35.7406 378.527 35.7494ZM378.204 43.2227C377.036 43.2272 376.33 42.7019 376.326 41.8539C376.324 41.1339 376.753 40.5402 378.273 40.5344L380.641 40.5254L380.646 41.7094C380.266 42.6868 379.356 43.2183 378.204 43.2227ZM385.603 44.3784C386.179 44.3762 386.657 43.9104 386.654 43.2704C386.652 42.6304 386.17 42.1843 385.594 42.1865C385.002 42.1887 384.508 42.6386 384.51 43.2786C384.513 43.9186 385.011 44.3807 385.603 44.3784Z" fill="#E77C40"/>
<path d="M54.078 28.5495L43.1508 47.5914L65.1506 47.5073L54.078 28.5495ZM54.0933 32.5495L61.673 45.5206L46.6131 45.5782L54.0933 32.5495ZM53.1086 36.5533L53.1239 40.5532L55.1239 40.5456L55.1086 36.5456L53.1086 36.5533ZM53.1316 42.5532L53.1392 44.5532L55.1392 44.5456L55.1316 42.5456" fill="#E77C40"/>
<g clip-path="url(#clip0_688_2741)">
<path d="M693.213 38.2815C693.213 38.203 693.148 38.1389 693.069 38.1392L691.891 38.1491L690.124 40.2719L688.343 38.1644L687.162 38.1636C687.084 38.1639 687.02 38.2266 687.02 38.307C687.02 38.3409 687.033 38.373 687.054 38.3997L689.388 41.1587L687.076 43.9336C687.054 43.9599 687.042 43.9927 687.042 44.0266C687.042 44.1052 687.107 44.1692 687.185 44.1689L688.366 44.159L690.131 42.0362L691.912 44.1437L693.091 44.1445C693.169 44.1442 693.233 44.0815 693.233 44.0011C693.233 43.9672 693.22 43.9351 693.199 43.9084L690.868 41.1512L693.181 38.3745C693.202 38.3494 693.213 38.3155 693.213 38.2815Z" fill="#E77C40"/>
<path d="M690.098 33.1183C685.68 33.1352 682.111 36.731 682.128 41.1489C682.145 45.5667 685.741 49.1351 690.159 49.1182C694.577 49.1013 698.145 45.5055 698.128 41.0877C698.111 36.6699 694.515 33.1015 690.098 33.1183ZM690.154 47.7611C686.486 47.7751 683.499 44.8115 683.485 41.1437C683.471 37.4758 686.435 34.4895 690.103 34.4755C693.771 34.4615 696.757 37.4251 696.771 41.0929C696.785 44.7607 693.821 47.7471 690.154 47.7611Z" fill="#E77C40"/>
</g>
</g>
<defs>
<filter id="filter0_d_688_2741" x="0" y="0" width="740.258" height="109.683" filterUnits="userSpaceOnUse" color-interpolation-filters="sRGB">
<feFlood flood-opacity="0" result="BackgroundImageFix"/>
<feColorMatrix in="SourceAlpha" type="matrix" values="0 0 0 0 0 0 0 0 0 0 0 0 0 0 0 0 0 0 127 0" result="hardAlpha"/>
<feOffset dy="13"/>
<feGaussianBlur stdDeviation="9.5"/>
<feColorMatrix type="matrix" values="0 0 0 0 0 0 0 0 0 0 0 0 0 0 0 0 0 0 0.07 0"/>
<feBlend mode="normal" in2="BackgroundImageFix" result="effect1_dropShadow_688_2741"/>
<feBlend mode="normal" in="SourceGraphic" in2="effect1_dropShadow_688_2741" result="shape"/>
</filter>
<clipPath id="clip0_688_2741">
<rect width="16" height="16" fill="white" transform="translate(682.098 33.1489) rotate(-0.219027)"/>
</clipPath>
</defs>
</svg>
