<svg width="328" height="744" viewBox="0 0 328 744" fill="none" xmlns="http://www.w3.org/2000/svg">
<rect x="1" y="26.5" width="326" height="694" rx="9.5" fill="white"/>
<rect x="1" y="26.5" width="326" height="694" rx="9.5" stroke="#DEDEDE"/>
<path d="M145.584 84.224V87.512H137.808V91.136H145.2V94.424H137.808V101H134.064V84.224H145.584ZM162.467 89.792C162.467 92.48 161.403 94.216 159.275 95L163.523 101H158.915L155.195 95.648H152.603V101H148.859V84.224H155.219C157.827 84.224 159.683 84.664 160.787 85.544C161.907 86.424 162.467 87.84 162.467 89.792ZM155.339 92.408C156.619 92.408 157.491 92.2 157.955 91.784C158.419 91.368 158.651 90.712 158.651 89.816C158.651 88.904 158.411 88.28 157.931 87.944C157.451 87.608 156.611 87.44 155.411 87.44H152.603V92.408H155.339ZM178.493 84.224V87.56H170.141V91.016H177.653V94.208H170.141V97.688H178.757V101H166.397V84.224H178.493ZM194.296 84.224V87.56H185.944V91.016H193.456V94.208H185.944V97.688H194.56V101H182.2V84.224H194.296Z" fill="#252B42"/>
<path d="M94.3376 155.352C94.3376 154.349 94.0176 153.496 93.3776 152.792C92.7376 152.088 91.9482 151.736 91.0096 151.736C90.0816 151.736 89.2976 152.088 88.6576 152.792C88.0176 153.496 87.6976 154.349 87.6976 155.352C87.6976 156.344 88.0176 157.192 88.6576 157.896C89.2976 158.589 90.0816 158.936 91.0096 158.936C91.9482 158.936 92.7376 158.589 93.3776 157.896C94.0176 157.192 94.3376 156.344 94.3376 155.352ZM95.1856 159.464C94.0549 160.563 92.6629 161.112 91.0096 161.112C89.3562 161.112 87.9642 160.563 86.8336 159.464C85.7029 158.355 85.1376 156.979 85.1376 155.336C85.1376 153.693 85.7029 152.323 86.8336 151.224C87.9642 150.115 89.3562 149.56 91.0096 149.56C92.6629 149.56 94.0549 150.115 95.1856 151.224C96.3162 152.323 96.8816 153.693 96.8816 155.336C96.8816 156.979 96.3162 158.355 95.1856 159.464ZM103.384 154.504C102.67 154.504 102.136 154.76 101.784 155.272C101.432 155.773 101.256 156.44 101.256 157.272V161H98.8563V152.392H101.256V153.528C101.566 153.176 101.95 152.877 102.408 152.632C102.878 152.387 103.352 152.259 103.832 152.248L103.848 154.504H103.384ZM111.566 156.52C111.566 155.827 111.374 155.283 110.99 154.888C110.606 154.493 110.132 154.296 109.566 154.296C109.001 154.296 108.51 154.493 108.094 154.888C107.689 155.283 107.486 155.821 107.486 156.504C107.486 157.187 107.684 157.741 108.078 158.168C108.484 158.584 108.974 158.792 109.55 158.792C110.126 158.792 110.606 158.584 110.99 158.168C111.374 157.752 111.566 157.203 111.566 156.52ZM111.902 159.544C111.145 160.387 110.201 160.808 109.07 160.808C107.95 160.808 107.001 160.429 106.222 159.672C105.454 158.904 105.07 157.885 105.07 156.616C105.07 155.336 105.465 154.291 106.254 153.48C107.054 152.659 107.966 152.248 108.99 152.248C110.014 152.248 110.862 152.669 111.534 153.512V152.376H113.934V159.88C113.934 160.648 113.801 161.331 113.534 161.928C113.268 162.525 112.91 162.995 112.462 163.336C111.577 164.04 110.532 164.392 109.326 164.392C108.686 164.392 108.03 164.285 107.358 164.072C106.697 163.869 106.116 163.576 105.614 163.192L106.542 161.384C107.332 161.981 108.164 162.28 109.038 162.28C109.924 162.28 110.622 162.061 111.134 161.624C111.646 161.187 111.902 160.493 111.902 159.544ZM123.618 161H121.362V159.96C120.744 160.739 119.976 161.128 119.058 161.128C118.152 161.128 117.389 160.867 116.77 160.344C116.152 159.811 115.842 159.107 115.842 158.232C115.842 157.347 116.162 156.685 116.802 156.248C117.442 155.811 118.317 155.592 119.426 155.592H121.218V155.544C121.218 154.627 120.733 154.168 119.762 154.168C119.346 154.168 118.904 154.253 118.434 154.424C117.976 154.584 117.586 154.787 117.266 155.032L116.194 153.48C117.325 152.659 118.616 152.248 120.066 152.248C121.112 152.248 121.965 152.509 122.626 153.032C123.288 153.555 123.618 154.381 123.618 155.512V161ZM121.202 157.72V157.304H119.698C118.738 157.304 118.258 157.603 118.258 158.2C118.258 158.509 118.37 158.749 118.594 158.92C118.829 159.08 119.16 159.16 119.586 159.16C120.013 159.16 120.386 159.032 120.706 158.776C121.037 158.509 121.202 158.157 121.202 157.72ZM128.306 156.2V161H125.906V152.392H128.306V153.352C129.032 152.616 129.848 152.248 130.754 152.248C131.661 152.248 132.418 152.568 133.026 153.208C133.645 153.848 133.954 154.701 133.954 155.768V161H131.554V156.136C131.554 154.813 131.069 154.152 130.098 154.152C129.618 154.152 129.197 154.328 128.834 154.68C128.482 155.021 128.306 155.528 128.306 156.2ZM138.625 161H136.225V152.392H138.625V161ZM136.417 151.304C136.15 151.027 136.017 150.691 136.017 150.296C136.017 149.901 136.15 149.571 136.417 149.304C136.694 149.027 137.03 148.888 137.425 148.888C137.82 148.888 138.15 149.027 138.417 149.304C138.694 149.571 138.833 149.901 138.833 150.296C138.833 150.691 138.694 151.027 138.417 151.304C138.15 151.571 137.82 151.704 137.425 151.704C137.03 151.704 136.694 151.571 136.417 151.304ZM140.837 154.376V152.392H147.781V154.264L143.605 159H148.021V161H140.533V159.016L144.597 154.376H140.837ZM157.397 159.752C156.426 160.669 155.285 161.128 153.973 161.128C152.671 161.128 151.594 160.728 150.741 159.928C149.887 159.117 149.461 158.035 149.461 156.68C149.461 155.325 149.893 154.248 150.757 153.448C151.631 152.648 152.661 152.248 153.845 152.248C155.029 152.248 156.031 152.605 156.853 153.32C157.685 154.035 158.101 155.016 158.101 156.264V157.544H151.829C151.903 158.013 152.149 158.397 152.565 158.696C152.981 158.995 153.45 159.144 153.973 159.144C154.815 159.144 155.509 158.861 156.053 158.296L157.397 159.752ZM155.669 155.832C155.615 155.32 155.423 154.925 155.093 154.648C154.762 154.371 154.357 154.232 153.877 154.232C153.407 154.232 152.975 154.376 152.581 154.664C152.186 154.952 151.957 155.341 151.893 155.832H155.669ZM171.562 161H169.306V159.96C168.687 160.739 167.919 161.128 167.002 161.128C166.095 161.128 165.333 160.867 164.714 160.344C164.095 159.811 163.786 159.107 163.786 158.232C163.786 157.347 164.106 156.685 164.746 156.248C165.386 155.811 166.261 155.592 167.37 155.592H169.162V155.544C169.162 154.627 168.677 154.168 167.706 154.168C167.29 154.168 166.847 154.253 166.378 154.424C165.919 154.584 165.53 154.787 165.21 155.032L164.138 153.48C165.269 152.659 166.559 152.248 168.01 152.248C169.055 152.248 169.909 152.509 170.57 153.032C171.231 153.555 171.562 154.381 171.562 155.512V161ZM169.146 157.72V157.304H167.642C166.682 157.304 166.202 157.603 166.202 158.2C166.202 158.509 166.314 158.749 166.538 158.92C166.773 159.08 167.103 159.16 167.53 159.16C167.957 159.16 168.33 159.032 168.65 158.776C168.981 158.509 169.146 158.157 169.146 157.72ZM177.978 159C178.778 159 179.498 158.6 180.138 157.8L181.562 159.4C180.453 160.552 179.253 161.128 177.962 161.128C176.671 161.128 175.578 160.723 174.682 159.912C173.797 159.091 173.354 158.024 173.354 156.712C173.354 155.389 173.802 154.317 174.698 153.496C175.605 152.664 176.677 152.248 177.914 152.248C178.533 152.248 179.157 152.376 179.786 152.632C180.426 152.888 180.986 153.267 181.466 153.768L180.218 155.4C179.941 155.069 179.599 154.813 179.194 154.632C178.799 154.451 178.405 154.36 178.01 154.36C177.381 154.36 176.837 154.568 176.378 154.984C175.93 155.389 175.706 155.96 175.706 156.696C175.706 157.421 175.93 157.987 176.378 158.392C176.837 158.797 177.37 159 177.978 159ZM187.791 154.504C187.076 154.504 186.543 154.76 186.191 155.272C185.839 155.773 185.663 156.44 185.663 157.272V161H183.263V152.392H185.663V153.528C185.972 153.176 186.356 152.877 186.815 152.632C187.284 152.387 187.759 152.259 188.239 152.248L188.255 154.504H187.791ZM191.736 156.696C191.736 157.4 191.933 157.976 192.328 158.424C192.733 158.861 193.245 159.08 193.864 159.08C194.493 159.08 195.005 158.861 195.4 158.424C195.805 157.976 196.008 157.4 196.008 156.696C196.008 155.992 195.805 155.416 195.4 154.968C195.005 154.52 194.493 154.296 193.864 154.296C193.245 154.296 192.733 154.52 192.328 154.968C191.933 155.416 191.736 155.992 191.736 156.696ZM198.424 156.696C198.424 157.944 197.992 158.995 197.128 159.848C196.264 160.701 195.176 161.128 193.864 161.128C192.562 161.128 191.48 160.701 190.616 159.848C189.752 158.995 189.32 157.944 189.32 156.696C189.32 155.448 189.752 154.397 190.616 153.544C191.48 152.68 192.562 152.248 193.864 152.248C195.176 152.248 196.264 152.68 197.128 153.544C197.992 154.397 198.424 155.448 198.424 156.696ZM206.708 158.328C206.708 159.171 206.394 159.848 205.764 160.36C205.146 160.872 204.356 161.128 203.396 161.128C202.756 161.128 202.09 161.016 201.396 160.792C200.703 160.557 200.079 160.216 199.524 159.768L200.58 158.264C201.476 158.957 202.431 159.304 203.444 159.304C203.754 159.304 203.999 159.245 204.18 159.128C204.362 159 204.452 158.835 204.452 158.632C204.452 158.429 204.324 158.243 204.068 158.072C203.823 157.901 203.46 157.741 202.98 157.592C202.511 157.443 202.148 157.315 201.892 157.208C201.647 157.101 201.364 156.947 201.044 156.744C200.394 156.339 200.068 155.741 200.068 154.952C200.068 154.152 200.388 153.501 201.028 153C201.668 152.499 202.495 152.248 203.508 152.248C204.522 152.248 205.535 152.589 206.548 153.272L205.652 154.872C204.906 154.36 204.159 154.104 203.412 154.104C202.676 154.104 202.308 154.307 202.308 154.712C202.308 154.936 202.426 155.112 202.66 155.24C202.895 155.368 203.284 155.517 203.828 155.688C204.372 155.859 204.756 155.992 204.98 156.088C205.215 156.173 205.492 156.312 205.812 156.504C206.41 156.867 206.708 157.475 206.708 158.328ZM215.121 158.328C215.121 159.171 214.806 159.848 214.177 160.36C213.558 160.872 212.769 161.128 211.809 161.128C211.169 161.128 210.502 161.016 209.809 160.792C209.115 160.557 208.491 160.216 207.937 159.768L208.993 158.264C209.889 158.957 210.843 159.304 211.857 159.304C212.166 159.304 212.411 159.245 212.593 159.128C212.774 159 212.865 158.835 212.865 158.632C212.865 158.429 212.737 158.243 212.481 158.072C212.235 157.901 211.873 157.741 211.393 157.592C210.923 157.443 210.561 157.315 210.305 157.208C210.059 157.101 209.777 156.947 209.457 156.744C208.806 156.339 208.481 155.741 208.481 154.952C208.481 154.152 208.801 153.501 209.441 153C210.081 152.499 210.907 152.248 211.921 152.248C212.934 152.248 213.947 152.589 214.961 153.272L214.065 154.872C213.318 154.36 212.571 154.104 211.825 154.104C211.089 154.104 210.721 154.307 210.721 154.712C210.721 154.936 210.838 155.112 211.073 155.24C211.307 155.368 211.697 155.517 212.241 155.688C212.785 155.859 213.169 155.992 213.393 156.088C213.627 156.173 213.905 156.312 214.225 156.504C214.822 156.867 215.121 157.475 215.121 158.328ZM228.684 161H226.428V159.96C225.809 160.739 225.041 161.128 224.124 161.128C223.217 161.128 222.455 160.867 221.836 160.344C221.217 159.811 220.908 159.107 220.908 158.232C220.908 157.347 221.228 156.685 221.868 156.248C222.508 155.811 223.383 155.592 224.492 155.592H226.284V155.544C226.284 154.627 225.799 154.168 224.828 154.168C224.412 154.168 223.969 154.253 223.5 154.424C223.041 154.584 222.652 154.787 222.332 155.032L221.26 153.48C222.391 152.659 223.681 152.248 225.132 152.248C226.177 152.248 227.031 152.509 227.692 153.032C228.353 153.555 228.684 154.381 228.684 155.512V161ZM226.268 157.72V157.304H224.764C223.804 157.304 223.324 157.603 223.324 158.2C223.324 158.509 223.436 158.749 223.66 158.92C223.895 159.08 224.225 159.16 224.652 159.16C225.079 159.16 225.452 159.032 225.772 158.776C226.103 158.509 226.268 158.157 226.268 157.72ZM233.372 161H230.972V149.128H233.372V161ZM238.144 161H235.744V149.128H238.144V161ZM117.898 185H115.642V183.96C115.023 184.739 114.255 185.128 113.338 185.128C112.431 185.128 111.669 184.867 111.05 184.344C110.431 183.811 110.122 183.107 110.122 182.232C110.122 181.347 110.442 180.685 111.082 180.248C111.722 179.811 112.597 179.592 113.706 179.592H115.498V179.544C115.498 178.627 115.013 178.168 114.042 178.168C113.626 178.168 113.183 178.253 112.714 178.424C112.255 178.584 111.866 178.787 111.546 179.032L110.474 177.48C111.605 176.659 112.895 176.248 114.346 176.248C115.391 176.248 116.245 176.509 116.906 177.032C117.567 177.555 117.898 178.381 117.898 179.512V185ZM115.482 181.72V181.304H113.978C113.018 181.304 112.538 181.603 112.538 182.2C112.538 182.509 112.65 182.749 112.874 182.92C113.109 183.08 113.439 183.16 113.866 183.16C114.293 183.16 114.666 183.032 114.986 182.776C115.317 182.509 115.482 182.157 115.482 181.72ZM125.194 176.248C126.197 176.248 127.087 176.669 127.866 177.512C128.655 178.344 129.05 179.395 129.05 180.664C129.05 181.933 128.655 182.995 127.866 183.848C127.087 184.701 126.17 185.128 125.114 185.128C124.069 185.128 123.226 184.707 122.586 183.864V188.104H120.186V176.392H122.586V177.352C123.322 176.616 124.191 176.248 125.194 176.248ZM122.554 180.712C122.554 181.405 122.746 181.976 123.13 182.424C123.525 182.861 123.999 183.08 124.554 183.08C125.109 183.08 125.594 182.861 126.01 182.424C126.426 181.976 126.634 181.405 126.634 180.712C126.634 180.019 126.431 179.437 126.026 178.968C125.621 178.499 125.135 178.264 124.57 178.264C124.005 178.264 123.525 178.499 123.13 178.968C122.746 179.427 122.554 180.008 122.554 180.712ZM135.95 176.248C136.953 176.248 137.844 176.669 138.622 177.512C139.412 178.344 139.806 179.395 139.806 180.664C139.806 181.933 139.412 182.995 138.622 183.848C137.844 184.701 136.926 185.128 135.87 185.128C134.825 185.128 133.982 184.707 133.342 183.864V188.104H130.942V176.392H133.342V177.352C134.078 176.616 134.948 176.248 135.95 176.248ZM133.31 180.712C133.31 181.405 133.502 181.976 133.886 182.424C134.281 182.861 134.756 183.08 135.31 183.08C135.865 183.08 136.35 182.861 136.766 182.424C137.182 181.976 137.39 181.405 137.39 180.712C137.39 180.019 137.188 179.437 136.782 178.968C136.377 178.499 135.892 178.264 135.326 178.264C134.761 178.264 134.281 178.499 133.886 178.968C133.502 179.427 133.31 180.008 133.31 180.712ZM148.1 182.328C148.1 183.171 147.786 183.848 147.156 184.36C146.538 184.872 145.748 185.128 144.788 185.128C144.148 185.128 143.482 185.016 142.788 184.792C142.095 184.557 141.471 184.216 140.916 183.768L141.972 182.264C142.868 182.957 143.823 183.304 144.836 183.304C145.146 183.304 145.391 183.245 145.572 183.128C145.754 183 145.844 182.835 145.844 182.632C145.844 182.429 145.716 182.243 145.46 182.072C145.215 181.901 144.852 181.741 144.372 181.592C143.903 181.443 143.54 181.315 143.284 181.208C143.039 181.101 142.756 180.947 142.436 180.744C141.786 180.339 141.46 179.741 141.46 178.952C141.46 178.152 141.78 177.501 142.42 177C143.06 176.499 143.887 176.248 144.9 176.248C145.914 176.248 146.927 176.589 147.94 177.272L147.044 178.872C146.298 178.36 145.551 178.104 144.804 178.104C144.068 178.104 143.7 178.307 143.7 178.712C143.7 178.936 143.818 179.112 144.052 179.24C144.287 179.368 144.676 179.517 145.22 179.688C145.764 179.859 146.148 179.992 146.372 180.088C146.607 180.173 146.884 180.312 147.204 180.504C147.802 180.867 148.1 181.475 148.1 182.328ZM159.312 176.248C160.357 176.248 161.269 176.659 162.048 177.48C162.826 178.291 163.216 179.336 163.216 180.616C163.216 181.896 162.816 182.968 162.016 183.832C161.216 184.696 160.304 185.128 159.28 185.128C158.266 185.128 157.424 184.707 156.752 183.864V185H154.352V173.128H156.752V177.352C157.413 176.616 158.266 176.248 159.312 176.248ZM156.72 180.712C156.72 181.405 156.912 181.976 157.296 182.424C157.69 182.861 158.165 183.08 158.72 183.08C159.274 183.08 159.76 182.861 160.176 182.424C160.592 181.976 160.8 181.405 160.8 180.712C160.8 180.019 160.597 179.437 160.192 178.968C159.786 178.499 159.301 178.264 158.736 178.264C158.17 178.264 157.69 178.499 157.296 178.968C156.912 179.427 156.72 180.008 156.72 180.712ZM166.424 188.392C165.581 188.392 164.787 188.051 164.04 187.368L165.128 185.592C165.533 185.987 165.949 186.184 166.376 186.184C166.6 186.184 166.792 186.072 166.952 185.848C167.112 185.635 167.192 185.405 167.192 185.16C167.192 184.915 166.083 181.992 163.864 176.392H166.424L168.52 181.752L170.616 176.392H173.176L169.176 186.536C168.941 187.123 168.573 187.576 168.072 187.896C167.581 188.227 167.032 188.392 166.424 188.392ZM181.192 180.36V185H178.792V173.128H181.192V177.352C181.918 176.616 182.728 176.248 183.624 176.248C184.531 176.248 185.294 176.568 185.912 177.208C186.531 177.848 186.84 178.701 186.84 179.768V185H184.44V180.296C184.44 178.973 183.955 178.312 182.984 178.312C182.504 178.312 182.083 178.488 181.72 178.84C181.368 179.181 181.192 179.688 181.192 180.36ZM196.423 185H194.167V183.96C193.548 184.739 192.78 185.128 191.863 185.128C190.956 185.128 190.194 184.867 189.575 184.344C188.956 183.811 188.647 183.107 188.647 182.232C188.647 181.347 188.967 180.685 189.607 180.248C190.247 179.811 191.122 179.592 192.231 179.592H194.023V179.544C194.023 178.627 193.538 178.168 192.567 178.168C192.151 178.168 191.708 178.253 191.239 178.424C190.78 178.584 190.391 178.787 190.071 179.032L188.999 177.48C190.13 176.659 191.42 176.248 192.871 176.248C193.916 176.248 194.77 176.509 195.431 177.032C196.092 177.555 196.423 178.381 196.423 179.512V185ZM194.007 181.72V181.304H192.503C191.543 181.304 191.063 181.603 191.063 182.2C191.063 182.509 191.175 182.749 191.399 182.92C191.634 183.08 191.964 183.16 192.391 183.16C192.818 183.16 193.191 183.032 193.511 182.776C193.842 182.509 194.007 182.157 194.007 181.72ZM201.111 180.2V185H198.711V176.392H201.111V177.352C201.836 176.616 202.652 176.248 203.559 176.248C204.466 176.248 205.223 176.568 205.831 177.208C206.45 177.848 206.759 178.701 206.759 179.768V185H204.359V180.136C204.359 178.813 203.874 178.152 202.903 178.152C202.423 178.152 202.002 178.328 201.639 178.68C201.287 179.021 201.111 179.528 201.111 180.2ZM212.47 185.128C211.456 185.128 210.55 184.696 209.75 183.832C208.95 182.968 208.55 181.896 208.55 180.616C208.55 179.336 208.939 178.291 209.718 177.48C210.496 176.659 211.408 176.248 212.454 176.248C213.499 176.248 214.352 176.616 215.014 177.352V173.128H217.414V185H215.014V183.864C214.342 184.707 213.494 185.128 212.47 185.128ZM210.966 180.712C210.966 181.405 211.174 181.976 211.59 182.424C212.006 182.861 212.491 183.08 213.046 183.08C213.6 183.08 214.07 182.861 214.454 182.424C214.848 181.976 215.046 181.405 215.046 180.712C215.046 180.008 214.848 179.427 214.454 178.968C214.07 178.499 213.595 178.264 213.03 178.264C212.464 178.264 211.979 178.499 211.574 178.968C211.168 179.437 210.966 180.019 210.966 180.712Z" fill="#737373"/>
<g clip-path="url(#clip0_688_3833)">
<path d="M131.24 241.04H142.56V269H136.56V246.36H131.24V241.04ZM157.333 263.96C159.066 263.96 160.399 263.387 161.333 262.24C162.293 261.067 162.879 259.48 163.093 257.48C161.386 258.627 159.546 259.2 157.573 259.2C154.959 259.2 152.773 258.347 151.013 256.64C149.279 254.907 148.413 252.627 148.413 249.8C148.413 246.973 149.346 244.707 151.213 243C153.106 241.267 155.479 240.4 158.333 240.4C160.306 240.4 162.013 240.787 163.453 241.56C164.919 242.307 166.066 243.36 166.893 244.72C168.466 247.36 169.253 250.667 169.253 254.64C169.253 257.2 168.933 259.453 168.293 261.4C167.679 263.32 166.839 264.84 165.773 265.96C163.586 268.2 160.933 269.32 157.813 269.32C156.506 269.32 155.253 269.133 154.053 268.76C152.853 268.36 151.946 267.973 151.333 267.6C150.719 267.2 150.013 266.693 149.213 266.08L152.333 261.68C152.519 261.84 152.759 262.053 153.053 262.32C153.373 262.56 153.973 262.893 154.853 263.32C155.733 263.747 156.559 263.96 157.333 263.96ZM158.173 253.88C159.426 253.88 160.466 253.52 161.293 252.8C162.119 252.08 162.533 251.133 162.533 249.96C162.533 248.787 162.133 247.773 161.333 246.92C160.533 246.067 159.533 245.64 158.333 245.64C157.133 245.64 156.146 246.027 155.373 246.8C154.626 247.547 154.253 248.507 154.253 249.68C154.253 250.853 154.599 251.853 155.293 252.68C155.986 253.48 156.946 253.88 158.173 253.88ZM182.489 271.76V268.84C179.102 268.307 175.982 266.773 173.129 264.24L176.849 259.72C178.929 261.533 180.809 262.693 182.489 263.2V257.24C179.689 256.52 177.636 255.56 176.329 254.36C175.022 253.133 174.369 251.387 174.369 249.12C174.369 246.827 175.116 244.947 176.609 243.48C178.102 241.987 180.062 241.093 182.489 240.8V238.84H186.729V240.88C189.396 241.253 192.049 242.36 194.689 244.2L191.409 248.92C189.729 247.72 188.169 246.92 186.729 246.52V252.28C189.609 253.027 191.729 254.027 193.089 255.28C194.476 256.533 195.169 258.307 195.169 260.6C195.169 262.893 194.396 264.787 192.849 266.28C191.329 267.773 189.289 268.667 186.729 268.96V271.76H182.489ZM188.769 260.92C188.769 260.36 188.622 259.893 188.329 259.52C188.036 259.147 187.502 258.8 186.729 258.48V263.4C188.089 262.973 188.769 262.147 188.769 260.92ZM182.489 246.36C181.342 246.76 180.769 247.493 180.769 248.56C180.769 249.627 181.342 250.44 182.489 251V246.36Z" fill="#23A6F0"/>
<path d="M126.328 289.816C128.045 289.816 129.293 290.152 130.072 290.824C130.861 291.485 131.256 292.509 131.256 293.896C131.256 295.272 130.851 296.28 130.04 296.92C129.24 297.56 128.013 297.88 126.36 297.88H124.872V301H122.376V289.816H126.328ZM126.552 295.72C127.384 295.72 127.949 295.555 128.248 295.224C128.547 294.883 128.696 294.392 128.696 293.752C128.696 293.101 128.499 292.643 128.104 292.376C127.72 292.099 127.117 291.96 126.296 291.96H124.872V295.72H126.552ZM140.52 299.752C139.549 300.669 138.408 301.128 137.096 301.128C135.795 301.128 134.717 300.728 133.864 299.928C133.011 299.117 132.584 298.035 132.584 296.68C132.584 295.325 133.016 294.248 133.88 293.448C134.755 292.648 135.784 292.248 136.968 292.248C138.152 292.248 139.155 292.605 139.976 293.32C140.808 294.035 141.224 295.016 141.224 296.264V297.544H134.952C135.027 298.013 135.272 298.397 135.688 298.696C136.104 298.995 136.573 299.144 137.096 299.144C137.939 299.144 138.632 298.861 139.176 298.296L140.52 299.752ZM138.792 295.832C138.739 295.32 138.547 294.925 138.216 294.648C137.885 294.371 137.48 294.232 137 294.232C136.531 294.232 136.099 294.376 135.704 294.664C135.309 294.952 135.08 295.341 135.016 295.832H138.792ZM147.583 294.504C146.868 294.504 146.335 294.76 145.983 295.272C145.631 295.773 145.455 296.44 145.455 297.272V301H143.055V292.392H145.455V293.528C145.764 293.176 146.148 292.877 146.607 292.632C147.076 292.387 147.551 292.259 148.031 292.248L148.047 294.504H147.583ZM164.308 293.96L161.284 300.072H159.796L156.788 293.96V301H154.292V289.816H157.668L160.548 295.96L163.444 289.816H166.804V301H164.308V293.96ZM171.337 296.696C171.337 297.4 171.535 297.976 171.929 298.424C172.335 298.861 172.847 299.08 173.465 299.08C174.095 299.08 174.607 298.861 175.001 298.424C175.407 297.976 175.609 297.4 175.609 296.696C175.609 295.992 175.407 295.416 175.001 294.968C174.607 294.52 174.095 294.296 173.465 294.296C172.847 294.296 172.335 294.52 171.929 294.968C171.535 295.416 171.337 295.992 171.337 296.696ZM178.025 296.696C178.025 297.944 177.593 298.995 176.729 299.848C175.865 300.701 174.777 301.128 173.465 301.128C172.164 301.128 171.081 300.701 170.217 299.848C169.353 298.995 168.921 297.944 168.921 296.696C168.921 295.448 169.353 294.397 170.217 293.544C171.081 292.68 172.164 292.248 173.465 292.248C174.777 292.248 175.865 292.68 176.729 293.544C177.593 294.397 178.025 295.448 178.025 296.696ZM182.308 296.2V301H179.908V292.392H182.308V293.352C183.033 292.616 183.849 292.248 184.756 292.248C185.663 292.248 186.42 292.568 187.028 293.208C187.647 293.848 187.956 294.701 187.956 295.768V301H185.556V296.136C185.556 294.813 185.071 294.152 184.1 294.152C183.62 294.152 183.199 294.328 182.836 294.68C182.484 295.021 182.308 295.528 182.308 296.2ZM192.966 294.12V297.976C192.966 298.307 193.051 298.568 193.222 298.76C193.392 298.941 193.595 299.032 193.83 299.032C194.278 299.032 194.656 298.829 194.966 298.424L195.862 300.104C195.115 300.787 194.326 301.128 193.494 301.128C192.672 301.128 191.974 300.856 191.398 300.312C190.832 299.768 190.55 299.027 190.55 298.088V294.12H189.542V292.392H190.55V289.816H192.966V292.392H195.046V294.12H192.966ZM199.649 296.36V301H197.249V289.128H199.649V293.352C200.374 292.616 201.185 292.248 202.081 292.248C202.987 292.248 203.75 292.568 204.369 293.208C204.987 293.848 205.297 294.701 205.297 295.768V301H202.897V296.296C202.897 294.973 202.411 294.312 201.441 294.312C200.961 294.312 200.539 294.488 200.177 294.84C199.825 295.181 199.649 295.688 199.649 296.36Z" fill="#8EC2F2"/>
</g>
<rect x="41" y="342" width="246" height="58" rx="5" fill="#23A6F0"/>
<path d="M128.791 368.104V376H126.607V368.104H123.835V366.214H131.563V368.104H128.791ZM137.117 370.316C136.491 370.316 136.025 370.54 135.717 370.988C135.409 371.427 135.255 372.01 135.255 372.738V376H133.155V368.468H135.255V369.462C135.525 369.154 135.861 368.893 136.263 368.678C136.673 368.463 137.089 368.351 137.509 368.342L137.523 370.316H137.117ZM140.412 378.968C139.675 378.968 138.98 378.669 138.326 378.072L139.278 376.518C139.633 376.863 139.997 377.036 140.37 377.036C140.566 377.036 140.734 376.938 140.874 376.742C141.014 376.555 141.084 376.355 141.084 376.14C141.084 375.925 140.114 373.368 138.172 368.468H140.412L142.246 373.158L144.08 368.468H146.32L142.82 377.344C142.615 377.857 142.293 378.254 141.854 378.534C141.425 378.823 140.944 378.968 140.412 378.968ZM153.966 368.034V368.538H155.786V370.05H153.966V376H151.852V370.05H150.97V368.538H151.852V368.076C151.852 367.255 152.099 366.606 152.594 366.13C153.098 365.645 153.718 365.402 154.456 365.402C155.202 365.402 155.879 365.682 156.486 366.242L155.73 367.656C155.422 367.301 155.081 367.124 154.708 367.124C154.493 367.124 154.316 367.203 154.176 367.362C154.036 367.511 153.966 367.735 153.966 368.034ZM158.795 372.234C158.795 372.85 158.967 373.354 159.313 373.746C159.667 374.129 160.115 374.32 160.657 374.32C161.207 374.32 161.655 374.129 162.001 373.746C162.355 373.354 162.533 372.85 162.533 372.234C162.533 371.618 162.355 371.114 162.001 370.722C161.655 370.33 161.207 370.134 160.657 370.134C160.115 370.134 159.667 370.33 159.313 370.722C158.967 371.114 158.795 371.618 158.795 372.234ZM164.647 372.234C164.647 373.326 164.269 374.245 163.513 374.992C162.757 375.739 161.805 376.112 160.657 376.112C159.518 376.112 158.571 375.739 157.815 374.992C157.059 374.245 156.681 373.326 156.681 372.234C156.681 371.142 157.059 370.223 157.815 369.476C158.571 368.72 159.518 368.342 160.657 368.342C161.805 368.342 162.757 368.72 163.513 369.476C164.269 370.223 164.647 371.142 164.647 372.234ZM170.369 370.316C169.743 370.316 169.277 370.54 168.969 370.988C168.661 371.427 168.507 372.01 168.507 372.738V376H166.407V368.468H168.507V369.462C168.777 369.154 169.113 368.893 169.515 368.678C169.925 368.463 170.341 368.351 170.761 368.342L170.775 370.316H170.369ZM178.76 368.034V368.538H180.58V370.05H178.76V376H176.646V370.05H175.764V368.538H176.646V368.076C176.646 367.255 176.893 366.606 177.388 366.13C177.892 365.645 178.512 365.402 179.25 365.402C179.996 365.402 180.673 365.682 181.28 366.242L180.524 367.656C180.216 367.301 179.875 367.124 179.502 367.124C179.287 367.124 179.11 367.203 178.97 367.362C178.83 367.511 178.76 367.735 178.76 368.034ZM186.049 370.316C185.423 370.316 184.957 370.54 184.649 370.988C184.341 371.427 184.187 372.01 184.187 372.738V376H182.087V368.468H184.187V369.462C184.457 369.154 184.793 368.893 185.195 368.678C185.605 368.463 186.021 368.351 186.441 368.342L186.455 370.316H186.049ZM194.566 374.908C193.717 375.711 192.718 376.112 191.57 376.112C190.432 376.112 189.489 375.762 188.742 375.062C187.996 374.353 187.622 373.405 187.622 372.22C187.622 371.035 188 370.092 188.756 369.392C189.522 368.692 190.422 368.342 191.458 368.342C192.494 368.342 193.372 368.655 194.09 369.28C194.818 369.905 195.182 370.764 195.182 371.856V372.976H189.694C189.76 373.387 189.974 373.723 190.338 373.984C190.702 374.245 191.113 374.376 191.57 374.376C192.308 374.376 192.914 374.129 193.39 373.634L194.566 374.908ZM193.054 371.478C193.008 371.03 192.84 370.685 192.55 370.442C192.261 370.199 191.906 370.078 191.486 370.078C191.076 370.078 190.698 370.204 190.352 370.456C190.007 370.708 189.806 371.049 189.75 371.478H193.054ZM203.421 374.908C202.571 375.711 201.573 376.112 200.425 376.112C199.286 376.112 198.343 375.762 197.597 375.062C196.85 374.353 196.477 373.405 196.477 372.22C196.477 371.035 196.855 370.092 197.611 369.392C198.376 368.692 199.277 368.342 200.313 368.342C201.349 368.342 202.226 368.655 202.945 369.28C203.673 369.905 204.037 370.764 204.037 371.856V372.976H198.549C198.614 373.387 198.829 373.723 199.193 373.984C199.557 374.245 199.967 374.376 200.425 374.376C201.162 374.376 201.769 374.129 202.245 373.634L203.421 374.908ZM201.909 371.478C201.862 371.03 201.694 370.685 201.405 370.442C201.115 370.199 200.761 370.078 200.341 370.078C199.93 370.078 199.552 370.204 199.207 370.456C198.861 370.708 198.661 371.049 198.605 371.478H201.909Z" fill="white"/>
<g clip-path="url(#clip1_688_3833)">
<g clip-path="url(#clip2_688_3833)">
<rect x="40.5" y="435" width="32" height="32" rx="16" fill="#2DC071"/>
<g clip-path="url(#clip3_688_3833)">
<path fill-rule="evenodd" clip-rule="evenodd" d="M64.7957 445.204C64.8604 445.269 64.9118 445.346 64.9469 445.43C64.9819 445.515 65 445.605 65 445.697C65 445.788 64.9819 445.879 64.9469 445.963C64.9118 446.048 64.8604 446.125 64.7957 446.189L55.0578 455.927C54.9932 455.992 54.9164 456.043 54.8319 456.078C54.7474 456.113 54.6568 456.131 54.5654 456.131C54.4739 456.131 54.3833 456.113 54.2988 456.078C54.2143 456.043 54.1375 455.992 54.0729 455.927L49.204 451.058C49.0734 450.928 49 450.75 49 450.566C49 450.381 49.0734 450.204 49.204 450.073C49.3346 449.943 49.5117 449.869 49.6964 449.869C49.8811 449.869 50.0583 449.943 50.1889 450.073L54.5654 454.451L63.8107 445.204C63.8754 445.14 63.9521 445.088 64.0366 445.053C64.1211 445.018 64.2117 445 64.3032 445C64.3947 445 64.4853 445.018 64.5698 445.053C64.6543 445.088 64.731 445.14 64.7957 445.204Z" fill="white"/>
</g>
<path d="M88.03 453.515C90.704 453.515 92.314 451.961 92.314 449.105V443.575H90.522V449.035C90.522 451.051 89.626 451.919 88.044 451.919C86.462 451.919 85.552 451.051 85.552 449.035V443.575H83.732V449.105C83.732 451.961 85.342 453.515 88.03 453.515ZM99.1369 445.815C98.0449 445.815 97.1349 446.179 96.5609 446.865V445.899H94.8949V453.375H96.6449V449.595C96.6449 448.097 97.4849 447.341 98.7309 447.341C99.8509 447.341 100.509 447.985 100.509 449.315V453.375H102.259V449.091C102.259 446.837 100.929 445.815 99.1369 445.815ZM104.679 453.375H106.429V442.987H104.679V453.375ZM109.808 444.667C110.466 444.667 110.928 444.191 110.928 443.575C110.928 443.001 110.452 442.567 109.808 442.567C109.164 442.567 108.688 443.029 108.688 443.617C108.688 444.205 109.164 444.667 109.808 444.667ZM108.926 453.375H110.676V445.899H108.926V453.375ZM122.609 445.815C121.419 445.815 120.411 446.291 119.809 447.061C119.291 446.221 118.381 445.815 117.289 445.815C116.267 445.815 115.399 446.179 114.839 446.851V445.899H113.173V453.375H114.923V449.581C114.923 448.097 115.707 447.341 116.869 447.341C117.933 447.341 118.549 447.985 118.549 449.315V453.375H120.299V449.581C120.299 448.097 121.097 447.341 122.245 447.341C123.309 447.341 123.925 447.985 123.925 449.315V453.375H125.675V449.091C125.675 446.837 124.415 445.815 122.609 445.815ZM128.993 444.667C129.651 444.667 130.113 444.191 130.113 443.575C130.113 443.001 129.637 442.567 128.993 442.567C128.349 442.567 127.873 443.029 127.873 443.617C127.873 444.205 128.349 444.667 128.993 444.667ZM128.111 453.375H129.861V445.899H128.111V453.375ZM136.362 451.723C136.096 451.933 135.746 452.031 135.382 452.031C134.71 452.031 134.346 451.639 134.346 450.911V447.355H136.348V445.955H134.346V444.247H132.596V445.955H131.364V447.355H132.596V450.953C132.596 452.605 133.534 453.473 135.172 453.473C135.802 453.473 136.432 453.305 136.852 452.969L136.362 451.723ZM145.273 449.679C145.273 447.341 143.677 445.815 141.493 445.815C139.267 445.815 137.629 447.411 137.629 449.637C137.629 451.863 139.253 453.473 141.759 453.473C143.047 453.473 144.097 453.053 144.769 452.255L143.831 451.177C143.299 451.723 142.641 451.989 141.801 451.989C140.499 451.989 139.589 451.289 139.379 450.197H145.245C145.259 450.029 145.273 449.819 145.273 449.679ZM141.493 447.215C142.641 447.215 143.467 447.957 143.607 449.035H139.365C139.533 447.943 140.359 447.215 141.493 447.215ZM152.726 442.987V446.823C152.138 446.137 151.284 445.815 150.318 445.815C148.148 445.815 146.538 447.313 146.538 449.637C146.538 451.961 148.148 453.473 150.318 453.473C151.34 453.473 152.208 453.123 152.796 452.409V453.375H154.476V442.987H152.726ZM150.528 451.975C149.268 451.975 148.302 451.065 148.302 449.637C148.302 448.209 149.268 447.299 150.528 447.299C151.788 447.299 152.754 448.209 152.754 449.637C152.754 451.065 151.788 451.975 150.528 451.975ZM165.179 445.815C164.157 445.815 163.289 446.165 162.701 446.879V445.899H161.035V456.091H162.785V452.465C163.387 453.151 164.227 453.473 165.179 453.473C167.363 453.473 168.973 451.961 168.973 449.637C168.973 447.327 167.363 445.815 165.179 445.815ZM164.983 451.975C163.723 451.975 162.757 451.065 162.757 449.637C162.757 448.209 163.723 447.299 164.983 447.299C166.243 447.299 167.195 448.209 167.195 449.637C167.195 451.065 166.243 451.975 164.983 451.975ZM172.498 446.991V445.899H170.832V453.375H172.582V449.749C172.582 448.223 173.422 447.439 174.752 447.439C174.878 447.439 175.004 447.453 175.158 447.481V445.815C173.912 445.815 173.002 446.207 172.498 446.991ZM180.135 453.473C182.459 453.473 184.125 451.877 184.125 449.637C184.125 447.397 182.459 445.815 180.135 445.815C177.839 445.815 176.159 447.397 176.159 449.637C176.159 451.877 177.839 453.473 180.135 453.473ZM180.135 451.975C178.875 451.975 177.923 451.065 177.923 449.637C177.923 448.209 178.875 447.299 180.135 447.299C181.409 447.299 182.361 448.209 182.361 449.637C182.361 451.065 181.409 451.975 180.135 451.975ZM191.57 442.987V446.823C190.982 446.137 190.128 445.815 189.162 445.815C186.992 445.815 185.382 447.313 185.382 449.637C185.382 451.961 186.992 453.473 189.162 453.473C190.184 453.473 191.052 453.123 191.64 452.409V453.375H193.32V442.987H191.57ZM189.372 451.975C188.112 451.975 187.146 451.065 187.146 449.637C187.146 448.209 188.112 447.299 189.372 447.299C190.632 447.299 191.598 448.209 191.598 449.637C191.598 451.065 190.632 451.975 189.372 451.975ZM201.297 445.899V449.679C201.297 451.177 200.471 451.933 199.253 451.933C198.147 451.933 197.503 451.289 197.503 449.931V445.899H195.753V450.169C195.753 452.423 197.055 453.473 198.973 453.473C199.939 453.473 200.821 453.109 201.381 452.423V453.375H203.047V445.899H201.297ZM208.969 453.473C210.425 453.473 211.587 452.843 212.161 451.723L210.817 450.939C210.369 451.653 209.697 451.975 208.955 451.975C207.667 451.975 206.687 451.093 206.687 449.637C206.687 448.195 207.667 447.299 208.955 447.299C209.697 447.299 210.369 447.621 210.817 448.335L212.161 447.551C211.587 446.417 210.425 445.815 208.969 445.815C206.603 445.815 204.923 447.397 204.923 449.637C204.923 451.877 206.603 453.473 208.969 453.473ZM217.973 451.723C217.707 451.933 217.357 452.031 216.993 452.031C216.321 452.031 215.957 451.639 215.957 450.911V447.355H217.959V445.955H215.957V444.247H214.207V445.955H212.975V447.355H214.207V450.953C214.207 452.605 215.145 453.473 216.783 453.473C217.413 453.473 218.043 453.305 218.463 452.969L217.973 451.723ZM229.66 445.899V449.679C229.66 451.177 228.834 451.933 227.616 451.933C226.51 451.933 225.866 451.289 225.866 449.931V445.899H224.116V450.169C224.116 452.423 225.418 453.473 227.336 453.473C228.302 453.473 229.184 453.109 229.744 452.423V453.375H231.41V445.899H229.66ZM238.045 445.815C237.023 445.815 236.155 446.165 235.567 446.879V445.899H233.901V456.091H235.651V452.465C236.253 453.151 237.093 453.473 238.045 453.473C240.229 453.473 241.839 451.961 241.839 449.637C241.839 447.327 240.229 445.815 238.045 445.815ZM237.849 451.975C236.589 451.975 235.623 451.065 235.623 449.637C235.623 448.209 236.589 447.299 237.849 447.299C239.109 447.299 240.061 448.209 240.061 449.637C240.061 451.065 239.109 451.975 237.849 451.975ZM249.271 442.987V446.823C248.683 446.137 247.829 445.815 246.863 445.815C244.693 445.815 243.083 447.313 243.083 449.637C243.083 451.961 244.693 453.473 246.863 453.473C247.885 453.473 248.753 453.123 249.341 452.409V453.375H251.021V442.987H249.271ZM247.073 451.975C245.813 451.975 244.847 451.065 244.847 449.637C244.847 448.209 245.813 447.299 247.073 447.299C248.333 447.299 249.299 448.209 249.299 449.637C249.299 451.065 248.333 451.975 247.073 451.975ZM256.366 445.815C255.162 445.815 254 446.123 253.202 446.739L253.888 448.013C254.448 447.551 255.316 447.271 256.156 447.271C257.402 447.271 258.018 447.873 258.018 448.895V449.007H256.086C253.818 449.007 252.978 449.987 252.978 451.233C252.978 452.535 254.056 453.473 255.764 453.473C256.884 453.473 257.696 453.109 258.116 452.465V453.375H259.768V448.993C259.768 446.837 258.522 445.815 256.366 445.815ZM256.128 452.199C255.232 452.199 254.7 451.793 254.7 451.163C254.7 450.617 255.022 450.169 256.212 450.169H258.018V451.037C257.724 451.807 256.982 452.199 256.128 452.199ZM266.218 451.723C265.952 451.933 265.602 452.031 265.238 452.031C264.566 452.031 264.202 451.639 264.202 450.911V447.355H266.204V445.955H264.202V444.247H262.452V445.955H261.22V447.355H262.452V450.953C262.452 452.605 263.39 453.473 265.028 453.473C265.658 453.473 266.288 453.305 266.708 452.969L266.218 451.723ZM275.13 449.679C275.13 447.341 273.534 445.815 271.35 445.815C269.124 445.815 267.486 447.411 267.486 449.637C267.486 451.863 269.11 453.473 271.616 453.473C272.904 453.473 273.954 453.053 274.626 452.255L273.688 451.177C273.156 451.723 272.498 451.989 271.658 451.989C270.356 451.989 269.446 451.289 269.236 450.197H275.102C275.116 450.029 275.13 449.819 275.13 449.679ZM271.35 447.215C272.498 447.215 273.324 447.957 273.464 449.035H269.222C269.39 447.943 270.216 447.215 271.35 447.215ZM279.321 453.473C281.421 453.473 282.709 452.563 282.709 451.163C282.709 448.237 278.089 449.581 278.089 448.069C278.089 447.579 278.593 447.229 279.657 447.229C280.371 447.229 281.085 447.369 281.799 447.789L282.471 446.459C281.799 446.053 280.665 445.815 279.671 445.815C277.655 445.815 276.381 446.739 276.381 448.153C276.381 451.135 281.001 449.791 281.001 451.219C281.001 451.737 280.539 452.045 279.433 452.045C278.495 452.045 277.487 451.737 276.829 451.303L276.157 452.633C276.829 453.109 278.075 453.473 279.321 453.473Z" fill="#252B42"/>
</g>
<g clip-path="url(#clip4_688_3833)">
<rect x="40.5" y="482" width="32" height="32" rx="16" fill="#2DC071"/>
<g clip-path="url(#clip5_688_3833)">
<path fill-rule="evenodd" clip-rule="evenodd" d="M64.7957 492.204C64.8604 492.269 64.9118 492.346 64.9469 492.43C64.9819 492.515 65 492.605 65 492.697C65 492.788 64.9819 492.879 64.9469 492.963C64.9118 493.048 64.8604 493.125 64.7957 493.189L55.0578 502.927C54.9932 502.992 54.9164 503.043 54.8319 503.078C54.7474 503.113 54.6568 503.131 54.5654 503.131C54.4739 503.131 54.3833 503.113 54.2988 503.078C54.2143 503.043 54.1375 502.992 54.0729 502.927L49.204 498.058C49.0734 497.928 49 497.75 49 497.566C49 497.381 49.0734 497.204 49.204 497.073C49.3346 496.943 49.5117 496.869 49.6964 496.869C49.8811 496.869 50.0583 496.943 50.1889 497.073L54.5654 501.451L63.8107 492.204C63.8754 492.14 63.9521 492.088 64.0366 492.053C64.1211 492.018 64.2117 492 64.3032 492C64.3947 492 64.4853 492.018 64.5698 492.053C64.6543 492.088 64.731 492.14 64.7957 492.204Z" fill="white"/>
</g>
<path d="M88.03 500.515C90.704 500.515 92.314 498.961 92.314 496.105V490.575H90.522V496.035C90.522 498.051 89.626 498.919 88.044 498.919C86.462 498.919 85.552 498.051 85.552 496.035V490.575H83.732V496.105C83.732 498.961 85.342 500.515 88.03 500.515ZM99.1369 492.815C98.0449 492.815 97.1349 493.179 96.5609 493.865V492.899H94.8949V500.375H96.6449V496.595C96.6449 495.097 97.4849 494.341 98.7309 494.341C99.8509 494.341 100.509 494.985 100.509 496.315V500.375H102.259V496.091C102.259 493.837 100.929 492.815 99.1369 492.815ZM104.679 500.375H106.429V489.987H104.679V500.375ZM109.808 491.667C110.466 491.667 110.928 491.191 110.928 490.575C110.928 490.001 110.452 489.567 109.808 489.567C109.164 489.567 108.688 490.029 108.688 490.617C108.688 491.205 109.164 491.667 109.808 491.667ZM108.926 500.375H110.676V492.899H108.926V500.375ZM122.609 492.815C121.419 492.815 120.411 493.291 119.809 494.061C119.291 493.221 118.381 492.815 117.289 492.815C116.267 492.815 115.399 493.179 114.839 493.851V492.899H113.173V500.375H114.923V496.581C114.923 495.097 115.707 494.341 116.869 494.341C117.933 494.341 118.549 494.985 118.549 496.315V500.375H120.299V496.581C120.299 495.097 121.097 494.341 122.245 494.341C123.309 494.341 123.925 494.985 123.925 496.315V500.375H125.675V496.091C125.675 493.837 124.415 492.815 122.609 492.815ZM128.993 491.667C129.651 491.667 130.113 491.191 130.113 490.575C130.113 490.001 129.637 489.567 128.993 489.567C128.349 489.567 127.873 490.029 127.873 490.617C127.873 491.205 128.349 491.667 128.993 491.667ZM128.111 500.375H129.861V492.899H128.111V500.375ZM136.362 498.723C136.096 498.933 135.746 499.031 135.382 499.031C134.71 499.031 134.346 498.639 134.346 497.911V494.355H136.348V492.955H134.346V491.247H132.596V492.955H131.364V494.355H132.596V497.953C132.596 499.605 133.534 500.473 135.172 500.473C135.802 500.473 136.432 500.305 136.852 499.969L136.362 498.723ZM145.273 496.679C145.273 494.341 143.677 492.815 141.493 492.815C139.267 492.815 137.629 494.411 137.629 496.637C137.629 498.863 139.253 500.473 141.759 500.473C143.047 500.473 144.097 500.053 144.769 499.255L143.831 498.177C143.299 498.723 142.641 498.989 141.801 498.989C140.499 498.989 139.589 498.289 139.379 497.197H145.245C145.259 497.029 145.273 496.819 145.273 496.679ZM141.493 494.215C142.641 494.215 143.467 494.957 143.607 496.035H139.365C139.533 494.943 140.359 494.215 141.493 494.215ZM152.726 489.987V493.823C152.138 493.137 151.284 492.815 150.318 492.815C148.148 492.815 146.538 494.313 146.538 496.637C146.538 498.961 148.148 500.473 150.318 500.473C151.34 500.473 152.208 500.123 152.796 499.409V500.375H154.476V489.987H152.726ZM150.528 498.975C149.268 498.975 148.302 498.065 148.302 496.637C148.302 495.209 149.268 494.299 150.528 494.299C151.788 494.299 152.754 495.209 152.754 496.637C152.754 498.065 151.788 498.975 150.528 498.975ZM165.179 492.815C164.157 492.815 163.289 493.165 162.701 493.879V492.899H161.035V503.091H162.785V499.465C163.387 500.151 164.227 500.473 165.179 500.473C167.363 500.473 168.973 498.961 168.973 496.637C168.973 494.327 167.363 492.815 165.179 492.815ZM164.983 498.975C163.723 498.975 162.757 498.065 162.757 496.637C162.757 495.209 163.723 494.299 164.983 494.299C166.243 494.299 167.195 495.209 167.195 496.637C167.195 498.065 166.243 498.975 164.983 498.975ZM172.498 493.991V492.899H170.832V500.375H172.582V496.749C172.582 495.223 173.422 494.439 174.752 494.439C174.878 494.439 175.004 494.453 175.158 494.481V492.815C173.912 492.815 173.002 493.207 172.498 493.991ZM180.135 500.473C182.459 500.473 184.125 498.877 184.125 496.637C184.125 494.397 182.459 492.815 180.135 492.815C177.839 492.815 176.159 494.397 176.159 496.637C176.159 498.877 177.839 500.473 180.135 500.473ZM180.135 498.975C178.875 498.975 177.923 498.065 177.923 496.637C177.923 495.209 178.875 494.299 180.135 494.299C181.409 494.299 182.361 495.209 182.361 496.637C182.361 498.065 181.409 498.975 180.135 498.975ZM191.57 489.987V493.823C190.982 493.137 190.128 492.815 189.162 492.815C186.992 492.815 185.382 494.313 185.382 496.637C185.382 498.961 186.992 500.473 189.162 500.473C190.184 500.473 191.052 500.123 191.64 499.409V500.375H193.32V489.987H191.57ZM189.372 498.975C188.112 498.975 187.146 498.065 187.146 496.637C187.146 495.209 188.112 494.299 189.372 494.299C190.632 494.299 191.598 495.209 191.598 496.637C191.598 498.065 190.632 498.975 189.372 498.975ZM201.297 492.899V496.679C201.297 498.177 200.471 498.933 199.253 498.933C198.147 498.933 197.503 498.289 197.503 496.931V492.899H195.753V497.169C195.753 499.423 197.055 500.473 198.973 500.473C199.939 500.473 200.821 500.109 201.381 499.423V500.375H203.047V492.899H201.297ZM208.969 500.473C210.425 500.473 211.587 499.843 212.161 498.723L210.817 497.939C210.369 498.653 209.697 498.975 208.955 498.975C207.667 498.975 206.687 498.093 206.687 496.637C206.687 495.195 207.667 494.299 208.955 494.299C209.697 494.299 210.369 494.621 210.817 495.335L212.161 494.551C211.587 493.417 210.425 492.815 208.969 492.815C206.603 492.815 204.923 494.397 204.923 496.637C204.923 498.877 206.603 500.473 208.969 500.473ZM217.973 498.723C217.707 498.933 217.357 499.031 216.993 499.031C216.321 499.031 215.957 498.639 215.957 497.911V494.355H217.959V492.955H215.957V491.247H214.207V492.955H212.975V494.355H214.207V497.953C214.207 499.605 215.145 500.473 216.783 500.473C217.413 500.473 218.043 500.305 218.463 499.969L217.973 498.723ZM229.66 492.899V496.679C229.66 498.177 228.834 498.933 227.616 498.933C226.51 498.933 225.866 498.289 225.866 496.931V492.899H224.116V497.169C224.116 499.423 225.418 500.473 227.336 500.473C228.302 500.473 229.184 500.109 229.744 499.423V500.375H231.41V492.899H229.66ZM238.045 492.815C237.023 492.815 236.155 493.165 235.567 493.879V492.899H233.901V503.091H235.651V499.465C236.253 500.151 237.093 500.473 238.045 500.473C240.229 500.473 241.839 498.961 241.839 496.637C241.839 494.327 240.229 492.815 238.045 492.815ZM237.849 498.975C236.589 498.975 235.623 498.065 235.623 496.637C235.623 495.209 236.589 494.299 237.849 494.299C239.109 494.299 240.061 495.209 240.061 496.637C240.061 498.065 239.109 498.975 237.849 498.975ZM249.271 489.987V493.823C248.683 493.137 247.829 492.815 246.863 492.815C244.693 492.815 243.083 494.313 243.083 496.637C243.083 498.961 244.693 500.473 246.863 500.473C247.885 500.473 248.753 500.123 249.341 499.409V500.375H251.021V489.987H249.271ZM247.073 498.975C245.813 498.975 244.847 498.065 244.847 496.637C244.847 495.209 245.813 494.299 247.073 494.299C248.333 494.299 249.299 495.209 249.299 496.637C249.299 498.065 248.333 498.975 247.073 498.975ZM256.366 492.815C255.162 492.815 254 493.123 253.202 493.739L253.888 495.013C254.448 494.551 255.316 494.271 256.156 494.271C257.402 494.271 258.018 494.873 258.018 495.895V496.007H256.086C253.818 496.007 252.978 496.987 252.978 498.233C252.978 499.535 254.056 500.473 255.764 500.473C256.884 500.473 257.696 500.109 258.116 499.465V500.375H259.768V495.993C259.768 493.837 258.522 492.815 256.366 492.815ZM256.128 499.199C255.232 499.199 254.7 498.793 254.7 498.163C254.7 497.617 255.022 497.169 256.212 497.169H258.018V498.037C257.724 498.807 256.982 499.199 256.128 499.199ZM266.218 498.723C265.952 498.933 265.602 499.031 265.238 499.031C264.566 499.031 264.202 498.639 264.202 497.911V494.355H266.204V492.955H264.202V491.247H262.452V492.955H261.22V494.355H262.452V497.953C262.452 499.605 263.39 500.473 265.028 500.473C265.658 500.473 266.288 500.305 266.708 499.969L266.218 498.723ZM275.13 496.679C275.13 494.341 273.534 492.815 271.35 492.815C269.124 492.815 267.486 494.411 267.486 496.637C267.486 498.863 269.11 500.473 271.616 500.473C272.904 500.473 273.954 500.053 274.626 499.255L273.688 498.177C273.156 498.723 272.498 498.989 271.658 498.989C270.356 498.989 269.446 498.289 269.236 497.197H275.102C275.116 497.029 275.13 496.819 275.13 496.679ZM271.35 494.215C272.498 494.215 273.324 494.957 273.464 496.035H269.222C269.39 494.943 270.216 494.215 271.35 494.215ZM279.321 500.473C281.421 500.473 282.709 499.563 282.709 498.163C282.709 495.237 278.089 496.581 278.089 495.069C278.089 494.579 278.593 494.229 279.657 494.229C280.371 494.229 281.085 494.369 281.799 494.789L282.471 493.459C281.799 493.053 280.665 492.815 279.671 492.815C277.655 492.815 276.381 493.739 276.381 495.153C276.381 498.135 281.001 496.791 281.001 498.219C281.001 498.737 280.539 499.045 279.433 499.045C278.495 499.045 277.487 498.737 276.829 498.303L276.157 499.633C276.829 500.109 278.075 500.473 279.321 500.473Z" fill="#252B42"/>
</g>
<g clip-path="url(#clip6_688_3833)">
<rect x="40.5" y="529" width="32" height="32" rx="16" fill="#2DC071"/>
<g clip-path="url(#clip7_688_3833)">
<path fill-rule="evenodd" clip-rule="evenodd" d="M64.7957 539.204C64.8604 539.269 64.9118 539.346 64.9469 539.43C64.9819 539.515 65 539.605 65 539.697C65 539.788 64.9819 539.879 64.9469 539.963C64.9118 540.048 64.8604 540.125 64.7957 540.189L55.0578 549.927C54.9932 549.992 54.9164 550.043 54.8319 550.078C54.7474 550.113 54.6568 550.131 54.5654 550.131C54.4739 550.131 54.3833 550.113 54.2988 550.078C54.2143 550.043 54.1375 549.992 54.0729 549.927L49.204 545.058C49.0734 544.928 49 544.75 49 544.566C49 544.381 49.0734 544.204 49.204 544.073C49.3346 543.943 49.5117 543.869 49.6964 543.869C49.8811 543.869 50.0583 543.943 50.1889 544.073L54.5654 548.451L63.8107 539.204C63.8754 539.14 63.9521 539.088 64.0366 539.053C64.1211 539.018 64.2117 539 64.3032 539C64.3947 539 64.4853 539.018 64.5698 539.053C64.6543 539.088 64.731 539.14 64.7957 539.204Z" fill="white"/>
</g>
<path d="M88.03 547.515C90.704 547.515 92.314 545.961 92.314 543.105V537.575H90.522V543.035C90.522 545.051 89.626 545.919 88.044 545.919C86.462 545.919 85.552 545.051 85.552 543.035V537.575H83.732V543.105C83.732 545.961 85.342 547.515 88.03 547.515ZM99.1369 539.815C98.0449 539.815 97.1349 540.179 96.5609 540.865V539.899H94.8949V547.375H96.6449V543.595C96.6449 542.097 97.4849 541.341 98.7309 541.341C99.8509 541.341 100.509 541.985 100.509 543.315V547.375H102.259V543.091C102.259 540.837 100.929 539.815 99.1369 539.815ZM104.679 547.375H106.429V536.987H104.679V547.375ZM109.808 538.667C110.466 538.667 110.928 538.191 110.928 537.575C110.928 537.001 110.452 536.567 109.808 536.567C109.164 536.567 108.688 537.029 108.688 537.617C108.688 538.205 109.164 538.667 109.808 538.667ZM108.926 547.375H110.676V539.899H108.926V547.375ZM122.609 539.815C121.419 539.815 120.411 540.291 119.809 541.061C119.291 540.221 118.381 539.815 117.289 539.815C116.267 539.815 115.399 540.179 114.839 540.851V539.899H113.173V547.375H114.923V543.581C114.923 542.097 115.707 541.341 116.869 541.341C117.933 541.341 118.549 541.985 118.549 543.315V547.375H120.299V543.581C120.299 542.097 121.097 541.341 122.245 541.341C123.309 541.341 123.925 541.985 123.925 543.315V547.375H125.675V543.091C125.675 540.837 124.415 539.815 122.609 539.815ZM128.993 538.667C129.651 538.667 130.113 538.191 130.113 537.575C130.113 537.001 129.637 536.567 128.993 536.567C128.349 536.567 127.873 537.029 127.873 537.617C127.873 538.205 128.349 538.667 128.993 538.667ZM128.111 547.375H129.861V539.899H128.111V547.375ZM136.362 545.723C136.096 545.933 135.746 546.031 135.382 546.031C134.71 546.031 134.346 545.639 134.346 544.911V541.355H136.348V539.955H134.346V538.247H132.596V539.955H131.364V541.355H132.596V544.953C132.596 546.605 133.534 547.473 135.172 547.473C135.802 547.473 136.432 547.305 136.852 546.969L136.362 545.723ZM145.273 543.679C145.273 541.341 143.677 539.815 141.493 539.815C139.267 539.815 137.629 541.411 137.629 543.637C137.629 545.863 139.253 547.473 141.759 547.473C143.047 547.473 144.097 547.053 144.769 546.255L143.831 545.177C143.299 545.723 142.641 545.989 141.801 545.989C140.499 545.989 139.589 545.289 139.379 544.197H145.245C145.259 544.029 145.273 543.819 145.273 543.679ZM141.493 541.215C142.641 541.215 143.467 541.957 143.607 543.035H139.365C139.533 541.943 140.359 541.215 141.493 541.215ZM152.726 536.987V540.823C152.138 540.137 151.284 539.815 150.318 539.815C148.148 539.815 146.538 541.313 146.538 543.637C146.538 545.961 148.148 547.473 150.318 547.473C151.34 547.473 152.208 547.123 152.796 546.409V547.375H154.476V536.987H152.726ZM150.528 545.975C149.268 545.975 148.302 545.065 148.302 543.637C148.302 542.209 149.268 541.299 150.528 541.299C151.788 541.299 152.754 542.209 152.754 543.637C152.754 545.065 151.788 545.975 150.528 545.975ZM165.179 539.815C164.157 539.815 163.289 540.165 162.701 540.879V539.899H161.035V550.091H162.785V546.465C163.387 547.151 164.227 547.473 165.179 547.473C167.363 547.473 168.973 545.961 168.973 543.637C168.973 541.327 167.363 539.815 165.179 539.815ZM164.983 545.975C163.723 545.975 162.757 545.065 162.757 543.637C162.757 542.209 163.723 541.299 164.983 541.299C166.243 541.299 167.195 542.209 167.195 543.637C167.195 545.065 166.243 545.975 164.983 545.975ZM172.498 540.991V539.899H170.832V547.375H172.582V543.749C172.582 542.223 173.422 541.439 174.752 541.439C174.878 541.439 175.004 541.453 175.158 541.481V539.815C173.912 539.815 173.002 540.207 172.498 540.991ZM180.135 547.473C182.459 547.473 184.125 545.877 184.125 543.637C184.125 541.397 182.459 539.815 180.135 539.815C177.839 539.815 176.159 541.397 176.159 543.637C176.159 545.877 177.839 547.473 180.135 547.473ZM180.135 545.975C178.875 545.975 177.923 545.065 177.923 543.637C177.923 542.209 178.875 541.299 180.135 541.299C181.409 541.299 182.361 542.209 182.361 543.637C182.361 545.065 181.409 545.975 180.135 545.975ZM191.57 536.987V540.823C190.982 540.137 190.128 539.815 189.162 539.815C186.992 539.815 185.382 541.313 185.382 543.637C185.382 545.961 186.992 547.473 189.162 547.473C190.184 547.473 191.052 547.123 191.64 546.409V547.375H193.32V536.987H191.57ZM189.372 545.975C188.112 545.975 187.146 545.065 187.146 543.637C187.146 542.209 188.112 541.299 189.372 541.299C190.632 541.299 191.598 542.209 191.598 543.637C191.598 545.065 190.632 545.975 189.372 545.975ZM201.297 539.899V543.679C201.297 545.177 200.471 545.933 199.253 545.933C198.147 545.933 197.503 545.289 197.503 543.931V539.899H195.753V544.169C195.753 546.423 197.055 547.473 198.973 547.473C199.939 547.473 200.821 547.109 201.381 546.423V547.375H203.047V539.899H201.297ZM208.969 547.473C210.425 547.473 211.587 546.843 212.161 545.723L210.817 544.939C210.369 545.653 209.697 545.975 208.955 545.975C207.667 545.975 206.687 545.093 206.687 543.637C206.687 542.195 207.667 541.299 208.955 541.299C209.697 541.299 210.369 541.621 210.817 542.335L212.161 541.551C211.587 540.417 210.425 539.815 208.969 539.815C206.603 539.815 204.923 541.397 204.923 543.637C204.923 545.877 206.603 547.473 208.969 547.473ZM217.973 545.723C217.707 545.933 217.357 546.031 216.993 546.031C216.321 546.031 215.957 545.639 215.957 544.911V541.355H217.959V539.955H215.957V538.247H214.207V539.955H212.975V541.355H214.207V544.953C214.207 546.605 215.145 547.473 216.783 547.473C217.413 547.473 218.043 547.305 218.463 546.969L217.973 545.723ZM229.66 539.899V543.679C229.66 545.177 228.834 545.933 227.616 545.933C226.51 545.933 225.866 545.289 225.866 543.931V539.899H224.116V544.169C224.116 546.423 225.418 547.473 227.336 547.473C228.302 547.473 229.184 547.109 229.744 546.423V547.375H231.41V539.899H229.66ZM238.045 539.815C237.023 539.815 236.155 540.165 235.567 540.879V539.899H233.901V550.091H235.651V546.465C236.253 547.151 237.093 547.473 238.045 547.473C240.229 547.473 241.839 545.961 241.839 543.637C241.839 541.327 240.229 539.815 238.045 539.815ZM237.849 545.975C236.589 545.975 235.623 545.065 235.623 543.637C235.623 542.209 236.589 541.299 237.849 541.299C239.109 541.299 240.061 542.209 240.061 543.637C240.061 545.065 239.109 545.975 237.849 545.975ZM249.271 536.987V540.823C248.683 540.137 247.829 539.815 246.863 539.815C244.693 539.815 243.083 541.313 243.083 543.637C243.083 545.961 244.693 547.473 246.863 547.473C247.885 547.473 248.753 547.123 249.341 546.409V547.375H251.021V536.987H249.271ZM247.073 545.975C245.813 545.975 244.847 545.065 244.847 543.637C244.847 542.209 245.813 541.299 247.073 541.299C248.333 541.299 249.299 542.209 249.299 543.637C249.299 545.065 248.333 545.975 247.073 545.975ZM256.366 539.815C255.162 539.815 254 540.123 253.202 540.739L253.888 542.013C254.448 541.551 255.316 541.271 256.156 541.271C257.402 541.271 258.018 541.873 258.018 542.895V543.007H256.086C253.818 543.007 252.978 543.987 252.978 545.233C252.978 546.535 254.056 547.473 255.764 547.473C256.884 547.473 257.696 547.109 258.116 546.465V547.375H259.768V542.993C259.768 540.837 258.522 539.815 256.366 539.815ZM256.128 546.199C255.232 546.199 254.7 545.793 254.7 545.163C254.7 544.617 255.022 544.169 256.212 544.169H258.018V545.037C257.724 545.807 256.982 546.199 256.128 546.199ZM266.218 545.723C265.952 545.933 265.602 546.031 265.238 546.031C264.566 546.031 264.202 545.639 264.202 544.911V541.355H266.204V539.955H264.202V538.247H262.452V539.955H261.22V541.355H262.452V544.953C262.452 546.605 263.39 547.473 265.028 547.473C265.658 547.473 266.288 547.305 266.708 546.969L266.218 545.723ZM275.13 543.679C275.13 541.341 273.534 539.815 271.35 539.815C269.124 539.815 267.486 541.411 267.486 543.637C267.486 545.863 269.11 547.473 271.616 547.473C272.904 547.473 273.954 547.053 274.626 546.255L273.688 545.177C273.156 545.723 272.498 545.989 271.658 545.989C270.356 545.989 269.446 545.289 269.236 544.197H275.102C275.116 544.029 275.13 543.819 275.13 543.679ZM271.35 541.215C272.498 541.215 273.324 541.957 273.464 543.035H269.222C269.39 541.943 270.216 541.215 271.35 541.215ZM279.321 547.473C281.421 547.473 282.709 546.563 282.709 545.163C282.709 542.237 278.089 543.581 278.089 542.069C278.089 541.579 278.593 541.229 279.657 541.229C280.371 541.229 281.085 541.369 281.799 541.789L282.471 540.459C281.799 540.053 280.665 539.815 279.671 539.815C277.655 539.815 276.381 540.739 276.381 542.153C276.381 545.135 281.001 543.791 281.001 545.219C281.001 545.737 280.539 546.045 279.433 546.045C278.495 546.045 277.487 545.737 276.829 545.303L276.157 546.633C276.829 547.109 278.075 547.473 279.321 547.473Z" fill="#252B42"/>
</g>
<g clip-path="url(#clip8_688_3833)">
<rect x="40.5" y="576" width="32" height="32" rx="16" fill="#BDBDBD"/>
<g clip-path="url(#clip9_688_3833)">
<path fill-rule="evenodd" clip-rule="evenodd" d="M64.7957 586.204C64.8604 586.269 64.9118 586.346 64.9469 586.43C64.9819 586.515 65 586.605 65 586.697C65 586.788 64.9819 586.879 64.9469 586.963C64.9118 587.048 64.8604 587.125 64.7957 587.189L55.0578 596.927C54.9932 596.992 54.9164 597.043 54.8319 597.078C54.7474 597.113 54.6568 597.131 54.5654 597.131C54.4739 597.131 54.3833 597.113 54.2988 597.078C54.2143 597.043 54.1375 596.992 54.0729 596.927L49.204 592.058C49.0734 591.928 49 591.75 49 591.566C49 591.381 49.0734 591.204 49.204 591.073C49.3346 590.943 49.5117 590.869 49.6964 590.869C49.8811 590.869 50.0583 590.943 50.1889 591.073L54.5654 595.451L63.8107 586.204C63.8754 586.14 63.9521 586.088 64.0366 586.053C64.1211 586.018 64.2117 586 64.3032 586C64.3947 586 64.4853 586.018 64.5698 586.053C64.6543 586.088 64.731 586.14 64.7957 586.204Z" fill="white"/>
</g>
<path d="M82.612 584.575V586.101H84.684V594.375H86.504V584.575H82.612ZM96.04 592.415C95.41 592.779 94.724 592.919 94.024 592.919C91.952 592.919 90.482 591.463 90.482 589.475C90.482 587.445 91.952 586.031 94.038 586.031C95.088 586.031 95.97 586.381 96.74 587.151L97.888 586.031C96.964 584.981 95.592 584.435 93.954 584.435C90.888 584.435 88.648 586.549 88.648 589.475C88.648 592.401 90.888 594.515 93.926 594.515C95.312 594.515 96.74 594.095 97.762 593.269V589.363H96.04V592.415ZM107.306 589.279C108.062 588.873 108.566 588.131 108.566 587.123C108.566 585.569 107.306 584.575 104.954 584.575H100.362V594.375H105.234C107.754 594.375 109.07 593.395 109.07 591.715C109.07 590.441 108.356 589.615 107.306 589.279ZM104.758 586.003C106.018 586.003 106.732 586.451 106.732 587.361C106.732 588.257 106.018 588.705 104.758 588.705H102.182V586.003H104.758ZM105.122 592.947H102.182V590.119H105.122C106.494 590.119 107.236 590.553 107.236 591.533C107.236 592.513 106.494 592.947 105.122 592.947ZM123.887 594.515C125.497 594.515 126.869 593.941 127.779 592.877L126.603 591.757C125.889 592.541 125.007 592.919 123.985 592.919C121.955 592.919 120.485 591.491 120.485 589.475C120.485 587.459 121.955 586.031 123.985 586.031C125.007 586.031 125.889 586.409 126.603 587.179L127.779 586.073C126.869 585.009 125.497 584.435 123.901 584.435C120.891 584.435 118.651 586.549 118.651 589.475C118.651 592.401 120.891 594.515 123.887 594.515ZM129.555 594.375H131.305V583.987H129.555V594.375ZM137.162 594.473C139.486 594.473 141.152 592.877 141.152 590.637C141.152 588.397 139.486 586.815 137.162 586.815C134.866 586.815 133.186 588.397 133.186 590.637C133.186 592.877 134.866 594.473 137.162 594.473ZM137.162 592.975C135.902 592.975 134.95 592.065 134.95 590.637C134.95 589.209 135.902 588.299 137.162 588.299C138.436 588.299 139.388 589.209 139.388 590.637C139.388 592.065 138.436 592.975 137.162 592.975ZM148.513 586.899V590.679C148.513 592.177 147.687 592.933 146.469 592.933C145.363 592.933 144.719 592.289 144.719 590.931V586.899H142.969V591.169C142.969 593.423 144.271 594.473 146.189 594.473C147.155 594.473 148.037 594.109 148.597 593.423V594.375H150.263V586.899H148.513ZM158.327 583.987V587.823C157.739 587.137 156.885 586.815 155.919 586.815C153.749 586.815 152.139 588.313 152.139 590.637C152.139 592.961 153.749 594.473 155.919 594.473C156.941 594.473 157.809 594.123 158.397 593.409V594.375H160.077V583.987H158.327ZM156.129 592.975C154.869 592.975 153.903 592.065 153.903 590.637C153.903 589.209 154.869 588.299 156.129 588.299C157.389 588.299 158.355 589.209 158.355 590.637C158.355 592.065 157.389 592.975 156.129 592.975ZM168.945 594.473C171.045 594.473 172.333 593.563 172.333 592.163C172.333 589.237 167.713 590.581 167.713 589.069C167.713 588.579 168.217 588.229 169.281 588.229C169.995 588.229 170.709 588.369 171.423 588.789L172.095 587.459C171.423 587.053 170.289 586.815 169.295 586.815C167.279 586.815 166.005 587.739 166.005 589.153C166.005 592.135 170.625 590.791 170.625 592.219C170.625 592.737 170.163 593.045 169.057 593.045C168.119 593.045 167.111 592.737 166.453 592.303L165.781 593.633C166.453 594.109 167.699 594.473 168.945 594.473ZM178.044 592.723C177.778 592.933 177.428 593.031 177.064 593.031C176.392 593.031 176.028 592.639 176.028 591.911V588.355H178.03V586.955H176.028V585.247H174.278V586.955H173.046V588.355H174.278V591.953C174.278 593.605 175.216 594.473 176.854 594.473C177.484 594.473 178.114 594.305 178.534 593.969L178.044 592.723ZM183.288 594.473C185.612 594.473 187.278 592.877 187.278 590.637C187.278 588.397 185.612 586.815 183.288 586.815C180.992 586.815 179.312 588.397 179.312 590.637C179.312 592.877 180.992 594.473 183.288 594.473ZM183.288 592.975C182.028 592.975 181.076 592.065 181.076 590.637C181.076 589.209 182.028 588.299 183.288 588.299C184.562 588.299 185.514 589.209 185.514 590.637C185.514 592.065 184.562 592.975 183.288 592.975ZM190.817 587.991V586.899H189.151V594.375H190.901V590.749C190.901 589.223 191.741 588.439 193.071 588.439C193.197 588.439 193.323 588.453 193.477 588.481V586.815C192.231 586.815 191.321 587.207 190.817 587.991ZM197.977 586.815C196.773 586.815 195.611 587.123 194.813 587.739L195.499 589.013C196.059 588.551 196.927 588.271 197.767 588.271C199.013 588.271 199.629 588.873 199.629 589.895V590.007H197.697C195.429 590.007 194.589 590.987 194.589 592.233C194.589 593.535 195.667 594.473 197.375 594.473C198.495 594.473 199.307 594.109 199.727 593.465V594.375H201.379V589.993C201.379 587.837 200.133 586.815 197.977 586.815ZM197.739 593.199C196.843 593.199 196.311 592.793 196.311 592.163C196.311 591.617 196.633 591.169 197.823 591.169H199.629V592.037C199.335 592.807 198.593 593.199 197.739 593.199ZM209.647 586.899V587.893C209.031 587.151 208.107 586.815 207.057 586.815C204.915 586.815 203.277 588.243 203.277 590.413C203.277 592.583 204.915 594.039 207.057 594.039C208.065 594.039 208.947 593.717 209.563 593.045V593.437C209.563 594.949 208.835 595.705 207.183 595.705C206.147 595.705 205.083 595.355 204.425 594.809L203.641 596.125C204.495 596.825 205.881 597.189 207.281 597.189C209.899 597.189 211.313 595.957 211.313 593.241V586.899H209.647ZM207.323 592.555C205.993 592.555 205.041 591.687 205.041 590.413C205.041 589.153 205.993 588.299 207.323 588.299C208.639 588.299 209.591 589.153 209.591 590.413C209.591 591.687 208.639 592.555 207.323 592.555ZM220.842 590.679C220.842 588.341 219.246 586.815 217.062 586.815C214.836 586.815 213.198 588.411 213.198 590.637C213.198 592.863 214.822 594.473 217.328 594.473C218.616 594.473 219.666 594.053 220.338 593.255L219.4 592.177C218.868 592.723 218.21 592.989 217.37 592.989C216.068 592.989 215.158 592.289 214.948 591.197H220.814C220.828 591.029 220.842 590.819 220.842 590.679ZM217.062 588.215C218.21 588.215 219.036 588.957 219.176 590.035H214.934C215.102 588.943 215.928 588.215 217.062 588.215Z" fill="#252B42"/>
</g>
<g clip-path="url(#clip10_688_3833)">
<rect x="40.5" y="623" width="32" height="32" rx="16" fill="#BDBDBD"/>
<g clip-path="url(#clip11_688_3833)">
<path fill-rule="evenodd" clip-rule="evenodd" d="M64.7957 633.204C64.8604 633.269 64.9118 633.346 64.9469 633.43C64.9819 633.515 65 633.605 65 633.697C65 633.788 64.9819 633.879 64.9469 633.963C64.9118 634.048 64.8604 634.125 64.7957 634.189L55.0578 643.927C54.9932 643.992 54.9164 644.043 54.8319 644.078C54.7474 644.113 54.6568 644.131 54.5654 644.131C54.4739 644.131 54.3833 644.113 54.2988 644.078C54.2143 644.043 54.1375 643.992 54.0729 643.927L49.204 639.058C49.0734 638.928 49 638.75 49 638.566C49 638.381 49.0734 638.204 49.204 638.073C49.3346 637.943 49.5117 637.869 49.6964 637.869C49.8811 637.869 50.0583 637.943 50.1889 638.073L54.5654 642.451L63.8107 633.204C63.8754 633.14 63.9521 633.088 64.0366 633.053C64.1211 633.018 64.2117 633 64.3032 633C64.3947 633 64.4853 633.018 64.5698 633.053C64.6543 633.088 64.731 633.14 64.7957 633.204Z" fill="white"/>
</g>
<path d="M85.636 638.474V635.772H90.368V634.274H85.636V631.726H90.97V630.2H83.816V640H91.166V638.474H85.636ZM102.663 632.44C101.473 632.44 100.465 632.916 99.8629 633.686C99.3449 632.846 98.4349 632.44 97.3429 632.44C96.3209 632.44 95.4529 632.804 94.8929 633.476V632.524H93.2269V640H94.9769V636.206C94.9769 634.722 95.7609 633.966 96.9229 633.966C97.9869 633.966 98.6029 634.61 98.6029 635.94V640H100.353V636.206C100.353 634.722 101.151 633.966 102.299 633.966C103.363 633.966 103.979 634.61 103.979 635.94V640H105.729V635.716C105.729 633.462 104.469 632.44 102.663 632.44ZM111.021 632.44C109.817 632.44 108.655 632.748 107.857 633.364L108.543 634.638C109.103 634.176 109.971 633.896 110.811 633.896C112.057 633.896 112.673 634.498 112.673 635.52V635.632H110.741C108.473 635.632 107.633 636.612 107.633 637.858C107.633 639.16 108.711 640.098 110.419 640.098C111.539 640.098 112.351 639.734 112.771 639.09V640H114.423V635.618C114.423 633.462 113.177 632.44 111.021 632.44ZM110.783 638.824C109.887 638.824 109.355 638.418 109.355 637.788C109.355 637.242 109.677 636.794 110.867 636.794H112.673V637.662C112.379 638.432 111.637 638.824 110.783 638.824ZM117.751 631.292C118.409 631.292 118.871 630.816 118.871 630.2C118.871 629.626 118.395 629.192 117.751 629.192C117.107 629.192 116.631 629.654 116.631 630.242C116.631 630.83 117.107 631.292 117.751 631.292ZM116.869 640H118.619V632.524H116.869V640ZM121.116 640H122.866V629.612H121.116V640ZM132.288 632.44C131.084 632.44 129.922 632.748 129.124 633.364L129.81 634.638C130.37 634.176 131.238 633.896 132.078 633.896C133.324 633.896 133.94 634.498 133.94 635.52V635.632H132.008C129.74 635.632 128.9 636.612 128.9 637.858C128.9 639.16 129.978 640.098 131.686 640.098C132.806 640.098 133.618 639.734 134.038 639.09V640H135.69V635.618C135.69 633.462 134.444 632.44 132.288 632.44ZM132.05 638.824C131.154 638.824 130.622 638.418 130.622 637.788C130.622 637.242 130.944 636.794 132.134 636.794H133.94V637.662C133.646 638.432 132.904 638.824 132.05 638.824ZM142.378 632.44C141.286 632.44 140.376 632.804 139.802 633.49V632.524H138.136V640H139.886V636.22C139.886 634.722 140.726 633.966 141.972 633.966C143.092 633.966 143.75 634.61 143.75 635.94V640H145.5V635.716C145.5 633.462 144.17 632.44 142.378 632.44ZM153.56 629.612V633.448C152.972 632.762 152.118 632.44 151.152 632.44C148.982 632.44 147.372 633.938 147.372 636.262C147.372 638.586 148.982 640.098 151.152 640.098C152.174 640.098 153.042 639.748 153.63 639.034V640H155.31V629.612H153.56ZM151.362 638.6C150.102 638.6 149.136 637.69 149.136 636.262C149.136 634.834 150.102 633.924 151.362 633.924C152.622 633.924 153.588 634.834 153.588 636.262C153.588 637.69 152.622 638.6 151.362 638.6ZM165.299 640.098C166.755 640.098 167.917 639.468 168.491 638.348L167.147 637.564C166.699 638.278 166.027 638.6 165.285 638.6C163.997 638.6 163.017 637.718 163.017 636.262C163.017 634.82 163.997 633.924 165.285 633.924C166.027 633.924 166.699 634.246 167.147 634.96L168.491 634.176C167.917 633.042 166.755 632.44 165.299 632.44C162.933 632.44 161.253 634.022 161.253 636.262C161.253 638.502 162.933 640.098 165.299 640.098ZM173.454 640.098C175.778 640.098 177.444 638.502 177.444 636.262C177.444 634.022 175.778 632.44 173.454 632.44C171.158 632.44 169.478 634.022 169.478 636.262C169.478 638.502 171.158 640.098 173.454 640.098ZM173.454 638.6C172.194 638.6 171.242 637.69 171.242 636.262C171.242 634.834 172.194 633.924 173.454 633.924C174.728 633.924 175.68 634.834 175.68 636.262C175.68 637.69 174.728 638.6 173.454 638.6ZM188.754 632.44C187.564 632.44 186.556 632.916 185.954 633.686C185.436 632.846 184.526 632.44 183.434 632.44C182.412 632.44 181.544 632.804 180.984 633.476V632.524H179.318V640H181.068V636.206C181.068 634.722 181.852 633.966 183.014 633.966C184.078 633.966 184.694 634.61 184.694 635.94V640H186.444V636.206C186.444 634.722 187.242 633.966 188.39 633.966C189.454 633.966 190.07 634.61 190.07 635.94V640H191.82V635.716C191.82 633.462 190.56 632.44 188.754 632.44ZM203.692 632.44C202.502 632.44 201.494 632.916 200.892 633.686C200.374 632.846 199.464 632.44 198.372 632.44C197.35 632.44 196.482 632.804 195.922 633.476V632.524H194.256V640H196.006V636.206C196.006 634.722 196.79 633.966 197.952 633.966C199.016 633.966 199.632 634.61 199.632 635.94V640H201.382V636.206C201.382 634.722 202.18 633.966 203.328 633.966C204.392 633.966 205.008 634.61 205.008 635.94V640H206.758V635.716C206.758 633.462 205.498 632.44 203.692 632.44ZM214.682 632.524V636.304C214.682 637.802 213.856 638.558 212.638 638.558C211.532 638.558 210.888 637.914 210.888 636.556V632.524H209.138V636.794C209.138 639.048 210.44 640.098 212.358 640.098C213.324 640.098 214.206 639.734 214.766 639.048V640H216.432V632.524H214.682ZM223.165 632.44C222.073 632.44 221.163 632.804 220.589 633.49V632.524H218.923V640H220.673V636.22C220.673 634.722 221.513 633.966 222.759 633.966C223.879 633.966 224.537 634.61 224.537 635.94V640H226.287V635.716C226.287 633.462 224.957 632.44 223.165 632.44ZM229.589 631.292C230.247 631.292 230.709 630.816 230.709 630.2C230.709 629.626 230.233 629.192 229.589 629.192C228.945 629.192 228.469 629.654 228.469 630.242C228.469 630.83 228.945 631.292 229.589 631.292ZM228.707 640H230.457V632.524H228.707V640ZM236.958 638.348C236.692 638.558 236.342 638.656 235.978 638.656C235.306 638.656 234.942 638.264 234.942 637.536V633.98H236.944V632.58H234.942V630.872H233.192V632.58H231.96V633.98H233.192V637.578C233.192 639.23 234.13 640.098 235.768 640.098C236.398 640.098 237.028 639.93 237.448 639.594L236.958 638.348ZM244.271 632.524L241.905 638.054L239.553 632.524H237.733L240.995 640.028L240.869 640.322C240.533 641.064 240.169 641.358 239.553 641.358C239.077 641.358 238.601 641.162 238.265 640.84L237.565 642.128C238.041 642.562 238.825 642.814 239.567 642.814C240.813 642.814 241.765 642.296 242.451 640.602L245.951 632.524H244.271ZM85.958 664.098C88.058 664.098 89.346 663.188 89.346 661.788C89.346 658.862 84.726 660.206 84.726 658.694C84.726 658.204 85.23 657.854 86.294 657.854C87.008 657.854 87.722 657.994 88.436 658.414L89.108 657.084C88.436 656.678 87.302 656.44 86.308 656.44C84.292 656.44 83.018 657.364 83.018 658.778C83.018 661.76 87.638 660.416 87.638 661.844C87.638 662.362 87.176 662.67 86.07 662.67C85.132 662.67 84.124 662.362 83.466 661.928L82.794 663.258C83.466 663.734 84.712 664.098 85.958 664.098ZM96.5411 656.524V660.304C96.5411 661.802 95.7151 662.558 94.4971 662.558C93.3911 662.558 92.7471 661.914 92.7471 660.556V656.524H90.9971V660.794C90.9971 663.048 92.2991 664.098 94.2171 664.098C95.1831 664.098 96.0651 663.734 96.6251 663.048V664H98.2911V656.524H96.5411ZM104.926 656.44C103.904 656.44 103.036 656.79 102.448 657.504V656.524H100.782V666.716H102.532V663.09C103.134 663.776 103.974 664.098 104.926 664.098C107.11 664.098 108.72 662.586 108.72 660.262C108.72 657.952 107.11 656.44 104.926 656.44ZM104.73 662.6C103.47 662.6 102.504 661.69 102.504 660.262C102.504 658.834 103.47 657.924 104.73 657.924C105.99 657.924 106.942 658.834 106.942 660.262C106.942 661.69 105.99 662.6 104.73 662.6ZM114.724 656.44C113.702 656.44 112.834 656.79 112.246 657.504V656.524H110.58V666.716H112.33V663.09C112.932 663.776 113.772 664.098 114.724 664.098C116.908 664.098 118.518 662.586 118.518 660.262C118.518 657.952 116.908 656.44 114.724 656.44ZM114.528 662.6C113.268 662.6 112.302 661.69 112.302 660.262C112.302 658.834 113.268 657.924 114.528 657.924C115.788 657.924 116.74 658.834 116.74 660.262C116.74 661.69 115.788 662.6 114.528 662.6ZM123.738 664.098C126.062 664.098 127.728 662.502 127.728 660.262C127.728 658.022 126.062 656.44 123.738 656.44C121.442 656.44 119.762 658.022 119.762 660.262C119.762 662.502 121.442 664.098 123.738 664.098ZM123.738 662.6C122.478 662.6 121.526 661.69 121.526 660.262C121.526 658.834 122.478 657.924 123.738 657.924C125.012 657.924 125.964 658.834 125.964 660.262C125.964 661.69 125.012 662.6 123.738 662.6ZM131.267 657.616V656.524H129.601V664H131.351V660.374C131.351 658.848 132.191 658.064 133.521 658.064C133.647 658.064 133.773 658.078 133.927 658.106V656.44C132.681 656.44 131.771 656.832 131.267 657.616ZM139.889 662.348C139.623 662.558 139.273 662.656 138.909 662.656C138.237 662.656 137.873 662.264 137.873 661.536V657.98H139.875V656.58H137.873V654.872H136.123V656.58H134.891V657.98H136.123V661.578C136.123 663.23 137.061 664.098 138.699 664.098C139.329 664.098 139.959 663.93 140.379 663.594L139.889 662.348Z" fill="#252B42"/>
</g>
</g>
<rect x="221" width="90" height="90" rx="45" fill="#E77C40"/>
<path d="M251.204 37.224H254.948V54H251.204L243.212 43.488V54H239.468V37.224H242.972L251.204 48.024V37.224ZM270.009 52.128C268.553 53.504 266.841 54.192 264.873 54.192C262.921 54.192 261.305 53.592 260.025 52.392C258.745 51.176 258.105 49.552 258.105 47.52C258.105 45.488 258.753 43.872 260.049 42.672C261.361 41.472 262.905 40.872 264.681 40.872C266.457 40.872 267.961 41.408 269.193 42.48C270.441 43.552 271.065 45.024 271.065 46.896V48.816H261.657C261.769 49.52 262.137 50.096 262.761 50.544C263.385 50.992 264.089 51.216 264.873 51.216C266.137 51.216 267.177 50.792 267.993 49.944L270.009 52.128ZM267.417 46.248C267.337 45.48 267.049 44.888 266.553 44.472C266.057 44.056 265.449 43.848 264.729 43.848C264.025 43.848 263.377 44.064 262.785 44.496C262.193 44.928 261.849 45.512 261.753 46.248H267.417ZM280.364 54H276.644L272.252 41.088H275.972L278.492 48.888L281.012 41.088H284.492L287.012 48.888L289.532 41.088H293.276L288.884 54H285.14L282.764 46.968L280.364 54Z" fill="white"/>
<defs>
<clipPath id="clip0_688_3833">
<rect width="86" height="81" fill="white" transform="translate(121 226)"/>
</clipPath>
<clipPath id="clip1_688_3833">
<rect width="247" height="236" fill="white" transform="translate(40.5 435)"/>
</clipPath>
<clipPath id="clip2_688_3833">
<rect width="247" height="32" fill="white" transform="translate(40.5 435)"/>
</clipPath>
<clipPath id="clip3_688_3833">
<rect width="16" height="11" fill="white" transform="translate(48.5 445)"/>
</clipPath>
<clipPath id="clip4_688_3833">
<rect width="247" height="32" fill="white" transform="translate(40.5 482)"/>
</clipPath>
<clipPath id="clip5_688_3833">
<rect width="16" height="11" fill="white" transform="translate(48.5 492)"/>
</clipPath>
<clipPath id="clip6_688_3833">
<rect width="247" height="32" fill="white" transform="translate(40.5 529)"/>
</clipPath>
<clipPath id="clip7_688_3833">
<rect width="16" height="11" fill="white" transform="translate(48.5 539)"/>
</clipPath>
<clipPath id="clip8_688_3833">
<rect width="247" height="32" fill="white" transform="translate(40.5 576)"/>
</clipPath>
<clipPath id="clip9_688_3833">
<rect width="16" height="11" fill="white" transform="translate(48.5 586)"/>
</clipPath>
<clipPath id="clip10_688_3833">
<rect width="210" height="48" fill="white" transform="translate(40.5 623)"/>
</clipPath>
<clipPath id="clip11_688_3833">
<rect width="16" height="11" fill="white" transform="translate(48.5 633)"/>
</clipPath>
</defs>
</svg>
