<svg width="326" height="662" viewBox="0 0 326 662" fill="none" xmlns="http://www.w3.org/2000/svg">
<rect x="0.5" y="0.5" width="325" height="661" rx="9.5" fill="white"/>
<rect x="0.5" y="0.5" width="325" height="661" rx="9.5" stroke="#23A6F0"/>
<rect x="115" y="50" width="96" height="96" rx="48" fill="#23A6F0"/>
<g clip-path="url(#clip0_688_3819)">
<path fill-rule="evenodd" clip-rule="evenodd" d="M184.418 116.667C184.418 116.667 187.501 116.667 187.501 113.555C187.501 110.444 184.418 101.111 172.085 101.111C159.751 101.111 156.668 110.444 156.668 113.555C156.668 116.667 159.751 116.667 159.751 116.667H184.418ZM159.819 113.555H184.35C184.365 113.554 184.379 113.552 184.393 113.549L184.418 113.543C184.412 112.722 183.903 110.339 182.075 108.192C180.373 106.179 177.382 104.222 172.085 104.222C166.791 104.222 163.8 106.182 162.095 108.192C160.266 110.339 159.754 112.725 159.751 113.543C159.774 113.547 159.796 113.552 159.819 113.555ZM172.085 94.8888C173.72 94.8888 175.289 94.2333 176.445 93.0664C177.602 91.8995 178.251 90.3168 178.251 88.6666C178.251 87.0163 177.602 85.4337 176.445 84.2668C175.289 83.0999 173.72 82.4444 172.085 82.4444C170.449 82.4444 168.881 83.0999 167.724 84.2668C166.568 85.4337 165.918 87.0163 165.918 88.6666C165.918 90.3168 166.568 91.8995 167.724 93.0664C168.881 94.2333 170.449 94.8888 172.085 94.8888ZM181.335 88.6666C181.335 89.8923 181.095 91.1059 180.631 92.2383C180.166 93.3707 179.484 94.3996 178.625 95.2662C177.766 96.1329 176.747 96.8204 175.624 97.2895C174.502 97.7585 173.299 97.9999 172.085 97.9999C170.87 97.9999 169.667 97.7585 168.545 97.2895C167.423 96.8204 166.403 96.1329 165.544 95.2662C164.685 94.3996 164.004 93.3707 163.539 92.2383C163.074 91.1059 162.835 89.8923 162.835 88.6666C162.835 86.1912 163.809 83.8173 165.544 82.0669C167.279 80.3166 169.631 79.3333 172.085 79.3333C174.538 79.3333 176.891 80.3166 178.625 82.0669C180.36 83.8173 181.335 86.1912 181.335 88.6666ZM159.554 101.982C158.321 101.59 157.049 101.333 155.761 101.214C155.038 101.144 154.311 101.11 153.585 101.111C141.251 101.111 138.168 110.444 138.168 113.555C138.168 115.631 139.195 116.667 141.251 116.667H154.251C153.794 115.695 153.566 114.63 153.585 113.555C153.585 110.413 154.747 107.203 156.945 104.521C157.695 103.606 158.567 102.751 159.554 101.982ZM153.338 104.222C148.195 104.284 145.275 106.213 143.595 108.192C141.754 110.351 141.251 112.743 141.251 113.555H150.501C150.501 110.304 151.497 107.066 153.338 104.222ZM142.793 90.2221C142.793 87.7468 143.768 85.3728 145.502 83.6225C147.237 81.8721 149.59 80.8888 152.043 80.8888C154.496 80.8888 156.849 81.8721 158.584 83.6225C160.318 85.3728 161.293 87.7468 161.293 90.2221C161.293 92.6975 160.318 95.0715 158.584 96.8218C156.849 98.5721 154.496 99.5555 152.043 99.5555C149.59 99.5555 147.237 98.5721 145.502 96.8218C143.768 95.0715 142.793 92.6975 142.793 90.2221ZM152.043 83.9999C150.407 83.9999 148.839 84.6555 147.682 85.8224C146.526 86.9893 145.876 88.5719 145.876 90.2221C145.876 91.8724 146.526 93.455 147.682 94.6219C148.839 95.7888 150.407 96.4444 152.043 96.4444C153.678 96.4444 155.247 95.7888 156.403 94.6219C157.56 93.455 158.21 91.8724 158.21 90.2221C158.21 88.5719 157.56 86.9893 156.403 85.8224C155.247 84.6555 153.678 83.9999 152.043 83.9999Z" fill="white"/>
</g>
<path d="M114.591 192.128C113.967 192.128 113.471 192.28 113.103 192.584C112.751 192.872 112.575 193.264 112.575 193.76C112.575 194.24 112.791 194.624 113.223 194.912C113.671 195.2 114.687 195.544 116.271 195.944C117.871 196.328 119.111 196.912 119.991 197.696C120.871 198.48 121.311 199.624 121.311 201.128C121.311 202.632 120.743 203.856 119.607 204.8C118.487 205.728 117.007 206.192 115.167 206.192C112.511 206.192 110.119 205.208 107.991 203.24L110.223 200.504C112.031 202.088 113.703 202.88 115.239 202.88C115.927 202.88 116.463 202.736 116.847 202.448C117.247 202.144 117.447 201.744 117.447 201.248C117.447 200.736 117.239 200.336 116.823 200.048C116.407 199.744 115.583 199.44 114.351 199.136C112.399 198.672 110.967 198.072 110.055 197.336C109.159 196.584 108.711 195.416 108.711 193.832C108.711 192.232 109.279 191 110.415 190.136C111.567 189.272 112.999 188.84 114.711 188.84C115.831 188.84 116.951 189.032 118.071 189.416C119.191 189.8 120.167 190.344 120.999 191.048L119.103 193.784C117.647 192.68 116.143 192.128 114.591 192.128ZM128.203 195.68V201.464C128.203 201.96 128.331 202.352 128.587 202.64C128.843 202.912 129.147 203.048 129.499 203.048C130.171 203.048 130.739 202.744 131.203 202.136L132.547 204.656C131.427 205.68 130.243 206.192 128.995 206.192C127.763 206.192 126.715 205.784 125.851 204.968C125.003 204.152 124.579 203.04 124.579 201.632V195.68H123.067V193.088H124.579V189.224H128.203V193.088H131.323V195.68H128.203ZM145.545 206H142.161V204.44C141.233 205.608 140.081 206.192 138.705 206.192C137.345 206.192 136.201 205.8 135.273 205.016C134.345 204.216 133.881 203.16 133.881 201.848C133.881 200.52 134.361 199.528 135.321 198.872C136.281 198.216 137.593 197.888 139.257 197.888H141.945V197.816C141.945 196.44 141.217 195.752 139.761 195.752C139.137 195.752 138.473 195.88 137.769 196.136C137.081 196.376 136.497 196.68 136.017 197.048L134.409 194.72C136.105 193.488 138.041 192.872 140.217 192.872C141.785 192.872 143.065 193.264 144.057 194.048C145.049 194.832 145.545 196.072 145.545 197.768V206ZM141.921 201.08V200.456H139.665C138.225 200.456 137.505 200.904 137.505 201.8C137.505 202.264 137.673 202.624 138.009 202.88C138.361 203.12 138.857 203.24 139.497 203.24C140.137 203.24 140.697 203.048 141.177 202.664C141.673 202.264 141.921 201.736 141.921 201.08ZM152.527 198.8V206H148.927V193.088H152.527V194.528C153.615 193.424 154.839 192.872 156.199 192.872C157.559 192.872 158.695 193.352 159.607 194.312C160.535 195.272 160.999 196.552 160.999 198.152V206H157.399V198.704C157.399 196.72 156.671 195.728 155.215 195.728C154.495 195.728 153.863 195.992 153.319 196.52C152.791 197.032 152.527 197.792 152.527 198.8ZM169.516 206.192C167.996 206.192 166.636 205.544 165.436 204.248C164.236 202.952 163.636 201.344 163.636 199.424C163.636 197.504 164.22 195.936 165.388 194.72C166.556 193.488 167.924 192.872 169.492 192.872C171.06 192.872 172.34 193.424 173.332 194.528V188.192H176.932V206H173.332V204.296C172.324 205.56 171.052 206.192 169.516 206.192ZM167.26 199.568C167.26 200.608 167.572 201.464 168.196 202.136C168.82 202.792 169.548 203.12 170.38 203.12C171.212 203.12 171.916 202.792 172.492 202.136C173.084 201.464 173.38 200.608 173.38 199.568C173.38 198.512 173.084 197.64 172.492 196.952C171.916 196.248 171.204 195.896 170.356 195.896C169.508 195.896 168.78 196.248 168.172 196.952C167.564 197.656 167.26 198.528 167.26 199.568ZM191.408 206H188.024V204.44C187.096 205.608 185.944 206.192 184.568 206.192C183.208 206.192 182.064 205.8 181.136 205.016C180.208 204.216 179.744 203.16 179.744 201.848C179.744 200.52 180.224 199.528 181.184 198.872C182.144 198.216 183.456 197.888 185.12 197.888H187.808V197.816C187.808 196.44 187.08 195.752 185.624 195.752C185 195.752 184.336 195.88 183.632 196.136C182.944 196.376 182.36 196.68 181.88 197.048L180.272 194.72C181.968 193.488 183.904 192.872 186.08 192.872C187.648 192.872 188.928 193.264 189.92 194.048C190.912 194.832 191.408 196.072 191.408 197.768V206ZM187.784 201.08V200.456H185.528C184.088 200.456 183.368 200.904 183.368 201.8C183.368 202.264 183.536 202.624 183.872 202.88C184.224 203.12 184.72 203.24 185.36 203.24C186 203.24 186.56 203.048 187.04 202.664C187.536 202.264 187.784 201.736 187.784 201.08ZM201.582 196.256C200.51 196.256 199.71 196.64 199.182 197.408C198.654 198.16 198.39 199.16 198.39 200.408V206H194.79V193.088H198.39V194.792C198.854 194.264 199.43 193.816 200.118 193.448C200.822 193.08 201.534 192.888 202.254 192.872L202.278 196.256H201.582ZM209.753 206.192C208.233 206.192 206.873 205.544 205.673 204.248C204.473 202.952 203.873 201.344 203.873 199.424C203.873 197.504 204.457 195.936 205.625 194.72C206.793 193.488 208.161 192.872 209.729 192.872C211.297 192.872 212.577 193.424 213.569 194.528V188.192H217.169V206H213.569V204.296C212.561 205.56 211.289 206.192 209.753 206.192ZM207.497 199.568C207.497 200.608 207.809 201.464 208.433 202.136C209.057 202.792 209.785 203.12 210.617 203.12C211.449 203.12 212.153 202.792 212.729 202.136C213.321 201.464 213.617 200.608 213.617 199.568C213.617 198.512 213.321 197.64 212.729 196.952C212.153 196.248 211.441 195.896 210.593 195.896C209.745 195.896 209.017 196.248 208.409 196.952C207.801 197.656 207.497 198.528 207.497 199.568Z" fill="#252B42"/>
<path d="M93.3376 260.352C93.3376 259.349 93.0176 258.496 92.3776 257.792C91.7376 257.088 90.9482 256.736 90.0096 256.736C89.0816 256.736 88.2976 257.088 87.6576 257.792C87.0176 258.496 86.6976 259.349 86.6976 260.352C86.6976 261.344 87.0176 262.192 87.6576 262.896C88.2976 263.589 89.0816 263.936 90.0096 263.936C90.9482 263.936 91.7376 263.589 92.3776 262.896C93.0176 262.192 93.3376 261.344 93.3376 260.352ZM94.1856 264.464C93.0549 265.563 91.6629 266.112 90.0096 266.112C88.3562 266.112 86.9642 265.563 85.8336 264.464C84.7029 263.355 84.1376 261.979 84.1376 260.336C84.1376 258.693 84.7029 257.323 85.8336 256.224C86.9642 255.115 88.3562 254.56 90.0096 254.56C91.6629 254.56 93.0549 255.115 94.1856 256.224C95.3162 257.323 95.8816 258.693 95.8816 260.336C95.8816 261.979 95.3162 263.355 94.1856 264.464ZM102.384 259.504C101.67 259.504 101.136 259.76 100.784 260.272C100.432 260.773 100.256 261.44 100.256 262.272V266H97.8563V257.392H100.256V258.528C100.566 258.176 100.95 257.877 101.408 257.632C101.878 257.387 102.352 257.259 102.832 257.248L102.848 259.504H102.384ZM110.566 261.52C110.566 260.827 110.374 260.283 109.99 259.888C109.606 259.493 109.132 259.296 108.566 259.296C108.001 259.296 107.51 259.493 107.094 259.888C106.689 260.283 106.486 260.821 106.486 261.504C106.486 262.187 106.684 262.741 107.078 263.168C107.484 263.584 107.974 263.792 108.55 263.792C109.126 263.792 109.606 263.584 109.99 263.168C110.374 262.752 110.566 262.203 110.566 261.52ZM110.902 264.544C110.145 265.387 109.201 265.808 108.07 265.808C106.95 265.808 106.001 265.429 105.222 264.672C104.454 263.904 104.07 262.885 104.07 261.616C104.07 260.336 104.465 259.291 105.254 258.48C106.054 257.659 106.966 257.248 107.99 257.248C109.014 257.248 109.862 257.669 110.534 258.512V257.376H112.934V264.88C112.934 265.648 112.801 266.331 112.534 266.928C112.268 267.525 111.91 267.995 111.462 268.336C110.577 269.04 109.532 269.392 108.326 269.392C107.686 269.392 107.03 269.285 106.358 269.072C105.697 268.869 105.116 268.576 104.614 268.192L105.542 266.384C106.332 266.981 107.164 267.28 108.038 267.28C108.924 267.28 109.622 267.061 110.134 266.624C110.646 266.187 110.902 265.493 110.902 264.544ZM122.618 266H120.362V264.96C119.744 265.739 118.976 266.128 118.058 266.128C117.152 266.128 116.389 265.867 115.77 265.344C115.152 264.811 114.842 264.107 114.842 263.232C114.842 262.347 115.162 261.685 115.802 261.248C116.442 260.811 117.317 260.592 118.426 260.592H120.218V260.544C120.218 259.627 119.733 259.168 118.762 259.168C118.346 259.168 117.904 259.253 117.434 259.424C116.976 259.584 116.586 259.787 116.266 260.032L115.194 258.48C116.325 257.659 117.616 257.248 119.066 257.248C120.112 257.248 120.965 257.509 121.626 258.032C122.288 258.555 122.618 259.381 122.618 260.512V266ZM120.202 262.72V262.304H118.698C117.738 262.304 117.258 262.603 117.258 263.2C117.258 263.509 117.37 263.749 117.594 263.92C117.829 264.08 118.16 264.16 118.586 264.16C119.013 264.16 119.386 264.032 119.706 263.776C120.037 263.509 120.202 263.157 120.202 262.72ZM127.306 261.2V266H124.906V257.392H127.306V258.352C128.032 257.616 128.848 257.248 129.754 257.248C130.661 257.248 131.418 257.568 132.026 258.208C132.645 258.848 132.954 259.701 132.954 260.768V266H130.554V261.136C130.554 259.813 130.069 259.152 129.098 259.152C128.618 259.152 128.197 259.328 127.834 259.68C127.482 260.021 127.306 260.528 127.306 261.2ZM137.625 266H135.225V257.392H137.625V266ZM135.417 256.304C135.15 256.027 135.017 255.691 135.017 255.296C135.017 254.901 135.15 254.571 135.417 254.304C135.694 254.027 136.03 253.888 136.425 253.888C136.82 253.888 137.15 254.027 137.417 254.304C137.694 254.571 137.833 254.901 137.833 255.296C137.833 255.691 137.694 256.027 137.417 256.304C137.15 256.571 136.82 256.704 136.425 256.704C136.03 256.704 135.694 256.571 135.417 256.304ZM139.837 259.376V257.392H146.781V259.264L142.605 264H147.021V266H139.533V264.016L143.597 259.376H139.837ZM156.397 264.752C155.426 265.669 154.285 266.128 152.973 266.128C151.671 266.128 150.594 265.728 149.741 264.928C148.887 264.117 148.461 263.035 148.461 261.68C148.461 260.325 148.893 259.248 149.757 258.448C150.631 257.648 151.661 257.248 152.845 257.248C154.029 257.248 155.031 257.605 155.853 258.32C156.685 259.035 157.101 260.016 157.101 261.264V262.544H150.829C150.903 263.013 151.149 263.397 151.565 263.696C151.981 263.995 152.45 264.144 152.973 264.144C153.815 264.144 154.509 263.861 155.053 263.296L156.397 264.752ZM154.669 260.832C154.615 260.32 154.423 259.925 154.093 259.648C153.762 259.371 153.357 259.232 152.877 259.232C152.407 259.232 151.975 259.376 151.581 259.664C151.186 259.952 150.957 260.341 150.893 260.832H154.669ZM170.562 266H168.306V264.96C167.687 265.739 166.919 266.128 166.002 266.128C165.095 266.128 164.333 265.867 163.714 265.344C163.095 264.811 162.786 264.107 162.786 263.232C162.786 262.347 163.106 261.685 163.746 261.248C164.386 260.811 165.261 260.592 166.37 260.592H168.162V260.544C168.162 259.627 167.677 259.168 166.706 259.168C166.29 259.168 165.847 259.253 165.378 259.424C164.919 259.584 164.53 259.787 164.21 260.032L163.138 258.48C164.269 257.659 165.559 257.248 167.01 257.248C168.055 257.248 168.909 257.509 169.57 258.032C170.231 258.555 170.562 259.381 170.562 260.512V266ZM168.146 262.72V262.304H166.642C165.682 262.304 165.202 262.603 165.202 263.2C165.202 263.509 165.314 263.749 165.538 263.92C165.773 264.08 166.103 264.16 166.53 264.16C166.957 264.16 167.33 264.032 167.65 263.776C167.981 263.509 168.146 263.157 168.146 262.72ZM176.978 264C177.778 264 178.498 263.6 179.138 262.8L180.562 264.4C179.453 265.552 178.253 266.128 176.962 266.128C175.671 266.128 174.578 265.723 173.682 264.912C172.797 264.091 172.354 263.024 172.354 261.712C172.354 260.389 172.802 259.317 173.698 258.496C174.605 257.664 175.677 257.248 176.914 257.248C177.533 257.248 178.157 257.376 178.786 257.632C179.426 257.888 179.986 258.267 180.466 258.768L179.218 260.4C178.941 260.069 178.599 259.813 178.194 259.632C177.799 259.451 177.405 259.36 177.01 259.36C176.381 259.36 175.837 259.568 175.378 259.984C174.93 260.389 174.706 260.96 174.706 261.696C174.706 262.421 174.93 262.987 175.378 263.392C175.837 263.797 176.37 264 176.978 264ZM186.791 259.504C186.076 259.504 185.543 259.76 185.191 260.272C184.839 260.773 184.663 261.44 184.663 262.272V266H182.263V257.392H184.663V258.528C184.972 258.176 185.356 257.877 185.815 257.632C186.284 257.387 186.759 257.259 187.239 257.248L187.255 259.504H186.791ZM190.736 261.696C190.736 262.4 190.933 262.976 191.328 263.424C191.733 263.861 192.245 264.08 192.864 264.08C193.493 264.08 194.005 263.861 194.4 263.424C194.805 262.976 195.008 262.4 195.008 261.696C195.008 260.992 194.805 260.416 194.4 259.968C194.005 259.52 193.493 259.296 192.864 259.296C192.245 259.296 191.733 259.52 191.328 259.968C190.933 260.416 190.736 260.992 190.736 261.696ZM197.424 261.696C197.424 262.944 196.992 263.995 196.128 264.848C195.264 265.701 194.176 266.128 192.864 266.128C191.562 266.128 190.48 265.701 189.616 264.848C188.752 263.995 188.32 262.944 188.32 261.696C188.32 260.448 188.752 259.397 189.616 258.544C190.48 257.68 191.562 257.248 192.864 257.248C194.176 257.248 195.264 257.68 196.128 258.544C196.992 259.397 197.424 260.448 197.424 261.696ZM205.708 263.328C205.708 264.171 205.394 264.848 204.764 265.36C204.146 265.872 203.356 266.128 202.396 266.128C201.756 266.128 201.09 266.016 200.396 265.792C199.703 265.557 199.079 265.216 198.524 264.768L199.58 263.264C200.476 263.957 201.431 264.304 202.444 264.304C202.754 264.304 202.999 264.245 203.18 264.128C203.362 264 203.452 263.835 203.452 263.632C203.452 263.429 203.324 263.243 203.068 263.072C202.823 262.901 202.46 262.741 201.98 262.592C201.511 262.443 201.148 262.315 200.892 262.208C200.647 262.101 200.364 261.947 200.044 261.744C199.394 261.339 199.068 260.741 199.068 259.952C199.068 259.152 199.388 258.501 200.028 258C200.668 257.499 201.495 257.248 202.508 257.248C203.522 257.248 204.535 257.589 205.548 258.272L204.652 259.872C203.906 259.36 203.159 259.104 202.412 259.104C201.676 259.104 201.308 259.307 201.308 259.712C201.308 259.936 201.426 260.112 201.66 260.24C201.895 260.368 202.284 260.517 202.828 260.688C203.372 260.859 203.756 260.992 203.98 261.088C204.215 261.173 204.492 261.312 204.812 261.504C205.41 261.867 205.708 262.475 205.708 263.328ZM214.121 263.328C214.121 264.171 213.806 264.848 213.177 265.36C212.558 265.872 211.769 266.128 210.809 266.128C210.169 266.128 209.502 266.016 208.809 265.792C208.115 265.557 207.491 265.216 206.937 264.768L207.993 263.264C208.889 263.957 209.843 264.304 210.857 264.304C211.166 264.304 211.411 264.245 211.593 264.128C211.774 264 211.865 263.835 211.865 263.632C211.865 263.429 211.737 263.243 211.481 263.072C211.235 262.901 210.873 262.741 210.393 262.592C209.923 262.443 209.561 262.315 209.305 262.208C209.059 262.101 208.777 261.947 208.457 261.744C207.806 261.339 207.481 260.741 207.481 259.952C207.481 259.152 207.801 258.501 208.441 258C209.081 257.499 209.907 257.248 210.921 257.248C211.934 257.248 212.947 257.589 213.961 258.272L213.065 259.872C212.318 259.36 211.571 259.104 210.825 259.104C210.089 259.104 209.721 259.307 209.721 259.712C209.721 259.936 209.838 260.112 210.073 260.24C210.307 260.368 210.697 260.517 211.241 260.688C211.785 260.859 212.169 260.992 212.393 261.088C212.627 261.173 212.905 261.312 213.225 261.504C213.822 261.867 214.121 262.475 214.121 263.328ZM227.684 266H225.428V264.96C224.809 265.739 224.041 266.128 223.124 266.128C222.217 266.128 221.455 265.867 220.836 265.344C220.217 264.811 219.908 264.107 219.908 263.232C219.908 262.347 220.228 261.685 220.868 261.248C221.508 260.811 222.383 260.592 223.492 260.592H225.284V260.544C225.284 259.627 224.799 259.168 223.828 259.168C223.412 259.168 222.969 259.253 222.5 259.424C222.041 259.584 221.652 259.787 221.332 260.032L220.26 258.48C221.391 257.659 222.681 257.248 224.132 257.248C225.177 257.248 226.031 257.509 226.692 258.032C227.353 258.555 227.684 259.381 227.684 260.512V266ZM225.268 262.72V262.304H223.764C222.804 262.304 222.324 262.603 222.324 263.2C222.324 263.509 222.436 263.749 222.66 263.92C222.895 264.08 223.225 264.16 223.652 264.16C224.079 264.16 224.452 264.032 224.772 263.776C225.103 263.509 225.268 263.157 225.268 262.72ZM232.372 266H229.972V254.128H232.372V266ZM237.144 266H234.744V254.128H237.144V266ZM116.898 290H114.642V288.96C114.023 289.739 113.255 290.128 112.338 290.128C111.431 290.128 110.669 289.867 110.05 289.344C109.431 288.811 109.122 288.107 109.122 287.232C109.122 286.347 109.442 285.685 110.082 285.248C110.722 284.811 111.597 284.592 112.706 284.592H114.498V284.544C114.498 283.627 114.013 283.168 113.042 283.168C112.626 283.168 112.183 283.253 111.714 283.424C111.255 283.584 110.866 283.787 110.546 284.032L109.474 282.48C110.605 281.659 111.895 281.248 113.346 281.248C114.391 281.248 115.245 281.509 115.906 282.032C116.567 282.555 116.898 283.381 116.898 284.512V290ZM114.482 286.72V286.304H112.978C112.018 286.304 111.538 286.603 111.538 287.2C111.538 287.509 111.65 287.749 111.874 287.92C112.109 288.08 112.439 288.16 112.866 288.16C113.293 288.16 113.666 288.032 113.986 287.776C114.317 287.509 114.482 287.157 114.482 286.72ZM124.194 281.248C125.197 281.248 126.087 281.669 126.866 282.512C127.655 283.344 128.05 284.395 128.05 285.664C128.05 286.933 127.655 287.995 126.866 288.848C126.087 289.701 125.17 290.128 124.114 290.128C123.069 290.128 122.226 289.707 121.586 288.864V293.104H119.186V281.392H121.586V282.352C122.322 281.616 123.191 281.248 124.194 281.248ZM121.554 285.712C121.554 286.405 121.746 286.976 122.13 287.424C122.525 287.861 122.999 288.08 123.554 288.08C124.109 288.08 124.594 287.861 125.01 287.424C125.426 286.976 125.634 286.405 125.634 285.712C125.634 285.019 125.431 284.437 125.026 283.968C124.621 283.499 124.135 283.264 123.57 283.264C123.005 283.264 122.525 283.499 122.13 283.968C121.746 284.427 121.554 285.008 121.554 285.712ZM134.95 281.248C135.953 281.248 136.844 281.669 137.622 282.512C138.412 283.344 138.806 284.395 138.806 285.664C138.806 286.933 138.412 287.995 137.622 288.848C136.844 289.701 135.926 290.128 134.87 290.128C133.825 290.128 132.982 289.707 132.342 288.864V293.104H129.942V281.392H132.342V282.352C133.078 281.616 133.948 281.248 134.95 281.248ZM132.31 285.712C132.31 286.405 132.502 286.976 132.886 287.424C133.281 287.861 133.756 288.08 134.31 288.08C134.865 288.08 135.35 287.861 135.766 287.424C136.182 286.976 136.39 286.405 136.39 285.712C136.39 285.019 136.188 284.437 135.782 283.968C135.377 283.499 134.892 283.264 134.326 283.264C133.761 283.264 133.281 283.499 132.886 283.968C132.502 284.427 132.31 285.008 132.31 285.712ZM147.1 287.328C147.1 288.171 146.786 288.848 146.156 289.36C145.538 289.872 144.748 290.128 143.788 290.128C143.148 290.128 142.482 290.016 141.788 289.792C141.095 289.557 140.471 289.216 139.916 288.768L140.972 287.264C141.868 287.957 142.823 288.304 143.836 288.304C144.146 288.304 144.391 288.245 144.572 288.128C144.754 288 144.844 287.835 144.844 287.632C144.844 287.429 144.716 287.243 144.46 287.072C144.215 286.901 143.852 286.741 143.372 286.592C142.903 286.443 142.54 286.315 142.284 286.208C142.039 286.101 141.756 285.947 141.436 285.744C140.786 285.339 140.46 284.741 140.46 283.952C140.46 283.152 140.78 282.501 141.42 282C142.06 281.499 142.887 281.248 143.9 281.248C144.914 281.248 145.927 281.589 146.94 282.272L146.044 283.872C145.298 283.36 144.551 283.104 143.804 283.104C143.068 283.104 142.7 283.307 142.7 283.712C142.7 283.936 142.818 284.112 143.052 284.24C143.287 284.368 143.676 284.517 144.22 284.688C144.764 284.859 145.148 284.992 145.372 285.088C145.607 285.173 145.884 285.312 146.204 285.504C146.802 285.867 147.1 286.475 147.1 287.328ZM158.312 281.248C159.357 281.248 160.269 281.659 161.048 282.48C161.826 283.291 162.216 284.336 162.216 285.616C162.216 286.896 161.816 287.968 161.016 288.832C160.216 289.696 159.304 290.128 158.28 290.128C157.266 290.128 156.424 289.707 155.752 288.864V290H153.352V278.128H155.752V282.352C156.413 281.616 157.266 281.248 158.312 281.248ZM155.72 285.712C155.72 286.405 155.912 286.976 156.296 287.424C156.69 287.861 157.165 288.08 157.72 288.08C158.274 288.08 158.76 287.861 159.176 287.424C159.592 286.976 159.8 286.405 159.8 285.712C159.8 285.019 159.597 284.437 159.192 283.968C158.786 283.499 158.301 283.264 157.736 283.264C157.17 283.264 156.69 283.499 156.296 283.968C155.912 284.427 155.72 285.008 155.72 285.712ZM165.424 293.392C164.581 293.392 163.787 293.051 163.04 292.368L164.128 290.592C164.533 290.987 164.949 291.184 165.376 291.184C165.6 291.184 165.792 291.072 165.952 290.848C166.112 290.635 166.192 290.405 166.192 290.16C166.192 289.915 165.083 286.992 162.864 281.392H165.424L167.52 286.752L169.616 281.392H172.176L168.176 291.536C167.941 292.123 167.573 292.576 167.072 292.896C166.581 293.227 166.032 293.392 165.424 293.392ZM180.192 285.36V290H177.792V278.128H180.192V282.352C180.918 281.616 181.728 281.248 182.624 281.248C183.531 281.248 184.294 281.568 184.912 282.208C185.531 282.848 185.84 283.701 185.84 284.768V290H183.44V285.296C183.44 283.973 182.955 283.312 181.984 283.312C181.504 283.312 181.083 283.488 180.72 283.84C180.368 284.181 180.192 284.688 180.192 285.36ZM195.423 290H193.167V288.96C192.548 289.739 191.78 290.128 190.863 290.128C189.956 290.128 189.194 289.867 188.575 289.344C187.956 288.811 187.647 288.107 187.647 287.232C187.647 286.347 187.967 285.685 188.607 285.248C189.247 284.811 190.122 284.592 191.231 284.592H193.023V284.544C193.023 283.627 192.538 283.168 191.567 283.168C191.151 283.168 190.708 283.253 190.239 283.424C189.78 283.584 189.391 283.787 189.071 284.032L187.999 282.48C189.13 281.659 190.42 281.248 191.871 281.248C192.916 281.248 193.77 281.509 194.431 282.032C195.092 282.555 195.423 283.381 195.423 284.512V290ZM193.007 286.72V286.304H191.503C190.543 286.304 190.063 286.603 190.063 287.2C190.063 287.509 190.175 287.749 190.399 287.92C190.634 288.08 190.964 288.16 191.391 288.16C191.818 288.16 192.191 288.032 192.511 287.776C192.842 287.509 193.007 287.157 193.007 286.72ZM200.111 285.2V290H197.711V281.392H200.111V282.352C200.836 281.616 201.652 281.248 202.559 281.248C203.466 281.248 204.223 281.568 204.831 282.208C205.45 282.848 205.759 283.701 205.759 284.768V290H203.359V285.136C203.359 283.813 202.874 283.152 201.903 283.152C201.423 283.152 201.002 283.328 200.639 283.68C200.287 284.021 200.111 284.528 200.111 285.2ZM211.47 290.128C210.456 290.128 209.55 289.696 208.75 288.832C207.95 287.968 207.55 286.896 207.55 285.616C207.55 284.336 207.939 283.291 208.718 282.48C209.496 281.659 210.408 281.248 211.454 281.248C212.499 281.248 213.352 281.616 214.014 282.352V278.128H216.414V290H214.014V288.864C213.342 289.707 212.494 290.128 211.47 290.128ZM209.966 285.712C209.966 286.405 210.174 286.976 210.59 287.424C211.006 287.861 211.491 288.08 212.046 288.08C212.6 288.08 213.07 287.861 213.454 287.424C213.848 286.976 214.046 286.405 214.046 285.712C214.046 285.008 213.848 284.427 213.454 283.968C213.07 283.499 212.595 283.264 212.03 283.264C211.464 283.264 210.979 283.499 210.574 283.968C210.168 284.437 209.966 285.019 209.966 285.712Z" fill="#737373"/>
<g clip-path="url(#clip1_688_3819)">
<path d="M110.68 353.12C109.8 354.827 109.36 357.08 109.36 359.88C109.36 362.68 109.8 364.933 110.68 366.64C111.56 368.347 112.933 369.2 114.8 369.2C116.667 369.2 118.04 368.347 118.92 366.64C119.8 364.933 120.24 362.68 120.24 359.88C120.24 357.08 119.8 354.827 118.92 353.12C118.04 351.413 116.667 350.56 114.8 350.56C112.933 350.56 111.56 351.413 110.68 353.12ZM114.8 374.32C110.933 374.32 108.04 373.013 106.12 370.4C104.2 367.76 103.24 364.253 103.24 359.88C103.24 355.48 104.2 351.973 106.12 349.36C108.04 346.72 110.933 345.4 114.8 345.4C118.667 345.4 121.56 346.72 123.48 349.36C125.4 351.973 126.36 355.48 126.36 359.88C126.36 364.253 125.4 367.76 123.48 370.4C121.56 373.013 118.667 374.32 114.8 374.32Z" fill="#23A6F0"/>
<path d="M145.48 358.156V356.404C143.448 356.084 141.576 355.164 139.864 353.644L142.096 350.932C143.344 352.02 144.472 352.716 145.48 353.02V349.444C143.8 349.012 142.568 348.436 141.784 347.716C141 346.98 140.608 345.932 140.608 344.572C140.608 343.196 141.056 342.068 141.952 341.188C142.848 340.292 144.024 339.756 145.48 339.58V338.404H148.024V339.628C149.624 339.852 151.216 340.516 152.8 341.62L150.832 344.452C149.824 343.732 148.888 343.252 148.024 343.012V346.468C149.752 346.916 151.024 347.516 151.84 348.268C152.672 349.02 153.088 350.084 153.088 351.46C153.088 352.836 152.624 353.972 151.696 354.868C150.784 355.764 149.56 356.3 148.024 356.476V358.156H145.48ZM149.248 351.652C149.248 351.316 149.16 351.036 148.984 350.812C148.808 350.588 148.488 350.38 148.024 350.188V353.14C148.84 352.884 149.248 352.388 149.248 351.652ZM145.48 342.916C144.792 343.156 144.448 343.596 144.448 344.236C144.448 344.876 144.792 345.364 145.48 345.7V342.916Z" fill="#23A6F0"/>
<path d="M144.328 370.316C146.045 370.316 147.293 370.652 148.072 371.324C148.861 371.985 149.256 373.009 149.256 374.396C149.256 375.772 148.851 376.78 148.04 377.42C147.24 378.06 146.013 378.38 144.36 378.38H142.872V381.5H140.376V370.316H144.328ZM144.552 376.22C145.384 376.22 145.949 376.055 146.248 375.724C146.547 375.383 146.696 374.892 146.696 374.252C146.696 373.601 146.499 373.143 146.104 372.876C145.72 372.599 145.117 372.46 144.296 372.46H142.872V376.22H144.552ZM158.52 380.252C157.549 381.169 156.408 381.628 155.096 381.628C153.795 381.628 152.717 381.228 151.864 380.428C151.011 379.617 150.584 378.535 150.584 377.18C150.584 375.825 151.016 374.748 151.88 373.948C152.755 373.148 153.784 372.748 154.968 372.748C156.152 372.748 157.155 373.105 157.976 373.82C158.808 374.535 159.224 375.516 159.224 376.764V378.044H152.952C153.027 378.513 153.272 378.897 153.688 379.196C154.104 379.495 154.573 379.644 155.096 379.644C155.939 379.644 156.632 379.361 157.176 378.796L158.52 380.252ZM156.792 376.332C156.739 375.82 156.547 375.425 156.216 375.148C155.885 374.871 155.48 374.732 155 374.732C154.531 374.732 154.099 374.876 153.704 375.164C153.309 375.452 153.08 375.841 153.016 376.332H156.792ZM165.583 375.004C164.868 375.004 164.335 375.26 163.983 375.772C163.631 376.273 163.455 376.94 163.455 377.772V381.5H161.055V372.892H163.455V374.028C163.764 373.676 164.148 373.377 164.607 373.132C165.076 372.887 165.551 372.759 166.031 372.748L166.047 375.004H165.583ZM182.308 374.46L179.284 380.572H177.796L174.788 374.46V381.5H172.292V370.316H175.668L178.548 376.46L181.444 370.316H184.804V381.5H182.308V374.46ZM189.337 377.196C189.337 377.9 189.535 378.476 189.929 378.924C190.335 379.361 190.847 379.58 191.465 379.58C192.095 379.58 192.607 379.361 193.001 378.924C193.407 378.476 193.609 377.9 193.609 377.196C193.609 376.492 193.407 375.916 193.001 375.468C192.607 375.02 192.095 374.796 191.465 374.796C190.847 374.796 190.335 375.02 189.929 375.468C189.535 375.916 189.337 376.492 189.337 377.196ZM196.025 377.196C196.025 378.444 195.593 379.495 194.729 380.348C193.865 381.201 192.777 381.628 191.465 381.628C190.164 381.628 189.081 381.201 188.217 380.348C187.353 379.495 186.921 378.444 186.921 377.196C186.921 375.948 187.353 374.897 188.217 374.044C189.081 373.18 190.164 372.748 191.465 372.748C192.777 372.748 193.865 373.18 194.729 374.044C195.593 374.897 196.025 375.948 196.025 377.196ZM200.308 376.7V381.5H197.908V372.892H200.308V373.852C201.033 373.116 201.849 372.748 202.756 372.748C203.663 372.748 204.42 373.068 205.028 373.708C205.647 374.348 205.956 375.201 205.956 376.268V381.5H203.556V376.636C203.556 375.313 203.071 374.652 202.1 374.652C201.62 374.652 201.199 374.828 200.836 375.18C200.484 375.521 200.308 376.028 200.308 376.7ZM210.966 374.62V378.476C210.966 378.807 211.051 379.068 211.222 379.26C211.392 379.441 211.595 379.532 211.83 379.532C212.278 379.532 212.656 379.329 212.966 378.924L213.862 380.604C213.115 381.287 212.326 381.628 211.494 381.628C210.672 381.628 209.974 381.356 209.398 380.812C208.832 380.268 208.55 379.527 208.55 378.588V374.62H207.542V372.892H208.55V370.316H210.966V372.892H213.046V374.62H210.966ZM217.649 376.86V381.5H215.249V369.628H217.649V373.852C218.374 373.116 219.185 372.748 220.081 372.748C220.987 372.748 221.75 373.068 222.369 373.708C222.987 374.348 223.297 375.201 223.297 376.268V381.5H220.897V376.796C220.897 375.473 220.411 374.812 219.441 374.812C218.961 374.812 218.539 374.988 218.177 375.34C217.825 375.681 217.649 376.188 217.649 376.86Z" fill="#8EC2F2"/>
</g>
<path d="M76.6995 440.14C79.3875 440.14 80.6615 438.796 80.6615 437.228C80.6615 433.63 74.8515 434.988 74.8515 432.902C74.8515 432.16 75.4675 431.572 76.9795 431.572C77.8335 431.572 78.7995 431.824 79.6815 432.342L80.2555 430.928C79.4015 430.368 78.1695 430.06 76.9935 430.06C74.3055 430.06 73.0455 431.404 73.0455 432.986C73.0455 436.626 78.8695 435.24 78.8695 437.354C78.8695 438.082 78.2255 438.628 76.6995 438.628C75.4955 438.628 74.2495 438.18 73.4655 437.55L72.8355 438.964C73.6475 439.664 75.1735 440.14 76.6995 440.14ZM82.4982 440H84.2482V429.612H82.4982V440ZM89.6011 432.44C88.3971 432.44 87.2351 432.748 86.4371 433.364L87.1231 434.638C87.6831 434.176 88.5511 433.896 89.3911 433.896C90.6371 433.896 91.2531 434.498 91.2531 435.52V435.632H89.3211C87.0531 435.632 86.2131 436.612 86.2131 437.858C86.2131 439.16 87.2911 440.098 88.9991 440.098C90.1191 440.098 90.9311 439.734 91.3511 439.09V440H93.0031V435.618C93.0031 433.462 91.7571 432.44 89.6011 432.44ZM89.3631 438.824C88.4671 438.824 87.9351 438.418 87.9351 437.788C87.9351 437.242 88.2571 436.794 89.4471 436.794H91.2531V437.662C90.9591 438.432 90.2171 438.824 89.3631 438.824ZM99.453 438.348C99.187 438.558 98.837 438.656 98.473 438.656C97.801 438.656 97.437 438.264 97.437 437.536V433.98H99.439V432.58H97.437V430.872H95.687V432.58H94.455V433.98H95.687V437.578C95.687 439.23 96.625 440.098 98.263 440.098C98.893 440.098 99.523 439.93 99.943 439.594L99.453 438.348ZM108.364 436.304C108.364 433.966 106.768 432.44 104.584 432.44C102.358 432.44 100.72 434.036 100.72 436.262C100.72 438.488 102.344 440.098 104.85 440.098C106.138 440.098 107.188 439.678 107.86 438.88L106.922 437.802C106.39 438.348 105.732 438.614 104.892 438.614C103.59 438.614 102.68 437.914 102.47 436.822H108.336C108.35 436.654 108.364 436.444 108.364 436.304ZM104.584 433.84C105.732 433.84 106.558 434.582 106.698 435.66H102.456C102.624 434.568 103.45 433.84 104.584 433.84ZM118.557 432.44C117.521 432.44 116.639 432.776 116.065 433.392V429.612H114.315V440H116.065V436.22C116.065 434.722 116.905 433.966 118.151 433.966C119.271 433.966 119.929 434.61 119.929 435.94V440H121.679V435.716C121.679 433.462 120.349 432.44 118.557 432.44ZM131.195 436.304C131.195 433.966 129.599 432.44 127.415 432.44C125.189 432.44 123.551 434.036 123.551 436.262C123.551 438.488 125.175 440.098 127.681 440.098C128.969 440.098 130.019 439.678 130.691 438.88L129.753 437.802C129.221 438.348 128.563 438.614 127.723 438.614C126.421 438.614 125.511 437.914 125.301 436.822H131.167C131.181 436.654 131.195 436.444 131.195 436.304ZM127.415 433.84C128.563 433.84 129.389 434.582 129.529 435.66H125.287C125.455 434.568 126.281 433.84 127.415 433.84ZM133.076 440H134.826V429.612H133.076V440ZM141.467 432.44C140.445 432.44 139.577 432.79 138.989 433.504V432.524H137.323V442.716H139.073V439.09C139.675 439.776 140.515 440.098 141.467 440.098C143.651 440.098 145.261 438.586 145.261 436.262C145.261 433.952 143.651 432.44 141.467 432.44ZM141.271 438.6C140.011 438.6 139.045 437.69 139.045 436.262C139.045 434.834 140.011 433.924 141.271 433.924C142.531 433.924 143.483 434.834 143.483 436.262C143.483 437.69 142.531 438.6 141.271 438.6ZM149.43 440.098C151.53 440.098 152.818 439.188 152.818 437.788C152.818 434.862 148.198 436.206 148.198 434.694C148.198 434.204 148.702 433.854 149.766 433.854C150.48 433.854 151.194 433.994 151.908 434.414L152.58 433.084C151.908 432.678 150.774 432.44 149.78 432.44C147.764 432.44 146.49 433.364 146.49 434.778C146.49 437.76 151.11 436.416 151.11 437.844C151.11 438.362 150.648 438.67 149.542 438.67C148.604 438.67 147.596 438.362 146.938 437.928L146.266 439.258C146.938 439.734 148.184 440.098 149.43 440.098ZM163.915 432.524L161.549 438.054L159.197 432.524H157.377L160.639 440.028L160.513 440.322C160.177 441.064 159.813 441.358 159.197 441.358C158.721 441.358 158.245 441.162 157.909 440.84L157.209 442.128C157.685 442.562 158.469 442.814 159.211 442.814C160.457 442.814 161.409 442.296 162.095 440.602L165.595 432.524H163.915ZM170.043 440.098C172.367 440.098 174.033 438.502 174.033 436.262C174.033 434.022 172.367 432.44 170.043 432.44C167.747 432.44 166.067 434.022 166.067 436.262C166.067 438.502 167.747 440.098 170.043 440.098ZM170.043 438.6C168.783 438.6 167.831 437.69 167.831 436.262C167.831 434.834 168.783 433.924 170.043 433.924C171.317 433.924 172.269 434.834 172.269 436.262C172.269 437.69 171.317 438.6 170.043 438.6ZM181.395 432.524V436.304C181.395 437.802 180.569 438.558 179.351 438.558C178.245 438.558 177.601 437.914 177.601 436.556V432.524H175.851V436.794C175.851 439.048 177.153 440.098 179.071 440.098C180.037 440.098 180.919 439.734 181.479 439.048V440H183.145V432.524H181.395ZM192.015 440.098C194.115 440.098 195.403 439.188 195.403 437.788C195.403 434.862 190.783 436.206 190.783 434.694C190.783 434.204 191.287 433.854 192.351 433.854C193.065 433.854 193.779 433.994 194.493 434.414L195.165 433.084C194.493 432.678 193.359 432.44 192.365 432.44C190.349 432.44 189.075 433.364 189.075 434.778C189.075 437.76 193.695 436.416 193.695 437.844C193.695 438.362 193.233 438.67 192.127 438.67C191.189 438.67 190.181 438.362 189.523 437.928L188.851 439.258C189.523 439.734 190.769 440.098 192.015 440.098ZM204.138 436.304C204.138 433.966 202.542 432.44 200.358 432.44C198.132 432.44 196.494 434.036 196.494 436.262C196.494 438.488 198.118 440.098 200.624 440.098C201.912 440.098 202.962 439.678 203.634 438.88L202.696 437.802C202.164 438.348 201.506 438.614 200.666 438.614C199.364 438.614 198.454 437.914 198.244 436.822H204.11C204.124 436.654 204.138 436.444 204.138 436.304ZM200.358 433.84C201.506 433.84 202.332 434.582 202.472 435.66H198.23C198.398 434.568 199.224 433.84 200.358 433.84ZM213.047 436.304C213.047 433.966 211.451 432.44 209.267 432.44C207.041 432.44 205.403 434.036 205.403 436.262C205.403 438.488 207.027 440.098 209.533 440.098C210.821 440.098 211.871 439.678 212.543 438.88L211.605 437.802C211.073 438.348 210.415 438.614 209.575 438.614C208.273 438.614 207.363 437.914 207.153 436.822H213.019C213.033 436.654 213.047 436.444 213.047 436.304ZM209.267 433.84C210.415 433.84 211.241 434.582 211.381 435.66H207.139C207.307 434.568 208.133 433.84 209.267 433.84ZM223.239 432.44C222.203 432.44 221.321 432.776 220.747 433.392V429.612H218.997V440H220.747V436.22C220.747 434.722 221.587 433.966 222.833 433.966C223.953 433.966 224.611 434.61 224.611 435.94V440H226.361V435.716C226.361 433.462 225.031 432.44 223.239 432.44ZM232.21 440.098C234.534 440.098 236.2 438.502 236.2 436.262C236.2 434.022 234.534 432.44 232.21 432.44C229.914 432.44 228.234 434.022 228.234 436.262C228.234 438.502 229.914 440.098 232.21 440.098ZM232.21 438.6C230.95 438.6 229.998 437.69 229.998 436.262C229.998 434.834 230.95 433.924 232.21 433.924C233.484 433.924 234.436 434.834 234.436 436.262C234.436 437.69 233.484 438.6 232.21 438.6ZM247.976 432.524L245.946 438.068L243.93 432.524H242.46L240.402 438.04L238.428 432.524H236.776L239.52 440H241.2L243.16 434.848L245.092 440H246.772L249.53 432.524H247.976ZM64.3365 456.44C63.1465 456.44 62.1385 456.916 61.5365 457.686C61.0185 456.846 60.1085 456.44 59.0165 456.44C57.9945 456.44 57.1265 456.804 56.5665 457.476V456.524H54.9005V464H56.6505V460.206C56.6505 458.722 57.4345 457.966 58.5965 457.966C59.6605 457.966 60.2765 458.61 60.2765 459.94V464H62.0265V460.206C62.0265 458.722 62.8245 457.966 63.9725 457.966C65.0365 457.966 65.6525 458.61 65.6525 459.94V464H67.4025V459.716C67.4025 457.462 66.1425 456.44 64.3365 456.44ZM72.6948 456.44C71.4908 456.44 70.3288 456.748 69.5308 457.364L70.2168 458.638C70.7768 458.176 71.6448 457.896 72.4848 457.896C73.7308 457.896 74.3468 458.498 74.3468 459.52V459.632H72.4148C70.1468 459.632 69.3068 460.612 69.3068 461.858C69.3068 463.16 70.3848 464.098 72.0928 464.098C73.2128 464.098 74.0248 463.734 74.4448 463.09V464H76.0968V459.618C76.0968 457.462 74.8508 456.44 72.6948 456.44ZM72.4568 462.824C71.5608 462.824 71.0288 462.418 71.0288 461.788C71.0288 461.242 71.3508 460.794 72.5408 460.794H74.3468V461.662C74.0528 462.432 73.3108 462.824 72.4568 462.824ZM82.7847 456.44C81.6927 456.44 80.7827 456.804 80.2087 457.49V456.524H78.5427V464H80.2927V460.22C80.2927 458.722 81.1327 457.966 82.3787 457.966C83.4987 457.966 84.1567 458.61 84.1567 459.94V464H85.9067V459.716C85.9067 457.462 84.5767 456.44 82.7847 456.44ZM93.51 456.524L91.144 462.054L88.792 456.524H86.972L90.234 464.028L90.108 464.322C89.772 465.064 89.408 465.358 88.792 465.358C88.316 465.358 87.84 465.162 87.504 464.84L86.804 466.128C87.28 466.562 88.064 466.814 88.806 466.814C90.052 466.814 91.004 466.296 91.69 464.602L95.19 456.524H93.51ZM109.989 456.44C108.799 456.44 107.791 456.916 107.189 457.686C106.671 456.846 105.761 456.44 104.669 456.44C103.647 456.44 102.779 456.804 102.219 457.476V456.524H100.553V464H102.303V460.206C102.303 458.722 103.087 457.966 104.249 457.966C105.313 457.966 105.929 458.61 105.929 459.94V464H107.679V460.206C107.679 458.722 108.477 457.966 109.625 457.966C110.689 457.966 111.305 458.61 111.305 459.94V464H113.055V459.716C113.055 457.462 111.795 456.44 109.989 456.44ZM118.92 464.098C121.244 464.098 122.91 462.502 122.91 460.262C122.91 458.022 121.244 456.44 118.92 456.44C116.624 456.44 114.944 458.022 114.944 460.262C114.944 462.502 116.624 464.098 118.92 464.098ZM118.92 462.6C117.66 462.6 116.708 461.69 116.708 460.262C116.708 458.834 117.66 457.924 118.92 457.924C120.194 457.924 121.146 458.834 121.146 460.262C121.146 461.69 120.194 462.6 118.92 462.6ZM126.449 457.616V456.524H124.783V464H126.533V460.374C126.533 458.848 127.373 458.064 128.703 458.064C128.829 458.064 128.955 458.078 129.109 458.106V456.44C127.863 456.44 126.953 456.832 126.449 457.616ZM137.753 460.304C137.753 457.966 136.157 456.44 133.973 456.44C131.747 456.44 130.109 458.036 130.109 460.262C130.109 462.488 131.733 464.098 134.239 464.098C135.527 464.098 136.577 463.678 137.249 462.88L136.311 461.802C135.779 462.348 135.121 462.614 134.281 462.614C132.979 462.614 132.069 461.914 131.859 460.822H137.725C137.739 460.654 137.753 460.444 137.753 460.304ZM133.973 457.84C135.121 457.84 135.947 458.582 136.087 459.66H131.845C132.013 458.568 132.839 457.84 133.973 457.84ZM149.275 453.612V457.448C148.687 456.762 147.833 456.44 146.867 456.44C144.697 456.44 143.087 457.938 143.087 460.262C143.087 462.586 144.697 464.098 146.867 464.098C147.889 464.098 148.757 463.748 149.345 463.034V464H151.025V453.612H149.275ZM147.077 462.6C145.817 462.6 144.851 461.69 144.851 460.262C144.851 458.834 145.817 457.924 147.077 457.924C148.337 457.924 149.303 458.834 149.303 460.262C149.303 461.69 148.337 462.6 147.077 462.6ZM156.371 456.44C155.167 456.44 154.005 456.748 153.207 457.364L153.893 458.638C154.453 458.176 155.321 457.896 156.161 457.896C157.407 457.896 158.023 458.498 158.023 459.52V459.632H156.091C153.823 459.632 152.983 460.612 152.983 461.858C152.983 463.16 154.061 464.098 155.769 464.098C156.889 464.098 157.701 463.734 158.121 463.09V464H159.773V459.618C159.773 457.462 158.527 456.44 156.371 456.44ZM156.133 462.824C155.237 462.824 154.705 462.418 154.705 461.788C154.705 461.242 155.027 460.794 156.217 460.794H158.023V461.662C157.729 462.432 156.987 462.824 156.133 462.824ZM167.402 456.524L165.036 462.054L162.684 456.524H160.864L164.126 464.028L164 464.322C163.664 465.064 163.3 465.358 162.684 465.358C162.208 465.358 161.732 465.162 161.396 464.84L160.696 466.128C161.172 466.562 161.956 466.814 162.698 466.814C163.944 466.814 164.896 466.296 165.582 464.602L169.082 456.524H167.402ZM172.59 464.098C174.69 464.098 175.978 463.188 175.978 461.788C175.978 458.862 171.358 460.206 171.358 458.694C171.358 458.204 171.862 457.854 172.926 457.854C173.64 457.854 174.354 457.994 175.068 458.414L175.74 457.084C175.068 456.678 173.934 456.44 172.94 456.44C170.924 456.44 169.65 457.364 169.65 458.778C169.65 461.76 174.27 460.416 174.27 461.844C174.27 462.362 173.808 462.67 172.702 462.67C171.764 462.67 170.756 462.362 170.098 461.928L169.426 463.258C170.098 463.734 171.344 464.098 172.59 464.098ZM187.074 456.524L184.708 462.054L182.356 456.524H180.536L183.798 464.028L183.672 464.322C183.336 465.064 182.972 465.358 182.356 465.358C181.88 465.358 181.404 465.162 181.068 464.84L180.368 466.128C180.844 466.562 181.628 466.814 182.37 466.814C183.616 466.814 184.568 466.296 185.254 464.602L188.754 456.524H187.074ZM193.203 464.098C195.527 464.098 197.193 462.502 197.193 460.262C197.193 458.022 195.527 456.44 193.203 456.44C190.907 456.44 189.227 458.022 189.227 460.262C189.227 462.502 190.907 464.098 193.203 464.098ZM193.203 462.6C191.943 462.6 190.991 461.69 190.991 460.262C190.991 458.834 191.943 457.924 193.203 457.924C194.477 457.924 195.429 458.834 195.429 460.262C195.429 461.69 194.477 462.6 193.203 462.6ZM204.554 456.524V460.304C204.554 461.802 203.728 462.558 202.51 462.558C201.404 462.558 200.76 461.914 200.76 460.556V456.524H199.01V460.794C199.01 463.048 200.312 464.098 202.23 464.098C203.196 464.098 204.078 463.734 204.638 463.048V464H206.304V456.524H204.554ZM217.107 456.44C216.015 456.44 215.105 456.804 214.531 457.49V456.524H212.865V464H214.615V460.22C214.615 458.722 215.455 457.966 216.701 457.966C217.821 457.966 218.479 458.61 218.479 459.94V464H220.229V459.716C220.229 457.462 218.899 456.44 217.107 456.44ZM229.745 460.304C229.745 457.966 228.149 456.44 225.965 456.44C223.739 456.44 222.101 458.036 222.101 460.262C222.101 462.488 223.725 464.098 226.231 464.098C227.519 464.098 228.569 463.678 229.241 462.88L228.303 461.802C227.771 462.348 227.113 462.614 226.273 462.614C224.971 462.614 224.061 461.914 223.851 460.822H229.717C229.731 460.654 229.745 460.444 229.745 460.304ZM225.965 457.84C227.113 457.84 227.939 458.582 228.079 459.66H223.837C224.005 458.568 224.831 457.84 225.965 457.84ZM238.654 460.304C238.654 457.966 237.058 456.44 234.874 456.44C232.648 456.44 231.01 458.036 231.01 460.262C231.01 462.488 232.634 464.098 235.14 464.098C236.428 464.098 237.478 463.678 238.15 462.88L237.212 461.802C236.68 462.348 236.022 462.614 235.182 462.614C233.88 462.614 232.97 461.914 232.76 460.822H238.626C238.64 460.654 238.654 460.444 238.654 460.304ZM234.874 457.84C236.022 457.84 236.848 458.582 236.988 459.66H232.746C232.914 458.568 233.74 457.84 234.874 457.84ZM246.107 453.612V457.448C245.519 456.762 244.665 456.44 243.699 456.44C241.529 456.44 239.919 457.938 239.919 460.262C239.919 462.586 241.529 464.098 243.699 464.098C244.721 464.098 245.589 463.748 246.177 463.034V464H247.857V453.612H246.107ZM243.909 462.6C242.649 462.6 241.683 461.69 241.683 460.262C241.683 458.834 242.649 457.924 243.909 457.924C245.169 457.924 246.135 458.834 246.135 460.262C246.135 461.69 245.169 462.6 243.909 462.6ZM258.419 462.348C258.153 462.558 257.803 462.656 257.439 462.656C256.767 462.656 256.403 462.264 256.403 461.536V457.98H258.405V456.58H256.403V454.872H254.653V456.58H253.421V457.98H254.653V461.578C254.653 463.23 255.591 464.098 257.229 464.098C257.859 464.098 258.489 463.93 258.909 463.594L258.419 462.348ZM263.663 464.098C265.987 464.098 267.653 462.502 267.653 460.262C267.653 458.022 265.987 456.44 263.663 456.44C261.367 456.44 259.687 458.022 259.687 460.262C259.687 462.502 261.367 464.098 263.663 464.098ZM263.663 462.6C262.403 462.6 261.451 461.69 261.451 460.262C261.451 458.834 262.403 457.924 263.663 457.924C264.937 457.924 265.889 458.834 265.889 460.262C265.889 461.69 264.937 462.6 263.663 462.6ZM68.5316 480.524L66.5016 486.068L64.4856 480.524H63.0156L60.9576 486.04L58.9836 480.524H57.3316L60.0756 488H61.7556L63.7156 482.848L65.6476 488H67.3276L70.0856 480.524H68.5316ZM74.6437 488.098C76.9677 488.098 78.6337 486.502 78.6337 484.262C78.6337 482.022 76.9677 480.44 74.6437 480.44C72.3477 480.44 70.6677 482.022 70.6677 484.262C70.6677 486.502 72.3477 488.098 74.6437 488.098ZM74.6437 486.6C73.3837 486.6 72.4317 485.69 72.4317 484.262C72.4317 482.834 73.3837 481.924 74.6437 481.924C75.9177 481.924 76.8697 482.834 76.8697 484.262C76.8697 485.69 75.9177 486.6 74.6437 486.6ZM82.1732 481.616V480.524H80.5072V488H82.2572V484.374C82.2572 482.848 83.0972 482.064 84.4272 482.064C84.5532 482.064 84.6792 482.078 84.8332 482.106V480.44C83.5872 480.44 82.6772 480.832 82.1732 481.616ZM92.1597 488H94.2877L90.8717 483.66L93.9937 480.524H91.8937L88.2677 483.884V477.612H86.5177V488H88.2677V486.026L89.5697 484.794L92.1597 488ZM103.691 486.348C103.425 486.558 103.075 486.656 102.711 486.656C102.039 486.656 101.675 486.264 101.675 485.536V481.98H103.677V480.58H101.675V478.872H99.9253V480.58H98.6933V481.98H99.9253V485.578C99.9253 487.23 100.863 488.098 102.501 488.098C103.131 488.098 103.761 487.93 104.181 487.594L103.691 486.348ZM108.935 488.098C111.259 488.098 112.925 486.502 112.925 484.262C112.925 482.022 111.259 480.44 108.935 480.44C106.639 480.44 104.959 482.022 104.959 484.262C104.959 486.502 106.639 488.098 108.935 488.098ZM108.935 486.6C107.675 486.6 106.723 485.69 106.723 484.262C106.723 482.834 107.675 481.924 108.935 481.924C110.209 481.924 111.161 482.834 111.161 484.262C111.161 485.69 110.209 486.6 108.935 486.6ZM120.533 481.616V480.524H118.867V488H120.617V484.374C120.617 482.848 121.457 482.064 122.787 482.064C122.913 482.064 123.039 482.078 123.193 482.106V480.44C121.947 480.44 121.037 480.832 120.533 481.616ZM131.838 484.304C131.838 481.966 130.242 480.44 128.058 480.44C125.832 480.44 124.194 482.036 124.194 484.262C124.194 486.488 125.818 488.098 128.324 488.098C129.612 488.098 130.662 487.678 131.334 486.88L130.396 485.802C129.864 486.348 129.206 486.614 128.366 486.614C127.064 486.614 126.154 485.914 125.944 484.822H131.81C131.824 484.654 131.838 484.444 131.838 484.304ZM128.058 481.84C129.206 481.84 130.032 482.582 130.172 483.66H125.93C126.098 482.568 126.924 481.84 128.058 481.84ZM136.369 480.44C135.165 480.44 134.003 480.748 133.205 481.364L133.891 482.638C134.451 482.176 135.319 481.896 136.159 481.896C137.405 481.896 138.021 482.498 138.021 483.52V483.632H136.089C133.821 483.632 132.981 484.612 132.981 485.858C132.981 487.16 134.059 488.098 135.767 488.098C136.887 488.098 137.699 487.734 138.119 487.09V488H139.771V483.618C139.771 481.462 138.525 480.44 136.369 480.44ZM136.131 486.824C135.235 486.824 134.703 486.418 134.703 485.788C134.703 485.242 135.025 484.794 136.215 484.794H138.021V485.662C137.727 486.432 136.985 486.824 136.131 486.824ZM145.716 488.098C147.172 488.098 148.334 487.468 148.908 486.348L147.564 485.564C147.116 486.278 146.444 486.6 145.702 486.6C144.414 486.6 143.434 485.718 143.434 484.262C143.434 482.82 144.414 481.924 145.702 481.924C146.444 481.924 147.116 482.246 147.564 482.96L148.908 482.176C148.334 481.042 147.172 480.44 145.716 480.44C143.35 480.44 141.67 482.022 141.67 484.262C141.67 486.502 143.35 488.098 145.716 488.098ZM154.794 480.44C153.758 480.44 152.876 480.776 152.302 481.392V477.612H150.552V488H152.302V484.22C152.302 482.722 153.142 481.966 154.388 481.966C155.508 481.966 156.166 482.61 156.166 483.94V488H157.916V483.716C157.916 481.462 156.586 480.44 154.794 480.44ZM169.725 480.524L167.359 486.054L165.007 480.524H163.187L166.449 488.028L166.323 488.322C165.987 489.064 165.623 489.358 165.007 489.358C164.531 489.358 164.055 489.162 163.719 488.84L163.019 490.128C163.495 490.562 164.279 490.814 165.021 490.814C166.267 490.814 167.219 490.296 167.905 488.602L171.405 480.524H169.725ZM175.854 488.098C178.178 488.098 179.844 486.502 179.844 484.262C179.844 482.022 178.178 480.44 175.854 480.44C173.558 480.44 171.878 482.022 171.878 484.262C171.878 486.502 173.558 488.098 175.854 488.098ZM175.854 486.6C174.594 486.6 173.642 485.69 173.642 484.262C173.642 482.834 174.594 481.924 175.854 481.924C177.128 481.924 178.08 482.834 178.08 484.262C178.08 485.69 177.128 486.6 175.854 486.6ZM187.205 480.524V484.304C187.205 485.802 186.379 486.558 185.161 486.558C184.055 486.558 183.411 485.914 183.411 484.556V480.524H181.661V484.794C181.661 487.048 182.963 488.098 184.881 488.098C185.847 488.098 186.729 487.734 187.289 487.048V488H188.955V480.524H187.205ZM193.113 481.616V480.524H191.447V488H193.197V484.374C193.197 482.848 194.037 482.064 195.367 482.064C195.493 482.064 195.619 482.078 195.773 482.106V480.44C194.527 480.44 193.617 480.832 193.113 481.616ZM208.763 479.292C209.421 479.292 209.883 478.816 209.883 478.2C209.883 477.626 209.407 477.192 208.763 477.192C208.119 477.192 207.643 477.654 207.643 478.242C207.643 478.83 208.119 479.292 208.763 479.292ZM201.833 480.104V480.58H200.601V481.98H201.833V488H203.583V481.98H205.585V480.58H203.527V480.132C203.527 479.334 203.905 478.928 204.633 478.928C204.997 478.928 205.333 479.054 205.599 479.236L206.089 477.92C205.697 477.64 205.109 477.514 204.507 477.514C202.771 477.514 201.833 478.536 201.833 480.104ZM207.881 488H209.631V480.524H207.881V488ZM216.373 480.44C215.281 480.44 214.371 480.804 213.797 481.49V480.524H212.131V488H213.881V484.22C213.881 482.722 214.721 481.966 215.967 481.966C217.087 481.966 217.745 482.61 217.745 483.94V488H219.495V483.716C219.495 481.462 218.165 480.44 216.373 480.44ZM224.771 480.44C223.567 480.44 222.405 480.748 221.607 481.364L222.293 482.638C222.853 482.176 223.721 481.896 224.561 481.896C225.807 481.896 226.423 482.498 226.423 483.52V483.632H224.491C222.223 483.632 221.383 484.612 221.383 485.858C221.383 487.16 222.461 488.098 224.169 488.098C225.289 488.098 226.101 487.734 226.521 487.09V488H228.173V483.618C228.173 481.462 226.927 480.44 224.771 480.44ZM224.533 486.824C223.637 486.824 223.105 486.418 223.105 485.788C223.105 485.242 223.427 484.794 224.617 484.794H226.423V485.662C226.129 486.432 225.387 486.824 224.533 486.824ZM234.861 480.44C233.769 480.44 232.859 480.804 232.285 481.49V480.524H230.619V488H232.369V484.22C232.369 482.722 233.209 481.966 234.455 481.966C235.575 481.966 236.233 482.61 236.233 483.94V488H237.983V483.716C237.983 481.462 236.653 480.44 234.861 480.44ZM243.901 488.098C245.357 488.098 246.519 487.468 247.093 486.348L245.749 485.564C245.301 486.278 244.629 486.6 243.887 486.6C242.599 486.6 241.619 485.718 241.619 484.262C241.619 482.82 242.599 481.924 243.887 481.924C244.629 481.924 245.301 482.246 245.749 482.96L247.093 482.176C246.519 481.042 245.357 480.44 243.901 480.44C241.535 480.44 239.855 482.022 239.855 484.262C239.855 486.502 241.535 488.098 243.901 488.098ZM249.688 479.292C250.346 479.292 250.808 478.816 250.808 478.2C250.808 477.626 250.332 477.192 249.688 477.192C249.044 477.192 248.568 477.654 248.568 478.242C248.568 478.83 249.044 479.292 249.688 479.292ZM248.806 488H250.556V480.524H248.806V488ZM255.908 480.44C254.704 480.44 253.542 480.748 252.744 481.364L253.43 482.638C253.99 482.176 254.858 481.896 255.698 481.896C256.944 481.896 257.56 482.498 257.56 483.52V483.632H255.628C253.36 483.632 252.52 484.612 252.52 485.858C252.52 487.16 253.598 488.098 255.306 488.098C256.426 488.098 257.238 487.734 257.658 487.09V488H259.31V483.618C259.31 481.462 258.064 480.44 255.908 480.44ZM255.67 486.824C254.774 486.824 254.242 486.418 254.242 485.788C254.242 485.242 254.564 484.794 255.754 484.794H257.56V485.662C257.266 486.432 256.524 486.824 255.67 486.824ZM261.756 488H263.506V477.612H261.756V488ZM64.4237 504.524V505.518C63.8077 504.776 62.8837 504.44 61.8337 504.44C59.6917 504.44 58.0537 505.868 58.0537 508.038C58.0537 510.208 59.6917 511.664 61.8337 511.664C62.8417 511.664 63.7237 511.342 64.3397 510.67V511.062C64.3397 512.574 63.6117 513.33 61.9597 513.33C60.9237 513.33 59.8597 512.98 59.2017 512.434L58.4177 513.75C59.2717 514.45 60.6577 514.814 62.0577 514.814C64.6757 514.814 66.0897 513.582 66.0897 510.866V504.524H64.4237ZM62.0997 510.18C60.7697 510.18 59.8177 509.312 59.8177 508.038C59.8177 506.778 60.7697 505.924 62.0997 505.924C63.4157 505.924 64.3677 506.778 64.3677 508.038C64.3677 509.312 63.4157 510.18 62.0997 510.18ZM71.9504 512.098C74.2744 512.098 75.9404 510.502 75.9404 508.262C75.9404 506.022 74.2744 504.44 71.9504 504.44C69.6544 504.44 67.9744 506.022 67.9744 508.262C67.9744 510.502 69.6544 512.098 71.9504 512.098ZM71.9504 510.6C70.6904 510.6 69.7384 509.69 69.7384 508.262C69.7384 506.834 70.6904 505.924 71.9504 505.924C73.2244 505.924 74.1764 506.834 74.1764 508.262C74.1764 509.69 73.2244 510.6 71.9504 510.6ZM80.5741 504.44C79.3701 504.44 78.2081 504.748 77.4101 505.364L78.0961 506.638C78.6561 506.176 79.5241 505.896 80.3641 505.896C81.6101 505.896 82.2261 506.498 82.2261 507.52V507.632H80.2941C78.0261 507.632 77.1861 508.612 77.1861 509.858C77.1861 511.16 78.2641 512.098 79.9721 512.098C81.0921 512.098 81.9041 511.734 82.3241 511.09V512H83.9761V507.618C83.9761 505.462 82.7301 504.44 80.5741 504.44ZM80.3361 510.824C79.4401 510.824 78.9081 510.418 78.9081 509.788C78.9081 509.242 79.2301 508.794 80.4201 508.794H82.2261V509.662C81.9321 510.432 81.1901 510.824 80.3361 510.824ZM86.422 512H88.172V501.612H86.422V512ZM97.776 502.928C98.14 502.928 98.476 503.054 98.742 503.236L99.232 501.92C98.84 501.64 98.252 501.514 97.65 501.514C95.914 501.514 94.976 502.536 94.976 504.104V504.58H93.744V505.98H94.976V512H96.726V505.98H98.728V504.58H96.67V504.132C96.67 503.334 97.048 502.928 97.776 502.928ZM103.357 512.098C105.681 512.098 107.347 510.502 107.347 508.262C107.347 506.022 105.681 504.44 103.357 504.44C101.061 504.44 99.3806 506.022 99.3806 508.262C99.3806 510.502 101.061 512.098 103.357 512.098ZM103.357 510.6C102.097 510.6 101.145 509.69 101.145 508.262C101.145 506.834 102.097 505.924 103.357 505.924C104.631 505.924 105.583 506.834 105.583 508.262C105.583 509.69 104.631 510.6 103.357 510.6ZM110.886 505.616V504.524H109.22V512H110.97V508.374C110.97 506.848 111.81 506.064 113.14 506.064C113.266 506.064 113.392 506.078 113.546 506.106V504.44C112.3 504.44 111.39 504.832 110.886 505.616ZM123.372 510.348C123.106 510.558 122.756 510.656 122.392 510.656C121.72 510.656 121.356 510.264 121.356 509.536V505.98H123.358V504.58H121.356V502.872H119.606V504.58H118.374V505.98H119.606V509.578C119.606 511.23 120.544 512.098 122.182 512.098C122.812 512.098 123.442 511.93 123.862 511.594L123.372 510.348ZM129.744 504.44C128.708 504.44 127.826 504.776 127.252 505.392V501.612H125.502V512H127.252V508.22C127.252 506.722 128.092 505.966 129.338 505.966C130.458 505.966 131.116 506.61 131.116 507.94V512H132.866V507.716C132.866 505.462 131.536 504.44 129.744 504.44ZM142.382 508.304C142.382 505.966 140.786 504.44 138.602 504.44C136.376 504.44 134.738 506.036 134.738 508.262C134.738 510.488 136.362 512.098 138.868 512.098C140.156 512.098 141.206 511.678 141.878 510.88L140.94 509.802C140.408 510.348 139.75 510.614 138.91 510.614C137.608 510.614 136.698 509.914 136.488 508.822H142.354C142.368 508.654 142.382 508.444 142.382 508.304ZM138.602 505.84C139.75 505.84 140.576 506.582 140.716 507.66H136.474C136.642 506.568 137.468 505.84 138.602 505.84ZM157.768 504.44C156.578 504.44 155.57 504.916 154.968 505.686C154.45 504.846 153.54 504.44 152.448 504.44C151.426 504.44 150.558 504.804 149.998 505.476V504.524H148.332V512H150.082V508.206C150.082 506.722 150.866 505.966 152.028 505.966C153.092 505.966 153.708 506.61 153.708 507.94V512H155.458V508.206C155.458 506.722 156.256 505.966 157.404 505.966C158.468 505.966 159.084 506.61 159.084 507.94V512H160.834V507.716C160.834 505.462 159.574 504.44 157.768 504.44ZM166.699 512.098C169.023 512.098 170.689 510.502 170.689 508.262C170.689 506.022 169.023 504.44 166.699 504.44C164.403 504.44 162.723 506.022 162.723 508.262C162.723 510.502 164.403 512.098 166.699 512.098ZM166.699 510.6C165.439 510.6 164.487 509.69 164.487 508.262C164.487 506.834 165.439 505.924 166.699 505.924C167.973 505.924 168.925 506.834 168.925 508.262C168.925 509.69 167.973 510.6 166.699 510.6ZM176.804 504.44C175.712 504.44 174.802 504.804 174.228 505.49V504.524H172.562V512H174.312V508.22C174.312 506.722 175.152 505.966 176.398 505.966C177.518 505.966 178.176 506.61 178.176 507.94V512H179.926V507.716C179.926 505.462 178.596 504.44 176.804 504.44ZM186.35 510.348C186.084 510.558 185.734 510.656 185.37 510.656C184.698 510.656 184.334 510.264 184.334 509.536V505.98H186.336V504.58H184.334V502.872H182.584V504.58H181.352V505.98H182.584V509.578C182.584 511.23 183.522 512.098 185.16 512.098C185.79 512.098 186.42 511.93 186.84 511.594L186.35 510.348ZM192.722 504.44C191.686 504.44 190.804 504.776 190.23 505.392V501.612H188.48V512H190.23V508.22C190.23 506.722 191.07 505.966 192.316 505.966C193.436 505.966 194.094 506.61 194.094 507.94V512H195.844V507.716C195.844 505.462 194.514 504.44 192.722 504.44ZM205.189 504.44C203.985 504.44 202.823 504.748 202.025 505.364L202.711 506.638C203.271 506.176 204.139 505.896 204.979 505.896C206.225 505.896 206.841 506.498 206.841 507.52V507.632H204.909C202.641 507.632 201.801 508.612 201.801 509.858C201.801 511.16 202.879 512.098 204.587 512.098C205.707 512.098 206.519 511.734 206.939 511.09V512H208.591V507.618C208.591 505.462 207.345 504.44 205.189 504.44ZM204.951 510.824C204.055 510.824 203.523 510.418 203.523 509.788C203.523 509.242 203.845 508.794 205.035 508.794H206.841V509.662C206.547 510.432 205.805 510.824 204.951 510.824ZM215.279 504.44C214.187 504.44 213.277 504.804 212.703 505.49V504.524H211.037V512H212.787V508.22C212.787 506.722 213.627 505.966 214.873 505.966C215.993 505.966 216.651 506.61 216.651 507.94V512H218.401V507.716C218.401 505.462 217.071 504.44 215.279 504.44ZM226.461 501.612V505.448C225.873 504.762 225.019 504.44 224.053 504.44C221.883 504.44 220.273 505.938 220.273 508.262C220.273 510.586 221.883 512.098 224.053 512.098C225.075 512.098 225.943 511.748 226.531 511.034V512H228.211V501.612H226.461ZM224.263 510.6C223.003 510.6 222.037 509.69 222.037 508.262C222.037 506.834 223.003 505.924 224.263 505.924C225.523 505.924 226.489 506.834 226.489 508.262C226.489 509.69 225.523 510.6 224.263 510.6ZM240.09 504.524L237.724 510.054L235.372 504.524H233.552L236.814 512.028L236.688 512.322C236.352 513.064 235.988 513.358 235.372 513.358C234.896 513.358 234.42 513.162 234.084 512.84L233.384 514.128C233.86 514.562 234.644 514.814 235.386 514.814C236.632 514.814 237.584 514.296 238.27 512.602L241.77 504.524H240.09ZM249.886 508.304C249.886 505.966 248.29 504.44 246.106 504.44C243.88 504.44 242.242 506.036 242.242 508.262C242.242 510.488 243.866 512.098 246.372 512.098C247.66 512.098 248.71 511.678 249.382 510.88L248.444 509.802C247.912 510.348 247.254 510.614 246.414 510.614C245.112 510.614 244.202 509.914 243.992 508.822H249.858C249.872 508.654 249.886 508.444 249.886 508.304ZM246.106 505.84C247.254 505.84 248.08 506.582 248.22 507.66H243.978C244.146 506.568 244.972 505.84 246.106 505.84ZM254.418 504.44C253.214 504.44 252.052 504.748 251.254 505.364L251.94 506.638C252.5 506.176 253.368 505.896 254.208 505.896C255.454 505.896 256.07 506.498 256.07 507.52V507.632H254.138C251.87 507.632 251.03 508.612 251.03 509.858C251.03 511.16 252.108 512.098 253.816 512.098C254.936 512.098 255.748 511.734 256.168 511.09V512H257.82V507.618C257.82 505.462 256.574 504.44 254.418 504.44ZM254.18 510.824C253.284 510.824 252.752 510.418 252.752 509.788C252.752 509.242 253.074 508.794 254.264 508.794H256.07V509.662C255.776 510.432 255.034 510.824 254.18 510.824ZM261.932 505.616V504.524H260.266V512H262.016V508.374C262.016 506.848 262.856 506.064 264.186 506.064C264.312 506.064 264.438 506.078 264.592 506.106V504.44C263.346 504.44 262.436 504.832 261.932 505.616ZM266.768 512.098C267.398 512.098 267.916 511.608 267.916 510.936C267.916 510.236 267.398 509.774 266.768 509.774C266.138 509.774 265.62 510.236 265.62 510.936C265.62 511.608 266.138 512.098 266.768 512.098Z" fill="#737373"/>
<rect x="40" y="554" width="246" height="58" rx="5" fill="#23A6F0"/>
<path d="M127.791 580.104V588H125.607V580.104H122.835V578.214H130.563V580.104H127.791ZM136.117 582.316C135.491 582.316 135.025 582.54 134.717 582.988C134.409 583.427 134.255 584.01 134.255 584.738V588H132.155V580.468H134.255V581.462C134.525 581.154 134.861 580.893 135.263 580.678C135.673 580.463 136.089 580.351 136.509 580.342L136.523 582.316H136.117ZM139.412 590.968C138.675 590.968 137.98 590.669 137.326 590.072L138.278 588.518C138.633 588.863 138.997 589.036 139.37 589.036C139.566 589.036 139.734 588.938 139.874 588.742C140.014 588.555 140.084 588.355 140.084 588.14C140.084 587.925 139.114 585.368 137.172 580.468H139.412L141.246 585.158L143.08 580.468H145.32L141.82 589.344C141.615 589.857 141.293 590.254 140.854 590.534C140.425 590.823 139.944 590.968 139.412 590.968ZM152.966 580.034V580.538H154.786V582.05H152.966V588H150.852V582.05H149.97V580.538H150.852V580.076C150.852 579.255 151.099 578.606 151.594 578.13C152.098 577.645 152.718 577.402 153.456 577.402C154.202 577.402 154.879 577.682 155.486 578.242L154.73 579.656C154.422 579.301 154.081 579.124 153.708 579.124C153.493 579.124 153.316 579.203 153.176 579.362C153.036 579.511 152.966 579.735 152.966 580.034ZM157.795 584.234C157.795 584.85 157.967 585.354 158.313 585.746C158.667 586.129 159.115 586.32 159.657 586.32C160.207 586.32 160.655 586.129 161.001 585.746C161.355 585.354 161.533 584.85 161.533 584.234C161.533 583.618 161.355 583.114 161.001 582.722C160.655 582.33 160.207 582.134 159.657 582.134C159.115 582.134 158.667 582.33 158.313 582.722C157.967 583.114 157.795 583.618 157.795 584.234ZM163.647 584.234C163.647 585.326 163.269 586.245 162.513 586.992C161.757 587.739 160.805 588.112 159.657 588.112C158.518 588.112 157.571 587.739 156.815 586.992C156.059 586.245 155.681 585.326 155.681 584.234C155.681 583.142 156.059 582.223 156.815 581.476C157.571 580.72 158.518 580.342 159.657 580.342C160.805 580.342 161.757 580.72 162.513 581.476C163.269 582.223 163.647 583.142 163.647 584.234ZM169.369 582.316C168.743 582.316 168.277 582.54 167.969 582.988C167.661 583.427 167.507 584.01 167.507 584.738V588H165.407V580.468H167.507V581.462C167.777 581.154 168.113 580.893 168.515 580.678C168.925 580.463 169.341 580.351 169.761 580.342L169.775 582.316H169.369ZM177.76 580.034V580.538H179.58V582.05H177.76V588H175.646V582.05H174.764V580.538H175.646V580.076C175.646 579.255 175.893 578.606 176.388 578.13C176.892 577.645 177.512 577.402 178.25 577.402C178.996 577.402 179.673 577.682 180.28 578.242L179.524 579.656C179.216 579.301 178.875 579.124 178.502 579.124C178.287 579.124 178.11 579.203 177.97 579.362C177.83 579.511 177.76 579.735 177.76 580.034ZM185.049 582.316C184.423 582.316 183.957 582.54 183.649 582.988C183.341 583.427 183.187 584.01 183.187 584.738V588H181.087V580.468H183.187V581.462C183.457 581.154 183.793 580.893 184.195 580.678C184.605 580.463 185.021 580.351 185.441 580.342L185.455 582.316H185.049ZM193.566 586.908C192.717 587.711 191.718 588.112 190.57 588.112C189.432 588.112 188.489 587.762 187.742 587.062C186.996 586.353 186.622 585.405 186.622 584.22C186.622 583.035 187 582.092 187.756 581.392C188.522 580.692 189.422 580.342 190.458 580.342C191.494 580.342 192.372 580.655 193.09 581.28C193.818 581.905 194.182 582.764 194.182 583.856V584.976H188.694C188.76 585.387 188.974 585.723 189.338 585.984C189.702 586.245 190.113 586.376 190.57 586.376C191.308 586.376 191.914 586.129 192.39 585.634L193.566 586.908ZM192.054 583.478C192.008 583.03 191.84 582.685 191.55 582.442C191.261 582.199 190.906 582.078 190.486 582.078C190.076 582.078 189.698 582.204 189.352 582.456C189.007 582.708 188.806 583.049 188.75 583.478H192.054ZM202.421 586.908C201.571 587.711 200.573 588.112 199.425 588.112C198.286 588.112 197.343 587.762 196.597 587.062C195.85 586.353 195.477 585.405 195.477 584.22C195.477 583.035 195.855 582.092 196.611 581.392C197.376 580.692 198.277 580.342 199.313 580.342C200.349 580.342 201.226 580.655 201.945 581.28C202.673 581.905 203.037 582.764 203.037 583.856V584.976H197.549C197.614 585.387 197.829 585.723 198.193 585.984C198.557 586.245 198.967 586.376 199.425 586.376C200.162 586.376 200.769 586.129 201.245 585.634L202.421 586.908ZM200.909 583.478C200.862 583.03 200.694 582.685 200.405 582.442C200.115 582.199 199.761 582.078 199.341 582.078C198.93 582.078 198.552 582.204 198.207 582.456C197.861 582.708 197.661 583.049 197.605 583.478H200.909Z" fill="white"/>
<defs>
<clipPath id="clip0_688_3819">
<rect width="48" height="39.5295" fill="white" transform="translate(138.5 78)"/>
</clipPath>
<clipPath id="clip1_688_3819">
<rect width="124" height="57" fill="white" transform="translate(101 331)"/>
</clipPath>
</defs>
</svg>
