<svg width="327" height="671" viewBox="0 0 327 671" fill="none" xmlns="http://www.w3.org/2000/svg">
<rect x="0.5" y="0.5" width="326" height="670" rx="9.5" fill="white"/>
<rect x="0.5" y="0.5" width="326" height="670" rx="9.5" stroke="#23A6F0"/>
<path d="M145.084 58.224V61.512H137.308V65.136H144.7V68.424H137.308V75H133.564V58.224H145.084ZM161.967 63.792C161.967 66.48 160.903 68.216 158.775 69L163.023 75H158.415L154.695 69.648H152.103V75H148.359V58.224H154.719C157.327 58.224 159.183 58.664 160.287 59.544C161.407 60.424 161.967 61.84 161.967 63.792ZM154.839 66.408C156.119 66.408 156.991 66.2 157.455 65.784C157.919 65.368 158.151 64.712 158.151 63.816C158.151 62.904 157.911 62.28 157.431 61.944C156.951 61.608 156.111 61.44 154.911 61.44H152.103V66.408H154.839ZM177.993 58.224V61.56H169.641V65.016H177.153V68.208H169.641V71.688H178.257V75H165.897V58.224H177.993ZM193.796 58.224V61.56H185.444V65.016H192.956V68.208H185.444V71.688H194.06V75H181.7V58.224H193.796Z" fill="#252B42"/>
<path d="M93.8376 129.352C93.8376 128.349 93.5176 127.496 92.8776 126.792C92.2376 126.088 91.4482 125.736 90.5096 125.736C89.5816 125.736 88.7976 126.088 88.1576 126.792C87.5176 127.496 87.1976 128.349 87.1976 129.352C87.1976 130.344 87.5176 131.192 88.1576 131.896C88.7976 132.589 89.5816 132.936 90.5096 132.936C91.4482 132.936 92.2376 132.589 92.8776 131.896C93.5176 131.192 93.8376 130.344 93.8376 129.352ZM94.6856 133.464C93.5549 134.563 92.1629 135.112 90.5096 135.112C88.8562 135.112 87.4642 134.563 86.3336 133.464C85.2029 132.355 84.6376 130.979 84.6376 129.336C84.6376 127.693 85.2029 126.323 86.3336 125.224C87.4642 124.115 88.8562 123.56 90.5096 123.56C92.1629 123.56 93.5549 124.115 94.6856 125.224C95.8162 126.323 96.3816 127.693 96.3816 129.336C96.3816 130.979 95.8162 132.355 94.6856 133.464ZM102.884 128.504C102.17 128.504 101.636 128.76 101.284 129.272C100.932 129.773 100.756 130.44 100.756 131.272V135H98.3563V126.392H100.756V127.528C101.066 127.176 101.45 126.877 101.908 126.632C102.378 126.387 102.852 126.259 103.332 126.248L103.348 128.504H102.884ZM111.066 130.52C111.066 129.827 110.874 129.283 110.49 128.888C110.106 128.493 109.632 128.296 109.066 128.296C108.501 128.296 108.01 128.493 107.594 128.888C107.189 129.283 106.986 129.821 106.986 130.504C106.986 131.187 107.184 131.741 107.578 132.168C107.984 132.584 108.474 132.792 109.05 132.792C109.626 132.792 110.106 132.584 110.49 132.168C110.874 131.752 111.066 131.203 111.066 130.52ZM111.402 133.544C110.645 134.387 109.701 134.808 108.57 134.808C107.45 134.808 106.501 134.429 105.722 133.672C104.954 132.904 104.57 131.885 104.57 130.616C104.57 129.336 104.965 128.291 105.754 127.48C106.554 126.659 107.466 126.248 108.49 126.248C109.514 126.248 110.362 126.669 111.034 127.512V126.376H113.434V133.88C113.434 134.648 113.301 135.331 113.034 135.928C112.768 136.525 112.41 136.995 111.962 137.336C111.077 138.04 110.032 138.392 108.826 138.392C108.186 138.392 107.53 138.285 106.858 138.072C106.197 137.869 105.616 137.576 105.114 137.192L106.042 135.384C106.832 135.981 107.664 136.28 108.538 136.28C109.424 136.28 110.122 136.061 110.634 135.624C111.146 135.187 111.402 134.493 111.402 133.544ZM123.118 135H120.862V133.96C120.244 134.739 119.476 135.128 118.558 135.128C117.652 135.128 116.889 134.867 116.27 134.344C115.652 133.811 115.342 133.107 115.342 132.232C115.342 131.347 115.662 130.685 116.302 130.248C116.942 129.811 117.817 129.592 118.926 129.592H120.718V129.544C120.718 128.627 120.233 128.168 119.262 128.168C118.846 128.168 118.404 128.253 117.934 128.424C117.476 128.584 117.086 128.787 116.766 129.032L115.694 127.48C116.825 126.659 118.116 126.248 119.566 126.248C120.612 126.248 121.465 126.509 122.126 127.032C122.788 127.555 123.118 128.381 123.118 129.512V135ZM120.702 131.72V131.304H119.198C118.238 131.304 117.758 131.603 117.758 132.2C117.758 132.509 117.87 132.749 118.094 132.92C118.329 133.08 118.66 133.16 119.086 133.16C119.513 133.16 119.886 133.032 120.206 132.776C120.537 132.509 120.702 132.157 120.702 131.72ZM127.806 130.2V135H125.406V126.392H127.806V127.352C128.532 126.616 129.348 126.248 130.254 126.248C131.161 126.248 131.918 126.568 132.526 127.208C133.145 127.848 133.454 128.701 133.454 129.768V135H131.054V130.136C131.054 128.813 130.569 128.152 129.598 128.152C129.118 128.152 128.697 128.328 128.334 128.68C127.982 129.021 127.806 129.528 127.806 130.2ZM138.125 135H135.725V126.392H138.125V135ZM135.917 125.304C135.65 125.027 135.517 124.691 135.517 124.296C135.517 123.901 135.65 123.571 135.917 123.304C136.194 123.027 136.53 122.888 136.925 122.888C137.32 122.888 137.65 123.027 137.917 123.304C138.194 123.571 138.333 123.901 138.333 124.296C138.333 124.691 138.194 125.027 137.917 125.304C137.65 125.571 137.32 125.704 136.925 125.704C136.53 125.704 136.194 125.571 135.917 125.304ZM140.337 128.376V126.392H147.281V128.264L143.105 133H147.521V135H140.033V133.016L144.097 128.376H140.337ZM156.897 133.752C155.926 134.669 154.785 135.128 153.473 135.128C152.171 135.128 151.094 134.728 150.241 133.928C149.387 133.117 148.961 132.035 148.961 130.68C148.961 129.325 149.393 128.248 150.257 127.448C151.131 126.648 152.161 126.248 153.345 126.248C154.529 126.248 155.531 126.605 156.353 127.32C157.185 128.035 157.601 129.016 157.601 130.264V131.544H151.329C151.403 132.013 151.649 132.397 152.065 132.696C152.481 132.995 152.95 133.144 153.473 133.144C154.315 133.144 155.009 132.861 155.553 132.296L156.897 133.752ZM155.169 129.832C155.115 129.32 154.923 128.925 154.593 128.648C154.262 128.371 153.857 128.232 153.377 128.232C152.907 128.232 152.475 128.376 152.081 128.664C151.686 128.952 151.457 129.341 151.393 129.832H155.169ZM171.062 135H168.806V133.96C168.187 134.739 167.419 135.128 166.502 135.128C165.595 135.128 164.833 134.867 164.214 134.344C163.595 133.811 163.286 133.107 163.286 132.232C163.286 131.347 163.606 130.685 164.246 130.248C164.886 129.811 165.761 129.592 166.87 129.592H168.662V129.544C168.662 128.627 168.177 128.168 167.206 128.168C166.79 128.168 166.347 128.253 165.878 128.424C165.419 128.584 165.03 128.787 164.71 129.032L163.638 127.48C164.769 126.659 166.059 126.248 167.51 126.248C168.555 126.248 169.409 126.509 170.07 127.032C170.731 127.555 171.062 128.381 171.062 129.512V135ZM168.646 131.72V131.304H167.142C166.182 131.304 165.702 131.603 165.702 132.2C165.702 132.509 165.814 132.749 166.038 132.92C166.273 133.08 166.603 133.16 167.03 133.16C167.457 133.16 167.83 133.032 168.15 132.776C168.481 132.509 168.646 132.157 168.646 131.72ZM177.478 133C178.278 133 178.998 132.6 179.638 131.8L181.062 133.4C179.953 134.552 178.753 135.128 177.462 135.128C176.171 135.128 175.078 134.723 174.182 133.912C173.297 133.091 172.854 132.024 172.854 130.712C172.854 129.389 173.302 128.317 174.198 127.496C175.105 126.664 176.177 126.248 177.414 126.248C178.033 126.248 178.657 126.376 179.286 126.632C179.926 126.888 180.486 127.267 180.966 127.768L179.718 129.4C179.441 129.069 179.099 128.813 178.694 128.632C178.299 128.451 177.905 128.36 177.51 128.36C176.881 128.36 176.337 128.568 175.878 128.984C175.43 129.389 175.206 129.96 175.206 130.696C175.206 131.421 175.43 131.987 175.878 132.392C176.337 132.797 176.87 133 177.478 133ZM187.291 128.504C186.576 128.504 186.043 128.76 185.691 129.272C185.339 129.773 185.163 130.44 185.163 131.272V135H182.763V126.392H185.163V127.528C185.472 127.176 185.856 126.877 186.315 126.632C186.784 126.387 187.259 126.259 187.739 126.248L187.755 128.504H187.291ZM191.236 130.696C191.236 131.4 191.433 131.976 191.828 132.424C192.233 132.861 192.745 133.08 193.364 133.08C193.993 133.08 194.505 132.861 194.9 132.424C195.305 131.976 195.508 131.4 195.508 130.696C195.508 129.992 195.305 129.416 194.9 128.968C194.505 128.52 193.993 128.296 193.364 128.296C192.745 128.296 192.233 128.52 191.828 128.968C191.433 129.416 191.236 129.992 191.236 130.696ZM197.924 130.696C197.924 131.944 197.492 132.995 196.628 133.848C195.764 134.701 194.676 135.128 193.364 135.128C192.062 135.128 190.98 134.701 190.116 133.848C189.252 132.995 188.82 131.944 188.82 130.696C188.82 129.448 189.252 128.397 190.116 127.544C190.98 126.68 192.062 126.248 193.364 126.248C194.676 126.248 195.764 126.68 196.628 127.544C197.492 128.397 197.924 129.448 197.924 130.696ZM206.208 132.328C206.208 133.171 205.894 133.848 205.264 134.36C204.646 134.872 203.856 135.128 202.896 135.128C202.256 135.128 201.59 135.016 200.896 134.792C200.203 134.557 199.579 134.216 199.024 133.768L200.08 132.264C200.976 132.957 201.931 133.304 202.944 133.304C203.254 133.304 203.499 133.245 203.68 133.128C203.862 133 203.952 132.835 203.952 132.632C203.952 132.429 203.824 132.243 203.568 132.072C203.323 131.901 202.96 131.741 202.48 131.592C202.011 131.443 201.648 131.315 201.392 131.208C201.147 131.101 200.864 130.947 200.544 130.744C199.894 130.339 199.568 129.741 199.568 128.952C199.568 128.152 199.888 127.501 200.528 127C201.168 126.499 201.995 126.248 203.008 126.248C204.022 126.248 205.035 126.589 206.048 127.272L205.152 128.872C204.406 128.36 203.659 128.104 202.912 128.104C202.176 128.104 201.808 128.307 201.808 128.712C201.808 128.936 201.926 129.112 202.16 129.24C202.395 129.368 202.784 129.517 203.328 129.688C203.872 129.859 204.256 129.992 204.48 130.088C204.715 130.173 204.992 130.312 205.312 130.504C205.91 130.867 206.208 131.475 206.208 132.328ZM214.621 132.328C214.621 133.171 214.306 133.848 213.677 134.36C213.058 134.872 212.269 135.128 211.309 135.128C210.669 135.128 210.002 135.016 209.309 134.792C208.615 134.557 207.991 134.216 207.437 133.768L208.493 132.264C209.389 132.957 210.343 133.304 211.357 133.304C211.666 133.304 211.911 133.245 212.093 133.128C212.274 133 212.365 132.835 212.365 132.632C212.365 132.429 212.237 132.243 211.981 132.072C211.735 131.901 211.373 131.741 210.893 131.592C210.423 131.443 210.061 131.315 209.805 131.208C209.559 131.101 209.277 130.947 208.957 130.744C208.306 130.339 207.981 129.741 207.981 128.952C207.981 128.152 208.301 127.501 208.941 127C209.581 126.499 210.407 126.248 211.421 126.248C212.434 126.248 213.447 126.589 214.461 127.272L213.565 128.872C212.818 128.36 212.071 128.104 211.325 128.104C210.589 128.104 210.221 128.307 210.221 128.712C210.221 128.936 210.338 129.112 210.573 129.24C210.807 129.368 211.197 129.517 211.741 129.688C212.285 129.859 212.669 129.992 212.893 130.088C213.127 130.173 213.405 130.312 213.725 130.504C214.322 130.867 214.621 131.475 214.621 132.328ZM228.184 135H225.928V133.96C225.309 134.739 224.541 135.128 223.624 135.128C222.717 135.128 221.955 134.867 221.336 134.344C220.717 133.811 220.408 133.107 220.408 132.232C220.408 131.347 220.728 130.685 221.368 130.248C222.008 129.811 222.883 129.592 223.992 129.592H225.784V129.544C225.784 128.627 225.299 128.168 224.328 128.168C223.912 128.168 223.469 128.253 223 128.424C222.541 128.584 222.152 128.787 221.832 129.032L220.76 127.48C221.891 126.659 223.181 126.248 224.632 126.248C225.677 126.248 226.531 126.509 227.192 127.032C227.853 127.555 228.184 128.381 228.184 129.512V135ZM225.768 131.72V131.304H224.264C223.304 131.304 222.824 131.603 222.824 132.2C222.824 132.509 222.936 132.749 223.16 132.92C223.395 133.08 223.725 133.16 224.152 133.16C224.579 133.16 224.952 133.032 225.272 132.776C225.603 132.509 225.768 132.157 225.768 131.72ZM232.872 135H230.472V123.128H232.872V135ZM237.644 135H235.244V123.128H237.644V135ZM117.398 159H115.142V157.96C114.523 158.739 113.755 159.128 112.838 159.128C111.931 159.128 111.169 158.867 110.55 158.344C109.931 157.811 109.622 157.107 109.622 156.232C109.622 155.347 109.942 154.685 110.582 154.248C111.222 153.811 112.097 153.592 113.206 153.592H114.998V153.544C114.998 152.627 114.513 152.168 113.542 152.168C113.126 152.168 112.683 152.253 112.214 152.424C111.755 152.584 111.366 152.787 111.046 153.032L109.974 151.48C111.105 150.659 112.395 150.248 113.846 150.248C114.891 150.248 115.745 150.509 116.406 151.032C117.067 151.555 117.398 152.381 117.398 153.512V159ZM114.982 155.72V155.304H113.478C112.518 155.304 112.038 155.603 112.038 156.2C112.038 156.509 112.15 156.749 112.374 156.92C112.609 157.08 112.939 157.16 113.366 157.16C113.793 157.16 114.166 157.032 114.486 156.776C114.817 156.509 114.982 156.157 114.982 155.72ZM124.694 150.248C125.697 150.248 126.587 150.669 127.366 151.512C128.155 152.344 128.55 153.395 128.55 154.664C128.55 155.933 128.155 156.995 127.366 157.848C126.587 158.701 125.67 159.128 124.614 159.128C123.569 159.128 122.726 158.707 122.086 157.864V162.104H119.686V150.392H122.086V151.352C122.822 150.616 123.691 150.248 124.694 150.248ZM122.054 154.712C122.054 155.405 122.246 155.976 122.63 156.424C123.025 156.861 123.499 157.08 124.054 157.08C124.609 157.08 125.094 156.861 125.51 156.424C125.926 155.976 126.134 155.405 126.134 154.712C126.134 154.019 125.931 153.437 125.526 152.968C125.121 152.499 124.635 152.264 124.07 152.264C123.505 152.264 123.025 152.499 122.63 152.968C122.246 153.427 122.054 154.008 122.054 154.712ZM135.45 150.248C136.453 150.248 137.344 150.669 138.122 151.512C138.912 152.344 139.306 153.395 139.306 154.664C139.306 155.933 138.912 156.995 138.122 157.848C137.344 158.701 136.426 159.128 135.37 159.128C134.325 159.128 133.482 158.707 132.842 157.864V162.104H130.442V150.392H132.842V151.352C133.578 150.616 134.448 150.248 135.45 150.248ZM132.81 154.712C132.81 155.405 133.002 155.976 133.386 156.424C133.781 156.861 134.256 157.08 134.81 157.08C135.365 157.08 135.85 156.861 136.266 156.424C136.682 155.976 136.89 155.405 136.89 154.712C136.89 154.019 136.688 153.437 136.282 152.968C135.877 152.499 135.392 152.264 134.826 152.264C134.261 152.264 133.781 152.499 133.386 152.968C133.002 153.427 132.81 154.008 132.81 154.712ZM147.6 156.328C147.6 157.171 147.286 157.848 146.656 158.36C146.038 158.872 145.248 159.128 144.288 159.128C143.648 159.128 142.982 159.016 142.288 158.792C141.595 158.557 140.971 158.216 140.416 157.768L141.472 156.264C142.368 156.957 143.323 157.304 144.336 157.304C144.646 157.304 144.891 157.245 145.072 157.128C145.254 157 145.344 156.835 145.344 156.632C145.344 156.429 145.216 156.243 144.96 156.072C144.715 155.901 144.352 155.741 143.872 155.592C143.403 155.443 143.04 155.315 142.784 155.208C142.539 155.101 142.256 154.947 141.936 154.744C141.286 154.339 140.96 153.741 140.96 152.952C140.96 152.152 141.28 151.501 141.92 151C142.56 150.499 143.387 150.248 144.4 150.248C145.414 150.248 146.427 150.589 147.44 151.272L146.544 152.872C145.798 152.36 145.051 152.104 144.304 152.104C143.568 152.104 143.2 152.307 143.2 152.712C143.2 152.936 143.318 153.112 143.552 153.24C143.787 153.368 144.176 153.517 144.72 153.688C145.264 153.859 145.648 153.992 145.872 154.088C146.107 154.173 146.384 154.312 146.704 154.504C147.302 154.867 147.6 155.475 147.6 156.328ZM158.812 150.248C159.857 150.248 160.769 150.659 161.548 151.48C162.326 152.291 162.716 153.336 162.716 154.616C162.716 155.896 162.316 156.968 161.516 157.832C160.716 158.696 159.804 159.128 158.78 159.128C157.766 159.128 156.924 158.707 156.252 157.864V159H153.852V147.128H156.252V151.352C156.913 150.616 157.766 150.248 158.812 150.248ZM156.22 154.712C156.22 155.405 156.412 155.976 156.796 156.424C157.19 156.861 157.665 157.08 158.22 157.08C158.774 157.08 159.26 156.861 159.676 156.424C160.092 155.976 160.3 155.405 160.3 154.712C160.3 154.019 160.097 153.437 159.692 152.968C159.286 152.499 158.801 152.264 158.236 152.264C157.67 152.264 157.19 152.499 156.796 152.968C156.412 153.427 156.22 154.008 156.22 154.712ZM165.924 162.392C165.081 162.392 164.287 162.051 163.54 161.368L164.628 159.592C165.033 159.987 165.449 160.184 165.876 160.184C166.1 160.184 166.292 160.072 166.452 159.848C166.612 159.635 166.692 159.405 166.692 159.16C166.692 158.915 165.583 155.992 163.364 150.392H165.924L168.02 155.752L170.116 150.392H172.676L168.676 160.536C168.441 161.123 168.073 161.576 167.572 161.896C167.081 162.227 166.532 162.392 165.924 162.392ZM180.692 154.36V159H178.292V147.128H180.692V151.352C181.418 150.616 182.228 150.248 183.124 150.248C184.031 150.248 184.794 150.568 185.412 151.208C186.031 151.848 186.34 152.701 186.34 153.768V159H183.94V154.296C183.94 152.973 183.455 152.312 182.484 152.312C182.004 152.312 181.583 152.488 181.22 152.84C180.868 153.181 180.692 153.688 180.692 154.36ZM195.923 159H193.667V157.96C193.048 158.739 192.28 159.128 191.363 159.128C190.456 159.128 189.694 158.867 189.075 158.344C188.456 157.811 188.147 157.107 188.147 156.232C188.147 155.347 188.467 154.685 189.107 154.248C189.747 153.811 190.622 153.592 191.731 153.592H193.523V153.544C193.523 152.627 193.038 152.168 192.067 152.168C191.651 152.168 191.208 152.253 190.739 152.424C190.28 152.584 189.891 152.787 189.571 153.032L188.499 151.48C189.63 150.659 190.92 150.248 192.371 150.248C193.416 150.248 194.27 150.509 194.931 151.032C195.592 151.555 195.923 152.381 195.923 153.512V159ZM193.507 155.72V155.304H192.003C191.043 155.304 190.563 155.603 190.563 156.2C190.563 156.509 190.675 156.749 190.899 156.92C191.134 157.08 191.464 157.16 191.891 157.16C192.318 157.16 192.691 157.032 193.011 156.776C193.342 156.509 193.507 156.157 193.507 155.72ZM200.611 154.2V159H198.211V150.392H200.611V151.352C201.336 150.616 202.152 150.248 203.059 150.248C203.966 150.248 204.723 150.568 205.331 151.208C205.95 151.848 206.259 152.701 206.259 153.768V159H203.859V154.136C203.859 152.813 203.374 152.152 202.403 152.152C201.923 152.152 201.502 152.328 201.139 152.68C200.787 153.021 200.611 153.528 200.611 154.2ZM211.97 159.128C210.956 159.128 210.05 158.696 209.25 157.832C208.45 156.968 208.05 155.896 208.05 154.616C208.05 153.336 208.439 152.291 209.218 151.48C209.996 150.659 210.908 150.248 211.954 150.248C212.999 150.248 213.852 150.616 214.514 151.352V147.128H216.914V159H214.514V157.864C213.842 158.707 212.994 159.128 211.97 159.128ZM210.466 154.712C210.466 155.405 210.674 155.976 211.09 156.424C211.506 156.861 211.991 157.08 212.546 157.08C213.1 157.08 213.57 156.861 213.954 156.424C214.348 155.976 214.546 155.405 214.546 154.712C214.546 154.008 214.348 153.427 213.954 152.968C213.57 152.499 213.095 152.264 212.53 152.264C211.964 152.264 211.479 152.499 211.074 152.968C210.668 153.437 210.466 154.019 210.466 154.712Z" fill="#737373"/>
<g clip-path="url(#clip0_688_3783)">
<path d="M111.18 222.12C110.3 223.827 109.86 226.08 109.86 228.88C109.86 231.68 110.3 233.933 111.18 235.64C112.06 237.347 113.433 238.2 115.3 238.2C117.167 238.2 118.54 237.347 119.42 235.64C120.3 233.933 120.74 231.68 120.74 228.88C120.74 226.08 120.3 223.827 119.42 222.12C118.54 220.413 117.167 219.56 115.3 219.56C113.433 219.56 112.06 220.413 111.18 222.12ZM115.3 243.32C111.433 243.32 108.54 242.013 106.62 239.4C104.7 236.76 103.74 233.253 103.74 228.88C103.74 224.48 104.7 220.973 106.62 218.36C108.54 215.72 111.433 214.4 115.3 214.4C119.167 214.4 122.06 215.72 123.98 218.36C125.9 220.973 126.86 224.48 126.86 228.88C126.86 233.253 125.9 236.76 123.98 239.4C122.06 242.013 119.167 243.32 115.3 243.32Z" fill="#23A6F0"/>
<path d="M145.98 227.156V225.404C143.948 225.084 142.076 224.164 140.364 222.644L142.596 219.932C143.844 221.02 144.972 221.716 145.98 222.02V218.444C144.3 218.012 143.068 217.436 142.284 216.716C141.5 215.98 141.108 214.932 141.108 213.572C141.108 212.196 141.556 211.068 142.452 210.188C143.348 209.292 144.524 208.756 145.98 208.58V207.404H148.524V208.628C150.124 208.852 151.716 209.516 153.3 210.62L151.332 213.452C150.324 212.732 149.388 212.252 148.524 212.012V215.468C150.252 215.916 151.524 216.516 152.34 217.268C153.172 218.02 153.588 219.084 153.588 220.46C153.588 221.836 153.124 222.972 152.196 223.868C151.284 224.764 150.06 225.3 148.524 225.476V227.156H145.98ZM149.748 220.652C149.748 220.316 149.66 220.036 149.484 219.812C149.308 219.588 148.988 219.38 148.524 219.188V222.14C149.34 221.884 149.748 221.388 149.748 220.652ZM145.98 211.916C145.292 212.156 144.948 212.596 144.948 213.236C144.948 213.876 145.292 214.364 145.98 214.7V211.916Z" fill="#23A6F0"/>
<path d="M144.828 239.316C146.545 239.316 147.793 239.652 148.572 240.324C149.361 240.985 149.756 242.009 149.756 243.396C149.756 244.772 149.351 245.78 148.54 246.42C147.74 247.06 146.513 247.38 144.86 247.38H143.372V250.5H140.876V239.316H144.828ZM145.052 245.22C145.884 245.22 146.449 245.055 146.748 244.724C147.047 244.383 147.196 243.892 147.196 243.252C147.196 242.601 146.999 242.143 146.604 241.876C146.22 241.599 145.617 241.46 144.796 241.46H143.372V245.22H145.052ZM159.02 249.252C158.049 250.169 156.908 250.628 155.596 250.628C154.295 250.628 153.217 250.228 152.364 249.428C151.511 248.617 151.084 247.535 151.084 246.18C151.084 244.825 151.516 243.748 152.38 242.948C153.255 242.148 154.284 241.748 155.468 241.748C156.652 241.748 157.655 242.105 158.476 242.82C159.308 243.535 159.724 244.516 159.724 245.764V247.044H153.452C153.527 247.513 153.772 247.897 154.188 248.196C154.604 248.495 155.073 248.644 155.596 248.644C156.439 248.644 157.132 248.361 157.676 247.796L159.02 249.252ZM157.292 245.332C157.239 244.82 157.047 244.425 156.716 244.148C156.385 243.871 155.98 243.732 155.5 243.732C155.031 243.732 154.599 243.876 154.204 244.164C153.809 244.452 153.58 244.841 153.516 245.332H157.292ZM166.083 244.004C165.368 244.004 164.835 244.26 164.483 244.772C164.131 245.273 163.955 245.94 163.955 246.772V250.5H161.555V241.892H163.955V243.028C164.264 242.676 164.648 242.377 165.107 242.132C165.576 241.887 166.051 241.759 166.531 241.748L166.547 244.004H166.083ZM182.808 243.46L179.784 249.572H178.296L175.288 243.46V250.5H172.792V239.316H176.168L179.048 245.46L181.944 239.316H185.304V250.5H182.808V243.46ZM189.837 246.196C189.837 246.9 190.035 247.476 190.429 247.924C190.835 248.361 191.347 248.58 191.965 248.58C192.595 248.58 193.107 248.361 193.501 247.924C193.907 247.476 194.109 246.9 194.109 246.196C194.109 245.492 193.907 244.916 193.501 244.468C193.107 244.02 192.595 243.796 191.965 243.796C191.347 243.796 190.835 244.02 190.429 244.468C190.035 244.916 189.837 245.492 189.837 246.196ZM196.525 246.196C196.525 247.444 196.093 248.495 195.229 249.348C194.365 250.201 193.277 250.628 191.965 250.628C190.664 250.628 189.581 250.201 188.717 249.348C187.853 248.495 187.421 247.444 187.421 246.196C187.421 244.948 187.853 243.897 188.717 243.044C189.581 242.18 190.664 241.748 191.965 241.748C193.277 241.748 194.365 242.18 195.229 243.044C196.093 243.897 196.525 244.948 196.525 246.196ZM200.808 245.7V250.5H198.408V241.892H200.808V242.852C201.533 242.116 202.349 241.748 203.256 241.748C204.163 241.748 204.92 242.068 205.528 242.708C206.147 243.348 206.456 244.201 206.456 245.268V250.5H204.056V245.636C204.056 244.313 203.571 243.652 202.6 243.652C202.12 243.652 201.699 243.828 201.336 244.18C200.984 244.521 200.808 245.028 200.808 245.7ZM211.466 243.62V247.476C211.466 247.807 211.551 248.068 211.722 248.26C211.892 248.441 212.095 248.532 212.33 248.532C212.778 248.532 213.156 248.329 213.466 247.924L214.362 249.604C213.615 250.287 212.826 250.628 211.994 250.628C211.172 250.628 210.474 250.356 209.898 249.812C209.332 249.268 209.05 248.527 209.05 247.588V243.62H208.042V241.892H209.05V239.316H211.466V241.892H213.546V243.62H211.466ZM218.149 245.86V250.5H215.749V238.628H218.149V242.852C218.874 242.116 219.685 241.748 220.581 241.748C221.487 241.748 222.25 242.068 222.869 242.708C223.487 243.348 223.797 244.201 223.797 245.268V250.5H221.397V245.796C221.397 244.473 220.911 243.812 219.941 243.812C219.461 243.812 219.039 243.988 218.677 244.34C218.325 244.681 218.149 245.188 218.149 245.86Z" fill="#8EC2F2"/>
</g>
<g clip-path="url(#clip1_688_3783)">
<g clip-path="url(#clip2_688_3783)">
<rect x="40" y="292" width="32" height="32" rx="16" fill="#2DC071"/>
<g clip-path="url(#clip3_688_3783)">
<path fill-rule="evenodd" clip-rule="evenodd" d="M64.2957 302.204C64.3604 302.269 64.4118 302.346 64.4469 302.43C64.4819 302.515 64.5 302.605 64.5 302.697C64.5 302.788 64.4819 302.879 64.4469 302.963C64.4118 303.048 64.3604 303.125 64.2957 303.189L54.5578 312.927C54.4932 312.992 54.4164 313.043 54.3319 313.078C54.2474 313.113 54.1568 313.131 54.0654 313.131C53.9739 313.131 53.8833 313.113 53.7988 313.078C53.7143 313.043 53.6375 312.992 53.5729 312.927L48.704 308.058C48.5734 307.928 48.5 307.75 48.5 307.566C48.5 307.381 48.5734 307.204 48.704 307.073C48.8346 306.943 49.0117 306.869 49.1964 306.869C49.3811 306.869 49.5583 306.943 49.6889 307.073L54.0654 311.451L63.3107 302.204C63.3754 302.14 63.4521 302.088 63.5366 302.053C63.6211 302.018 63.7117 302 63.8032 302C63.8947 302 63.9853 302.018 64.0698 302.053C64.1543 302.088 64.231 302.14 64.2957 302.204Z" fill="white"/>
</g>
<path d="M87.53 310.515C90.204 310.515 91.814 308.961 91.814 306.105V300.575H90.022V306.035C90.022 308.051 89.126 308.919 87.544 308.919C85.962 308.919 85.052 308.051 85.052 306.035V300.575H83.232V306.105C83.232 308.961 84.842 310.515 87.53 310.515ZM98.6369 302.815C97.5449 302.815 96.6349 303.179 96.0609 303.865V302.899H94.3949V310.375H96.1449V306.595C96.1449 305.097 96.9849 304.341 98.2309 304.341C99.3509 304.341 100.009 304.985 100.009 306.315V310.375H101.759V306.091C101.759 303.837 100.429 302.815 98.6369 302.815ZM104.179 310.375H105.929V299.987H104.179V310.375ZM109.308 301.667C109.966 301.667 110.428 301.191 110.428 300.575C110.428 300.001 109.952 299.567 109.308 299.567C108.664 299.567 108.188 300.029 108.188 300.617C108.188 301.205 108.664 301.667 109.308 301.667ZM108.426 310.375H110.176V302.899H108.426V310.375ZM122.109 302.815C120.919 302.815 119.911 303.291 119.309 304.061C118.791 303.221 117.881 302.815 116.789 302.815C115.767 302.815 114.899 303.179 114.339 303.851V302.899H112.673V310.375H114.423V306.581C114.423 305.097 115.207 304.341 116.369 304.341C117.433 304.341 118.049 304.985 118.049 306.315V310.375H119.799V306.581C119.799 305.097 120.597 304.341 121.745 304.341C122.809 304.341 123.425 304.985 123.425 306.315V310.375H125.175V306.091C125.175 303.837 123.915 302.815 122.109 302.815ZM128.493 301.667C129.151 301.667 129.613 301.191 129.613 300.575C129.613 300.001 129.137 299.567 128.493 299.567C127.849 299.567 127.373 300.029 127.373 300.617C127.373 301.205 127.849 301.667 128.493 301.667ZM127.611 310.375H129.361V302.899H127.611V310.375ZM135.862 308.723C135.596 308.933 135.246 309.031 134.882 309.031C134.21 309.031 133.846 308.639 133.846 307.911V304.355H135.848V302.955H133.846V301.247H132.096V302.955H130.864V304.355H132.096V307.953C132.096 309.605 133.034 310.473 134.672 310.473C135.302 310.473 135.932 310.305 136.352 309.969L135.862 308.723ZM144.773 306.679C144.773 304.341 143.177 302.815 140.993 302.815C138.767 302.815 137.129 304.411 137.129 306.637C137.129 308.863 138.753 310.473 141.259 310.473C142.547 310.473 143.597 310.053 144.269 309.255L143.331 308.177C142.799 308.723 142.141 308.989 141.301 308.989C139.999 308.989 139.089 308.289 138.879 307.197H144.745C144.759 307.029 144.773 306.819 144.773 306.679ZM140.993 304.215C142.141 304.215 142.967 304.957 143.107 306.035H138.865C139.033 304.943 139.859 304.215 140.993 304.215ZM152.226 299.987V303.823C151.638 303.137 150.784 302.815 149.818 302.815C147.648 302.815 146.038 304.313 146.038 306.637C146.038 308.961 147.648 310.473 149.818 310.473C150.84 310.473 151.708 310.123 152.296 309.409V310.375H153.976V299.987H152.226ZM150.028 308.975C148.768 308.975 147.802 308.065 147.802 306.637C147.802 305.209 148.768 304.299 150.028 304.299C151.288 304.299 152.254 305.209 152.254 306.637C152.254 308.065 151.288 308.975 150.028 308.975ZM164.679 302.815C163.657 302.815 162.789 303.165 162.201 303.879V302.899H160.535V313.091H162.285V309.465C162.887 310.151 163.727 310.473 164.679 310.473C166.863 310.473 168.473 308.961 168.473 306.637C168.473 304.327 166.863 302.815 164.679 302.815ZM164.483 308.975C163.223 308.975 162.257 308.065 162.257 306.637C162.257 305.209 163.223 304.299 164.483 304.299C165.743 304.299 166.695 305.209 166.695 306.637C166.695 308.065 165.743 308.975 164.483 308.975ZM171.998 303.991V302.899H170.332V310.375H172.082V306.749C172.082 305.223 172.922 304.439 174.252 304.439C174.378 304.439 174.504 304.453 174.658 304.481V302.815C173.412 302.815 172.502 303.207 171.998 303.991ZM179.635 310.473C181.959 310.473 183.625 308.877 183.625 306.637C183.625 304.397 181.959 302.815 179.635 302.815C177.339 302.815 175.659 304.397 175.659 306.637C175.659 308.877 177.339 310.473 179.635 310.473ZM179.635 308.975C178.375 308.975 177.423 308.065 177.423 306.637C177.423 305.209 178.375 304.299 179.635 304.299C180.909 304.299 181.861 305.209 181.861 306.637C181.861 308.065 180.909 308.975 179.635 308.975ZM191.07 299.987V303.823C190.482 303.137 189.628 302.815 188.662 302.815C186.492 302.815 184.882 304.313 184.882 306.637C184.882 308.961 186.492 310.473 188.662 310.473C189.684 310.473 190.552 310.123 191.14 309.409V310.375H192.82V299.987H191.07ZM188.872 308.975C187.612 308.975 186.646 308.065 186.646 306.637C186.646 305.209 187.612 304.299 188.872 304.299C190.132 304.299 191.098 305.209 191.098 306.637C191.098 308.065 190.132 308.975 188.872 308.975ZM200.797 302.899V306.679C200.797 308.177 199.971 308.933 198.753 308.933C197.647 308.933 197.003 308.289 197.003 306.931V302.899H195.253V307.169C195.253 309.423 196.555 310.473 198.473 310.473C199.439 310.473 200.321 310.109 200.881 309.423V310.375H202.547V302.899H200.797ZM208.469 310.473C209.925 310.473 211.087 309.843 211.661 308.723L210.317 307.939C209.869 308.653 209.197 308.975 208.455 308.975C207.167 308.975 206.187 308.093 206.187 306.637C206.187 305.195 207.167 304.299 208.455 304.299C209.197 304.299 209.869 304.621 210.317 305.335L211.661 304.551C211.087 303.417 209.925 302.815 208.469 302.815C206.103 302.815 204.423 304.397 204.423 306.637C204.423 308.877 206.103 310.473 208.469 310.473ZM217.473 308.723C217.207 308.933 216.857 309.031 216.493 309.031C215.821 309.031 215.457 308.639 215.457 307.911V304.355H217.459V302.955H215.457V301.247H213.707V302.955H212.475V304.355H213.707V307.953C213.707 309.605 214.645 310.473 216.283 310.473C216.913 310.473 217.543 310.305 217.963 309.969L217.473 308.723ZM229.16 302.899V306.679C229.16 308.177 228.334 308.933 227.116 308.933C226.01 308.933 225.366 308.289 225.366 306.931V302.899H223.616V307.169C223.616 309.423 224.918 310.473 226.836 310.473C227.802 310.473 228.684 310.109 229.244 309.423V310.375H230.91V302.899H229.16ZM237.545 302.815C236.523 302.815 235.655 303.165 235.067 303.879V302.899H233.401V313.091H235.151V309.465C235.753 310.151 236.593 310.473 237.545 310.473C239.729 310.473 241.339 308.961 241.339 306.637C241.339 304.327 239.729 302.815 237.545 302.815ZM237.349 308.975C236.089 308.975 235.123 308.065 235.123 306.637C235.123 305.209 236.089 304.299 237.349 304.299C238.609 304.299 239.561 305.209 239.561 306.637C239.561 308.065 238.609 308.975 237.349 308.975ZM248.771 299.987V303.823C248.183 303.137 247.329 302.815 246.363 302.815C244.193 302.815 242.583 304.313 242.583 306.637C242.583 308.961 244.193 310.473 246.363 310.473C247.385 310.473 248.253 310.123 248.841 309.409V310.375H250.521V299.987H248.771ZM246.573 308.975C245.313 308.975 244.347 308.065 244.347 306.637C244.347 305.209 245.313 304.299 246.573 304.299C247.833 304.299 248.799 305.209 248.799 306.637C248.799 308.065 247.833 308.975 246.573 308.975ZM255.866 302.815C254.662 302.815 253.5 303.123 252.702 303.739L253.388 305.013C253.948 304.551 254.816 304.271 255.656 304.271C256.902 304.271 257.518 304.873 257.518 305.895V306.007H255.586C253.318 306.007 252.478 306.987 252.478 308.233C252.478 309.535 253.556 310.473 255.264 310.473C256.384 310.473 257.196 310.109 257.616 309.465V310.375H259.268V305.993C259.268 303.837 258.022 302.815 255.866 302.815ZM255.628 309.199C254.732 309.199 254.2 308.793 254.2 308.163C254.2 307.617 254.522 307.169 255.712 307.169H257.518V308.037C257.224 308.807 256.482 309.199 255.628 309.199ZM265.718 308.723C265.452 308.933 265.102 309.031 264.738 309.031C264.066 309.031 263.702 308.639 263.702 307.911V304.355H265.704V302.955H263.702V301.247H261.952V302.955H260.72V304.355H261.952V307.953C261.952 309.605 262.89 310.473 264.528 310.473C265.158 310.473 265.788 310.305 266.208 309.969L265.718 308.723ZM274.63 306.679C274.63 304.341 273.034 302.815 270.85 302.815C268.624 302.815 266.986 304.411 266.986 306.637C266.986 308.863 268.61 310.473 271.116 310.473C272.404 310.473 273.454 310.053 274.126 309.255L273.188 308.177C272.656 308.723 271.998 308.989 271.158 308.989C269.856 308.989 268.946 308.289 268.736 307.197H274.602C274.616 307.029 274.63 306.819 274.63 306.679ZM270.85 304.215C271.998 304.215 272.824 304.957 272.964 306.035H268.722C268.89 304.943 269.716 304.215 270.85 304.215ZM278.821 310.473C280.921 310.473 282.209 309.563 282.209 308.163C282.209 305.237 277.589 306.581 277.589 305.069C277.589 304.579 278.093 304.229 279.157 304.229C279.871 304.229 280.585 304.369 281.299 304.789L281.971 303.459C281.299 303.053 280.165 302.815 279.171 302.815C277.155 302.815 275.881 303.739 275.881 305.153C275.881 308.135 280.501 306.791 280.501 308.219C280.501 308.737 280.039 309.045 278.933 309.045C277.995 309.045 276.987 308.737 276.329 308.303L275.657 309.633C276.329 310.109 277.575 310.473 278.821 310.473Z" fill="#252B42"/>
</g>
<g clip-path="url(#clip4_688_3783)">
<rect x="40" y="339" width="32" height="32" rx="16" fill="#2DC071"/>
<g clip-path="url(#clip5_688_3783)">
<path fill-rule="evenodd" clip-rule="evenodd" d="M64.2957 349.204C64.3604 349.269 64.4118 349.346 64.4469 349.43C64.4819 349.515 64.5 349.605 64.5 349.697C64.5 349.788 64.4819 349.879 64.4469 349.963C64.4118 350.048 64.3604 350.125 64.2957 350.189L54.5578 359.927C54.4932 359.992 54.4164 360.043 54.3319 360.078C54.2474 360.113 54.1568 360.131 54.0654 360.131C53.9739 360.131 53.8833 360.113 53.7988 360.078C53.7143 360.043 53.6375 359.992 53.5729 359.927L48.704 355.058C48.5734 354.928 48.5 354.75 48.5 354.566C48.5 354.381 48.5734 354.204 48.704 354.073C48.8346 353.943 49.0117 353.869 49.1964 353.869C49.3811 353.869 49.5583 353.943 49.6889 354.073L54.0654 358.451L63.3107 349.204C63.3754 349.14 63.4521 349.088 63.5366 349.053C63.6211 349.018 63.7117 349 63.8032 349C63.8947 349 63.9853 349.018 64.0698 349.053C64.1543 349.088 64.231 349.14 64.2957 349.204Z" fill="white"/>
</g>
<path d="M87.53 357.515C90.204 357.515 91.814 355.961 91.814 353.105V347.575H90.022V353.035C90.022 355.051 89.126 355.919 87.544 355.919C85.962 355.919 85.052 355.051 85.052 353.035V347.575H83.232V353.105C83.232 355.961 84.842 357.515 87.53 357.515ZM98.6369 349.815C97.5449 349.815 96.6349 350.179 96.0609 350.865V349.899H94.3949V357.375H96.1449V353.595C96.1449 352.097 96.9849 351.341 98.2309 351.341C99.3509 351.341 100.009 351.985 100.009 353.315V357.375H101.759V353.091C101.759 350.837 100.429 349.815 98.6369 349.815ZM104.179 357.375H105.929V346.987H104.179V357.375ZM109.308 348.667C109.966 348.667 110.428 348.191 110.428 347.575C110.428 347.001 109.952 346.567 109.308 346.567C108.664 346.567 108.188 347.029 108.188 347.617C108.188 348.205 108.664 348.667 109.308 348.667ZM108.426 357.375H110.176V349.899H108.426V357.375ZM122.109 349.815C120.919 349.815 119.911 350.291 119.309 351.061C118.791 350.221 117.881 349.815 116.789 349.815C115.767 349.815 114.899 350.179 114.339 350.851V349.899H112.673V357.375H114.423V353.581C114.423 352.097 115.207 351.341 116.369 351.341C117.433 351.341 118.049 351.985 118.049 353.315V357.375H119.799V353.581C119.799 352.097 120.597 351.341 121.745 351.341C122.809 351.341 123.425 351.985 123.425 353.315V357.375H125.175V353.091C125.175 350.837 123.915 349.815 122.109 349.815ZM128.493 348.667C129.151 348.667 129.613 348.191 129.613 347.575C129.613 347.001 129.137 346.567 128.493 346.567C127.849 346.567 127.373 347.029 127.373 347.617C127.373 348.205 127.849 348.667 128.493 348.667ZM127.611 357.375H129.361V349.899H127.611V357.375ZM135.862 355.723C135.596 355.933 135.246 356.031 134.882 356.031C134.21 356.031 133.846 355.639 133.846 354.911V351.355H135.848V349.955H133.846V348.247H132.096V349.955H130.864V351.355H132.096V354.953C132.096 356.605 133.034 357.473 134.672 357.473C135.302 357.473 135.932 357.305 136.352 356.969L135.862 355.723ZM144.773 353.679C144.773 351.341 143.177 349.815 140.993 349.815C138.767 349.815 137.129 351.411 137.129 353.637C137.129 355.863 138.753 357.473 141.259 357.473C142.547 357.473 143.597 357.053 144.269 356.255L143.331 355.177C142.799 355.723 142.141 355.989 141.301 355.989C139.999 355.989 139.089 355.289 138.879 354.197H144.745C144.759 354.029 144.773 353.819 144.773 353.679ZM140.993 351.215C142.141 351.215 142.967 351.957 143.107 353.035H138.865C139.033 351.943 139.859 351.215 140.993 351.215ZM152.226 346.987V350.823C151.638 350.137 150.784 349.815 149.818 349.815C147.648 349.815 146.038 351.313 146.038 353.637C146.038 355.961 147.648 357.473 149.818 357.473C150.84 357.473 151.708 357.123 152.296 356.409V357.375H153.976V346.987H152.226ZM150.028 355.975C148.768 355.975 147.802 355.065 147.802 353.637C147.802 352.209 148.768 351.299 150.028 351.299C151.288 351.299 152.254 352.209 152.254 353.637C152.254 355.065 151.288 355.975 150.028 355.975ZM164.679 349.815C163.657 349.815 162.789 350.165 162.201 350.879V349.899H160.535V360.091H162.285V356.465C162.887 357.151 163.727 357.473 164.679 357.473C166.863 357.473 168.473 355.961 168.473 353.637C168.473 351.327 166.863 349.815 164.679 349.815ZM164.483 355.975C163.223 355.975 162.257 355.065 162.257 353.637C162.257 352.209 163.223 351.299 164.483 351.299C165.743 351.299 166.695 352.209 166.695 353.637C166.695 355.065 165.743 355.975 164.483 355.975ZM171.998 350.991V349.899H170.332V357.375H172.082V353.749C172.082 352.223 172.922 351.439 174.252 351.439C174.378 351.439 174.504 351.453 174.658 351.481V349.815C173.412 349.815 172.502 350.207 171.998 350.991ZM179.635 357.473C181.959 357.473 183.625 355.877 183.625 353.637C183.625 351.397 181.959 349.815 179.635 349.815C177.339 349.815 175.659 351.397 175.659 353.637C175.659 355.877 177.339 357.473 179.635 357.473ZM179.635 355.975C178.375 355.975 177.423 355.065 177.423 353.637C177.423 352.209 178.375 351.299 179.635 351.299C180.909 351.299 181.861 352.209 181.861 353.637C181.861 355.065 180.909 355.975 179.635 355.975ZM191.07 346.987V350.823C190.482 350.137 189.628 349.815 188.662 349.815C186.492 349.815 184.882 351.313 184.882 353.637C184.882 355.961 186.492 357.473 188.662 357.473C189.684 357.473 190.552 357.123 191.14 356.409V357.375H192.82V346.987H191.07ZM188.872 355.975C187.612 355.975 186.646 355.065 186.646 353.637C186.646 352.209 187.612 351.299 188.872 351.299C190.132 351.299 191.098 352.209 191.098 353.637C191.098 355.065 190.132 355.975 188.872 355.975ZM200.797 349.899V353.679C200.797 355.177 199.971 355.933 198.753 355.933C197.647 355.933 197.003 355.289 197.003 353.931V349.899H195.253V354.169C195.253 356.423 196.555 357.473 198.473 357.473C199.439 357.473 200.321 357.109 200.881 356.423V357.375H202.547V349.899H200.797ZM208.469 357.473C209.925 357.473 211.087 356.843 211.661 355.723L210.317 354.939C209.869 355.653 209.197 355.975 208.455 355.975C207.167 355.975 206.187 355.093 206.187 353.637C206.187 352.195 207.167 351.299 208.455 351.299C209.197 351.299 209.869 351.621 210.317 352.335L211.661 351.551C211.087 350.417 209.925 349.815 208.469 349.815C206.103 349.815 204.423 351.397 204.423 353.637C204.423 355.877 206.103 357.473 208.469 357.473ZM217.473 355.723C217.207 355.933 216.857 356.031 216.493 356.031C215.821 356.031 215.457 355.639 215.457 354.911V351.355H217.459V349.955H215.457V348.247H213.707V349.955H212.475V351.355H213.707V354.953C213.707 356.605 214.645 357.473 216.283 357.473C216.913 357.473 217.543 357.305 217.963 356.969L217.473 355.723ZM229.16 349.899V353.679C229.16 355.177 228.334 355.933 227.116 355.933C226.01 355.933 225.366 355.289 225.366 353.931V349.899H223.616V354.169C223.616 356.423 224.918 357.473 226.836 357.473C227.802 357.473 228.684 357.109 229.244 356.423V357.375H230.91V349.899H229.16ZM237.545 349.815C236.523 349.815 235.655 350.165 235.067 350.879V349.899H233.401V360.091H235.151V356.465C235.753 357.151 236.593 357.473 237.545 357.473C239.729 357.473 241.339 355.961 241.339 353.637C241.339 351.327 239.729 349.815 237.545 349.815ZM237.349 355.975C236.089 355.975 235.123 355.065 235.123 353.637C235.123 352.209 236.089 351.299 237.349 351.299C238.609 351.299 239.561 352.209 239.561 353.637C239.561 355.065 238.609 355.975 237.349 355.975ZM248.771 346.987V350.823C248.183 350.137 247.329 349.815 246.363 349.815C244.193 349.815 242.583 351.313 242.583 353.637C242.583 355.961 244.193 357.473 246.363 357.473C247.385 357.473 248.253 357.123 248.841 356.409V357.375H250.521V346.987H248.771ZM246.573 355.975C245.313 355.975 244.347 355.065 244.347 353.637C244.347 352.209 245.313 351.299 246.573 351.299C247.833 351.299 248.799 352.209 248.799 353.637C248.799 355.065 247.833 355.975 246.573 355.975ZM255.866 349.815C254.662 349.815 253.5 350.123 252.702 350.739L253.388 352.013C253.948 351.551 254.816 351.271 255.656 351.271C256.902 351.271 257.518 351.873 257.518 352.895V353.007H255.586C253.318 353.007 252.478 353.987 252.478 355.233C252.478 356.535 253.556 357.473 255.264 357.473C256.384 357.473 257.196 357.109 257.616 356.465V357.375H259.268V352.993C259.268 350.837 258.022 349.815 255.866 349.815ZM255.628 356.199C254.732 356.199 254.2 355.793 254.2 355.163C254.2 354.617 254.522 354.169 255.712 354.169H257.518V355.037C257.224 355.807 256.482 356.199 255.628 356.199ZM265.718 355.723C265.452 355.933 265.102 356.031 264.738 356.031C264.066 356.031 263.702 355.639 263.702 354.911V351.355H265.704V349.955H263.702V348.247H261.952V349.955H260.72V351.355H261.952V354.953C261.952 356.605 262.89 357.473 264.528 357.473C265.158 357.473 265.788 357.305 266.208 356.969L265.718 355.723ZM274.63 353.679C274.63 351.341 273.034 349.815 270.85 349.815C268.624 349.815 266.986 351.411 266.986 353.637C266.986 355.863 268.61 357.473 271.116 357.473C272.404 357.473 273.454 357.053 274.126 356.255L273.188 355.177C272.656 355.723 271.998 355.989 271.158 355.989C269.856 355.989 268.946 355.289 268.736 354.197H274.602C274.616 354.029 274.63 353.819 274.63 353.679ZM270.85 351.215C271.998 351.215 272.824 351.957 272.964 353.035H268.722C268.89 351.943 269.716 351.215 270.85 351.215ZM278.821 357.473C280.921 357.473 282.209 356.563 282.209 355.163C282.209 352.237 277.589 353.581 277.589 352.069C277.589 351.579 278.093 351.229 279.157 351.229C279.871 351.229 280.585 351.369 281.299 351.789L281.971 350.459C281.299 350.053 280.165 349.815 279.171 349.815C277.155 349.815 275.881 350.739 275.881 352.153C275.881 355.135 280.501 353.791 280.501 355.219C280.501 355.737 280.039 356.045 278.933 356.045C277.995 356.045 276.987 355.737 276.329 355.303L275.657 356.633C276.329 357.109 277.575 357.473 278.821 357.473Z" fill="#252B42"/>
</g>
<g clip-path="url(#clip6_688_3783)">
<rect x="40" y="386" width="32" height="32" rx="16" fill="#2DC071"/>
<g clip-path="url(#clip7_688_3783)">
<path fill-rule="evenodd" clip-rule="evenodd" d="M64.2957 396.204C64.3604 396.269 64.4118 396.346 64.4469 396.43C64.4819 396.515 64.5 396.605 64.5 396.697C64.5 396.788 64.4819 396.879 64.4469 396.963C64.4118 397.048 64.3604 397.125 64.2957 397.189L54.5578 406.927C54.4932 406.992 54.4164 407.043 54.3319 407.078C54.2474 407.113 54.1568 407.131 54.0654 407.131C53.9739 407.131 53.8833 407.113 53.7988 407.078C53.7143 407.043 53.6375 406.992 53.5729 406.927L48.704 402.058C48.5734 401.928 48.5 401.75 48.5 401.566C48.5 401.381 48.5734 401.204 48.704 401.073C48.8346 400.943 49.0117 400.869 49.1964 400.869C49.3811 400.869 49.5583 400.943 49.6889 401.073L54.0654 405.451L63.3107 396.204C63.3754 396.14 63.4521 396.088 63.5366 396.053C63.6211 396.018 63.7117 396 63.8032 396C63.8947 396 63.9853 396.018 64.0698 396.053C64.1543 396.088 64.231 396.14 64.2957 396.204Z" fill="white"/>
</g>
<path d="M87.53 404.515C90.204 404.515 91.814 402.961 91.814 400.105V394.575H90.022V400.035C90.022 402.051 89.126 402.919 87.544 402.919C85.962 402.919 85.052 402.051 85.052 400.035V394.575H83.232V400.105C83.232 402.961 84.842 404.515 87.53 404.515ZM98.6369 396.815C97.5449 396.815 96.6349 397.179 96.0609 397.865V396.899H94.3949V404.375H96.1449V400.595C96.1449 399.097 96.9849 398.341 98.2309 398.341C99.3509 398.341 100.009 398.985 100.009 400.315V404.375H101.759V400.091C101.759 397.837 100.429 396.815 98.6369 396.815ZM104.179 404.375H105.929V393.987H104.179V404.375ZM109.308 395.667C109.966 395.667 110.428 395.191 110.428 394.575C110.428 394.001 109.952 393.567 109.308 393.567C108.664 393.567 108.188 394.029 108.188 394.617C108.188 395.205 108.664 395.667 109.308 395.667ZM108.426 404.375H110.176V396.899H108.426V404.375ZM122.109 396.815C120.919 396.815 119.911 397.291 119.309 398.061C118.791 397.221 117.881 396.815 116.789 396.815C115.767 396.815 114.899 397.179 114.339 397.851V396.899H112.673V404.375H114.423V400.581C114.423 399.097 115.207 398.341 116.369 398.341C117.433 398.341 118.049 398.985 118.049 400.315V404.375H119.799V400.581C119.799 399.097 120.597 398.341 121.745 398.341C122.809 398.341 123.425 398.985 123.425 400.315V404.375H125.175V400.091C125.175 397.837 123.915 396.815 122.109 396.815ZM128.493 395.667C129.151 395.667 129.613 395.191 129.613 394.575C129.613 394.001 129.137 393.567 128.493 393.567C127.849 393.567 127.373 394.029 127.373 394.617C127.373 395.205 127.849 395.667 128.493 395.667ZM127.611 404.375H129.361V396.899H127.611V404.375ZM135.862 402.723C135.596 402.933 135.246 403.031 134.882 403.031C134.21 403.031 133.846 402.639 133.846 401.911V398.355H135.848V396.955H133.846V395.247H132.096V396.955H130.864V398.355H132.096V401.953C132.096 403.605 133.034 404.473 134.672 404.473C135.302 404.473 135.932 404.305 136.352 403.969L135.862 402.723ZM144.773 400.679C144.773 398.341 143.177 396.815 140.993 396.815C138.767 396.815 137.129 398.411 137.129 400.637C137.129 402.863 138.753 404.473 141.259 404.473C142.547 404.473 143.597 404.053 144.269 403.255L143.331 402.177C142.799 402.723 142.141 402.989 141.301 402.989C139.999 402.989 139.089 402.289 138.879 401.197H144.745C144.759 401.029 144.773 400.819 144.773 400.679ZM140.993 398.215C142.141 398.215 142.967 398.957 143.107 400.035H138.865C139.033 398.943 139.859 398.215 140.993 398.215ZM152.226 393.987V397.823C151.638 397.137 150.784 396.815 149.818 396.815C147.648 396.815 146.038 398.313 146.038 400.637C146.038 402.961 147.648 404.473 149.818 404.473C150.84 404.473 151.708 404.123 152.296 403.409V404.375H153.976V393.987H152.226ZM150.028 402.975C148.768 402.975 147.802 402.065 147.802 400.637C147.802 399.209 148.768 398.299 150.028 398.299C151.288 398.299 152.254 399.209 152.254 400.637C152.254 402.065 151.288 402.975 150.028 402.975ZM164.679 396.815C163.657 396.815 162.789 397.165 162.201 397.879V396.899H160.535V407.091H162.285V403.465C162.887 404.151 163.727 404.473 164.679 404.473C166.863 404.473 168.473 402.961 168.473 400.637C168.473 398.327 166.863 396.815 164.679 396.815ZM164.483 402.975C163.223 402.975 162.257 402.065 162.257 400.637C162.257 399.209 163.223 398.299 164.483 398.299C165.743 398.299 166.695 399.209 166.695 400.637C166.695 402.065 165.743 402.975 164.483 402.975ZM171.998 397.991V396.899H170.332V404.375H172.082V400.749C172.082 399.223 172.922 398.439 174.252 398.439C174.378 398.439 174.504 398.453 174.658 398.481V396.815C173.412 396.815 172.502 397.207 171.998 397.991ZM179.635 404.473C181.959 404.473 183.625 402.877 183.625 400.637C183.625 398.397 181.959 396.815 179.635 396.815C177.339 396.815 175.659 398.397 175.659 400.637C175.659 402.877 177.339 404.473 179.635 404.473ZM179.635 402.975C178.375 402.975 177.423 402.065 177.423 400.637C177.423 399.209 178.375 398.299 179.635 398.299C180.909 398.299 181.861 399.209 181.861 400.637C181.861 402.065 180.909 402.975 179.635 402.975ZM191.07 393.987V397.823C190.482 397.137 189.628 396.815 188.662 396.815C186.492 396.815 184.882 398.313 184.882 400.637C184.882 402.961 186.492 404.473 188.662 404.473C189.684 404.473 190.552 404.123 191.14 403.409V404.375H192.82V393.987H191.07ZM188.872 402.975C187.612 402.975 186.646 402.065 186.646 400.637C186.646 399.209 187.612 398.299 188.872 398.299C190.132 398.299 191.098 399.209 191.098 400.637C191.098 402.065 190.132 402.975 188.872 402.975ZM200.797 396.899V400.679C200.797 402.177 199.971 402.933 198.753 402.933C197.647 402.933 197.003 402.289 197.003 400.931V396.899H195.253V401.169C195.253 403.423 196.555 404.473 198.473 404.473C199.439 404.473 200.321 404.109 200.881 403.423V404.375H202.547V396.899H200.797ZM208.469 404.473C209.925 404.473 211.087 403.843 211.661 402.723L210.317 401.939C209.869 402.653 209.197 402.975 208.455 402.975C207.167 402.975 206.187 402.093 206.187 400.637C206.187 399.195 207.167 398.299 208.455 398.299C209.197 398.299 209.869 398.621 210.317 399.335L211.661 398.551C211.087 397.417 209.925 396.815 208.469 396.815C206.103 396.815 204.423 398.397 204.423 400.637C204.423 402.877 206.103 404.473 208.469 404.473ZM217.473 402.723C217.207 402.933 216.857 403.031 216.493 403.031C215.821 403.031 215.457 402.639 215.457 401.911V398.355H217.459V396.955H215.457V395.247H213.707V396.955H212.475V398.355H213.707V401.953C213.707 403.605 214.645 404.473 216.283 404.473C216.913 404.473 217.543 404.305 217.963 403.969L217.473 402.723ZM229.16 396.899V400.679C229.16 402.177 228.334 402.933 227.116 402.933C226.01 402.933 225.366 402.289 225.366 400.931V396.899H223.616V401.169C223.616 403.423 224.918 404.473 226.836 404.473C227.802 404.473 228.684 404.109 229.244 403.423V404.375H230.91V396.899H229.16ZM237.545 396.815C236.523 396.815 235.655 397.165 235.067 397.879V396.899H233.401V407.091H235.151V403.465C235.753 404.151 236.593 404.473 237.545 404.473C239.729 404.473 241.339 402.961 241.339 400.637C241.339 398.327 239.729 396.815 237.545 396.815ZM237.349 402.975C236.089 402.975 235.123 402.065 235.123 400.637C235.123 399.209 236.089 398.299 237.349 398.299C238.609 398.299 239.561 399.209 239.561 400.637C239.561 402.065 238.609 402.975 237.349 402.975ZM248.771 393.987V397.823C248.183 397.137 247.329 396.815 246.363 396.815C244.193 396.815 242.583 398.313 242.583 400.637C242.583 402.961 244.193 404.473 246.363 404.473C247.385 404.473 248.253 404.123 248.841 403.409V404.375H250.521V393.987H248.771ZM246.573 402.975C245.313 402.975 244.347 402.065 244.347 400.637C244.347 399.209 245.313 398.299 246.573 398.299C247.833 398.299 248.799 399.209 248.799 400.637C248.799 402.065 247.833 402.975 246.573 402.975ZM255.866 396.815C254.662 396.815 253.5 397.123 252.702 397.739L253.388 399.013C253.948 398.551 254.816 398.271 255.656 398.271C256.902 398.271 257.518 398.873 257.518 399.895V400.007H255.586C253.318 400.007 252.478 400.987 252.478 402.233C252.478 403.535 253.556 404.473 255.264 404.473C256.384 404.473 257.196 404.109 257.616 403.465V404.375H259.268V399.993C259.268 397.837 258.022 396.815 255.866 396.815ZM255.628 403.199C254.732 403.199 254.2 402.793 254.2 402.163C254.2 401.617 254.522 401.169 255.712 401.169H257.518V402.037C257.224 402.807 256.482 403.199 255.628 403.199ZM265.718 402.723C265.452 402.933 265.102 403.031 264.738 403.031C264.066 403.031 263.702 402.639 263.702 401.911V398.355H265.704V396.955H263.702V395.247H261.952V396.955H260.72V398.355H261.952V401.953C261.952 403.605 262.89 404.473 264.528 404.473C265.158 404.473 265.788 404.305 266.208 403.969L265.718 402.723ZM274.63 400.679C274.63 398.341 273.034 396.815 270.85 396.815C268.624 396.815 266.986 398.411 266.986 400.637C266.986 402.863 268.61 404.473 271.116 404.473C272.404 404.473 273.454 404.053 274.126 403.255L273.188 402.177C272.656 402.723 271.998 402.989 271.158 402.989C269.856 402.989 268.946 402.289 268.736 401.197H274.602C274.616 401.029 274.63 400.819 274.63 400.679ZM270.85 398.215C271.998 398.215 272.824 398.957 272.964 400.035H268.722C268.89 398.943 269.716 398.215 270.85 398.215ZM278.821 404.473C280.921 404.473 282.209 403.563 282.209 402.163C282.209 399.237 277.589 400.581 277.589 399.069C277.589 398.579 278.093 398.229 279.157 398.229C279.871 398.229 280.585 398.369 281.299 398.789L281.971 397.459C281.299 397.053 280.165 396.815 279.171 396.815C277.155 396.815 275.881 397.739 275.881 399.153C275.881 402.135 280.501 400.791 280.501 402.219C280.501 402.737 280.039 403.045 278.933 403.045C277.995 403.045 276.987 402.737 276.329 402.303L275.657 403.633C276.329 404.109 277.575 404.473 278.821 404.473Z" fill="#252B42"/>
</g>
<g clip-path="url(#clip8_688_3783)">
<rect x="40" y="433" width="32" height="32" rx="16" fill="#BDBDBD"/>
<g clip-path="url(#clip9_688_3783)">
<path fill-rule="evenodd" clip-rule="evenodd" d="M64.2957 443.204C64.3604 443.269 64.4118 443.346 64.4469 443.43C64.4819 443.515 64.5 443.605 64.5 443.697C64.5 443.788 64.4819 443.879 64.4469 443.963C64.4118 444.048 64.3604 444.125 64.2957 444.189L54.5578 453.927C54.4932 453.992 54.4164 454.043 54.3319 454.078C54.2474 454.113 54.1568 454.131 54.0654 454.131C53.9739 454.131 53.8833 454.113 53.7988 454.078C53.7143 454.043 53.6375 453.992 53.5729 453.927L48.704 449.058C48.5734 448.928 48.5 448.75 48.5 448.566C48.5 448.381 48.5734 448.204 48.704 448.073C48.8346 447.943 49.0117 447.869 49.1964 447.869C49.3811 447.869 49.5583 447.943 49.6889 448.073L54.0654 452.451L63.3107 443.204C63.3754 443.14 63.4521 443.088 63.5366 443.053C63.6211 443.018 63.7117 443 63.8032 443C63.8947 443 63.9853 443.018 64.0698 443.053C64.1543 443.088 64.231 443.14 64.2957 443.204Z" fill="white"/>
</g>
<path d="M82.112 441.575V443.101H84.184V451.375H86.004V441.575H82.112ZM95.54 449.415C94.91 449.779 94.224 449.919 93.524 449.919C91.452 449.919 89.982 448.463 89.982 446.475C89.982 444.445 91.452 443.031 93.538 443.031C94.588 443.031 95.47 443.381 96.24 444.151L97.388 443.031C96.464 441.981 95.092 441.435 93.454 441.435C90.388 441.435 88.148 443.549 88.148 446.475C88.148 449.401 90.388 451.515 93.426 451.515C94.812 451.515 96.24 451.095 97.262 450.269V446.363H95.54V449.415ZM106.806 446.279C107.562 445.873 108.066 445.131 108.066 444.123C108.066 442.569 106.806 441.575 104.454 441.575H99.8625V451.375H104.734C107.254 451.375 108.57 450.395 108.57 448.715C108.57 447.441 107.856 446.615 106.806 446.279ZM104.258 443.003C105.518 443.003 106.232 443.451 106.232 444.361C106.232 445.257 105.518 445.705 104.258 445.705H101.682V443.003H104.258ZM104.622 449.947H101.682V447.119H104.622C105.994 447.119 106.736 447.553 106.736 448.533C106.736 449.513 105.994 449.947 104.622 449.947ZM123.387 451.515C124.997 451.515 126.369 450.941 127.279 449.877L126.103 448.757C125.389 449.541 124.507 449.919 123.485 449.919C121.455 449.919 119.985 448.491 119.985 446.475C119.985 444.459 121.455 443.031 123.485 443.031C124.507 443.031 125.389 443.409 126.103 444.179L127.279 443.073C126.369 442.009 124.997 441.435 123.401 441.435C120.391 441.435 118.151 443.549 118.151 446.475C118.151 449.401 120.391 451.515 123.387 451.515ZM129.055 451.375H130.805V440.987H129.055V451.375ZM136.662 451.473C138.986 451.473 140.652 449.877 140.652 447.637C140.652 445.397 138.986 443.815 136.662 443.815C134.366 443.815 132.686 445.397 132.686 447.637C132.686 449.877 134.366 451.473 136.662 451.473ZM136.662 449.975C135.402 449.975 134.45 449.065 134.45 447.637C134.45 446.209 135.402 445.299 136.662 445.299C137.936 445.299 138.888 446.209 138.888 447.637C138.888 449.065 137.936 449.975 136.662 449.975ZM148.013 443.899V447.679C148.013 449.177 147.187 449.933 145.969 449.933C144.863 449.933 144.219 449.289 144.219 447.931V443.899H142.469V448.169C142.469 450.423 143.771 451.473 145.689 451.473C146.655 451.473 147.537 451.109 148.097 450.423V451.375H149.763V443.899H148.013ZM157.827 440.987V444.823C157.239 444.137 156.385 443.815 155.419 443.815C153.249 443.815 151.639 445.313 151.639 447.637C151.639 449.961 153.249 451.473 155.419 451.473C156.441 451.473 157.309 451.123 157.897 450.409V451.375H159.577V440.987H157.827ZM155.629 449.975C154.369 449.975 153.403 449.065 153.403 447.637C153.403 446.209 154.369 445.299 155.629 445.299C156.889 445.299 157.855 446.209 157.855 447.637C157.855 449.065 156.889 449.975 155.629 449.975ZM168.445 451.473C170.545 451.473 171.833 450.563 171.833 449.163C171.833 446.237 167.213 447.581 167.213 446.069C167.213 445.579 167.717 445.229 168.781 445.229C169.495 445.229 170.209 445.369 170.923 445.789L171.595 444.459C170.923 444.053 169.789 443.815 168.795 443.815C166.779 443.815 165.505 444.739 165.505 446.153C165.505 449.135 170.125 447.791 170.125 449.219C170.125 449.737 169.663 450.045 168.557 450.045C167.619 450.045 166.611 449.737 165.953 449.303L165.281 450.633C165.953 451.109 167.199 451.473 168.445 451.473ZM177.544 449.723C177.278 449.933 176.928 450.031 176.564 450.031C175.892 450.031 175.528 449.639 175.528 448.911V445.355H177.53V443.955H175.528V442.247H173.778V443.955H172.546V445.355H173.778V448.953C173.778 450.605 174.716 451.473 176.354 451.473C176.984 451.473 177.614 451.305 178.034 450.969L177.544 449.723ZM182.788 451.473C185.112 451.473 186.778 449.877 186.778 447.637C186.778 445.397 185.112 443.815 182.788 443.815C180.492 443.815 178.812 445.397 178.812 447.637C178.812 449.877 180.492 451.473 182.788 451.473ZM182.788 449.975C181.528 449.975 180.576 449.065 180.576 447.637C180.576 446.209 181.528 445.299 182.788 445.299C184.062 445.299 185.014 446.209 185.014 447.637C185.014 449.065 184.062 449.975 182.788 449.975ZM190.317 444.991V443.899H188.651V451.375H190.401V447.749C190.401 446.223 191.241 445.439 192.571 445.439C192.697 445.439 192.823 445.453 192.977 445.481V443.815C191.731 443.815 190.821 444.207 190.317 444.991ZM197.477 443.815C196.273 443.815 195.111 444.123 194.313 444.739L194.999 446.013C195.559 445.551 196.427 445.271 197.267 445.271C198.513 445.271 199.129 445.873 199.129 446.895V447.007H197.197C194.929 447.007 194.089 447.987 194.089 449.233C194.089 450.535 195.167 451.473 196.875 451.473C197.995 451.473 198.807 451.109 199.227 450.465V451.375H200.879V446.993C200.879 444.837 199.633 443.815 197.477 443.815ZM197.239 450.199C196.343 450.199 195.811 449.793 195.811 449.163C195.811 448.617 196.133 448.169 197.323 448.169H199.129V449.037C198.835 449.807 198.093 450.199 197.239 450.199ZM209.147 443.899V444.893C208.531 444.151 207.607 443.815 206.557 443.815C204.415 443.815 202.777 445.243 202.777 447.413C202.777 449.583 204.415 451.039 206.557 451.039C207.565 451.039 208.447 450.717 209.063 450.045V450.437C209.063 451.949 208.335 452.705 206.683 452.705C205.647 452.705 204.583 452.355 203.925 451.809L203.141 453.125C203.995 453.825 205.381 454.189 206.781 454.189C209.399 454.189 210.813 452.957 210.813 450.241V443.899H209.147ZM206.823 449.555C205.493 449.555 204.541 448.687 204.541 447.413C204.541 446.153 205.493 445.299 206.823 445.299C208.139 445.299 209.091 446.153 209.091 447.413C209.091 448.687 208.139 449.555 206.823 449.555ZM220.342 447.679C220.342 445.341 218.746 443.815 216.562 443.815C214.336 443.815 212.698 445.411 212.698 447.637C212.698 449.863 214.322 451.473 216.828 451.473C218.116 451.473 219.166 451.053 219.838 450.255L218.9 449.177C218.368 449.723 217.71 449.989 216.87 449.989C215.568 449.989 214.658 449.289 214.448 448.197H220.314C220.328 448.029 220.342 447.819 220.342 447.679ZM216.562 445.215C217.71 445.215 218.536 445.957 218.676 447.035H214.434C214.602 445.943 215.428 445.215 216.562 445.215Z" fill="#252B42"/>
</g>
<g clip-path="url(#clip10_688_3783)">
<rect x="40" y="480" width="32" height="32" rx="16" fill="#BDBDBD"/>
<g clip-path="url(#clip11_688_3783)">
<path fill-rule="evenodd" clip-rule="evenodd" d="M64.2957 490.204C64.3604 490.269 64.4118 490.346 64.4469 490.43C64.4819 490.515 64.5 490.605 64.5 490.697C64.5 490.788 64.4819 490.879 64.4469 490.963C64.4118 491.048 64.3604 491.125 64.2957 491.189L54.5578 500.927C54.4932 500.992 54.4164 501.043 54.3319 501.078C54.2474 501.113 54.1568 501.131 54.0654 501.131C53.9739 501.131 53.8833 501.113 53.7988 501.078C53.7143 501.043 53.6375 500.992 53.5729 500.927L48.704 496.058C48.5734 495.928 48.5 495.75 48.5 495.566C48.5 495.381 48.5734 495.204 48.704 495.073C48.8346 494.943 49.0117 494.869 49.1964 494.869C49.3811 494.869 49.5583 494.943 49.6889 495.073L54.0654 499.451L63.3107 490.204C63.3754 490.14 63.4521 490.088 63.5366 490.053C63.6211 490.018 63.7117 490 63.8032 490C63.8947 490 63.9853 490.018 64.0698 490.053C64.1543 490.088 64.231 490.14 64.2957 490.204Z" fill="white"/>
</g>
<path d="M85.136 495.474V492.772H89.868V491.274H85.136V488.726H90.47V487.2H83.316V497H90.666V495.474H85.136ZM102.163 489.44C100.973 489.44 99.9649 489.916 99.3629 490.686C98.8449 489.846 97.9349 489.44 96.8429 489.44C95.8209 489.44 94.9529 489.804 94.3929 490.476V489.524H92.7269V497H94.4769V493.206C94.4769 491.722 95.2609 490.966 96.4229 490.966C97.4869 490.966 98.1029 491.61 98.1029 492.94V497H99.8529V493.206C99.8529 491.722 100.651 490.966 101.799 490.966C102.863 490.966 103.479 491.61 103.479 492.94V497H105.229V492.716C105.229 490.462 103.969 489.44 102.163 489.44ZM110.521 489.44C109.317 489.44 108.155 489.748 107.357 490.364L108.043 491.638C108.603 491.176 109.471 490.896 110.311 490.896C111.557 490.896 112.173 491.498 112.173 492.52V492.632H110.241C107.973 492.632 107.133 493.612 107.133 494.858C107.133 496.16 108.211 497.098 109.919 497.098C111.039 497.098 111.851 496.734 112.271 496.09V497H113.923V492.618C113.923 490.462 112.677 489.44 110.521 489.44ZM110.283 495.824C109.387 495.824 108.855 495.418 108.855 494.788C108.855 494.242 109.177 493.794 110.367 493.794H112.173V494.662C111.879 495.432 111.137 495.824 110.283 495.824ZM117.251 488.292C117.909 488.292 118.371 487.816 118.371 487.2C118.371 486.626 117.895 486.192 117.251 486.192C116.607 486.192 116.131 486.654 116.131 487.242C116.131 487.83 116.607 488.292 117.251 488.292ZM116.369 497H118.119V489.524H116.369V497ZM120.616 497H122.366V486.612H120.616V497ZM131.788 489.44C130.584 489.44 129.422 489.748 128.624 490.364L129.31 491.638C129.87 491.176 130.738 490.896 131.578 490.896C132.824 490.896 133.44 491.498 133.44 492.52V492.632H131.508C129.24 492.632 128.4 493.612 128.4 494.858C128.4 496.16 129.478 497.098 131.186 497.098C132.306 497.098 133.118 496.734 133.538 496.09V497H135.19V492.618C135.19 490.462 133.944 489.44 131.788 489.44ZM131.55 495.824C130.654 495.824 130.122 495.418 130.122 494.788C130.122 494.242 130.444 493.794 131.634 493.794H133.44V494.662C133.146 495.432 132.404 495.824 131.55 495.824ZM141.878 489.44C140.786 489.44 139.876 489.804 139.302 490.49V489.524H137.636V497H139.386V493.22C139.386 491.722 140.226 490.966 141.472 490.966C142.592 490.966 143.25 491.61 143.25 492.94V497H145V492.716C145 490.462 143.67 489.44 141.878 489.44ZM153.06 486.612V490.448C152.472 489.762 151.618 489.44 150.652 489.44C148.482 489.44 146.872 490.938 146.872 493.262C146.872 495.586 148.482 497.098 150.652 497.098C151.674 497.098 152.542 496.748 153.13 496.034V497H154.81V486.612H153.06ZM150.862 495.6C149.602 495.6 148.636 494.69 148.636 493.262C148.636 491.834 149.602 490.924 150.862 490.924C152.122 490.924 153.088 491.834 153.088 493.262C153.088 494.69 152.122 495.6 150.862 495.6ZM164.799 497.098C166.255 497.098 167.417 496.468 167.991 495.348L166.647 494.564C166.199 495.278 165.527 495.6 164.785 495.6C163.497 495.6 162.517 494.718 162.517 493.262C162.517 491.82 163.497 490.924 164.785 490.924C165.527 490.924 166.199 491.246 166.647 491.96L167.991 491.176C167.417 490.042 166.255 489.44 164.799 489.44C162.433 489.44 160.753 491.022 160.753 493.262C160.753 495.502 162.433 497.098 164.799 497.098ZM172.954 497.098C175.278 497.098 176.944 495.502 176.944 493.262C176.944 491.022 175.278 489.44 172.954 489.44C170.658 489.44 168.978 491.022 168.978 493.262C168.978 495.502 170.658 497.098 172.954 497.098ZM172.954 495.6C171.694 495.6 170.742 494.69 170.742 493.262C170.742 491.834 171.694 490.924 172.954 490.924C174.228 490.924 175.18 491.834 175.18 493.262C175.18 494.69 174.228 495.6 172.954 495.6ZM188.254 489.44C187.064 489.44 186.056 489.916 185.454 490.686C184.936 489.846 184.026 489.44 182.934 489.44C181.912 489.44 181.044 489.804 180.484 490.476V489.524H178.818V497H180.568V493.206C180.568 491.722 181.352 490.966 182.514 490.966C183.578 490.966 184.194 491.61 184.194 492.94V497H185.944V493.206C185.944 491.722 186.742 490.966 187.89 490.966C188.954 490.966 189.57 491.61 189.57 492.94V497H191.32V492.716C191.32 490.462 190.06 489.44 188.254 489.44ZM203.192 489.44C202.002 489.44 200.994 489.916 200.392 490.686C199.874 489.846 198.964 489.44 197.872 489.44C196.85 489.44 195.982 489.804 195.422 490.476V489.524H193.756V497H195.506V493.206C195.506 491.722 196.29 490.966 197.452 490.966C198.516 490.966 199.132 491.61 199.132 492.94V497H200.882V493.206C200.882 491.722 201.68 490.966 202.828 490.966C203.892 490.966 204.508 491.61 204.508 492.94V497H206.258V492.716C206.258 490.462 204.998 489.44 203.192 489.44ZM214.182 489.524V493.304C214.182 494.802 213.356 495.558 212.138 495.558C211.032 495.558 210.388 494.914 210.388 493.556V489.524H208.638V493.794C208.638 496.048 209.94 497.098 211.858 497.098C212.824 497.098 213.706 496.734 214.266 496.048V497H215.932V489.524H214.182ZM222.665 489.44C221.573 489.44 220.663 489.804 220.089 490.49V489.524H218.423V497H220.173V493.22C220.173 491.722 221.013 490.966 222.259 490.966C223.379 490.966 224.037 491.61 224.037 492.94V497H225.787V492.716C225.787 490.462 224.457 489.44 222.665 489.44ZM229.089 488.292C229.747 488.292 230.209 487.816 230.209 487.2C230.209 486.626 229.733 486.192 229.089 486.192C228.445 486.192 227.969 486.654 227.969 487.242C227.969 487.83 228.445 488.292 229.089 488.292ZM228.207 497H229.957V489.524H228.207V497ZM236.458 495.348C236.192 495.558 235.842 495.656 235.478 495.656C234.806 495.656 234.442 495.264 234.442 494.536V490.98H236.444V489.58H234.442V487.872H232.692V489.58H231.46V490.98H232.692V494.578C232.692 496.23 233.63 497.098 235.268 497.098C235.898 497.098 236.528 496.93 236.948 496.594L236.458 495.348ZM243.771 489.524L241.405 495.054L239.053 489.524H237.233L240.495 497.028L240.369 497.322C240.033 498.064 239.669 498.358 239.053 498.358C238.577 498.358 238.101 498.162 237.765 497.84L237.065 499.128C237.541 499.562 238.325 499.814 239.067 499.814C240.313 499.814 241.265 499.296 241.951 497.602L245.451 489.524H243.771ZM85.458 521.098C87.558 521.098 88.846 520.188 88.846 518.788C88.846 515.862 84.226 517.206 84.226 515.694C84.226 515.204 84.73 514.854 85.794 514.854C86.508 514.854 87.222 514.994 87.936 515.414L88.608 514.084C87.936 513.678 86.802 513.44 85.808 513.44C83.792 513.44 82.518 514.364 82.518 515.778C82.518 518.76 87.138 517.416 87.138 518.844C87.138 519.362 86.676 519.67 85.57 519.67C84.632 519.67 83.624 519.362 82.966 518.928L82.294 520.258C82.966 520.734 84.212 521.098 85.458 521.098ZM96.0411 513.524V517.304C96.0411 518.802 95.2151 519.558 93.9971 519.558C92.8911 519.558 92.2471 518.914 92.2471 517.556V513.524H90.4971V517.794C90.4971 520.048 91.7991 521.098 93.7171 521.098C94.6831 521.098 95.5651 520.734 96.1251 520.048V521H97.7911V513.524H96.0411ZM104.426 513.44C103.404 513.44 102.536 513.79 101.948 514.504V513.524H100.282V523.716H102.032V520.09C102.634 520.776 103.474 521.098 104.426 521.098C106.61 521.098 108.22 519.586 108.22 517.262C108.22 514.952 106.61 513.44 104.426 513.44ZM104.23 519.6C102.97 519.6 102.004 518.69 102.004 517.262C102.004 515.834 102.97 514.924 104.23 514.924C105.49 514.924 106.442 515.834 106.442 517.262C106.442 518.69 105.49 519.6 104.23 519.6ZM114.224 513.44C113.202 513.44 112.334 513.79 111.746 514.504V513.524H110.08V523.716H111.83V520.09C112.432 520.776 113.272 521.098 114.224 521.098C116.408 521.098 118.018 519.586 118.018 517.262C118.018 514.952 116.408 513.44 114.224 513.44ZM114.028 519.6C112.768 519.6 111.802 518.69 111.802 517.262C111.802 515.834 112.768 514.924 114.028 514.924C115.288 514.924 116.24 515.834 116.24 517.262C116.24 518.69 115.288 519.6 114.028 519.6ZM123.238 521.098C125.562 521.098 127.228 519.502 127.228 517.262C127.228 515.022 125.562 513.44 123.238 513.44C120.942 513.44 119.262 515.022 119.262 517.262C119.262 519.502 120.942 521.098 123.238 521.098ZM123.238 519.6C121.978 519.6 121.026 518.69 121.026 517.262C121.026 515.834 121.978 514.924 123.238 514.924C124.512 514.924 125.464 515.834 125.464 517.262C125.464 518.69 124.512 519.6 123.238 519.6ZM130.767 514.616V513.524H129.101V521H130.851V517.374C130.851 515.848 131.691 515.064 133.021 515.064C133.147 515.064 133.273 515.078 133.427 515.106V513.44C132.181 513.44 131.271 513.832 130.767 514.616ZM139.389 519.348C139.123 519.558 138.773 519.656 138.409 519.656C137.737 519.656 137.373 519.264 137.373 518.536V514.98H139.375V513.58H137.373V511.872H135.623V513.58H134.391V514.98H135.623V518.578C135.623 520.23 136.561 521.098 138.199 521.098C138.829 521.098 139.459 520.93 139.879 520.594L139.389 519.348Z" fill="#252B42"/>
</g>
</g>
<rect x="40.5" y="563" width="246" height="58" rx="5" fill="#23A6F0"/>
<path d="M128.291 589.104V597H126.107V589.104H123.335V587.214H131.063V589.104H128.291ZM136.617 591.316C135.991 591.316 135.525 591.54 135.217 591.988C134.909 592.427 134.755 593.01 134.755 593.738V597H132.655V589.468H134.755V590.462C135.025 590.154 135.361 589.893 135.763 589.678C136.173 589.463 136.589 589.351 137.009 589.342L137.023 591.316H136.617ZM139.912 599.968C139.175 599.968 138.48 599.669 137.826 599.072L138.778 597.518C139.133 597.863 139.497 598.036 139.87 598.036C140.066 598.036 140.234 597.938 140.374 597.742C140.514 597.555 140.584 597.355 140.584 597.14C140.584 596.925 139.614 594.368 137.672 589.468H139.912L141.746 594.158L143.58 589.468H145.82L142.32 598.344C142.115 598.857 141.793 599.254 141.354 599.534C140.925 599.823 140.444 599.968 139.912 599.968ZM153.466 589.034V589.538H155.286V591.05H153.466V597H151.352V591.05H150.47V589.538H151.352V589.076C151.352 588.255 151.599 587.606 152.094 587.13C152.598 586.645 153.218 586.402 153.956 586.402C154.702 586.402 155.379 586.682 155.986 587.242L155.23 588.656C154.922 588.301 154.581 588.124 154.208 588.124C153.993 588.124 153.816 588.203 153.676 588.362C153.536 588.511 153.466 588.735 153.466 589.034ZM158.295 593.234C158.295 593.85 158.467 594.354 158.813 594.746C159.167 595.129 159.615 595.32 160.157 595.32C160.707 595.32 161.155 595.129 161.501 594.746C161.855 594.354 162.033 593.85 162.033 593.234C162.033 592.618 161.855 592.114 161.501 591.722C161.155 591.33 160.707 591.134 160.157 591.134C159.615 591.134 159.167 591.33 158.813 591.722C158.467 592.114 158.295 592.618 158.295 593.234ZM164.147 593.234C164.147 594.326 163.769 595.245 163.013 595.992C162.257 596.739 161.305 597.112 160.157 597.112C159.018 597.112 158.071 596.739 157.315 595.992C156.559 595.245 156.181 594.326 156.181 593.234C156.181 592.142 156.559 591.223 157.315 590.476C158.071 589.72 159.018 589.342 160.157 589.342C161.305 589.342 162.257 589.72 163.013 590.476C163.769 591.223 164.147 592.142 164.147 593.234ZM169.869 591.316C169.243 591.316 168.777 591.54 168.469 591.988C168.161 592.427 168.007 593.01 168.007 593.738V597H165.907V589.468H168.007V590.462C168.277 590.154 168.613 589.893 169.015 589.678C169.425 589.463 169.841 589.351 170.261 589.342L170.275 591.316H169.869ZM178.26 589.034V589.538H180.08V591.05H178.26V597H176.146V591.05H175.264V589.538H176.146V589.076C176.146 588.255 176.393 587.606 176.888 587.13C177.392 586.645 178.012 586.402 178.75 586.402C179.496 586.402 180.173 586.682 180.78 587.242L180.024 588.656C179.716 588.301 179.375 588.124 179.002 588.124C178.787 588.124 178.61 588.203 178.47 588.362C178.33 588.511 178.26 588.735 178.26 589.034ZM185.549 591.316C184.923 591.316 184.457 591.54 184.149 591.988C183.841 592.427 183.687 593.01 183.687 593.738V597H181.587V589.468H183.687V590.462C183.957 590.154 184.293 589.893 184.695 589.678C185.105 589.463 185.521 589.351 185.941 589.342L185.955 591.316H185.549ZM194.066 595.908C193.217 596.711 192.218 597.112 191.07 597.112C189.932 597.112 188.989 596.762 188.242 596.062C187.496 595.353 187.122 594.405 187.122 593.22C187.122 592.035 187.5 591.092 188.256 590.392C189.022 589.692 189.922 589.342 190.958 589.342C191.994 589.342 192.872 589.655 193.59 590.28C194.318 590.905 194.682 591.764 194.682 592.856V593.976H189.194C189.26 594.387 189.474 594.723 189.838 594.984C190.202 595.245 190.613 595.376 191.07 595.376C191.808 595.376 192.414 595.129 192.89 594.634L194.066 595.908ZM192.554 592.478C192.508 592.03 192.34 591.685 192.05 591.442C191.761 591.199 191.406 591.078 190.986 591.078C190.576 591.078 190.198 591.204 189.852 591.456C189.507 591.708 189.306 592.049 189.25 592.478H192.554ZM202.921 595.908C202.071 596.711 201.073 597.112 199.925 597.112C198.786 597.112 197.843 596.762 197.097 596.062C196.35 595.353 195.977 594.405 195.977 593.22C195.977 592.035 196.355 591.092 197.111 590.392C197.876 589.692 198.777 589.342 199.813 589.342C200.849 589.342 201.726 589.655 202.445 590.28C203.173 590.905 203.537 591.764 203.537 592.856V593.976H198.049C198.114 594.387 198.329 594.723 198.693 594.984C199.057 595.245 199.467 595.376 199.925 595.376C200.662 595.376 201.269 595.129 201.745 594.634L202.921 595.908ZM201.409 592.478C201.362 592.03 201.194 591.685 200.905 591.442C200.615 591.199 200.261 591.078 199.841 591.078C199.43 591.078 199.052 591.204 198.707 591.456C198.361 591.708 198.161 592.049 198.105 592.478H201.409Z" fill="white"/>
<defs>
<clipPath id="clip0_688_3783">
<rect width="124" height="57" fill="white" transform="translate(101.5 200)"/>
</clipPath>
<clipPath id="clip1_688_3783">
<rect width="247" height="236" fill="white" transform="translate(40 292)"/>
</clipPath>
<clipPath id="clip2_688_3783">
<rect width="247" height="32" fill="white" transform="translate(40 292)"/>
</clipPath>
<clipPath id="clip3_688_3783">
<rect width="16" height="11" fill="white" transform="translate(48 302)"/>
</clipPath>
<clipPath id="clip4_688_3783">
<rect width="247" height="32" fill="white" transform="translate(40 339)"/>
</clipPath>
<clipPath id="clip5_688_3783">
<rect width="16" height="11" fill="white" transform="translate(48 349)"/>
</clipPath>
<clipPath id="clip6_688_3783">
<rect width="247" height="32" fill="white" transform="translate(40 386)"/>
</clipPath>
<clipPath id="clip7_688_3783">
<rect width="16" height="11" fill="white" transform="translate(48 396)"/>
</clipPath>
<clipPath id="clip8_688_3783">
<rect width="247" height="32" fill="white" transform="translate(40 433)"/>
</clipPath>
<clipPath id="clip9_688_3783">
<rect width="16" height="11" fill="white" transform="translate(48 443)"/>
</clipPath>
<clipPath id="clip10_688_3783">
<rect width="210" height="48" fill="white" transform="translate(40 480)"/>
</clipPath>
<clipPath id="clip11_688_3783">
<rect width="16" height="11" fill="white" transform="translate(48 490)"/>
</clipPath>
</defs>
</svg>
