<svg width="909" height="124" viewBox="0 0 909 124" fill="none" xmlns="http://www.w3.org/2000/svg">
<rect width="909" height="124" rx="2" fill="#252B42"/>
<g clip-path="url(#clip0_688_3772)">
<path d="M57.464 41.128C56.84 41.128 56.344 41.28 55.976 41.584C55.624 41.872 55.448 42.264 55.448 42.76C55.448 43.24 55.664 43.624 56.096 43.912C56.544 44.2 57.56 44.544 59.144 44.944C60.744 45.328 61.984 45.912 62.864 46.696C63.744 47.48 64.184 48.624 64.184 50.128C64.184 51.632 63.616 52.856 62.48 53.8C61.36 54.728 59.88 55.192 58.04 55.192C55.384 55.192 52.992 54.208 50.864 52.24L53.096 49.504C54.904 51.088 56.576 51.88 58.112 51.88C58.8 51.88 59.336 51.736 59.72 51.448C60.12 51.144 60.32 50.744 60.32 50.248C60.32 49.736 60.112 49.336 59.696 49.048C59.28 48.744 58.456 48.44 57.224 48.136C55.272 47.672 53.84 47.072 52.928 46.336C52.032 45.584 51.584 44.416 51.584 42.832C51.584 41.232 52.152 40 53.288 39.136C54.44 38.272 55.872 37.84 57.584 37.84C58.704 37.84 59.824 38.032 60.944 38.416C62.064 38.8 63.04 39.344 63.872 40.048L61.976 42.784C60.52 41.68 59.016 41.128 57.464 41.128ZM75.2726 49.048V42.088H78.8966V55H75.2726V53.296C74.3766 54.56 73.2166 55.192 71.7926 55.192C70.3846 55.192 69.2006 54.752 68.2406 53.872C67.2806 52.976 66.8006 51.656 66.8006 49.912V42.088H70.4246V49.12C70.4246 51.104 71.1526 52.096 72.6086 52.096C73.3286 52.096 73.9526 51.84 74.4806 51.328C75.0086 50.8 75.2726 50.04 75.2726 49.048ZM89.8362 41.872C91.4042 41.872 92.7722 42.488 93.9402 43.72C95.1082 44.936 95.6922 46.504 95.6922 48.424C95.6922 50.344 95.0922 51.952 93.8922 53.248C92.6922 54.544 91.3242 55.192 89.7882 55.192C88.2682 55.192 87.0042 54.56 85.9962 53.296V55H82.3962V37.192H85.9962V43.528C86.9882 42.424 88.2682 41.872 89.8362 41.872ZM85.9482 48.568C85.9482 49.608 86.2362 50.464 86.8122 51.136C87.4042 51.792 88.1162 52.12 88.9482 52.12C89.7802 52.12 90.5082 51.792 91.1322 51.136C91.7562 50.464 92.0682 49.608 92.0682 48.568C92.0682 47.528 91.7642 46.656 91.1562 45.952C90.5482 45.248 89.8202 44.896 88.9722 44.896C88.1242 44.896 87.4042 45.248 86.8122 45.952C86.2362 46.64 85.9482 47.512 85.9482 48.568ZM108.083 50.992C108.083 52.256 107.611 53.272 106.667 54.04C105.739 54.808 104.555 55.192 103.115 55.192C102.155 55.192 101.155 55.024 100.115 54.688C99.0754 54.336 98.1394 53.824 97.3074 53.152L98.8914 50.896C100.235 51.936 101.667 52.456 103.187 52.456C103.651 52.456 104.019 52.368 104.291 52.192C104.563 52 104.699 51.752 104.699 51.448C104.699 51.144 104.507 50.864 104.123 50.608C103.755 50.352 103.211 50.112 102.491 49.888C101.787 49.664 101.243 49.472 100.859 49.312C100.491 49.152 100.067 48.92 99.5874 48.616C98.6114 48.008 98.1234 47.112 98.1234 45.928C98.1234 44.728 98.6034 43.752 99.5634 43C100.523 42.248 101.763 41.872 103.283 41.872C104.803 41.872 106.323 42.384 107.843 43.408L106.499 45.808C105.379 45.04 104.259 44.656 103.139 44.656C102.035 44.656 101.483 44.96 101.483 45.568C101.483 45.904 101.659 46.168 102.011 46.36C102.363 46.552 102.947 46.776 103.763 47.032C104.579 47.288 105.155 47.488 105.491 47.632C105.843 47.76 106.259 47.968 106.739 48.256C107.635 48.8 108.083 49.712 108.083 50.992ZM117.124 52C118.324 52 119.404 51.4 120.364 50.2L122.5 52.6C120.836 54.328 119.036 55.192 117.1 55.192C115.164 55.192 113.524 54.584 112.18 53.368C110.852 52.136 110.188 50.536 110.188 48.568C110.188 46.584 110.86 44.976 112.204 43.744C113.564 42.496 115.172 41.872 117.028 41.872C117.956 41.872 118.892 42.064 119.836 42.448C120.796 42.832 121.636 43.4 122.356 44.152L120.484 46.6C120.068 46.104 119.556 45.72 118.948 45.448C118.356 45.176 117.764 45.04 117.172 45.04C116.228 45.04 115.412 45.352 114.724 45.976C114.052 46.584 113.716 47.44 113.716 48.544C113.716 49.632 114.052 50.48 114.724 51.088C115.412 51.696 116.212 52 117.124 52ZM131.793 45.256C130.721 45.256 129.921 45.64 129.393 46.408C128.865 47.16 128.601 48.16 128.601 49.408V55H125.001V42.088H128.601V43.792C129.065 43.264 129.641 42.816 130.329 42.448C131.033 42.08 131.745 41.888 132.465 41.872L132.489 45.256H131.793ZM138.568 55H134.968V42.088H138.568V55ZM135.256 40.456C134.856 40.04 134.656 39.536 134.656 38.944C134.656 38.352 134.856 37.856 135.256 37.456C135.672 37.04 136.176 36.832 136.768 36.832C137.36 36.832 137.856 37.04 138.256 37.456C138.672 37.856 138.88 38.352 138.88 38.944C138.88 39.536 138.672 40.04 138.256 40.456C137.856 40.856 137.36 41.056 136.768 41.056C136.176 41.056 135.672 40.856 135.256 40.456ZM149.516 41.872C151.084 41.872 152.452 42.488 153.62 43.72C154.788 44.936 155.372 46.504 155.372 48.424C155.372 50.344 154.772 51.952 153.572 53.248C152.372 54.544 151.004 55.192 149.468 55.192C147.948 55.192 146.684 54.56 145.676 53.296V55H142.076V37.192H145.676V43.528C146.668 42.424 147.948 41.872 149.516 41.872ZM145.628 48.568C145.628 49.608 145.916 50.464 146.492 51.136C147.084 51.792 147.796 52.12 148.628 52.12C149.46 52.12 150.188 51.792 150.812 51.136C151.436 50.464 151.748 49.608 151.748 48.568C151.748 47.528 151.444 46.656 150.836 45.952C150.228 45.248 149.5 44.896 148.652 44.896C147.804 44.896 147.084 45.248 146.492 45.952C145.916 46.64 145.628 47.512 145.628 48.568ZM169.344 53.128C167.888 54.504 166.176 55.192 164.208 55.192C162.256 55.192 160.64 54.592 159.36 53.392C158.08 52.176 157.44 50.552 157.44 48.52C157.44 46.488 158.088 44.872 159.384 43.672C160.696 42.472 162.24 41.872 164.016 41.872C165.792 41.872 167.296 42.408 168.528 43.48C169.776 44.552 170.4 46.024 170.4 47.896V49.816H160.992C161.104 50.52 161.472 51.096 162.096 51.544C162.72 51.992 163.424 52.216 164.208 52.216C165.472 52.216 166.512 51.792 167.328 50.944L169.344 53.128ZM166.752 47.248C166.672 46.48 166.384 45.888 165.888 45.472C165.392 45.056 164.784 44.848 164.064 44.848C163.36 44.848 162.712 45.064 162.12 45.496C161.528 45.928 161.184 46.512 161.088 47.248H166.752ZM191.404 38.224V41.512H183.628V45.136H191.02V48.424H183.628V55H179.884V38.224H191.404ZM196.942 48.544C196.942 49.6 197.238 50.464 197.83 51.136C198.438 51.792 199.206 52.12 200.134 52.12C201.078 52.12 201.846 51.792 202.438 51.136C203.046 50.464 203.35 49.6 203.35 48.544C203.35 47.488 203.046 46.624 202.438 45.952C201.846 45.28 201.078 44.944 200.134 44.944C199.206 44.944 198.438 45.28 197.83 45.952C197.238 46.624 196.942 47.488 196.942 48.544ZM206.974 48.544C206.974 50.416 206.326 51.992 205.03 53.272C203.734 54.552 202.102 55.192 200.134 55.192C198.182 55.192 196.558 54.552 195.262 53.272C193.966 51.992 193.318 50.416 193.318 48.544C193.318 46.672 193.966 45.096 195.262 43.816C196.558 42.52 198.182 41.872 200.134 41.872C202.102 41.872 203.734 42.52 205.03 43.816C206.326 45.096 206.974 46.672 206.974 48.544ZM216.54 45.256C215.468 45.256 214.668 45.64 214.14 46.408C213.612 47.16 213.348 48.16 213.348 49.408V55H209.748V42.088H213.348V43.792C213.812 43.264 214.388 42.816 215.076 42.448C215.78 42.08 216.492 41.888 217.212 41.872L217.236 45.256H216.54ZM226.503 55V38.224H230.247V51.664H237.399V55H226.503ZM250.852 55H247.468V53.44C246.54 54.608 245.388 55.192 244.012 55.192C242.652 55.192 241.508 54.8 240.58 54.016C239.652 53.216 239.188 52.16 239.188 50.848C239.188 49.52 239.668 48.528 240.628 47.872C241.588 47.216 242.9 46.888 244.564 46.888H247.252V46.816C247.252 45.44 246.524 44.752 245.068 44.752C244.444 44.752 243.78 44.88 243.076 45.136C242.388 45.376 241.804 45.68 241.324 46.048L239.716 43.72C241.412 42.488 243.348 41.872 245.524 41.872C247.092 41.872 248.372 42.264 249.364 43.048C250.356 43.832 250.852 45.072 250.852 46.768V55ZM247.228 50.08V49.456H244.972C243.532 49.456 242.812 49.904 242.812 50.8C242.812 51.264 242.98 51.624 243.316 51.88C243.668 52.12 244.164 52.24 244.804 52.24C245.444 52.24 246.004 52.048 246.484 51.664C246.98 51.264 247.228 50.736 247.228 50.08ZM258.389 44.68V50.464C258.389 50.96 258.517 51.352 258.773 51.64C259.029 51.912 259.333 52.048 259.685 52.048C260.357 52.048 260.925 51.744 261.389 51.136L262.733 53.656C261.613 54.68 260.429 55.192 259.181 55.192C257.949 55.192 256.901 54.784 256.037 53.968C255.189 53.152 254.765 52.04 254.765 50.632V44.68H253.253V42.088H254.765V38.224H258.389V42.088H261.509V44.68H258.389ZM275.947 53.128C274.491 54.504 272.779 55.192 270.811 55.192C268.859 55.192 267.243 54.592 265.963 53.392C264.683 52.176 264.043 50.552 264.043 48.52C264.043 46.488 264.691 44.872 265.987 43.672C267.299 42.472 268.843 41.872 270.619 41.872C272.395 41.872 273.899 42.408 275.131 43.48C276.379 44.552 277.003 46.024 277.003 47.896V49.816H267.595C267.707 50.52 268.075 51.096 268.699 51.544C269.323 51.992 270.027 52.216 270.811 52.216C272.075 52.216 273.115 51.792 273.931 50.944L275.947 53.128ZM273.355 47.248C273.275 46.48 272.987 45.888 272.491 45.472C271.995 45.056 271.387 44.848 270.667 44.848C269.963 44.848 269.315 45.064 268.723 45.496C268.131 45.928 267.787 46.512 267.691 47.248H273.355ZM289.419 50.992C289.419 52.256 288.947 53.272 288.003 54.04C287.075 54.808 285.891 55.192 284.451 55.192C283.491 55.192 282.491 55.024 281.451 54.688C280.411 54.336 279.475 53.824 278.643 53.152L280.227 50.896C281.571 51.936 283.003 52.456 284.523 52.456C284.987 52.456 285.355 52.368 285.627 52.192C285.899 52 286.035 51.752 286.035 51.448C286.035 51.144 285.843 50.864 285.459 50.608C285.091 50.352 284.547 50.112 283.827 49.888C283.123 49.664 282.579 49.472 282.195 49.312C281.827 49.152 281.403 48.92 280.923 48.616C279.947 48.008 279.459 47.112 279.459 45.928C279.459 44.728 279.939 43.752 280.899 43C281.859 42.248 283.099 41.872 284.619 41.872C286.139 41.872 287.659 42.384 289.179 43.408L287.835 45.808C286.715 45.04 285.595 44.656 284.475 44.656C283.371 44.656 282.819 44.96 282.819 45.568C282.819 45.904 282.995 46.168 283.347 46.36C283.699 46.552 284.283 46.776 285.099 47.032C285.915 47.288 286.491 47.488 286.827 47.632C287.179 47.76 287.595 47.968 288.075 48.256C288.971 48.8 289.419 49.712 289.419 50.992ZM296.47 44.68V50.464C296.47 50.96 296.598 51.352 296.854 51.64C297.11 51.912 297.414 52.048 297.766 52.048C298.438 52.048 299.006 51.744 299.47 51.136L300.814 53.656C299.694 54.68 298.51 55.192 297.262 55.192C296.03 55.192 294.982 54.784 294.118 53.968C293.27 53.152 292.846 52.04 292.846 50.632V44.68H291.334V42.088H292.846V38.224H296.47V42.088H299.59V44.68H296.47ZM63.8 70.224H67.544V87H63.8L55.808 76.488V87H52.064V70.224H55.568L63.8 81.024V70.224ZM82.6052 85.128C81.1492 86.504 79.4372 87.192 77.4692 87.192C75.5172 87.192 73.9012 86.592 72.6212 85.392C71.3412 84.176 70.7012 82.552 70.7012 80.52C70.7012 78.488 71.3492 76.872 72.6452 75.672C73.9572 74.472 75.5012 73.872 77.2772 73.872C79.0532 73.872 80.5572 74.408 81.7892 75.48C83.0372 76.552 83.6612 78.024 83.6612 79.896V81.816H74.2532C74.3652 82.52 74.7332 83.096 75.3572 83.544C75.9812 83.992 76.6852 84.216 77.4692 84.216C78.7332 84.216 79.7732 83.792 80.5892 82.944L82.6052 85.128ZM80.0132 79.248C79.9332 78.48 79.6452 77.888 79.1492 77.472C78.6532 77.056 78.0452 76.848 77.3252 76.848C76.6212 76.848 75.9732 77.064 75.3812 77.496C74.7892 77.928 74.4452 78.512 74.3492 79.248H80.0132ZM92.9599 87H89.2399L84.8479 74.088H88.5679L91.0879 81.888L93.6079 74.088H97.0879L99.6079 81.888L102.128 74.088H105.872L101.48 87H97.7359L95.3599 79.968L92.9599 87ZM117.529 82.992C117.529 84.256 117.057 85.272 116.113 86.04C115.185 86.808 114.001 87.192 112.561 87.192C111.601 87.192 110.601 87.024 109.561 86.688C108.521 86.336 107.585 85.824 106.753 85.152L108.337 82.896C109.681 83.936 111.113 84.456 112.633 84.456C113.097 84.456 113.465 84.368 113.737 84.192C114.009 84 114.145 83.752 114.145 83.448C114.145 83.144 113.953 82.864 113.569 82.608C113.201 82.352 112.657 82.112 111.937 81.888C111.233 81.664 110.689 81.472 110.305 81.312C109.937 81.152 109.513 80.92 109.033 80.616C108.057 80.008 107.569 79.112 107.569 77.928C107.569 76.728 108.049 75.752 109.009 75C109.969 74.248 111.209 73.872 112.729 73.872C114.249 73.872 115.769 74.384 117.289 75.408L115.945 77.808C114.825 77.04 113.705 76.656 112.585 76.656C111.481 76.656 110.929 76.96 110.929 77.568C110.929 77.904 111.105 78.168 111.457 78.36C111.809 78.552 112.393 78.776 113.209 79.032C114.025 79.288 114.601 79.488 114.937 79.632C115.289 79.76 115.705 79.968 116.185 80.256C117.081 80.8 117.529 81.712 117.529 82.992ZM123.977 87H120.377V69.192H123.977V87ZM138.669 85.128C137.213 86.504 135.501 87.192 133.533 87.192C131.581 87.192 129.965 86.592 128.685 85.392C127.405 84.176 126.765 82.552 126.765 80.52C126.765 78.488 127.413 76.872 128.709 75.672C130.021 74.472 131.565 73.872 133.341 73.872C135.117 73.872 136.621 74.408 137.853 75.48C139.101 76.552 139.725 78.024 139.725 79.896V81.816H130.317C130.429 82.52 130.797 83.096 131.421 83.544C132.045 83.992 132.749 84.216 133.533 84.216C134.797 84.216 135.837 83.792 136.653 82.944L138.669 85.128ZM136.077 79.248C135.997 78.48 135.709 77.888 135.213 77.472C134.717 77.056 134.109 76.848 133.389 76.848C132.685 76.848 132.037 77.064 131.445 77.496C130.853 77.928 130.509 78.512 130.413 79.248H136.077ZM146.577 76.68V82.464C146.577 82.96 146.705 83.352 146.961 83.64C147.217 83.912 147.521 84.048 147.873 84.048C148.545 84.048 149.113 83.744 149.577 83.136L150.921 85.656C149.801 86.68 148.617 87.192 147.369 87.192C146.137 87.192 145.089 86.784 144.225 85.968C143.377 85.152 142.953 84.04 142.953 82.632V76.68H141.441V74.088H142.953V70.224H146.577V74.088H149.697V76.68H146.577ZM157.247 76.68V82.464C157.247 82.96 157.375 83.352 157.631 83.64C157.887 83.912 158.191 84.048 158.543 84.048C159.215 84.048 159.783 83.744 160.247 83.136L161.591 85.656C160.471 86.68 159.287 87.192 158.039 87.192C156.807 87.192 155.759 86.784 154.895 85.968C154.047 85.152 153.623 84.04 153.623 82.632V76.68H152.111V74.088H153.623V70.224H157.247V74.088H160.367V76.68H157.247ZM174.805 85.128C173.349 86.504 171.637 87.192 169.669 87.192C167.717 87.192 166.101 86.592 164.821 85.392C163.541 84.176 162.901 82.552 162.901 80.52C162.901 78.488 163.549 76.872 164.845 75.672C166.157 74.472 167.701 73.872 169.477 73.872C171.253 73.872 172.757 74.408 173.989 75.48C175.237 76.552 175.861 78.024 175.861 79.896V81.816H166.453C166.565 82.52 166.933 83.096 167.557 83.544C168.181 83.992 168.885 84.216 169.669 84.216C170.933 84.216 171.973 83.792 172.789 82.944L174.805 85.128ZM172.213 79.248C172.133 78.48 171.845 77.888 171.349 77.472C170.853 77.056 170.245 76.848 169.525 76.848C168.821 76.848 168.173 77.064 167.581 77.496C166.989 77.928 166.645 78.512 166.549 79.248H172.213ZM185.349 77.256C184.277 77.256 183.477 77.64 182.949 78.408C182.421 79.16 182.157 80.16 182.157 81.408V87H178.557V74.088H182.157V75.792C182.621 75.264 183.197 74.816 183.885 74.448C184.589 74.08 185.301 73.888 186.021 73.872L186.045 77.256H185.349Z" fill="white"/>
<g clip-path="url(#clip1_688_3772)">
<rect x="418.5" y="33.5" width="449" height="57" rx="4.5" fill="#F9F9F9"/>
<rect x="418.5" y="33.5" width="449" height="57" rx="4.5" stroke="#E6E6E6"/>
<path d="M443.208 67H441.528V63.136L437.888 57.214H439.694L442.368 61.666L445.042 57.214H446.848L443.208 63.136V67ZM448.972 65.04C449.42 65.488 449.985 65.712 450.666 65.712C451.348 65.712 451.908 65.488 452.346 65.04C452.794 64.5827 453.018 63.9947 453.018 63.276C453.018 62.5573 452.794 61.974 452.346 61.526C451.908 61.0687 451.348 60.84 450.666 60.84C449.985 60.84 449.42 61.0687 448.972 61.526C448.534 61.974 448.314 62.5573 448.314 63.276C448.314 63.9947 448.534 64.5827 448.972 65.04ZM453.466 66.006C452.72 66.7433 451.786 67.112 450.666 67.112C449.546 67.112 448.613 66.7433 447.866 66.006C447.12 65.2593 446.746 64.3493 446.746 63.276C446.746 62.2027 447.12 61.2973 447.866 60.56C448.613 59.8133 449.546 59.44 450.666 59.44C451.786 59.44 452.72 59.8133 453.466 60.56C454.213 61.2973 454.586 62.2027 454.586 63.276C454.586 64.3493 454.213 65.2593 453.466 66.006ZM461.777 63.584V59.552H463.345V67H461.777V65.642C461.525 66.0993 461.175 66.4587 460.727 66.72C460.288 66.9813 459.812 67.112 459.299 67.112C458.459 67.112 457.778 66.8553 457.255 66.342C456.742 65.8287 456.485 65.0867 456.485 64.116V59.552H458.053V63.64C458.053 65.012 458.622 65.698 459.761 65.698C460.302 65.698 460.774 65.5207 461.175 65.166C461.576 64.802 461.777 64.2747 461.777 63.584ZM469.726 61.022C468.951 61.022 468.368 61.274 467.976 61.778C467.584 62.282 467.388 62.9587 467.388 63.808V67H465.82V59.552H467.388V61.05C467.64 60.5833 467.981 60.2007 468.41 59.902C468.849 59.6033 469.311 59.4493 469.796 59.44L469.81 61.022C469.782 61.022 469.754 61.022 469.726 61.022ZM482.724 57.214V58.768H477.502V61.358H482.192V62.828H477.502V65.446H482.892V67H475.85V57.214H482.724ZM486.554 62.968V67H484.986V59.552H486.554V60.91C486.778 60.4527 487.114 60.0933 487.562 59.832C488.02 59.5707 488.51 59.44 489.032 59.44C490.208 59.44 491.006 59.9253 491.426 60.896C492.164 59.9253 493.083 59.44 494.184 59.44C495.024 59.44 495.701 59.6967 496.214 60.21C496.737 60.7233 496.998 61.4653 496.998 62.436V67H495.43V62.912C495.43 61.54 494.861 60.854 493.722 60.854C493.19 60.854 492.724 61.0267 492.322 61.372C491.93 61.708 491.725 62.2027 491.706 62.856V67H490.138V62.912C490.138 62.2027 490.012 61.6847 489.76 61.358C489.508 61.022 489.112 60.854 488.57 60.854C488.029 60.854 487.558 61.036 487.156 61.4C486.755 61.7547 486.554 62.2773 486.554 62.968ZM505.412 67H503.984V66.006C503.368 66.7433 502.542 67.112 501.506 67.112C500.731 67.112 500.087 66.8927 499.574 66.454C499.07 66.0153 498.818 65.432 498.818 64.704C498.818 63.9667 499.088 63.416 499.63 63.052C500.171 62.688 500.904 62.506 501.828 62.506H503.858V62.226C503.858 61.2367 503.307 60.742 502.206 60.742C501.515 60.742 500.796 60.994 500.05 61.498L499.35 60.518C500.255 59.7993 501.282 59.44 502.43 59.44C503.307 59.44 504.021 59.664 504.572 60.112C505.132 60.5507 505.412 61.246 505.412 62.198V67ZM503.844 64.228V63.598H502.08C500.95 63.598 500.386 63.9527 500.386 64.662C500.386 65.026 500.526 65.306 500.806 65.502C501.086 65.6887 501.473 65.782 501.968 65.782C502.472 65.782 502.91 65.642 503.284 65.362C503.657 65.082 503.844 64.704 503.844 64.228ZM509.363 67H507.795V59.552H509.363V67ZM507.893 58.068C507.697 57.872 507.599 57.6387 507.599 57.368C507.599 57.0973 507.697 56.864 507.893 56.668C508.089 56.472 508.322 56.374 508.593 56.374C508.863 56.374 509.097 56.472 509.293 56.668C509.489 56.864 509.587 57.0973 509.587 57.368C509.587 57.6387 509.489 57.872 509.293 58.068C509.097 58.264 508.863 58.362 508.593 58.362C508.322 58.362 508.089 58.264 507.893 58.068ZM513.404 67H511.836V56.612H513.404V67Z" fill="#737373"/>
<g clip-path="url(#clip2_688_3772)">
<path d="M751.5 33.5H863C865.485 33.5 867.5 35.5147 867.5 38V86C867.5 88.4853 865.485 90.5 863 90.5H751.5V33.5Z" fill="#23A6F0"/>
<path d="M751.5 33.5H863C865.485 33.5 867.5 35.5147 867.5 38V86C867.5 88.4853 865.485 90.5 863 90.5H751.5V33.5Z" stroke="#E6E6E6"/>
<path d="M778.108 58.502C777.632 58.502 777.24 58.6 776.932 58.796C776.624 58.992 776.47 59.2907 776.47 59.692C776.47 60.084 776.624 60.3873 776.932 60.602C777.24 60.8073 777.893 61.0313 778.892 61.274C779.9 61.5167 780.656 61.8573 781.16 62.296C781.673 62.7347 781.93 63.3833 781.93 64.242C781.93 65.0913 781.608 65.782 780.964 66.314C780.32 66.846 779.475 67.112 778.43 67.112C776.899 67.112 775.541 66.5847 774.356 65.53L775.392 64.284C776.381 65.1427 777.408 65.572 778.472 65.572C779.004 65.572 779.424 65.46 779.732 65.236C780.049 65.0027 780.208 64.6993 780.208 64.326C780.208 63.9433 780.058 63.6493 779.76 63.444C779.47 63.2293 778.966 63.038 778.248 62.87C777.529 62.6927 776.983 62.534 776.61 62.394C776.236 62.2447 775.905 62.0533 775.616 61.82C775.037 61.3813 774.748 60.7093 774.748 59.804C774.748 58.8987 775.074 58.2033 775.728 57.718C776.39 57.2233 777.207 56.976 778.178 56.976C778.803 56.976 779.424 57.0787 780.04 57.284C780.656 57.4893 781.188 57.7787 781.636 58.152L780.754 59.398C780.464 59.1367 780.072 58.922 779.578 58.754C779.083 58.586 778.593 58.502 778.108 58.502ZM789.074 63.584V59.552H790.642V67H789.074V65.642C788.822 66.0993 788.472 66.4587 788.024 66.72C787.585 66.9813 787.109 67.112 786.596 67.112C785.756 67.112 785.075 66.8553 784.552 66.342C784.039 65.8287 783.782 65.0867 783.782 64.116V59.552H785.35V63.64C785.35 65.012 785.919 65.698 787.058 65.698C787.599 65.698 788.071 65.5207 788.472 65.166C788.873 64.802 789.074 64.2747 789.074 63.584ZM797.107 59.44C798.105 59.44 798.959 59.7853 799.669 60.476C800.378 61.1667 800.733 62.086 800.733 63.234C800.733 64.382 800.378 65.3153 799.669 66.034C798.969 66.7527 798.147 67.112 797.205 67.112C796.271 67.112 795.431 66.7013 794.685 65.88V67H793.117V56.612H794.685V60.854C795.301 59.9113 796.108 59.44 797.107 59.44ZM794.657 63.29C794.657 63.9993 794.871 64.5827 795.301 65.04C795.73 65.488 796.253 65.712 796.869 65.712C797.485 65.712 798.021 65.488 798.479 65.04C798.936 64.592 799.165 64.0133 799.165 63.304C799.165 62.5853 798.941 61.9927 798.493 61.526C798.045 61.05 797.508 60.812 796.883 60.812C796.257 60.812 795.73 61.05 795.301 61.526C794.871 61.9927 794.657 62.5807 794.657 63.29ZM808.029 64.774C808.029 65.4833 807.772 66.0527 807.259 66.482C806.746 66.902 806.088 67.112 805.285 67.112C804.744 67.112 804.179 67.014 803.591 66.818C803.012 66.622 802.499 66.3467 802.051 65.992L802.807 64.774C803.675 65.4273 804.515 65.754 805.327 65.754C805.682 65.754 805.962 65.6747 806.167 65.516C806.372 65.348 806.475 65.138 806.475 64.886C806.475 64.5127 805.98 64.1767 804.991 63.878C804.916 63.85 804.86 63.8313 804.823 63.822C803.274 63.402 802.499 62.702 802.499 61.722C802.499 61.0313 802.765 60.4807 803.297 60.07C803.838 59.65 804.538 59.44 805.397 59.44C806.256 59.44 807.068 59.692 807.833 60.196L807.245 61.358C806.638 60.9567 805.98 60.756 805.271 60.756C804.898 60.756 804.594 60.826 804.361 60.966C804.128 61.0967 804.011 61.2973 804.011 61.568C804.011 61.8107 804.132 61.988 804.375 62.1C804.543 62.184 804.776 62.2633 805.075 62.338C805.383 62.4127 805.654 62.4873 805.887 62.562C806.12 62.6367 806.344 62.7207 806.559 62.814C806.783 62.9073 807.021 63.038 807.273 63.206C807.777 63.542 808.029 64.0647 808.029 64.774ZM813.309 67.112C812.273 67.112 811.382 66.762 810.635 66.062C809.888 65.3527 809.515 64.4287 809.515 63.29C809.515 62.1513 809.902 61.2273 810.677 60.518C811.461 59.7993 812.413 59.44 813.533 59.44C814.653 59.44 815.6 59.8273 816.375 60.602L815.451 61.736C814.807 61.176 814.158 60.896 813.505 60.896C812.852 60.896 812.282 61.1153 811.797 61.554C811.321 61.9833 811.083 62.5433 811.083 63.234C811.083 63.9153 811.321 64.494 811.797 64.97C812.273 65.446 812.856 65.684 813.547 65.684C814.247 65.684 814.905 65.3667 815.521 64.732L816.445 65.74C815.54 66.6547 814.494 67.112 813.309 67.112ZM822.178 61.022C821.403 61.022 820.82 61.274 820.428 61.778C820.036 62.282 819.84 62.9587 819.84 63.808V67H818.272V59.552H819.84V61.05C820.092 60.5833 820.432 60.2007 820.862 59.902C821.3 59.6033 821.762 59.4493 822.248 59.44L822.262 61.022C822.234 61.022 822.206 61.022 822.178 61.022ZM825.604 67H824.036V59.552H825.604V67ZM824.134 58.068C823.938 57.872 823.84 57.6387 823.84 57.368C823.84 57.0973 823.938 56.864 824.134 56.668C824.33 56.472 824.563 56.374 824.834 56.374C825.105 56.374 825.338 56.472 825.534 56.668C825.73 56.864 825.828 57.0973 825.828 57.368C825.828 57.6387 825.73 57.872 825.534 58.068C825.338 58.264 825.105 58.362 824.834 58.362C824.563 58.362 824.33 58.264 824.134 58.068ZM832.068 59.44C833.066 59.44 833.92 59.7853 834.63 60.476C835.339 61.1667 835.694 62.086 835.694 63.234C835.694 64.382 835.339 65.3153 834.63 66.034C833.93 66.7527 833.108 67.112 832.166 67.112C831.232 67.112 830.392 66.7013 829.646 65.88V67H828.078V56.612H829.646V60.854C830.262 59.9113 831.069 59.44 832.068 59.44ZM829.618 63.29C829.618 63.9993 829.832 64.5827 830.262 65.04C830.691 65.488 831.214 65.712 831.83 65.712C832.446 65.712 832.982 65.488 833.44 65.04C833.897 64.592 834.126 64.0133 834.126 63.304C834.126 62.5853 833.902 61.9927 833.454 61.526C833.006 61.05 832.469 60.812 831.844 60.812C831.218 60.812 830.691 61.05 830.262 61.526C829.832 61.9927 829.618 62.5807 829.618 63.29ZM844.614 63.962H838.776C838.813 64.5033 839.061 64.942 839.518 65.278C839.975 65.6047 840.498 65.768 841.086 65.768C842.019 65.768 842.729 65.474 843.214 64.886L844.11 65.866C843.307 66.6967 842.262 67.112 840.974 67.112C839.929 67.112 839.037 66.7667 838.3 66.076C837.572 65.376 837.208 64.4427 837.208 63.276C837.208 62.1 837.581 61.1667 838.328 60.476C839.075 59.7853 839.952 59.44 840.96 59.44C841.977 59.44 842.841 59.748 843.55 60.364C844.259 60.9707 844.614 61.8107 844.614 62.884V63.962ZM838.776 62.73H843.046C843.046 62.1047 842.85 61.624 842.458 61.288C842.066 60.952 841.581 60.784 841.002 60.784C840.433 60.784 839.919 60.9613 839.462 61.316C839.005 61.6613 838.776 62.1327 838.776 62.73Z" fill="white"/>
</g>
</g>
</g>
<defs>
<clipPath id="clip0_688_3772">
<rect width="818" height="64" fill="white" transform="translate(50 30)"/>
</clipPath>
<clipPath id="clip1_688_3772">
<rect width="450" height="58" fill="white" transform="translate(418 33)"/>
</clipPath>
<clipPath id="clip2_688_3772">
<rect width="117" height="58" fill="white" transform="translate(751 33)"/>
</clipPath>
</defs>
</svg>
