<svg width="142" height="58" viewBox="0 0 142 58" fill="none" xmlns="http://www.w3.org/2000/svg">
<rect width="142" height="58" rx="5" fill="#23A6F0"/>
<g clip-path="url(#clip0_688_1878)">
<path fill-rule="evenodd" clip-rule="evenodd" d="M36.5 22.0025C36.303 22.0025 36.108 22.0413 35.926 22.1167C35.744 22.1921 35.5786 22.3026 35.4393 22.4418C35.3001 22.5811 35.1896 22.7465 35.1142 22.9285C35.0388 23.1105 35 23.3055 35 23.5025C35 23.6995 35.0388 23.8945 35.1142 24.0765C35.1896 24.2585 35.3001 24.4239 35.4393 24.5632C35.5786 24.7025 35.744 24.8129 35.926 24.8883C36.108 24.9637 36.303 25.0025 36.5 25.0025C36.8978 25.0025 37.2794 24.8445 37.5607 24.5632C37.842 24.2819 38 23.9003 38 23.5025C38 23.1047 37.842 22.7232 37.5607 22.4418C37.2794 22.1605 36.8978 22.0025 36.5 22.0025ZM34.05 23.0025C34.1648 22.4374 34.4714 21.9293 34.9179 21.5643C35.3644 21.1994 35.9233 21 36.5 21C37.0767 21 37.6356 21.1994 38.0821 21.5643C38.5286 21.9293 38.8352 22.4374 38.95 23.0025H41V24.0025H38.95C38.8352 24.5677 38.5286 25.0757 38.0821 25.4407C37.6356 25.8056 37.0767 26.005 36.5 26.005C35.9233 26.005 35.3644 25.8056 34.9179 25.4407C34.4714 25.0757 34.1648 24.5677 34.05 24.0025H25V23.0025H34.05ZM29.5 27.0025C29.1022 27.0025 28.7206 27.1605 28.4393 27.4418C28.158 27.7232 28 28.1047 28 28.5025C28 28.9003 28.158 29.2819 28.4393 29.5632C28.7206 29.8445 29.1022 30.0025 29.5 30.0025C29.8978 30.0025 30.2794 29.8445 30.5607 29.5632C30.842 29.2819 31 28.9003 31 28.5025C31 28.1047 30.842 27.7232 30.5607 27.4418C30.2794 27.1605 29.8978 27.0025 29.5 27.0025ZM27.05 28.0025C27.1648 27.4374 27.4714 26.9293 27.9179 26.5643C28.3644 26.1994 28.9233 26 29.5 26C30.0767 26 30.6356 26.1994 31.0821 26.5643C31.5286 26.9293 31.8352 27.4374 31.95 28.0025H41V29.0025H31.95C31.8352 29.5677 31.5286 30.0757 31.0821 30.4407C30.6356 30.8056 30.0767 31.005 29.5 31.005C28.9233 31.005 28.3644 30.8056 27.9179 30.4407C27.4714 30.0757 27.1648 29.5677 27.05 29.0025H25V28.0025H27.05ZM36.5 32.0025C36.1022 32.0025 35.7206 32.1605 35.4393 32.4418C35.158 32.7232 35 33.1047 35 33.5025C35 33.9003 35.158 34.2819 35.4393 34.5632C35.7206 34.8445 36.1022 35.0025 36.5 35.0025C36.8978 35.0025 37.2794 34.8445 37.5607 34.5632C37.842 34.2819 38 33.9003 38 33.5025C38 33.1047 37.842 32.7232 37.5607 32.4418C37.2794 32.1605 36.8978 32.0025 36.5 32.0025ZM34.05 33.0025C34.1648 32.4374 34.4714 31.9293 34.9179 31.5643C35.3644 31.1994 35.9233 31 36.5 31C37.0767 31 37.6356 31.1994 38.0821 31.5643C38.5286 31.9293 38.8352 32.4374 38.95 33.0025H41V34.0025H38.95C38.8352 34.5677 38.5286 35.0757 38.0821 35.4407C37.6356 35.8056 37.0767 36.005 36.5 36.005C35.9233 36.005 35.3644 35.8056 34.9179 35.4407C34.4714 35.0757 34.1648 34.5677 34.05 34.0025H25V33.0025H34.05Z" fill="white"/>
</g>
<path d="M60.354 25.908C59.99 25.908 59.7007 25.9967 59.486 26.174C59.2807 26.342 59.178 26.5707 59.178 26.86C59.178 27.14 59.304 27.364 59.556 27.532C59.8173 27.7 60.41 27.9007 61.334 28.134C62.2673 28.358 62.9907 28.6987 63.504 29.156C64.0173 29.6133 64.274 30.2807 64.274 31.158C64.274 32.0353 63.9427 32.7493 63.28 33.3C62.6267 33.8413 61.7633 34.112 60.69 34.112C59.1407 34.112 57.7453 33.538 56.504 32.39L57.806 30.794C58.8607 31.718 59.836 32.18 60.732 32.18C61.1333 32.18 61.446 32.096 61.67 31.928C61.9033 31.7507 62.02 31.5173 62.02 31.228C62.02 30.9293 61.8987 30.696 61.656 30.528C61.4133 30.3507 60.9327 30.1733 60.214 29.996C59.0753 29.7253 58.24 29.3753 57.708 28.946C57.1853 28.5073 56.924 27.826 56.924 26.902C56.924 25.9687 57.2553 25.25 57.918 24.746C58.59 24.242 59.4253 23.99 60.424 23.99C61.0773 23.99 61.7307 24.102 62.384 24.326C63.0373 24.55 63.6067 24.8673 64.092 25.278L62.986 26.874C62.1367 26.23 61.2593 25.908 60.354 25.908ZM72.6457 32.908C71.7964 33.7107 70.7977 34.112 69.6497 34.112C68.5111 34.112 67.5684 33.762 66.8217 33.062C66.0751 32.3527 65.7017 31.4053 65.7017 30.22C65.7017 29.0347 66.0797 28.092 66.8357 27.392C67.6011 26.692 68.5017 26.342 69.5377 26.342C70.5737 26.342 71.4511 26.6547 72.1697 27.28C72.8977 27.9053 73.2617 28.764 73.2617 29.856V30.976H67.7737C67.8391 31.3867 68.0537 31.7227 68.4177 31.984C68.7817 32.2453 69.1924 32.376 69.6497 32.376C70.3871 32.376 70.9937 32.1287 71.4697 31.634L72.6457 32.908ZM71.1337 29.478C71.0871 29.03 70.9191 28.6847 70.6297 28.442C70.3404 28.1993 69.9857 28.078 69.5657 28.078C69.1551 28.078 68.7771 28.204 68.4317 28.456C68.0864 28.708 67.8857 29.0487 67.8297 29.478H71.1337ZM77.4 27.98V31.354C77.4 31.6433 77.4747 31.872 77.624 32.04C77.7733 32.1987 77.9507 32.278 78.156 32.278C78.548 32.278 78.8793 32.1007 79.15 31.746L79.934 33.216C79.2807 33.8133 78.59 34.112 77.862 34.112C77.1433 34.112 76.532 33.874 76.028 33.398C75.5333 32.922 75.286 32.2733 75.286 31.452V27.98H74.404V26.468H75.286V24.214H77.4V26.468H79.22V27.98H77.4ZM83.766 27.98V31.354C83.766 31.6433 83.8407 31.872 83.99 32.04C84.1393 32.1987 84.3167 32.278 84.522 32.278C84.914 32.278 85.2453 32.1007 85.516 31.746L86.3 33.216C85.6467 33.8133 84.956 34.112 84.228 34.112C83.5093 34.112 82.898 33.874 82.394 33.398C81.8993 32.922 81.652 32.2733 81.652 31.452V27.98H80.77V26.468H81.652V24.214H83.766V26.468H85.586V27.98H83.766ZM89.726 34H87.626V26.468H89.726V34ZM87.794 25.516C87.5607 25.2733 87.444 24.9793 87.444 24.634C87.444 24.2887 87.5607 23.9993 87.794 23.766C88.0367 23.5233 88.3307 23.402 88.676 23.402C89.0214 23.402 89.3107 23.5233 89.544 23.766C89.7867 23.9993 89.908 24.2887 89.908 24.634C89.908 24.9793 89.7867 25.2733 89.544 25.516C89.3107 25.7493 89.0214 25.866 88.676 25.866C88.3307 25.866 88.0367 25.7493 87.794 25.516ZM94.0139 29.8V34H91.9139V26.468H94.0139V27.308C94.6486 26.664 95.3626 26.342 96.1559 26.342C96.9493 26.342 97.6119 26.622 98.1439 27.182C98.6853 27.742 98.9559 28.4887 98.9559 29.422V34H96.8559V29.744C96.8559 28.5867 96.4313 28.008 95.5819 28.008C95.1619 28.008 94.7933 28.162 94.4759 28.47C94.1679 28.7687 94.0139 29.212 94.0139 29.8ZM106.333 30.08C106.333 29.4733 106.165 28.9973 105.829 28.652C105.493 28.3067 105.078 28.134 104.583 28.134C104.089 28.134 103.659 28.3067 103.295 28.652C102.941 28.9973 102.763 29.4687 102.763 30.066C102.763 30.6633 102.936 31.1487 103.281 31.522C103.636 31.886 104.065 32.068 104.569 32.068C105.073 32.068 105.493 31.886 105.829 31.522C106.165 31.158 106.333 30.6773 106.333 30.08ZM106.627 32.726C105.965 33.4633 105.139 33.832 104.149 33.832C103.169 33.832 102.339 33.5007 101.657 32.838C100.985 32.166 100.649 31.2747 100.649 30.164C100.649 29.044 100.995 28.1293 101.685 27.42C102.385 26.7013 103.183 26.342 104.079 26.342C104.975 26.342 105.717 26.7107 106.305 27.448V26.454H108.405V33.02C108.405 33.692 108.289 34.2893 108.055 34.812C107.822 35.3347 107.509 35.7453 107.117 36.044C106.343 36.66 105.428 36.968 104.373 36.968C103.813 36.968 103.239 36.8747 102.651 36.688C102.073 36.5107 101.564 36.254 101.125 35.918L101.937 34.336C102.628 34.8587 103.356 35.12 104.121 35.12C104.896 35.12 105.507 34.9287 105.955 34.546C106.403 34.1633 106.627 33.5567 106.627 32.726ZM116.263 31.662C116.263 32.3993 115.988 32.992 115.437 33.44C114.896 33.888 114.205 34.112 113.365 34.112C112.805 34.112 112.222 34.014 111.615 33.818C111.009 33.6127 110.463 33.314 109.977 32.922L110.901 31.606C111.685 32.2127 112.521 32.516 113.407 32.516C113.678 32.516 113.893 32.4647 114.051 32.362C114.21 32.25 114.289 32.1053 114.289 31.928C114.289 31.7507 114.177 31.5873 113.953 31.438C113.739 31.2887 113.421 31.1487 113.001 31.018C112.591 30.8873 112.273 30.7753 112.049 30.682C111.835 30.5887 111.587 30.4533 111.307 30.276C110.738 29.9213 110.453 29.3987 110.453 28.708C110.453 28.008 110.733 27.4387 111.293 27C111.853 26.5613 112.577 26.342 113.463 26.342C114.35 26.342 115.237 26.6407 116.123 27.238L115.339 28.638C114.686 28.19 114.033 27.966 113.379 27.966C112.735 27.966 112.413 28.1433 112.413 28.498C112.413 28.694 112.516 28.848 112.721 28.96C112.927 29.072 113.267 29.2027 113.743 29.352C114.219 29.5013 114.555 29.618 114.751 29.702C114.957 29.7767 115.199 29.898 115.479 30.066C116.002 30.3833 116.263 30.9153 116.263 31.662Z" fill="white"/>
<defs>
<clipPath id="clip0_688_1878">
<rect width="16" height="16" fill="white" transform="translate(25 21)"/>
</clipPath>
</defs>
</svg>
