<svg width="130" height="58" viewBox="0 0 130 58" fill="none" xmlns="http://www.w3.org/2000/svg">
<rect width="130" height="58" rx="5" fill="#23A6F0"/>
<path d="M45.5769 34H41.2929V24.214H45.1009C45.7635 24.214 46.3329 24.2933 46.8089 24.452C47.2942 24.6107 47.6582 24.8253 47.9009 25.096C48.3395 25.6 48.5589 26.1693 48.5589 26.804C48.5589 27.5693 48.3115 28.1387 47.8169 28.512C47.6489 28.6427 47.5322 28.7267 47.4669 28.764C47.4015 28.792 47.2849 28.8433 47.1169 28.918C47.7235 29.0487 48.2042 29.324 48.5589 29.744C48.9229 30.1547 49.1049 30.668 49.1049 31.284C49.1049 31.9653 48.8715 32.5673 48.4049 33.09C47.8635 33.6967 46.9209 34 45.5769 34ZM43.4769 28.176H44.5129C45.1195 28.176 45.5675 28.1107 45.8569 27.98C46.1555 27.8493 46.3049 27.5693 46.3049 27.14C46.3049 26.7013 46.1695 26.412 45.8989 26.272C45.6282 26.132 45.1709 26.062 44.5269 26.062H43.4769V28.176ZM43.4769 32.152H44.9749C45.6002 32.152 46.0669 32.0773 46.3749 31.928C46.6922 31.7693 46.8509 31.466 46.8509 31.018C46.8509 30.5607 46.6829 30.262 46.3469 30.122C46.0202 29.9727 45.4929 29.898 44.7649 29.898H43.4769V32.152ZM55.7249 30.528V26.468H57.8389V34H55.7249V33.006C55.2022 33.7433 54.5255 34.112 53.6949 34.112C52.8735 34.112 52.1829 33.8553 51.6229 33.342C51.0629 32.8193 50.7829 32.0493 50.7829 31.032V26.468H52.8969V30.57C52.8969 31.7273 53.3215 32.306 54.1709 32.306C54.5909 32.306 54.9549 32.1567 55.2629 31.858C55.5709 31.55 55.7249 31.1067 55.7249 30.528ZM62.5279 27.98V31.354C62.5279 31.6433 62.6026 31.872 62.7519 32.04C62.9013 32.1987 63.0786 32.278 63.2839 32.278C63.6759 32.278 64.0073 32.1007 64.2779 31.746L65.0619 33.216C64.4086 33.8133 63.7179 34.112 62.9899 34.112C62.2713 34.112 61.6599 33.874 61.1559 33.398C60.6613 32.922 60.4139 32.2733 60.4139 31.452V27.98H59.5319V26.468H60.4139V24.214H62.5279V26.468H64.3479V27.98H62.5279ZM68.8939 27.98V31.354C68.8939 31.6433 68.9686 31.872 69.1179 32.04C69.2673 32.1987 69.4446 32.278 69.6499 32.278C70.0419 32.278 70.3733 32.1007 70.6439 31.746L71.4279 33.216C70.7746 33.8133 70.0839 34.112 69.3559 34.112C68.6373 34.112 68.0259 33.874 67.5219 33.398C67.0273 32.922 66.7799 32.2733 66.7799 31.452V27.98H65.8979V26.468H66.7799V24.214H68.8939V26.468H70.7139V27.98H68.8939ZM74.3519 30.234C74.3519 30.85 74.5246 31.354 74.8699 31.746C75.2246 32.1287 75.6726 32.32 76.2139 32.32C76.7646 32.32 77.2126 32.1287 77.5579 31.746C77.9126 31.354 78.0899 30.85 78.0899 30.234C78.0899 29.618 77.9126 29.114 77.5579 28.722C77.2126 28.33 76.7646 28.134 76.2139 28.134C75.6726 28.134 75.2246 28.33 74.8699 28.722C74.5246 29.114 74.3519 29.618 74.3519 30.234ZM80.2039 30.234C80.2039 31.326 79.8259 32.2453 79.0699 32.992C78.3139 33.7387 77.3619 34.112 76.2139 34.112C75.0753 34.112 74.1279 33.7387 73.3719 32.992C72.6159 32.2453 72.2379 31.326 72.2379 30.234C72.2379 29.142 72.6159 28.2227 73.3719 27.476C74.1279 26.72 75.0753 26.342 76.2139 26.342C77.3619 26.342 78.3139 26.72 79.0699 27.476C79.8259 28.2227 80.2039 29.142 80.2039 30.234ZM84.0637 29.8V34H81.9637V26.468H84.0637V27.308C84.6984 26.664 85.4124 26.342 86.2057 26.342C86.9991 26.342 87.6617 26.622 88.1937 27.182C88.7351 27.742 89.0057 28.4887 89.0057 29.422V34H86.9057V29.744C86.9057 28.5867 86.4811 28.008 85.6317 28.008C85.2117 28.008 84.8431 28.162 84.5257 28.47C84.2177 28.7687 84.0637 29.212 84.0637 29.8Z" fill="white"/>
</svg>
