<svg width="113" height="58" viewBox="0 0 113 58" fill="none" xmlns="http://www.w3.org/2000/svg">
<rect width="112.143" height="58" rx="5" fill="#23A6F0"/>
<path d="M34.968 27.84L32.322 33.188H31.02L28.388 27.84V34H26.204V24.214H29.158L31.678 29.59L34.212 24.214H37.152V34H34.968V27.84ZM41.2314 30.234C41.2314 30.85 41.4041 31.354 41.7494 31.746C42.1041 32.1287 42.5521 32.32 43.0934 32.32C43.6441 32.32 44.0921 32.1287 44.4374 31.746C44.7921 31.354 44.9694 30.85 44.9694 30.234C44.9694 29.618 44.7921 29.114 44.4374 28.722C44.0921 28.33 43.6441 28.134 43.0934 28.134C42.5521 28.134 42.1041 28.33 41.7494 28.722C41.4041 29.114 41.2314 29.618 41.2314 30.234ZM47.0834 30.234C47.0834 31.326 46.7054 32.2453 45.9494 32.992C45.1934 33.7387 44.2414 34.112 43.0934 34.112C41.9548 34.112 41.0074 33.7387 40.2514 32.992C39.4954 32.2453 39.1174 31.326 39.1174 30.234C39.1174 29.142 39.4954 28.2227 40.2514 27.476C41.0074 26.72 41.9548 26.342 43.0934 26.342C44.2414 26.342 45.1934 26.72 45.9494 27.476C46.7054 28.2227 47.0834 29.142 47.0834 30.234ZM52.8052 28.316C52.1799 28.316 51.7132 28.54 51.4052 28.988C51.0972 29.4267 50.9432 30.01 50.9432 30.738V34H48.8432V26.468H50.9432V27.462C51.2139 27.154 51.5499 26.8927 51.9512 26.678C52.3619 26.4633 52.7772 26.3513 53.1972 26.342L53.2112 28.316H52.8052ZM61.3231 32.908C60.4737 33.7107 59.4751 34.112 58.3271 34.112C57.1884 34.112 56.2457 33.762 55.4991 33.062C54.7524 32.3527 54.3791 31.4053 54.3791 30.22C54.3791 29.0347 54.7571 28.092 55.5131 27.392C56.2784 26.692 57.1791 26.342 58.2151 26.342C59.2511 26.342 60.1284 26.6547 60.8471 27.28C61.5751 27.9053 61.9391 28.764 61.9391 29.856V30.976H56.4511C56.5164 31.3867 56.7311 31.7227 57.0951 31.984C57.4591 32.2453 57.8697 32.376 58.3271 32.376C59.0644 32.376 59.6711 32.1287 60.1471 31.634L61.3231 32.908ZM59.8111 29.478C59.7644 29.03 59.5964 28.6847 59.3071 28.442C59.0177 28.1993 58.6631 28.078 58.2431 28.078C57.8324 28.078 57.4544 28.204 57.1091 28.456C56.7637 28.708 56.5631 29.0487 56.5071 29.478H59.8111Z" fill="white"/>
<g clip-path="url(#clip0_688_1897)">
<path d="M78 34.7143L83.7143 29L78 23.2857L79.1429 21L87.1429 29L79.1429 37L78 34.7143Z" fill="white"/>
</g>
<defs>
<clipPath id="clip0_688_1897">
<rect width="9.14286" height="16" fill="white" transform="translate(78 21)"/>
</clipPath>
</defs>
</svg>
