<svg width="64" height="64" viewBox="0 0 64 64" fill="none" xmlns="http://www.w3.org/2000/svg">
<rect x="0.5" y="0.5" width="63" height="63" rx="4.5" stroke="#23A6F0"/>
<path fill-rule="evenodd" clip-rule="evenodd" d="M37.25 21.5038C36.9545 21.5038 36.6619 21.562 36.389 21.675C36.116 21.7881 35.8679 21.9538 35.659 22.1628C35.4501 22.3717 35.2843 22.6197 35.1713 22.8927C35.0582 23.1657 35 23.4583 35 23.7538C35 24.0492 35.0582 24.3418 35.1713 24.6148C35.2843 24.8878 35.4501 25.1358 35.659 25.3447C35.8679 25.5537 36.116 25.7194 36.389 25.8325C36.6619 25.9456 36.9545 26.0038 37.25 26.0038C37.8467 26.0038 38.419 25.7667 38.841 25.3447C39.2629 24.9228 39.5 24.3505 39.5 23.7538C39.5 23.157 39.2629 22.5847 38.841 22.1628C38.419 21.7408 37.8467 21.5038 37.25 21.5038ZM33.575 23.0038C33.7471 22.156 34.207 21.3939 34.8768 20.8465C35.5466 20.299 36.385 20 37.25 20C38.115 20 38.9534 20.299 39.6232 20.8465C40.293 21.3939 40.7529 22.156 40.925 23.0038H44V24.5038H40.925C40.7529 25.3515 40.293 26.1136 39.6232 26.661C38.9534 27.2085 38.115 27.5075 37.25 27.5075C36.385 27.5075 35.5466 27.2085 34.8768 26.661C34.207 26.1136 33.7471 25.3515 33.575 24.5038H20V23.0038H33.575ZM26.75 29.0038C26.1533 29.0038 25.581 29.2408 25.159 29.6628C24.7371 30.0847 24.5 30.657 24.5 31.2538C24.5 31.8505 24.7371 32.4228 25.159 32.8447C25.581 33.2667 26.1533 33.5038 26.75 33.5038C27.3467 33.5038 27.919 33.2667 28.341 32.8447C28.7629 32.4228 29 31.8505 29 31.2538C29 30.657 28.7629 30.0847 28.341 29.6628C27.919 29.2408 27.3467 29.0038 26.75 29.0038ZM23.075 30.5038C23.2471 29.656 23.707 28.8939 24.3768 28.3465C25.0466 27.799 25.885 27.5 26.75 27.5C27.615 27.5 28.4534 27.799 29.1232 28.3465C29.793 28.8939 30.2529 29.656 30.425 30.5038H44V32.0038H30.425C30.2529 32.8515 29.793 33.6136 29.1232 34.161C28.4534 34.7085 27.615 35.0075 26.75 35.0075C25.885 35.0075 25.0466 34.7085 24.3768 34.161C23.707 33.6136 23.2471 32.8515 23.075 32.0038H20V30.5038H23.075ZM37.25 36.5038C36.6533 36.5038 36.081 36.7408 35.659 37.1628C35.2371 37.5847 35 38.157 35 38.7538C35 39.3505 35.2371 39.9228 35.659 40.3447C36.081 40.7667 36.6533 41.0038 37.25 41.0038C37.8467 41.0038 38.419 40.7667 38.841 40.3447C39.2629 39.9228 39.5 39.3505 39.5 38.7538C39.5 38.157 39.2629 37.5847 38.841 37.1628C38.419 36.7408 37.8467 36.5038 37.25 36.5038ZM33.575 38.0038C33.7471 37.156 34.207 36.3939 34.8768 35.8465C35.5466 35.299 36.385 35 37.25 35C38.115 35 38.9534 35.299 39.6232 35.8465C40.293 36.3939 40.7529 37.156 40.925 38.0038H44V39.5038H40.925C40.7529 40.3515 40.293 41.1136 39.6232 41.661C38.9534 42.2085 38.115 42.5075 37.25 42.5075C36.385 42.5075 35.5466 42.2085 34.8768 41.661C34.207 41.1136 33.7471 40.3515 33.575 39.5038H20V38.0038H33.575Z" fill="#23A6F0"/>
</svg>
