<svg width="156" height="58" viewBox="0 0 156 58" fill="none" xmlns="http://www.w3.org/2000/svg">
<rect width="156" height="58" rx="5" fill="#23A6F0"/>
<path d="M29.662 24.214C31.4073 24.214 32.7467 24.6433 33.68 25.502C34.6133 26.3513 35.08 27.5367 35.08 29.058C35.08 30.5793 34.6227 31.7833 33.708 32.67C32.8027 33.5567 31.4167 34 29.55 34H26.204V24.214H29.662ZM29.774 32.068C30.7727 32.068 31.538 31.816 32.07 31.312C32.6113 30.808 32.882 30.0753 32.882 29.114C32.882 28.1527 32.6113 27.4153 32.07 26.902C31.538 26.3793 30.7167 26.118 29.606 26.118H28.388V32.068H29.774ZM40.9158 28.316C40.2904 28.316 39.8238 28.54 39.5158 28.988C39.2078 29.4267 39.0538 30.01 39.0538 30.738V34H36.9538V26.468H39.0538V27.462C39.3244 27.154 39.6604 26.8927 40.0618 26.678C40.4724 26.4633 40.8878 26.3513 41.3078 26.342L41.3218 28.316H40.9158ZM44.4802 30.234C44.4802 30.85 44.6529 31.354 44.9982 31.746C45.3529 32.1287 45.8009 32.32 46.3422 32.32C46.8929 32.32 47.3409 32.1287 47.6862 31.746C48.0409 31.354 48.2183 30.85 48.2183 30.234C48.2183 29.618 48.0409 29.114 47.6862 28.722C47.3409 28.33 46.8929 28.134 46.3422 28.134C45.8009 28.134 45.3529 28.33 44.9982 28.722C44.6529 29.114 44.4802 29.618 44.4802 30.234ZM50.3322 30.234C50.3322 31.326 49.9542 32.2453 49.1982 32.992C48.4422 33.7387 47.4902 34.112 46.3422 34.112C45.2036 34.112 44.2562 33.7387 43.5002 32.992C42.7442 32.2453 42.3662 31.326 42.3662 30.234C42.3662 29.142 42.7442 28.2227 43.5002 27.476C44.2562 26.72 45.2036 26.342 46.3422 26.342C47.4902 26.342 48.4422 26.72 49.1982 27.476C49.9542 28.2227 50.3322 29.142 50.3322 30.234ZM56.474 26.342C57.3514 26.342 58.1307 26.7107 58.812 27.448C59.5027 28.176 59.848 29.0953 59.848 30.206C59.848 31.3167 59.5027 32.2453 58.812 32.992C58.1307 33.7387 57.328 34.112 56.404 34.112C55.4894 34.112 54.752 33.7433 54.192 33.006V36.716H52.092V26.468H54.192V27.308C54.836 26.664 55.5967 26.342 56.474 26.342ZM54.164 30.248C54.164 30.8547 54.332 31.354 54.668 31.746C55.0134 32.1287 55.4287 32.32 55.914 32.32C56.3994 32.32 56.824 32.1287 57.188 31.746C57.552 31.354 57.734 30.8547 57.734 30.248C57.734 29.6413 57.5567 29.1327 57.202 28.722C56.8474 28.3113 56.4227 28.106 55.928 28.106C55.4334 28.106 55.0134 28.3113 54.668 28.722C54.332 29.1233 54.164 29.632 54.164 30.248ZM64.6263 34.112C63.7396 34.112 62.9463 33.734 62.2463 32.978C61.5463 32.222 61.1963 31.284 61.1963 30.164C61.1963 29.044 61.5369 28.1293 62.2183 27.42C62.8996 26.7013 63.6976 26.342 64.6123 26.342C65.5269 26.342 66.2736 26.664 66.8523 27.308V23.612H68.9523V34H66.8523V33.006C66.2643 33.7433 65.5223 34.112 64.6263 34.112ZM63.3103 30.248C63.3103 30.8547 63.4923 31.354 63.8563 31.746C64.2203 32.1287 64.6449 32.32 65.1303 32.32C65.6156 32.32 66.0263 32.1287 66.3623 31.746C66.7076 31.354 66.8803 30.8547 66.8803 30.248C66.8803 29.632 66.7076 29.1233 66.3623 28.722C66.0263 28.3113 65.6109 28.106 65.1163 28.106C64.6216 28.106 64.1969 28.3113 63.8423 28.722C63.4876 29.1327 63.3103 29.6413 63.3103 30.248ZM72.8205 30.234C72.8205 30.85 72.9932 31.354 73.3385 31.746C73.6932 32.1287 74.1412 32.32 74.6825 32.32C75.2332 32.32 75.6812 32.1287 76.0265 31.746C76.3812 31.354 76.5585 30.85 76.5585 30.234C76.5585 29.618 76.3812 29.114 76.0265 28.722C75.6812 28.33 75.2332 28.134 74.6825 28.134C74.1412 28.134 73.6932 28.33 73.3385 28.722C72.9932 29.114 72.8205 29.618 72.8205 30.234ZM78.6725 30.234C78.6725 31.326 78.2945 32.2453 77.5385 32.992C76.7825 33.7387 75.8305 34.112 74.6825 34.112C73.5438 34.112 72.5965 33.7387 71.8405 32.992C71.0845 32.2453 70.7065 31.326 70.7065 30.234C70.7065 29.142 71.0845 28.2227 71.8405 27.476C72.5965 26.72 73.5438 26.342 74.6825 26.342C75.8305 26.342 76.7825 26.72 77.5385 27.476C78.2945 28.2227 78.6725 29.142 78.6725 30.234ZM84.2156 34H82.0456L79.4836 26.468H81.6536L83.1236 31.018L84.5936 26.468H86.6236L88.0936 31.018L89.5636 26.468H91.7476L89.1856 34H87.0016L85.6156 29.898L84.2156 34ZM95.2284 29.8V34H93.1284V26.468H95.2284V27.308C95.863 26.664 96.577 26.342 97.3704 26.342C98.1637 26.342 98.8264 26.622 99.3584 27.182C99.8997 27.742 100.17 28.4887 100.17 29.422V34H98.0704V29.744C98.0704 28.5867 97.6457 28.008 96.7964 28.008C96.3764 28.008 96.0077 28.162 95.6904 28.47C95.3824 28.7687 95.2284 29.212 95.2284 29.8Z" fill="white"/>
<g clip-path="url(#clip0_688_1882)">
<path d="M119 25L124 30L129 25L131 26L124 33L117 26L119 25Z" fill="white"/>
</g>
<defs>
<clipPath id="clip0_688_1882">
<rect width="8" height="14" fill="white" transform="translate(131 25) rotate(90)"/>
</clipPath>
</defs>
</svg>
